<?xml version="1.0" encoding="UTF-8" standalone="no"?>
<!-- Created with Inkscape (http://www.inkscape.org/) -->

<svg
   xmlns:dc="http://purl.org/dc/elements/1.1/"
   xmlns:cc="http://creativecommons.org/ns#"
   xmlns:rdf="http://www.w3.org/1999/02/22-rdf-syntax-ns#"
   xmlns:svg="http://www.w3.org/2000/svg"
   xmlns="http://www.w3.org/2000/svg"
   xmlns:sodipodi="http://sodipodi.sourceforge.net/DTD/sodipodi-0.dtd"
   xmlns:inkscape="http://www.inkscape.org/namespaces/inkscape"
   width="77.818146mm"
   height="69.578156mm"
   viewBox="0 0 77.818146 69.578156"
   version="1.1"
   id="svg8"
   inkscape:version="0.92.2 (5c3e80d, 2017-08-06)"
   sodipodi:docname="Couvercle.svg">
  <defs
     id="defs2">
    <marker
       style="overflow:visible"
       refY="0"
       refX="0"
       orient="auto"
       id="DistanceX">
      <path
         id="path817"
         style="stroke:#000000;stroke-width:0.5"
         d="M 3,-3 -3,3 M 0,-5 V 5"
         inkscape:connector-curvature="0" />
    </marker>
    <pattern
       y="0"
       x="0"
       width="8"
       patternUnits="userSpaceOnUse"
       id="Hatch"
       height="8">
      <path
         id="path820"
         stroke-width="0.25"
         stroke="#000000"
         linecap="square"
         d="M8 4 l-4,4" />
      <path
         id="path822"
         stroke-width="0.25"
         stroke="#000000"
         linecap="square"
         d="M6 2 l-4,4" />
      <path
         id="path824"
         stroke-width="0.25"
         stroke="#000000"
         linecap="square"
         d="M4 0 l-4,4" />
    </pattern>
    <symbol
       id="*Model_Space" />
    <symbol
       id="*Paper_Space" />
    <symbol
       id="*Paper_Space0" />
  </defs>
  <sodipodi:namedview
     id="base"
     pagecolor="#ffffff"
     bordercolor="#666666"
     borderopacity="1.0"
     inkscape:pageopacity="0.0"
     inkscape:pageshadow="2"
     inkscape:zoom="2.8"
     inkscape:cx="185.22554"
     inkscape:cy="130.72417"
     inkscape:document-units="mm"
     inkscape:current-layer="g1094"
     showgrid="false"
     fit-margin-top="1"
     fit-margin-left="1"
     fit-margin-bottom="1"
     fit-margin-right="1"
     inkscape:window-width="1920"
     inkscape:window-height="1017"
     inkscape:window-x="-8"
     inkscape:window-y="-8"
     inkscape:window-maximized="1" />
  <metadata
     id="metadata5">
    <rdf:RDF>
      <cc:Work
         rdf:about="">
        <dc:format>image/svg+xml</dc:format>
        <dc:type
           rdf:resource="http://purl.org/dc/dcmitype/StillImage" />
        <dc:title></dc:title>
      </cc:Work>
    </rdf:RDF>
  </metadata>
  <g
     inkscape:label="Calque 1"
     inkscape:groupmode="layer"
     id="layer1"
     transform="translate(-1.1220816,-1.2319389)">
    <g
       id="g1094"
       inkscape:label="0"
       transform="matrix(0.26458333,0,0,0.26458333,-71.459917,-149.09803)">
      <path
         id="path908"
         style="fill:none;stroke:#ff0000;stroke-width:0.89999998;stroke-linecap:round;stroke-opacity:1"
         d="m 374.07988,661.94285 a 3.77953,3.77953 0 1 0 -7.55906,0 3.77953,3.77953 0 1 0 7.55906,0 z"
         inkscape:connector-curvature="0" />
      <path
         id="path910"
         style="fill:none;stroke:#ff0000;stroke-width:0.89999998;stroke-linecap:round;stroke-opacity:1"
         d="m 295.52387,627.92715 a 3.779528,3.779528 0 1 0 -7.55905,0 3.779528,3.779528 0 1 0 7.55905,0 z"
         inkscape:connector-curvature="0" />
      <path
         id="path912"
         style="fill:none;stroke:#ff0000;stroke-width:0.89999998;stroke-linecap:round;stroke-opacity:1"
         d="m 305.34337,633.59635 a 3.779528,3.779528 0 1 0 -7.55905,0 3.779528,3.779528 0 1 0 7.55905,0 z"
         inkscape:connector-curvature="0" />
      <path
         id="path914"
         style="fill:none;stroke:#ff0000;stroke-width:0.89999998;stroke-linecap:round;stroke-opacity:1"
         d="m 315.16287,639.26565 a 3.779528,3.779528 0 1 0 -7.55905,0 3.779528,3.779528 0 1 0 7.55905,0 z"
         inkscape:connector-curvature="0" />
      <path
         id="path916"
         style="fill:none;stroke:#ff0000;stroke-width:0.89999998;stroke-linecap:round;stroke-opacity:1"
         d="m 364.26038,656.27355 a 3.77953,3.77953 0 1 0 -7.55906,0 3.77953,3.77953 0 1 0 7.55906,0 z"
         inkscape:connector-curvature="0" />
      <path
         id="path918"
         style="fill:none;stroke:#ff0000;stroke-width:0.89999998;stroke-linecap:round;stroke-opacity:1"
         d="m 354.44088,650.60425 a 3.77953,3.77953 0 1 0 -7.55906,0 3.77953,3.77953 0 1 0 7.55906,0 z"
         inkscape:connector-curvature="0" />
      <path
         id="path920"
         style="fill:none;stroke:#ff0000;stroke-width:0.89999998;stroke-linecap:round;stroke-opacity:1"
         d="m 334.80188,639.26565 a 3.77953,3.77953 0 1 0 -7.55906,0 3.77953,3.77953 0 1 0 7.55906,0 z"
         inkscape:connector-curvature="0" />
      <path
         id="path922"
         style="fill:none;stroke:#ff0000;stroke-width:0.89999998;stroke-linecap:round;stroke-opacity:1"
         d="m 324.98238,633.59635 a 3.77953,3.77953 0 1 0 -7.55906,0 3.77953,3.77953 0 1 0 7.55906,0 z"
         inkscape:connector-curvature="0" />
      <path
         id="path924"
         style="fill:none;stroke:#ff0000;stroke-width:0.89999998;stroke-linecap:round;stroke-opacity:1"
         d="m 324.98238,656.27355 a 3.77953,3.77953 0 1 0 -7.55906,0 3.77953,3.77953 0 1 0 7.55906,0 z"
         inkscape:connector-curvature="0" />
      <path
         id="path926"
         style="fill:none;stroke:#ff0000;stroke-width:0.89999998;stroke-linecap:round;stroke-opacity:1"
         d="m 315.16287,650.60425 a 3.779528,3.779528 0 1 0 -7.55905,0 3.779528,3.779528 0 1 0 7.55905,0 z"
         inkscape:connector-curvature="0" />
      <path
         id="path928"
         style="fill:none;stroke:#ff0000;stroke-width:0.89999998;stroke-linecap:round;stroke-opacity:1"
         d="m 305.34337,644.93495 a 3.779528,3.779528 0 1 0 -7.55905,0 3.779528,3.779528 0 1 0 7.55905,0 z"
         inkscape:connector-curvature="0" />
      <path
         id="path930"
         style="fill:none;stroke:#ff0000;stroke-width:0.89999998;stroke-linecap:round;stroke-opacity:1"
         d="m 295.52387,639.26565 a 3.779528,3.779528 0 1 0 -7.55905,0 3.779528,3.779528 0 1 0 7.55905,0 z"
         inkscape:connector-curvature="0" />
      <path
         id="path932"
         style="fill:none;stroke:#ff0000;stroke-width:0.89999998;stroke-linecap:round;stroke-opacity:1"
         d="m 354.44088,661.94285 a 3.77953,3.77953 0 1 0 -7.55906,0 3.77953,3.77953 0 1 0 7.55906,0 z"
         inkscape:connector-curvature="0" />
      <path
         id="path934"
         style="fill:none;stroke:#ff0000;stroke-width:0.89999998;stroke-linecap:round;stroke-opacity:1"
         d="m 344.62138,656.27355 a 3.77953,3.77953 0 1 0 -7.55906,0 3.77953,3.77953 0 1 0 7.55906,0 z"
         inkscape:connector-curvature="0" />
      <path
         id="path936"
         style="fill:none;stroke:#ff0000;stroke-width:0.89999998;stroke-linecap:round;stroke-opacity:1"
         d="m 334.80188,650.60425 a 3.77953,3.77953 0 1 0 -7.55906,0 3.77953,3.77953 0 1 0 7.55906,0 z"
         inkscape:connector-curvature="0" />
      <path
         id="path938"
         style="fill:none;stroke:#ff0000;stroke-width:0.89999998;stroke-linecap:round;stroke-opacity:1"
         d="m 324.98238,644.93495 a 3.77953,3.77953 0 1 0 -7.55906,0 3.77953,3.77953 0 1 0 7.55906,0 z"
         inkscape:connector-curvature="0" />
      <path
         id="path940"
         style="fill:none;stroke:#ff0000;stroke-width:0.89999998;stroke-linecap:round;stroke-opacity:1"
         d="m 393.71888,650.60425 a 3.779528,3.779528 0 1 0 -7.55905,0 3.779528,3.779528 0 1 0 7.55905,0 z"
         inkscape:connector-curvature="0" />
      <path
         id="path942"
         style="fill:none;stroke:#ff0000;stroke-width:0.89999998;stroke-linecap:round;stroke-opacity:1"
         d="m 383.89938,644.93495 a 3.779528,3.779528 0 1 0 -7.55905,0 3.779528,3.779528 0 1 0 7.55905,0 z"
         inkscape:connector-curvature="0" />
      <path
         id="path944"
         style="fill:none;stroke:#ff0000;stroke-width:0.89999998;stroke-linecap:round;stroke-opacity:1"
         d="m 374.07988,639.26565 a 3.77953,3.77953 0 1 0 -7.55906,0 3.77953,3.77953 0 1 0 7.55906,0 z"
         inkscape:connector-curvature="0" />
      <path
         id="path946"
         style="fill:none;stroke:#ff0000;stroke-width:0.89999998;stroke-linecap:round;stroke-opacity:1"
         d="m 364.26038,633.59635 a 3.77953,3.77953 0 1 0 -7.55906,0 3.77953,3.77953 0 1 0 7.55906,0 z"
         inkscape:connector-curvature="0" />
      <path
         id="path948"
         style="fill:none;stroke:#ff0000;stroke-width:0.89999998;stroke-linecap:round;stroke-opacity:1"
         d="m 374.07988,627.92715 a 3.77953,3.77953 0 1 0 -7.55906,0 3.77953,3.77953 0 1 0 7.55906,0 z"
         inkscape:connector-curvature="0" />
      <path
         id="path950"
         style="fill:none;stroke:#ff0000;stroke-width:0.89999998;stroke-linecap:round;stroke-opacity:1"
         d="m 383.89938,633.59635 a 3.779528,3.779528 0 1 0 -7.55905,0 3.779528,3.779528 0 1 0 7.55905,0 z"
         inkscape:connector-curvature="0" />
      <path
         id="path952"
         style="fill:none;stroke:#ff0000;stroke-width:0.89999998;stroke-linecap:round;stroke-opacity:1"
         d="m 393.71888,639.26565 a 3.779528,3.779528 0 1 0 -7.55905,0 3.779528,3.779528 0 1 0 7.55905,0 z"
         inkscape:connector-curvature="0" />
      <path
         id="path954"
         style="fill:none;stroke:#ff0000;stroke-width:0.89999998;stroke-linecap:round;stroke-opacity:1"
         d="m 354.44088,627.92715 a 3.77953,3.77953 0 1 0 -7.55906,0 3.77953,3.77953 0 1 0 7.55906,0 z"
         inkscape:connector-curvature="0" />
      <path
         id="path956"
         style="fill:none;stroke:#ff0000;stroke-width:0.89999998;stroke-linecap:round;stroke-opacity:1"
         d="m 374.07988,650.60425 a 3.77953,3.77953 0 1 0 -7.55906,0 3.77953,3.77953 0 1 0 7.55906,0 z"
         inkscape:connector-curvature="0" />
      <path
         id="path958"
         style="fill:none;stroke:#ff0000;stroke-width:0.89999998;stroke-linecap:round;stroke-opacity:1"
         d="m 383.89938,656.27355 a 3.779528,3.779528 0 1 0 -7.55905,0 3.779528,3.779528 0 1 0 7.55905,0 z"
         inkscape:connector-curvature="0" />
      <path
         id="path960"
         style="fill:none;stroke:#ff0000;stroke-width:0.89999998;stroke-linecap:round;stroke-opacity:1"
         d="m 393.71888,661.94285 a 3.779528,3.779528 0 1 0 -7.55905,0 3.779528,3.779528 0 1 0 7.55905,0 z"
         inkscape:connector-curvature="0" />
      <path
         id="path962"
         style="fill:none;stroke:#ff0000;stroke-width:0.89999998;stroke-linecap:round;stroke-opacity:1"
         d="m 315.16287,627.92715 a 3.779528,3.779528 0 1 0 -7.55905,0 3.779528,3.779528 0 1 0 7.55905,0 z"
         inkscape:connector-curvature="0" />
      <path
         id="path964"
         style="fill:none;stroke:#ff0000;stroke-width:0.89999998;stroke-linecap:round;stroke-opacity:1"
         d="m 364.26038,644.93495 a 3.77953,3.77953 0 1 0 -7.55906,0 3.77953,3.77953 0 1 0 7.55906,0 z"
         inkscape:connector-curvature="0" />
      <path
         id="path966"
         style="fill:none;stroke:#ff0000;stroke-width:0.89999998;stroke-linecap:round;stroke-opacity:1"
         d="m 354.44088,639.26565 a 3.77953,3.77953 0 1 0 -7.55906,0 3.77953,3.77953 0 1 0 7.55906,0 z"
         inkscape:connector-curvature="0" />
      <path
         id="path968"
         style="fill:none;stroke:#ff0000;stroke-width:0.89999998;stroke-linecap:round;stroke-opacity:1"
         d="m 344.62138,633.59635 a 3.77953,3.77953 0 1 0 -7.55906,0 3.77953,3.77953 0 1 0 7.55906,0 z"
         inkscape:connector-curvature="0" />
      <path
         id="path970"
         style="fill:none;stroke:#ff0000;stroke-width:0.89999998;stroke-linecap:round;stroke-opacity:1"
         d="m 334.80188,627.92715 a 3.77953,3.77953 0 1 0 -7.55906,0 3.77953,3.77953 0 1 0 7.55906,0 z"
         inkscape:connector-curvature="0" />
      <path
         id="path972"
         style="fill:none;stroke:#ff0000;stroke-width:0.89999998;stroke-linecap:round;stroke-opacity:1"
         d="m 295.52387,661.94285 a 3.779528,3.779528 0 1 0 -7.55905,0 3.779528,3.779528 0 1 0 7.55905,0 z"
         inkscape:connector-curvature="0" />
      <path
         id="path974"
         style="fill:none;stroke:#ff0000;stroke-width:0.89999998;stroke-linecap:round;stroke-opacity:1"
         d="m 334.80188,661.94285 a 3.77953,3.77953 0 1 0 -7.55906,0 3.77953,3.77953 0 1 0 7.55906,0 z"
         inkscape:connector-curvature="0" />
      <path
         id="path976"
         style="fill:none;stroke:#ff0000;stroke-width:0.89999998;stroke-linecap:round;stroke-opacity:1"
         d="m 295.52387,650.60425 a 3.779528,3.779528 0 1 0 -7.55905,0 3.779528,3.779528 0 1 0 7.55905,0 z"
         inkscape:connector-curvature="0" />
      <path
         id="path978"
         style="fill:none;stroke:#ff0000;stroke-width:0.89999998;stroke-linecap:round;stroke-opacity:1"
         d="m 305.34337,656.27355 a 3.779528,3.779528 0 1 0 -7.55905,0 3.779528,3.779528 0 1 0 7.55905,0 z"
         inkscape:connector-curvature="0" />
      <path
         id="path980"
         style="fill:none;stroke:#ff0000;stroke-width:0.89999998;stroke-linecap:round;stroke-opacity:1"
         d="m 315.16287,661.94285 a 3.779528,3.779528 0 1 0 -7.55905,0 3.779528,3.779528 0 1 0 7.55905,0 z"
         inkscape:connector-curvature="0" />
      <path
         id="path982"
         style="fill:none;stroke:#ff0000;stroke-width:0.89999998;stroke-linecap:round;stroke-opacity:1"
         d="m 393.71888,627.92715 a 3.779528,3.779528 0 1 0 -7.55905,0 3.779528,3.779528 0 1 0 7.55905,0 z"
         inkscape:connector-curvature="0" />
      <path
         id="path984"
         style="fill:none;stroke:#ff0000;stroke-width:0.89999998;stroke-linecap:round;stroke-opacity:1"
         d="m 344.62138,644.93495 a 3.77953,3.77953 0 1 0 -7.55906,0 3.77953,3.77953 0 1 0 7.55906,0 z"
         inkscape:connector-curvature="0" />
      <path
         id="path986"
         style="fill:none;stroke:#ff0000;stroke-width:0.89999998;stroke-linecap:round;stroke-opacity:1"
         d="m 377.16311,773.58255 a 9.44882,9.44882 0 1 0 -18.89764,0 9.44882,9.44882 0 1 0 18.89764,0 z"
         inkscape:connector-curvature="0" />
      <path
         id="path988"
         style="fill:none;stroke:#ff0000;stroke-width:0.89999998;stroke-linecap:round;stroke-opacity:1"
         d="m 394.14075,715.98255 a 28.34646,28.34646 0 1 0 -56.69292,0 28.34646,28.34646 0 1 0 56.69292,0 z"
         inkscape:connector-curvature="0" />
      <path
         id="path990"
         style="fill:none;stroke:#0000ff;stroke-width:0.89999998;stroke-linecap:round;stroke-opacity:1"
         d="m 550.98358,572.40584 h -259.2"
         inkscape:connector-curvature="0" />
      <path
         id="path992"
         style="fill:none;stroke:#0000ff;stroke-width:0.89999998;stroke-linecap:round;stroke-opacity:1"
         d="m 291.78358,572.40584 a 13.228346,13.228346 0 0 0 -13.22834,13.22831"
         inkscape:connector-curvature="0" />
      <path
         id="path994"
         style="fill:none;stroke:#0000ff;stroke-width:0.89999998;stroke-linecap:round;stroke-opacity:1"
         d="m 278.55524,585.63415 v 228.0567"
         inkscape:connector-curvature="0" />
      <path
         id="path996"
         style="fill:none;stroke:#0000ff;stroke-width:0.89999998;stroke-linecap:round;stroke-opacity:1"
         d="m 278.55524,813.69085 a 13.228346,13.228346 0 0 0 13.22834,13.2284"
         inkscape:connector-curvature="0" />
      <path
         id="path998"
         style="fill:none;stroke:#0000ff;stroke-width:0.89999998;stroke-linecap:round;stroke-opacity:1"
         d="m 291.78358,826.91925 h 259.2"
         inkscape:connector-curvature="0" />
      <path
         id="path1000"
         style="fill:none;stroke:#0000ff;stroke-width:0.89999998;stroke-linecap:round;stroke-opacity:1"
         d="m 550.98358,826.91925 a 13.228346,13.228346 0 0 0 13.22835,-13.2284"
         inkscape:connector-curvature="0" />
      <path
         id="path1002"
         style="fill:none;stroke:#0000ff;stroke-width:0.89999998;stroke-linecap:round;stroke-opacity:1"
         d="M 564.21193,813.69085 V 585.63415"
         inkscape:connector-curvature="0" />
      <path
         id="path1004"
         style="fill:none;stroke:#0000ff;stroke-width:0.89999998;stroke-linecap:round;stroke-opacity:1"
         d="M 564.21193,585.63415 A 13.228346,13.228346 0 0 0 550.98358,572.40584"
         inkscape:connector-curvature="0" />
      <path
         id="path1006"
         style="fill:none;stroke:#ff0000;stroke-width:0.89999998;stroke-linecap:round;stroke-opacity:1"
         d="m 297.45287,585.63415 a 5.6692915,5.6692915 0 1 0 -11.33858,0 5.6692915,5.6692915 0 1 0 11.33858,0 z"
         inkscape:connector-curvature="0" />
      <path
         id="path1008"
         style="fill:none;stroke:#ff0000;stroke-width:0.89999998;stroke-linecap:round;stroke-opacity:1"
         d="m 556.65287,585.63415 a 5.6692915,5.6692915 0 1 0 -11.33858,0 5.6692915,5.6692915 0 1 0 11.33858,0 z"
         inkscape:connector-curvature="0" />
      <path
         id="path1010"
         style="fill:none;stroke:#ff0000;stroke-width:0.89999998;stroke-linecap:round;stroke-opacity:1"
         d="m 556.65287,813.69085 a 5.6692915,5.6692915 0 1 0 -11.33858,0 5.6692915,5.6692915 0 1 0 11.33858,0 z"
         inkscape:connector-curvature="0" />
      <path
         id="path1012"
         style="fill:none;stroke:#ff0000;stroke-width:0.89999998;stroke-linecap:round;stroke-opacity:1"
         d="m 297.45287,813.69085 a 5.6692915,5.6692915 0 1 0 -11.33858,0 5.6692915,5.6692915 0 1 0 11.33858,0 z"
         inkscape:connector-curvature="0" />
      <path
         id="path1086"
         style="fill:#000000;fill-opacity:1;stroke:none;stroke-width:0.89999998;stroke-linecap:round;stroke-opacity:1"
         d="m 387.46179,774.03315 h 4.72744 l -2.33192,-5.0534 z m -3.95101,5.5966 6.27498,-13.2283 h 0.1696 l 6.10539,13.2283 h -1.29051 l -1.95563,-4.2398 h -5.99674 l -2.01129,4.2398 z m 27.64385,-8.4797 h -1.69594 v -1.1871 h 1.69594 v -3.9007 h 1.18716 v 3.9007 h 1.69594 v 1.1871 h -1.69594 v 8.4797 h -1.18716 z m 4.74864,8.4797 v -9.6668 h 1.18716 v 9.6668 z m 13.90672,-9.6668 h 1.18716 v 9.6668 h -1.18716 z m -1.86553,0 -4.40945,9.6668 h -0.1696 l -4.40945,-9.6668 h 1.28521 l 3.20904,7.0381 3.20904,-7.0381 z m 12.96335,13.2283 1.96888,-4.3856 -3.90861,-8.8427 h 1.2799 l 3.27264,7.4038 3.32299,-7.4038 h 1.28255 l -5.93579,13.2283 z m -10.2896,-17.2806 c 0.0696,0.011 0.13817,0.03 0.20405,0.056 0.0657,0.025 0.1287,0.058 0.18814,0.095 0.0602,0.038 0.11673,0.082 0.16959,0.1298 0.0525,0.048 0.10131,0.099 0.1431,0.1564 0.0398,0.054 0.0732,0.1132 0.1007,0.1749 0.0269,0.06 0.0482,0.1236 0.0609,0.1881 0.0132,0.067 0.0172,0.1355 0.0212,0.2044 -0.004,0.0673 -0.008,0.1338 -0.0212,0.199 -0.0127,0.064 -0.034,0.126 -0.0609,0.1855 -0.0276,0.061 -0.0612,0.1187 -0.10069,0.1722 -0.042,0.057 -0.0907,0.1088 -0.1431,0.1564 -0.0528,0.048 -0.10939,0.092 -0.16959,0.1298 -0.0595,0.038 -0.12245,0.07 -0.18815,0.095 -0.0659,0.026 -0.13447,0.044 -0.20404,0.056 -0.0726,0.012 -0.14627,0.015 -0.21996,0.0188 -0.0728,-2e-4 -0.14568,-0.0102 -0.21732,-0.0192 -0.0678,-0.011 -0.13454,-0.031 -0.19874,-0.056 -0.0656,-0.026 -0.12859,-0.058 -0.18815,-0.095 -0.0603,-0.038 -0.11711,-0.082 -0.16959,-0.1298 -0.0516,-0.048 -0.0991,-0.1 -0.14045,-0.1564 -0.0393,-0.054 -0.0731,-0.1115 -0.10069,-0.1722 -0.0271,-0.059 -0.0482,-0.1218 -0.0609,-0.1855 -0.013,-0.065 -0.0171,-0.132 -0.0212,-0.1985 0.004,-0.0688 0.008,-0.1369 0.0212,-0.2039 0.0127,-0.065 0.0339,-0.1277 0.0609,-0.1881 0.0276,-0.062 0.0612,-0.1204 0.1007,-0.1749 0.0412,-0.057 0.0888,-0.1088 0.14044,-0.1564 0.0525,-0.048 0.1093,-0.092 0.16959,-0.1298 0.0595,-0.037 0.12252,-0.07 0.18815,-0.095 0.0642,-0.025 0.13094,-0.044 0.19874,-0.056 0.0716,-0.012 0.14447,-0.015 0.21732,-0.0183 0.0737,-3e-4 0.14736,0.01 0.21996,0.0177 z m 2.75326,5.2394 v -1.1871 h 1.69594 v -3.9007 h 1.18716 v 3.9007 h 1.69594 v 1.1871 h -1.69594 v 8.4797 h -1.18716 v -8.4797 z m -15.79346,-4.0358 c -0.0127,0.064 -0.034,0.126 -0.0609,0.1855 -0.0276,0.061 -0.0612,0.1187 -0.10069,0.1722 -0.042,0.057 -0.0907,0.1088 -0.1431,0.1564 -0.0528,0.048 -0.10939,0.092 -0.16959,0.1298 -0.0595,0.038 -0.12245,0.07 -0.18815,0.095 -0.0659,0.026 -0.13447,0.044 -0.20404,0.056 -0.0726,0.012 -0.14627,0.015 -0.21996,0.0188 -0.0728,-2e-4 -0.14568,-0.0102 -0.21732,-0.0192 -0.0678,-0.011 -0.13455,-0.031 -0.19875,-0.056 -0.0656,-0.026 -0.12858,-0.058 -0.18814,-0.095 -0.0603,-0.038 -0.11712,-0.082 -0.1696,-0.1298 -0.0516,-0.048 -0.0991,-0.1 -0.14044,-0.1564 -0.0393,-0.054 -0.0731,-0.1115 -0.1007,-0.1722 -0.0271,-0.059 -0.0482,-0.1218 -0.0609,-0.1855 -0.013,-0.065 -0.0171,-0.132 -0.0212,-0.1985 0.004,-0.0688 0.008,-0.1369 0.0212,-0.2039 0.0127,-0.065 0.0339,-0.1277 0.0609,-0.1881 0.0276,-0.062 0.0612,-0.1204 0.1007,-0.1749 0.0412,-0.057 0.0888,-0.1088 0.14044,-0.1564 0.0525,-0.048 0.10931,-0.092 0.1696,-0.1298 0.0595,-0.037 0.12252,-0.07 0.18814,-0.095 0.0642,-0.025 0.13095,-0.044 0.19875,-0.056 0.0716,-0.012 0.14446,-0.015 0.21731,-0.0183 0.0737,-3e-4 0.14735,0.01 0.21996,0.0177 0.0696,0.011 0.13817,0.03 0.20404,0.056 0.0657,0.025 0.12871,0.058 0.18815,0.095 0.0602,0.038 0.11672,0.082 0.16959,0.1298 0.0525,0.048 0.1013,0.099 0.1431,0.1564 0.0398,0.054 0.0732,0.1132 0.10069,0.1749 0.0269,0.06 0.0482,0.1236 0.0609,0.1881 0.0132,0.067 0.0172,0.1355 0.0212,0.2044 -0.004,0.0673 -0.008,0.1338 -0.0212,0.199 z m -15.07003,12.6641 c -0.1793,-0.014 -0.35792,-0.038 -0.53528,-0.069 -0.17201,-0.03 -0.34283,-0.066 -0.51144,-0.1113 -0.16494,-0.044 -0.32777,-0.096 -0.48758,-0.1563 -0.15779,-0.059 -0.31264,-0.1266 -0.46373,-0.2014 -0.15069,-0.075 -0.29764,-0.1568 -0.43989,-0.2464 -0.1427,-0.09 -0.28066,-0.1875 -0.41339,-0.2915 -0.13507,-0.1059 -0.26473,-0.2187 -0.38953,-0.3366 -0.12403,-0.1172 -0.24326,-0.2395 -0.35509,-0.3683 -0.1081,-0.1245 -0.20928,-0.255 -0.30474,-0.3896 -0.0929,-0.131 -0.18044,-0.2658 -0.25969,-0.4054 -0.0784,-0.1381 -0.14875,-0.2808 -0.21199,-0.4266 -0.0634,-0.1463 -0.11975,-0.2957 -0.16695,-0.4479 -0.0472,-0.1522 -0.0853,-0.3072 -0.11659,-0.4637 -0.032,-0.1604 -0.0569,-0.3223 -0.0716,-0.4849 -0.0151,-0.1673 -0.0195,-0.3354 -0.0238,-0.50355 0.002,-0.11415 0.003,-0.22815 0.0106,-0.34185 0.007,-0.1125 0.0199,-0.2247 0.0344,-0.3366 0.0145,-0.1109 0.0308,-0.2217 0.053,-0.3312 0.022,-0.1088 0.0497,-0.2164 0.0795,-0.3233 0.0298,-0.1069 0.0618,-0.2132 0.0981,-0.318 0.0366,-0.1057 0.0776,-0.2099 0.1219,-0.3127 0.0445,-0.1031 0.0923,-0.2047 0.14309,-0.3047 0.0516,-0.1016 0.10622,-0.2015 0.1643,-0.2995 0.0584,-0.098 0.12018,-0.1948 0.18549,-0.2888 0.0641,-0.092 0.13163,-0.1822 0.20139,-0.2703 0.0697,-0.088 0.14158,-0.1743 0.2173,-0.257 0.0754,-0.082 0.15468,-0.1616 0.23584,-0.2385 0.0808,-0.077 0.16358,-0.1513 0.24909,-0.2226 0.0866,-0.072 0.17595,-0.1411 0.26764,-0.2067 0.0933,-0.067 0.1889,-0.1301 0.28619,-0.1908 0.0981,-0.061 0.19784,-0.1197 0.29944,-0.1749 0.10242,-0.056 0.20672,-0.1078 0.31269,-0.1564 0.10621,-0.049 0.21411,-0.093 0.32329,-0.1351 0.10915,-0.042 0.21958,-0.08 0.33124,-0.1139 0.1129,-0.035 0.22705,-0.065 0.34183,-0.093 0.11589,-0.028 0.23242,-0.053 0.34979,-0.074 0.11859,-0.021 0.23803,-0.037 0.35774,-0.05 0.12251,-0.014 0.24531,-0.025 0.36834,-0.032 0.12615,-0.01 0.25254,-0.01 0.37892,-0.0109 0.15829,1.5e-4 0.31658,0.0102 0.47434,0.0192 0.15697,0.011 0.31342,0.031 0.46903,0.056 0.15393,0.024 0.30704,0.053 0.45844,0.09 0.15192,0.037 0.30212,0.081 0.45048,0.1298 0.14487,0.048 0.28799,0.1012 0.42929,0.159 0.1347,0.055 0.26775,0.1143 0.39748,0.1802 0.12311,0.063 0.24322,0.1309 0.36039,0.204 0.11271,0.07 0.22269,0.1451 0.32859,0.2253 0.10399,0.079 0.20403,0.1628 0.29944,0.2517 0.0964,0.09 0.18813,0.1848 0.27559,0.2836 0.0901,0.1017 0.17564,0.2074 0.25439,0.318 0.0807,0.1132 0.15432,0.2315 0.22789,0.34935 l -0.99371,0.61715 c -0.10897,-0.1354 -0.21793,-0.2709 -0.33654,-0.3975 -0.11486,-0.1227 -0.23876,-0.2371 -0.36834,-0.3445 -0.1261,-0.1045 -0.25757,-0.2024 -0.39484,-0.2915 -0.13605,-0.088 -0.2778,-0.168 -0.42398,-0.2385 -0.14787,-0.071 -0.30028,-0.1331 -0.45579,-0.1855 -0.15885,-0.053 -0.32094,-0.097 -0.48493,-0.1325 -0.16884,-0.036 -0.33971,-0.063 -0.51143,-0.08 -0.18045,-0.017 -0.36184,-0.022 -0.54323,-0.026 -0.14498,0 -0.28996,0.01 -0.43459,0.019 -0.14021,0.01 -0.28009,0.027 -0.41868,0.05 -0.13376,0.023 -0.26631,0.053 -0.39749,0.087 -0.12804,0.034 -0.25477,0.073 -0.37894,0.1192 -0.12278,0.046 -0.24306,0.098 -0.36038,0.1564 -0.11692,0.058 -0.23089,0.1219 -0.34184,0.1908 -0.11125,0.069 -0.21945,0.1429 -0.32329,0.2225 -0.10593,0.081 -0.20732,0.1684 -0.30474,0.2597 -0.0962,0.09 -0.18856,0.1846 -0.27559,0.2836 -0.0843,0.096 -0.16354,0.196 -0.23849,0.2994 -0.0731,0.1009 -0.14211,0.2048 -0.20405,0.3127 -0.0609,0.1062 -0.11503,0.2163 -0.16429,0.3286 -0.049,0.1117 -0.0933,0.2256 -0.12985,0.3418 -0.0369,0.1173 -0.066,0.237 -0.0901,0.3578 -0.0247,0.1236 -0.0442,0.2483 -0.0556,0.3736 -0.0118,0.1285 -0.0152,0.2577 -0.0186,0.3871 0.007,0.1694 0.0134,0.3386 0.0344,0.5063 0.0207,0.1655 0.0553,0.3295 0.1007,0.4903 0.0459,0.1626 0.1028,0.3219 0.16959,0.4769 0.0683,0.1587 0.14701,0.313 0.23584,0.4611 0.0891,0.1487 0.18849,0.2913 0.29679,0.4267 0.10709,0.1339 0.22292,0.2608 0.34714,0.3789 0.12376,0.1177 0.25584,0.2267 0.39484,0.3259 0.14275,0.1019 0.29279,0.1935 0.44783,0.2756 0.15771,0.083 0.3206,0.1572 0.48758,0.22 0.16775,0.063 0.33963,0.1149 0.51409,0.1563 0.17892,0.043 0.36055,0.074 0.54323,0.093 0.19003,0.02 0.3812,0.026 0.57241,0.0318 0.17522,-2e-4 0.35042,-0.0102 0.5247,-0.0262 0.16823,-0.016 0.3356,-0.043 0.50083,-0.08 0.16048,-0.035 0.31894,-0.079 0.47434,-0.1325 0.15449,-0.053 0.30595,-0.1147 0.45313,-0.1855 0.14692,-0.071 0.28956,-0.1504 0.42664,-0.2385 0.13883,-0.089 0.27195,-0.1873 0.40013,-0.2915 0.13261,-0.1078 0.25993,-0.2222 0.37894,-0.3445 0.12345,-0.1268 0.23794,-0.2622 0.35244,-0.3975 l 0.99371,0.6519 c -0.0589,0.086 -0.11783,0.173 -0.18019,0.257 -0.0622,0.084 -0.12775,0.165 -0.19609,0.2438 -0.068,0.078 -0.13872,0.1545 -0.212,0.2279 -0.0728,0.073 -0.14815,0.1435 -0.22524,0.212 -0.0774,0.069 -0.15652,0.1356 -0.23849,0.1988 -0.0833,0.064 -0.16949,0.1245 -0.25704,0.1828 -0.0886,0.059 -0.1785,0.1159 -0.27029,0.1696 -0.0928,0.054 -0.18746,0.1054 -0.28354,0.1537 -0.0975,0.049 -0.19642,0.095 -0.29679,0.1378 -0.10114,0.043 -0.20374,0.083 -0.30739,0.1192 -0.10407,0.037 -0.2092,0.071 -0.31534,0.1007 -0.10861,0.031 -0.21827,0.058 -0.32859,0.082 -0.11155,0.024 -0.22377,0.046 -0.33654,0.064 -0.11612,0.018 -0.23284,0.033 -0.34979,0.045 -0.11901,0.013 -0.23827,0.023 -0.35773,0.029 -0.12263,0.01 -0.24549,0.01 -0.36834,0.009 -0.18751,-10e-4 -0.37501,-0.011 -0.56178,-0.022 z"
         inkscape:connector-curvature="0" />
    </g>
  </g>
</svg>
