M48
;GenerationSoftware,Autodesk,EAGLE,9.6.2*%
;CreationDate,2021-04-22T21:51:15Z*%
FMAT,2
ICI,OFF
METRIC,TZ,000.000
T3C0.813
T2C1.016
T1C3.000
%
G90
M71
T1
X5080Y5080
X5080Y57150
X72390Y57150
X72390Y5080
X56670Y8830
X51970Y11830
X51970Y5930
T2
X11430Y39370
X11430Y36830
X11430Y34290
X11430Y31750
X11430Y29210
X11430Y26670
X11430Y24130
X11430Y21590
X11430Y19050
X11430Y16510
X11430Y13970
X11430Y11430
X39370Y11430
X39370Y13970
X39370Y16510
X39370Y19050
X39370Y21590
X39370Y24130
X39370Y26670
X39370Y29210
X39370Y31750
X39370Y34290
X39370Y36830
X39370Y39370
X39370Y41910
X39370Y44450
X39370Y46990
X71120Y17780
X71120Y20320
X71120Y22860
X71120Y25400
X71120Y27940
X71120Y30480
X71120Y33020
X71120Y35560
X45720Y35560
X45720Y33020
X45720Y30480
X45720Y27940
X45720Y25400
X45720Y22860
X45720Y20320
X45720Y17780
X11430Y46990
X11430Y44450
X11430Y41910
T3
X49530Y50800
X46990Y50800
X53340Y55880
X43180Y55880
M30