M48
;GenerationSoftware,Autodesk,EAGLE,9.6.2*%
;CreationDate,2021-02-17T14:33:22Z*%
FMAT,2
ICI,OFF
INCH,TZ,000.000
T3C0.032
T2C0.040
T1C0.118
%
G90
M72
T1
X200Y200
X200Y2250
X2850Y2250
X2850Y200
X2231Y348
X2046Y466
X2046Y233
T2
X450Y1550
X450Y1450
X450Y1350
X450Y1250
X450Y1150
X450Y1050
X450Y950
X450Y850
X450Y750
X450Y650
X450Y550
X450Y450
X1550Y450
X1550Y550
X1550Y650
X1550Y750
X1550Y850
X1550Y950
X1550Y1050
X1550Y1150
X1550Y1250
X1550Y1350
X1550Y1450
X1550Y1550
X1550Y1650
X1550Y1750
X1550Y1850
X2800Y700
X2800Y800
X2800Y900
X2800Y1000
X2800Y1100
X2800Y1200
X2800Y1300
X2800Y1400
X1800Y1400
X1800Y1300
X1800Y1200
X1800Y1100
X1800Y1000
X1800Y900
X1800Y800
X1800Y700
X450Y1850
X450Y1750
X450Y1650
T3
X1950Y2000
X1850Y2000
X2100Y2200
X1700Y2200
M30