M48
;GenerationSoftware,Autodesk,EAGLE,9.6.2*%
;CreationDate,2021-03-22T11:07:19Z*%
FMAT,2
ICI,OFF
INCH,TZ,000.000
T5C0.031
T4C0.032
T3C0.039
T2C0.040
T1C0.126
%
G90
M72
T1
X2600Y1400
X550Y100
X600Y2000
T2
X2040Y1550
X2140Y1550
X2240Y1550
X2440Y1550
X2240Y550
X2340Y1550
X1940Y1550
X1840Y1550
X1740Y1550
X1740Y550
X1840Y550
X1940Y550
X2040Y550
X2140Y550
X2340Y550
X2440Y550
X170Y830
X170Y730
X170Y930
X170Y1030
T3
X1900Y2000
X1800Y2000
X1300Y100
X1540Y2000
X2200Y2000
X1340Y2000
X1240Y2000
X1140Y2000
X1040Y2000
X940Y2000
X2100Y100
X2200Y100
X2300Y100
X2400Y100
X1400Y100
X1500Y100
X1440Y2000
X1600Y100
X1700Y100
X1800Y100
X2100Y2000
X1640Y2000
X2000Y100
X2500Y100
X2300Y2000
X2400Y2000
X2500Y2000
X2000Y2000
T4
X570Y1670
X570Y1570
X570Y1470
X570Y1770
X850Y330
X850Y230
X1340Y330
X1740Y330
T5
X1400Y230
X1040Y1830
X1140Y1830
X1600Y230
X980Y1670
X1600Y510
X2040Y1680
X1240Y1830
X1340Y1830
X1440Y1830
X1540Y1830
X720Y1770
X340Y1030
M30