M48
;GenerationSoftware,Autodesk,EAGLE,9.6.2*%
;CreationDate,2021-04-22T21:44:16Z*%
FMAT,2
ICI,OFF
METRIC,TZ,000.000
T5C0.800
T4C0.813
T3C1.000
T2C1.016
T1C3.200
%
G90
M71
T1
X66040Y35560
X13970Y2540
X15240Y50800
T2
X51816Y39370
X54356Y39370
X56896Y39370
X61976Y39370
X56896Y13970
X59436Y39370
X49276Y39370
X46736Y39370
X44196Y39370
X44196Y13970
X46736Y13970
X49276Y13970
X51816Y13970
X54356Y13970
X59436Y13970
X61976Y13970
X4318Y21082
X4318Y18542
X4318Y23622
X4318Y26162
T3
X48260Y50800
X45720Y50800
X33020Y2540
X39116Y50800
X55880Y50800
X34036Y50800
X31496Y50800
X28956Y50800
X26416Y50800
X23876Y50800
X53340Y2540
X55880Y2540
X58420Y2540
X60960Y2540
X35560Y2540
X38100Y2540
X36576Y50800
X40640Y2540
X43180Y2540
X45720Y2540
X53340Y50800
X41656Y50800
X50800Y2540
X63500Y2540
X58420Y50800
X60960Y50800
X63500Y50800
X50800Y50800
T4
X14478Y42418
X14478Y39878
X14478Y37338
X14478Y44958
X21590Y8382
X21590Y5842
X34036Y8382
X44196Y8382
T5
X35560Y5842
X26416Y46482
X28956Y46482
X40640Y5842
X24892Y42418
X40640Y12954
X51816Y42672
X31496Y46482
X34036Y46482
X36576Y46482
X39116Y46482
X18288Y44958
X8636Y26162
M30