<?xml version="1.0" encoding="UTF-8" standalone="no"?>
<!-- Created with Inkscape (http://www.inkscape.org/) -->

<svg
   xmlns:dc="http://purl.org/dc/elements/1.1/"
   xmlns:cc="http://creativecommons.org/ns#"
   xmlns:rdf="http://www.w3.org/1999/02/22-rdf-syntax-ns#"
   xmlns:svg="http://www.w3.org/2000/svg"
   xmlns="http://www.w3.org/2000/svg"
   xmlns:sodipodi="http://sodipodi.sourceforge.net/DTD/sodipodi-0.dtd"
   xmlns:inkscape="http://www.inkscape.org/namespaces/inkscape"
   width="93.708122mm"
   height="68.468117mm"
   viewBox="0 0 93.708122 68.468117"
   version="1.1"
   id="svg8"
   inkscape:version="0.92.2 (5c3e80d, 2017-08-06)"
   sodipodi:docname="Couvercle.svg">
  <defs
     id="defs2">
    <marker
       style="overflow:visible"
       refY="0"
       refX="0"
       orient="auto"
       id="DistanceX">
      <path
         id="path817"
         style="stroke:#000000;stroke-width:0.5"
         d="M 3,-3 -3,3 M 0,-5 V 5"
         inkscape:connector-curvature="0" />
    </marker>
    <pattern
       y="0"
       x="0"
       width="8"
       patternUnits="userSpaceOnUse"
       id="Hatch"
       height="8">
      <path
         id="path820"
         stroke-width="0.25"
         stroke="#000000"
         linecap="square"
         d="M8 4 l-4,4" />
      <path
         id="path822"
         stroke-width="0.25"
         stroke="#000000"
         linecap="square"
         d="M6 2 l-4,4" />
      <path
         id="path824"
         stroke-width="0.25"
         stroke="#000000"
         linecap="square"
         d="M4 0 l-4,4" />
    </pattern>
    <symbol
       id="*Model_Space" />
    <symbol
       id="*Paper_Space" />
    <symbol
       id="*Paper_Space0" />
  </defs>
  <sodipodi:namedview
     id="base"
     pagecolor="#ffffff"
     bordercolor="#666666"
     borderopacity="1.0"
     inkscape:pageopacity="0.0"
     inkscape:pageshadow="2"
     inkscape:zoom="1.979899"
     inkscape:cx="204.62367"
     inkscape:cy="93.490778"
     inkscape:document-units="mm"
     inkscape:current-layer="layer1"
     showgrid="false"
     inkscape:window-width="1920"
     inkscape:window-height="1017"
     inkscape:window-x="-8"
     inkscape:window-y="-8"
     inkscape:window-maximized="1"
     fit-margin-top="1"
     fit-margin-left="1"
     fit-margin-bottom="1"
     fit-margin-right="1" />
  <metadata
     id="metadata5">
    <rdf:RDF>
      <cc:Work
         rdf:about="">
        <dc:format>image/svg+xml</dc:format>
        <dc:type
           rdf:resource="http://purl.org/dc/dcmitype/StillImage" />
        <dc:title></dc:title>
      </cc:Work>
    </rdf:RDF>
  </metadata>
  <g
     inkscape:label="Calque 1"
     inkscape:groupmode="layer"
     id="layer1"
     transform="translate(-7.9256628,-10.858385)">
    <path
       inkscape:connector-curvature="0"
       d="m 66.804724,25.40745 c 0,-3.333332 -5,-3.333332 -5,0 0,3.333332 5,3.333332 5,0 z"
       style="fill:none;stroke:#ff0000;stroke-width:0.238125;stroke-linecap:round;stroke-opacity:1"
       id="path1014"
       sodipodi:nodetypes="sss" />
    <path
       inkscape:connector-curvature="0"
       d="m 14.294725,74.707448 c 0,-2.333333 -3.500001,-2.333333 -3.500001,0 0,2.333333 3.500001,2.333333 3.500001,0 z"
       style="fill:none;stroke:#ff0000;stroke-width:0.238125;stroke-linecap:round;stroke-opacity:1"
       id="path1016"
       sodipodi:nodetypes="sss" />
    <path
       inkscape:connector-curvature="0"
       d="m 98.764724,74.707448 c 0,-2.333333 -3.500001,-2.333333 -3.500001,0 0,2.333333 3.500001,2.333333 3.500001,0 z"
       style="fill:none;stroke:#ff0000;stroke-width:0.238125;stroke-linecap:round;stroke-opacity:1"
       id="path1018"
       sodipodi:nodetypes="sss" />
    <path
       inkscape:connector-curvature="0"
       d="m 98.764724,15.477453 c 0,-2.333333 -3.500001,-2.333333 -3.500001,0 0,2.333333 3.500001,2.333333 3.500001,0 z"
       style="fill:none;stroke:#ff0000;stroke-width:0.238125;stroke-linecap:round;stroke-opacity:1"
       id="path1020"
       sodipodi:nodetypes="sss" />
    <path
       inkscape:connector-curvature="0"
       d="m 14.294725,15.477453 c 0,-2.333333 -3.500001,-2.333333 -3.500001,0 0,2.333333 3.500001,2.333333 3.500001,0 z"
       style="fill:none;stroke:#ff0000;stroke-width:0.238125;stroke-linecap:round;stroke-opacity:1"
       id="path1022"
       sodipodi:nodetypes="sss" />
    <path
       inkscape:connector-curvature="0"
       d="m 97.014724,78.207435 c 1.93299,-2e-6 3.499986,-1.566997 3.499996,-3.499987 V 15.477453 c 0,-1.932997 -1.566999,-3.500004 -3.499996,-3.500006 h -84.47 c -1.932999,1e-6 -3.5000021,1.567007 -3.4999987,3.500006 v 59.229995 c 7.1e-6,1.932991 1.5670077,3.499986 3.4999987,3.499987 z"
       style="fill:none;stroke:#0000ff;stroke-width:0.238125;stroke-linecap:round;stroke-opacity:1"
       id="path1032"
       sodipodi:nodetypes="ccccccccc" />
    <path
       id="path1254"
       style="fill:#000000;fill-opacity:1;stroke:none;stroke-width:0.238125;stroke-linecap:round"
       d="m 43.899337,73.055495 c 0.0054,0.04307 0.01422,0.08578 0.02594,0.127609 0.01192,0.04255 0.0268,0.08422 0.04417,0.124804 0.01794,0.04191 0.03854,0.08271 0.0617,0.121999 0.02325,0.03945 0.04908,0.07736 0.07712,0.113586 0.02729,0.03524 0.05668,0.06887 0.08834,0.10025 0.03157,0.03127 0.06539,0.0603 0.100962,0.08694 0.03598,0.02694 0.07376,0.05144 0.11288,0.07361 0.03914,0.02222 0.07962,0.04204 0.121294,0.0589 0.04084,0.0164 0.08284,0.03016 0.125501,0.04138 0.04266,0.01111 0.086,0.02011 0.129708,0.02514 0.04438,0.0053 0.08915,0.0069 0.133924,0.0085 0.04546,-0.0026 0.0909,-0.0034 0.136028,-0.0085 0.04462,-0.005 0.08893,-0.01349 0.132512,-0.02461 0.04359,-0.01111 0.08646,-0.02487 0.128305,-0.04135 0.04275,-0.01667 0.08443,-0.03627 0.1248,-0.05821 0.03998,-0.0217 0.07866,-0.04577 0.115685,-0.0722 0.03598,-0.02567 0.0704,-0.05363 0.102364,-0.08414 0.03126,-0.02982 0.06017,-0.0621 0.08694,-0.09604 0.02689,-0.0341 0.05161,-0.06988 0.07362,-0.107289 0.02212,-0.03757 0.0415,-0.07678 0.05819,-0.117078 0.01682,-0.04059 0.03092,-0.08228 0.04207,-0.124804 0.01129,-0.04305 0.01956,-0.08694 0.02454,-0.131101 0.0052,-0.04606 0.0068,-0.09244 0.0084,-0.13876 -9.48e-4,-0.03528 -0.0019,-0.0706 -0.0049,-0.105792 -0.0029,-0.03408 -0.0077,-0.06802 -0.01402,-0.101679 -0.0062,-0.03283 -0.01382,-0.06538 -0.02314,-0.09745 -0.0091,-0.03138 -0.01982,-0.06234 -0.03225,-0.09255 -0.01241,-0.03019 -0.02653,-0.05964 -0.04207,-0.08835 -0.01563,-0.02889 -0.03269,-0.05699 -0.05118,-0.08414 -0.01869,-0.02744 -0.03886,-0.05387 -0.0603,-0.07922 -0.02211,-0.02619 -0.04557,-0.05114 -0.07011,-0.07503 -0.02445,-0.02381 -0.04998,-0.04644 -0.07642,-0.068 -0.02592,-0.02117 -0.05272,-0.0412 -0.08063,-0.05958 -0.02755,-0.01826 -0.05619,-0.03469 -0.08554,-0.0498 -0.02902,-0.01482 -0.05874,-0.0285 -0.08904,-0.04067 -0.03075,-0.01244 -0.06209,-0.02328 -0.09395,-0.03225 -0.03229,-0.0093 -0.06511,-0.0164 -0.09816,-0.02249 -0.03391,-0.0064 -0.06806,-0.01111 -0.102363,-0.01402 -0.03541,-0.0029 -0.07099,-0.0037 -0.106574,-0.0042 -0.04591,0.0026 -0.09183,0.0032 -0.137422,0.0085 -0.0444,0.005 -0.08849,0.01349 -0.131811,0.02461 -0.04291,0.01111 -0.08506,0.02487 -0.126202,0.04135 -0.04158,0.01667 -0.08212,0.0358 -0.121294,0.05749 -0.03894,0.02169 -0.07653,0.04559 -0.11218,0.07223 -0.03534,0.02646 -0.06878,0.0553 -0.10026,0.08623 -0.03156,0.03098 -0.06115,0.064 -0.08834,0.09885 -0.02795,0.03585 -0.05336,0.07369 -0.07642,0.112898 -0.02286,0.03887 -0.04342,0.07911 -0.061,0.12057 -0.01719,0.04059 -0.03154,0.08231 -0.04347,0.124804 -0.01177,0.04191 -0.02119,0.08454 -0.02664,0.127609 -0.0055,0.04342 -0.007,0.08726 -0.0084,0.131032 0.0019,0.04353 0.0037,0.08711 0.0091,0.130345 z m -5.329915,-0.850446 c -0.01607,0.0164 -0.03108,0.03397 -0.04557,0.05188 -0.01492,0.01852 -0.02929,0.03731 -0.04277,0.05678 -0.01398,0.02011 -0.02701,0.04109 -0.03926,0.06242 -0.01293,0.02249 -0.025,0.04543 -0.03646,0.06871 -0.01192,0.02408 -0.02318,0.04874 -0.03365,0.07361 -0.01089,0.02593 -0.02094,0.05204 -0.03015,0.07853 -0.0098,0.02807 -0.01855,0.05644 -0.02734,0.08482 l 1.941403,-5e-6 c -0.0115,-0.04165 -0.02299,-0.08332 -0.03716,-0.12409 -0.0131,-0.0377 -0.02848,-0.07464 -0.04557,-0.110781 -0.0158,-0.03339 -0.03306,-0.06612 -0.05258,-0.09745 -0.01825,-0.02929 -0.03847,-0.05739 -0.0603,-0.08414 -0.02135,-0.02619 -0.04423,-0.05109 -0.06871,-0.07432 -0.02516,-0.02381 -0.052,-0.04599 -0.07993,-0.0666 -0.02881,-0.02117 -0.05878,-0.04098 -0.08974,-0.0589 -0.03247,-0.01878 -0.06605,-0.03569 -0.10026,-0.0512 -0.03482,-0.01587 -0.07031,-0.03011 -0.106571,-0.04207 -0.03606,-0.01191 -0.0729,-0.02143 -0.110076,-0.02945 -0.03708,-0.0079 -0.07451,-0.01455 -0.112179,-0.01826 -0.03816,-0.0037 -0.07657,-0.0048 -0.114986,-0.0056 -0.03135,2e-5 -0.0627,2e-5 -0.09395,0.0034 -0.03053,0.0026 -0.06096,0.0061 -0.09114,0.01111 -0.02947,0.005 -0.05871,0.01138 -0.08764,0.01905 -0.02819,0.0074 -0.05608,0.01587 -0.08343,0.02593 -0.02764,0.01005 -0.05472,0.02169 -0.08133,0.03434 -0.02628,0.01244 -0.05211,0.02593 -0.07712,0.04067 -0.02538,0.01508 -0.04992,0.03151 -0.07362,0.04908 -0.02419,0.01799 -0.0475,0.03701 -0.07082,0.05615 -0.0167,0.01514 -0.0334,0.03025 -0.04909,0.04634 z m 3.342249,-0.277572 c -0.02558,0.0053 -0.05053,0.01402 -0.07432,0.02514 -0.02533,0.01191 -0.04937,0.02619 -0.07221,0.04207 -0.02533,0.01773 -0.04919,0.03752 -0.07152,0.0589 -0.01195,0.01138 -0.02345,0.02328 -0.03435,0.03577 -0.01141,0.01297 -0.02216,0.02659 -0.03225,0.04064 -0.01043,0.01455 -0.02016,0.02958 -0.02945,0.04487 -0.0099,0.0164 -0.01928,0.03289 -0.02804,0.0498 -0.0093,0.01799 -0.01786,0.03619 -0.02594,0.05469 -0.0085,0.01931 -0.01644,0.03905 -0.02384,0.0589 -0.0079,0.0209 -0.01509,0.04233 -0.02174,0.06379 -0.007,0.02249 -0.01331,0.04527 -0.01963,0.06803 -0.0047,0.02038 -0.0095,0.04054 -0.01332,0.061 -0.0047,0.02487 -0.0081,0.04993 -0.01122,0.07501 -0.0037,0.02966 -0.0071,0.05932 -0.0098,0.08906 -0.0032,0.03429 -0.0055,0.06866 -0.0077,0.103055 -0.0024,0.03879 -0.0046,0.07758 -0.0063,0.11639 -0.0019,0.04344 -0.0031,0.08692 -0.0042,0.130413 -0.0012,0.04813 -0.0022,0.09628 -0.0028,0.144436 -6.09e-4,0.05281 -6.62e-4,0.105622 -7.32e-4,0.15843 l -1.8e-5,0.859576 h -0.314102 v -2.557674 h 0.314102 v 0.376502 c 0.02319,-0.03506 0.04638,-0.07012 0.07151,-0.10377 0.02294,-0.03072 0.0475,-0.06024 0.07362,-0.08834 0.02365,-0.0254 0.04859,-0.04969 0.07502,-0.07223 0.02442,-0.0209 0.05012,-0.04016 0.07712,-0.05747 0.02537,-0.0164 0.0519,-0.03074 0.07923,-0.04347 0.02638,-0.01244 0.0535,-0.02302 0.08133,-0.03157 0.02681,-0.0082 0.05428,-0.01455 0.08203,-0.01826 0.02786,-0.0037 0.056,-0.005 0.08414,-0.0063 0.02182,1.8e-5 0.04365,0.0026 0.0652,0.0056 0.02279,0.0034 0.04528,0.009 0.06731,0.01614 0.02375,0.0077 0.04696,0.01667 0.06941,0.02736 0.02445,0.01164 0.04798,0.02514 0.07151,0.03854 l -0.172473,0.272034 c -0.01511,-0.0066 -0.03022,-0.01349 -0.04557,-0.01958 -0.01379,-0.0056 -0.02778,-0.01058 -0.04207,-0.01482 -0.01265,-0.0037 -0.02553,-0.0066 -0.03856,-0.0085 -0.01138,-0.0026 -0.02286,-0.0026 -0.03435,-0.0028 -0.02521,0.0027 -0.05041,0.0035 -0.07502,0.0086 z m -5.390922,2.005747 c 0.02994,-0.0032 0.05967,-0.0085 0.08904,-0.01535 0.0292,-0.0069 0.05804,-0.01508 0.08624,-0.02514 0.02848,-0.01032 0.05631,-0.02222 0.08343,-0.03574 0.02656,-0.01323 0.05245,-0.02775 0.07712,-0.04419 0.02359,-0.01561 0.04606,-0.0331 0.06731,-0.05188 0.02045,-0.01799 0.03976,-0.03744 0.05749,-0.05818 0.01751,-0.02037 0.03347,-0.04231 0.04768,-0.06519 0.01396,-0.02249 0.02622,-0.04601 0.03716,-0.07011 0.01065,-0.02355 0.02004,-0.04752 0.02734,-0.07223 0.0071,-0.02408 0.01225,-0.04874 0.01543,-0.07361 0.0032,-0.0254 0.0044,-0.05088 0.0056,-0.0765 -0.0015,-0.02918 -0.0029,-0.05831 -0.0077,-0.08697 -0.0049,-0.02961 -0.01335,-0.05868 -0.02384,-0.08694 -0.01088,-0.02932 -0.02397,-0.05773 -0.03926,-0.08485 -0.01652,-0.02929 -0.0356,-0.05704 -0.0547,-0.08482 -0.01568,-0.02011 -0.03135,-0.04008 -0.04769,-0.05961 -0.01796,-0.02143 -0.03672,-0.0422 -0.05609,-0.06239 -0.0214,-0.02222 -0.04355,-0.04387 -0.06591,-0.06519 -0.02441,-0.02328 -0.04906,-0.04636 -0.07432,-0.06871 -0.02731,-0.02408 -0.05531,-0.04757 -0.08343,-0.07083 -0.03037,-0.02513 -0.06088,-0.04998 -0.09185,-0.07432 -0.03345,-0.02619 -0.06743,-0.05186 -0.101662,-0.07713 -0.0365,-0.02691 -0.07329,-0.05342 -0.110072,-0.07991 -0.03681,-0.02619 -0.07364,-0.05247 -0.110072,-0.07924 -0.03322,-0.02434 -0.06611,-0.04927 -0.09886,-0.07432 -0.02937,-0.02249 -0.05863,-0.04506 -0.08764,-0.068 -0.02594,-0.02064 -0.05168,-0.04127 -0.07712,-0.06242 -0.02245,-0.01852 -0.04466,-0.03754 -0.06661,-0.05678 -0.01879,-0.0164 -0.03739,-0.03315 -0.05539,-0.05048 -0.01524,-0.01455 -0.03004,-0.02982 -0.04417,-0.04556 -0.01151,-0.01297 -0.02258,-0.02619 -0.03365,-0.03926 -0.01547,-0.02064 -0.03095,-0.04122 -0.04557,-0.06242 -0.01414,-0.02037 -0.02749,-0.04154 -0.03996,-0.0631 -0.01215,-0.0209 -0.02347,-0.04249 -0.03365,-0.06451 -0.01008,-0.0217 -0.01905,-0.04405 -0.02734,-0.0666 -0.0081,-0.02196 -0.0155,-0.04411 -0.02173,-0.0666 -0.0063,-0.02249 -0.01132,-0.04559 -0.01543,-0.06871 -0.0041,-0.02328 -0.0073,-0.04662 -0.0091,-0.07011 -0.0018,-0.02355 -0.0023,-0.04718 -0.0028,-0.07083 0.0013,-0.03701 0.0026,-0.07406 0.007,-0.11075 0.0043,-0.03596 0.01158,-0.07157 0.02103,-0.106574 0.0093,-0.03437 0.02067,-0.06813 0.03435,-0.100965 0.0138,-0.03313 0.02993,-0.0653 0.04838,-0.09607 0.01848,-0.0308 0.03928,-0.06019 0.0617,-0.08832 0.0223,-0.02799 0.0462,-0.05474 0.07222,-0.07924 0.02625,-0.02461 0.05465,-0.04715 0.08413,-0.068 0.03038,-0.02143 0.06191,-0.04133 0.09465,-0.0589 0.03327,-0.01799 0.0678,-0.03339 0.103065,-0.04699 0.03528,-0.01349 0.07129,-0.02514 0.107972,-0.03434 0.03665,-0.009 0.07396,-0.01561 0.111479,-0.01958 0.03865,-0.0042 0.07752,-0.0056 0.116395,-0.0071 0.04125,0.0026 0.0825,0.0029 0.123406,0.0077 0.04045,0.0048 0.08056,0.01296 0.119892,0.02381 0.03916,0.01085 0.07754,0.02434 0.114984,0.03998 0.03829,0.01614 0.0756,0.0345 0.111478,0.05538 0.01889,0.01111 0.03739,0.02275 0.05539,0.03506 0.01898,0.01297 0.0374,0.02696 0.05539,0.04138 0.01941,0.01561 0.03831,0.03172 0.05679,0.04837 0.01966,0.01773 0.03884,0.03593 0.05749,0.05469 0.01994,0.02011 0.03928,0.04069 0.05819,0.0617 0.02007,0.02223 0.03966,0.04501 0.05889,0.068 0.02058,0.02461 0.04075,0.04958 0.0603,0.07504 0.02056,0.02675 0.04043,0.05403 0.0603,0.08134 l -0.283954,0.215246 c -0.01714,-0.02223 -0.03429,-0.04418 -0.05188,-0.06591 -0.01629,-0.02011 -0.03295,-0.03992 -0.04978,-0.05958 -0.01561,-0.01826 -0.03135,-0.03641 -0.04768,-0.054 -0.01505,-0.01614 -0.0306,-0.03202 -0.04627,-0.04768 -0.01427,-0.01429 -0.02865,-0.02839 -0.04347,-0.04207 -0.01364,-0.01243 -0.02766,-0.02461 -0.04207,-0.03646 -0.01321,-0.01085 -0.02673,-0.02117 -0.04066,-0.03085 -0.01232,-0.0087 -0.02495,-0.01667 -0.03786,-0.02461 -0.02432,-0.01455 -0.04963,-0.02749 -0.07572,-0.03858 -0.02573,-0.01085 -0.05222,-0.02011 -0.07923,-0.02733 -0.02716,-0.0074 -0.05484,-0.0127 -0.08273,-0.01614 -0.0286,-0.0034 -0.05742,-0.0045 -0.08624,-0.0056 -0.03616,3.9e-5 -0.07231,0.0026 -0.107975,0.0077 -0.03311,0.005 -0.06578,0.01323 -0.09746,0.02461 -0.03015,0.01058 -0.05939,0.02381 -0.08694,0.03998 -0.02745,0.01614 -0.05322,0.035 -0.07712,0.05609 -0.02312,0.02037 -0.04451,0.04278 -0.0631,0.06731 -0.01762,0.02328 -0.03274,0.04842 -0.04487,0.07501 -0.01206,0.02646 -0.02118,0.05432 -0.02664,0.08273 -0.0057,0.0295 -0.0074,0.05964 -0.0091,0.08972 3.87e-4,0.01876 7.84e-4,0.03746 0.0028,0.05606 0.002,0.01852 0.0057,0.03707 0.0098,0.05538 0.0042,0.01852 0.0088,0.03675 0.01472,0.05469 0.006,0.01852 0.01338,0.03646 0.02174,0.054 0.009,0.01878 0.0191,0.03704 0.03015,0.05469 0.01229,0.01958 0.02572,0.03852 0.03996,0.05678 0.01591,0.02037 0.03284,0.03998 0.05048,0.0589 0.01974,0.02117 0.04037,0.04141 0.06101,0.0617 0.0077,0.0069 0.01533,0.01376 0.02315,0.02037 0.01075,0.0093 0.02179,0.01799 0.03295,0.02664 0.01437,0.01111 0.02894,0.02196 0.04347,0.03297 0.01801,0.01349 0.03595,0.02715 0.05399,0.04067 0.02114,0.01587 0.04241,0.03146 0.0638,0.04696 0.02469,0.01799 0.04953,0.03556 0.07432,0.05329 0.02806,0.02011 0.05607,0.04024 0.08414,0.0603 0.03149,0.02249 0.06307,0.0449 0.09465,0.06728 0.03799,0.02762 0.07597,0.05524 0.113578,0.08339 0.03522,0.02646 0.0701,0.05318 0.104467,0.08065 0.03203,0.02566 0.0636,0.05175 0.09465,0.07853 0.02896,0.02487 0.05748,0.05043 0.08554,0.07641 0.02596,0.02408 0.05153,0.0485 0.07642,0.07361 0.02304,0.02328 0.0455,0.0471 0.06731,0.07152 0.02012,0.02249 0.03968,0.04556 0.05819,0.06943 0.01694,0.0217 0.03299,0.04432 0.04838,0.06731 0.02834,0.04231 0.0544,0.08623 0.07712,0.131789 0.02123,0.0426 0.03955,0.08662 0.05469,0.131815 0.01449,0.04326 0.02607,0.08758 0.03295,0.13253 0.0067,0.04376 0.009,0.08813 0.01122,0.132497 -6.61e-4,0.03137 -0.0013,0.06275 -0.0042,0.09395 -0.0028,0.03059 -0.0078,0.06099 -0.01402,0.09115 -0.0061,0.02955 -0.01333,0.0589 -0.02244,0.08763 -0.0091,0.02884 -0.02012,0.0571 -0.03225,0.08482 -0.01223,0.02799 -0.02563,0.05548 -0.04067,0.08205 -0.01533,0.02707 -0.03237,0.05318 -0.05048,0.07853 -0.0185,0.02593 -0.03811,0.05093 -0.05889,0.07501 -0.02172,0.02514 -0.04471,0.04921 -0.06871,0.07223 -0.02404,0.02302 -0.04908,0.04501 -0.07502,0.06588 -0.02528,0.02037 -0.05141,0.03966 -0.07852,0.05749 -0.0267,0.01746 -0.05434,0.03371 -0.08273,0.04839 -0.02807,0.01455 -0.05687,0.0276 -0.08624,0.03926 -0.02962,0.01164 -0.05983,0.02196 -0.09044,0.03085 -0.03117,0.009 -0.06276,0.0164 -0.09465,0.02249 -0.03247,0.0061 -0.06525,0.01058 -0.09816,0.01323 -0.03403,0.0026 -0.0682,0.0034 -0.102371,0.0042 -0.02644,2.5e-5 -0.05288,2.5e-5 -0.07924,-0.0029 -0.02602,-0.0026 -0.05197,-0.0048 -0.07782,-0.0085 -0.02539,-0.0037 -0.0507,-0.0079 -0.07572,-0.01323 -0.0248,-0.0056 -0.04932,-0.01217 -0.07362,-0.01958 -0.02411,-0.0074 -0.04798,-0.01561 -0.07151,-0.02461 -0.02375,-0.009 -0.04716,-0.01905 -0.07011,-0.03014 -0.02311,-0.01111 -0.04577,-0.02302 -0.06801,-0.03577 -0.02269,-0.01296 -0.04494,-0.02672 -0.06661,-0.04135 -0.02216,-0.01508 -0.04371,-0.03085 -0.0645,-0.04768 -0.02176,-0.01746 -0.04269,-0.03622 -0.0631,-0.05538 -0.02145,-0.02011 -0.04233,-0.0409 -0.0624,-0.06242 -0.02114,-0.02275 -0.04138,-0.04612 -0.061,-0.07011 -0.02058,-0.02514 -0.04048,-0.05085 -0.05959,-0.07713 -0.02018,-0.02773 -0.03949,-0.05607 -0.05819,-0.08483 -0.01963,-0.03019 -0.03859,-0.0608 -0.05679,-0.09184 -0.01926,-0.03286 -0.03768,-0.06623 -0.0561,-0.0995 l 0.295867,-0.177343 c 0.02752,0.04606 0.05504,0.09213 0.08484,0.136737 0.02729,0.04082 0.0565,0.08043 0.08764,0.11848 0.02863,0.03498 0.05888,0.06863 0.09115,0.100251 0.02982,0.02926 0.06136,0.05678 0.09465,0.08205 0.03096,0.02355 0.06343,0.04506 0.09745,0.06379 0.03236,0.01773 0.06612,0.0331 0.100962,0.04559 0.03397,0.01217 0.06895,0.0217 0.104467,0.02733 0.03541,0.0056 0.07134,0.0074 0.107271,0.0092 0.03069,-8.7e-5 0.06137,-0.0027 0.09185,-0.0051 z m 6.282045,-3.355394 c 0.01841,0.0029 0.03656,0.0079 0.05399,0.01482 0.01739,0.0066 0.03405,0.01535 0.04978,0.02513 0.01593,0.01006 0.03088,0.0217 0.04487,0.03434 0.01388,0.0127 0.0268,0.02619 0.03786,0.04138 0.01053,0.01429 0.01937,0.02995 0.02664,0.04628 0.0071,0.01588 0.01276,0.0327 0.01613,0.04977 0.0035,0.01773 0.0046,0.03585 0.0056,0.05396 -0.0011,0.01769 -0.0022,0.03528 -0.0056,0.05253 -0.0034,0.01693 -0.009,0.03334 -0.01613,0.04908 -0.0073,0.01614 -0.01618,0.03141 -0.02664,0.04556 -0.01111,0.01508 -0.02399,0.02879 -0.03786,0.04138 -0.01397,0.0127 -0.02894,0.02434 -0.04487,0.03434 -0.01573,0.01005 -0.0324,0.01852 -0.04978,0.02513 -0.01743,0.0069 -0.03558,0.01164 -0.05399,0.01482 -0.01921,0.0032 -0.0387,0.004 -0.05819,0.005 -0.01927,-3.4e-5 -0.03854,-0.0026 -0.05749,-0.005 -0.01794,-0.0029 -0.0356,-0.0079 -0.05258,-0.01482 -0.01736,-0.0069 -0.03402,-0.01535 -0.04978,-0.02514 -0.01595,-0.01005 -0.03099,-0.0217 -0.04487,-0.03434 -0.01366,-0.0127 -0.02622,-0.02646 -0.03716,-0.04138 -0.01039,-0.01429 -0.01933,-0.0295 -0.02664,-0.04556 -0.0072,-0.01561 -0.01277,-0.03223 -0.01613,-0.04908 -0.0034,-0.0172 -0.0045,-0.03493 -0.0056,-0.05253 0.0011,-0.01822 0.0021,-0.03624 0.0056,-0.05396 0.0034,-0.0172 0.009,-0.03379 0.01613,-0.04977 0.0073,-0.0164 0.01619,-0.03186 0.02664,-0.04628 0.01089,-0.01508 0.02348,-0.02879 0.03716,-0.04138 0.0139,-0.0127 0.02892,-0.02434 0.04487,-0.03434 0.01575,-0.0098 0.03242,-0.01852 0.04978,-0.02514 0.01699,-0.0066 0.03464,-0.01164 0.05258,-0.01482 0.01896,-0.0032 0.03822,-0.004 0.0575,-0.005 0.0195,4.4e-5 0.03899,0.0026 0.0582,0.005 z m 3.151546,1.071934 h 0.314102 v 2.557674 H 45.95434 v -0.44241 c -0.03542,0.04006 -0.07084,0.08009 -0.108674,0.117793 -0.036,0.03588 -0.07419,0.06966 -0.114283,0.100965 -0.03896,0.03043 -0.07972,0.05853 -0.121996,0.08414 -0.04116,0.02487 -0.08376,0.04749 -0.127604,0.06731 -0.04357,0.01958 -0.08836,0.0367 -0.133914,0.05117 -0.04583,0.01455 -0.09243,0.02662 -0.139523,0.03646 -0.04841,0.01005 -0.09735,0.01799 -0.146535,0.02249 -0.05053,0.0048 -0.101339,0.0058 -0.152143,0.0069 -0.04517,2.8e-5 -0.09034,-0.0026 -0.135316,-0.0064 -0.04372,-0.0037 -0.08727,-0.01005 -0.130409,-0.01826 -0.04229,-0.0082 -0.08418,-0.01799 -0.125501,-0.03016 -0.04089,-0.01191 -0.08121,-0.02593 -0.120593,-0.04207 -0.03926,-0.01614 -0.07758,-0.03455 -0.114984,-0.05469 -0.03797,-0.02037 -0.07498,-0.0426 -0.110777,-0.0666 -0.03635,-0.02434 -0.07144,-0.05064 -0.105168,-0.07853 -0.03482,-0.02879 -0.0682,-0.05929 -0.100261,-0.09115 -0.03205,-0.03183 -0.06279,-0.06498 -0.09185,-0.09956 -0.02813,-0.03347 -0.05469,-0.06829 -0.07923,-0.104458 -0.02408,-0.03551 -0.04621,-0.07231 -0.06661,-0.110066 -0.02033,-0.03765 -0.03893,-0.07623 -0.05539,-0.115703 -0.01641,-0.03937 -0.03069,-0.07967 -0.04277,-0.120597 -0.01218,-0.04127 -0.02211,-0.08319 -0.03015,-0.125492 -0.0082,-0.04336 -0.01448,-0.08715 -0.01823,-0.131101 -0.0039,-0.04522 -0.0051,-0.09062 -0.0063,-0.135953 0.0012,-0.04441 0.0025,-0.08886 0.0063,-0.133149 0.0037,-0.04326 0.0099,-0.08636 0.01823,-0.129011 0.0082,-0.04162 0.01843,-0.08284 0.03085,-0.123402 0.01239,-0.04043 0.02691,-0.08025 0.04347,-0.119168 0.0165,-0.03879 0.03501,-0.0767 0.05539,-0.113586 0.02061,-0.03731 0.04312,-0.07358 0.06731,-0.108691 0.02489,-0.03611 0.05155,-0.07101 0.07993,-0.104457 0.02922,-0.03442 0.06025,-0.06728 0.09255,-0.09885 0.03233,-0.03162 0.06591,-0.06194 0.100961,-0.09046 0.03423,-0.02783 0.06986,-0.05397 0.106571,-0.07853 0.03584,-0.02408 0.07271,-0.04641 0.110777,-0.0666 0.03778,-0.02011 0.07674,-0.03786 0.116386,-0.05397 0.03974,-0.01614 0.08018,-0.03061 0.121294,-0.04278 0.04148,-0.01217 0.08365,-0.02223 0.126202,-0.03014 0.04338,-0.0079 0.08717,-0.01402 0.13111,-0.01746 0.04523,-0.0037 0.09062,-0.005 0.136018,-0.0063 0.0522,0.0026 0.1044,0.0029 0.156351,0.0077 0.04992,0.0048 0.09961,0.01244 0.148638,0.02302 0.04768,0.01032 0.09472,0.02355 0.140925,0.03926 0.0454,0.01535 0.08998,0.03326 0.133213,0.05397 0.04334,0.0209 0.08533,0.04442 0.125501,0.0708 0.04143,0.02723 0.08093,0.05736 0.11849,0.08975 0.03871,0.03339 0.07535,0.06921 0.109375,0.107288 0.03609,0.04038 0.06923,0.08329 0.102364,0.126275 z m 0.987179,2.557674 v -3.589734 h 0.314103 v 3.589734 z m -4.352564,-2.557674 h 0.314102 v 2.557674 H 42.588955 Z M 37.97206,72.81782 c 0.0027,-0.0385 0.0071,-0.07689 0.01332,-0.114988 0.0061,-0.03746 0.01386,-0.07466 0.02314,-0.111469 0.0092,-0.03665 0.01996,-0.07295 0.03225,-0.108664 0.01226,-0.03564 0.02607,-0.07075 0.04137,-0.105172 0.01536,-0.03461 0.03222,-0.06853 0.05048,-0.10168 0.01863,-0.03381 0.03873,-0.06683 0.0603,-0.09885 0.02189,-0.03249 0.0453,-0.06392 0.06871,-0.09536 0.03171,-0.03786 0.06342,-0.07572 0.09746,-0.111466 0.03296,-0.03461 0.06811,-0.06723 0.105168,-0.09747 0.03596,-0.02934 0.07371,-0.05644 0.112881,-0.08133 0.03905,-0.02487 0.07952,-0.04744 0.121294,-0.06728 0.04187,-0.01984 0.08506,-0.03704 0.129006,-0.05188 0.04483,-0.01508 0.09046,-0.02797 0.136719,-0.03786 0.04763,-0.01032 0.09594,-0.01746 0.144431,-0.0217 0.05081,-0.0045 0.101829,-0.0061 0.152843,-0.0077 0.05245,0.0026 0.104893,0.0026 0.157049,0.0077 0.05016,0.0048 0.100055,0.01297 0.149339,0.02381 0.04767,0.01058 0.09478,0.02355 0.140926,0.03926 0.04522,0.01561 0.08951,0.03376 0.132512,0.05469 0.04304,0.0209 0.08479,0.04458 0.124799,0.0708 0.04051,0.02656 0.07924,0.0558 0.116387,0.08694 0.03818,0.03202 0.07468,0.06607 0.108673,0.102367 0.03522,0.03762 0.06774,0.07771 0.100261,0.117811 0.02213,0.03023 0.04425,0.06042 0.0645,0.09186 0.02011,0.03125 0.03838,0.06368 0.05539,0.09676 0.01733,0.03371 0.03336,0.06802 0.04768,0.103081 0.01445,0.03538 0.02716,0.07146 0.03856,0.10795 0.0117,0.03746 0.02203,0.07535 0.03085,0.113586 0.0091,0.03942 0.01656,0.07919 0.02244,0.119195 0.0061,0.04141 0.01047,0.08305 0.01332,0.124804 0.003,0.04342 0.0043,0.08692 0.0056,0.13041 l -2.288459,-2e-6 c 0.0015,0.03371 0.0031,0.06739 0.0063,0.100965 0.0031,0.03244 0.0078,0.06474 0.01402,0.09676 0.006,0.03096 0.01338,0.06165 0.02244,0.09184 0.0088,0.02945 0.01924,0.05845 0.03085,0.08694 0.01137,0.02791 0.0239,0.05532 0.03786,0.08202 0.01399,0.02675 0.02943,0.05278 0.04628,0.07784 0.01695,0.02514 0.03533,0.04948 0.05469,0.07292 0.01971,0.02381 0.04045,0.04689 0.0624,0.06869 0.02184,0.0217 0.04489,0.0422 0.06871,0.0617 0.02326,0.01905 0.04727,0.03723 0.07221,0.054 0.02462,0.01667 0.05016,0.03175 0.07642,0.04556 0.02621,0.01376 0.05314,0.02619 0.08063,0.03717 0.02753,0.01111 0.05562,0.02064 0.08413,0.02873 0.02908,0.0082 0.0586,0.01482 0.08834,0.02037 0.03042,0.0056 0.06107,0.01005 0.09185,0.0127 0.03192,0.0026 0.06399,0.0034 0.09606,0.0042 0.03136,-4.6e-5 0.06271,-4.6e-5 0.09396,-0.0034 0.03075,-0.0026 0.06141,-0.0061 0.09185,-0.01111 0.03062,-0.005 0.06103,-0.01138 0.09115,-0.01905 0.03022,-0.0074 0.06016,-0.01614 0.08974,-0.02593 0.02916,-0.0095 0.05799,-0.02037 0.08624,-0.03225 0.02694,-0.01138 0.05335,-0.02408 0.07923,-0.03786 0.02463,-0.01296 0.04877,-0.02699 0.07222,-0.04207 0.02271,-0.01455 0.04476,-0.03019 0.06591,-0.04696 0.02231,-0.01773 0.0436,-0.03672 0.0638,-0.05678 0.02336,-0.02328 0.04527,-0.04784 0.06661,-0.07292 0.02403,-0.02828 0.04734,-0.05715 0.06941,-0.08694 0.02489,-0.0336 0.0482,-0.06834 0.0715,-0.103146 l 0.27904,0.146489 c -0.02224,0.03942 -0.04447,0.07887 -0.06871,0.117078 -0.02292,0.03612 -0.04763,0.07115 -0.07362,0.105172 -0.02479,0.03247 -0.05075,0.06403 -0.07853,0.09395 -0.02654,0.02858 -0.05473,0.05567 -0.08413,0.08133 -0.02858,0.02487 -0.05831,0.04855 -0.08904,0.0708 -0.03036,0.02196 -0.06171,0.0426 -0.09395,0.0617 -0.03257,0.01932 -0.06606,0.03704 -0.10026,0.05329 -0.03436,0.0164 -0.06943,0.03114 -0.105169,0.04416 -0.03655,0.01323 -0.07379,0.02487 -0.111478,0.03437 -0.03909,0.01006 -0.07865,0.01799 -0.11849,0.02461 -0.0416,0.0069 -0.08349,0.01164 -0.1255,0.01482 -0.04409,0.0032 -0.0883,0.004 -0.132512,0.0048 -0.04914,-3.3e-5 -0.09828,-0.0026 -0.147237,-0.0064 -0.04654,-0.0037 -0.09291,-0.01032 -0.138822,-0.01905 -0.04397,-0.0085 -0.08753,-0.01879 -0.130409,-0.03154 -0.04167,-0.01244 -0.08271,-0.02707 -0.122696,-0.04418 -0.03894,-0.01667 -0.07689,-0.03564 -0.113582,-0.05678 -0.03658,-0.02117 -0.07192,-0.04429 -0.105869,-0.0694 -0.0343,-0.0254 -0.06718,-0.05273 -0.09816,-0.08205 -0.03147,-0.02979 -0.06097,-0.06162 -0.08904,-0.09464 -0.02806,-0.03299 -0.05469,-0.06718 -0.07993,-0.102367 -0.0246,-0.03432 -0.04787,-0.06956 -0.06941,-0.10586 -0.02108,-0.03553 -0.04049,-0.07207 -0.05819,-0.109379 -0.0175,-0.03694 -0.03333,-0.07461 -0.04768,-0.112898 -0.01425,-0.03799 -0.02703,-0.07657 -0.03786,-0.115675 -0.01081,-0.03903 -0.01967,-0.07858 -0.02664,-0.118481 -0.0071,-0.04064 -0.01225,-0.0816 -0.01543,-0.122714 -0.0032,-0.04175 -0.0044,-0.08361 -0.0056,-0.125388 0.0011,-0.03919 0.0021,-0.07848 0.0049,-0.117689 z"
       inkscape:connector-curvature="0" />
    <path
       id="path1264"
       style="fill:#000000;fill-opacity:1;stroke:none;stroke-width:0.238125;stroke-linecap:round"
       d="m 59.403984,73.724359 c 0.0307,-0.01217 0.06094,-0.02567 0.09044,-0.04067 0.02896,-0.01455 0.05721,-0.03064 0.08484,-0.04765 0.02711,-0.01667 0.05362,-0.0344 0.07923,-0.05329 0.02567,-0.01905 0.05042,-0.03916 0.07432,-0.0603 0.02403,-0.02117 0.0472,-0.04347 0.06941,-0.06662 0.02225,-0.02328 0.04355,-0.04725 0.0638,-0.07221 0.02074,-0.02566 0.04039,-0.05202 0.05889,-0.07924 0.01871,-0.02752 0.03627,-0.05583 0.05258,-0.08483 0.01635,-0.02905 0.03146,-0.05882 0.04557,-0.08903 0.01427,-0.03059 0.02752,-0.06165 0.03926,-0.09327 0.01196,-0.0322 0.02236,-0.06501 0.03155,-0.09816 0.0094,-0.03403 0.01762,-0.06842 0.02454,-0.103055 0.0071,-0.03553 0.01288,-0.07133 0.01753,-0.107262 0.0048,-0.03704 0.0084,-0.07422 0.01052,-0.111496 0.0022,-0.03874 0.0029,-0.07755 0.0035,-0.116356 -4.94e-4,-0.04095 -9.92e-4,-0.08188 -0.0035,-0.122705 -0.0024,-0.03937 -0.0066,-0.07866 -0.01192,-0.117793 -0.0051,-0.03781 -0.01128,-0.07549 -0.01893,-0.112871 -0.0075,-0.03654 -0.01639,-0.07279 -0.02664,-0.108664 -0.01008,-0.03527 -0.02145,-0.07017 -0.03435,-0.104484 -0.01268,-0.03371 -0.02683,-0.06689 -0.04207,-0.09956 -0.01512,-0.03241 -0.0313,-0.06432 -0.04908,-0.09533 -0.01777,-0.03101 -0.03713,-0.06109 -0.05749,-0.09046 -0.02017,-0.02908 -0.04134,-0.05749 -0.0638,-0.08483 -0.02217,-0.02699 -0.0456,-0.05294 -0.07011,-0.07784 -0.02426,-0.02461 -0.04957,-0.04818 -0.07572,-0.0708 -0.02619,-0.02275 -0.05322,-0.04432 -0.08133,-0.0645 -0.02828,-0.02037 -0.05764,-0.03911 -0.08764,-0.05678 -0.03064,-0.01799 -0.06194,-0.035 -0.09395,-0.05048 -0.03252,-0.01587 -0.06578,-0.03 -0.09956,-0.04278 -0.03491,-0.01323 -0.07039,-0.02487 -0.105877,-0.03647 -0.02936,-0.0082 -0.05871,-0.01615 -0.08835,-0.02303 -0.03338,-0.0077 -0.06713,-0.01402 -0.100962,-0.01958 -0.03823,-0.0063 -0.07656,-0.01191 -0.114984,-0.01693 -0.04244,-0.0056 -0.08499,-0.01005 -0.127604,-0.01402 -0.04691,-0.0042 -0.0939,-0.0077 -0.140925,-0.01058 -0.05139,-0.0032 -0.102807,-0.0056 -0.154247,-0.0077 -0.05584,-0.0026 -0.111697,-0.004 -0.167568,-0.005 -0.06029,0 -0.120589,0 -0.180891,-0.002 l -0.246093,6.35e-4 v 2.782067 h 0.401742 c 0.05773,-2.65e-4 0.115457,0 0.173177,-0.0026 0.0533,0 0.106588,-0.0026 0.159856,-0.0042 0.04864,-0.0026 0.09725,-0.004 0.145834,-0.0071 0.04398,-0.0026 0.08793,-0.0058 0.131811,-0.0098 0.03956,-0.0037 0.07906,-0.0079 0.118489,-0.0127 0.03491,-0.0042 0.06976,-0.009 0.104467,-0.01482 0.03035,-0.005 0.06058,-0.01085 0.09044,-0.01826 0.02566,-0.0063 0.05104,-0.01376 0.07642,-0.02038 0.03195,-0.01031 0.0639,-0.02169 0.09535,-0.03426 z m 0.126205,-2.842332 c 0.03871,0.0172 0.07656,0.03622 0.113581,0.05681 0.0366,0.02037 0.07238,0.04207 0.107272,0.06519 0.03445,0.02275 0.06803,0.04704 0.100261,0.07292 0.03229,0.02593 0.06322,0.0535 0.09325,0.08202 0.03009,0.0286 0.05928,0.05813 0.08694,0.08906 0.02813,0.03143 0.05468,0.06432 0.07993,0.09816 0.02564,0.03434 0.04993,0.06969 0.07292,0.10586 0.02338,0.03678 0.04541,0.07443 0.06591,0.112871 0.02051,0.03847 0.03948,0.07779 0.05679,0.117792 0.01751,0.04048 0.03331,0.0817 0.04768,0.123402 0.01457,0.04231 0.02766,0.08509 0.03926,0.128297 0.01189,0.04426 0.02222,0.08893 0.03085,0.133932 0.0089,0.04622 0.01593,0.09279 0.02173,0.139514 0.006,0.048 0.01062,0.09618 0.01332,0.144436 0.0028,0.04972 0.0035,0.09951 0.0042,0.149328 -6.35e-4,0.04326 -0.0013,0.08652 -0.0035,0.129696 -0.0022,0.04194 -0.0059,0.08377 -0.01052,0.125518 -0.0045,0.04059 -0.0099,0.08107 -0.01683,0.121285 -0.0068,0.03953 -0.01519,0.07877 -0.02454,0.117793 -0.0091,0.03815 -0.01923,0.07609 -0.03085,0.113586 -0.01151,0.03712 -0.02452,0.07379 -0.03856,0.110066 -0.01384,0.03577 -0.02869,0.07112 -0.04487,0.10586 -0.01607,0.0345 -0.03345,0.06837 -0.05188,0.101679 -0.01817,0.03283 -0.03736,0.06509 -0.05749,0.09676 -0.01941,0.03051 -0.0397,0.06048 -0.061,0.08975 -0.02097,0.02879 -0.04292,0.05689 -0.06591,0.08411 -0.0222,0.02646 -0.04536,0.05181 -0.06941,0.07644 -0.02391,0.02434 -0.0487,0.04813 -0.07432,0.0708 -0.02512,0.02222 -0.05104,0.0436 -0.07782,0.06382 -0.02681,0.02011 -0.05448,0.03932 -0.08273,0.05749 -0.02812,0.01799 -0.05683,0.03527 -0.08624,0.05117 -0.03016,0.0164 -0.06105,0.0313 -0.09255,0.04487 -0.03329,0.01429 -0.06726,0.02712 -0.101662,0.03855 -0.03651,0.01217 -0.07351,0.02275 -0.110778,0.03225 -0.03945,0.01005 -0.07922,0.01905 -0.11919,0.02664 -0.04256,0.0082 -0.08535,0.01535 -0.128306,0.02117 -0.04566,0.0061 -0.0915,0.01085 -0.137419,0.01482 -0.04854,0.004 -0.09717,0.0074 -0.145834,0.009 -0.05162,0.0026 -0.103282,0.0026 -0.15495,0.0028 l -1.084636,-1.02e-4 v -3.49999 h 0.706731 c 0.06147,0 0.122938,0 0.184395,0.0026 0.05728,0 0.114545,0.0029 0.171775,0.0056 0.05286,0.0026 0.105697,0.0056 0.158453,0.0098 0.04868,0.004 0.0973,0.0085 0.145833,0.01402 0.04405,0.005 0.08802,0.01058 0.131811,0.01746 0.0399,0.0063 0.07966,0.01349 0.119191,0.0217 0.03557,0.0074 0.07095,0.01588 0.10587,0.02593 0.03133,0.009 0.06229,0.01932 0.09325,0.02927 0.04049,0.01516 0.08099,0.03067 0.120592,0.04819 z m 7.640825,3.410958 c -0.03359,-0.0026 -0.06703,-0.0074 -0.100261,-0.01323 -0.03231,-0.0058 -0.06442,-0.01244 -0.09605,-0.0209 -0.0311,-0.0085 -0.06173,-0.01852 -0.09185,-0.03016 -0.02983,-0.01138 -0.05916,-0.02408 -0.08764,-0.03855 -0.02858,-0.01455 -0.05631,-0.03059 -0.08343,-0.04768 -0.02744,-0.0172 -0.05426,-0.03559 -0.07993,-0.0554 -0.02611,-0.02011 -0.05103,-0.04183 -0.07502,-0.06448 -0.02416,-0.02275 -0.04738,-0.04665 -0.06941,-0.07152 -0.02171,-0.02461 -0.04226,-0.05006 -0.0617,-0.07644 -0.0194,-0.02619 -0.03769,-0.05342 -0.05469,-0.08133 -0.0172,-0.02823 -0.03306,-0.05726 -0.04768,-0.08694 -0.01467,-0.02976 -0.02807,-0.06017 -0.03996,-0.09112 -0.01218,-0.03175 -0.02278,-0.06408 -0.03225,-0.09676 -0.0097,-0.03358 -0.01827,-0.06747 -0.02524,-0.10168 -0.0072,-0.0353 -0.01271,-0.07094 -0.01823,-0.106686 l 0.314102,-1.11e-4 c 0.0077,0.03339 0.01546,0.06675 0.02524,0.09956 0.009,0.03027 0.01979,0.06003 0.03225,0.08906 0.01176,0.02738 0.02503,0.05411 0.03996,0.07993 0.0141,0.02434 0.02969,0.04789 0.04698,0.07011 0.01698,0.0217 0.0356,0.04236 0.05539,0.06168 0.02016,0.01958 0.04153,0.03813 0.0638,0.0554 0.02312,0.01799 0.0472,0.03463 0.07221,0.04977 0.02603,0.01587 0.05306,0.02982 0.08063,0.04278 0.02792,0.01323 0.05639,0.02514 0.08554,0.03506 0.02891,0.0098 0.05848,0.01773 0.08834,0.02461 0.02965,0.0066 0.05959,0.01217 0.08974,0.01535 0.03046,0.0032 0.06115,0.004 0.09185,0.005 0.02996,-4.2e-5 0.05992,-0.0026 0.08974,-0.0042 0.0289,-0.0026 0.05768,-0.0066 0.08624,-0.01191 0.02811,-0.0053 0.05602,-0.01164 0.08343,-0.01958 0.0271,-0.0079 0.05372,-0.01746 0.07993,-0.02805 0.02602,-0.01058 0.05163,-0.02196 0.07642,-0.03506 0.02532,-0.01323 0.04979,-0.02828 0.07362,-0.04416 0.0241,-0.01614 0.04754,-0.03307 0.07011,-0.0512 0.02338,-0.01879 0.04583,-0.03866 0.06731,-0.05958 0.02133,-0.0209 0.0417,-0.04252 0.061,-0.06519 0.01891,-0.02223 0.0368,-0.04535 0.05329,-0.06943 0.01624,-0.02381 0.03113,-0.04834 0.04487,-0.07361 0.01364,-0.02514 0.02616,-0.0508 0.03716,-0.07713 0.01108,-0.02654 0.02062,-0.05374 0.02875,-0.08133 0.0082,-0.02791 0.01499,-0.05622 0.02033,-0.08483 0.0055,-0.02947 0.0095,-0.05921 0.01192,-0.08906 0.0025,-0.03101 0.0034,-0.06212 0.0042,-0.09327 -6.61e-4,-0.0281 -0.0013,-0.05617 -0.0035,-0.08417 -0.0021,-0.0268 -0.0056,-0.0535 -0.01052,-0.07993 -0.0048,-0.0254 -0.01085,-0.05083 -0.01823,-0.07572 -0.0072,-0.02434 -0.01561,-0.04813 -0.02524,-0.07152 -0.0096,-0.02328 -0.02031,-0.04593 -0.03225,-0.068 -0.01189,-0.02196 -0.02496,-0.04331 -0.03926,-0.06382 -0.01449,-0.02064 -0.03024,-0.04061 -0.04697,-0.05958 -0.01706,-0.01932 -0.03515,-0.03776 -0.05399,-0.05538 -0.01902,-0.01773 -0.03882,-0.03479 -0.0596,-0.05048 -0.02085,-0.01587 -0.04268,-0.03021 -0.0652,-0.04347 -0.02253,-0.01323 -0.04575,-0.0254 -0.06941,-0.03646 -0.02428,-0.01138 -0.04902,-0.02196 -0.07432,-0.03085 -0.02594,-0.0093 -0.05247,-0.01667 -0.07923,-0.02302 -0.02781,-0.0066 -0.05587,-0.01244 -0.08414,-0.01693 -0.02928,-0.0045 -0.05878,-0.0079 -0.08834,-0.0098 -0.03127,-0.0026 -0.06261,-0.0029 -0.09395,-0.0035 -0.02713,-6.8e-5 -0.05426,-6.8e-5 -0.08133,0.0028 -0.02882,0.0026 -0.05759,0.0048 -0.08624,0.0085 -0.03004,0.004 -0.05995,0.0087 -0.08974,0.01402 -0.03171,0.0058 -0.06327,0.01243 -0.09465,0.01958 -0.0329,0.0077 -0.06561,0.01614 -0.09816,0.02514 -0.03455,0.0095 -0.06891,0.01984 -0.103065,0.03085 -0.03576,0.01138 -0.07128,0.02355 -0.106571,0.03646 -0.03733,0.01349 -0.0744,0.02781 -0.111478,0.04206 l 0.358974,-1.75002 h 1.435898 v 0.358961 h -1.190505 l -0.188602,0.920591 c 0.03706,-0.01032 0.07411,-0.02037 0.111478,-0.02945 0.03503,-0.0085 0.07032,-0.01588 0.10587,-0.0217 0.03324,-0.0056 0.06669,-0.01005 0.10026,-0.0127 0.03148,-0.0026 0.06306,-0.0034 0.09465,-0.0042 0.03908,1.3e-5 0.07817,0.0026 0.117088,0.005 0.03761,0.0032 0.07506,0.0085 0.11218,0.01535 0.0359,0.0069 0.07149,0.01508 0.10657,0.02514 0.03444,0.01005 0.0684,0.0217 0.101663,0.03506 0.0328,0.01323 0.06493,0.0281 0.09605,0.04487 0.03114,0.01667 0.06128,0.03538 0.09045,0.05538 0.02958,0.02037 0.05816,0.04204 0.08554,0.06519 0.02815,0.02381 0.05503,0.04916 0.08063,0.07572 0.02564,0.02662 0.04999,0.05448 0.07292,0.08345 0.02246,0.02839 0.04354,0.05786 0.0631,0.08834 0.01963,0.03059 0.03773,0.06215 0.05399,0.09464 0.01621,0.03238 0.0306,0.0657 0.04347,0.09956 0.01319,0.03471 0.02478,0.07001 0.03435,0.10586 0.0098,0.03672 0.01749,0.07398 0.02384,0.111495 0.0066,0.03881 0.0117,0.07787 0.01472,0.117078 0.0032,0.0408 0.004,0.08176 0.0049,0.122743 -6.6e-4,0.02858 -0.0013,0.0571 -0.0028,0.0856 -0.0015,0.0281 -0.0037,0.0562 -0.007,0.08414 -0.0033,0.02749 -0.0076,0.05482 -0.01262,0.08202 -0.005,0.02707 -0.01084,0.05397 -0.01753,0.08065 -0.0066,0.02646 -0.01413,0.0526 -0.02244,0.07853 -0.0083,0.02567 -0.0173,0.0513 -0.02734,0.07641 -0.01013,0.0254 -0.02128,0.05032 -0.03295,0.07504 -0.01175,0.02487 -0.02404,0.04945 -0.03716,0.07361 -0.01295,0.02381 -0.02671,0.04728 -0.04137,0.07011 -0.01442,0.02249 -0.02971,0.0444 -0.04557,0.06591 -0.01552,0.02117 -0.03159,0.04165 -0.04838,0.0617 -0.01658,0.01984 -0.03386,0.039 -0.05188,0.05749 -0.018,0.01852 -0.03674,0.03622 -0.05609,0.05329 -0.01931,0.01693 -0.03921,0.03334 -0.05959,0.04905 -0.02029,0.01561 -0.04105,0.03072 -0.0624,0.04487 -0.02168,0.01429 -0.04398,0.02781 -0.06661,0.04067 -0.02274,0.01296 -0.04581,0.02514 -0.06941,0.03646 -0.02364,0.01138 -0.04782,0.02143 -0.07221,0.03085 -0.02452,0.0095 -0.04927,0.01852 -0.07432,0.02664 -0.02543,0.0082 -0.05118,0.01535 -0.07712,0.0217 -0.02645,0.0063 -0.05311,0.01217 -0.07993,0.01693 -0.02744,0.0048 -0.05505,0.0087 -0.08273,0.01191 -0.02844,0.0034 -0.05696,0.0061 -0.08554,0.0077 -0.02917,0.0026 -0.0584,0.0026 -0.08765,0.0023 -0.03488,-2.72e-4 -0.06976,-0.0029 -0.104479,-0.0045 z m 4.043369,-3.585535 h 0.647136 v 3.499988 h -0.314103 v -3.141027 h -0.538461 z m 4.685597,0 h 0.336539 l 1.166666,2.758202 1.166667,-2.758202 h 0.336538 l -1.480769,3.499988 h -0.04487 z m -0.412946,1.096539 c -0.0056,0.04749 -0.01515,0.09459 -0.02734,0.140944 -0.01217,0.04622 -0.02699,0.09173 -0.04487,0.136022 -0.01828,0.04527 -0.03975,0.0893 -0.0638,0.131789 -0.01292,0.02275 -0.02658,0.04522 -0.04066,0.06731 -0.01585,0.02487 -0.03224,0.0494 -0.04908,0.07363 -0.01863,0.02678 -0.03781,0.05318 -0.05749,0.07922 -0.02148,0.02842 -0.04356,0.05638 -0.06591,0.08414 -0.02468,0.03064 -0.04969,0.06104 -0.07502,0.09115 -0.0272,0.03233 -0.05476,0.06437 -0.08273,0.09604 -0.03023,0.03424 -0.06093,0.06805 -0.09185,0.10168 -0.03325,0.03614 -0.06676,0.07205 -0.100272,0.10795 L 73.9123,73.848478 h 1.628706 v 0.35896 h -2.378205 l 1.357371,-1.448514 c 0.03305,-0.0345 0.0661,-0.069 0.09886,-0.10377 0.03017,-0.03202 0.06009,-0.06424 0.08974,-0.09676 0.02711,-0.02969 0.05398,-0.05961 0.08063,-0.08972 0.02415,-0.0273 0.04812,-0.0548 0.07152,-0.08274 0.02111,-0.02514 0.04176,-0.05083 0.0624,-0.07644 0.01828,-0.02275 0.03654,-0.04538 0.05399,-0.06871 0.01526,-0.02037 0.02989,-0.04127 0.04417,-0.06239 0.01232,-0.01826 0.02437,-0.03659 0.03576,-0.05538 0.02047,-0.03381 0.03877,-0.06898 0.05469,-0.105172 0.01543,-0.03508 0.02862,-0.07115 0.03926,-0.107976 0.01042,-0.03609 0.0184,-0.07292 0.02314,-0.110093 0.0048,-0.03762 0.0063,-0.07559 0.0077,-0.113555 -6.35e-4,-0.0238 -0.0013,-0.04778 -0.0035,-0.07151 -0.0022,-0.02302 -0.0058,-0.04601 -0.01052,-0.06871 -0.0046,-0.02222 -0.0101,-0.04426 -0.01683,-0.06591 -0.0067,-0.0217 -0.01467,-0.04302 -0.02384,-0.06382 -0.0093,-0.02117 -0.01991,-0.04172 -0.03155,-0.06167 -0.01166,-0.02011 -0.02437,-0.0394 -0.03786,-0.05821 -0.01387,-0.01931 -0.02856,-0.03813 -0.04417,-0.05609 -0.01637,-0.01879 -0.03374,-0.03683 -0.05188,-0.05398 -0.01819,-0.0172 -0.03715,-0.03358 -0.05679,-0.04908 -0.01919,-0.01508 -0.03903,-0.02953 -0.0596,-0.04278 -0.02016,-0.01296 -0.04101,-0.02487 -0.0624,-0.03574 -0.02147,-0.01085 -0.04348,-0.02064 -0.06591,-0.02945 -0.02274,-0.009 -0.04591,-0.01667 -0.06941,-0.02328 -0.02355,-0.0066 -0.04744,-0.01191 -0.07151,-0.01614 -0.02484,-0.0045 -0.04989,-0.0077 -0.07502,-0.0098 -0.02611,-0.0026 -0.05232,-0.0029 -0.07852,-0.0034 -0.02737,1.1e-5 -0.05474,0.0026 -0.08203,0.0034 -0.0263,0.0026 -0.05253,0.0053 -0.07852,0.0098 -0.02526,0.0045 -0.05029,0.01005 -0.07502,0.01693 -0.02417,0.0066 -0.04805,0.01429 -0.07152,0.02302 -0.02313,0.0087 -0.04587,0.01852 -0.06801,0.02945 -0.02214,0.01111 -0.04368,0.02328 -0.0645,0.03646 -0.02106,0.01349 -0.04138,0.02802 -0.061,0.04347 -0.01992,0.01561 -0.03911,0.03231 -0.05749,0.04979 -0.01846,0.01746 -0.03609,0.03598 -0.05258,0.05538 -0.01654,0.01931 -0.03193,0.03987 -0.04627,0.06101 -0.01462,0.02143 -0.02814,0.04379 -0.04067,0.0666 -0.01278,0.02328 -0.02454,0.04712 -0.03506,0.07152 -0.01087,0.02514 -0.02043,0.05096 -0.02875,0.07713 -0.0087,0.02723 -0.01599,0.05488 -0.02244,0.08273 -0.0067,0.029 -0.01249,0.05821 -0.01683,0.08763 -0.0046,0.03093 -0.0075,0.0621 -0.01051,0.09331 l -0.314097,6.7e-5 c 0.002,-0.04167 0.0041,-0.08332 0.0084,-0.124777 0.0042,-0.03998 0.01044,-0.07975 0.01823,-0.119195 0.0075,-0.03802 0.01641,-0.07575 0.02734,-0.112898 0.01077,-0.03659 0.02349,-0.0726 0.03786,-0.10795 0.01407,-0.03461 0.02971,-0.06855 0.04698,-0.101679 0.01729,-0.03318 0.03621,-0.06551 0.05679,-0.09676 0.02061,-0.03127 0.04289,-0.06144 0.06661,-0.09043 0.02411,-0.02947 0.04969,-0.0577 0.07642,-0.08482 0.0266,-0.02699 0.05434,-0.05286 0.08343,-0.07713 0.02847,-0.02381 0.05824,-0.04599 0.08904,-0.06662 0.03015,-0.02011 0.06129,-0.03889 0.09325,-0.05609 0.03168,-0.01693 0.06417,-0.03265 0.09746,-0.04628 0.03366,-0.01376 0.06814,-0.02566 0.103065,-0.03575 0.03533,-0.01032 0.07112,-0.01905 0.107271,-0.02593 0.03709,-0.0071 0.07457,-0.01244 0.11218,-0.01535 0.03893,-0.0032 0.07801,-0.004 0.117093,-0.005 0.03839,3e-6 0.07677,0.0026 0.114991,0.005 0.03689,0.0029 0.07364,0.0079 0.110076,0.01482 0.03493,0.0063 0.06958,0.01429 0.103766,0.02381 0.03353,0.0095 0.06661,0.02037 0.09886,0.03365 0.03167,0.01296 0.06254,0.02775 0.09255,0.04416 0.02984,0.0164 0.05882,0.03416 0.08694,0.05329 0.02842,0.01931 0.05596,0.04003 0.08203,0.06242 0.02659,0.02275 0.05164,0.04741 0.07572,0.07292 0.02403,0.0254 0.04709,0.05175 0.06871,0.07922 0.02094,0.02659 0.04053,0.05427 0.05889,0.08273 0.01807,0.02799 0.03495,0.05675 0.05048,0.08623 0.01526,0.02897 0.02923,0.05866 0.04137,0.08906 0.01217,0.03048 0.02249,0.06167 0.03155,0.09324 0.0092,0.03188 0.01702,0.06416 0.02314,0.09676 0.0062,0.03291 0.01059,0.06617 0.01332,0.09956 0.0028,0.0345 0.0039,0.06914 0.0049,0.103687 -0.0017,0.04866 -0.0034,0.09739 -0.0091,0.145728 z m -5.285772,0.877809 v 0.358986 h -1.346154 v -0.358986 z m -8.858673,0.870796 c -0.0325,-0.04487 -0.06252,-0.0916 -0.09044,-0.139515 -0.02766,-0.04744 -0.05326,-0.09607 -0.07642,-0.145838 -0.02322,-0.0499 -0.04398,-0.100965 -0.0624,-0.15285 -0.01856,-0.05228 -0.03475,-0.105383 -0.04838,-0.159147 -0.0139,-0.05482 -0.02515,-0.110331 -0.03435,-0.166158 -0.0094,-0.0572 -0.01672,-0.11475 -0.02103,-0.172482 -0.0045,-0.05969 -0.0057,-0.119591 -0.007,-0.179493 0.0016,-0.06294 0.0031,-0.125915 0.0084,-0.188595 0.0051,-0.06064 0.01377,-0.121047 0.02524,-0.180896 0.01119,-0.05839 0.02508,-0.116231 0.04207,-0.173169 0.01674,-0.05612 0.03647,-0.111364 0.05889,-0.165471 0.0223,-0.05382 0.04725,-0.106548 0.07502,-0.157744 0.02812,-0.05186 0.05913,-0.10213 0.09255,-0.15076 0.03383,-0.04921 0.07013,-0.09671 0.108674,-0.142319 0.03982,-0.04712 0.08204,-0.09223 0.126202,-0.135308 0.04433,-0.04326 0.09062,-0.08451 0.138822,-0.123402 0.04702,-0.03797 0.09585,-0.07369 0.146535,-0.106574 0.05025,-0.0326 0.102326,-0.06239 0.155649,-0.08975 0.05345,-0.02741 0.108166,-0.05233 0.164062,-0.07432 0.05642,-0.02223 0.114049,-0.04133 0.172476,-0.05749 0.05958,-0.0164 0.119997,-0.02987 0.18089,-0.04067 0.06292,-0.01111 0.126352,-0.01958 0.190003,-0.02461 0.06575,-0.0053 0.131733,-0.0069 0.197723,-0.0084 0.04022,8.6e-5 0.08044,8.6e-5 0.1206,0.003 0.03934,0.0026 0.07862,0.005 0.117788,0.009 0.03823,0.0042 0.07634,0.0093 0.114283,0.01535 0.03733,0.0061 0.0745,0.01323 0.111478,0.02117 0.03648,0.0079 0.07277,0.01667 0.108674,0.02664 0.03565,0.01005 0.07091,0.02143 0.10587,0.03365 0.0347,0.01217 0.0691,0.02513 0.103064,0.03926 0.03363,0.01402 0.06684,0.02892 0.09956,0.04487 0.03251,0.01587 0.06454,0.03273 0.09605,0.05048 0.03115,0.01746 0.0618,0.03601 0.09185,0.0554 0.0298,0.01931 0.05901,0.03934 0.08764,0.06027 0.02823,0.02064 0.0559,0.0421 0.08273,0.06451 0.02692,0.02249 0.05301,0.04601 0.07853,0.07012 0.02548,0.02408 0.05039,0.04874 0.07432,0.07432 0.0241,0.02593 0.0472,0.05252 0.06941,0.07993 0.02233,0.02757 0.04377,0.05585 0.06521,0.08412 l -0.274843,0.210324 c -0.01961,-0.02328 -0.03921,-0.04675 -0.0596,-0.06943 -0.02011,-0.02249 -0.04098,-0.04408 -0.0624,-0.06519 -0.0212,-0.0209 -0.04294,-0.04125 -0.0652,-0.06101 -0.02209,-0.01958 -0.04469,-0.03866 -0.06801,-0.05678 -0.02325,-0.01799 -0.0472,-0.03524 -0.07151,-0.05188 -0.02413,-0.0164 -0.04862,-0.03252 -0.07362,-0.04768 -0.02524,-0.01535 -0.051,-0.02974 -0.07712,-0.04347 -0.02628,-0.01376 -0.05293,-0.02691 -0.07993,-0.03926 -0.05432,-0.02487 -0.110063,-0.0467 -0.166867,-0.06519 -0.05727,-0.01852 -0.115607,-0.03389 -0.174579,-0.04627 -0.06022,-0.0127 -0.1211,-0.02223 -0.182292,-0.02805 -0.06334,-0.0058 -0.127024,-0.0074 -0.190706,-0.0091 -0.03508,-7.1e-5 -0.07017,-7.1e-5 -0.105169,0.0028 -0.03468,0.0026 -0.06927,0.0056 -0.103766,0.0098 -0.03403,0.0042 -0.06796,0.0093 -0.101663,0.01535 -0.03318,0.0061 -0.06615,0.01349 -0.09886,0.0217 -0.03299,0.0085 -0.06571,0.01773 -0.09816,0.02805 -0.03214,0.01005 -0.064,0.02117 -0.09535,0.03365 -0.03154,0.01244 -0.06256,0.02619 -0.09325,0.04067 -0.03103,0.01455 -0.06172,0.02992 -0.09185,0.04628 -0.03001,0.0164 -0.05948,0.0336 -0.08834,0.05188 -0.02816,0.01773 -0.05576,0.03651 -0.08273,0.05609 -0.02657,0.01931 -0.05254,0.03934 -0.07782,0.0603 -0.025,0.02064 -0.04932,0.0422 -0.07292,0.06448 -0.02344,0.02222 -0.04616,0.04503 -0.06801,0.06871 -0.02169,0.02355 -0.04251,0.04786 -0.0624,0.07292 -0.02005,0.0254 -0.03916,0.05128 -0.05749,0.07784 -0.01835,0.02656 -0.03592,0.05366 -0.05258,0.08133 -0.01669,0.02768 -0.03247,0.05593 -0.04698,0.08483 -0.01441,0.02868 -0.02757,0.058 -0.03996,0.08763 -0.01237,0.02958 -0.02397,0.05945 -0.03435,0.08975 -0.01052,0.03072 -0.01978,0.06186 -0.02804,0.09327 -0.0083,0.03154 -0.0156,0.06332 -0.02174,0.09533 -0.0062,0.03231 -0.0112,0.06482 -0.01543,0.09747 -0.0043,0.03355 -0.0078,0.0672 -0.0098,0.100965 -0.002,0.03429 -0.0024,0.06869 -0.0028,0.103073 0.0013,0.05175 0.0025,0.10347 0.007,0.154958 0.0043,0.04961 0.01164,0.09898 0.02103,0.147955 0.0092,0.04776 0.0203,0.09512 0.03435,0.141605 0.01382,0.04572 0.03046,0.09059 0.04908,0.13462 0.01862,0.04405 0.03921,0.08726 0.0624,0.129011 0.02335,0.04207 0.04935,0.08268 0.07712,0.121999 0.02826,0.04001 0.05837,0.07869 0.09044,0.115676 0.03292,0.03799 0.06791,0.07416 0.104467,0.108691 0.03677,0.03471 0.07512,0.06773 0.114984,0.09885 0.03943,0.03077 0.08033,0.05969 0.122697,0.08623 0.04194,0.02619 0.08532,0.0503 0.129707,0.07223 0.04459,0.02196 0.0902,0.04202 0.136719,0.05958 0.04731,0.01799 0.09557,0.03329 0.144431,0.04628 0.04994,0.01323 0.100509,0.02408 0.151442,0.03297 0.05273,0.0093 0.105845,0.01614 0.159155,0.02037 0.05525,0.0042 0.110708,0.0053 0.166179,0.0063 0.06111,-0.0026 0.122218,-0.0034 0.183006,-0.0093 0.05886,-0.0056 0.117418,-0.01482 0.17528,-0.02733 0.05664,-0.01217 0.112612,-0.02733 0.167568,-0.04559 0.05468,-0.01826 0.108347,-0.03942 0.160557,-0.06379 0.05223,-0.02434 0.103006,-0.05188 0.152144,-0.08205 0.05015,-0.03074 0.09859,-0.06424 0.145132,-0.100251 0.04774,-0.03691 0.09348,-0.07646 0.136718,-0.118481 0.04504,-0.04379 0.08738,-0.09025 0.129708,-0.136649 l 0.27484,0.208342 c -0.02212,0.02852 -0.04424,0.05707 -0.06731,0.08482 -0.02296,0.02762 -0.04687,0.05448 -0.07151,0.08062 -0.02426,0.02566 -0.04925,0.0508 -0.07502,0.07504 -0.0257,0.02408 -0.05218,0.04747 -0.07923,0.07011 -0.02718,0.02275 -0.05493,0.04485 -0.08343,0.06591 -0.02852,0.02117 -0.0578,0.04112 -0.08764,0.0603 -0.03008,0.01931 -0.06073,0.03776 -0.09185,0.05538 -0.0313,0.01773 -0.06308,0.03458 -0.09535,0.05048 -0.03247,0.01588 -0.06544,0.03098 -0.09886,0.04487 -0.03348,0.01402 -0.06741,0.0267 -0.101663,0.03855 -0.03451,0.01191 -0.06934,0.02302 -0.104467,0.03297 -0.03571,0.01005 -0.07173,0.01932 -0.107973,0.02733 -0.03647,0.0082 -0.07318,0.01508 -0.110076,0.02117 -0.03771,0.0061 -0.0756,0.01085 -0.113582,0.01482 -0.03848,0.004 -0.07706,0.0071 -0.115685,0.009 -0.03969,0.0026 -0.07944,0.0026 -0.119191,0.0028 -0.03764,-3.7e-4 -0.07529,-1.05e-4 -0.11288,-0.0027 -0.03674,-0.0026 -0.07344,-0.0045 -0.110076,-0.0077 -0.03561,-0.0032 -0.07116,-0.0071 -0.106571,-0.01191 -0.03471,-0.0048 -0.06929,-0.01058 -0.103766,-0.01693 -0.03382,-0.0063 -0.06754,-0.01296 -0.100962,-0.02117 -0.03274,-0.0079 -0.06519,-0.01693 -0.09745,-0.02664 -0.03179,-0.0095 -0.06339,-0.01984 -0.09465,-0.03085 -0.03095,-0.01111 -0.06158,-0.02302 -0.09185,-0.03577 -0.03006,-0.0127 -0.05978,-0.02619 -0.08904,-0.04067 -0.02897,-0.01429 -0.0575,-0.0295 -0.08554,-0.04556 -0.02804,-0.01614 -0.05559,-0.03294 -0.08273,-0.05048 -0.02712,-0.01746 -0.05385,-0.03567 -0.07993,-0.05469 -0.0261,-0.01905 -0.05155,-0.03897 -0.07642,-0.05958 -0.02512,-0.0209 -0.04964,-0.04236 -0.07362,-0.06451 -0.02429,-0.02249 -0.04801,-0.04551 -0.07081,-0.06943 -0.02306,-0.02408 -0.04518,-0.04924 -0.06731,-0.07396 -0.03543,-0.04316 -0.07087,-0.08671 -0.103768,-0.132142 z"
       inkscape:connector-curvature="0" />
    <path
       id="path1276"
       style="fill:#000000;fill-opacity:1;stroke:none;stroke-width:0.238125;stroke-linecap:round"
       d="m 58.120128,31.926678 -0.616987,-1.337046 -0.633814,1.337046 z m 7.082032,-1.076934 h 0.340044 l 0.849058,1.862191 0.849059,-1.862191 h 0.340044 l -1.166667,2.557701 h -0.04487 z m 3.185897,2.557701 h -0.314102 v -2.557701 h 0.314102 z m -3.99359,0 v -2.557701 h 0.314103 v 2.557701 z m -1.25641,-3.589734 h 0.314103 v 1.032033 h 0.448718 v 0.314114 H 63.45216 v 2.243587 h -0.314103 v -2.243587 h -0.448718 v -0.314114 h 0.448718 z m -3.993589,3.589734 h -0.341447 l -0.517428,-1.12178 h -1.586638 l -0.532152,1.12178 h -0.342848 l 1.660256,-3.499988 h 0.04487 z m 1.705829,0.03927 c -0.04744,-0.0037 -0.0947,-0.01005 -0.141627,-0.01826 -0.04551,-0.0079 -0.09071,-0.01746 -0.135316,-0.02945 -0.04364,-0.01164 -0.08672,-0.0254 -0.129007,-0.04135 -0.04175,-0.01561 -0.08272,-0.0335 -0.122696,-0.05329 -0.03987,-0.01984 -0.07875,-0.04149 -0.116386,-0.06522 -0.03776,-0.02381 -0.07426,-0.04958 -0.109375,-0.07713 -0.03574,-0.02802 -0.07005,-0.05784 -0.103065,-0.08903 -0.03282,-0.03101 -0.06436,-0.06339 -0.09395,-0.09745 -0.0286,-0.03294 -0.05537,-0.06747 -0.08063,-0.103082 -0.02459,-0.03466 -0.04774,-0.07033 -0.06871,-0.107262 -0.02075,-0.03654 -0.03936,-0.07429 -0.05609,-0.112871 -0.01678,-0.03871 -0.03168,-0.07824 -0.04417,-0.118507 -0.01249,-0.04027 -0.02258,-0.08131 -0.03085,-0.122687 -0.0085,-0.04244 -0.01504,-0.08528 -0.01893,-0.128297 -0.004,-0.04426 -0.0052,-0.08874 -0.0063,-0.133204 4.44e-4,-0.03018 8.68e-4,-0.06037 0.0028,-0.09045 0.0019,-0.02977 0.0053,-0.05943 0.0091,-0.08903 0.0038,-0.02937 0.0082,-0.05866 0.01402,-0.08763 0.0058,-0.02879 0.01314,-0.05726 0.02103,-0.08554 0.0079,-0.02828 0.01634,-0.05641 0.02594,-0.08414 0.0097,-0.02797 0.02053,-0.05556 0.03225,-0.08274 0.01176,-0.02728 0.02441,-0.05416 0.03786,-0.08065 0.01364,-0.02686 0.0281,-0.05329 0.04347,-0.07922 0.01544,-0.02593 0.0318,-0.05157 0.04908,-0.07641 0.01697,-0.02434 0.03483,-0.04821 0.05329,-0.07152 0.01843,-0.02328 0.03746,-0.04612 0.05749,-0.06803 0.01996,-0.0217 0.04093,-0.04273 0.0624,-0.0631 0.02139,-0.02037 0.04328,-0.04001 0.06591,-0.0589 0.0229,-0.01905 0.04655,-0.03731 0.07081,-0.05466 0.02468,-0.01773 0.04998,-0.03442 0.07572,-0.05048 0.02595,-0.01614 0.05235,-0.0317 0.07923,-0.04627 0.0271,-0.01482 0.0547,-0.02855 0.08273,-0.04138 0.0281,-0.01297 0.05665,-0.02461 0.08554,-0.03574 0.02888,-0.01111 0.0581,-0.02117 0.08764,-0.03016 0.02987,-0.009 0.06007,-0.0172 0.09045,-0.02461 0.03066,-0.0074 0.06149,-0.01429 0.09255,-0.01958 0.03137,-0.0056 0.06298,-0.0098 0.09465,-0.01323 0.03241,-0.0037 0.0649,-0.0066 0.09746,-0.0085 0.03338,-0.0026 0.06682,-0.0026 0.100265,-0.0028 0.04189,5.5e-5 0.08376,0.0027 0.125506,0.0051 0.04153,0.0032 0.08293,0.0082 0.124099,0.01482 0.04073,0.0063 0.08124,0.01429 0.121294,0.02381 0.0402,0.0098 0.07994,0.02143 0.11919,0.03437 0.03833,0.0127 0.0762,0.02678 0.113582,0.04207 0.03564,0.01455 0.07084,0.03024 0.105168,0.04768 0.03257,0.01667 0.06435,0.03463 0.09535,0.05397 0.02982,0.01852 0.05892,0.03839 0.08694,0.05961 0.02751,0.0209 0.05398,0.04307 0.07923,0.0666 0.02551,0.02381 0.04978,0.0489 0.07292,0.07501 0.02383,0.02691 0.04647,0.0549 0.06731,0.08414 0.02136,0.02998 0.04083,0.06128 0.06029,0.09247 l -0.262926,0.163272 c -0.02883,-0.03582 -0.05766,-0.07165 -0.08904,-0.105145 -0.03039,-0.03246 -0.06317,-0.06273 -0.09746,-0.09115 -0.03336,-0.02768 -0.06815,-0.05355 -0.104468,-0.07713 -0.036,-0.02328 -0.0735,-0.04448 -0.112179,-0.0631 -0.03913,-0.01879 -0.07945,-0.03522 -0.120593,-0.04908 -0.04203,-0.01429 -0.08492,-0.02566 -0.128305,-0.03506 -0.04467,-0.0095 -0.08988,-0.01667 -0.135317,-0.02117 -0.04774,-0.0045 -0.09574,-0.0058 -0.143729,-0.0069 -0.03836,1.4e-5 -0.07672,0.0026 -0.114983,0.005 -0.0371,0.0026 -0.07411,0.0071 -0.110777,0.01323 -0.03539,0.0061 -0.07046,0.01402 -0.105168,0.02302 -0.03388,0.009 -0.06741,0.01931 -0.100261,0.03157 -0.03249,0.01217 -0.06431,0.02593 -0.09535,0.04135 -0.03093,0.01534 -0.06109,0.03228 -0.09045,0.05048 -0.02943,0.01826 -0.05806,0.03784 -0.08554,0.0589 -0.02803,0.02143 -0.05485,0.04456 -0.08063,0.06871 -0.02546,0.02381 -0.04989,0.04884 -0.07292,0.07504 -0.02229,0.0254 -0.04327,0.05186 -0.0631,0.07922 -0.01934,0.02667 -0.0376,0.05416 -0.05399,0.08273 -0.01612,0.0281 -0.03044,0.05723 -0.04347,0.08694 -0.01297,0.02955 -0.02468,0.05969 -0.03435,0.09043 -0.0098,0.03103 -0.01746,0.06271 -0.02384,0.09464 -0.0065,0.03273 -0.01168,0.06572 -0.01472,0.09888 -0.0031,0.034 -0.004,0.06818 -0.0049,0.102419 0.0018,0.04482 0.0036,0.08959 0.0091,0.133959 0.0055,0.04379 0.01464,0.08718 0.02664,0.129699 0.01214,0.04305 0.0272,0.08517 0.04487,0.126206 0.01808,0.04199 0.0389,0.08279 0.0624,0.121999 0.02358,0.03934 0.04987,0.07705 0.07853,0.112872 0.02833,0.03543 0.05898,0.069 0.09185,0.100277 0.03274,0.03114 0.06769,0.05998 0.104467,0.08623 0.03777,0.02696 0.07747,0.0512 0.118489,0.07292 0.04173,0.02196 0.08483,0.04159 0.129007,0.05821 0.04438,0.01667 0.08986,0.0304 0.136018,0.04135 0.04734,0.01138 0.09539,0.01958 0.143729,0.02461 0.05028,0.0053 0.100861,0.0069 0.151449,0.0084 0.04636,-8.5e-5 0.09272,-0.0027 0.138828,-0.007 0.04451,-0.0042 0.08879,-0.01138 0.132512,-0.02117 0.04246,-0.0093 0.08438,-0.0209 0.1255,-0.03506 0.04088,-0.01402 0.08095,-0.03032 0.119892,-0.04905 0.03887,-0.01879 0.07661,-0.03979 0.112881,-0.0631 0.03673,-0.02355 0.07195,-0.04956 0.105869,-0.07713 0.03508,-0.02852 0.06877,-0.05879 0.100261,-0.09115 0.03266,-0.03358 0.06296,-0.06937 0.09325,-0.10516 l 0.262919,0.172495 c -0.01559,0.02275 -0.03117,0.04577 -0.04768,0.068 -0.01645,0.02222 -0.0338,0.04366 -0.05188,0.06451 -0.01799,0.02064 -0.0367,0.04085 -0.05609,0.0603 -0.01927,0.01931 -0.0392,0.03797 -0.0596,0.05609 -0.02047,0.01826 -0.04141,0.03588 -0.0631,0.05257 -0.02204,0.01693 -0.04484,0.03297 -0.06801,0.04839 -0.02343,0.01561 -0.04723,0.03064 -0.07151,0.04487 -0.02455,0.01429 -0.0496,0.02789 -0.07502,0.04067 -0.02579,0.01297 -0.05197,0.02514 -0.07853,0.03646 -0.02676,0.01138 -0.05391,0.02196 -0.08133,0.03154 -0.02753,0.0098 -0.05535,0.01879 -0.08343,0.02664 -0.02874,0.0082 -0.05775,0.01535 -0.08694,0.0217 -0.02952,0.0063 -0.0592,0.01217 -0.08904,0.01693 -0.03072,0.0048 -0.06161,0.0087 -0.09255,0.01191 -0.03149,0.0034 -0.06304,0.0061 -0.09465,0.0077 -0.03245,0.0026 -0.06495,0.0026 -0.09746,0.0023 -0.04961,-2.71e-4 -0.09922,-0.0029 -0.148635,-0.0059 z m 3.758009,-3.668881 c 0.01841,0.0029 0.03656,0.0079 0.05399,0.01482 0.01738,0.0066 0.03405,0.01535 0.04978,0.02513 0.01593,0.01005 0.03088,0.0217 0.04487,0.03434 0.01388,0.0127 0.0268,0.02619 0.03786,0.04138 0.01053,0.01429 0.01937,0.02995 0.02664,0.04628 0.0071,0.01588 0.01276,0.03268 0.01613,0.04977 0.0035,0.01773 0.0046,0.03585 0.0056,0.05393 -0.0011,0.01769 -0.0022,0.03531 -0.0056,0.05256 -0.0034,0.01693 -0.009,0.03334 -0.01613,0.04908 -0.0073,0.01614 -0.01618,0.03141 -0.02664,0.04556 -0.01111,0.01508 -0.02399,0.02876 -0.03786,0.04138 -0.01397,0.0127 -0.02894,0.02434 -0.04487,0.03434 -0.01573,0.01005 -0.0324,0.01852 -0.04978,0.02514 -0.01743,0.0069 -0.03558,0.01164 -0.05399,0.01482 -0.01921,0.0032 -0.0387,0.004 -0.05819,0.005 -0.01928,-4.1e-5 -0.03854,-0.0026 -0.0575,-0.005 -0.01794,-0.0029 -0.0356,-0.0079 -0.05259,-0.01482 -0.01736,-0.0069 -0.03402,-0.01535 -0.04978,-0.02514 -0.01595,-0.01005 -0.03099,-0.0217 -0.04487,-0.03434 -0.01366,-0.0127 -0.02622,-0.02646 -0.03716,-0.04138 -0.01039,-0.01429 -0.01933,-0.0295 -0.02664,-0.04556 -0.0072,-0.01587 -0.01277,-0.03223 -0.01613,-0.04908 -0.0034,-0.0172 -0.0045,-0.03493 -0.0056,-0.05256 0.0011,-0.01795 0.0021,-0.03621 0.0056,-0.05394 0.0034,-0.0172 0.009,-0.03379 0.01613,-0.04977 0.0073,-0.0164 0.01618,-0.03188 0.02664,-0.04628 0.01089,-0.01508 0.02348,-0.02881 0.03716,-0.04138 0.0139,-0.0127 0.02892,-0.02434 0.04487,-0.03434 0.01575,-0.01005 0.03242,-0.01852 0.04978,-0.02514 0.01699,-0.0066 0.03465,-0.01164 0.05258,-0.01482 0.01895,-0.0032 0.03822,-0.004 0.0575,-0.005 0.0195,4.7e-5 0.03899,0.0026 0.0582,0.005 z m 5.619495,1.386021 h -0.448718 v 2.243587 H 69.46498 v -2.243587 h -0.448718 v -0.314114 h 0.448718 v -1.032033 h 0.314103 v 1.032033 h 0.448718 z m -1.940007,-1.386021 c 0.01841,0.0029 0.03656,0.0079 0.05399,0.01482 0.01738,0.0066 0.03405,0.01535 0.04978,0.02513 0.01592,0.01005 0.03088,0.0217 0.04487,0.03434 0.01388,0.0127 0.0268,0.02619 0.03786,0.04138 0.01053,0.01429 0.01937,0.02995 0.02664,0.04628 0.0071,0.01588 0.01276,0.03268 0.01613,0.04977 0.0035,0.01773 0.0046,0.03585 0.0056,0.05393 -0.0011,0.01769 -0.0022,0.03531 -0.0056,0.05256 -0.0034,0.01693 -0.009,0.03334 -0.01613,0.04908 -0.0073,0.01614 -0.01618,0.03141 -0.02664,0.04556 -0.01111,0.01508 -0.02399,0.02876 -0.03786,0.04138 -0.01397,0.0127 -0.02894,0.02434 -0.04487,0.03434 -0.01573,0.01005 -0.0324,0.01852 -0.04978,0.02514 -0.01743,0.0069 -0.03558,0.01164 -0.05399,0.01482 -0.01921,0.0032 -0.0387,0.004 -0.05819,0.005 -0.01927,-4.1e-5 -0.03854,-0.0026 -0.05749,-0.005 -0.01794,-0.0029 -0.0356,-0.0079 -0.05258,-0.01482 -0.01736,-0.0069 -0.03402,-0.01535 -0.04978,-0.02514 -0.01596,-0.01005 -0.03099,-0.0217 -0.04487,-0.03434 -0.01366,-0.0127 -0.02622,-0.02646 -0.03716,-0.04138 -0.01039,-0.01429 -0.01933,-0.0295 -0.02664,-0.04556 -0.0072,-0.01587 -0.01277,-0.03223 -0.01613,-0.04908 -0.0034,-0.0172 -0.0045,-0.03493 -0.0056,-0.05256 0.0011,-0.01795 0.0021,-0.03621 0.0056,-0.05394 0.0034,-0.0172 0.009,-0.03379 0.01613,-0.04977 0.0073,-0.0164 0.01618,-0.03188 0.02664,-0.04628 0.01089,-0.01508 0.02348,-0.02881 0.03716,-0.04138 0.0139,-0.0127 0.02892,-0.02434 0.04487,-0.03434 0.01575,-0.01005 0.03242,-0.01852 0.04978,-0.02514 0.01699,-0.0066 0.03465,-0.01164 0.05258,-0.01482 0.01896,-0.0032 0.03822,-0.004 0.0575,-0.005 0.0195,4.7e-5 0.03899,0.0026 0.0582,0.005 z m 3.243392,3.411565 -1.034154,-2.339658 h 0.338641 l 0.865886,1.958949 0.879207,-1.958949 h 0.339342 l -1.570512,3.500014 h -0.339343 z"
       inkscape:connector-curvature="0" />
  </g>
</svg>
