G04 EAGLE Gerber RS-274X export*
G75*
%MOIN*%
%FSLAX24Y24*%
%LPD*%
%INBottom Layer*%
%IPPOS*%
%AMOC8*
5,1,8,0,0,1.08239X$1,22.5*%
G01*
%ADD10P,0.071438X8X22.500000*%
%ADD11P,0.075767X8X292.500000*%
%ADD12C,0.052000*%
%ADD13C,0.060000*%
%ADD14P,0.071438X8X292.500000*%
%ADD15P,0.056284X8X22.500000*%
%ADD16C,0.051496*%
%ADD17C,0.040000*%

G36*
X26000Y0D02*
X26000Y0D01*
X26000Y1000D01*
X27000Y2000D01*
X27000Y14900D01*
X26000Y15900D01*
X26000Y20400D01*
X25400Y21000D01*
X0Y21000D01*
X0Y17700D01*
X3800Y17700D01*
X3800Y12300D01*
X0Y12300D01*
X0Y5200D01*
X5000Y5200D01*
X5000Y1391D01*
X5143Y1534D01*
X5375Y1630D01*
X5625Y1630D01*
X5857Y1534D01*
X6034Y1357D01*
X6130Y1125D01*
X6130Y875D01*
X6034Y643D01*
X5857Y466D01*
X5625Y370D01*
X5375Y370D01*
X5143Y466D01*
X4966Y643D01*
X4870Y875D01*
X4870Y1125D01*
X4943Y1300D01*
X4942Y1300D01*
X0Y1300D01*
X0Y0D01*
X26000Y0D01*
X26000Y0D01*
G37*
%LPC*%
G36*
X13925Y1925D02*
X13925Y1925D01*
X13787Y1982D01*
X13682Y2087D01*
X13625Y2225D01*
X13625Y2375D01*
X13682Y2513D01*
X13787Y2618D01*
X13925Y2675D01*
X13926Y2675D01*
X15720Y4470D01*
X15837Y4518D01*
X24668Y4518D01*
X25382Y5232D01*
X25382Y10668D01*
X22130Y13920D01*
X22082Y14037D01*
X22082Y15156D01*
X21932Y15306D01*
X21932Y15694D01*
X22206Y15968D01*
X22594Y15968D01*
X22868Y15694D01*
X22868Y15306D01*
X22718Y15156D01*
X22718Y14232D01*
X25970Y10980D01*
X26018Y10863D01*
X26018Y5037D01*
X25970Y4920D01*
X24980Y3930D01*
X24863Y3882D01*
X16032Y3882D01*
X14375Y2226D01*
X14375Y2225D01*
X14318Y2087D01*
X14213Y1982D01*
X14075Y1925D01*
X13925Y1925D01*
G37*
%LPD*%
%LPC*%
G36*
X23206Y5032D02*
X23206Y5032D01*
X22932Y5306D01*
X22932Y5694D01*
X23082Y5844D01*
X23082Y11268D01*
X20568Y13782D01*
X16737Y13782D01*
X16620Y13830D01*
X14130Y16320D01*
X14082Y16437D01*
X14082Y18087D01*
X14025Y18225D01*
X14025Y18375D01*
X14082Y18513D01*
X14187Y18618D01*
X14325Y18675D01*
X14475Y18675D01*
X14613Y18618D01*
X14718Y18513D01*
X14775Y18375D01*
X14775Y18225D01*
X14718Y18087D01*
X14718Y16632D01*
X16932Y14418D01*
X20763Y14418D01*
X20880Y14370D01*
X23670Y11580D01*
X23718Y11463D01*
X23718Y5844D01*
X23868Y5694D01*
X23868Y5306D01*
X23594Y5032D01*
X23206Y5032D01*
G37*
%LPD*%
%LPC*%
G36*
X21206Y5032D02*
X21206Y5032D01*
X20932Y5306D01*
X20932Y5694D01*
X21082Y5844D01*
X21082Y10468D01*
X19768Y11782D01*
X15937Y11782D01*
X15820Y11830D01*
X12130Y15520D01*
X12082Y15637D01*
X12082Y18087D01*
X12025Y18225D01*
X12025Y18375D01*
X12082Y18513D01*
X12187Y18618D01*
X12325Y18675D01*
X12475Y18675D01*
X12613Y18618D01*
X12718Y18513D01*
X12775Y18375D01*
X12775Y18225D01*
X12718Y18087D01*
X12718Y15832D01*
X16132Y12418D01*
X19963Y12418D01*
X20080Y12370D01*
X21670Y10780D01*
X21718Y10663D01*
X21718Y5844D01*
X21868Y5694D01*
X21868Y5306D01*
X21594Y5032D01*
X21206Y5032D01*
G37*
%LPD*%
%LPC*%
G36*
X20206Y5032D02*
X20206Y5032D01*
X19932Y5306D01*
X19932Y5694D01*
X20082Y5844D01*
X20082Y10068D01*
X19368Y10782D01*
X15537Y10782D01*
X15420Y10830D01*
X11130Y15120D01*
X11082Y15237D01*
X11082Y18087D01*
X11025Y18225D01*
X11025Y18375D01*
X11082Y18513D01*
X11187Y18618D01*
X11325Y18675D01*
X11475Y18675D01*
X11613Y18618D01*
X11718Y18513D01*
X11775Y18375D01*
X11775Y18225D01*
X11718Y18087D01*
X11718Y15432D01*
X15732Y11418D01*
X19563Y11418D01*
X19680Y11370D01*
X20670Y10380D01*
X20718Y10263D01*
X20718Y5844D01*
X20868Y5694D01*
X20868Y5306D01*
X20594Y5032D01*
X20206Y5032D01*
G37*
%LPD*%
%LPC*%
G36*
X22206Y5032D02*
X22206Y5032D01*
X21932Y5306D01*
X21932Y5694D01*
X22082Y5844D01*
X22082Y10868D01*
X20168Y12782D01*
X16337Y12782D01*
X16220Y12830D01*
X16130Y12920D01*
X13220Y15830D01*
X13130Y15920D01*
X13082Y16037D01*
X13082Y18087D01*
X13025Y18225D01*
X13025Y18375D01*
X13082Y18513D01*
X13187Y18618D01*
X13325Y18675D01*
X13475Y18675D01*
X13613Y18618D01*
X13718Y18513D01*
X13775Y18375D01*
X13775Y18225D01*
X13718Y18087D01*
X13718Y16232D01*
X16532Y13418D01*
X20363Y13418D01*
X20480Y13370D01*
X22670Y11180D01*
X22718Y11063D01*
X22718Y5844D01*
X22868Y5694D01*
X22868Y5306D01*
X22594Y5032D01*
X22206Y5032D01*
G37*
%LPD*%
%LPC*%
G36*
X15925Y4725D02*
X15925Y4725D01*
X15787Y4782D01*
X15682Y4887D01*
X15625Y5025D01*
X15625Y5175D01*
X15682Y5313D01*
X15682Y5768D01*
X14468Y6982D01*
X2273Y6982D01*
X2237Y6946D01*
X2083Y6882D01*
X1317Y6882D01*
X1163Y6946D01*
X1046Y7063D01*
X982Y7217D01*
X982Y7383D01*
X1046Y7537D01*
X1163Y7654D01*
X1317Y7718D01*
X2083Y7718D01*
X2237Y7654D01*
X2273Y7618D01*
X14663Y7618D01*
X14780Y7570D01*
X16270Y6080D01*
X16318Y5963D01*
X16318Y5313D01*
X16375Y5175D01*
X16375Y5025D01*
X16318Y4887D01*
X16213Y4782D01*
X16075Y4725D01*
X15925Y4725D01*
G37*
%LPD*%
%LPC*%
G36*
X21206Y15032D02*
X21206Y15032D01*
X20932Y15306D01*
X20932Y15694D01*
X21082Y15844D01*
X21082Y17268D01*
X20768Y17582D01*
X15737Y17582D01*
X15620Y17630D01*
X15326Y17925D01*
X15325Y17925D01*
X15187Y17982D01*
X15082Y18087D01*
X15025Y18225D01*
X15025Y18375D01*
X15082Y18513D01*
X15187Y18618D01*
X15325Y18675D01*
X15475Y18675D01*
X15613Y18618D01*
X15718Y18513D01*
X15775Y18375D01*
X15775Y18374D01*
X15932Y18218D01*
X20963Y18218D01*
X21080Y18170D01*
X21670Y17580D01*
X21718Y17463D01*
X21718Y15844D01*
X21868Y15694D01*
X21868Y15306D01*
X21594Y15032D01*
X21206Y15032D01*
G37*
%LPD*%
%LPC*%
G36*
X8314Y2852D02*
X8314Y2852D01*
X8052Y3114D01*
X8052Y3486D01*
X8314Y3748D01*
X8686Y3748D01*
X8815Y3618D01*
X8816Y3618D01*
X13183Y3618D01*
X13184Y3618D01*
X13243Y3678D01*
X13557Y3678D01*
X13778Y3457D01*
X13778Y3143D01*
X13557Y2922D01*
X13243Y2922D01*
X13184Y2982D01*
X13183Y2982D01*
X8816Y2982D01*
X8815Y2982D01*
X8686Y2852D01*
X8314Y2852D01*
G37*
%LPD*%
%LPC*%
G36*
X5365Y16322D02*
X5365Y16322D01*
X5226Y16380D01*
X5120Y16486D01*
X5062Y16625D01*
X5062Y16775D01*
X5120Y16914D01*
X5226Y17020D01*
X5365Y17078D01*
X6035Y17078D01*
X6174Y17020D01*
X6176Y17018D01*
X6177Y17018D01*
X9587Y17018D01*
X9725Y17075D01*
X9875Y17075D01*
X10013Y17018D01*
X10118Y16913D01*
X10175Y16775D01*
X10175Y16625D01*
X10118Y16487D01*
X10013Y16382D01*
X9875Y16325D01*
X9725Y16325D01*
X9587Y16382D01*
X6177Y16382D01*
X6176Y16382D01*
X6174Y16380D01*
X6035Y16322D01*
X5365Y16322D01*
G37*
%LPD*%
%LPC*%
G36*
X1317Y9882D02*
X1317Y9882D01*
X1163Y9946D01*
X1046Y10063D01*
X982Y10217D01*
X982Y10383D01*
X1046Y10537D01*
X1163Y10654D01*
X1317Y10718D01*
X2083Y10718D01*
X2237Y10654D01*
X2273Y10618D01*
X3187Y10618D01*
X3325Y10675D01*
X3475Y10675D01*
X3613Y10618D01*
X3718Y10513D01*
X3775Y10375D01*
X3775Y10225D01*
X3718Y10087D01*
X3613Y9982D01*
X3475Y9925D01*
X3325Y9925D01*
X3187Y9982D01*
X2273Y9982D01*
X2237Y9946D01*
X2083Y9882D01*
X1317Y9882D01*
G37*
%LPD*%
%LPC*%
G36*
X5365Y17322D02*
X5365Y17322D01*
X5226Y17380D01*
X5120Y17486D01*
X5062Y17625D01*
X5062Y17775D01*
X5120Y17914D01*
X5226Y18020D01*
X5365Y18078D01*
X6035Y18078D01*
X6174Y18020D01*
X6176Y18018D01*
X6177Y18018D01*
X6987Y18018D01*
X7125Y18075D01*
X7275Y18075D01*
X7413Y18018D01*
X7518Y17913D01*
X7575Y17775D01*
X7575Y17625D01*
X7518Y17487D01*
X7413Y17382D01*
X7275Y17325D01*
X7125Y17325D01*
X6987Y17382D01*
X6177Y17382D01*
X6176Y17382D01*
X6174Y17380D01*
X6035Y17322D01*
X5365Y17322D01*
G37*
%LPD*%
%LPC*%
G36*
X20206Y15032D02*
X20206Y15032D01*
X19932Y15306D01*
X19932Y15694D01*
X20082Y15844D01*
X20082Y16587D01*
X20025Y16725D01*
X20025Y16875D01*
X20082Y17013D01*
X20187Y17118D01*
X20325Y17175D01*
X20475Y17175D01*
X20613Y17118D01*
X20718Y17013D01*
X20775Y16875D01*
X20775Y16725D01*
X20718Y16587D01*
X20718Y15844D01*
X20868Y15694D01*
X20868Y15306D01*
X20594Y15032D01*
X20206Y15032D01*
G37*
%LPD*%
%LPC*%
G36*
X5875Y19370D02*
X5875Y19370D01*
X5643Y19466D01*
X5466Y19643D01*
X5370Y19875D01*
X5370Y20125D01*
X5466Y20357D01*
X5643Y20534D01*
X5875Y20630D01*
X6125Y20630D01*
X6357Y20534D01*
X6534Y20357D01*
X6630Y20125D01*
X6630Y19875D01*
X6534Y19643D01*
X6357Y19466D01*
X6125Y19370D01*
X5875Y19370D01*
G37*
%LPD*%
%LPC*%
G36*
X25875Y13370D02*
X25875Y13370D01*
X25643Y13466D01*
X25466Y13643D01*
X25370Y13875D01*
X25370Y14125D01*
X25466Y14357D01*
X25643Y14534D01*
X25875Y14630D01*
X26125Y14630D01*
X26357Y14534D01*
X26534Y14357D01*
X26630Y14125D01*
X26630Y13875D01*
X26534Y13643D01*
X26357Y13466D01*
X26125Y13370D01*
X25875Y13370D01*
G37*
%LPD*%
%LPC*%
G36*
X1317Y7882D02*
X1317Y7882D01*
X1163Y7946D01*
X1046Y8063D01*
X982Y8217D01*
X982Y8383D01*
X1046Y8537D01*
X1163Y8654D01*
X1317Y8718D01*
X2083Y8718D01*
X2237Y8654D01*
X2354Y8537D01*
X2418Y8383D01*
X2418Y8217D01*
X2354Y8063D01*
X2237Y7946D01*
X2083Y7882D01*
X1317Y7882D01*
G37*
%LPD*%
%LPC*%
G36*
X5365Y15322D02*
X5365Y15322D01*
X5226Y15380D01*
X5120Y15486D01*
X5062Y15625D01*
X5062Y15775D01*
X5120Y15914D01*
X5226Y16020D01*
X5365Y16078D01*
X6035Y16078D01*
X6174Y16020D01*
X6280Y15914D01*
X6338Y15775D01*
X6338Y15625D01*
X6280Y15486D01*
X6174Y15380D01*
X6035Y15322D01*
X5365Y15322D01*
G37*
%LPD*%
%LPC*%
G36*
X19206Y15032D02*
X19206Y15032D01*
X18932Y15306D01*
X18932Y15694D01*
X19206Y15968D01*
X19594Y15968D01*
X19868Y15694D01*
X19868Y15306D01*
X19594Y15032D01*
X19206Y15032D01*
G37*
%LPD*%
%LPC*%
G36*
X18206Y15032D02*
X18206Y15032D01*
X17932Y15306D01*
X17932Y15694D01*
X18206Y15968D01*
X18594Y15968D01*
X18868Y15694D01*
X18868Y15306D01*
X18594Y15032D01*
X18206Y15032D01*
G37*
%LPD*%
%LPC*%
G36*
X17206Y15032D02*
X17206Y15032D01*
X16932Y15306D01*
X16932Y15694D01*
X17206Y15968D01*
X17594Y15968D01*
X17868Y15694D01*
X17868Y15306D01*
X17594Y15032D01*
X17206Y15032D01*
G37*
%LPD*%
%LPC*%
G36*
X19206Y5032D02*
X19206Y5032D01*
X18932Y5306D01*
X18932Y5694D01*
X19206Y5968D01*
X19594Y5968D01*
X19868Y5694D01*
X19868Y5306D01*
X19594Y5032D01*
X19206Y5032D01*
G37*
%LPD*%
%LPC*%
G36*
X18206Y5032D02*
X18206Y5032D01*
X17932Y5306D01*
X17932Y5694D01*
X18206Y5968D01*
X18594Y5968D01*
X18868Y5694D01*
X18868Y5306D01*
X18594Y5032D01*
X18206Y5032D01*
G37*
%LPD*%
%LPC*%
G36*
X11214Y19552D02*
X11214Y19552D01*
X10952Y19814D01*
X10952Y20186D01*
X11214Y20448D01*
X11586Y20448D01*
X11848Y20186D01*
X11848Y19814D01*
X11586Y19552D01*
X11214Y19552D01*
G37*
%LPD*%
%LPC*%
G36*
X9214Y19552D02*
X9214Y19552D01*
X8952Y19814D01*
X8952Y20186D01*
X9214Y20448D01*
X9586Y20448D01*
X9848Y20186D01*
X9848Y19814D01*
X9586Y19552D01*
X9214Y19552D01*
G37*
%LPD*%
%LPC*%
G36*
X20814Y19552D02*
X20814Y19552D01*
X20552Y19814D01*
X20552Y20186D01*
X20814Y20448D01*
X21186Y20448D01*
X21448Y20186D01*
X21448Y19814D01*
X21186Y19552D01*
X20814Y19552D01*
G37*
%LPD*%
%LPC*%
G36*
X24814Y19552D02*
X24814Y19552D01*
X24552Y19814D01*
X24552Y20186D01*
X24814Y20448D01*
X25186Y20448D01*
X25448Y20186D01*
X25448Y19814D01*
X25186Y19552D01*
X24814Y19552D01*
G37*
%LPD*%
%LPC*%
G36*
X23814Y19552D02*
X23814Y19552D01*
X23552Y19814D01*
X23552Y20186D01*
X23814Y20448D01*
X24186Y20448D01*
X24448Y20186D01*
X24448Y19814D01*
X24186Y19552D01*
X23814Y19552D01*
G37*
%LPD*%
%LPC*%
G36*
X22814Y19552D02*
X22814Y19552D01*
X22552Y19814D01*
X22552Y20186D01*
X22814Y20448D01*
X23186Y20448D01*
X23448Y20186D01*
X23448Y19814D01*
X23186Y19552D01*
X22814Y19552D01*
G37*
%LPD*%
%LPC*%
G36*
X21814Y19552D02*
X21814Y19552D01*
X21552Y19814D01*
X21552Y20186D01*
X21814Y20448D01*
X22186Y20448D01*
X22448Y20186D01*
X22448Y19814D01*
X22186Y19552D01*
X21814Y19552D01*
G37*
%LPD*%
%LPC*%
G36*
X19814Y19552D02*
X19814Y19552D01*
X19552Y19814D01*
X19552Y20186D01*
X19814Y20448D01*
X20186Y20448D01*
X20448Y20186D01*
X20448Y19814D01*
X20186Y19552D01*
X19814Y19552D01*
G37*
%LPD*%
%LPC*%
G36*
X18814Y19552D02*
X18814Y19552D01*
X18552Y19814D01*
X18552Y20186D01*
X18814Y20448D01*
X19186Y20448D01*
X19448Y20186D01*
X19448Y19814D01*
X19186Y19552D01*
X18814Y19552D01*
G37*
%LPD*%
%LPC*%
G36*
X17814Y19552D02*
X17814Y19552D01*
X17552Y19814D01*
X17552Y20186D01*
X17814Y20448D01*
X18186Y20448D01*
X18448Y20186D01*
X18448Y19814D01*
X18186Y19552D01*
X17814Y19552D01*
G37*
%LPD*%
%LPC*%
G36*
X16214Y19552D02*
X16214Y19552D01*
X15952Y19814D01*
X15952Y20186D01*
X16214Y20448D01*
X16586Y20448D01*
X16848Y20186D01*
X16848Y19814D01*
X16586Y19552D01*
X16214Y19552D01*
G37*
%LPD*%
%LPC*%
G36*
X15214Y19552D02*
X15214Y19552D01*
X14952Y19814D01*
X14952Y20186D01*
X15214Y20448D01*
X15586Y20448D01*
X15848Y20186D01*
X15848Y19814D01*
X15586Y19552D01*
X15214Y19552D01*
G37*
%LPD*%
%LPC*%
G36*
X14214Y19552D02*
X14214Y19552D01*
X13952Y19814D01*
X13952Y20186D01*
X14214Y20448D01*
X14586Y20448D01*
X14848Y20186D01*
X14848Y19814D01*
X14586Y19552D01*
X14214Y19552D01*
G37*
%LPD*%
%LPC*%
G36*
X13214Y19552D02*
X13214Y19552D01*
X12952Y19814D01*
X12952Y20186D01*
X13214Y20448D01*
X13586Y20448D01*
X13848Y20186D01*
X13848Y19814D01*
X13586Y19552D01*
X13214Y19552D01*
G37*
%LPD*%
%LPC*%
G36*
X12214Y19552D02*
X12214Y19552D01*
X11952Y19814D01*
X11952Y20186D01*
X12214Y20448D01*
X12586Y20448D01*
X12848Y20186D01*
X12848Y19814D01*
X12586Y19552D01*
X12214Y19552D01*
G37*
%LPD*%
%LPC*%
G36*
X24814Y552D02*
X24814Y552D01*
X24552Y814D01*
X24552Y1186D01*
X24814Y1448D01*
X25186Y1448D01*
X25448Y1186D01*
X25448Y814D01*
X25186Y552D01*
X24814Y552D01*
G37*
%LPD*%
%LPC*%
G36*
X23814Y552D02*
X23814Y552D01*
X23552Y814D01*
X23552Y1186D01*
X23814Y1448D01*
X24186Y1448D01*
X24448Y1186D01*
X24448Y814D01*
X24186Y552D01*
X23814Y552D01*
G37*
%LPD*%
%LPC*%
G36*
X22814Y552D02*
X22814Y552D01*
X22552Y814D01*
X22552Y1186D01*
X22814Y1448D01*
X23186Y1448D01*
X23448Y1186D01*
X23448Y814D01*
X23186Y552D01*
X22814Y552D01*
G37*
%LPD*%
%LPC*%
G36*
X21814Y552D02*
X21814Y552D01*
X21552Y814D01*
X21552Y1186D01*
X21814Y1448D01*
X22186Y1448D01*
X22448Y1186D01*
X22448Y814D01*
X22186Y552D01*
X21814Y552D01*
G37*
%LPD*%
%LPC*%
G36*
X20814Y552D02*
X20814Y552D01*
X20552Y814D01*
X20552Y1186D01*
X20814Y1448D01*
X21186Y1448D01*
X21448Y1186D01*
X21448Y814D01*
X21186Y552D01*
X20814Y552D01*
G37*
%LPD*%
%LPC*%
G36*
X19814Y552D02*
X19814Y552D01*
X19552Y814D01*
X19552Y1186D01*
X19814Y1448D01*
X20186Y1448D01*
X20448Y1186D01*
X20448Y814D01*
X20186Y552D01*
X19814Y552D01*
G37*
%LPD*%
%LPC*%
G36*
X17814Y552D02*
X17814Y552D01*
X17552Y814D01*
X17552Y1186D01*
X17814Y1448D01*
X18186Y1448D01*
X18448Y1186D01*
X18448Y814D01*
X18186Y552D01*
X17814Y552D01*
G37*
%LPD*%
%LPC*%
G36*
X14814Y552D02*
X14814Y552D01*
X14552Y814D01*
X14552Y1186D01*
X14814Y1448D01*
X15186Y1448D01*
X15448Y1186D01*
X15448Y814D01*
X15186Y552D01*
X14814Y552D01*
G37*
%LPD*%
%LPC*%
G36*
X13814Y552D02*
X13814Y552D01*
X13552Y814D01*
X13552Y1186D01*
X13814Y1448D01*
X14186Y1448D01*
X14448Y1186D01*
X14448Y814D01*
X14186Y552D01*
X13814Y552D01*
G37*
%LPD*%
%LPC*%
G36*
X12814Y552D02*
X12814Y552D01*
X12552Y814D01*
X12552Y1186D01*
X12814Y1448D01*
X13186Y1448D01*
X13448Y1186D01*
X13448Y814D01*
X13186Y552D01*
X12814Y552D01*
G37*
%LPD*%
%LPC*%
G36*
X17243Y2922D02*
X17243Y2922D01*
X17022Y3143D01*
X17022Y3457D01*
X17243Y3678D01*
X17557Y3678D01*
X17778Y3457D01*
X17778Y3143D01*
X17557Y2922D01*
X17243Y2922D01*
G37*
%LPD*%
D10*
X21000Y20000D03*
X20000Y1000D03*
X22000Y20000D03*
X23000Y20000D03*
X24000Y20000D03*
X25000Y20000D03*
X20000Y20000D03*
X19000Y20000D03*
X18000Y20000D03*
X16400Y20000D03*
X15400Y20000D03*
X14400Y20000D03*
X13400Y20000D03*
X12400Y20000D03*
X11400Y20000D03*
X10400Y20000D03*
X9400Y20000D03*
X21000Y1000D03*
X22000Y1000D03*
X23000Y1000D03*
X24000Y1000D03*
X25000Y1000D03*
X18000Y1000D03*
X17000Y1000D03*
X16000Y1000D03*
X15000Y1000D03*
X14000Y1000D03*
X13000Y1000D03*
D11*
X24400Y15500D03*
X23400Y15500D03*
X22400Y15500D03*
X21400Y15500D03*
X20400Y15500D03*
X19400Y15500D03*
X18400Y15500D03*
X17400Y15500D03*
X17400Y5500D03*
X18400Y5500D03*
X19400Y5500D03*
X20400Y5500D03*
X21400Y5500D03*
X22400Y5500D03*
X23400Y5500D03*
X24400Y5500D03*
D12*
X5960Y15700D02*
X5440Y15700D01*
X5440Y14700D02*
X5960Y14700D01*
X5960Y16700D02*
X5440Y16700D01*
X5440Y17700D02*
X5960Y17700D01*
D13*
X2000Y8300D02*
X1400Y8300D01*
X1400Y7300D02*
X2000Y7300D01*
X2000Y9300D02*
X1400Y9300D01*
X1400Y10300D02*
X2000Y10300D01*
D14*
X8500Y3300D03*
X8500Y2300D03*
D15*
X13400Y3300D03*
X17400Y3300D03*
D16*
X16000Y2300D03*
X10400Y18300D03*
D17*
X8500Y3300D02*
X13400Y3300D01*
D16*
X14000Y2300D03*
D17*
X15900Y4200D01*
X24800Y4200D02*
X25700Y5100D01*
X25700Y10800D01*
X22400Y14100D01*
X22400Y15500D01*
X24800Y4200D02*
X15900Y4200D01*
X3400Y10300D02*
X1700Y10300D01*
D16*
X3400Y10300D03*
D17*
X5700Y17700D02*
X7200Y17700D01*
D16*
X7200Y17700D03*
D17*
X21400Y17400D02*
X21400Y15500D01*
X15800Y17900D02*
X15400Y18300D01*
D16*
X15400Y18300D03*
D17*
X20900Y17900D02*
X21400Y17400D01*
X20900Y17900D02*
X15800Y17900D01*
X23400Y11400D02*
X23400Y5500D01*
X20700Y14100D02*
X16800Y14100D01*
X14400Y16500D01*
X20700Y14100D02*
X23400Y11400D01*
X14400Y16500D02*
X14400Y18300D01*
D16*
X14400Y18300D03*
D17*
X22400Y11000D02*
X22400Y5500D01*
X16400Y13100D02*
X13400Y16100D01*
X13400Y18300D01*
D16*
X13400Y18300D03*
D17*
X20300Y13100D02*
X22400Y11000D01*
X20300Y13100D02*
X16400Y13100D01*
X21400Y10600D02*
X21400Y5500D01*
X19900Y12100D02*
X16000Y12100D01*
X19900Y12100D02*
X21400Y10600D01*
X16000Y12100D02*
X12400Y15700D01*
X12400Y18300D01*
D16*
X12400Y18300D03*
D17*
X20400Y10200D02*
X20400Y5500D01*
X19500Y11100D02*
X15600Y11100D01*
X11400Y15300D01*
X11400Y18300D01*
D16*
X11400Y18300D03*
D17*
X19500Y11100D02*
X20400Y10200D01*
X20400Y15500D02*
X20400Y16800D01*
D16*
X20400Y16800D03*
X16000Y5100D03*
D17*
X16000Y5900D01*
X14600Y7300D01*
X1700Y7300D01*
D16*
X9800Y16700D03*
D17*
X5700Y16700D01*
M02*
