M48
;GenerationSoftware,Autodesk,EAGLE,9.6.2*%
;CreationDate,2021-03-11T17:19:42Z*%
FMAT,2
ICI,OFF
METRIC,TZ,000.000
T4C0.350
T3C0.800
T2C1.100
T1C3.000
%
G90
M71
T1
X41140Y12026
X-5000Y5000
X-5000Y55000
X65000Y5000
X65000Y55000
T2
X49530Y57174
X57174Y36322
X57174Y41402
X57174Y43942
X57174Y38862
X57174Y33782
X57174Y31242
X18796Y57174
X16256Y57174
X34290Y57174
X31750Y57174
X36830Y57174
X39370Y57174
X41910Y57174
X44450Y57174
X46990Y57174
T3
X44602Y28702
X47142Y28702
T4
X17272Y42926
X52324Y31242
X52324Y33782
X51562Y30226
X53086Y34798
X44450Y9144
X51816Y10160
X28829Y5918
X38354Y39878
X28829Y4420
X38608Y34544
X37608Y46228
X22352Y32512
X30480Y33528
X30480Y35052
X15494Y33020
X13970Y33020
X22606Y25146
X24638Y34036
X29210Y33528
X20574Y32512
X20574Y34798
X26924Y35814
X12954Y32258
X14732Y32258
X13716Y25146
X16256Y25146
X12954Y31242
X16256Y31242
X31242Y46634
X34036Y30734
X30226Y44196
X11684Y28702
X39878Y40640
X13716Y23114
X19812Y42926
X27940Y22583
X32766Y35052
X28956Y22583
X42672Y45720
X18542Y47498
X43434Y44958
X11430Y38608
X41910Y44958
X17479Y38655
X18288Y29568
X17526Y36322
X17526Y37338
X10211Y8941
X24892Y36830
X26670Y23599
X36678Y40843
X37414Y42926
X44653Y35230
X43840Y35814
X42240Y34290
X51562Y21590
X43040Y35052
X51562Y25654
X36576Y44958
X31750Y49276
X31750Y53340
X34290Y53340
X36627Y52832
X41656Y53340
X38227Y52832
X39040Y53594
X49022Y47244
X50038Y33782
X52578Y19050
X45212Y53340
X32766Y26162
X32766Y23622
X27686Y42621
X25146Y42621
X5588Y32766
X3048Y32766
X7874Y36068
X31750Y35052
X7874Y37668
X22352Y23876
X22352Y22075
X8382Y27432
X3302Y29210
X39840Y47422
X44704Y43434
X41402Y30988
X40640Y39116
X4572Y42926
X5842Y42926
X7112Y42926
X18542Y42926
X37440Y53594
M30