G04 EAGLE Gerber RS-274X export*
G75*
%MOIN*%
%FSLAX24Y24*%
%LPD*%
%INTop Layer*%
%IPPOS*%
%AMOC8*
5,1,8,0,0,1.08239X$1,22.5*%
G01*
%ADD10P,0.075767X8X22.500000*%
%ADD11P,0.075767X8X202.500000*%
%ADD12C,0.188976*%
%ADD13P,0.071438X8X202.500000*%
%ADD14P,0.056284X8X202.500000*%


D10*
X4500Y18500D03*
X4500Y17500D03*
X4500Y16500D03*
X4500Y15500D03*
X4500Y14500D03*
X4500Y13500D03*
X4500Y12500D03*
X4500Y11500D03*
X4500Y10500D03*
X4500Y9500D03*
X4500Y8500D03*
X4500Y7500D03*
X4500Y6500D03*
X4500Y5500D03*
X4500Y4500D03*
X15500Y4500D03*
X15500Y5500D03*
X15500Y6500D03*
X15500Y7500D03*
X15500Y8500D03*
X15500Y9500D03*
X15500Y10500D03*
X15500Y11500D03*
X15500Y12500D03*
X15500Y13500D03*
X15500Y14500D03*
X15500Y15500D03*
X15500Y16500D03*
X15500Y17500D03*
X15500Y18500D03*
D11*
X28000Y7000D03*
X28000Y8000D03*
X28000Y9000D03*
X28000Y10000D03*
X28000Y11000D03*
X28000Y12000D03*
X28000Y13000D03*
X28000Y14000D03*
X18000Y14000D03*
X18000Y13000D03*
X18000Y12000D03*
X18000Y11000D03*
X18000Y10000D03*
X18000Y9000D03*
X18000Y8000D03*
X18000Y7000D03*
D12*
X22311Y3476D03*
X20461Y4657D03*
X20461Y2335D03*
D13*
X19500Y20000D03*
X18500Y20000D03*
D14*
X21000Y22000D03*
X17000Y22000D03*
M02*
