G04 EAGLE Gerber RS-274X export*
G75*
%MOMM*%
%FSLAX34Y34*%
%LPD*%
%IN*%
%IPPOS*%
%AMOC8*
5,1,8,0,0,1.08239X$1,22.5*%
G01*
%ADD10C,0.254000*%


D10*
X-50000Y0D02*
X0Y0D01*
X650000Y0D01*
X654358Y190D01*
X658682Y760D01*
X662941Y1704D01*
X667101Y3015D01*
X671131Y4685D01*
X675000Y6699D01*
X678679Y9042D01*
X682139Y11698D01*
X685355Y14645D01*
X688302Y17861D01*
X690958Y21321D01*
X693301Y25000D01*
X695315Y28869D01*
X696985Y32899D01*
X698296Y37059D01*
X699240Y41318D01*
X699810Y45642D01*
X700000Y50000D01*
X699810Y54358D01*
X699240Y58682D01*
X698296Y62941D01*
X696985Y67101D01*
X695315Y71131D01*
X693301Y75000D01*
X690958Y78679D01*
X688302Y82139D01*
X685355Y85355D01*
X682139Y88302D01*
X678679Y90958D01*
X675000Y93301D01*
X671131Y95315D01*
X667101Y96985D01*
X662941Y98296D01*
X658682Y99240D01*
X654358Y99810D01*
X650000Y100000D01*
X620000Y100000D01*
X618257Y100076D01*
X616527Y100304D01*
X614824Y100681D01*
X613160Y101206D01*
X611548Y101874D01*
X610000Y102680D01*
X608528Y103617D01*
X607144Y104679D01*
X605858Y105858D01*
X604679Y107144D01*
X603617Y108528D01*
X602680Y110000D01*
X601874Y111548D01*
X601206Y113160D01*
X600681Y114824D01*
X600304Y116527D01*
X600076Y118257D01*
X600000Y120000D01*
X600000Y480000D01*
X600076Y481743D01*
X600304Y483473D01*
X600681Y485176D01*
X601206Y486840D01*
X601874Y488452D01*
X602680Y490000D01*
X603617Y491472D01*
X604679Y492856D01*
X605858Y494142D01*
X607144Y495321D01*
X608528Y496383D01*
X610000Y497321D01*
X611548Y498126D01*
X613160Y498794D01*
X614824Y499319D01*
X616527Y499696D01*
X618257Y499924D01*
X620000Y500000D01*
X650000Y500000D01*
X654358Y500190D01*
X658682Y500760D01*
X662941Y501704D01*
X667101Y503015D01*
X671131Y504685D01*
X675000Y506699D01*
X678679Y509042D01*
X682139Y511698D01*
X685355Y514645D01*
X688302Y517861D01*
X690958Y521321D01*
X693301Y525000D01*
X695315Y528869D01*
X696985Y532899D01*
X698296Y537059D01*
X699240Y541318D01*
X699810Y545642D01*
X700000Y550000D01*
X699810Y554358D01*
X699240Y558682D01*
X698296Y562941D01*
X696985Y567101D01*
X695315Y571131D01*
X693301Y575000D01*
X690958Y578679D01*
X688302Y582139D01*
X685355Y585355D01*
X682139Y588302D01*
X678679Y590958D01*
X675000Y593301D01*
X671131Y595315D01*
X667101Y596985D01*
X662941Y598296D01*
X658682Y599240D01*
X654358Y599810D01*
X650000Y600000D01*
X-50000Y600000D01*
X-54358Y599810D01*
X-58682Y599240D01*
X-62941Y598296D01*
X-67101Y596985D01*
X-71131Y595315D01*
X-75000Y593301D01*
X-78679Y590958D01*
X-82139Y588302D01*
X-85355Y585355D01*
X-88302Y582139D01*
X-90958Y578679D01*
X-93301Y575000D01*
X-95315Y571131D01*
X-96985Y567101D01*
X-98296Y562941D01*
X-99240Y558682D01*
X-99810Y554358D01*
X-100000Y550000D01*
X-99810Y545642D01*
X-99240Y541318D01*
X-98296Y537059D01*
X-96985Y532899D01*
X-95315Y528869D01*
X-93301Y525000D01*
X-90958Y521321D01*
X-88302Y517861D01*
X-85355Y514645D01*
X-82139Y511698D01*
X-78679Y509042D01*
X-75000Y506699D01*
X-71131Y504685D01*
X-67101Y503015D01*
X-62941Y501704D01*
X-58682Y500760D01*
X-54358Y500190D01*
X-50000Y500000D01*
X-20000Y500000D01*
X-18257Y499924D01*
X-16527Y499696D01*
X-14824Y499319D01*
X-13160Y498794D01*
X-11548Y498126D01*
X-10000Y497321D01*
X-8528Y496383D01*
X-7144Y495321D01*
X-5858Y494142D01*
X-4679Y492856D01*
X-3617Y491472D01*
X-2680Y490000D01*
X-1874Y488452D01*
X-1206Y486840D01*
X-681Y485176D01*
X-304Y483473D01*
X-76Y481743D01*
X0Y480000D01*
X0Y120000D01*
X-76Y118257D01*
X-304Y116527D01*
X-681Y114824D01*
X-1206Y113160D01*
X-1874Y111548D01*
X-2680Y110000D01*
X-3617Y108528D01*
X-4679Y107144D01*
X-5858Y105858D01*
X-7144Y104679D01*
X-8528Y103617D01*
X-10000Y102680D01*
X-11548Y101874D01*
X-13160Y101206D01*
X-14824Y100681D01*
X-16527Y100304D01*
X-18257Y100076D01*
X-20000Y100000D01*
X-50000Y100000D01*
X-54358Y99810D01*
X-58682Y99240D01*
X-62941Y98296D01*
X-67101Y96985D01*
X-71131Y95315D01*
X-75000Y93301D01*
X-78679Y90958D01*
X-82139Y88302D01*
X-85355Y85355D01*
X-88302Y82139D01*
X-90958Y78679D01*
X-93301Y75000D01*
X-95315Y71131D01*
X-96985Y67101D01*
X-98296Y62941D01*
X-99240Y58682D01*
X-99810Y54358D01*
X-100000Y50000D01*
X-99810Y45642D01*
X-99240Y41318D01*
X-98296Y37059D01*
X-96985Y32899D01*
X-95315Y28869D01*
X-93301Y25000D01*
X-90958Y21321D01*
X-88302Y17861D01*
X-85355Y14645D01*
X-82139Y11698D01*
X-78679Y9042D01*
X-75000Y6699D01*
X-71131Y4685D01*
X-67101Y3015D01*
X-62941Y1704D01*
X-58682Y760D01*
X-54358Y190D01*
X-50000Y0D01*
X426400Y119724D02*
X426324Y118656D01*
X426171Y117595D01*
X425943Y116548D01*
X425641Y115520D01*
X425267Y114516D01*
X424822Y113541D01*
X424308Y112601D01*
X423729Y111700D01*
X423087Y110842D01*
X422385Y110032D01*
X421628Y109275D01*
X420818Y108573D01*
X419960Y107931D01*
X419059Y107352D01*
X418119Y106838D01*
X417144Y106393D01*
X416140Y106019D01*
X415112Y105717D01*
X414065Y105489D01*
X413004Y105336D01*
X411936Y105260D01*
X410864Y105260D01*
X409796Y105336D01*
X408735Y105489D01*
X407688Y105717D01*
X406660Y106019D01*
X405656Y106393D01*
X404681Y106838D01*
X403741Y107352D01*
X402840Y107931D01*
X401982Y108573D01*
X401172Y109275D01*
X400415Y110032D01*
X399713Y110842D01*
X399071Y111700D01*
X398492Y112601D01*
X397978Y113541D01*
X397533Y114516D01*
X397159Y115520D01*
X396857Y116548D01*
X396629Y117595D01*
X396476Y118656D01*
X396400Y119724D01*
X396400Y120796D01*
X396476Y121864D01*
X396629Y122925D01*
X396857Y123972D01*
X397159Y125000D01*
X397533Y126004D01*
X397978Y126979D01*
X398492Y127919D01*
X399071Y128820D01*
X399713Y129678D01*
X400415Y130488D01*
X401172Y131245D01*
X401982Y131947D01*
X402840Y132589D01*
X403741Y133168D01*
X404681Y133682D01*
X405656Y134127D01*
X406660Y134501D01*
X407688Y134803D01*
X408735Y135031D01*
X409796Y135184D01*
X410864Y135260D01*
X411936Y135260D01*
X413004Y135184D01*
X414065Y135031D01*
X415112Y134803D01*
X416140Y134501D01*
X417144Y134127D01*
X418119Y133682D01*
X419059Y133168D01*
X419960Y132589D01*
X420818Y131947D01*
X421628Y131245D01*
X422385Y130488D01*
X423087Y129678D01*
X423729Y128820D01*
X424308Y127919D01*
X424822Y126979D01*
X425267Y126004D01*
X425641Y125000D01*
X425943Y123972D01*
X426171Y122925D01*
X426324Y121864D01*
X426400Y120796D01*
X426400Y119724D01*
X-35000Y49464D02*
X-35076Y48396D01*
X-35229Y47335D01*
X-35457Y46288D01*
X-35759Y45260D01*
X-36133Y44256D01*
X-36578Y43281D01*
X-37092Y42341D01*
X-37671Y41440D01*
X-38313Y40582D01*
X-39015Y39772D01*
X-39772Y39015D01*
X-40582Y38313D01*
X-41440Y37671D01*
X-42341Y37092D01*
X-43281Y36578D01*
X-44256Y36133D01*
X-45260Y35759D01*
X-46288Y35457D01*
X-47335Y35229D01*
X-48396Y35076D01*
X-49464Y35000D01*
X-50536Y35000D01*
X-51604Y35076D01*
X-52665Y35229D01*
X-53712Y35457D01*
X-54740Y35759D01*
X-55744Y36133D01*
X-56719Y36578D01*
X-57659Y37092D01*
X-58560Y37671D01*
X-59418Y38313D01*
X-60228Y39015D01*
X-60985Y39772D01*
X-61687Y40582D01*
X-62329Y41440D01*
X-62908Y42341D01*
X-63422Y43281D01*
X-63867Y44256D01*
X-64241Y45260D01*
X-64543Y46288D01*
X-64771Y47335D01*
X-64924Y48396D01*
X-65000Y49464D01*
X-65000Y50536D01*
X-64924Y51604D01*
X-64771Y52665D01*
X-64543Y53712D01*
X-64241Y54740D01*
X-63867Y55744D01*
X-63422Y56719D01*
X-62908Y57659D01*
X-62329Y58560D01*
X-61687Y59418D01*
X-60985Y60228D01*
X-60228Y60985D01*
X-59418Y61687D01*
X-58560Y62329D01*
X-57659Y62908D01*
X-56719Y63422D01*
X-55744Y63867D01*
X-54740Y64241D01*
X-53712Y64543D01*
X-52665Y64771D01*
X-51604Y64924D01*
X-50536Y65000D01*
X-49464Y65000D01*
X-48396Y64924D01*
X-47335Y64771D01*
X-46288Y64543D01*
X-45260Y64241D01*
X-44256Y63867D01*
X-43281Y63422D01*
X-42341Y62908D01*
X-41440Y62329D01*
X-40582Y61687D01*
X-39772Y60985D01*
X-39015Y60228D01*
X-38313Y59418D01*
X-37671Y58560D01*
X-37092Y57659D01*
X-36578Y56719D01*
X-36133Y55744D01*
X-35759Y54740D01*
X-35457Y53712D01*
X-35229Y52665D01*
X-35076Y51604D01*
X-35000Y50536D01*
X-35000Y49464D01*
X-35000Y549464D02*
X-35076Y548396D01*
X-35229Y547335D01*
X-35457Y546288D01*
X-35759Y545260D01*
X-36133Y544256D01*
X-36578Y543281D01*
X-37092Y542341D01*
X-37671Y541440D01*
X-38313Y540582D01*
X-39015Y539772D01*
X-39772Y539015D01*
X-40582Y538313D01*
X-41440Y537671D01*
X-42341Y537092D01*
X-43281Y536578D01*
X-44256Y536133D01*
X-45260Y535759D01*
X-46288Y535457D01*
X-47335Y535229D01*
X-48396Y535076D01*
X-49464Y535000D01*
X-50536Y535000D01*
X-51604Y535076D01*
X-52665Y535229D01*
X-53712Y535457D01*
X-54740Y535759D01*
X-55744Y536133D01*
X-56719Y536578D01*
X-57659Y537092D01*
X-58560Y537671D01*
X-59418Y538313D01*
X-60228Y539015D01*
X-60985Y539772D01*
X-61687Y540582D01*
X-62329Y541440D01*
X-62908Y542341D01*
X-63422Y543281D01*
X-63867Y544256D01*
X-64241Y545260D01*
X-64543Y546288D01*
X-64771Y547335D01*
X-64924Y548396D01*
X-65000Y549464D01*
X-65000Y550536D01*
X-64924Y551604D01*
X-64771Y552665D01*
X-64543Y553712D01*
X-64241Y554740D01*
X-63867Y555744D01*
X-63422Y556719D01*
X-62908Y557659D01*
X-62329Y558560D01*
X-61687Y559418D01*
X-60985Y560228D01*
X-60228Y560985D01*
X-59418Y561687D01*
X-58560Y562329D01*
X-57659Y562908D01*
X-56719Y563422D01*
X-55744Y563867D01*
X-54740Y564241D01*
X-53712Y564543D01*
X-52665Y564771D01*
X-51604Y564924D01*
X-50536Y565000D01*
X-49464Y565000D01*
X-48396Y564924D01*
X-47335Y564771D01*
X-46288Y564543D01*
X-45260Y564241D01*
X-44256Y563867D01*
X-43281Y563422D01*
X-42341Y562908D01*
X-41440Y562329D01*
X-40582Y561687D01*
X-39772Y560985D01*
X-39015Y560228D01*
X-38313Y559418D01*
X-37671Y558560D01*
X-37092Y557659D01*
X-36578Y556719D01*
X-36133Y555744D01*
X-35759Y554740D01*
X-35457Y553712D01*
X-35229Y552665D01*
X-35076Y551604D01*
X-35000Y550536D01*
X-35000Y549464D01*
X665000Y49464D02*
X664924Y48396D01*
X664771Y47335D01*
X664543Y46288D01*
X664241Y45260D01*
X663867Y44256D01*
X663422Y43281D01*
X662908Y42341D01*
X662329Y41440D01*
X661687Y40582D01*
X660985Y39772D01*
X660228Y39015D01*
X659418Y38313D01*
X658560Y37671D01*
X657659Y37092D01*
X656719Y36578D01*
X655744Y36133D01*
X654740Y35759D01*
X653712Y35457D01*
X652665Y35229D01*
X651604Y35076D01*
X650536Y35000D01*
X649464Y35000D01*
X648396Y35076D01*
X647335Y35229D01*
X646288Y35457D01*
X645260Y35759D01*
X644256Y36133D01*
X643281Y36578D01*
X642341Y37092D01*
X641440Y37671D01*
X640582Y38313D01*
X639772Y39015D01*
X639015Y39772D01*
X638313Y40582D01*
X637671Y41440D01*
X637092Y42341D01*
X636578Y43281D01*
X636133Y44256D01*
X635759Y45260D01*
X635457Y46288D01*
X635229Y47335D01*
X635076Y48396D01*
X635000Y49464D01*
X635000Y50536D01*
X635076Y51604D01*
X635229Y52665D01*
X635457Y53712D01*
X635759Y54740D01*
X636133Y55744D01*
X636578Y56719D01*
X637092Y57659D01*
X637671Y58560D01*
X638313Y59418D01*
X639015Y60228D01*
X639772Y60985D01*
X640582Y61687D01*
X641440Y62329D01*
X642341Y62908D01*
X643281Y63422D01*
X644256Y63867D01*
X645260Y64241D01*
X646288Y64543D01*
X647335Y64771D01*
X648396Y64924D01*
X649464Y65000D01*
X650536Y65000D01*
X651604Y64924D01*
X652665Y64771D01*
X653712Y64543D01*
X654740Y64241D01*
X655744Y63867D01*
X656719Y63422D01*
X657659Y62908D01*
X658560Y62329D01*
X659418Y61687D01*
X660228Y60985D01*
X660985Y60228D01*
X661687Y59418D01*
X662329Y58560D01*
X662908Y57659D01*
X663422Y56719D01*
X663867Y55744D01*
X664241Y54740D01*
X664543Y53712D01*
X664771Y52665D01*
X664924Y51604D01*
X665000Y50536D01*
X665000Y49464D01*
X665000Y549464D02*
X664924Y548396D01*
X664771Y547335D01*
X664543Y546288D01*
X664241Y545260D01*
X663867Y544256D01*
X663422Y543281D01*
X662908Y542341D01*
X662329Y541440D01*
X661687Y540582D01*
X660985Y539772D01*
X660228Y539015D01*
X659418Y538313D01*
X658560Y537671D01*
X657659Y537092D01*
X656719Y536578D01*
X655744Y536133D01*
X654740Y535759D01*
X653712Y535457D01*
X652665Y535229D01*
X651604Y535076D01*
X650536Y535000D01*
X649464Y535000D01*
X648396Y535076D01*
X647335Y535229D01*
X646288Y535457D01*
X645260Y535759D01*
X644256Y536133D01*
X643281Y536578D01*
X642341Y537092D01*
X641440Y537671D01*
X640582Y538313D01*
X639772Y539015D01*
X639015Y539772D01*
X638313Y540582D01*
X637671Y541440D01*
X637092Y542341D01*
X636578Y543281D01*
X636133Y544256D01*
X635759Y545260D01*
X635457Y546288D01*
X635229Y547335D01*
X635076Y548396D01*
X635000Y549464D01*
X635000Y550536D01*
X635076Y551604D01*
X635229Y552665D01*
X635457Y553712D01*
X635759Y554740D01*
X636133Y555744D01*
X636578Y556719D01*
X637092Y557659D01*
X637671Y558560D01*
X638313Y559418D01*
X639015Y560228D01*
X639772Y560985D01*
X640582Y561687D01*
X641440Y562329D01*
X642341Y562908D01*
X643281Y563422D01*
X644256Y563867D01*
X645260Y564241D01*
X646288Y564543D01*
X647335Y564771D01*
X648396Y564924D01*
X649464Y565000D01*
X650536Y565000D01*
X651604Y564924D01*
X652665Y564771D01*
X653712Y564543D01*
X654740Y564241D01*
X655744Y563867D01*
X656719Y563422D01*
X657659Y562908D01*
X658560Y562329D01*
X659418Y561687D01*
X660228Y560985D01*
X660985Y560228D01*
X661687Y559418D01*
X662329Y558560D01*
X662908Y557659D01*
X663422Y556719D01*
X663867Y555744D01*
X664241Y554740D01*
X664543Y553712D01*
X664771Y552665D01*
X664924Y551604D01*
X665000Y550536D01*
X665000Y549464D01*
M02*
