G04 EAGLE Gerber RS-274X export*
G75*
%MOMM*%
%FSLAX34Y34*%
%LPD*%
%INSilkscreen Bottom*%
%IPPOS*%
%AMOC8*
5,1,8,0,0,1.08239X$1,22.5*%
G01*
%ADD10C,0.152400*%
%ADD11R,0.290400X0.013200*%
%ADD12R,0.316800X0.013200*%
%ADD13R,0.330000X0.013200*%
%ADD14R,0.303600X0.013200*%
%ADD15R,0.277200X0.013200*%
%ADD16R,1.320000X0.013200*%
%ADD17R,1.861200X0.013200*%
%ADD18R,1.412400X0.013200*%
%ADD19R,1.927200X0.013200*%
%ADD20R,1.465200X0.013200*%
%ADD21R,1.966800X0.013200*%
%ADD22R,1.518000X0.013200*%
%ADD23R,2.006400X0.013200*%
%ADD24R,1.557600X0.013200*%
%ADD25R,2.032800X0.013200*%
%ADD26R,1.597200X0.013200*%
%ADD27R,2.059200X0.013200*%
%ADD28R,0.013200X0.013200*%
%ADD29R,1.636800X0.013200*%
%ADD30R,2.085600X0.013200*%
%ADD31R,0.026400X0.013200*%
%ADD32R,1.663200X0.013200*%
%ADD33R,2.098800X0.013200*%
%ADD34R,0.052800X0.013200*%
%ADD35R,1.689600X0.013200*%
%ADD36R,2.125200X0.013200*%
%ADD37R,0.066000X0.013200*%
%ADD38R,1.716000X0.013200*%
%ADD39R,2.138400X0.013200*%
%ADD40R,0.079200X0.013200*%
%ADD41R,1.742400X0.013200*%
%ADD42R,2.151600X0.013200*%
%ADD43R,0.105600X0.013200*%
%ADD44R,1.768800X0.013200*%
%ADD45R,2.164800X0.013200*%
%ADD46R,0.118800X0.013200*%
%ADD47R,1.795200X0.013200*%
%ADD48R,2.191200X0.013200*%
%ADD49R,0.132000X0.013200*%
%ADD50R,1.808400X0.013200*%
%ADD51R,2.204400X0.013200*%
%ADD52R,0.158400X0.013200*%
%ADD53R,1.834800X0.013200*%
%ADD54R,2.217600X0.013200*%
%ADD55R,0.343200X0.013200*%
%ADD56R,0.171600X0.013200*%
%ADD57R,1.848000X0.013200*%
%ADD58R,0.184800X0.013200*%
%ADD59R,1.874400X0.013200*%
%ADD60R,2.230800X0.013200*%
%ADD61R,0.198000X0.013200*%
%ADD62R,1.887600X0.013200*%
%ADD63R,2.244000X0.013200*%
%ADD64R,0.224400X0.013200*%
%ADD65R,1.914000X0.013200*%
%ADD66R,2.257200X0.013200*%
%ADD67R,0.237600X0.013200*%
%ADD68R,2.270400X0.013200*%
%ADD69R,0.250800X0.013200*%
%ADD70R,1.940400X0.013200*%
%ADD71R,1.953600X0.013200*%
%ADD72R,2.283600X0.013200*%
%ADD73R,0.686400X0.013200*%
%ADD74R,0.514800X0.013200*%
%ADD75R,0.620400X0.013200*%
%ADD76R,0.435600X0.013200*%
%ADD77R,0.580800X0.013200*%
%ADD78R,0.409200X0.013200*%
%ADD79R,0.554400X0.013200*%
%ADD80R,0.382800X0.013200*%
%ADD81R,0.356400X0.013200*%
%ADD82R,0.528000X0.013200*%
%ADD83R,0.369600X0.013200*%
%ADD84R,0.396000X0.013200*%
%ADD85R,0.488400X0.013200*%
%ADD86R,0.475200X0.013200*%
%ADD87R,0.422400X0.013200*%
%ADD88R,0.448800X0.013200*%
%ADD89R,0.462000X0.013200*%
%ADD90R,0.501600X0.013200*%
%ADD91R,0.541200X0.013200*%
%ADD92R,0.567600X0.013200*%
%ADD93R,0.778800X0.013200*%
%ADD94R,0.594000X0.013200*%
%ADD95R,0.937200X0.013200*%
%ADD96R,1.029600X0.013200*%
%ADD97R,0.633600X0.013200*%
%ADD98R,1.016400X0.013200*%
%ADD99R,0.646800X0.013200*%
%ADD100R,1.003200X0.013200*%
%ADD101R,0.673200X0.013200*%
%ADD102R,0.990000X0.013200*%
%ADD103R,0.963600X0.013200*%
%ADD104R,0.699600X0.013200*%
%ADD105R,0.211200X0.013200*%
%ADD106R,0.950400X0.013200*%
%ADD107R,0.712800X0.013200*%
%ADD108R,0.739200X0.013200*%
%ADD109R,0.924000X0.013200*%
%ADD110R,0.752400X0.013200*%
%ADD111R,0.897600X0.013200*%
%ADD112R,0.765600X0.013200*%
%ADD113R,0.884400X0.013200*%
%ADD114R,0.792000X0.013200*%
%ADD115R,0.871200X0.013200*%
%ADD116R,0.805200X0.013200*%
%ADD117R,0.844800X0.013200*%
%ADD118R,0.818400X0.013200*%
%ADD119R,0.831600X0.013200*%
%ADD120R,0.858000X0.013200*%
%ADD121R,0.039600X0.013200*%
%ADD122R,0.092400X0.013200*%
%ADD123R,0.726000X0.013200*%
%ADD124R,0.145200X0.013200*%
%ADD125R,0.264000X0.013200*%
%ADD126R,0.660000X0.013200*%
%ADD127R,0.607200X0.013200*%
%ADD128R,1.570800X0.013200*%
%ADD129R,2.389200X0.013200*%
%ADD130R,1.676400X0.013200*%
%ADD131R,1.755600X0.013200*%
%ADD132R,1.782000X0.013200*%
%ADD133R,1.900800X0.013200*%
%ADD134R,1.980000X0.013200*%
%ADD135R,1.993200X0.013200*%
%ADD136R,2.019600X0.013200*%
%ADD137R,0.910800X0.013200*%
%ADD138R,1.042800X0.013200*%
%ADD139R,1.056000X0.013200*%
%ADD140R,1.082400X0.013200*%
%ADD141R,1.095600X0.013200*%
%ADD142R,1.108800X0.013200*%
%ADD143R,1.135200X0.013200*%
%ADD144R,1.148400X0.013200*%
%ADD145R,1.161600X0.013200*%
%ADD146R,1.188000X0.013200*%
%ADD147R,1.201200X0.013200*%
%ADD148R,1.214400X0.013200*%
%ADD149R,1.174800X0.013200*%
%ADD150R,1.122000X0.013200*%
%ADD151R,1.267200X0.013200*%
%ADD152R,1.386000X0.013200*%
%ADD153R,1.069200X0.013200*%
%ADD154R,1.491600X0.013200*%
%ADD155R,1.650000X0.013200*%
%ADD156R,0.976800X0.013200*%
%ADD157R,1.729200X0.013200*%
%ADD158R,2.376000X0.013200*%
%ADD159R,2.046000X0.013200*%
%ADD160R,2.296800X0.013200*%
%ADD161R,2.178000X0.013200*%
%ADD162R,2.112000X0.013200*%
%ADD163R,1.623600X0.013200*%
%ADD164R,1.821600X0.013200*%
%ADD165R,1.306800X0.013200*%
%ADD166R,2.072400X0.013200*%
%ADD167R,1.359600X0.013200*%
%ADD168R,1.399200X0.013200*%
%ADD169R,1.504800X0.013200*%
%ADD170R,1.452000X0.013200*%
%ADD171R,1.702800X0.013200*%
%ADD172R,1.610400X0.013200*%
%ADD173R,1.280400X0.013200*%
%ADD174R,1.544400X0.013200*%
%ADD175R,1.531200X0.013200*%
%ADD176R,1.346400X0.013200*%
%ADD177R,1.333200X0.013200*%
%ADD178R,2.547600X0.013200*%
%ADD179R,2.983200X0.013200*%
%ADD180R,1.293600X0.013200*%
%ADD181R,3.366000X0.013200*%
%ADD182R,1.438800X0.013200*%
%ADD183R,3.696000X0.013200*%
%ADD184R,3.999600X0.013200*%
%ADD185R,1.425600X0.013200*%
%ADD186R,4.290000X0.013200*%
%ADD187R,1.254000X0.013200*%
%ADD188R,4.540800X0.013200*%
%ADD189R,1.240800X0.013200*%
%ADD190R,4.791600X0.013200*%
%ADD191R,5.016000X0.013200*%
%ADD192R,1.227600X0.013200*%
%ADD193R,5.253600X0.013200*%
%ADD194R,5.451600X0.013200*%
%ADD195R,5.662800X0.013200*%
%ADD196R,5.860800X0.013200*%
%ADD197R,6.058800X0.013200*%
%ADD198R,6.243600X0.013200*%
%ADD199R,3.748800X0.013200*%
%ADD200R,6.388800X0.013200*%
%ADD201R,3.682800X0.013200*%
%ADD202R,6.190800X0.013200*%
%ADD203R,5.966400X0.013200*%
%ADD204R,3.920400X0.013200*%
%ADD205R,5.742000X0.013200*%
%ADD206R,3.854400X0.013200*%
%ADD207R,5.517600X0.013200*%
%ADD208R,3.801600X0.013200*%
%ADD209R,5.266800X0.013200*%
%ADD210R,3.735600X0.013200*%
%ADD211R,5.029200X0.013200*%
%ADD212R,4.778400X0.013200*%
%ADD213R,3.643200X0.013200*%
%ADD214R,4.514400X0.013200*%
%ADD215R,3.603600X0.013200*%
%ADD216R,7.906800X0.013200*%
%ADD217R,7.537200X0.013200*%
%ADD218R,7.220400X0.013200*%
%ADD219R,6.943200X0.013200*%
%ADD220R,6.718800X0.013200*%
%ADD221R,6.494400X0.013200*%
%ADD222R,6.309600X0.013200*%
%ADD223R,6.138000X0.013200*%
%ADD224R,5.794800X0.013200*%
%ADD225R,2.455200X0.013200*%
%ADD226R,5.649600X0.013200*%
%ADD227R,3.102000X0.013200*%
%ADD228R,5.491200X0.013200*%
%ADD229R,5.359200X0.013200*%
%ADD230R,4.237200X0.013200*%
%ADD231R,5.214000X0.013200*%
%ADD232R,4.712400X0.013200*%
%ADD233R,5.082000X0.013200*%
%ADD234R,5.161200X0.013200*%
%ADD235R,4.963200X0.013200*%
%ADD236R,5.570400X0.013200*%
%ADD237R,4.844400X0.013200*%
%ADD238R,4.725600X0.013200*%
%ADD239R,6.362400X0.013200*%
%ADD240R,4.620000X0.013200*%
%ADD241R,6.745200X0.013200*%
%ADD242R,4.554000X0.013200*%
%ADD243R,7.141200X0.013200*%
%ADD244R,4.488000X0.013200*%
%ADD245R,7.576800X0.013200*%
%ADD246R,12.447600X0.013200*%
%ADD247R,12.474000X0.013200*%
%ADD248R,12.513600X0.013200*%
%ADD249R,12.553200X0.013200*%
%ADD250R,12.579600X0.013200*%
%ADD251R,12.606000X0.013200*%
%ADD252R,12.645600X0.013200*%
%ADD253R,12.672000X0.013200*%
%ADD254R,12.698400X0.013200*%
%ADD255R,12.724800X0.013200*%
%ADD256R,12.751200X0.013200*%
%ADD257R,8.857200X0.013200*%
%ADD258R,8.329200X0.013200*%
%ADD259R,7.563600X0.013200*%
%ADD260R,7.260000X0.013200*%
%ADD261R,6.996000X0.013200*%
%ADD262R,6.758400X0.013200*%
%ADD263R,6.534000X0.013200*%
%ADD264R,6.336000X0.013200*%
%ADD265R,6.151200X0.013200*%
%ADD266R,5.979600X0.013200*%
%ADD267R,5.847600X0.013200*%
%ADD268R,5.715600X0.013200*%
%ADD269R,5.623200X0.013200*%
%ADD270R,5.583600X0.013200*%
%ADD271R,2.838000X0.013200*%
%ADD272R,9.913200X0.013200*%
%ADD273R,10.520400X0.013200*%
%ADD274R,10.995600X0.013200*%
%ADD275R,11.418000X0.013200*%
%ADD276R,11.800800X0.013200*%
%ADD277R,12.144000X0.013200*%
%ADD278R,2.310000X0.013200*%
%ADD279R,12.460800X0.013200*%
%ADD280R,2.323200X0.013200*%
%ADD281R,12.764400X0.013200*%
%ADD282R,2.349600X0.013200*%
%ADD283R,13.002000X0.013200*%
%ADD284R,2.362800X0.013200*%
%ADD285R,13.041600X0.013200*%
%ADD286R,13.094400X0.013200*%
%ADD287R,2.402400X0.013200*%
%ADD288R,13.134000X0.013200*%
%ADD289R,2.428800X0.013200*%
%ADD290R,13.173600X0.013200*%
%ADD291R,2.442000X0.013200*%
%ADD292R,13.200000X0.013200*%
%ADD293R,2.468400X0.013200*%
%ADD294R,13.226400X0.013200*%
%ADD295R,2.494800X0.013200*%
%ADD296R,13.252800X0.013200*%
%ADD297R,2.534400X0.013200*%
%ADD298R,13.279200X0.013200*%
%ADD299R,13.292400X0.013200*%
%ADD300R,2.587200X0.013200*%
%ADD301R,13.332000X0.013200*%
%ADD302R,2.613600X0.013200*%
%ADD303R,13.345200X0.013200*%
%ADD304R,2.653200X0.013200*%
%ADD305R,13.358400X0.013200*%
%ADD306R,2.679600X0.013200*%
%ADD307R,13.371600X0.013200*%
%ADD308R,2.732400X0.013200*%
%ADD309R,13.384800X0.013200*%
%ADD310R,2.785200X0.013200*%
%ADD311R,13.398000X0.013200*%
%ADD312R,2.824800X0.013200*%
%ADD313R,7.088400X0.013200*%
%ADD314R,2.877600X0.013200*%
%ADD315R,6.547200X0.013200*%
%ADD316R,2.956800X0.013200*%
%ADD317R,3.049200X0.013200*%
%ADD318R,6.402000X0.013200*%
%ADD319R,3.154800X0.013200*%
%ADD320R,6.613200X0.013200*%
%ADD321R,3.234000X0.013200*%
%ADD322R,6.930000X0.013200*%
%ADD323R,3.339600X0.013200*%
%ADD324R,7.326000X0.013200*%
%ADD325R,3.432000X0.013200*%
%ADD326R,7.748400X0.013200*%
%ADD327R,3.524400X0.013200*%
%ADD328R,8.210400X0.013200*%
%ADD329R,3.616800X0.013200*%
%ADD330R,8.685600X0.013200*%
%ADD331R,3.709200X0.013200*%
%ADD332R,9.187200X0.013200*%
%ADD333R,9.675600X0.013200*%
%ADD334R,3.894000X0.013200*%
%ADD335R,10.177200X0.013200*%
%ADD336R,3.986400X0.013200*%
%ADD337R,10.678800X0.013200*%
%ADD338R,4.065600X0.013200*%
%ADD339R,11.180400X0.013200*%
%ADD340R,4.171200X0.013200*%
%ADD341R,11.695200X0.013200*%
%ADD342R,12.196800X0.013200*%
%ADD343R,4.316400X0.013200*%
%ADD344R,12.738000X0.013200*%
%ADD345R,4.395600X0.013200*%
%ADD346R,4.461600X0.013200*%
%ADD347R,13.464000X0.013200*%
%ADD348R,4.527600X0.013200*%
%ADD349R,13.477200X0.013200*%
%ADD350R,4.593600X0.013200*%
%ADD351R,13.490400X0.013200*%
%ADD352R,4.646400X0.013200*%
%ADD353R,13.503600X0.013200*%
%ADD354R,4.699200X0.013200*%
%ADD355R,13.516800X0.013200*%
%ADD356R,4.738800X0.013200*%
%ADD357R,13.530000X0.013200*%
%ADD358R,4.804800X0.013200*%
%ADD359R,4.818000X0.013200*%
%ADD360R,4.831200X0.013200*%
%ADD361R,4.752000X0.013200*%
%ADD362R,4.686000X0.013200*%
%ADD363R,8.725200X0.013200*%
%ADD364R,4.580400X0.013200*%
%ADD365R,8.263200X0.013200*%
%ADD366R,7.893600X0.013200*%
%ADD367R,7.273200X0.013200*%
%ADD368R,4.422000X0.013200*%
%ADD369R,7.022400X0.013200*%
%ADD370R,4.382400X0.013200*%
%ADD371R,6.811200X0.013200*%
%ADD372R,4.342800X0.013200*%
%ADD373R,4.250400X0.013200*%
%ADD374R,6.507600X0.013200*%
%ADD375R,4.197600X0.013200*%
%ADD376R,9.754800X0.013200*%
%ADD377R,4.158000X0.013200*%
%ADD378R,10.230000X0.013200*%
%ADD379R,4.105200X0.013200*%
%ADD380R,10.586400X0.013200*%
%ADD381R,10.903200X0.013200*%
%ADD382R,4.026000X0.013200*%
%ADD383R,11.154000X0.013200*%
%ADD384R,3.973200X0.013200*%
%ADD385R,11.391600X0.013200*%
%ADD386R,3.960000X0.013200*%
%ADD387R,11.602800X0.013200*%
%ADD388R,3.946800X0.013200*%
%ADD389R,11.787600X0.013200*%
%ADD390R,11.972400X0.013200*%
%ADD391R,12.130800X0.013200*%
%ADD392R,12.289200X0.013200*%
%ADD393R,12.434400X0.013200*%
%ADD394R,12.566400X0.013200*%
%ADD395R,12.685200X0.013200*%
%ADD396R,12.830400X0.013200*%
%ADD397R,12.922800X0.013200*%
%ADD398R,12.975600X0.013200*%
%ADD399R,2.666400X0.013200*%
%ADD400R,13.015200X0.013200*%
%ADD401R,2.600400X0.013200*%
%ADD402R,2.626800X0.013200*%
%ADD403R,12.988800X0.013200*%
%ADD404R,2.640000X0.013200*%
%ADD405R,12.949200X0.013200*%
%ADD406R,2.692800X0.013200*%
%ADD407R,2.719200X0.013200*%
%ADD408R,12.883200X0.013200*%
%ADD409R,2.745600X0.013200*%
%ADD410R,12.817200X0.013200*%
%ADD411R,2.798400X0.013200*%
%ADD412R,12.421200X0.013200*%
%ADD413R,12.342000X0.013200*%
%ADD414R,12.249600X0.013200*%
%ADD415R,12.157200X0.013200*%
%ADD416R,12.064800X0.013200*%
%ADD417R,11.880000X0.013200*%
%ADD418R,7.933200X0.013200*%
%ADD419R,3.590400X0.013200*%
%ADD420R,7.207200X0.013200*%
%ADD421R,6.626400X0.013200*%
%ADD422R,3.484800X0.013200*%
%ADD423R,6.085200X0.013200*%
%ADD424R,3.418800X0.013200*%
%ADD425R,4.950000X0.013200*%
%ADD426R,3.300000X0.013200*%
%ADD427R,4.356000X0.013200*%
%ADD428R,3.260400X0.013200*%
%ADD429R,3.207600X0.013200*%
%ADD430R,2.970000X0.013200*%
%ADD431R,3.168000X0.013200*%
%ADD432R,3.128400X0.013200*%
%ADD433R,3.075600X0.013200*%
%ADD434R,3.009600X0.013200*%
%ADD435R,2.904000X0.013200*%
%ADD436R,2.851200X0.013200*%
%ADD437R,2.560800X0.013200*%
%ADD438R,2.508000X0.013200*%
%ADD439R,1.584000X0.013200*%
%ADD440R,1.478400X0.013200*%


D10*
X352298Y82042D02*
X352298Y98298D01*
X346879Y89267D01*
X341461Y98298D01*
X341461Y82042D01*
X331630Y82042D02*
X327115Y82042D01*
X331630Y82042D02*
X331731Y82044D01*
X331832Y82050D01*
X331933Y82059D01*
X332034Y82072D01*
X332134Y82089D01*
X332233Y82110D01*
X332331Y82134D01*
X332428Y82162D01*
X332525Y82194D01*
X332620Y82229D01*
X332713Y82268D01*
X332805Y82310D01*
X332896Y82356D01*
X332985Y82405D01*
X333071Y82457D01*
X333156Y82513D01*
X333239Y82571D01*
X333319Y82633D01*
X333397Y82698D01*
X333473Y82765D01*
X333546Y82835D01*
X333616Y82908D01*
X333683Y82984D01*
X333748Y83062D01*
X333810Y83142D01*
X333868Y83225D01*
X333924Y83310D01*
X333976Y83396D01*
X334025Y83485D01*
X334071Y83576D01*
X334113Y83668D01*
X334152Y83761D01*
X334187Y83856D01*
X334219Y83953D01*
X334247Y84050D01*
X334271Y84148D01*
X334292Y84247D01*
X334309Y84347D01*
X334322Y84448D01*
X334331Y84549D01*
X334337Y84650D01*
X334339Y84751D01*
X334340Y84751D02*
X334340Y89267D01*
X334339Y89267D02*
X334337Y89386D01*
X334331Y89506D01*
X334321Y89625D01*
X334307Y89743D01*
X334290Y89862D01*
X334268Y89979D01*
X334243Y90096D01*
X334213Y90211D01*
X334180Y90326D01*
X334143Y90440D01*
X334103Y90552D01*
X334058Y90663D01*
X334010Y90772D01*
X333959Y90880D01*
X333904Y90986D01*
X333845Y91090D01*
X333783Y91192D01*
X333718Y91292D01*
X333649Y91390D01*
X333577Y91486D01*
X333502Y91579D01*
X333425Y91669D01*
X333344Y91757D01*
X333260Y91842D01*
X333173Y91924D01*
X333084Y92004D01*
X332992Y92080D01*
X332898Y92154D01*
X332801Y92224D01*
X332703Y92291D01*
X332602Y92355D01*
X332498Y92415D01*
X332393Y92472D01*
X332286Y92525D01*
X332178Y92575D01*
X332068Y92621D01*
X331956Y92663D01*
X331843Y92702D01*
X331729Y92737D01*
X331614Y92768D01*
X331497Y92796D01*
X331380Y92819D01*
X331263Y92839D01*
X331144Y92855D01*
X331025Y92867D01*
X330906Y92875D01*
X330787Y92879D01*
X330667Y92879D01*
X330548Y92875D01*
X330429Y92867D01*
X330310Y92855D01*
X330191Y92839D01*
X330074Y92819D01*
X329957Y92796D01*
X329840Y92768D01*
X329725Y92737D01*
X329611Y92702D01*
X329498Y92663D01*
X329386Y92621D01*
X329276Y92575D01*
X329168Y92525D01*
X329061Y92472D01*
X328956Y92415D01*
X328852Y92355D01*
X328751Y92291D01*
X328653Y92224D01*
X328556Y92154D01*
X328462Y92080D01*
X328370Y92004D01*
X328281Y91924D01*
X328194Y91842D01*
X328110Y91757D01*
X328029Y91669D01*
X327952Y91579D01*
X327877Y91486D01*
X327805Y91390D01*
X327736Y91292D01*
X327671Y91192D01*
X327609Y91090D01*
X327550Y90986D01*
X327495Y90880D01*
X327444Y90772D01*
X327396Y90663D01*
X327351Y90552D01*
X327311Y90440D01*
X327274Y90326D01*
X327241Y90211D01*
X327211Y90096D01*
X327186Y89979D01*
X327164Y89862D01*
X327147Y89743D01*
X327133Y89625D01*
X327123Y89506D01*
X327117Y89386D01*
X327115Y89267D01*
X327115Y87461D01*
X334340Y87461D01*
X322090Y92879D02*
X316671Y92879D01*
X320284Y98298D02*
X320284Y84751D01*
X320283Y84751D02*
X320281Y84650D01*
X320275Y84549D01*
X320266Y84448D01*
X320253Y84347D01*
X320236Y84247D01*
X320215Y84148D01*
X320191Y84050D01*
X320163Y83953D01*
X320131Y83856D01*
X320096Y83761D01*
X320057Y83668D01*
X320015Y83576D01*
X319969Y83485D01*
X319920Y83396D01*
X319868Y83310D01*
X319812Y83225D01*
X319754Y83142D01*
X319692Y83062D01*
X319627Y82984D01*
X319560Y82908D01*
X319490Y82835D01*
X319417Y82765D01*
X319341Y82698D01*
X319263Y82633D01*
X319183Y82571D01*
X319100Y82513D01*
X319015Y82457D01*
X318929Y82405D01*
X318840Y82356D01*
X318749Y82310D01*
X318657Y82268D01*
X318564Y82229D01*
X318469Y82194D01*
X318372Y82162D01*
X318275Y82134D01*
X318177Y82110D01*
X318078Y82089D01*
X317978Y82072D01*
X317877Y82059D01*
X317776Y82050D01*
X317675Y82044D01*
X317574Y82042D01*
X316671Y82042D01*
X308183Y82042D02*
X303668Y82042D01*
X308183Y82042D02*
X308284Y82044D01*
X308385Y82050D01*
X308486Y82059D01*
X308587Y82072D01*
X308687Y82089D01*
X308786Y82110D01*
X308884Y82134D01*
X308981Y82162D01*
X309078Y82194D01*
X309173Y82229D01*
X309266Y82268D01*
X309358Y82310D01*
X309449Y82356D01*
X309538Y82405D01*
X309624Y82457D01*
X309709Y82513D01*
X309792Y82571D01*
X309872Y82633D01*
X309950Y82698D01*
X310026Y82765D01*
X310099Y82835D01*
X310169Y82908D01*
X310236Y82984D01*
X310301Y83062D01*
X310363Y83142D01*
X310421Y83225D01*
X310477Y83310D01*
X310529Y83396D01*
X310578Y83485D01*
X310624Y83576D01*
X310666Y83668D01*
X310705Y83761D01*
X310740Y83856D01*
X310772Y83953D01*
X310800Y84050D01*
X310824Y84148D01*
X310845Y84247D01*
X310862Y84347D01*
X310875Y84448D01*
X310884Y84549D01*
X310890Y84650D01*
X310892Y84751D01*
X310893Y84751D02*
X310893Y89267D01*
X310892Y89267D02*
X310890Y89386D01*
X310884Y89506D01*
X310874Y89625D01*
X310860Y89743D01*
X310843Y89862D01*
X310821Y89979D01*
X310796Y90096D01*
X310766Y90211D01*
X310733Y90326D01*
X310696Y90440D01*
X310656Y90552D01*
X310611Y90663D01*
X310563Y90772D01*
X310512Y90880D01*
X310457Y90986D01*
X310398Y91090D01*
X310336Y91192D01*
X310271Y91292D01*
X310202Y91390D01*
X310130Y91486D01*
X310055Y91579D01*
X309978Y91669D01*
X309897Y91757D01*
X309813Y91842D01*
X309726Y91924D01*
X309637Y92004D01*
X309545Y92080D01*
X309451Y92154D01*
X309354Y92224D01*
X309256Y92291D01*
X309155Y92355D01*
X309051Y92415D01*
X308946Y92472D01*
X308839Y92525D01*
X308731Y92575D01*
X308621Y92621D01*
X308509Y92663D01*
X308396Y92702D01*
X308282Y92737D01*
X308167Y92768D01*
X308050Y92796D01*
X307933Y92819D01*
X307816Y92839D01*
X307697Y92855D01*
X307578Y92867D01*
X307459Y92875D01*
X307340Y92879D01*
X307220Y92879D01*
X307101Y92875D01*
X306982Y92867D01*
X306863Y92855D01*
X306744Y92839D01*
X306627Y92819D01*
X306510Y92796D01*
X306393Y92768D01*
X306278Y92737D01*
X306164Y92702D01*
X306051Y92663D01*
X305939Y92621D01*
X305829Y92575D01*
X305721Y92525D01*
X305614Y92472D01*
X305509Y92415D01*
X305405Y92355D01*
X305304Y92291D01*
X305206Y92224D01*
X305109Y92154D01*
X305015Y92080D01*
X304923Y92004D01*
X304834Y91924D01*
X304747Y91842D01*
X304663Y91757D01*
X304582Y91669D01*
X304505Y91579D01*
X304430Y91486D01*
X304358Y91390D01*
X304289Y91292D01*
X304224Y91192D01*
X304162Y91090D01*
X304103Y90986D01*
X304048Y90880D01*
X303997Y90772D01*
X303949Y90663D01*
X303904Y90552D01*
X303864Y90440D01*
X303827Y90326D01*
X303794Y90211D01*
X303764Y90096D01*
X303739Y89979D01*
X303717Y89862D01*
X303700Y89743D01*
X303686Y89625D01*
X303676Y89506D01*
X303670Y89386D01*
X303668Y89267D01*
X303668Y87461D01*
X310893Y87461D01*
X297346Y85654D02*
X297346Y89267D01*
X297345Y89267D02*
X297343Y89386D01*
X297337Y89506D01*
X297327Y89625D01*
X297313Y89743D01*
X297296Y89862D01*
X297274Y89979D01*
X297249Y90096D01*
X297219Y90211D01*
X297186Y90326D01*
X297149Y90440D01*
X297109Y90552D01*
X297064Y90663D01*
X297016Y90772D01*
X296965Y90880D01*
X296910Y90986D01*
X296851Y91090D01*
X296789Y91192D01*
X296724Y91292D01*
X296655Y91390D01*
X296583Y91486D01*
X296508Y91579D01*
X296431Y91669D01*
X296350Y91757D01*
X296266Y91842D01*
X296179Y91924D01*
X296090Y92004D01*
X295998Y92080D01*
X295904Y92154D01*
X295807Y92224D01*
X295709Y92291D01*
X295608Y92355D01*
X295504Y92415D01*
X295399Y92472D01*
X295292Y92525D01*
X295184Y92575D01*
X295074Y92621D01*
X294962Y92663D01*
X294849Y92702D01*
X294735Y92737D01*
X294620Y92768D01*
X294503Y92796D01*
X294386Y92819D01*
X294269Y92839D01*
X294150Y92855D01*
X294031Y92867D01*
X293912Y92875D01*
X293793Y92879D01*
X293673Y92879D01*
X293554Y92875D01*
X293435Y92867D01*
X293316Y92855D01*
X293197Y92839D01*
X293080Y92819D01*
X292963Y92796D01*
X292846Y92768D01*
X292731Y92737D01*
X292617Y92702D01*
X292504Y92663D01*
X292392Y92621D01*
X292282Y92575D01*
X292174Y92525D01*
X292067Y92472D01*
X291962Y92415D01*
X291858Y92355D01*
X291757Y92291D01*
X291659Y92224D01*
X291562Y92154D01*
X291468Y92080D01*
X291376Y92004D01*
X291287Y91924D01*
X291200Y91842D01*
X291116Y91757D01*
X291035Y91669D01*
X290958Y91579D01*
X290883Y91486D01*
X290811Y91390D01*
X290742Y91292D01*
X290677Y91192D01*
X290615Y91090D01*
X290556Y90986D01*
X290501Y90880D01*
X290450Y90772D01*
X290402Y90663D01*
X290357Y90552D01*
X290317Y90440D01*
X290280Y90326D01*
X290247Y90211D01*
X290217Y90096D01*
X290192Y89979D01*
X290170Y89862D01*
X290153Y89743D01*
X290139Y89625D01*
X290129Y89506D01*
X290123Y89386D01*
X290121Y89267D01*
X290121Y85654D01*
X290123Y85535D01*
X290129Y85415D01*
X290139Y85296D01*
X290153Y85178D01*
X290170Y85059D01*
X290192Y84942D01*
X290217Y84825D01*
X290247Y84710D01*
X290280Y84595D01*
X290317Y84481D01*
X290357Y84369D01*
X290402Y84258D01*
X290450Y84149D01*
X290501Y84041D01*
X290556Y83935D01*
X290615Y83831D01*
X290677Y83729D01*
X290742Y83629D01*
X290811Y83531D01*
X290883Y83435D01*
X290958Y83342D01*
X291035Y83252D01*
X291116Y83164D01*
X291200Y83079D01*
X291287Y82997D01*
X291376Y82917D01*
X291468Y82841D01*
X291562Y82767D01*
X291659Y82697D01*
X291757Y82630D01*
X291858Y82566D01*
X291962Y82506D01*
X292067Y82449D01*
X292174Y82396D01*
X292282Y82346D01*
X292392Y82300D01*
X292504Y82258D01*
X292617Y82219D01*
X292731Y82184D01*
X292846Y82153D01*
X292963Y82125D01*
X293080Y82102D01*
X293197Y82082D01*
X293316Y82066D01*
X293435Y82054D01*
X293554Y82046D01*
X293673Y82042D01*
X293793Y82042D01*
X293912Y82046D01*
X294031Y82054D01*
X294150Y82066D01*
X294269Y82082D01*
X294386Y82102D01*
X294503Y82125D01*
X294620Y82153D01*
X294735Y82184D01*
X294849Y82219D01*
X294962Y82258D01*
X295074Y82300D01*
X295184Y82346D01*
X295292Y82396D01*
X295399Y82449D01*
X295504Y82506D01*
X295608Y82566D01*
X295709Y82630D01*
X295807Y82697D01*
X295904Y82767D01*
X295998Y82841D01*
X296090Y82917D01*
X296179Y82997D01*
X296266Y83079D01*
X296350Y83164D01*
X296431Y83252D01*
X296508Y83342D01*
X296583Y83435D01*
X296655Y83531D01*
X296724Y83629D01*
X296789Y83729D01*
X296851Y83831D01*
X296910Y83935D01*
X296965Y84041D01*
X297016Y84149D01*
X297064Y84258D01*
X297109Y84369D01*
X297149Y84481D01*
X297186Y84595D01*
X297219Y84710D01*
X297249Y84825D01*
X297274Y84942D01*
X297296Y85059D01*
X297313Y85178D01*
X297327Y85296D01*
X297337Y85415D01*
X297343Y85535D01*
X297345Y85654D01*
X274591Y82042D02*
X274591Y98298D01*
X270075Y98298D01*
X269942Y98296D01*
X269810Y98290D01*
X269678Y98280D01*
X269546Y98267D01*
X269414Y98249D01*
X269284Y98228D01*
X269153Y98203D01*
X269024Y98174D01*
X268896Y98141D01*
X268768Y98105D01*
X268642Y98065D01*
X268517Y98021D01*
X268393Y97973D01*
X268271Y97922D01*
X268150Y97867D01*
X268031Y97809D01*
X267913Y97747D01*
X267798Y97682D01*
X267684Y97613D01*
X267573Y97542D01*
X267464Y97466D01*
X267357Y97388D01*
X267252Y97307D01*
X267150Y97222D01*
X267050Y97135D01*
X266953Y97045D01*
X266858Y96952D01*
X266767Y96856D01*
X266678Y96758D01*
X266592Y96657D01*
X266509Y96553D01*
X266429Y96447D01*
X266353Y96339D01*
X266279Y96229D01*
X266209Y96116D01*
X266142Y96002D01*
X266079Y95885D01*
X266019Y95767D01*
X265962Y95647D01*
X265909Y95525D01*
X265860Y95402D01*
X265814Y95278D01*
X265772Y95152D01*
X265734Y95025D01*
X265699Y94897D01*
X265668Y94768D01*
X265641Y94639D01*
X265618Y94508D01*
X265598Y94377D01*
X265583Y94245D01*
X265571Y94113D01*
X265563Y93981D01*
X265559Y93848D01*
X265559Y93716D01*
X265563Y93583D01*
X265571Y93451D01*
X265583Y93319D01*
X265598Y93187D01*
X265618Y93056D01*
X265641Y92925D01*
X265668Y92796D01*
X265699Y92667D01*
X265734Y92539D01*
X265772Y92412D01*
X265814Y92286D01*
X265860Y92162D01*
X265909Y92039D01*
X265962Y91917D01*
X266019Y91797D01*
X266079Y91679D01*
X266142Y91562D01*
X266209Y91448D01*
X266279Y91335D01*
X266353Y91225D01*
X266429Y91117D01*
X266509Y91011D01*
X266592Y90907D01*
X266678Y90806D01*
X266767Y90708D01*
X266858Y90612D01*
X266953Y90519D01*
X267050Y90429D01*
X267150Y90342D01*
X267252Y90257D01*
X267357Y90176D01*
X267464Y90098D01*
X267573Y90022D01*
X267684Y89951D01*
X267798Y89882D01*
X267913Y89817D01*
X268031Y89755D01*
X268150Y89697D01*
X268271Y89642D01*
X268393Y89591D01*
X268517Y89543D01*
X268642Y89499D01*
X268768Y89459D01*
X268896Y89423D01*
X269024Y89390D01*
X269153Y89361D01*
X269284Y89336D01*
X269414Y89315D01*
X269546Y89297D01*
X269678Y89284D01*
X269810Y89274D01*
X269942Y89268D01*
X270075Y89266D01*
X270075Y89267D02*
X274591Y89267D01*
X259225Y92879D02*
X259225Y82042D01*
X259225Y92879D02*
X253806Y92879D01*
X253806Y91073D01*
X248889Y89267D02*
X248889Y85654D01*
X248888Y89267D02*
X248886Y89386D01*
X248880Y89506D01*
X248870Y89625D01*
X248856Y89743D01*
X248839Y89862D01*
X248817Y89979D01*
X248792Y90096D01*
X248762Y90211D01*
X248729Y90326D01*
X248692Y90440D01*
X248652Y90552D01*
X248607Y90663D01*
X248559Y90772D01*
X248508Y90880D01*
X248453Y90986D01*
X248394Y91090D01*
X248332Y91192D01*
X248267Y91292D01*
X248198Y91390D01*
X248126Y91486D01*
X248051Y91579D01*
X247974Y91669D01*
X247893Y91757D01*
X247809Y91842D01*
X247722Y91924D01*
X247633Y92004D01*
X247541Y92080D01*
X247447Y92154D01*
X247350Y92224D01*
X247252Y92291D01*
X247151Y92355D01*
X247047Y92415D01*
X246942Y92472D01*
X246835Y92525D01*
X246727Y92575D01*
X246617Y92621D01*
X246505Y92663D01*
X246392Y92702D01*
X246278Y92737D01*
X246163Y92768D01*
X246046Y92796D01*
X245929Y92819D01*
X245812Y92839D01*
X245693Y92855D01*
X245574Y92867D01*
X245455Y92875D01*
X245336Y92879D01*
X245216Y92879D01*
X245097Y92875D01*
X244978Y92867D01*
X244859Y92855D01*
X244740Y92839D01*
X244623Y92819D01*
X244506Y92796D01*
X244389Y92768D01*
X244274Y92737D01*
X244160Y92702D01*
X244047Y92663D01*
X243935Y92621D01*
X243825Y92575D01*
X243717Y92525D01*
X243610Y92472D01*
X243505Y92415D01*
X243401Y92355D01*
X243300Y92291D01*
X243202Y92224D01*
X243105Y92154D01*
X243011Y92080D01*
X242919Y92004D01*
X242830Y91924D01*
X242743Y91842D01*
X242659Y91757D01*
X242578Y91669D01*
X242501Y91579D01*
X242426Y91486D01*
X242354Y91390D01*
X242285Y91292D01*
X242220Y91192D01*
X242158Y91090D01*
X242099Y90986D01*
X242044Y90880D01*
X241993Y90772D01*
X241945Y90663D01*
X241900Y90552D01*
X241860Y90440D01*
X241823Y90326D01*
X241790Y90211D01*
X241760Y90096D01*
X241735Y89979D01*
X241713Y89862D01*
X241696Y89743D01*
X241682Y89625D01*
X241672Y89506D01*
X241666Y89386D01*
X241664Y89267D01*
X241664Y85654D01*
X241666Y85535D01*
X241672Y85415D01*
X241682Y85296D01*
X241696Y85178D01*
X241713Y85059D01*
X241735Y84942D01*
X241760Y84825D01*
X241790Y84710D01*
X241823Y84595D01*
X241860Y84481D01*
X241900Y84369D01*
X241945Y84258D01*
X241993Y84149D01*
X242044Y84041D01*
X242099Y83935D01*
X242158Y83831D01*
X242220Y83729D01*
X242285Y83629D01*
X242354Y83531D01*
X242426Y83435D01*
X242501Y83342D01*
X242578Y83252D01*
X242659Y83164D01*
X242743Y83079D01*
X242830Y82997D01*
X242919Y82917D01*
X243011Y82841D01*
X243105Y82767D01*
X243202Y82697D01*
X243300Y82630D01*
X243401Y82566D01*
X243505Y82506D01*
X243610Y82449D01*
X243717Y82396D01*
X243825Y82346D01*
X243935Y82300D01*
X244047Y82258D01*
X244160Y82219D01*
X244274Y82184D01*
X244389Y82153D01*
X244506Y82125D01*
X244623Y82102D01*
X244740Y82082D01*
X244859Y82066D01*
X244978Y82054D01*
X245097Y82046D01*
X245216Y82042D01*
X245336Y82042D01*
X245455Y82046D01*
X245574Y82054D01*
X245693Y82066D01*
X245812Y82082D01*
X245929Y82102D01*
X246046Y82125D01*
X246163Y82153D01*
X246278Y82184D01*
X246392Y82219D01*
X246505Y82258D01*
X246617Y82300D01*
X246727Y82346D01*
X246835Y82396D01*
X246942Y82449D01*
X247047Y82506D01*
X247151Y82566D01*
X247252Y82630D01*
X247350Y82697D01*
X247447Y82767D01*
X247541Y82841D01*
X247633Y82917D01*
X247722Y82997D01*
X247809Y83079D01*
X247893Y83164D01*
X247974Y83252D01*
X248051Y83342D01*
X248126Y83435D01*
X248198Y83531D01*
X248267Y83629D01*
X248332Y83729D01*
X248394Y83831D01*
X248453Y83935D01*
X248508Y84041D01*
X248559Y84149D01*
X248607Y84258D01*
X248652Y84369D01*
X248692Y84481D01*
X248729Y84595D01*
X248762Y84710D01*
X248792Y84825D01*
X248817Y84942D01*
X248839Y85059D01*
X248856Y85178D01*
X248870Y85296D01*
X248880Y85415D01*
X248886Y85535D01*
X248888Y85654D01*
X234747Y82042D02*
X234747Y98298D01*
X234747Y82042D02*
X230232Y82042D01*
X230128Y82044D01*
X230025Y82050D01*
X229921Y82060D01*
X229818Y82074D01*
X229716Y82092D01*
X229615Y82113D01*
X229514Y82139D01*
X229415Y82168D01*
X229316Y82201D01*
X229219Y82238D01*
X229124Y82279D01*
X229030Y82323D01*
X228938Y82371D01*
X228848Y82422D01*
X228759Y82477D01*
X228673Y82535D01*
X228590Y82597D01*
X228508Y82661D01*
X228430Y82729D01*
X228354Y82799D01*
X228280Y82872D01*
X228210Y82949D01*
X228142Y83027D01*
X228078Y83109D01*
X228016Y83192D01*
X227958Y83278D01*
X227903Y83367D01*
X227852Y83457D01*
X227804Y83549D01*
X227760Y83643D01*
X227719Y83738D01*
X227682Y83835D01*
X227649Y83934D01*
X227620Y84033D01*
X227594Y84134D01*
X227573Y84235D01*
X227555Y84337D01*
X227541Y84440D01*
X227531Y84544D01*
X227525Y84647D01*
X227523Y84751D01*
X227523Y90170D01*
X227525Y90271D01*
X227531Y90372D01*
X227540Y90473D01*
X227553Y90574D01*
X227570Y90674D01*
X227591Y90773D01*
X227615Y90871D01*
X227643Y90968D01*
X227675Y91065D01*
X227710Y91160D01*
X227749Y91253D01*
X227791Y91345D01*
X227837Y91436D01*
X227886Y91525D01*
X227938Y91611D01*
X227994Y91696D01*
X228052Y91779D01*
X228114Y91859D01*
X228179Y91937D01*
X228246Y92013D01*
X228316Y92086D01*
X228389Y92156D01*
X228465Y92223D01*
X228543Y92288D01*
X228623Y92350D01*
X228706Y92408D01*
X228791Y92464D01*
X228878Y92516D01*
X228966Y92565D01*
X229057Y92611D01*
X229149Y92653D01*
X229242Y92692D01*
X229337Y92727D01*
X229434Y92759D01*
X229531Y92787D01*
X229629Y92811D01*
X229728Y92832D01*
X229828Y92849D01*
X229929Y92862D01*
X230030Y92871D01*
X230131Y92877D01*
X230232Y92879D01*
X234747Y92879D01*
X218564Y82042D02*
X214049Y82042D01*
X218564Y82042D02*
X218665Y82044D01*
X218766Y82050D01*
X218867Y82059D01*
X218968Y82072D01*
X219068Y82089D01*
X219167Y82110D01*
X219265Y82134D01*
X219362Y82162D01*
X219459Y82194D01*
X219554Y82229D01*
X219647Y82268D01*
X219739Y82310D01*
X219830Y82356D01*
X219919Y82405D01*
X220005Y82457D01*
X220090Y82513D01*
X220173Y82571D01*
X220253Y82633D01*
X220331Y82698D01*
X220407Y82765D01*
X220480Y82835D01*
X220550Y82908D01*
X220617Y82984D01*
X220682Y83062D01*
X220744Y83142D01*
X220802Y83225D01*
X220858Y83310D01*
X220910Y83396D01*
X220959Y83485D01*
X221005Y83576D01*
X221047Y83668D01*
X221086Y83761D01*
X221121Y83856D01*
X221153Y83953D01*
X221181Y84050D01*
X221205Y84148D01*
X221226Y84247D01*
X221243Y84347D01*
X221256Y84448D01*
X221265Y84549D01*
X221271Y84650D01*
X221273Y84751D01*
X221274Y84751D02*
X221274Y89267D01*
X221273Y89267D02*
X221271Y89386D01*
X221265Y89506D01*
X221255Y89625D01*
X221241Y89743D01*
X221224Y89862D01*
X221202Y89979D01*
X221177Y90096D01*
X221147Y90211D01*
X221114Y90326D01*
X221077Y90440D01*
X221037Y90552D01*
X220992Y90663D01*
X220944Y90772D01*
X220893Y90880D01*
X220838Y90986D01*
X220779Y91090D01*
X220717Y91192D01*
X220652Y91292D01*
X220583Y91390D01*
X220511Y91486D01*
X220436Y91579D01*
X220359Y91669D01*
X220278Y91757D01*
X220194Y91842D01*
X220107Y91924D01*
X220018Y92004D01*
X219926Y92080D01*
X219832Y92154D01*
X219735Y92224D01*
X219637Y92291D01*
X219536Y92355D01*
X219432Y92415D01*
X219327Y92472D01*
X219220Y92525D01*
X219112Y92575D01*
X219002Y92621D01*
X218890Y92663D01*
X218777Y92702D01*
X218663Y92737D01*
X218548Y92768D01*
X218431Y92796D01*
X218314Y92819D01*
X218197Y92839D01*
X218078Y92855D01*
X217959Y92867D01*
X217840Y92875D01*
X217721Y92879D01*
X217601Y92879D01*
X217482Y92875D01*
X217363Y92867D01*
X217244Y92855D01*
X217125Y92839D01*
X217008Y92819D01*
X216891Y92796D01*
X216774Y92768D01*
X216659Y92737D01*
X216545Y92702D01*
X216432Y92663D01*
X216320Y92621D01*
X216210Y92575D01*
X216102Y92525D01*
X215995Y92472D01*
X215890Y92415D01*
X215786Y92355D01*
X215685Y92291D01*
X215587Y92224D01*
X215490Y92154D01*
X215396Y92080D01*
X215304Y92004D01*
X215215Y91924D01*
X215128Y91842D01*
X215044Y91757D01*
X214963Y91669D01*
X214886Y91579D01*
X214811Y91486D01*
X214739Y91390D01*
X214670Y91292D01*
X214605Y91192D01*
X214543Y91090D01*
X214484Y90986D01*
X214429Y90880D01*
X214378Y90772D01*
X214330Y90663D01*
X214285Y90552D01*
X214245Y90440D01*
X214208Y90326D01*
X214175Y90211D01*
X214145Y90096D01*
X214120Y89979D01*
X214098Y89862D01*
X214081Y89743D01*
X214067Y89625D01*
X214057Y89506D01*
X214051Y89386D01*
X214049Y89267D01*
X214049Y87461D01*
X221274Y87461D01*
X199112Y88364D02*
X188275Y88364D01*
X168232Y98298D02*
X168107Y98296D01*
X167982Y98290D01*
X167857Y98281D01*
X167733Y98267D01*
X167609Y98250D01*
X167485Y98229D01*
X167363Y98204D01*
X167241Y98175D01*
X167120Y98143D01*
X167000Y98107D01*
X166881Y98067D01*
X166764Y98024D01*
X166648Y97977D01*
X166533Y97926D01*
X166421Y97872D01*
X166309Y97814D01*
X166200Y97754D01*
X166093Y97689D01*
X165987Y97622D01*
X165884Y97551D01*
X165783Y97477D01*
X165684Y97400D01*
X165588Y97320D01*
X165494Y97237D01*
X165403Y97152D01*
X165314Y97063D01*
X165229Y96972D01*
X165146Y96878D01*
X165066Y96782D01*
X164989Y96683D01*
X164915Y96582D01*
X164844Y96479D01*
X164777Y96373D01*
X164712Y96266D01*
X164652Y96157D01*
X164594Y96045D01*
X164540Y95933D01*
X164489Y95818D01*
X164442Y95702D01*
X164399Y95585D01*
X164359Y95466D01*
X164323Y95346D01*
X164291Y95225D01*
X164262Y95103D01*
X164237Y94981D01*
X164216Y94857D01*
X164199Y94733D01*
X164185Y94609D01*
X164176Y94484D01*
X164170Y94359D01*
X164168Y94234D01*
X168232Y98298D02*
X168375Y98296D01*
X168517Y98290D01*
X168660Y98280D01*
X168802Y98267D01*
X168943Y98249D01*
X169085Y98228D01*
X169225Y98203D01*
X169365Y98174D01*
X169504Y98141D01*
X169642Y98104D01*
X169779Y98064D01*
X169914Y98020D01*
X170049Y97972D01*
X170182Y97920D01*
X170314Y97865D01*
X170444Y97806D01*
X170572Y97744D01*
X170699Y97678D01*
X170824Y97609D01*
X170947Y97537D01*
X171068Y97461D01*
X171186Y97382D01*
X171303Y97299D01*
X171417Y97214D01*
X171529Y97125D01*
X171638Y97034D01*
X171745Y96939D01*
X171850Y96842D01*
X171951Y96741D01*
X172050Y96638D01*
X172146Y96533D01*
X172239Y96424D01*
X172329Y96313D01*
X172416Y96200D01*
X172500Y96085D01*
X172580Y95967D01*
X172658Y95847D01*
X172732Y95725D01*
X172802Y95601D01*
X172870Y95475D01*
X172933Y95347D01*
X172994Y95218D01*
X173051Y95087D01*
X173104Y94955D01*
X173153Y94821D01*
X173199Y94686D01*
X165523Y91073D02*
X165429Y91165D01*
X165339Y91259D01*
X165251Y91356D01*
X165166Y91456D01*
X165084Y91558D01*
X165005Y91663D01*
X164930Y91770D01*
X164858Y91879D01*
X164789Y91990D01*
X164723Y92104D01*
X164661Y92219D01*
X164602Y92336D01*
X164547Y92455D01*
X164496Y92575D01*
X164448Y92697D01*
X164403Y92820D01*
X164363Y92944D01*
X164326Y93070D01*
X164293Y93197D01*
X164264Y93324D01*
X164238Y93453D01*
X164217Y93582D01*
X164199Y93712D01*
X164186Y93842D01*
X164176Y93972D01*
X164170Y94103D01*
X164168Y94234D01*
X165523Y91073D02*
X173199Y82042D01*
X164168Y82042D01*
X157568Y90170D02*
X157564Y90490D01*
X157553Y90809D01*
X157534Y91129D01*
X157507Y91447D01*
X157473Y91765D01*
X157431Y92082D01*
X157381Y92398D01*
X157324Y92713D01*
X157260Y93026D01*
X157188Y93338D01*
X157109Y93648D01*
X157022Y93955D01*
X156928Y94261D01*
X156827Y94564D01*
X156718Y94865D01*
X156603Y95163D01*
X156480Y95459D01*
X156350Y95751D01*
X156213Y96040D01*
X156213Y96041D02*
X156174Y96149D01*
X156131Y96256D01*
X156085Y96361D01*
X156034Y96465D01*
X155981Y96567D01*
X155924Y96667D01*
X155863Y96765D01*
X155799Y96860D01*
X155732Y96954D01*
X155661Y97045D01*
X155588Y97134D01*
X155511Y97220D01*
X155432Y97303D01*
X155350Y97384D01*
X155265Y97462D01*
X155177Y97536D01*
X155087Y97608D01*
X154995Y97676D01*
X154900Y97742D01*
X154803Y97804D01*
X154704Y97862D01*
X154602Y97918D01*
X154500Y97969D01*
X154395Y98017D01*
X154289Y98062D01*
X154181Y98103D01*
X154072Y98140D01*
X153962Y98173D01*
X153850Y98202D01*
X153738Y98228D01*
X153625Y98250D01*
X153511Y98267D01*
X153397Y98281D01*
X153282Y98291D01*
X153167Y98297D01*
X153052Y98299D01*
X153052Y98298D02*
X152937Y98296D01*
X152822Y98290D01*
X152707Y98280D01*
X152593Y98266D01*
X152479Y98249D01*
X152366Y98227D01*
X152254Y98201D01*
X152142Y98172D01*
X152032Y98139D01*
X151923Y98102D01*
X151815Y98061D01*
X151709Y98016D01*
X151605Y97968D01*
X151502Y97917D01*
X151401Y97861D01*
X151301Y97803D01*
X151204Y97741D01*
X151110Y97676D01*
X151017Y97607D01*
X150927Y97535D01*
X150839Y97461D01*
X150754Y97383D01*
X150672Y97302D01*
X150593Y97219D01*
X150516Y97133D01*
X150443Y97044D01*
X150372Y96953D01*
X150305Y96859D01*
X150241Y96764D01*
X150180Y96666D01*
X150123Y96566D01*
X150070Y96464D01*
X150019Y96360D01*
X149973Y96255D01*
X149930Y96148D01*
X149891Y96040D01*
X149892Y96040D02*
X149755Y95751D01*
X149625Y95459D01*
X149502Y95163D01*
X149387Y94865D01*
X149278Y94564D01*
X149177Y94261D01*
X149083Y93955D01*
X148996Y93648D01*
X148917Y93338D01*
X148845Y93026D01*
X148781Y92713D01*
X148724Y92398D01*
X148674Y92082D01*
X148632Y91765D01*
X148598Y91447D01*
X148571Y91129D01*
X148552Y90809D01*
X148541Y90490D01*
X148537Y90170D01*
X157567Y90170D02*
X157563Y89850D01*
X157552Y89531D01*
X157533Y89211D01*
X157506Y88893D01*
X157472Y88575D01*
X157430Y88258D01*
X157380Y87942D01*
X157323Y87627D01*
X157259Y87314D01*
X157187Y87002D01*
X157108Y86692D01*
X157021Y86385D01*
X156927Y86079D01*
X156826Y85776D01*
X156717Y85475D01*
X156602Y85177D01*
X156479Y84881D01*
X156349Y84589D01*
X156212Y84300D01*
X156213Y84300D02*
X156174Y84192D01*
X156131Y84085D01*
X156085Y83980D01*
X156034Y83876D01*
X155981Y83774D01*
X155924Y83674D01*
X155863Y83576D01*
X155799Y83481D01*
X155732Y83387D01*
X155661Y83296D01*
X155588Y83207D01*
X155511Y83121D01*
X155432Y83038D01*
X155350Y82957D01*
X155265Y82879D01*
X155177Y82805D01*
X155087Y82733D01*
X154994Y82664D01*
X154900Y82599D01*
X154803Y82537D01*
X154703Y82479D01*
X154602Y82423D01*
X154500Y82372D01*
X154395Y82324D01*
X154289Y82279D01*
X154181Y82238D01*
X154072Y82201D01*
X153962Y82168D01*
X153850Y82139D01*
X153738Y82113D01*
X153625Y82091D01*
X153511Y82074D01*
X153397Y82060D01*
X153282Y82050D01*
X153167Y82044D01*
X153052Y82042D01*
X149892Y84300D02*
X149755Y84589D01*
X149625Y84881D01*
X149502Y85177D01*
X149387Y85475D01*
X149278Y85776D01*
X149177Y86079D01*
X149083Y86385D01*
X148996Y86692D01*
X148917Y87002D01*
X148845Y87314D01*
X148781Y87627D01*
X148724Y87942D01*
X148674Y88258D01*
X148632Y88575D01*
X148598Y88893D01*
X148571Y89211D01*
X148552Y89531D01*
X148541Y89850D01*
X148537Y90170D01*
X149891Y84300D02*
X149930Y84192D01*
X149973Y84085D01*
X150019Y83980D01*
X150070Y83876D01*
X150123Y83774D01*
X150181Y83674D01*
X150241Y83576D01*
X150305Y83481D01*
X150372Y83387D01*
X150443Y83296D01*
X150516Y83207D01*
X150593Y83121D01*
X150672Y83038D01*
X150754Y82957D01*
X150839Y82879D01*
X150927Y82805D01*
X151017Y82733D01*
X151110Y82664D01*
X151204Y82599D01*
X151301Y82537D01*
X151401Y82479D01*
X151502Y82423D01*
X151605Y82372D01*
X151709Y82324D01*
X151815Y82279D01*
X151923Y82238D01*
X152032Y82201D01*
X152142Y82168D01*
X152254Y82139D01*
X152366Y82113D01*
X152479Y82091D01*
X152593Y82074D01*
X152707Y82060D01*
X152822Y82050D01*
X152937Y82044D01*
X153052Y82042D01*
X156665Y85654D02*
X149440Y94686D01*
X136970Y98298D02*
X136845Y98296D01*
X136720Y98290D01*
X136595Y98281D01*
X136471Y98267D01*
X136347Y98250D01*
X136223Y98229D01*
X136101Y98204D01*
X135979Y98175D01*
X135858Y98143D01*
X135738Y98107D01*
X135619Y98067D01*
X135502Y98024D01*
X135386Y97977D01*
X135271Y97926D01*
X135159Y97872D01*
X135047Y97814D01*
X134938Y97754D01*
X134831Y97689D01*
X134725Y97622D01*
X134622Y97551D01*
X134521Y97477D01*
X134422Y97400D01*
X134326Y97320D01*
X134232Y97237D01*
X134141Y97152D01*
X134052Y97063D01*
X133967Y96972D01*
X133884Y96878D01*
X133804Y96782D01*
X133727Y96683D01*
X133653Y96582D01*
X133582Y96479D01*
X133515Y96373D01*
X133450Y96266D01*
X133390Y96157D01*
X133332Y96045D01*
X133278Y95933D01*
X133227Y95818D01*
X133180Y95702D01*
X133137Y95585D01*
X133097Y95466D01*
X133061Y95346D01*
X133029Y95225D01*
X133000Y95103D01*
X132975Y94981D01*
X132954Y94857D01*
X132937Y94733D01*
X132923Y94609D01*
X132914Y94484D01*
X132908Y94359D01*
X132906Y94234D01*
X136970Y98298D02*
X137113Y98296D01*
X137255Y98290D01*
X137398Y98280D01*
X137540Y98267D01*
X137681Y98249D01*
X137823Y98228D01*
X137963Y98203D01*
X138103Y98174D01*
X138242Y98141D01*
X138380Y98104D01*
X138517Y98064D01*
X138652Y98020D01*
X138787Y97972D01*
X138920Y97920D01*
X139052Y97865D01*
X139182Y97806D01*
X139310Y97744D01*
X139437Y97678D01*
X139562Y97609D01*
X139685Y97537D01*
X139806Y97461D01*
X139924Y97382D01*
X140041Y97299D01*
X140155Y97214D01*
X140267Y97125D01*
X140376Y97034D01*
X140483Y96939D01*
X140588Y96842D01*
X140689Y96741D01*
X140788Y96638D01*
X140884Y96533D01*
X140977Y96424D01*
X141067Y96313D01*
X141154Y96200D01*
X141238Y96085D01*
X141318Y95967D01*
X141396Y95847D01*
X141470Y95725D01*
X141540Y95601D01*
X141608Y95475D01*
X141671Y95347D01*
X141732Y95218D01*
X141789Y95087D01*
X141842Y94955D01*
X141891Y94821D01*
X141937Y94686D01*
X134261Y91073D02*
X134167Y91165D01*
X134077Y91259D01*
X133989Y91356D01*
X133904Y91456D01*
X133822Y91558D01*
X133743Y91663D01*
X133668Y91770D01*
X133596Y91879D01*
X133527Y91990D01*
X133461Y92104D01*
X133399Y92219D01*
X133340Y92336D01*
X133285Y92455D01*
X133234Y92575D01*
X133186Y92697D01*
X133141Y92820D01*
X133101Y92944D01*
X133064Y93070D01*
X133031Y93197D01*
X133002Y93324D01*
X132976Y93453D01*
X132955Y93582D01*
X132937Y93712D01*
X132924Y93842D01*
X132914Y93972D01*
X132908Y94103D01*
X132906Y94234D01*
X134260Y91073D02*
X141937Y82042D01*
X132906Y82042D01*
X126305Y94686D02*
X121790Y98298D01*
X121790Y82042D01*
X126305Y82042D02*
X117274Y82042D01*
D11*
X129254Y101600D03*
D12*
X111566Y101600D03*
D11*
X351542Y101732D03*
D13*
X331412Y101732D03*
X311480Y101732D03*
D11*
X300854Y101732D03*
D14*
X282308Y101732D03*
X261452Y101732D03*
D15*
X253268Y101732D03*
D11*
X224294Y101732D03*
D14*
X216176Y101732D03*
D16*
X182054Y101732D03*
D17*
X145160Y101732D03*
D11*
X129254Y101732D03*
D13*
X111632Y101732D03*
D11*
X351542Y101864D03*
D13*
X331412Y101864D03*
X311612Y101864D03*
D11*
X300854Y101864D03*
D14*
X282308Y101864D03*
X261452Y101864D03*
X253268Y101864D03*
D11*
X224294Y101864D03*
D14*
X216176Y101864D03*
D18*
X181592Y101864D03*
D19*
X145490Y101864D03*
D11*
X129254Y101864D03*
D13*
X111764Y101864D03*
D11*
X351542Y101996D03*
D13*
X331280Y101996D03*
X311612Y101996D03*
D11*
X300854Y101996D03*
D14*
X282308Y101996D03*
X261452Y101996D03*
X253268Y101996D03*
D11*
X224294Y101996D03*
D14*
X216176Y101996D03*
D20*
X181328Y101996D03*
D21*
X145688Y101996D03*
D11*
X129254Y101996D03*
D13*
X111764Y101996D03*
D11*
X351542Y102128D03*
D13*
X331280Y102128D03*
X311744Y102128D03*
D11*
X300854Y102128D03*
D14*
X282308Y102128D03*
X261452Y102128D03*
X253268Y102128D03*
D11*
X224294Y102128D03*
D14*
X216176Y102128D03*
D22*
X181064Y102128D03*
D23*
X145886Y102128D03*
D11*
X129254Y102128D03*
D13*
X111896Y102128D03*
D11*
X351542Y102260D03*
D13*
X331148Y102260D03*
X311744Y102260D03*
D11*
X300854Y102260D03*
D14*
X282308Y102260D03*
X261452Y102260D03*
X253268Y102260D03*
D11*
X224294Y102260D03*
D14*
X216176Y102260D03*
D24*
X180866Y102260D03*
D25*
X146018Y102260D03*
D11*
X129254Y102260D03*
D13*
X111896Y102260D03*
D11*
X351542Y102392D03*
D13*
X331148Y102392D03*
X311876Y102392D03*
D11*
X300854Y102392D03*
D14*
X282308Y102392D03*
X261452Y102392D03*
X253268Y102392D03*
D11*
X224294Y102392D03*
D14*
X216176Y102392D03*
D26*
X180668Y102392D03*
D27*
X146150Y102392D03*
D11*
X129254Y102392D03*
D13*
X112028Y102392D03*
D11*
X351542Y102524D03*
D13*
X331016Y102524D03*
X311876Y102524D03*
D11*
X300854Y102524D03*
D14*
X282308Y102524D03*
X261452Y102524D03*
X253268Y102524D03*
D11*
X224294Y102524D03*
D14*
X216176Y102524D03*
D28*
X193868Y102524D03*
D29*
X180470Y102524D03*
D30*
X146282Y102524D03*
D11*
X129254Y102524D03*
D13*
X112028Y102524D03*
D11*
X351542Y102656D03*
D13*
X331016Y102656D03*
X312008Y102656D03*
D11*
X300854Y102656D03*
D14*
X282308Y102656D03*
X261452Y102656D03*
X253268Y102656D03*
D11*
X224294Y102656D03*
D14*
X216176Y102656D03*
D31*
X193934Y102656D03*
D32*
X180338Y102656D03*
D33*
X146348Y102656D03*
D11*
X129254Y102656D03*
D13*
X112160Y102656D03*
D11*
X351542Y102788D03*
D13*
X330884Y102788D03*
X312008Y102788D03*
D11*
X300854Y102788D03*
D14*
X282308Y102788D03*
X261452Y102788D03*
X253268Y102788D03*
D11*
X224294Y102788D03*
D14*
X216176Y102788D03*
D34*
X194066Y102788D03*
D35*
X180206Y102788D03*
D36*
X146480Y102788D03*
D11*
X129254Y102788D03*
D13*
X112160Y102788D03*
D11*
X351542Y102920D03*
D13*
X330884Y102920D03*
X312140Y102920D03*
D11*
X300854Y102920D03*
D14*
X282308Y102920D03*
X261452Y102920D03*
X253268Y102920D03*
D11*
X224294Y102920D03*
D14*
X216176Y102920D03*
D37*
X194132Y102920D03*
D38*
X180074Y102920D03*
D39*
X146546Y102920D03*
D11*
X129254Y102920D03*
D13*
X112292Y102920D03*
D11*
X351542Y103052D03*
D13*
X330752Y103052D03*
X312140Y103052D03*
D11*
X300854Y103052D03*
D14*
X282308Y103052D03*
X261452Y103052D03*
X253268Y103052D03*
D11*
X224294Y103052D03*
D14*
X216176Y103052D03*
D40*
X194198Y103052D03*
D41*
X179942Y103052D03*
D42*
X146612Y103052D03*
D11*
X129254Y103052D03*
D13*
X112292Y103052D03*
D11*
X351542Y103184D03*
D13*
X330752Y103184D03*
X312272Y103184D03*
D11*
X300854Y103184D03*
D14*
X282308Y103184D03*
X261452Y103184D03*
X253268Y103184D03*
D11*
X224294Y103184D03*
D14*
X216176Y103184D03*
D43*
X194330Y103184D03*
D44*
X179810Y103184D03*
D45*
X146678Y103184D03*
D11*
X129254Y103184D03*
D13*
X112424Y103184D03*
D11*
X351542Y103316D03*
D13*
X330620Y103316D03*
X312272Y103316D03*
D11*
X300854Y103316D03*
D14*
X282308Y103316D03*
X261452Y103316D03*
X253268Y103316D03*
D11*
X224294Y103316D03*
D14*
X216176Y103316D03*
D46*
X194396Y103316D03*
D47*
X179678Y103316D03*
D48*
X146810Y103316D03*
D11*
X129254Y103316D03*
D13*
X112424Y103316D03*
D11*
X351542Y103448D03*
D13*
X330620Y103448D03*
X312404Y103448D03*
D11*
X300854Y103448D03*
D14*
X282308Y103448D03*
X261452Y103448D03*
X253268Y103448D03*
D11*
X224294Y103448D03*
D14*
X216176Y103448D03*
D49*
X194462Y103448D03*
D50*
X179612Y103448D03*
D51*
X146876Y103448D03*
D11*
X129254Y103448D03*
D13*
X112556Y103448D03*
D11*
X351542Y103580D03*
D13*
X330488Y103580D03*
X312404Y103580D03*
D11*
X300854Y103580D03*
D14*
X282308Y103580D03*
X261452Y103580D03*
X253268Y103580D03*
D11*
X224294Y103580D03*
D14*
X216176Y103580D03*
D52*
X194594Y103580D03*
D53*
X179480Y103580D03*
D54*
X146942Y103580D03*
D11*
X129254Y103580D03*
D13*
X112556Y103580D03*
D11*
X351542Y103712D03*
D55*
X330422Y103712D03*
D13*
X312536Y103712D03*
D11*
X300854Y103712D03*
D14*
X282308Y103712D03*
X261452Y103712D03*
X253268Y103712D03*
D11*
X224294Y103712D03*
D14*
X216176Y103712D03*
D56*
X194660Y103712D03*
D57*
X179414Y103712D03*
D54*
X146942Y103712D03*
D11*
X129254Y103712D03*
D13*
X112688Y103712D03*
D11*
X351542Y103844D03*
D13*
X330356Y103844D03*
X312536Y103844D03*
D11*
X300854Y103844D03*
D14*
X282308Y103844D03*
X261452Y103844D03*
X253268Y103844D03*
D11*
X224294Y103844D03*
D14*
X216176Y103844D03*
D58*
X194726Y103844D03*
D59*
X179282Y103844D03*
D60*
X147008Y103844D03*
D11*
X129254Y103844D03*
D13*
X112688Y103844D03*
D11*
X351542Y103976D03*
D55*
X330290Y103976D03*
D13*
X312668Y103976D03*
D11*
X300854Y103976D03*
D14*
X282308Y103976D03*
X261452Y103976D03*
X253268Y103976D03*
D11*
X224294Y103976D03*
D14*
X216176Y103976D03*
D61*
X194792Y103976D03*
D62*
X179216Y103976D03*
D63*
X147074Y103976D03*
D11*
X129254Y103976D03*
D13*
X112820Y103976D03*
D11*
X351542Y104108D03*
D13*
X330224Y104108D03*
X312668Y104108D03*
D11*
X300854Y104108D03*
D14*
X282308Y104108D03*
X261452Y104108D03*
X253268Y104108D03*
D11*
X224294Y104108D03*
D14*
X216176Y104108D03*
D64*
X194924Y104108D03*
D65*
X179084Y104108D03*
D66*
X147140Y104108D03*
D11*
X129254Y104108D03*
D13*
X112820Y104108D03*
D11*
X351542Y104240D03*
D55*
X330158Y104240D03*
D13*
X312800Y104240D03*
D11*
X300854Y104240D03*
D14*
X282308Y104240D03*
X261452Y104240D03*
X253268Y104240D03*
D11*
X224294Y104240D03*
D14*
X216176Y104240D03*
D67*
X194990Y104240D03*
D19*
X179018Y104240D03*
D68*
X147206Y104240D03*
D11*
X129254Y104240D03*
D13*
X112952Y104240D03*
D11*
X351542Y104372D03*
D13*
X330092Y104372D03*
D55*
X312866Y104372D03*
D11*
X300854Y104372D03*
D14*
X282308Y104372D03*
X261452Y104372D03*
X253268Y104372D03*
D11*
X224294Y104372D03*
D14*
X216176Y104372D03*
D69*
X195056Y104372D03*
D70*
X178952Y104372D03*
D68*
X147206Y104372D03*
D11*
X129254Y104372D03*
D13*
X112952Y104372D03*
D11*
X351542Y104504D03*
D55*
X330026Y104504D03*
D13*
X312932Y104504D03*
D11*
X300854Y104504D03*
D14*
X282308Y104504D03*
X261452Y104504D03*
X253268Y104504D03*
D11*
X224294Y104504D03*
D14*
X216176Y104504D03*
D15*
X195188Y104504D03*
D71*
X178886Y104504D03*
D72*
X147272Y104504D03*
D11*
X129254Y104504D03*
D13*
X113084Y104504D03*
D11*
X351542Y104636D03*
D13*
X329960Y104636D03*
D55*
X312998Y104636D03*
D11*
X300854Y104636D03*
D14*
X282308Y104636D03*
X261452Y104636D03*
X253268Y104636D03*
D11*
X224294Y104636D03*
D14*
X216176Y104636D03*
D11*
X195254Y104636D03*
D55*
X186938Y104636D03*
D73*
X172418Y104636D03*
D74*
X156248Y104636D03*
D11*
X129254Y104636D03*
D13*
X113084Y104636D03*
D11*
X351542Y104768D03*
D13*
X329828Y104768D03*
X313064Y104768D03*
D11*
X300854Y104768D03*
D14*
X282308Y104768D03*
X261452Y104768D03*
X253268Y104768D03*
D11*
X224294Y104768D03*
D14*
X216176Y104768D03*
X195320Y104768D03*
D13*
X187004Y104768D03*
D75*
X171956Y104768D03*
D76*
X156644Y104768D03*
D11*
X129254Y104768D03*
D13*
X113216Y104768D03*
D11*
X351542Y104900D03*
D13*
X329828Y104900D03*
D55*
X313130Y104900D03*
D11*
X300854Y104900D03*
D14*
X282308Y104900D03*
X261452Y104900D03*
X253268Y104900D03*
D11*
X224294Y104900D03*
D14*
X216176Y104900D03*
D13*
X195452Y104900D03*
D12*
X187070Y104900D03*
D77*
X171494Y104900D03*
D78*
X156908Y104900D03*
D11*
X129254Y104900D03*
D55*
X113282Y104900D03*
D11*
X351542Y105032D03*
D13*
X329696Y105032D03*
X313196Y105032D03*
D11*
X300854Y105032D03*
D14*
X282308Y105032D03*
X261452Y105032D03*
X253268Y105032D03*
D11*
X224294Y105032D03*
D14*
X216176Y105032D03*
D55*
X195518Y105032D03*
D14*
X187136Y105032D03*
D79*
X171230Y105032D03*
D80*
X157040Y105032D03*
D11*
X129254Y105032D03*
D13*
X113348Y105032D03*
D11*
X351542Y105164D03*
D13*
X329696Y105164D03*
X313328Y105164D03*
D11*
X300854Y105164D03*
D14*
X282308Y105164D03*
X261452Y105164D03*
X253268Y105164D03*
D11*
X224294Y105164D03*
D14*
X216176Y105164D03*
D81*
X195584Y105164D03*
D14*
X187136Y105164D03*
D82*
X170966Y105164D03*
D80*
X157172Y105164D03*
D11*
X129254Y105164D03*
D55*
X113414Y105164D03*
D11*
X351542Y105296D03*
D13*
X329564Y105296D03*
X313328Y105296D03*
D11*
X300854Y105296D03*
D14*
X282308Y105296D03*
X261452Y105296D03*
X253268Y105296D03*
D11*
X224294Y105296D03*
D14*
X216176Y105296D03*
D83*
X195650Y105296D03*
D11*
X187202Y105296D03*
D74*
X170768Y105296D03*
D81*
X157304Y105296D03*
D11*
X129254Y105296D03*
D13*
X113480Y105296D03*
D11*
X351542Y105428D03*
D13*
X329564Y105428D03*
X313460Y105428D03*
D11*
X300854Y105428D03*
D14*
X282308Y105428D03*
X261452Y105428D03*
X253268Y105428D03*
D11*
X224294Y105428D03*
D14*
X216176Y105428D03*
D84*
X195782Y105428D03*
D11*
X187202Y105428D03*
D85*
X170504Y105428D03*
D81*
X157436Y105428D03*
D11*
X129254Y105428D03*
D55*
X113546Y105428D03*
D11*
X351542Y105560D03*
D13*
X329432Y105560D03*
X313460Y105560D03*
D11*
X300854Y105560D03*
D14*
X282308Y105560D03*
X261452Y105560D03*
X253268Y105560D03*
D11*
X224294Y105560D03*
D14*
X216176Y105560D03*
D78*
X195848Y105560D03*
D11*
X187202Y105560D03*
D86*
X170306Y105560D03*
D55*
X157502Y105560D03*
D11*
X129254Y105560D03*
D13*
X113612Y105560D03*
D11*
X351542Y105692D03*
D13*
X329432Y105692D03*
X313592Y105692D03*
D11*
X300854Y105692D03*
D14*
X282308Y105692D03*
X261452Y105692D03*
X253268Y105692D03*
D11*
X224294Y105692D03*
D14*
X216176Y105692D03*
D87*
X195914Y105692D03*
D11*
X187202Y105692D03*
D88*
X170174Y105692D03*
D13*
X157568Y105692D03*
D11*
X129254Y105692D03*
D55*
X113678Y105692D03*
D11*
X351542Y105824D03*
D13*
X329300Y105824D03*
X313592Y105824D03*
D11*
X300854Y105824D03*
D14*
X282308Y105824D03*
X261452Y105824D03*
X253268Y105824D03*
D11*
X224294Y105824D03*
D14*
X216176Y105824D03*
D88*
X196046Y105824D03*
D11*
X187202Y105824D03*
D88*
X170042Y105824D03*
D13*
X157700Y105824D03*
D11*
X129254Y105824D03*
D13*
X113744Y105824D03*
D11*
X351542Y105956D03*
D13*
X329300Y105956D03*
X313724Y105956D03*
D11*
X300854Y105956D03*
D14*
X282308Y105956D03*
X261452Y105956D03*
X253268Y105956D03*
D11*
X224294Y105956D03*
D14*
X216176Y105956D03*
D89*
X196112Y105956D03*
D11*
X187202Y105956D03*
D76*
X169844Y105956D03*
D12*
X157766Y105956D03*
D11*
X129254Y105956D03*
D55*
X113810Y105956D03*
D11*
X351542Y106088D03*
D13*
X329168Y106088D03*
X313724Y106088D03*
D11*
X300854Y106088D03*
D14*
X282308Y106088D03*
X261452Y106088D03*
X253268Y106088D03*
D11*
X224294Y106088D03*
D14*
X216176Y106088D03*
D86*
X196178Y106088D03*
D11*
X187202Y106088D03*
D76*
X169712Y106088D03*
D12*
X157766Y106088D03*
D11*
X129254Y106088D03*
D13*
X113876Y106088D03*
D11*
X351542Y106220D03*
D13*
X329168Y106220D03*
X313856Y106220D03*
D11*
X300854Y106220D03*
D14*
X282308Y106220D03*
X261452Y106220D03*
X253268Y106220D03*
D11*
X224294Y106220D03*
D14*
X216176Y106220D03*
D90*
X196310Y106220D03*
D11*
X187202Y106220D03*
D87*
X169514Y106220D03*
D12*
X157898Y106220D03*
D11*
X129254Y106220D03*
D55*
X113942Y106220D03*
D11*
X351542Y106352D03*
D13*
X329036Y106352D03*
X313856Y106352D03*
D11*
X300854Y106352D03*
D14*
X282308Y106352D03*
X261452Y106352D03*
X253268Y106352D03*
D11*
X224294Y106352D03*
D14*
X216176Y106352D03*
D74*
X196376Y106352D03*
D11*
X187202Y106352D03*
D87*
X169382Y106352D03*
D12*
X157898Y106352D03*
D11*
X129254Y106352D03*
D13*
X114008Y106352D03*
D11*
X351542Y106484D03*
D13*
X329036Y106484D03*
X313988Y106484D03*
D11*
X300854Y106484D03*
D14*
X282308Y106484D03*
X261452Y106484D03*
X253268Y106484D03*
D11*
X224294Y106484D03*
D14*
X216176Y106484D03*
D82*
X196442Y106484D03*
D11*
X187202Y106484D03*
D84*
X169250Y106484D03*
D14*
X157964Y106484D03*
D11*
X129254Y106484D03*
D55*
X114074Y106484D03*
D11*
X351542Y106616D03*
D13*
X328904Y106616D03*
X313988Y106616D03*
D11*
X300854Y106616D03*
D14*
X282308Y106616D03*
X261452Y106616D03*
X253268Y106616D03*
D11*
X224294Y106616D03*
D14*
X216176Y106616D03*
D91*
X196508Y106616D03*
D11*
X187202Y106616D03*
D84*
X169118Y106616D03*
D14*
X157964Y106616D03*
D11*
X129254Y106616D03*
D13*
X114140Y106616D03*
D11*
X351542Y106748D03*
D13*
X328904Y106748D03*
X314120Y106748D03*
D11*
X300854Y106748D03*
D14*
X282308Y106748D03*
X261452Y106748D03*
X253268Y106748D03*
D11*
X224294Y106748D03*
D14*
X216176Y106748D03*
D92*
X196640Y106748D03*
D11*
X187202Y106748D03*
D84*
X168986Y106748D03*
D11*
X158030Y106748D03*
X129254Y106748D03*
D55*
X114206Y106748D03*
D11*
X351542Y106880D03*
D13*
X328772Y106880D03*
X314120Y106880D03*
D11*
X300854Y106880D03*
D14*
X282308Y106880D03*
X261452Y106880D03*
X253268Y106880D03*
D11*
X224294Y106880D03*
D14*
X216176Y106880D03*
D87*
X210038Y106880D03*
D77*
X196706Y106880D03*
D11*
X187202Y106880D03*
D84*
X168854Y106880D03*
D14*
X158096Y106880D03*
D11*
X129254Y106880D03*
D13*
X114272Y106880D03*
D11*
X351542Y107012D03*
D13*
X328772Y107012D03*
X314252Y107012D03*
D11*
X300854Y107012D03*
D14*
X282308Y107012D03*
X261452Y107012D03*
X253268Y107012D03*
D11*
X224294Y107012D03*
D14*
X216176Y107012D03*
D93*
X209180Y107012D03*
D94*
X196772Y107012D03*
D11*
X187202Y107012D03*
D80*
X168788Y107012D03*
D14*
X158096Y107012D03*
D11*
X129254Y107012D03*
D55*
X114338Y107012D03*
D11*
X351542Y107144D03*
D13*
X328640Y107144D03*
X314252Y107144D03*
D11*
X300854Y107144D03*
D14*
X282308Y107144D03*
X261452Y107144D03*
X253268Y107144D03*
D11*
X224294Y107144D03*
D14*
X216176Y107144D03*
D95*
X208388Y107144D03*
D75*
X196904Y107144D03*
D11*
X187202Y107144D03*
D80*
X168656Y107144D03*
D14*
X158096Y107144D03*
D11*
X129254Y107144D03*
D13*
X114404Y107144D03*
D11*
X351542Y107276D03*
D13*
X328640Y107276D03*
X314384Y107276D03*
D11*
X300854Y107276D03*
D14*
X282308Y107276D03*
X261452Y107276D03*
X253268Y107276D03*
D11*
X224294Y107276D03*
D14*
X216176Y107276D03*
D96*
X207926Y107276D03*
D97*
X196970Y107276D03*
D11*
X187202Y107276D03*
D80*
X168524Y107276D03*
D11*
X158162Y107276D03*
X129254Y107276D03*
D55*
X114470Y107276D03*
D11*
X351542Y107408D03*
D13*
X328508Y107408D03*
X314384Y107408D03*
D11*
X300854Y107408D03*
D14*
X282308Y107408D03*
X261452Y107408D03*
X253268Y107408D03*
D11*
X224294Y107408D03*
D14*
X216176Y107408D03*
D98*
X207992Y107408D03*
D99*
X197036Y107408D03*
D11*
X187202Y107408D03*
D83*
X168458Y107408D03*
D11*
X158162Y107408D03*
X129254Y107408D03*
D13*
X114536Y107408D03*
D11*
X351542Y107540D03*
D13*
X328508Y107540D03*
X314516Y107540D03*
D11*
X300854Y107540D03*
D14*
X282308Y107540D03*
X261452Y107540D03*
X253268Y107540D03*
D11*
X224294Y107540D03*
D14*
X216176Y107540D03*
D100*
X208058Y107540D03*
D101*
X197168Y107540D03*
D11*
X187202Y107540D03*
D83*
X168326Y107540D03*
D11*
X158162Y107540D03*
X129254Y107540D03*
D55*
X114602Y107540D03*
D11*
X351542Y107672D03*
D13*
X328376Y107672D03*
X314516Y107672D03*
D11*
X300854Y107672D03*
D14*
X282308Y107672D03*
X261452Y107672D03*
X253268Y107672D03*
D11*
X224294Y107672D03*
D43*
X219674Y107672D03*
D14*
X216176Y107672D03*
D102*
X208124Y107672D03*
D73*
X197234Y107672D03*
D11*
X187202Y107672D03*
D81*
X168260Y107672D03*
D11*
X158162Y107672D03*
X129254Y107672D03*
D13*
X114668Y107672D03*
D11*
X351542Y107804D03*
D13*
X328376Y107804D03*
X314648Y107804D03*
D11*
X300854Y107804D03*
D14*
X282308Y107804D03*
X261452Y107804D03*
X253268Y107804D03*
D11*
X224294Y107804D03*
D58*
X220070Y107804D03*
D14*
X216176Y107804D03*
D103*
X208256Y107804D03*
D104*
X197300Y107804D03*
D11*
X187202Y107804D03*
D81*
X168128Y107804D03*
D11*
X158162Y107804D03*
X129254Y107804D03*
D55*
X114734Y107804D03*
D11*
X351542Y107936D03*
D13*
X328244Y107936D03*
X314648Y107936D03*
D11*
X300854Y107936D03*
D14*
X282308Y107936D03*
X261452Y107936D03*
X253268Y107936D03*
D11*
X224294Y107936D03*
D105*
X220202Y107936D03*
D14*
X216176Y107936D03*
D106*
X208322Y107936D03*
D107*
X197366Y107936D03*
D11*
X187202Y107936D03*
D55*
X168062Y107936D03*
D11*
X158162Y107936D03*
X129254Y107936D03*
D13*
X114800Y107936D03*
D11*
X351542Y108068D03*
D13*
X328244Y108068D03*
X314780Y108068D03*
D11*
X300854Y108068D03*
D14*
X282308Y108068D03*
X261452Y108068D03*
X253268Y108068D03*
D11*
X224294Y108068D03*
D105*
X220202Y108068D03*
D14*
X216176Y108068D03*
D95*
X208388Y108068D03*
D108*
X197498Y108068D03*
D11*
X187202Y108068D03*
D55*
X167930Y108068D03*
D11*
X158162Y108068D03*
X129254Y108068D03*
D55*
X114866Y108068D03*
D11*
X351542Y108200D03*
D13*
X328112Y108200D03*
X314780Y108200D03*
D11*
X300854Y108200D03*
D14*
X282308Y108200D03*
X261452Y108200D03*
X253268Y108200D03*
D11*
X224294Y108200D03*
D105*
X220202Y108200D03*
D14*
X216176Y108200D03*
D109*
X208454Y108200D03*
D110*
X197564Y108200D03*
D11*
X187202Y108200D03*
D55*
X167930Y108200D03*
D11*
X158162Y108200D03*
X129254Y108200D03*
D13*
X114932Y108200D03*
D11*
X351542Y108332D03*
D13*
X328112Y108332D03*
X314912Y108332D03*
D11*
X300854Y108332D03*
D14*
X282308Y108332D03*
X261452Y108332D03*
X253268Y108332D03*
D11*
X224294Y108332D03*
D105*
X220202Y108332D03*
D14*
X216176Y108332D03*
D111*
X208586Y108332D03*
D112*
X197630Y108332D03*
D11*
X187202Y108332D03*
D55*
X167798Y108332D03*
D11*
X158162Y108332D03*
X129254Y108332D03*
D55*
X114998Y108332D03*
D11*
X351542Y108464D03*
D13*
X327980Y108464D03*
X314912Y108464D03*
D11*
X300854Y108464D03*
D14*
X282308Y108464D03*
X261452Y108464D03*
X253268Y108464D03*
D11*
X224294Y108464D03*
D105*
X220202Y108464D03*
D14*
X216176Y108464D03*
D113*
X208652Y108464D03*
D114*
X197762Y108464D03*
D11*
X187202Y108464D03*
D13*
X167732Y108464D03*
D11*
X158162Y108464D03*
X129254Y108464D03*
D13*
X115064Y108464D03*
D11*
X351542Y108596D03*
D13*
X327980Y108596D03*
X315044Y108596D03*
D11*
X300854Y108596D03*
D14*
X282308Y108596D03*
X261452Y108596D03*
X253268Y108596D03*
D11*
X224294Y108596D03*
D105*
X220202Y108596D03*
D14*
X216176Y108596D03*
D115*
X208718Y108596D03*
D116*
X197828Y108596D03*
D11*
X187202Y108596D03*
D55*
X167666Y108596D03*
D11*
X158162Y108596D03*
X129254Y108596D03*
D55*
X115130Y108596D03*
D11*
X351542Y108728D03*
D13*
X327848Y108728D03*
X315044Y108728D03*
D11*
X300854Y108728D03*
D14*
X282308Y108728D03*
X261452Y108728D03*
X253268Y108728D03*
D11*
X224294Y108728D03*
D105*
X220202Y108728D03*
D14*
X216176Y108728D03*
D117*
X208850Y108728D03*
D118*
X197894Y108728D03*
D11*
X187202Y108728D03*
D13*
X167600Y108728D03*
D11*
X158162Y108728D03*
X129254Y108728D03*
D13*
X115196Y108728D03*
D11*
X351542Y108860D03*
D13*
X327848Y108860D03*
X315176Y108860D03*
D11*
X300854Y108860D03*
D14*
X282308Y108860D03*
X261452Y108860D03*
X253268Y108860D03*
D11*
X224294Y108860D03*
D105*
X220202Y108860D03*
D14*
X216176Y108860D03*
D119*
X208916Y108860D03*
X197960Y108860D03*
D11*
X187202Y108860D03*
D13*
X167468Y108860D03*
D11*
X158162Y108860D03*
X129254Y108860D03*
D55*
X115262Y108860D03*
D11*
X351542Y108992D03*
D13*
X327716Y108992D03*
X315176Y108992D03*
D11*
X300854Y108992D03*
D14*
X282308Y108992D03*
X261452Y108992D03*
X253268Y108992D03*
D11*
X224294Y108992D03*
D105*
X220202Y108992D03*
D14*
X216176Y108992D03*
D118*
X208982Y108992D03*
D120*
X198092Y108992D03*
D11*
X187202Y108992D03*
D13*
X167468Y108992D03*
D11*
X158162Y108992D03*
X129254Y108992D03*
D13*
X115328Y108992D03*
D11*
X351542Y109124D03*
D13*
X327716Y109124D03*
X315308Y109124D03*
D11*
X300854Y109124D03*
D14*
X282308Y109124D03*
X261452Y109124D03*
X253268Y109124D03*
D11*
X224294Y109124D03*
D105*
X220202Y109124D03*
D14*
X216176Y109124D03*
D114*
X209114Y109124D03*
D115*
X198158Y109124D03*
D11*
X187202Y109124D03*
D13*
X167336Y109124D03*
D11*
X158162Y109124D03*
X129254Y109124D03*
D55*
X115394Y109124D03*
D11*
X351542Y109256D03*
D13*
X327584Y109256D03*
X315308Y109256D03*
D11*
X300854Y109256D03*
D14*
X282308Y109256D03*
X261452Y109256D03*
X253268Y109256D03*
D11*
X224294Y109256D03*
D105*
X220202Y109256D03*
D14*
X216176Y109256D03*
D93*
X209180Y109256D03*
D113*
X198224Y109256D03*
D11*
X187202Y109256D03*
D13*
X167336Y109256D03*
D11*
X158162Y109256D03*
X129254Y109256D03*
D13*
X115460Y109256D03*
D11*
X351542Y109388D03*
D13*
X327584Y109388D03*
X315440Y109388D03*
D11*
X300854Y109388D03*
D14*
X282308Y109388D03*
X261452Y109388D03*
X253268Y109388D03*
D28*
X227396Y109388D03*
D11*
X224294Y109388D03*
D105*
X220202Y109388D03*
D14*
X216176Y109388D03*
D112*
X209246Y109388D03*
D90*
X200402Y109388D03*
D55*
X195518Y109388D03*
D121*
X192020Y109388D03*
D11*
X187202Y109388D03*
D12*
X167270Y109388D03*
D11*
X158162Y109388D03*
X129254Y109388D03*
D55*
X115526Y109388D03*
D11*
X351542Y109520D03*
D13*
X327452Y109520D03*
X315440Y109520D03*
D11*
X300854Y109520D03*
D14*
X282308Y109520D03*
X261452Y109520D03*
X253268Y109520D03*
D37*
X227660Y109520D03*
D11*
X224294Y109520D03*
D105*
X220202Y109520D03*
D14*
X216176Y109520D03*
D110*
X209312Y109520D03*
D85*
X200600Y109520D03*
D12*
X195386Y109520D03*
D122*
X191756Y109520D03*
D11*
X187202Y109520D03*
D13*
X167204Y109520D03*
D11*
X158162Y109520D03*
X129254Y109520D03*
D13*
X115592Y109520D03*
D11*
X351542Y109652D03*
D55*
X327386Y109652D03*
D13*
X315572Y109652D03*
D11*
X300854Y109652D03*
D14*
X282308Y109652D03*
X261452Y109652D03*
X253268Y109652D03*
D43*
X227858Y109652D03*
D11*
X224294Y109652D03*
D105*
X220202Y109652D03*
D14*
X216176Y109652D03*
D123*
X209444Y109652D03*
D85*
X200732Y109652D03*
D12*
X195386Y109652D03*
D49*
X191558Y109652D03*
D11*
X187202Y109652D03*
D12*
X167138Y109652D03*
D11*
X158162Y109652D03*
X129254Y109652D03*
D55*
X115658Y109652D03*
D11*
X351542Y109784D03*
D13*
X327320Y109784D03*
X315572Y109784D03*
D11*
X300854Y109784D03*
D14*
X282308Y109784D03*
X261452Y109784D03*
X253268Y109784D03*
D124*
X228056Y109784D03*
D11*
X224294Y109784D03*
D105*
X220202Y109784D03*
D14*
X216176Y109784D03*
D107*
X209510Y109784D03*
D90*
X200930Y109784D03*
D14*
X195320Y109784D03*
D58*
X191294Y109784D03*
D11*
X187202Y109784D03*
D13*
X167072Y109784D03*
D11*
X158162Y109784D03*
X129254Y109784D03*
D55*
X115790Y109784D03*
D11*
X351542Y109916D03*
D55*
X327254Y109916D03*
D13*
X315704Y109916D03*
D11*
X300854Y109916D03*
D14*
X282308Y109916D03*
X261452Y109916D03*
X253268Y109916D03*
D58*
X228254Y109916D03*
D11*
X224294Y109916D03*
D105*
X220202Y109916D03*
D14*
X216176Y109916D03*
D104*
X209576Y109916D03*
D85*
X201128Y109916D03*
D14*
X195320Y109916D03*
D61*
X191228Y109916D03*
D11*
X187202Y109916D03*
D12*
X167006Y109916D03*
D11*
X158162Y109916D03*
X129254Y109916D03*
D55*
X115790Y109916D03*
D11*
X351542Y110048D03*
D13*
X327188Y110048D03*
X315704Y110048D03*
D11*
X300854Y110048D03*
D14*
X282308Y110048D03*
X261452Y110048D03*
X253268Y110048D03*
D64*
X228452Y110048D03*
D11*
X224294Y110048D03*
D105*
X220202Y110048D03*
D14*
X216176Y110048D03*
D101*
X209708Y110048D03*
D85*
X201260Y110048D03*
D14*
X195320Y110048D03*
D61*
X191228Y110048D03*
D11*
X187202Y110048D03*
D12*
X167006Y110048D03*
D11*
X158162Y110048D03*
X129254Y110048D03*
D55*
X115922Y110048D03*
D11*
X351542Y110180D03*
D55*
X327122Y110180D03*
D13*
X315836Y110180D03*
D11*
X300854Y110180D03*
D14*
X282308Y110180D03*
X261452Y110180D03*
X253268Y110180D03*
D125*
X228650Y110180D03*
D11*
X224294Y110180D03*
D105*
X220202Y110180D03*
D14*
X216176Y110180D03*
D126*
X209774Y110180D03*
D85*
X201392Y110180D03*
D14*
X195320Y110180D03*
D61*
X191228Y110180D03*
D11*
X187202Y110180D03*
D14*
X166940Y110180D03*
D11*
X158162Y110180D03*
X129254Y110180D03*
D55*
X115922Y110180D03*
D11*
X351542Y110312D03*
D13*
X327056Y110312D03*
D55*
X315902Y110312D03*
D11*
X300854Y110312D03*
D14*
X282308Y110312D03*
X261452Y110312D03*
X253268Y110312D03*
X228848Y110312D03*
D11*
X224294Y110312D03*
D105*
X220202Y110312D03*
D14*
X216176Y110312D03*
D99*
X209840Y110312D03*
D85*
X201656Y110312D03*
D14*
X195320Y110312D03*
D61*
X191228Y110312D03*
D11*
X187202Y110312D03*
D12*
X166874Y110312D03*
D11*
X158162Y110312D03*
X129254Y110312D03*
D55*
X116054Y110312D03*
D11*
X351542Y110444D03*
D55*
X326990Y110444D03*
D13*
X315968Y110444D03*
D11*
X300854Y110444D03*
D14*
X282308Y110444D03*
X261452Y110444D03*
X253268Y110444D03*
D55*
X229046Y110444D03*
D11*
X224294Y110444D03*
D105*
X220202Y110444D03*
D14*
X216176Y110444D03*
D75*
X209972Y110444D03*
D85*
X201788Y110444D03*
D14*
X195320Y110444D03*
D61*
X191228Y110444D03*
D11*
X187202Y110444D03*
D14*
X166808Y110444D03*
D11*
X158162Y110444D03*
X129254Y110444D03*
D55*
X116054Y110444D03*
D11*
X351542Y110576D03*
D13*
X326924Y110576D03*
D55*
X316034Y110576D03*
D11*
X300854Y110576D03*
D14*
X282308Y110576D03*
X261452Y110576D03*
X253268Y110576D03*
D83*
X229178Y110576D03*
D11*
X224294Y110576D03*
D105*
X220202Y110576D03*
D14*
X216176Y110576D03*
D127*
X210038Y110576D03*
D85*
X201920Y110576D03*
D14*
X195320Y110576D03*
D61*
X191228Y110576D03*
D11*
X187202Y110576D03*
D14*
X166808Y110576D03*
D11*
X158162Y110576D03*
X129254Y110576D03*
D55*
X116186Y110576D03*
D11*
X351542Y110708D03*
D55*
X326858Y110708D03*
D13*
X316100Y110708D03*
D11*
X300854Y110708D03*
D14*
X282308Y110708D03*
X261452Y110708D03*
X253268Y110708D03*
D78*
X229376Y110708D03*
D11*
X224294Y110708D03*
D105*
X220202Y110708D03*
D14*
X216176Y110708D03*
D94*
X210104Y110708D03*
D85*
X202184Y110708D03*
D14*
X195320Y110708D03*
D61*
X191228Y110708D03*
D11*
X187202Y110708D03*
D12*
X166742Y110708D03*
D11*
X158162Y110708D03*
X129254Y110708D03*
D55*
X116186Y110708D03*
D11*
X351542Y110840D03*
D13*
X326792Y110840D03*
D55*
X316166Y110840D03*
D11*
X300854Y110840D03*
D14*
X282308Y110840D03*
X261452Y110840D03*
X253268Y110840D03*
D88*
X229574Y110840D03*
D11*
X224294Y110840D03*
D105*
X220202Y110840D03*
D14*
X216176Y110840D03*
D77*
X210170Y110840D03*
D85*
X202316Y110840D03*
D14*
X195320Y110840D03*
D61*
X191228Y110840D03*
D11*
X187202Y110840D03*
D14*
X166676Y110840D03*
D11*
X158162Y110840D03*
X129254Y110840D03*
D55*
X116318Y110840D03*
D11*
X351542Y110972D03*
D55*
X326726Y110972D03*
D13*
X316232Y110972D03*
D11*
X300854Y110972D03*
D14*
X282308Y110972D03*
X261452Y110972D03*
X253268Y110972D03*
D86*
X229706Y110972D03*
D11*
X224294Y110972D03*
D105*
X220202Y110972D03*
D14*
X216176Y110972D03*
D79*
X210302Y110972D03*
D85*
X202448Y110972D03*
D14*
X195320Y110972D03*
D61*
X191228Y110972D03*
D11*
X187202Y110972D03*
D14*
X166676Y110972D03*
D11*
X158162Y110972D03*
X129254Y110972D03*
D55*
X116318Y110972D03*
D11*
X351542Y111104D03*
D13*
X326660Y111104D03*
D55*
X316298Y111104D03*
D11*
X300854Y111104D03*
D14*
X282308Y111104D03*
X261452Y111104D03*
X253268Y111104D03*
D74*
X229904Y111104D03*
D11*
X224294Y111104D03*
D105*
X220202Y111104D03*
D14*
X216176Y111104D03*
D91*
X210368Y111104D03*
D90*
X202646Y111104D03*
D14*
X195320Y111104D03*
D61*
X191228Y111104D03*
D11*
X187202Y111104D03*
D14*
X166676Y111104D03*
D11*
X158162Y111104D03*
X129254Y111104D03*
D55*
X116450Y111104D03*
D11*
X351542Y111236D03*
D13*
X326528Y111236D03*
X316364Y111236D03*
D11*
X300854Y111236D03*
D14*
X282308Y111236D03*
X261452Y111236D03*
X253268Y111236D03*
D79*
X230102Y111236D03*
D11*
X224294Y111236D03*
D105*
X220202Y111236D03*
D14*
X216176Y111236D03*
D82*
X210434Y111236D03*
D85*
X202844Y111236D03*
D14*
X195320Y111236D03*
D61*
X191228Y111236D03*
D11*
X187202Y111236D03*
D14*
X166676Y111236D03*
D11*
X158162Y111236D03*
X129254Y111236D03*
D81*
X116516Y111236D03*
D11*
X351542Y111368D03*
D13*
X326528Y111368D03*
D55*
X316430Y111368D03*
D11*
X300854Y111368D03*
D14*
X282308Y111368D03*
X261452Y111368D03*
X253268Y111368D03*
D77*
X230234Y111368D03*
D11*
X224294Y111368D03*
D105*
X220202Y111368D03*
D14*
X216176Y111368D03*
D90*
X210566Y111368D03*
D85*
X202976Y111368D03*
D14*
X195320Y111368D03*
D61*
X191228Y111368D03*
D11*
X187202Y111368D03*
D14*
X166544Y111368D03*
D11*
X158162Y111368D03*
X129254Y111368D03*
D81*
X116648Y111368D03*
D11*
X351542Y111500D03*
D13*
X326396Y111500D03*
X316496Y111500D03*
D11*
X300854Y111500D03*
D14*
X282308Y111500D03*
X261452Y111500D03*
X253268Y111500D03*
D75*
X230432Y111500D03*
D11*
X224294Y111500D03*
D105*
X220202Y111500D03*
D14*
X216176Y111500D03*
D85*
X210632Y111500D03*
X203108Y111500D03*
D14*
X195320Y111500D03*
D61*
X191228Y111500D03*
D11*
X187202Y111500D03*
D14*
X166544Y111500D03*
D11*
X158162Y111500D03*
X129254Y111500D03*
D83*
X116714Y111500D03*
D11*
X351542Y111632D03*
D13*
X326396Y111632D03*
X316628Y111632D03*
D11*
X300854Y111632D03*
D14*
X282308Y111632D03*
X261452Y111632D03*
X253268Y111632D03*
D99*
X230564Y111632D03*
D11*
X224294Y111632D03*
D105*
X220202Y111632D03*
D14*
X216176Y111632D03*
D86*
X210698Y111632D03*
D85*
X203372Y111632D03*
D14*
X195320Y111632D03*
D61*
X191228Y111632D03*
D11*
X187202Y111632D03*
D14*
X166544Y111632D03*
D11*
X158162Y111632D03*
X129254Y111632D03*
D83*
X116846Y111632D03*
D11*
X351542Y111764D03*
D13*
X326264Y111764D03*
X316628Y111764D03*
D11*
X300854Y111764D03*
D14*
X282308Y111764D03*
X261452Y111764D03*
X253268Y111764D03*
D101*
X230696Y111764D03*
D11*
X224294Y111764D03*
D105*
X220202Y111764D03*
D14*
X216176Y111764D03*
D88*
X210830Y111764D03*
D85*
X203504Y111764D03*
D14*
X195320Y111764D03*
D61*
X191228Y111764D03*
D11*
X187202Y111764D03*
D14*
X166544Y111764D03*
D11*
X158162Y111764D03*
X129254Y111764D03*
D83*
X116846Y111764D03*
D11*
X351542Y111896D03*
D13*
X326264Y111896D03*
X316760Y111896D03*
D11*
X300854Y111896D03*
D14*
X282308Y111896D03*
X261452Y111896D03*
X253268Y111896D03*
D73*
X230762Y111896D03*
D11*
X224294Y111896D03*
D105*
X220202Y111896D03*
D14*
X216176Y111896D03*
D76*
X210896Y111896D03*
D85*
X203636Y111896D03*
D31*
X198554Y111896D03*
D14*
X195320Y111896D03*
D61*
X191228Y111896D03*
D11*
X187202Y111896D03*
X166478Y111896D03*
X158162Y111896D03*
X129254Y111896D03*
D80*
X117044Y111896D03*
D11*
X351542Y112028D03*
D13*
X326132Y112028D03*
X316760Y112028D03*
D11*
X300854Y112028D03*
D14*
X282308Y112028D03*
X261452Y112028D03*
X253268Y112028D03*
D101*
X230696Y112028D03*
D11*
X224294Y112028D03*
D105*
X220202Y112028D03*
D14*
X216176Y112028D03*
D87*
X210962Y112028D03*
D90*
X203834Y112028D03*
D121*
X198620Y112028D03*
D14*
X195320Y112028D03*
D61*
X191228Y112028D03*
D11*
X187202Y112028D03*
X166478Y112028D03*
X158162Y112028D03*
X129254Y112028D03*
D84*
X117110Y112028D03*
D11*
X351542Y112160D03*
D13*
X326132Y112160D03*
X316892Y112160D03*
D11*
X300854Y112160D03*
D14*
X282308Y112160D03*
X261452Y112160D03*
X253268Y112160D03*
D101*
X230696Y112160D03*
D11*
X224294Y112160D03*
D105*
X220202Y112160D03*
D14*
X216176Y112160D03*
D78*
X211028Y112160D03*
D85*
X204032Y112160D03*
D34*
X198686Y112160D03*
D14*
X195320Y112160D03*
D61*
X191228Y112160D03*
D11*
X187202Y112160D03*
D28*
X184100Y112160D03*
D14*
X166412Y112160D03*
D11*
X158162Y112160D03*
X129254Y112160D03*
D84*
X117242Y112160D03*
D11*
X351542Y112292D03*
D13*
X326000Y112292D03*
X316892Y112292D03*
D11*
X300854Y112292D03*
D14*
X282308Y112292D03*
X261452Y112292D03*
X253268Y112292D03*
D126*
X230630Y112292D03*
D11*
X224294Y112292D03*
D105*
X220202Y112292D03*
D14*
X216176Y112292D03*
D80*
X211160Y112292D03*
D85*
X204164Y112292D03*
D40*
X198818Y112292D03*
D14*
X195320Y112292D03*
D61*
X191228Y112292D03*
D11*
X187202Y112292D03*
D34*
X183902Y112292D03*
D14*
X166412Y112292D03*
D11*
X158162Y112292D03*
X129254Y112292D03*
D78*
X117308Y112292D03*
D11*
X351542Y112424D03*
D13*
X326000Y112424D03*
X317024Y112424D03*
D11*
X300854Y112424D03*
D14*
X282308Y112424D03*
X261452Y112424D03*
X253268Y112424D03*
D126*
X230630Y112424D03*
D11*
X224294Y112424D03*
D105*
X220202Y112424D03*
D14*
X216176Y112424D03*
D83*
X211226Y112424D03*
D90*
X204362Y112424D03*
D122*
X198884Y112424D03*
D14*
X195320Y112424D03*
D61*
X191228Y112424D03*
D11*
X187202Y112424D03*
D40*
X183770Y112424D03*
D14*
X166412Y112424D03*
D11*
X158162Y112424D03*
D14*
X129188Y112424D03*
D87*
X117506Y112424D03*
D11*
X351542Y112556D03*
D13*
X325868Y112556D03*
X317024Y112556D03*
D11*
X300854Y112556D03*
D14*
X282308Y112556D03*
X261452Y112556D03*
X253268Y112556D03*
D126*
X230630Y112556D03*
D11*
X224294Y112556D03*
D105*
X220202Y112556D03*
D14*
X216176Y112556D03*
D81*
X211292Y112556D03*
D85*
X204560Y112556D03*
D43*
X198950Y112556D03*
D14*
X195320Y112556D03*
D61*
X191228Y112556D03*
D11*
X187202Y112556D03*
D43*
X183638Y112556D03*
D14*
X166412Y112556D03*
D11*
X158162Y112556D03*
D14*
X129188Y112556D03*
D76*
X117572Y112556D03*
D11*
X351542Y112688D03*
D13*
X325868Y112688D03*
X317156Y112688D03*
D11*
X300854Y112688D03*
D14*
X282308Y112688D03*
X261452Y112688D03*
X253268Y112688D03*
D126*
X230630Y112688D03*
D11*
X224294Y112688D03*
D105*
X220202Y112688D03*
D14*
X216176Y112688D03*
D13*
X211424Y112688D03*
D85*
X204692Y112688D03*
D49*
X199082Y112688D03*
D14*
X195320Y112688D03*
D61*
X191228Y112688D03*
D11*
X187202Y112688D03*
D49*
X183506Y112688D03*
D14*
X166412Y112688D03*
D11*
X158162Y112688D03*
D14*
X129188Y112688D03*
D89*
X117704Y112688D03*
D14*
X351476Y112820D03*
D13*
X325736Y112820D03*
X317156Y112820D03*
D11*
X300854Y112820D03*
D14*
X282308Y112820D03*
X261452Y112820D03*
X253268Y112820D03*
D126*
X230630Y112820D03*
D11*
X224294Y112820D03*
D105*
X220202Y112820D03*
D14*
X216176Y112820D03*
D12*
X211490Y112820D03*
D85*
X204824Y112820D03*
D124*
X199148Y112820D03*
D14*
X195320Y112820D03*
D61*
X191228Y112820D03*
D11*
X187202Y112820D03*
D56*
X183308Y112820D03*
D14*
X166412Y112820D03*
X158096Y112820D03*
X129188Y112820D03*
D85*
X117836Y112820D03*
D14*
X351476Y112952D03*
D13*
X325736Y112952D03*
X317288Y112952D03*
D11*
X300854Y112952D03*
D12*
X282242Y112952D03*
X261518Y112952D03*
D14*
X253268Y112952D03*
D126*
X230630Y112952D03*
D11*
X224294Y112952D03*
D105*
X220202Y112952D03*
D14*
X216176Y112952D03*
X211556Y112952D03*
D85*
X205088Y112952D03*
D52*
X199214Y112952D03*
D14*
X195320Y112952D03*
D61*
X191228Y112952D03*
D11*
X187202Y112952D03*
D61*
X183176Y112952D03*
D11*
X166346Y112952D03*
D14*
X158096Y112952D03*
D12*
X129122Y112952D03*
D91*
X117968Y112952D03*
D12*
X351410Y113084D03*
D13*
X325604Y113084D03*
X317288Y113084D03*
D11*
X300854Y113084D03*
D13*
X282176Y113084D03*
X261584Y113084D03*
D12*
X253202Y113084D03*
D126*
X230630Y113084D03*
D11*
X224294Y113084D03*
D105*
X220202Y113084D03*
D14*
X216176Y113084D03*
D11*
X211622Y113084D03*
D85*
X205220Y113084D03*
D56*
X199280Y113084D03*
D14*
X195320Y113084D03*
D61*
X191228Y113084D03*
D11*
X187202Y113084D03*
D64*
X183044Y113084D03*
D11*
X166346Y113084D03*
D12*
X158030Y113084D03*
D13*
X129056Y113084D03*
D94*
X118100Y113084D03*
D13*
X351344Y113216D03*
X325604Y113216D03*
X317420Y113216D03*
D11*
X300854Y113216D03*
D55*
X282110Y113216D03*
X261650Y113216D03*
X253070Y113216D03*
D126*
X230630Y113216D03*
D11*
X224294Y113216D03*
D105*
X220202Y113216D03*
D14*
X216176Y113216D03*
D125*
X211754Y113216D03*
D85*
X205352Y113216D03*
D61*
X199412Y113216D03*
D14*
X195320Y113216D03*
D61*
X191228Y113216D03*
D11*
X187202Y113216D03*
D69*
X182912Y113216D03*
D11*
X166346Y113216D03*
D55*
X157898Y113216D03*
D81*
X128924Y113216D03*
D73*
X118430Y113216D03*
D128*
X345140Y113348D03*
D13*
X325472Y113348D03*
X317420Y113348D03*
D11*
X300854Y113348D03*
D129*
X271880Y113348D03*
D19*
X245150Y113348D03*
D126*
X230630Y113348D03*
D11*
X224294Y113348D03*
D105*
X220202Y113348D03*
D14*
X216176Y113348D03*
D69*
X211820Y113348D03*
D90*
X205550Y113348D03*
D105*
X199478Y113348D03*
D14*
X195320Y113348D03*
D61*
X191228Y113348D03*
D11*
X187202Y113348D03*
D15*
X182780Y113348D03*
D11*
X166346Y113348D03*
D19*
X149978Y113348D03*
D26*
X122720Y113348D03*
D130*
X344612Y113480D03*
D13*
X325472Y113480D03*
X317552Y113480D03*
D11*
X300854Y113480D03*
D129*
X271880Y113480D03*
D19*
X245150Y113480D03*
D126*
X230630Y113480D03*
D11*
X224294Y113480D03*
D105*
X220202Y113480D03*
D14*
X216176Y113480D03*
D67*
X211886Y113480D03*
D85*
X205748Y113480D03*
D64*
X199544Y113480D03*
D14*
X195320Y113480D03*
D61*
X191228Y113480D03*
D11*
X187202Y113480D03*
D14*
X182648Y113480D03*
D11*
X166346Y113480D03*
D19*
X149978Y113480D03*
D130*
X122324Y113480D03*
D38*
X344414Y113612D03*
D13*
X325340Y113612D03*
X317552Y113612D03*
D11*
X300854Y113612D03*
D129*
X271880Y113612D03*
D19*
X245150Y113612D03*
D126*
X230630Y113612D03*
D11*
X224294Y113612D03*
D105*
X220202Y113612D03*
D14*
X216176Y113612D03*
D105*
X212018Y113612D03*
D85*
X205880Y113612D03*
D69*
X199676Y113612D03*
D14*
X195320Y113612D03*
D61*
X191228Y113612D03*
D11*
X187202Y113612D03*
D13*
X182516Y113612D03*
D11*
X166346Y113612D03*
D19*
X149978Y113612D03*
D38*
X122126Y113612D03*
D131*
X344216Y113744D03*
D13*
X325340Y113744D03*
X317684Y113744D03*
D11*
X300854Y113744D03*
D129*
X271880Y113744D03*
D19*
X245150Y113744D03*
D126*
X230630Y113744D03*
D11*
X224294Y113744D03*
D105*
X220202Y113744D03*
D14*
X216176Y113744D03*
D61*
X212084Y113744D03*
D90*
X206078Y113744D03*
D125*
X199742Y113744D03*
D14*
X195320Y113744D03*
D61*
X191228Y113744D03*
D11*
X187202Y113744D03*
D81*
X182384Y113744D03*
D11*
X166346Y113744D03*
D19*
X149978Y113744D03*
D131*
X121928Y113744D03*
D132*
X344084Y113876D03*
D13*
X325208Y113876D03*
X317684Y113876D03*
D11*
X300854Y113876D03*
D129*
X271880Y113876D03*
D19*
X245150Y113876D03*
D126*
X230630Y113876D03*
D11*
X224294Y113876D03*
D105*
X220202Y113876D03*
D14*
X216176Y113876D03*
D58*
X212150Y113876D03*
D85*
X206276Y113876D03*
D15*
X199808Y113876D03*
D14*
X195320Y113876D03*
D61*
X191228Y113876D03*
D11*
X187202Y113876D03*
D80*
X182252Y113876D03*
D11*
X166346Y113876D03*
D19*
X149978Y113876D03*
D132*
X121796Y113876D03*
D50*
X343952Y114008D03*
D13*
X325208Y114008D03*
X317816Y114008D03*
D11*
X300854Y114008D03*
D129*
X271880Y114008D03*
D19*
X245150Y114008D03*
D126*
X230630Y114008D03*
D11*
X224294Y114008D03*
D105*
X220202Y114008D03*
D14*
X216176Y114008D03*
D52*
X212282Y114008D03*
D85*
X206408Y114008D03*
D14*
X199940Y114008D03*
X195320Y114008D03*
D61*
X191228Y114008D03*
D11*
X187202Y114008D03*
D78*
X182120Y114008D03*
D11*
X166346Y114008D03*
D19*
X149978Y114008D03*
D50*
X121664Y114008D03*
D53*
X343820Y114140D03*
D13*
X325076Y114140D03*
X317816Y114140D03*
D11*
X300854Y114140D03*
D129*
X271880Y114140D03*
D19*
X245150Y114140D03*
D126*
X230630Y114140D03*
D11*
X224294Y114140D03*
D105*
X220202Y114140D03*
D14*
X216176Y114140D03*
D124*
X212348Y114140D03*
D85*
X206540Y114140D03*
D12*
X200006Y114140D03*
D14*
X195320Y114140D03*
D61*
X191228Y114140D03*
D11*
X187202Y114140D03*
D76*
X181988Y114140D03*
D14*
X166412Y114140D03*
D19*
X149978Y114140D03*
D53*
X121532Y114140D03*
D57*
X343754Y114272D03*
D13*
X325076Y114272D03*
X317948Y114272D03*
D11*
X300854Y114272D03*
D129*
X271880Y114272D03*
D19*
X245150Y114272D03*
D126*
X230630Y114272D03*
D11*
X224294Y114272D03*
D105*
X220202Y114272D03*
D14*
X216176Y114272D03*
D49*
X212414Y114272D03*
D85*
X206804Y114272D03*
D13*
X200072Y114272D03*
D14*
X195320Y114272D03*
D61*
X191228Y114272D03*
D11*
X187202Y114272D03*
D89*
X181856Y114272D03*
D14*
X166412Y114272D03*
D19*
X149978Y114272D03*
D57*
X121466Y114272D03*
D59*
X343622Y114404D03*
D13*
X324944Y114404D03*
X317948Y114404D03*
D11*
X300854Y114404D03*
D129*
X271880Y114404D03*
D19*
X245150Y114404D03*
D126*
X230630Y114404D03*
D11*
X224294Y114404D03*
D105*
X220202Y114404D03*
D14*
X216176Y114404D03*
D46*
X212480Y114404D03*
D85*
X206936Y114404D03*
D55*
X200138Y114404D03*
D14*
X195320Y114404D03*
D61*
X191228Y114404D03*
D11*
X187202Y114404D03*
D85*
X181724Y114404D03*
D14*
X166412Y114404D03*
D19*
X149978Y114404D03*
D59*
X121334Y114404D03*
D62*
X343556Y114536D03*
D13*
X324944Y114536D03*
X318080Y114536D03*
D11*
X300854Y114536D03*
D129*
X271880Y114536D03*
D19*
X245150Y114536D03*
D126*
X230630Y114536D03*
D11*
X224294Y114536D03*
D105*
X220202Y114536D03*
D14*
X216176Y114536D03*
D122*
X212612Y114536D03*
D85*
X207068Y114536D03*
D83*
X200270Y114536D03*
D14*
X195320Y114536D03*
D61*
X191228Y114536D03*
D11*
X187202Y114536D03*
D74*
X181592Y114536D03*
D14*
X166412Y114536D03*
D19*
X149978Y114536D03*
D62*
X121268Y114536D03*
D133*
X343490Y114668D03*
D13*
X324812Y114668D03*
X318080Y114668D03*
D11*
X300854Y114668D03*
D129*
X271880Y114668D03*
D19*
X245150Y114668D03*
D126*
X230630Y114668D03*
D11*
X224294Y114668D03*
D105*
X220202Y114668D03*
D14*
X216176Y114668D03*
D40*
X212678Y114668D03*
D90*
X207266Y114668D03*
D80*
X200336Y114668D03*
D14*
X195320Y114668D03*
D61*
X191228Y114668D03*
D11*
X187202Y114668D03*
D82*
X181526Y114668D03*
D14*
X166412Y114668D03*
D19*
X149978Y114668D03*
D133*
X121202Y114668D03*
D65*
X343424Y114800D03*
D13*
X324812Y114800D03*
X318212Y114800D03*
D11*
X300854Y114800D03*
D129*
X271880Y114800D03*
D19*
X245150Y114800D03*
D126*
X230630Y114800D03*
D11*
X224294Y114800D03*
D105*
X220202Y114800D03*
D14*
X216176Y114800D03*
D37*
X212744Y114800D03*
D85*
X207464Y114800D03*
D84*
X200402Y114800D03*
D14*
X195320Y114800D03*
D61*
X191228Y114800D03*
D11*
X187202Y114800D03*
D79*
X181394Y114800D03*
D14*
X166412Y114800D03*
D19*
X149978Y114800D03*
X121070Y114800D03*
X343358Y114932D03*
D13*
X324680Y114932D03*
X318212Y114932D03*
D11*
X300854Y114932D03*
D129*
X271880Y114932D03*
D19*
X245150Y114932D03*
D126*
X230630Y114932D03*
D11*
X224294Y114932D03*
D105*
X220202Y114932D03*
D14*
X216176Y114932D03*
D121*
X212876Y114932D03*
D85*
X207596Y114932D03*
D87*
X200534Y114932D03*
D14*
X195320Y114932D03*
D61*
X191228Y114932D03*
D11*
X187202Y114932D03*
D77*
X181262Y114932D03*
D14*
X166412Y114932D03*
D19*
X149978Y114932D03*
D70*
X121004Y114932D03*
D71*
X343226Y115064D03*
D13*
X324680Y115064D03*
X318344Y115064D03*
D11*
X300854Y115064D03*
D129*
X271880Y115064D03*
D19*
X245150Y115064D03*
D126*
X230630Y115064D03*
D11*
X224294Y115064D03*
D105*
X220202Y115064D03*
D14*
X216176Y115064D03*
D31*
X212942Y115064D03*
D90*
X207794Y115064D03*
D76*
X200600Y115064D03*
D14*
X195320Y115064D03*
D61*
X191228Y115064D03*
D11*
X187202Y115064D03*
D127*
X181130Y115064D03*
D11*
X166478Y115064D03*
D19*
X149978Y115064D03*
D71*
X120938Y115064D03*
X343226Y115196D03*
D13*
X324548Y115196D03*
X318344Y115196D03*
D11*
X300854Y115196D03*
D129*
X271880Y115196D03*
D19*
X245150Y115196D03*
D126*
X230630Y115196D03*
D11*
X224294Y115196D03*
D105*
X220202Y115196D03*
D14*
X216176Y115196D03*
D28*
X213008Y115196D03*
D85*
X207992Y115196D03*
D88*
X200666Y115196D03*
D14*
X195320Y115196D03*
D61*
X191228Y115196D03*
D11*
X187202Y115196D03*
D97*
X180998Y115196D03*
D14*
X166544Y115196D03*
D19*
X149978Y115196D03*
D21*
X120872Y115196D03*
X343160Y115328D03*
D13*
X324548Y115328D03*
X318476Y115328D03*
D11*
X300854Y115328D03*
D129*
X271880Y115328D03*
D19*
X245150Y115328D03*
D126*
X230630Y115328D03*
D11*
X224294Y115328D03*
D105*
X220202Y115328D03*
D14*
X216176Y115328D03*
D85*
X208124Y115328D03*
D86*
X200798Y115328D03*
D14*
X195320Y115328D03*
D61*
X191228Y115328D03*
D11*
X187202Y115328D03*
D99*
X180932Y115328D03*
D14*
X166544Y115328D03*
D19*
X149978Y115328D03*
D134*
X120806Y115328D03*
X343094Y115460D03*
D13*
X324416Y115460D03*
X318476Y115460D03*
D11*
X300854Y115460D03*
D129*
X271880Y115460D03*
D19*
X245150Y115460D03*
D126*
X230630Y115460D03*
D11*
X224294Y115460D03*
D105*
X220202Y115460D03*
D14*
X216176Y115460D03*
D85*
X208256Y115460D03*
X200864Y115460D03*
D14*
X195320Y115460D03*
D61*
X191228Y115460D03*
D11*
X187202Y115460D03*
D101*
X180800Y115460D03*
D14*
X166544Y115460D03*
D19*
X149978Y115460D03*
D134*
X120806Y115460D03*
D135*
X343028Y115592D03*
D13*
X324416Y115592D03*
X318608Y115592D03*
D11*
X300854Y115592D03*
D129*
X271880Y115592D03*
D19*
X245150Y115592D03*
D99*
X230696Y115592D03*
D11*
X224294Y115592D03*
D105*
X220202Y115592D03*
D14*
X216176Y115592D03*
D85*
X208520Y115592D03*
D90*
X200930Y115592D03*
D14*
X195320Y115592D03*
D61*
X191228Y115592D03*
D11*
X187202Y115592D03*
D104*
X180668Y115592D03*
D14*
X166544Y115592D03*
D19*
X149978Y115592D03*
D135*
X120740Y115592D03*
D23*
X342962Y115724D03*
D13*
X324284Y115724D03*
X318608Y115724D03*
D11*
X300854Y115724D03*
D129*
X271880Y115724D03*
D19*
X245150Y115724D03*
D83*
X232082Y115724D03*
D11*
X224294Y115724D03*
D46*
X219740Y115724D03*
D14*
X216176Y115724D03*
D85*
X208652Y115724D03*
D74*
X200996Y115724D03*
D14*
X195320Y115724D03*
D61*
X191228Y115724D03*
D11*
X187202Y115724D03*
D107*
X180602Y115724D03*
D14*
X166544Y115724D03*
D19*
X149978Y115724D03*
D23*
X120674Y115724D03*
D136*
X342896Y115856D03*
D13*
X324284Y115856D03*
X318740Y115856D03*
D11*
X300854Y115856D03*
D129*
X271880Y115856D03*
D19*
X245150Y115856D03*
D61*
X232940Y115856D03*
D11*
X224294Y115856D03*
D14*
X216176Y115856D03*
D85*
X208784Y115856D03*
D91*
X201128Y115856D03*
D14*
X195320Y115856D03*
D61*
X191228Y115856D03*
D11*
X187202Y115856D03*
D108*
X180470Y115856D03*
D14*
X166676Y115856D03*
D19*
X149978Y115856D03*
D136*
X120608Y115856D03*
X342896Y115988D03*
D13*
X324152Y115988D03*
X318740Y115988D03*
D11*
X300854Y115988D03*
D129*
X271880Y115988D03*
D19*
X245150Y115988D03*
D34*
X233666Y115988D03*
D11*
X224294Y115988D03*
D14*
X216176Y115988D03*
D90*
X208982Y115988D03*
D79*
X201194Y115988D03*
D14*
X195320Y115988D03*
D61*
X191228Y115988D03*
D11*
X187202Y115988D03*
D112*
X180338Y115988D03*
D14*
X166676Y115988D03*
D19*
X149978Y115988D03*
D136*
X120608Y115988D03*
D25*
X342830Y116120D03*
D55*
X324086Y116120D03*
D13*
X318872Y116120D03*
D11*
X300854Y116120D03*
D129*
X271880Y116120D03*
D19*
X245150Y116120D03*
D11*
X224294Y116120D03*
D14*
X216176Y116120D03*
D85*
X209180Y116120D03*
D92*
X201260Y116120D03*
D14*
X195320Y116120D03*
D61*
X191228Y116120D03*
D11*
X187202Y116120D03*
D93*
X180272Y116120D03*
D14*
X166676Y116120D03*
D19*
X149978Y116120D03*
D25*
X120542Y116120D03*
D55*
X351278Y116252D03*
D89*
X334976Y116252D03*
D13*
X324020Y116252D03*
X318872Y116252D03*
D11*
X300854Y116252D03*
D83*
X281978Y116252D03*
X261782Y116252D03*
D19*
X245150Y116252D03*
D11*
X224294Y116252D03*
D14*
X216176Y116252D03*
D85*
X209312Y116252D03*
D87*
X200534Y116252D03*
D14*
X195320Y116252D03*
D61*
X191228Y116252D03*
D11*
X187202Y116252D03*
D116*
X180140Y116252D03*
D12*
X166742Y116252D03*
D83*
X157766Y116252D03*
D55*
X128990Y116252D03*
D86*
X112622Y116252D03*
D13*
X351344Y116384D03*
D87*
X334646Y116384D03*
D55*
X323954Y116384D03*
D13*
X319004Y116384D03*
D11*
X300854Y116384D03*
D55*
X282110Y116384D03*
D13*
X261584Y116384D03*
D55*
X253070Y116384D03*
D11*
X224294Y116384D03*
D14*
X216176Y116384D03*
D90*
X209510Y116384D03*
D12*
X200006Y116384D03*
D14*
X195320Y116384D03*
D61*
X191228Y116384D03*
D11*
X187202Y116384D03*
D119*
X180008Y116384D03*
D12*
X166742Y116384D03*
D13*
X157964Y116384D03*
D12*
X129122Y116384D03*
D87*
X112358Y116384D03*
D12*
X351410Y116516D03*
D78*
X334448Y116516D03*
D13*
X323888Y116516D03*
D55*
X319070Y116516D03*
D11*
X300854Y116516D03*
D12*
X282242Y116516D03*
X261518Y116516D03*
D13*
X253136Y116516D03*
D11*
X224294Y116516D03*
D14*
X216176Y116516D03*
D85*
X209708Y116516D03*
D64*
X199544Y116516D03*
D14*
X195320Y116516D03*
D61*
X191228Y116516D03*
D11*
X187202Y116516D03*
D117*
X179942Y116516D03*
D14*
X166808Y116516D03*
D12*
X158030Y116516D03*
X129122Y116516D03*
D78*
X112160Y116516D03*
D14*
X351476Y116648D03*
D80*
X334316Y116648D03*
D55*
X323822Y116648D03*
D13*
X319136Y116648D03*
D11*
X300854Y116648D03*
D12*
X282242Y116648D03*
D14*
X261452Y116648D03*
D12*
X253202Y116648D03*
D11*
X224294Y116648D03*
D14*
X216176Y116648D03*
D85*
X209840Y116648D03*
D124*
X199148Y116648D03*
D14*
X195320Y116648D03*
D61*
X191228Y116648D03*
D11*
X187202Y116648D03*
D115*
X179810Y116648D03*
D12*
X166874Y116648D03*
D14*
X158096Y116648D03*
X129188Y116648D03*
D80*
X112028Y116648D03*
D14*
X351476Y116780D03*
D80*
X334184Y116780D03*
D13*
X323756Y116780D03*
D55*
X319202Y116780D03*
D11*
X300854Y116780D03*
D14*
X282308Y116780D03*
X261452Y116780D03*
X253268Y116780D03*
D11*
X224294Y116780D03*
D14*
X216176Y116780D03*
D85*
X209972Y116780D03*
D122*
X198884Y116780D03*
D14*
X195320Y116780D03*
D61*
X191228Y116780D03*
D11*
X187202Y116780D03*
D113*
X179744Y116780D03*
D12*
X166874Y116780D03*
D14*
X158096Y116780D03*
X129188Y116780D03*
D83*
X111830Y116780D03*
D11*
X351542Y116912D03*
D81*
X334052Y116912D03*
D55*
X323690Y116912D03*
X319334Y116912D03*
D11*
X300854Y116912D03*
D14*
X282308Y116912D03*
X261452Y116912D03*
X253268Y116912D03*
D11*
X224294Y116912D03*
D14*
X216176Y116912D03*
D85*
X210236Y116912D03*
D31*
X198554Y116912D03*
D14*
X195320Y116912D03*
D61*
X191228Y116912D03*
D11*
X187202Y116912D03*
D137*
X179612Y116912D03*
D14*
X166940Y116912D03*
D11*
X158162Y116912D03*
D14*
X129188Y116912D03*
D81*
X111764Y116912D03*
D11*
X351542Y117044D03*
D55*
X333986Y117044D03*
D83*
X323426Y117044D03*
D80*
X319532Y117044D03*
D11*
X300854Y117044D03*
D14*
X282308Y117044D03*
X261452Y117044D03*
X253268Y117044D03*
D11*
X224294Y117044D03*
D14*
X216176Y117044D03*
D85*
X210368Y117044D03*
D14*
X195320Y117044D03*
D61*
X191228Y117044D03*
D11*
X187202Y117044D03*
D109*
X179546Y117044D03*
D12*
X167006Y117044D03*
D11*
X158162Y117044D03*
X129254Y117044D03*
D81*
X111632Y117044D03*
D11*
X351542Y117176D03*
D55*
X333854Y117176D03*
D110*
X321512Y117176D03*
D11*
X300854Y117176D03*
D14*
X282308Y117176D03*
X261452Y117176D03*
X253268Y117176D03*
D37*
X227660Y117176D03*
D11*
X224294Y117176D03*
D14*
X216176Y117176D03*
D85*
X210500Y117176D03*
D14*
X195320Y117176D03*
D61*
X191228Y117176D03*
D11*
X187202Y117176D03*
D106*
X179414Y117176D03*
D12*
X167006Y117176D03*
D11*
X158162Y117176D03*
X129254Y117176D03*
D55*
X111566Y117176D03*
D11*
X351542Y117308D03*
D13*
X333788Y117308D03*
D108*
X321446Y117308D03*
D11*
X300854Y117308D03*
D14*
X282308Y117308D03*
X261452Y117308D03*
X253268Y117308D03*
D12*
X228914Y117308D03*
D11*
X224294Y117308D03*
D46*
X220664Y117308D03*
D12*
X216110Y117308D03*
D90*
X210698Y117308D03*
D14*
X195320Y117308D03*
D61*
X191228Y117308D03*
D11*
X187202Y117308D03*
D103*
X179348Y117308D03*
D13*
X167072Y117308D03*
D11*
X158162Y117308D03*
X129254Y117308D03*
D13*
X111500Y117308D03*
D11*
X351542Y117440D03*
D13*
X333656Y117440D03*
D123*
X321512Y117440D03*
D11*
X300854Y117440D03*
D14*
X282308Y117440D03*
X261452Y117440D03*
X253268Y117440D03*
D85*
X229772Y117440D03*
D11*
X224294Y117440D03*
D105*
X220202Y117440D03*
D13*
X216044Y117440D03*
D85*
X210896Y117440D03*
D14*
X195320Y117440D03*
D61*
X191228Y117440D03*
D11*
X187202Y117440D03*
D102*
X179216Y117440D03*
D12*
X167138Y117440D03*
D11*
X158162Y117440D03*
X129254Y117440D03*
D13*
X111368Y117440D03*
D11*
X351542Y117572D03*
D13*
X333656Y117572D03*
D107*
X321446Y117572D03*
D11*
X300854Y117572D03*
D14*
X282308Y117572D03*
X261452Y117572D03*
X253268Y117572D03*
D75*
X230432Y117572D03*
D11*
X224294Y117572D03*
D105*
X220202Y117572D03*
D55*
X215978Y117572D03*
D85*
X211028Y117572D03*
D14*
X195320Y117572D03*
D61*
X191228Y117572D03*
D11*
X187202Y117572D03*
D100*
X179150Y117572D03*
D13*
X167204Y117572D03*
D11*
X158162Y117572D03*
X129254Y117572D03*
D12*
X111302Y117572D03*
D11*
X351542Y117704D03*
D12*
X333590Y117704D03*
D73*
X321446Y117704D03*
D11*
X300854Y117704D03*
D14*
X282308Y117704D03*
X261452Y117704D03*
X253268Y117704D03*
D73*
X230762Y117704D03*
D11*
X224294Y117704D03*
D105*
X220202Y117704D03*
D111*
X213206Y117704D03*
D64*
X205088Y117704D03*
D14*
X195320Y117704D03*
D61*
X191228Y117704D03*
D11*
X187202Y117704D03*
D98*
X179084Y117704D03*
D12*
X167270Y117704D03*
D11*
X158162Y117704D03*
X129254Y117704D03*
D14*
X111236Y117704D03*
D11*
X351542Y117836D03*
D14*
X333524Y117836D03*
D73*
X321446Y117836D03*
D11*
X300854Y117836D03*
D14*
X282308Y117836D03*
X261452Y117836D03*
X253268Y117836D03*
D123*
X230960Y117836D03*
D11*
X224294Y117836D03*
D105*
X220202Y117836D03*
D115*
X213338Y117836D03*
D13*
X204164Y117836D03*
D14*
X195320Y117836D03*
D61*
X191228Y117836D03*
D11*
X187202Y117836D03*
D138*
X178952Y117836D03*
D13*
X167336Y117836D03*
D11*
X158162Y117836D03*
X129254Y117836D03*
D12*
X111170Y117836D03*
D11*
X351542Y117968D03*
D12*
X333458Y117968D03*
D126*
X321446Y117968D03*
D11*
X300854Y117968D03*
D14*
X282308Y117968D03*
X261452Y117968D03*
X253268Y117968D03*
D105*
X245018Y117968D03*
D83*
X239606Y117968D03*
D88*
X229574Y117968D03*
D11*
X224294Y117968D03*
D105*
X220202Y117968D03*
D120*
X213404Y117968D03*
D80*
X203504Y117968D03*
D14*
X195320Y117968D03*
D61*
X191228Y117968D03*
D11*
X187202Y117968D03*
D139*
X178886Y117968D03*
D13*
X167336Y117968D03*
D11*
X158162Y117968D03*
X129254Y117968D03*
D14*
X111104Y117968D03*
D11*
X351542Y118100D03*
D14*
X333392Y118100D03*
D99*
X321512Y118100D03*
D11*
X300854Y118100D03*
D14*
X282308Y118100D03*
X261452Y118100D03*
X253268Y118100D03*
D64*
X238880Y118100D03*
D69*
X228584Y118100D03*
D11*
X224294Y118100D03*
D105*
X220202Y118100D03*
D117*
X213470Y118100D03*
D87*
X202778Y118100D03*
D14*
X195320Y118100D03*
D61*
X191228Y118100D03*
D11*
X187202Y118100D03*
D140*
X178754Y118100D03*
D13*
X167468Y118100D03*
D11*
X158162Y118100D03*
X129254Y118100D03*
D14*
X111104Y118100D03*
D11*
X351542Y118232D03*
D14*
X333392Y118232D03*
D97*
X321446Y118232D03*
D11*
X300854Y118232D03*
D14*
X282308Y118232D03*
X261452Y118232D03*
X253268Y118232D03*
D43*
X238286Y118232D03*
X227858Y118232D03*
D11*
X224294Y118232D03*
D105*
X220202Y118232D03*
D118*
X213602Y118232D03*
D88*
X202250Y118232D03*
D14*
X195320Y118232D03*
D61*
X191228Y118232D03*
D11*
X187202Y118232D03*
D141*
X178688Y118232D03*
D55*
X167534Y118232D03*
D11*
X158162Y118232D03*
X129254Y118232D03*
D14*
X111104Y118232D03*
D11*
X351542Y118364D03*
D14*
X333392Y118364D03*
D75*
X321512Y118364D03*
D11*
X300854Y118364D03*
D14*
X282308Y118364D03*
X261452Y118364D03*
X253268Y118364D03*
D11*
X224294Y118364D03*
D105*
X220202Y118364D03*
D116*
X213668Y118364D03*
D89*
X201788Y118364D03*
D14*
X195320Y118364D03*
D61*
X191228Y118364D03*
D11*
X187202Y118364D03*
D142*
X178622Y118364D03*
D13*
X167600Y118364D03*
D11*
X158162Y118364D03*
X129254Y118364D03*
D14*
X110972Y118364D03*
D11*
X351542Y118496D03*
X333326Y118496D03*
D127*
X321446Y118496D03*
D11*
X300854Y118496D03*
D14*
X282308Y118496D03*
X261452Y118496D03*
X253268Y118496D03*
D11*
X224294Y118496D03*
D105*
X220202Y118496D03*
D114*
X213734Y118496D03*
D90*
X201326Y118496D03*
D14*
X195320Y118496D03*
D61*
X191228Y118496D03*
D11*
X187202Y118496D03*
D143*
X178490Y118496D03*
D55*
X167666Y118496D03*
D11*
X158162Y118496D03*
X129254Y118496D03*
D14*
X110972Y118496D03*
D11*
X351542Y118628D03*
D14*
X333260Y118628D03*
D94*
X321512Y118628D03*
D11*
X300854Y118628D03*
D14*
X282308Y118628D03*
X261452Y118628D03*
X253268Y118628D03*
D11*
X224294Y118628D03*
D105*
X220202Y118628D03*
D93*
X213800Y118628D03*
D90*
X200930Y118628D03*
D14*
X195320Y118628D03*
D61*
X191228Y118628D03*
D11*
X187202Y118628D03*
D144*
X178424Y118628D03*
D55*
X167798Y118628D03*
D11*
X158162Y118628D03*
X129254Y118628D03*
D14*
X110972Y118628D03*
D11*
X351542Y118760D03*
D14*
X333260Y118760D03*
D77*
X321446Y118760D03*
D11*
X300854Y118760D03*
D14*
X282308Y118760D03*
X261452Y118760D03*
X253268Y118760D03*
D11*
X224294Y118760D03*
D105*
X220202Y118760D03*
D110*
X213932Y118760D03*
D89*
X200732Y118760D03*
D14*
X195320Y118760D03*
D61*
X191228Y118760D03*
D11*
X187202Y118760D03*
D145*
X178358Y118760D03*
D55*
X167798Y118760D03*
D11*
X158162Y118760D03*
X129254Y118760D03*
X110906Y118760D03*
X351542Y118892D03*
D14*
X333260Y118892D03*
D92*
X321512Y118892D03*
D11*
X300854Y118892D03*
D14*
X282308Y118892D03*
X261452Y118892D03*
X253268Y118892D03*
D11*
X224294Y118892D03*
D105*
X220202Y118892D03*
D108*
X213998Y118892D03*
D76*
X200600Y118892D03*
D14*
X195320Y118892D03*
D61*
X191228Y118892D03*
D11*
X187202Y118892D03*
D146*
X178226Y118892D03*
D55*
X167930Y118892D03*
D11*
X158162Y118892D03*
X129254Y118892D03*
X110906Y118892D03*
X351542Y119024D03*
X333194Y119024D03*
D79*
X321446Y119024D03*
D11*
X300854Y119024D03*
D14*
X282308Y119024D03*
X261452Y119024D03*
X253268Y119024D03*
D11*
X224294Y119024D03*
D105*
X220202Y119024D03*
D123*
X214064Y119024D03*
D84*
X200402Y119024D03*
D14*
X195320Y119024D03*
D61*
X191228Y119024D03*
D11*
X187202Y119024D03*
D147*
X178160Y119024D03*
D81*
X167996Y119024D03*
D11*
X158162Y119024D03*
X129254Y119024D03*
X110906Y119024D03*
X351542Y119156D03*
X333194Y119156D03*
D91*
X321512Y119156D03*
D11*
X300854Y119156D03*
D14*
X282308Y119156D03*
X261452Y119156D03*
X253268Y119156D03*
D11*
X224294Y119156D03*
D105*
X220202Y119156D03*
D104*
X214196Y119156D03*
D81*
X200204Y119156D03*
D14*
X195320Y119156D03*
D61*
X191228Y119156D03*
D11*
X187202Y119156D03*
D148*
X178094Y119156D03*
D81*
X168128Y119156D03*
D11*
X158162Y119156D03*
X129254Y119156D03*
X110906Y119156D03*
X351542Y119288D03*
X333194Y119288D03*
D82*
X321446Y119288D03*
D11*
X300854Y119288D03*
D14*
X282308Y119288D03*
X261452Y119288D03*
X253268Y119288D03*
D11*
X224294Y119288D03*
D105*
X220202Y119288D03*
D73*
X214262Y119288D03*
D13*
X200072Y119288D03*
D14*
X195320Y119288D03*
D61*
X191228Y119288D03*
D11*
X187202Y119288D03*
D147*
X178160Y119288D03*
D81*
X168128Y119288D03*
D11*
X158162Y119288D03*
X129254Y119288D03*
X110906Y119288D03*
X351542Y119420D03*
X333194Y119420D03*
D74*
X321512Y119420D03*
D11*
X300854Y119420D03*
D14*
X282308Y119420D03*
X261452Y119420D03*
X253268Y119420D03*
D11*
X224294Y119420D03*
D105*
X220202Y119420D03*
D101*
X214328Y119420D03*
D31*
X208322Y119420D03*
D14*
X199940Y119420D03*
X195320Y119420D03*
D61*
X191228Y119420D03*
D11*
X187202Y119420D03*
D149*
X178292Y119420D03*
D81*
X168260Y119420D03*
D11*
X158162Y119420D03*
X129254Y119420D03*
X110906Y119420D03*
X351542Y119552D03*
X333194Y119552D03*
D90*
X321446Y119552D03*
D11*
X300854Y119552D03*
D14*
X282308Y119552D03*
X261452Y119552D03*
X253268Y119552D03*
X242840Y119552D03*
D11*
X224294Y119552D03*
D52*
X219938Y119552D03*
D126*
X214394Y119552D03*
D122*
X208124Y119552D03*
D125*
X199742Y119552D03*
D14*
X195320Y119552D03*
D56*
X191096Y119552D03*
D11*
X187202Y119552D03*
D145*
X178358Y119552D03*
D83*
X168326Y119552D03*
D11*
X158162Y119552D03*
X129254Y119552D03*
X110906Y119552D03*
X351542Y119684D03*
X333194Y119684D03*
D85*
X321512Y119684D03*
D11*
X300854Y119684D03*
D14*
X282308Y119684D03*
X261452Y119684D03*
X253268Y119684D03*
D123*
X243500Y119684D03*
D11*
X224294Y119684D03*
D43*
X219674Y119684D03*
D97*
X214526Y119684D03*
D124*
X207992Y119684D03*
D67*
X199610Y119684D03*
D14*
X195320Y119684D03*
D124*
X190964Y119684D03*
D11*
X187202Y119684D03*
D143*
X178490Y119684D03*
D83*
X168458Y119684D03*
D11*
X158162Y119684D03*
X129254Y119684D03*
X110906Y119684D03*
X351542Y119816D03*
D14*
X333260Y119816D03*
D86*
X321446Y119816D03*
D11*
X300854Y119816D03*
D14*
X282308Y119816D03*
X261452Y119816D03*
X253268Y119816D03*
D138*
X243764Y119816D03*
D11*
X224294Y119816D03*
D34*
X219410Y119816D03*
D75*
X214592Y119816D03*
D105*
X207926Y119816D03*
X199478Y119816D03*
D14*
X195320Y119816D03*
D46*
X190832Y119816D03*
D11*
X187202Y119816D03*
D150*
X178556Y119816D03*
D80*
X168524Y119816D03*
D11*
X158162Y119816D03*
X129254Y119816D03*
X110906Y119816D03*
X351542Y119948D03*
D14*
X333260Y119948D03*
D89*
X321512Y119948D03*
D11*
X300854Y119948D03*
D14*
X282308Y119948D03*
X261452Y119948D03*
D11*
X253202Y119948D03*
D151*
X243698Y119948D03*
D11*
X224294Y119948D03*
D127*
X214658Y119948D03*
D125*
X207794Y119948D03*
D58*
X199346Y119948D03*
D14*
X195320Y119948D03*
D43*
X190766Y119948D03*
D11*
X187202Y119948D03*
D141*
X178688Y119948D03*
D80*
X168656Y119948D03*
D14*
X158096Y119948D03*
D11*
X129254Y119948D03*
D14*
X110972Y119948D03*
D11*
X351542Y120080D03*
D14*
X333260Y120080D03*
D88*
X321446Y120080D03*
D11*
X300854Y120080D03*
D14*
X282308Y120080D03*
X261452Y120080D03*
D11*
X253202Y120080D03*
D152*
X243104Y120080D03*
D11*
X224294Y120080D03*
D77*
X214790Y120080D03*
D12*
X207662Y120080D03*
D52*
X199214Y120080D03*
D14*
X195320Y120080D03*
D40*
X190634Y120080D03*
D11*
X187202Y120080D03*
D153*
X178820Y120080D03*
D80*
X168788Y120080D03*
D14*
X158096Y120080D03*
D11*
X129254Y120080D03*
D14*
X110972Y120080D03*
D11*
X351542Y120212D03*
X333326Y120212D03*
D76*
X321512Y120212D03*
D11*
X300854Y120212D03*
D14*
X282308Y120212D03*
X261452Y120212D03*
X253136Y120212D03*
D154*
X242576Y120212D03*
D11*
X224294Y120212D03*
D92*
X214856Y120212D03*
D80*
X207596Y120212D03*
D49*
X199082Y120212D03*
D14*
X195320Y120212D03*
D34*
X190502Y120212D03*
D11*
X187202Y120212D03*
D138*
X178952Y120212D03*
D84*
X168854Y120212D03*
D14*
X158096Y120212D03*
D11*
X129254Y120212D03*
D14*
X110972Y120212D03*
D11*
X351542Y120344D03*
D14*
X333392Y120344D03*
D87*
X321446Y120344D03*
D11*
X300854Y120344D03*
D14*
X282308Y120344D03*
X261452Y120344D03*
X253136Y120344D03*
D128*
X242048Y120344D03*
D11*
X224294Y120344D03*
D79*
X214922Y120344D03*
D76*
X207464Y120344D03*
D122*
X198884Y120344D03*
D14*
X195320Y120344D03*
D121*
X190436Y120344D03*
D11*
X187202Y120344D03*
D98*
X179084Y120344D03*
D84*
X168986Y120344D03*
D11*
X158030Y120344D03*
X129254Y120344D03*
D14*
X110972Y120344D03*
D11*
X351542Y120476D03*
D14*
X333392Y120476D03*
D78*
X321512Y120476D03*
D11*
X300854Y120476D03*
D14*
X282308Y120476D03*
X261452Y120476D03*
X253136Y120476D03*
D155*
X241520Y120476D03*
D11*
X224294Y120476D03*
D82*
X215054Y120476D03*
D85*
X207332Y120476D03*
D37*
X198752Y120476D03*
D14*
X195320Y120476D03*
D28*
X190304Y120476D03*
D11*
X187202Y120476D03*
D156*
X179282Y120476D03*
D78*
X169184Y120476D03*
D14*
X157964Y120476D03*
D11*
X129254Y120476D03*
D14*
X111104Y120476D03*
D11*
X351542Y120608D03*
D14*
X333392Y120608D03*
D84*
X321446Y120608D03*
D11*
X300854Y120608D03*
D14*
X282308Y120608D03*
X261452Y120608D03*
D12*
X253070Y120608D03*
D157*
X240992Y120608D03*
D11*
X224294Y120608D03*
D74*
X215120Y120608D03*
D82*
X207266Y120608D03*
D121*
X198620Y120608D03*
D14*
X195320Y120608D03*
D11*
X187202Y120608D03*
D95*
X179480Y120608D03*
D78*
X169316Y120608D03*
D14*
X157964Y120608D03*
D11*
X129254Y120608D03*
D14*
X111104Y120608D03*
D11*
X351542Y120740D03*
D12*
X333458Y120740D03*
D80*
X321512Y120740D03*
D11*
X300854Y120740D03*
D14*
X282308Y120740D03*
X261452Y120740D03*
D31*
X256370Y120740D03*
D14*
X253004Y120740D03*
D47*
X240398Y120740D03*
D11*
X224294Y120740D03*
D90*
X215186Y120740D03*
D94*
X207200Y120740D03*
D31*
X198554Y120740D03*
D14*
X195320Y120740D03*
D11*
X187202Y120740D03*
D113*
X179744Y120740D03*
D87*
X169382Y120740D03*
D12*
X157898Y120740D03*
D11*
X129254Y120740D03*
D12*
X111170Y120740D03*
D11*
X351542Y120872D03*
D14*
X333524Y120872D03*
D83*
X321446Y120872D03*
D11*
X300854Y120872D03*
D14*
X282308Y120872D03*
X261452Y120872D03*
D43*
X256634Y120872D03*
D12*
X252938Y120872D03*
D57*
X239870Y120872D03*
D11*
X224294Y120872D03*
D85*
X215252Y120872D03*
D99*
X207068Y120872D03*
D14*
X195320Y120872D03*
D11*
X187202Y120872D03*
D110*
X180272Y120872D03*
D76*
X169580Y120872D03*
D12*
X157898Y120872D03*
D11*
X129254Y120872D03*
D12*
X111170Y120872D03*
D11*
X351542Y121004D03*
D12*
X333590Y121004D03*
D81*
X321512Y121004D03*
D11*
X300854Y121004D03*
D14*
X282308Y121004D03*
X261452Y121004D03*
D58*
X257030Y121004D03*
D12*
X252938Y121004D03*
D11*
X224294Y121004D03*
D89*
X215384Y121004D03*
D73*
X207002Y121004D03*
D14*
X195320Y121004D03*
D11*
X187202Y121004D03*
D76*
X169712Y121004D03*
D12*
X157766Y121004D03*
D11*
X129254Y121004D03*
D12*
X111302Y121004D03*
D11*
X351542Y121136D03*
D13*
X333656Y121136D03*
D55*
X321446Y121136D03*
D11*
X300854Y121136D03*
D14*
X282308Y121136D03*
X261452Y121136D03*
D64*
X257228Y121136D03*
D13*
X252872Y121136D03*
D40*
X229310Y121136D03*
D11*
X224294Y121136D03*
D88*
X215450Y121136D03*
D110*
X206936Y121136D03*
D14*
X195320Y121136D03*
D11*
X187202Y121136D03*
D88*
X169910Y121136D03*
D12*
X157766Y121136D03*
D11*
X129254Y121136D03*
D12*
X111302Y121136D03*
D11*
X351542Y121268D03*
D13*
X333656Y121268D03*
X321512Y121268D03*
D11*
X300854Y121268D03*
D14*
X282308Y121268D03*
X261452Y121268D03*
D13*
X252740Y121268D03*
D49*
X228914Y121268D03*
D11*
X224294Y121268D03*
D76*
X215516Y121268D03*
D116*
X206804Y121268D03*
D14*
X195320Y121268D03*
D28*
X192152Y121268D03*
D11*
X187202Y121268D03*
D89*
X170108Y121268D03*
D13*
X157700Y121268D03*
D11*
X129254Y121268D03*
D13*
X111368Y121268D03*
D11*
X351542Y121400D03*
D13*
X333788Y121400D03*
D12*
X321446Y121400D03*
D11*
X300854Y121400D03*
D14*
X282308Y121400D03*
X261452Y121400D03*
D13*
X252740Y121400D03*
D61*
X228452Y121400D03*
D11*
X224294Y121400D03*
D78*
X215648Y121400D03*
D117*
X206738Y121400D03*
D14*
X195320Y121400D03*
D121*
X192020Y121400D03*
D11*
X187202Y121400D03*
D86*
X170174Y121400D03*
D13*
X157568Y121400D03*
D11*
X129254Y121400D03*
D13*
X111500Y121400D03*
D11*
X351542Y121532D03*
D55*
X333854Y121532D03*
D14*
X321512Y121532D03*
D11*
X300854Y121532D03*
D14*
X282308Y121532D03*
X261452Y121532D03*
D55*
X252674Y121532D03*
D105*
X228386Y121532D03*
D11*
X224294Y121532D03*
D84*
X215714Y121532D03*
D137*
X206672Y121532D03*
D14*
X195320Y121532D03*
D34*
X191954Y121532D03*
D11*
X187202Y121532D03*
D85*
X170372Y121532D03*
D55*
X157502Y121532D03*
D11*
X129254Y121532D03*
D55*
X111566Y121532D03*
D11*
X351542Y121664D03*
D55*
X333986Y121664D03*
D11*
X321446Y121664D03*
X300854Y121664D03*
D14*
X282308Y121664D03*
X261452Y121664D03*
D55*
X252542Y121664D03*
D105*
X228386Y121664D03*
D11*
X224294Y121664D03*
D80*
X215780Y121664D03*
D106*
X206606Y121664D03*
D14*
X195320Y121664D03*
D40*
X191822Y121664D03*
D11*
X187202Y121664D03*
D90*
X170570Y121664D03*
D81*
X157436Y121664D03*
D14*
X129188Y121664D03*
D81*
X111632Y121664D03*
D11*
X351542Y121796D03*
D81*
X334052Y121796D03*
D15*
X321512Y121796D03*
D11*
X300854Y121796D03*
D14*
X282308Y121796D03*
X261452Y121796D03*
D81*
X252476Y121796D03*
D61*
X228320Y121796D03*
D11*
X224294Y121796D03*
D81*
X215912Y121796D03*
D100*
X206474Y121796D03*
D14*
X195320Y121796D03*
D122*
X191756Y121796D03*
D11*
X187202Y121796D03*
D82*
X170834Y121796D03*
D81*
X157304Y121796D03*
D14*
X129188Y121796D03*
D81*
X111764Y121796D03*
D14*
X351476Y121928D03*
D80*
X334184Y121928D03*
D125*
X321446Y121928D03*
D14*
X300920Y121928D03*
X282308Y121928D03*
X261452Y121928D03*
D83*
X252278Y121928D03*
D61*
X228320Y121928D03*
D11*
X224294Y121928D03*
D55*
X215978Y121928D03*
D138*
X206408Y121928D03*
D14*
X195320Y121928D03*
D46*
X191624Y121928D03*
D14*
X187136Y121928D03*
D91*
X171032Y121928D03*
D83*
X157238Y121928D03*
D14*
X129188Y121928D03*
D80*
X111896Y121928D03*
D14*
X351476Y122060D03*
D80*
X334316Y122060D03*
D69*
X321512Y122060D03*
D12*
X300854Y122060D03*
D14*
X282308Y122060D03*
X261452Y122060D03*
D80*
X252212Y122060D03*
D61*
X228320Y122060D03*
D11*
X224294Y122060D03*
D13*
X216044Y122060D03*
D141*
X206408Y122060D03*
D14*
X195320Y122060D03*
D49*
X191558Y122060D03*
D14*
X187136Y122060D03*
D92*
X171296Y122060D03*
D80*
X157040Y122060D03*
D12*
X129122Y122060D03*
D84*
X112094Y122060D03*
D12*
X351410Y122192D03*
D78*
X334448Y122192D03*
D67*
X321446Y122192D03*
D55*
X300854Y122192D03*
D14*
X282308Y122192D03*
X261452Y122192D03*
D84*
X252014Y122192D03*
D61*
X228320Y122192D03*
D11*
X224294Y122192D03*
D12*
X216110Y122192D03*
D144*
X206276Y122192D03*
D14*
X195320Y122192D03*
D52*
X191426Y122192D03*
D12*
X187070Y122192D03*
D127*
X171626Y122192D03*
D78*
X156908Y122192D03*
D12*
X129122Y122192D03*
D87*
X112226Y122192D03*
D13*
X351344Y122324D03*
D76*
X334712Y122324D03*
D64*
X321512Y122324D03*
D83*
X300854Y122324D03*
D14*
X282308Y122324D03*
X261452Y122324D03*
D87*
X251882Y122324D03*
D61*
X228320Y122324D03*
D11*
X224294Y122324D03*
X216242Y122324D03*
D145*
X206078Y122324D03*
D14*
X195320Y122324D03*
D56*
X191360Y122324D03*
D13*
X187004Y122324D03*
D126*
X172022Y122324D03*
D87*
X156710Y122324D03*
D55*
X128990Y122324D03*
D88*
X112490Y122324D03*
D25*
X342830Y122456D03*
D105*
X321446Y122456D03*
D158*
X300854Y122456D03*
D14*
X282308Y122456D03*
X261452Y122456D03*
D89*
X251552Y122456D03*
D61*
X228320Y122456D03*
D11*
X224294Y122456D03*
D15*
X216308Y122456D03*
D145*
X205814Y122456D03*
D14*
X195320Y122456D03*
D61*
X191228Y122456D03*
D21*
X178820Y122456D03*
D85*
X156380Y122456D03*
D159*
X120476Y122456D03*
D25*
X342830Y122588D03*
D61*
X321512Y122588D03*
D158*
X300854Y122588D03*
D14*
X282308Y122588D03*
X261452Y122588D03*
D160*
X242378Y122588D03*
D61*
X228320Y122588D03*
D11*
X224294Y122588D03*
D125*
X216374Y122588D03*
D145*
X205418Y122588D03*
D14*
X195320Y122588D03*
D61*
X191228Y122588D03*
D71*
X178886Y122588D03*
D72*
X147272Y122588D03*
D25*
X120542Y122588D03*
D136*
X342896Y122720D03*
D58*
X321446Y122720D03*
D158*
X300854Y122720D03*
D14*
X282308Y122720D03*
X261452Y122720D03*
D72*
X242312Y122720D03*
D61*
X228320Y122720D03*
D11*
X224294Y122720D03*
D31*
X221126Y122720D03*
D67*
X216506Y122720D03*
D145*
X205154Y122720D03*
D14*
X195320Y122720D03*
D61*
X191228Y122720D03*
D70*
X178952Y122720D03*
D68*
X147206Y122720D03*
D136*
X120608Y122720D03*
D23*
X342962Y122852D03*
D56*
X321512Y122852D03*
D158*
X300854Y122852D03*
D14*
X282308Y122852D03*
X261452Y122852D03*
D68*
X242246Y122852D03*
D61*
X228320Y122852D03*
D11*
X224294Y122852D03*
D122*
X220796Y122852D03*
D64*
X216572Y122852D03*
D145*
X204890Y122852D03*
D14*
X195320Y122852D03*
D61*
X191228Y122852D03*
D19*
X179018Y122852D03*
D68*
X147206Y122852D03*
D136*
X120608Y122852D03*
D23*
X342962Y122984D03*
D52*
X321446Y122984D03*
D158*
X300854Y122984D03*
D14*
X282308Y122984D03*
D15*
X265940Y122984D03*
D14*
X261452Y122984D03*
D68*
X242246Y122984D03*
D61*
X228320Y122984D03*
D11*
X224294Y122984D03*
D124*
X220532Y122984D03*
D105*
X216638Y122984D03*
D144*
X204560Y122984D03*
D14*
X195320Y122984D03*
D61*
X191228Y122984D03*
D65*
X179084Y122984D03*
D66*
X147140Y122984D03*
D23*
X120674Y122984D03*
D135*
X343028Y123116D03*
D124*
X321512Y123116D03*
D158*
X300854Y123116D03*
D14*
X282308Y123116D03*
D89*
X266864Y123116D03*
D14*
X261452Y123116D03*
D66*
X242180Y123116D03*
D61*
X228320Y123116D03*
D11*
X224294Y123116D03*
D61*
X220268Y123116D03*
D58*
X216770Y123116D03*
D144*
X204296Y123116D03*
D14*
X195320Y123116D03*
D61*
X191228Y123116D03*
D62*
X179216Y123116D03*
D63*
X147074Y123116D03*
D135*
X120740Y123116D03*
D134*
X343094Y123248D03*
D49*
X321446Y123248D03*
D158*
X300854Y123248D03*
D14*
X282308Y123248D03*
D94*
X267524Y123248D03*
D14*
X261452Y123248D03*
D63*
X242114Y123248D03*
D61*
X228320Y123248D03*
D11*
X224294Y123248D03*
D105*
X220202Y123248D03*
D56*
X216836Y123248D03*
D143*
X204098Y123248D03*
D14*
X195320Y123248D03*
D61*
X191228Y123248D03*
D59*
X179282Y123248D03*
D31*
X167402Y123248D03*
D60*
X147008Y123248D03*
D134*
X120806Y123248D03*
D21*
X343160Y123380D03*
D46*
X321512Y123380D03*
D158*
X300854Y123380D03*
D14*
X282308Y123380D03*
D104*
X268052Y123380D03*
D14*
X261452Y123380D03*
D60*
X242048Y123380D03*
D61*
X228320Y123380D03*
D11*
X224294Y123380D03*
D105*
X220202Y123380D03*
D52*
X216902Y123380D03*
D141*
X203900Y123380D03*
D14*
X195320Y123380D03*
D61*
X191228Y123380D03*
D57*
X179414Y123380D03*
D34*
X167402Y123380D03*
D60*
X147008Y123380D03*
D21*
X120872Y123380D03*
D71*
X343226Y123512D03*
D43*
X321446Y123512D03*
D158*
X300854Y123512D03*
D14*
X282308Y123512D03*
D93*
X268448Y123512D03*
D14*
X261452Y123512D03*
D40*
X257954Y123512D03*
D54*
X241982Y123512D03*
D61*
X228320Y123512D03*
D11*
X224294Y123512D03*
D105*
X220202Y123512D03*
D49*
X217034Y123512D03*
D153*
X203768Y123512D03*
D14*
X195320Y123512D03*
D61*
X191228Y123512D03*
D53*
X179480Y123512D03*
D40*
X167402Y123512D03*
D54*
X146942Y123512D03*
D71*
X120938Y123512D03*
D70*
X343292Y123644D03*
D122*
X321512Y123644D03*
D158*
X300854Y123644D03*
D14*
X282308Y123644D03*
D120*
X268844Y123644D03*
D14*
X261452Y123644D03*
D105*
X257294Y123644D03*
D51*
X241916Y123644D03*
D61*
X228320Y123644D03*
D11*
X224294Y123644D03*
D105*
X220202Y123644D03*
D46*
X217100Y123644D03*
D138*
X203636Y123644D03*
D14*
X195320Y123644D03*
D61*
X191228Y123644D03*
D50*
X179612Y123644D03*
D43*
X167402Y123644D03*
D51*
X146876Y123644D03*
D70*
X121004Y123644D03*
D19*
X343358Y123776D03*
D40*
X321446Y123776D03*
D158*
X300854Y123776D03*
D14*
X282308Y123776D03*
D109*
X269174Y123776D03*
D14*
X261452Y123776D03*
D55*
X256634Y123776D03*
D48*
X241850Y123776D03*
D61*
X228320Y123776D03*
D11*
X224294Y123776D03*
D105*
X220202Y123776D03*
D43*
X217166Y123776D03*
D98*
X203504Y123776D03*
D14*
X195320Y123776D03*
D61*
X191228Y123776D03*
D47*
X179678Y123776D03*
D49*
X167402Y123776D03*
D48*
X146810Y123776D03*
D19*
X121070Y123776D03*
D65*
X343424Y123908D03*
D37*
X321512Y123908D03*
D158*
X300854Y123908D03*
D14*
X282308Y123908D03*
D102*
X269504Y123908D03*
D14*
X261452Y123908D03*
D81*
X256568Y123908D03*
D161*
X241784Y123908D03*
D61*
X228320Y123908D03*
D11*
X224294Y123908D03*
D105*
X220202Y123908D03*
D122*
X217232Y123908D03*
D102*
X203372Y123908D03*
D14*
X195320Y123908D03*
D61*
X191228Y123908D03*
D44*
X179810Y123908D03*
D52*
X167402Y123908D03*
D161*
X146744Y123908D03*
D65*
X121136Y123908D03*
D133*
X343490Y124040D03*
D34*
X321446Y124040D03*
D158*
X300854Y124040D03*
D14*
X282308Y124040D03*
D139*
X269834Y124040D03*
D14*
X261452Y124040D03*
D83*
X256502Y124040D03*
D45*
X241718Y124040D03*
D61*
X228320Y124040D03*
D11*
X224294Y124040D03*
D105*
X220202Y124040D03*
D37*
X217364Y124040D03*
D103*
X203240Y124040D03*
D14*
X195320Y124040D03*
D61*
X191228Y124040D03*
D41*
X179942Y124040D03*
D56*
X167468Y124040D03*
D42*
X146612Y124040D03*
D133*
X121202Y124040D03*
D62*
X343556Y124172D03*
D31*
X321446Y124172D03*
D158*
X300854Y124172D03*
D14*
X282308Y124172D03*
D142*
X270098Y124172D03*
D14*
X261452Y124172D03*
D83*
X256502Y124172D03*
D42*
X241652Y124172D03*
D61*
X228320Y124172D03*
D11*
X224294Y124172D03*
D105*
X220202Y124172D03*
D34*
X217430Y124172D03*
D95*
X203108Y124172D03*
D14*
X195320Y124172D03*
D61*
X191228Y124172D03*
D38*
X180074Y124172D03*
D105*
X167534Y124172D03*
D39*
X146546Y124172D03*
D62*
X121268Y124172D03*
D59*
X343622Y124304D03*
D28*
X321512Y124304D03*
D158*
X300854Y124304D03*
D14*
X282308Y124304D03*
D145*
X270362Y124304D03*
D14*
X261452Y124304D03*
D80*
X256436Y124304D03*
D36*
X241520Y124304D03*
D61*
X228320Y124304D03*
D11*
X224294Y124304D03*
D105*
X220202Y124304D03*
D121*
X217496Y124304D03*
D31*
X214658Y124304D03*
D137*
X202976Y124304D03*
D14*
X195320Y124304D03*
D61*
X191228Y124304D03*
D35*
X180206Y124304D03*
D67*
X167534Y124304D03*
D36*
X146480Y124304D03*
D17*
X121400Y124304D03*
D57*
X343754Y124436D03*
D158*
X300854Y124436D03*
D14*
X282308Y124436D03*
D148*
X270626Y124436D03*
D14*
X261452Y124436D03*
D84*
X256370Y124436D03*
D162*
X241454Y124436D03*
D61*
X228320Y124436D03*
D11*
X224294Y124436D03*
D105*
X220202Y124436D03*
D28*
X217628Y124436D03*
D122*
X214460Y124436D03*
D113*
X202844Y124436D03*
D14*
X195320Y124436D03*
D61*
X191228Y124436D03*
D32*
X180338Y124436D03*
D125*
X167534Y124436D03*
D33*
X146348Y124436D03*
D57*
X121466Y124436D03*
D53*
X343820Y124568D03*
D158*
X300854Y124568D03*
D14*
X282308Y124568D03*
D151*
X270890Y124568D03*
D14*
X261452Y124568D03*
D78*
X256304Y124568D03*
D30*
X241322Y124568D03*
D61*
X228320Y124568D03*
D11*
X224294Y124568D03*
D105*
X220202Y124568D03*
D124*
X214328Y124568D03*
D120*
X202712Y124568D03*
D14*
X195320Y124568D03*
D61*
X191228Y124568D03*
D163*
X180536Y124568D03*
D14*
X167600Y124568D03*
D30*
X146282Y124568D03*
D164*
X121598Y124568D03*
D50*
X343952Y124700D03*
D158*
X300854Y124700D03*
D14*
X282308Y124700D03*
D165*
X271088Y124700D03*
D14*
X261452Y124700D03*
D87*
X256238Y124700D03*
D166*
X241256Y124700D03*
D58*
X228254Y124700D03*
D11*
X224294Y124700D03*
D105*
X220202Y124700D03*
D64*
X214196Y124700D03*
D119*
X202580Y124700D03*
D14*
X195320Y124700D03*
D61*
X191228Y124700D03*
D26*
X180668Y124700D03*
D13*
X167600Y124700D03*
D27*
X146150Y124700D03*
D47*
X121730Y124700D03*
D132*
X344084Y124832D03*
D158*
X300854Y124832D03*
D14*
X282308Y124832D03*
D167*
X271352Y124832D03*
D14*
X261452Y124832D03*
D76*
X256172Y124832D03*
D159*
X241124Y124832D03*
D46*
X227924Y124832D03*
D11*
X224294Y124832D03*
D105*
X220202Y124832D03*
D11*
X213998Y124832D03*
D116*
X202448Y124832D03*
D14*
X195320Y124832D03*
D61*
X191228Y124832D03*
D24*
X180866Y124832D03*
D83*
X167666Y124832D03*
D25*
X146018Y124832D03*
D44*
X121862Y124832D03*
D131*
X344216Y124964D03*
D158*
X300854Y124964D03*
D14*
X282308Y124964D03*
D168*
X271550Y124964D03*
D14*
X261452Y124964D03*
D88*
X256106Y124964D03*
D136*
X240992Y124964D03*
D34*
X227594Y124964D03*
D11*
X224294Y124964D03*
D105*
X220202Y124964D03*
D55*
X213866Y124964D03*
D93*
X202316Y124964D03*
D14*
X195320Y124964D03*
D58*
X191162Y124964D03*
D169*
X181130Y124964D03*
D84*
X167666Y124964D03*
D23*
X145886Y124964D03*
D41*
X121994Y124964D03*
D38*
X344414Y125096D03*
D158*
X300854Y125096D03*
D14*
X282308Y125096D03*
D143*
X270230Y125096D03*
D14*
X261452Y125096D03*
D89*
X256040Y125096D03*
D134*
X240794Y125096D03*
D11*
X224294Y125096D03*
D105*
X220202Y125096D03*
D78*
X213800Y125096D03*
D110*
X202184Y125096D03*
D14*
X195320Y125096D03*
D56*
X191096Y125096D03*
D170*
X181394Y125096D03*
D76*
X167732Y125096D03*
D21*
X145688Y125096D03*
D171*
X122192Y125096D03*
D130*
X344612Y125228D03*
D158*
X300854Y125228D03*
D14*
X282308Y125228D03*
D76*
X266732Y125228D03*
D14*
X261452Y125228D03*
D86*
X255974Y125228D03*
D70*
X240596Y125228D03*
D11*
X224294Y125228D03*
D105*
X220202Y125228D03*
D86*
X213602Y125228D03*
D123*
X202052Y125228D03*
D14*
X195320Y125228D03*
D52*
X191030Y125228D03*
D152*
X181724Y125228D03*
D86*
X167798Y125228D03*
D19*
X145490Y125228D03*
D155*
X122456Y125228D03*
D172*
X344942Y125360D03*
D158*
X300854Y125360D03*
D14*
X282308Y125360D03*
D34*
X264818Y125360D03*
D14*
X261452Y125360D03*
D85*
X255908Y125360D03*
D59*
X240266Y125360D03*
D11*
X224294Y125360D03*
D105*
X220202Y125360D03*
D82*
X213470Y125360D03*
D104*
X201920Y125360D03*
D14*
X195320Y125360D03*
D124*
X190964Y125360D03*
D173*
X182252Y125360D03*
D74*
X167864Y125360D03*
D59*
X145226Y125360D03*
D174*
X122984Y125360D03*
D74*
X255776Y125492D03*
D105*
X220202Y125492D03*
D127*
X213338Y125492D03*
D101*
X201788Y125492D03*
D49*
X190898Y125492D03*
D79*
X167930Y125492D03*
D82*
X255710Y125624D03*
D105*
X220202Y125624D03*
D126*
X213206Y125624D03*
D99*
X201656Y125624D03*
D43*
X190766Y125624D03*
D77*
X167930Y125624D03*
D89*
X255116Y125756D03*
D105*
X220202Y125756D03*
D107*
X213074Y125756D03*
D97*
X201590Y125756D03*
D122*
X190700Y125756D03*
D75*
X168128Y125756D03*
D15*
X254060Y125888D03*
D105*
X220202Y125888D03*
D93*
X212876Y125888D03*
D127*
X201458Y125888D03*
D40*
X190634Y125888D03*
D126*
X168194Y125888D03*
D46*
X253004Y126020D03*
D105*
X220202Y126020D03*
D117*
X212810Y126020D03*
D77*
X201326Y126020D03*
D37*
X190568Y126020D03*
D104*
X168260Y126020D03*
D105*
X220202Y126152D03*
D111*
X212678Y126152D03*
D79*
X201194Y126152D03*
D34*
X190502Y126152D03*
D110*
X168392Y126152D03*
D105*
X220202Y126284D03*
D106*
X212546Y126284D03*
D79*
X201062Y126284D03*
D31*
X190370Y126284D03*
D116*
X168524Y126284D03*
D105*
X220202Y126416D03*
D98*
X212480Y126416D03*
D82*
X200930Y126416D03*
D28*
X192284Y126416D03*
X190304Y126416D03*
D120*
X168656Y126416D03*
D58*
X219938Y126548D03*
D153*
X212348Y126548D03*
D90*
X200798Y126548D03*
D121*
X192152Y126548D03*
D28*
X190172Y126548D03*
D109*
X168854Y126548D03*
D49*
X219674Y126680D03*
D150*
X212216Y126680D03*
D90*
X200666Y126680D03*
D37*
X192152Y126680D03*
D156*
X169118Y126680D03*
D122*
X229112Y126812D03*
D43*
X219278Y126812D03*
D146*
X212150Y126812D03*
D85*
X200468Y126812D03*
D43*
X192086Y126812D03*
D153*
X169448Y126812D03*
D64*
X228716Y126944D03*
D167*
X212480Y126944D03*
D86*
X200270Y126944D03*
D52*
X192086Y126944D03*
D28*
X189776Y126944D03*
D148*
X170042Y126944D03*
D175*
X234326Y127076D03*
D176*
X212150Y127076D03*
D143*
X196838Y127076D03*
D76*
X187532Y127076D03*
D71*
X173606Y127076D03*
D139*
X278150Y127208D03*
D22*
X233204Y127208D03*
D177*
X211688Y127208D03*
D143*
X196574Y127208D03*
D87*
X187466Y127208D03*
D71*
X173474Y127208D03*
D134*
X275510Y127340D03*
D154*
X232148Y127340D03*
D16*
X211226Y127340D03*
D143*
X196310Y127340D03*
D87*
X187334Y127340D03*
D71*
X173474Y127340D03*
D178*
X273992Y127472D03*
D20*
X231092Y127472D03*
D165*
X210764Y127472D03*
D143*
X196178Y127472D03*
D87*
X187202Y127472D03*
D71*
X173342Y127472D03*
D179*
X272870Y127604D03*
D170*
X230102Y127604D03*
D180*
X210302Y127604D03*
D143*
X195914Y127604D03*
D87*
X187070Y127604D03*
D71*
X173210Y127604D03*
D181*
X271748Y127736D03*
D182*
X229112Y127736D03*
D180*
X209906Y127736D03*
D143*
X195782Y127736D03*
D87*
X186938Y127736D03*
D71*
X173078Y127736D03*
D183*
X270890Y127868D03*
D182*
X228056Y127868D03*
D173*
X209444Y127868D03*
D143*
X195518Y127868D03*
D78*
X186872Y127868D03*
D21*
X173012Y127868D03*
D184*
X270032Y128000D03*
D185*
X227066Y128000D03*
D173*
X209048Y128000D03*
D144*
X195320Y128000D03*
D78*
X186740Y128000D03*
D71*
X172946Y128000D03*
D186*
X269240Y128132D03*
D168*
X226142Y128132D03*
D187*
X208652Y128132D03*
D143*
X195122Y128132D03*
D78*
X186608Y128132D03*
D71*
X172814Y128132D03*
D188*
X268514Y128264D03*
D168*
X225218Y128264D03*
D189*
X208190Y128264D03*
D143*
X194858Y128264D03*
D78*
X186476Y128264D03*
D21*
X172748Y128264D03*
D190*
X267788Y128396D03*
D168*
X224294Y128396D03*
D189*
X207794Y128396D03*
D143*
X194726Y128396D03*
D84*
X186410Y128396D03*
D21*
X172616Y128396D03*
D191*
X267194Y128528D03*
D152*
X223304Y128528D03*
D192*
X207332Y128528D03*
D144*
X194528Y128528D03*
D84*
X186278Y128528D03*
D71*
X172550Y128528D03*
D193*
X266534Y128660D03*
D152*
X222380Y128660D03*
D148*
X207002Y128660D03*
D143*
X194330Y128660D03*
D84*
X186146Y128660D03*
D21*
X172484Y128660D03*
D194*
X265940Y128792D03*
D168*
X221522Y128792D03*
D148*
X206606Y128792D03*
D144*
X194132Y128792D03*
D84*
X186014Y128792D03*
D21*
X172352Y128792D03*
D195*
X265280Y128924D03*
D152*
X220664Y128924D03*
D147*
X206144Y128924D03*
D143*
X193934Y128924D03*
D80*
X185948Y128924D03*
D21*
X172220Y128924D03*
D196*
X264818Y129056D03*
D152*
X219740Y129056D03*
D146*
X205814Y129056D03*
D144*
X193736Y129056D03*
D80*
X185816Y129056D03*
D21*
X172220Y129056D03*
D197*
X264224Y129188D03*
D152*
X218948Y129188D03*
D146*
X205418Y129188D03*
D143*
X193538Y129188D03*
D80*
X185684Y129188D03*
D21*
X172088Y129188D03*
D198*
X263696Y129320D03*
D199*
X206342Y129320D03*
D83*
X185618Y129320D03*
D21*
X171956Y129320D03*
D200*
X263102Y129452D03*
D201*
X205880Y129452D03*
D83*
X185486Y129452D03*
D134*
X171890Y129452D03*
D202*
X260660Y129584D03*
D184*
X203504Y129584D03*
D21*
X171824Y129584D03*
D203*
X258218Y129716D03*
D204*
X203108Y129716D03*
D134*
X171758Y129716D03*
D205*
X255776Y129848D03*
D206*
X202646Y129848D03*
D134*
X171626Y129848D03*
D207*
X253334Y129980D03*
D208*
X202250Y129980D03*
D134*
X171494Y129980D03*
D209*
X250760Y130112D03*
D210*
X201920Y130112D03*
D134*
X171494Y130112D03*
D211*
X248252Y130244D03*
D201*
X201524Y130244D03*
D134*
X171362Y130244D03*
D212*
X245678Y130376D03*
D213*
X201194Y130376D03*
D135*
X171296Y130376D03*
D214*
X243038Y130508D03*
D215*
X200996Y130508D03*
D134*
X171230Y130508D03*
D216*
X222380Y130640D03*
D135*
X171164Y130640D03*
D217*
X220532Y130772D03*
D135*
X171032Y130772D03*
D218*
X218816Y130904D03*
D135*
X171032Y130904D03*
D219*
X217430Y131036D03*
D135*
X170900Y131036D03*
D220*
X216176Y131168D03*
D23*
X170834Y131168D03*
D221*
X215054Y131300D03*
D135*
X170768Y131300D03*
D222*
X213998Y131432D03*
D23*
X170702Y131432D03*
D37*
X297224Y131564D03*
D223*
X213008Y131564D03*
D23*
X170570Y131564D03*
D103*
X294056Y131696D03*
D203*
X212150Y131696D03*
D23*
X170570Y131696D03*
D131*
X291020Y131828D03*
D224*
X211292Y131828D03*
D23*
X170438Y131828D03*
D225*
X288182Y131960D03*
D226*
X210434Y131960D03*
D136*
X170372Y131960D03*
D227*
X285608Y132092D03*
D228*
X209642Y132092D03*
D136*
X170372Y132092D03*
D183*
X283298Y132224D03*
D229*
X208850Y132224D03*
D136*
X170240Y132224D03*
D230*
X281120Y132356D03*
D231*
X208124Y132356D03*
D136*
X170240Y132356D03*
D232*
X279272Y132488D03*
D233*
X207332Y132488D03*
D136*
X170108Y132488D03*
D234*
X277556Y132620D03*
D235*
X206738Y132620D03*
D25*
X170042Y132620D03*
D236*
X275906Y132752D03*
D237*
X206012Y132752D03*
D25*
X170042Y132752D03*
D203*
X274322Y132884D03*
D238*
X205418Y132884D03*
D25*
X169910Y132884D03*
D239*
X272738Y133016D03*
D240*
X204890Y133016D03*
D25*
X169910Y133016D03*
D241*
X271220Y133148D03*
D242*
X204428Y133148D03*
D159*
X169844Y133148D03*
D243*
X269636Y133280D03*
D244*
X204098Y133280D03*
D159*
X169712Y133280D03*
D245*
X267722Y133412D03*
D214*
X204230Y133412D03*
D159*
X169712Y133412D03*
D246*
X243764Y133544D03*
D27*
X169646Y133544D03*
D247*
X243896Y133676D03*
D27*
X169646Y133676D03*
D248*
X244094Y133808D03*
D27*
X169514Y133808D03*
D249*
X244160Y133940D03*
D166*
X169448Y133940D03*
D250*
X244292Y134072D03*
D166*
X169448Y134072D03*
D251*
X244424Y134204D03*
D30*
X169382Y134204D03*
D252*
X244490Y134336D03*
D166*
X169316Y134336D03*
D253*
X244622Y134468D03*
D30*
X169250Y134468D03*
D254*
X244754Y134600D03*
D30*
X169250Y134600D03*
D255*
X244886Y134732D03*
D33*
X169184Y134732D03*
D256*
X245018Y134864D03*
D162*
X169118Y134864D03*
D26*
X301052Y134996D03*
D257*
X225416Y134996D03*
D33*
X169052Y134996D03*
D141*
X303824Y135128D03*
D258*
X222776Y135128D03*
D162*
X168986Y135128D03*
D123*
X305936Y135260D03*
D216*
X220664Y135260D03*
D162*
X168986Y135260D03*
D84*
X307718Y135392D03*
D259*
X218948Y135392D03*
D36*
X168920Y135392D03*
D49*
X309302Y135524D03*
D260*
X217430Y135524D03*
D36*
X168920Y135524D03*
D261*
X216110Y135656D03*
D39*
X168854Y135656D03*
D262*
X214922Y135788D03*
D39*
X168854Y135788D03*
D263*
X213800Y135920D03*
D42*
X168788Y135920D03*
D264*
X212810Y136052D03*
D42*
X168788Y136052D03*
D265*
X211886Y136184D03*
D45*
X168722Y136184D03*
D266*
X211028Y136316D03*
D45*
X168722Y136316D03*
D267*
X210368Y136448D03*
D161*
X168656Y136448D03*
D268*
X209708Y136580D03*
D161*
X168656Y136580D03*
D269*
X209246Y136712D03*
D48*
X168590Y136712D03*
D270*
X209048Y136844D03*
D51*
X168524Y136844D03*
D271*
X257228Y136976D03*
D205*
X209840Y136976D03*
D54*
X168458Y136976D03*
D272*
X230696Y137108D03*
D60*
X168392Y137108D03*
D273*
X233732Y137240D03*
D63*
X168326Y137240D03*
D274*
X236240Y137372D03*
D68*
X168326Y137372D03*
D275*
X238352Y137504D03*
D72*
X168260Y137504D03*
D276*
X240266Y137636D03*
D72*
X168260Y137636D03*
D277*
X241982Y137768D03*
D278*
X168128Y137768D03*
D279*
X243698Y137900D03*
D280*
X168062Y137900D03*
D281*
X245216Y138032D03*
D282*
X168062Y138032D03*
D283*
X246404Y138164D03*
D284*
X167996Y138164D03*
D285*
X246734Y138296D03*
D158*
X167930Y138296D03*
D286*
X246998Y138428D03*
D287*
X167930Y138428D03*
D288*
X247328Y138560D03*
D289*
X167798Y138560D03*
D290*
X247526Y138692D03*
D291*
X167732Y138692D03*
D292*
X247790Y138824D03*
D293*
X167732Y138824D03*
D294*
X248054Y138956D03*
D295*
X167600Y138956D03*
D296*
X248186Y139088D03*
D297*
X167534Y139088D03*
D298*
X248450Y139220D03*
D178*
X167468Y139220D03*
D299*
X248648Y139352D03*
D300*
X167402Y139352D03*
D301*
X248846Y139484D03*
D302*
X167270Y139484D03*
D303*
X249044Y139616D03*
D304*
X167204Y139616D03*
D305*
X249242Y139748D03*
D306*
X167072Y139748D03*
D307*
X249440Y139880D03*
D308*
X166940Y139880D03*
D309*
X249638Y140012D03*
D310*
X166808Y140012D03*
D311*
X249836Y140144D03*
D312*
X166610Y140144D03*
D300*
X304154Y140276D03*
D313*
X218420Y140276D03*
D314*
X166478Y140276D03*
D130*
X308972Y140408D03*
D315*
X215846Y140408D03*
D316*
X166214Y140408D03*
D156*
X312602Y140540D03*
D239*
X215054Y140540D03*
D317*
X165884Y140540D03*
D87*
X315638Y140672D03*
D318*
X215384Y140672D03*
D319*
X165488Y140672D03*
D320*
X216572Y140804D03*
D321*
X165092Y140804D03*
D322*
X218288Y140936D03*
D323*
X164696Y140936D03*
D324*
X220400Y141068D03*
D325*
X164366Y141068D03*
D326*
X222776Y141200D03*
D327*
X164036Y141200D03*
D328*
X225218Y141332D03*
D329*
X163706Y141332D03*
D330*
X227726Y141464D03*
D331*
X163376Y141464D03*
D332*
X230366Y141596D03*
D208*
X163046Y141596D03*
D333*
X233072Y141728D03*
D334*
X162716Y141728D03*
D335*
X235712Y141860D03*
D336*
X162386Y141860D03*
D337*
X238352Y141992D03*
D338*
X162122Y141992D03*
D339*
X241124Y142124D03*
D340*
X161858Y142124D03*
D341*
X243830Y142256D03*
D230*
X161660Y142256D03*
D342*
X246602Y142388D03*
D343*
X161396Y142388D03*
D344*
X249440Y142520D03*
D345*
X161132Y142520D03*
D298*
X252410Y142652D03*
D346*
X160934Y142652D03*
D347*
X253466Y142784D03*
D348*
X160868Y142784D03*
D349*
X253796Y142916D03*
D350*
X160670Y142916D03*
D351*
X254126Y143048D03*
D352*
X160538Y143048D03*
D353*
X254324Y143180D03*
D354*
X160538Y143180D03*
D355*
X254654Y143312D03*
D356*
X160472Y143312D03*
D355*
X254918Y143444D03*
D212*
X160538Y143444D03*
D357*
X255116Y143576D03*
D358*
X160538Y143576D03*
D357*
X255380Y143708D03*
D359*
X160604Y143708D03*
D357*
X255644Y143840D03*
D360*
X160802Y143840D03*
D355*
X255842Y143972D03*
D359*
X161000Y143972D03*
D357*
X256040Y144104D03*
D359*
X161264Y144104D03*
D357*
X256304Y144236D03*
D359*
X161528Y144236D03*
D355*
X256502Y144368D03*
D190*
X161792Y144368D03*
D355*
X256766Y144500D03*
D212*
X162122Y144500D03*
D353*
X256964Y144632D03*
D361*
X162386Y144632D03*
D353*
X257228Y144764D03*
D356*
X162716Y144764D03*
D351*
X257426Y144896D03*
D232*
X163112Y144896D03*
D349*
X257624Y145028D03*
D362*
X163508Y145028D03*
D347*
X257822Y145160D03*
D352*
X163838Y145160D03*
D347*
X258086Y145292D03*
D240*
X164234Y145292D03*
D300*
X312602Y145424D03*
D363*
X234656Y145424D03*
D364*
X164696Y145424D03*
D19*
X316034Y145556D03*
D365*
X232610Y145556D03*
D242*
X165092Y145556D03*
D182*
X318608Y145688D03*
D366*
X231026Y145688D03*
D214*
X165554Y145688D03*
D138*
X320720Y145820D03*
D259*
X229640Y145820D03*
D346*
X165950Y145820D03*
D101*
X322700Y145952D03*
D367*
X228584Y145952D03*
D368*
X166412Y145952D03*
D55*
X324482Y146084D03*
D369*
X227594Y146084D03*
D370*
X166874Y146084D03*
D34*
X326066Y146216D03*
D371*
X226802Y146216D03*
D372*
X167336Y146216D03*
D320*
X226208Y146348D03*
D186*
X167864Y146348D03*
D221*
X225878Y146480D03*
D373*
X168326Y146480D03*
D47*
X274850Y146612D03*
D374*
X226208Y146612D03*
D375*
X168854Y146612D03*
D376*
X242840Y146744D03*
D377*
X169316Y146744D03*
D378*
X245480Y146876D03*
D379*
X169844Y146876D03*
D380*
X247658Y147008D03*
D338*
X170438Y147008D03*
D381*
X249638Y147140D03*
D382*
X170900Y147140D03*
D383*
X251156Y147272D03*
D384*
X171428Y147272D03*
D385*
X252740Y147404D03*
D386*
X171758Y147404D03*
D387*
X254192Y147536D03*
D388*
X172088Y147536D03*
D389*
X255512Y147668D03*
D386*
X172418Y147668D03*
D390*
X256832Y147800D03*
D386*
X172682Y147800D03*
D391*
X258020Y147932D03*
D386*
X172946Y147932D03*
D392*
X259208Y148064D03*
D384*
X173276Y148064D03*
D393*
X260330Y148196D03*
D384*
X173540Y148196D03*
D394*
X261386Y148328D03*
D384*
X173936Y148328D03*
D395*
X262508Y148460D03*
D384*
X174200Y148460D03*
D396*
X263630Y148592D03*
D336*
X174530Y148592D03*
D397*
X264620Y148724D03*
D184*
X174860Y148724D03*
D398*
X265280Y148856D03*
D399*
X181922Y148856D03*
D173*
X161528Y148856D03*
D283*
X265940Y148988D03*
D302*
X182450Y148988D03*
D145*
X161198Y148988D03*
D400*
X266534Y149120D03*
D401*
X182912Y149120D03*
D141*
X161132Y149120D03*
D283*
X267128Y149252D03*
D302*
X183242Y149252D03*
D138*
X161000Y149252D03*
D283*
X267656Y149384D03*
D402*
X183572Y149384D03*
D98*
X161000Y149384D03*
D403*
X268250Y149516D03*
D404*
X183902Y149516D03*
D102*
X161000Y149516D03*
D398*
X268712Y149648D03*
D304*
X184232Y149648D03*
D103*
X161000Y149648D03*
D405*
X269372Y149780D03*
D406*
X184562Y149780D03*
D106*
X161066Y149780D03*
D397*
X269900Y149912D03*
D407*
X184826Y149912D03*
D95*
X161132Y149912D03*
D408*
X270494Y150044D03*
D409*
X185090Y150044D03*
D109*
X161198Y150044D03*
D410*
X271088Y150176D03*
D411*
X185354Y150176D03*
D111*
X161330Y150176D03*
D281*
X271748Y150308D03*
D312*
X185618Y150308D03*
D111*
X161462Y150308D03*
D395*
X272408Y150440D03*
D310*
X185420Y150440D03*
D111*
X161594Y150440D03*
D251*
X273200Y150572D03*
D308*
X185156Y150572D03*
D137*
X161792Y150572D03*
D248*
X273926Y150704D03*
D406*
X184826Y150704D03*
D137*
X161924Y150704D03*
D412*
X274652Y150836D03*
D304*
X184496Y150836D03*
D137*
X162188Y150836D03*
D413*
X275444Y150968D03*
D404*
X184166Y150968D03*
D109*
X162386Y150968D03*
D414*
X276170Y151100D03*
D302*
X183770Y151100D03*
D95*
X162584Y151100D03*
D415*
X276896Y151232D03*
D302*
X183374Y151232D03*
D103*
X162980Y151232D03*
D416*
X277622Y151364D03*
D402*
X182780Y151364D03*
D98*
X163376Y151364D03*
D390*
X278348Y151496D03*
D331*
X176972Y151496D03*
D417*
X279074Y151628D03*
D213*
X176906Y151628D03*
D407*
X325010Y151760D03*
D418*
X260528Y151760D03*
D419*
X176774Y151760D03*
D161*
X327980Y151892D03*
D420*
X258218Y151892D03*
D327*
X176708Y151892D03*
D53*
X329960Y152024D03*
D421*
X256634Y152024D03*
D422*
X176642Y152024D03*
D128*
X331544Y152156D03*
D423*
X255248Y152156D03*
D424*
X176576Y152156D03*
D177*
X332864Y152288D03*
D207*
X253862Y152288D03*
D181*
X176444Y152288D03*
D143*
X334118Y152420D03*
D425*
X252608Y152420D03*
D426*
X176378Y152420D03*
D103*
X335240Y152552D03*
D427*
X251222Y152552D03*
D428*
X176312Y152552D03*
D93*
X336296Y152684D03*
D331*
X249704Y152684D03*
D429*
X176312Y152684D03*
D97*
X337286Y152816D03*
D430*
X248120Y152816D03*
D431*
X176378Y152816D03*
D86*
X338210Y152948D03*
D36*
X246404Y152948D03*
D432*
X176312Y152948D03*
D55*
X339134Y153080D03*
D102*
X244556Y153080D03*
D433*
X176312Y153080D03*
D105*
X339926Y153212D03*
D434*
X176246Y153212D03*
D40*
X340718Y153344D03*
D316*
X176246Y153344D03*
D435*
X176246Y153476D03*
D436*
X176246Y153608D03*
D411*
X176246Y153740D03*
D409*
X176246Y153872D03*
D306*
X176180Y154004D03*
D402*
X176180Y154136D03*
D437*
X176114Y154268D03*
D438*
X176114Y154400D03*
D289*
X176114Y154532D03*
D284*
X176048Y154664D03*
D72*
X176048Y154796D03*
D54*
X175982Y154928D03*
D39*
X175982Y155060D03*
D27*
X175982Y155192D03*
D134*
X175982Y155324D03*
D62*
X175916Y155456D03*
D47*
X175982Y155588D03*
D171*
X175916Y155720D03*
D439*
X175850Y155852D03*
D440*
X175850Y155984D03*
D176*
X175850Y156116D03*
D147*
X175784Y156248D03*
D138*
X175784Y156380D03*
D119*
X175784Y156512D03*
D79*
X175718Y156644D03*
M02*
