G04 EAGLE Gerber RS-274X export*
G75*
%MOMM*%
%FSLAX34Y34*%
%LPD*%
%INSolderpaste Top*%
%IPPOS*%
%AMOC8*
5,1,8,0,0,1.08239X$1,22.5*%
G01*
%ADD10R,0.700000X0.900000*%
%ADD11R,0.900000X0.700000*%
%ADD12R,1.000000X1.100000*%
%ADD13R,0.600000X0.700000*%
%ADD14R,0.400000X0.350000*%
%ADD15R,0.350000X0.400000*%
%ADD16C,0.031500*%
%ADD17R,2.000000X1.000000*%
%ADD18R,2.200000X1.050000*%
%ADD19R,0.800000X1.000000*%
%ADD20R,1.100000X2.800000*%
%ADD21R,1.100000X2.600000*%
%ADD22R,0.558800X2.184400*%
%ADD23R,1.100000X1.000000*%
%ADD24R,1.100000X1.900000*%
%ADD25R,0.250000X0.350000*%
%ADD26R,0.700000X0.600000*%
%ADD27R,0.800000X0.750000*%
%ADD28R,1.473200X0.508000*%
%ADD29R,0.508000X1.473200*%
%ADD30R,1.498600X2.006600*%
%ADD31R,3.810000X2.006600*%
%ADD32R,1.500000X1.300000*%
%ADD33C,0.055000*%

G36*
X74798Y272242D02*
X74798Y272242D01*
X74807Y272241D01*
X74895Y272262D01*
X74985Y272280D01*
X74992Y272285D01*
X75000Y272287D01*
X75073Y272341D01*
X75149Y272393D01*
X75153Y272400D01*
X75160Y272405D01*
X75207Y272483D01*
X75256Y272560D01*
X75257Y272569D01*
X75262Y272576D01*
X75289Y272740D01*
X75289Y275740D01*
X75288Y275746D01*
X75289Y275752D01*
X75289Y275754D01*
X75289Y275757D01*
X75268Y275845D01*
X75250Y275935D01*
X75245Y275942D01*
X75243Y275950D01*
X75189Y276023D01*
X75137Y276099D01*
X75130Y276103D01*
X75125Y276110D01*
X75047Y276157D01*
X74970Y276206D01*
X74961Y276207D01*
X74954Y276212D01*
X74790Y276239D01*
X72290Y276239D01*
X72282Y276238D01*
X72273Y276239D01*
X72185Y276218D01*
X72095Y276200D01*
X72088Y276195D01*
X72080Y276193D01*
X72007Y276139D01*
X71931Y276087D01*
X71927Y276080D01*
X71920Y276075D01*
X71873Y275997D01*
X71824Y275920D01*
X71823Y275911D01*
X71818Y275904D01*
X71791Y275740D01*
X71791Y272740D01*
X71792Y272732D01*
X71791Y272723D01*
X71812Y272635D01*
X71830Y272545D01*
X71835Y272538D01*
X71837Y272530D01*
X71891Y272457D01*
X71943Y272381D01*
X71950Y272377D01*
X71955Y272370D01*
X72033Y272323D01*
X72110Y272274D01*
X72119Y272273D01*
X72126Y272268D01*
X72290Y272241D01*
X74790Y272241D01*
X74798Y272242D01*
G37*
G36*
X59798Y272242D02*
X59798Y272242D01*
X59807Y272241D01*
X59895Y272262D01*
X59985Y272280D01*
X59992Y272285D01*
X60000Y272287D01*
X60073Y272341D01*
X60149Y272393D01*
X60153Y272400D01*
X60160Y272405D01*
X60207Y272483D01*
X60256Y272560D01*
X60257Y272569D01*
X60262Y272576D01*
X60289Y272740D01*
X60289Y275740D01*
X60288Y275746D01*
X60289Y275752D01*
X60289Y275754D01*
X60289Y275757D01*
X60268Y275845D01*
X60250Y275935D01*
X60245Y275942D01*
X60243Y275950D01*
X60189Y276023D01*
X60137Y276099D01*
X60130Y276103D01*
X60125Y276110D01*
X60047Y276157D01*
X59970Y276206D01*
X59961Y276207D01*
X59954Y276212D01*
X59790Y276239D01*
X57290Y276239D01*
X57282Y276238D01*
X57273Y276239D01*
X57185Y276218D01*
X57095Y276200D01*
X57088Y276195D01*
X57080Y276193D01*
X57007Y276139D01*
X56931Y276087D01*
X56927Y276080D01*
X56920Y276075D01*
X56873Y275997D01*
X56824Y275920D01*
X56823Y275911D01*
X56818Y275904D01*
X56791Y275740D01*
X56791Y272740D01*
X56792Y272732D01*
X56791Y272723D01*
X56812Y272635D01*
X56830Y272545D01*
X56835Y272538D01*
X56837Y272530D01*
X56891Y272457D01*
X56943Y272381D01*
X56950Y272377D01*
X56955Y272370D01*
X57033Y272323D01*
X57110Y272274D01*
X57119Y272273D01*
X57126Y272268D01*
X57290Y272241D01*
X59790Y272241D01*
X59798Y272242D01*
G37*
G36*
X59798Y262242D02*
X59798Y262242D01*
X59807Y262241D01*
X59895Y262262D01*
X59985Y262280D01*
X59992Y262285D01*
X60000Y262287D01*
X60073Y262341D01*
X60149Y262393D01*
X60153Y262400D01*
X60160Y262405D01*
X60207Y262483D01*
X60256Y262560D01*
X60257Y262569D01*
X60262Y262576D01*
X60289Y262740D01*
X60289Y265740D01*
X60288Y265746D01*
X60289Y265752D01*
X60289Y265754D01*
X60289Y265757D01*
X60268Y265845D01*
X60250Y265935D01*
X60245Y265942D01*
X60243Y265950D01*
X60189Y266023D01*
X60137Y266099D01*
X60130Y266103D01*
X60125Y266110D01*
X60047Y266157D01*
X59970Y266206D01*
X59961Y266207D01*
X59954Y266212D01*
X59790Y266239D01*
X57290Y266239D01*
X57282Y266238D01*
X57273Y266239D01*
X57185Y266218D01*
X57095Y266200D01*
X57088Y266195D01*
X57080Y266193D01*
X57007Y266139D01*
X56931Y266087D01*
X56927Y266080D01*
X56920Y266075D01*
X56873Y265997D01*
X56824Y265920D01*
X56823Y265911D01*
X56818Y265904D01*
X56791Y265740D01*
X56791Y262740D01*
X56792Y262732D01*
X56791Y262723D01*
X56812Y262635D01*
X56830Y262545D01*
X56835Y262538D01*
X56837Y262530D01*
X56891Y262457D01*
X56943Y262381D01*
X56950Y262377D01*
X56955Y262370D01*
X57033Y262323D01*
X57110Y262274D01*
X57119Y262273D01*
X57126Y262268D01*
X57290Y262241D01*
X59790Y262241D01*
X59798Y262242D01*
G37*
G36*
X74798Y262242D02*
X74798Y262242D01*
X74807Y262241D01*
X74895Y262262D01*
X74985Y262280D01*
X74992Y262285D01*
X75000Y262287D01*
X75073Y262341D01*
X75149Y262393D01*
X75153Y262400D01*
X75160Y262405D01*
X75207Y262483D01*
X75256Y262560D01*
X75257Y262569D01*
X75262Y262576D01*
X75289Y262740D01*
X75289Y265740D01*
X75288Y265746D01*
X75289Y265752D01*
X75289Y265754D01*
X75289Y265757D01*
X75268Y265845D01*
X75250Y265935D01*
X75245Y265942D01*
X75243Y265950D01*
X75189Y266023D01*
X75137Y266099D01*
X75130Y266103D01*
X75125Y266110D01*
X75047Y266157D01*
X74970Y266206D01*
X74961Y266207D01*
X74954Y266212D01*
X74790Y266239D01*
X72290Y266239D01*
X72282Y266238D01*
X72273Y266239D01*
X72185Y266218D01*
X72095Y266200D01*
X72088Y266195D01*
X72080Y266193D01*
X72007Y266139D01*
X71931Y266087D01*
X71927Y266080D01*
X71920Y266075D01*
X71873Y265997D01*
X71824Y265920D01*
X71823Y265911D01*
X71818Y265904D01*
X71791Y265740D01*
X71791Y262740D01*
X71792Y262732D01*
X71791Y262723D01*
X71812Y262635D01*
X71830Y262545D01*
X71835Y262538D01*
X71837Y262530D01*
X71891Y262457D01*
X71943Y262381D01*
X71950Y262377D01*
X71955Y262370D01*
X72033Y262323D01*
X72110Y262274D01*
X72119Y262273D01*
X72126Y262268D01*
X72290Y262241D01*
X74790Y262241D01*
X74798Y262242D01*
G37*
G36*
X67548Y259992D02*
X67548Y259992D01*
X67557Y259991D01*
X67645Y260012D01*
X67735Y260030D01*
X67742Y260035D01*
X67750Y260037D01*
X67823Y260091D01*
X67899Y260143D01*
X67903Y260150D01*
X67910Y260155D01*
X67957Y260233D01*
X68006Y260310D01*
X68007Y260319D01*
X68012Y260326D01*
X68039Y260490D01*
X68039Y262990D01*
X68038Y262997D01*
X68039Y263003D01*
X68039Y263004D01*
X68039Y263007D01*
X68018Y263095D01*
X68000Y263185D01*
X67995Y263192D01*
X67993Y263200D01*
X67939Y263273D01*
X67887Y263349D01*
X67880Y263353D01*
X67875Y263360D01*
X67797Y263407D01*
X67720Y263456D01*
X67711Y263457D01*
X67704Y263462D01*
X67540Y263489D01*
X64540Y263489D01*
X64532Y263488D01*
X64523Y263489D01*
X64435Y263468D01*
X64345Y263450D01*
X64338Y263445D01*
X64330Y263443D01*
X64257Y263389D01*
X64181Y263337D01*
X64177Y263330D01*
X64170Y263325D01*
X64123Y263247D01*
X64074Y263170D01*
X64073Y263161D01*
X64068Y263154D01*
X64041Y262990D01*
X64041Y260490D01*
X64042Y260482D01*
X64041Y260473D01*
X64062Y260385D01*
X64080Y260295D01*
X64085Y260288D01*
X64087Y260280D01*
X64141Y260207D01*
X64193Y260131D01*
X64200Y260127D01*
X64205Y260120D01*
X64283Y260073D01*
X64360Y260024D01*
X64369Y260023D01*
X64376Y260018D01*
X64540Y259991D01*
X67540Y259991D01*
X67548Y259992D01*
G37*
G36*
X67548Y274992D02*
X67548Y274992D01*
X67557Y274991D01*
X67645Y275012D01*
X67735Y275030D01*
X67742Y275035D01*
X67750Y275037D01*
X67823Y275091D01*
X67899Y275143D01*
X67903Y275150D01*
X67910Y275155D01*
X67957Y275233D01*
X68006Y275310D01*
X68007Y275319D01*
X68012Y275326D01*
X68039Y275490D01*
X68039Y277990D01*
X68038Y277997D01*
X68039Y278003D01*
X68039Y278004D01*
X68039Y278007D01*
X68018Y278095D01*
X68000Y278185D01*
X67995Y278192D01*
X67993Y278200D01*
X67939Y278273D01*
X67887Y278349D01*
X67880Y278353D01*
X67875Y278360D01*
X67797Y278407D01*
X67720Y278456D01*
X67711Y278457D01*
X67704Y278462D01*
X67540Y278489D01*
X64540Y278489D01*
X64532Y278488D01*
X64523Y278489D01*
X64435Y278468D01*
X64345Y278450D01*
X64338Y278445D01*
X64330Y278443D01*
X64257Y278389D01*
X64181Y278337D01*
X64177Y278330D01*
X64170Y278325D01*
X64123Y278247D01*
X64074Y278170D01*
X64073Y278161D01*
X64068Y278154D01*
X64041Y277990D01*
X64041Y275490D01*
X64042Y275482D01*
X64041Y275473D01*
X64062Y275385D01*
X64080Y275295D01*
X64085Y275288D01*
X64087Y275280D01*
X64141Y275207D01*
X64193Y275131D01*
X64200Y275127D01*
X64205Y275120D01*
X64283Y275073D01*
X64360Y275024D01*
X64369Y275023D01*
X64376Y275018D01*
X64540Y274991D01*
X67540Y274991D01*
X67548Y274992D01*
G37*
D10*
X293220Y179070D03*
X306220Y179070D03*
X251310Y279654D03*
X264310Y279654D03*
D11*
X210040Y259436D03*
X210040Y246436D03*
X236474Y259484D03*
X236474Y246484D03*
D10*
X42568Y350520D03*
X29568Y350520D03*
D11*
X58420Y368912D03*
X58420Y381912D03*
D10*
X377040Y284480D03*
X390040Y284480D03*
D12*
X380492Y303412D03*
X380492Y320412D03*
D10*
X352956Y261620D03*
X339956Y261620D03*
D11*
X363220Y303380D03*
X363220Y316380D03*
D10*
X45362Y274320D03*
X32362Y274320D03*
D13*
X301324Y59182D03*
X311324Y59182D03*
X301324Y44196D03*
X311324Y44196D03*
X321390Y274320D03*
X331390Y274320D03*
X321390Y287020D03*
X331390Y287020D03*
X106600Y264160D03*
X96600Y264160D03*
X106600Y276860D03*
X96600Y276860D03*
X551100Y134620D03*
X541100Y134620D03*
D14*
X348000Y289440D03*
X348000Y284440D03*
X348000Y279440D03*
X348000Y274440D03*
D15*
X353100Y274340D03*
X358100Y274340D03*
D14*
X363200Y274440D03*
X363200Y279440D03*
X363200Y284440D03*
X363200Y289440D03*
D15*
X358100Y289540D03*
X353100Y289540D03*
D16*
X57443Y348737D02*
X57443Y352223D01*
X57443Y348737D02*
X54257Y348737D01*
X54257Y352223D01*
X57443Y352223D01*
X57443Y349036D02*
X54257Y349036D01*
X54257Y349335D02*
X57443Y349335D01*
X57443Y349634D02*
X54257Y349634D01*
X54257Y349933D02*
X57443Y349933D01*
X57443Y350232D02*
X54257Y350232D01*
X54257Y350531D02*
X57443Y350531D01*
X57443Y350830D02*
X54257Y350830D01*
X54257Y351129D02*
X57443Y351129D01*
X57443Y351428D02*
X54257Y351428D01*
X54257Y351727D02*
X57443Y351727D01*
X57443Y352026D02*
X54257Y352026D01*
X57443Y347223D02*
X57443Y343737D01*
X54257Y343737D01*
X54257Y347223D01*
X57443Y347223D01*
X57443Y344036D02*
X54257Y344036D01*
X54257Y344335D02*
X57443Y344335D01*
X57443Y344634D02*
X54257Y344634D01*
X54257Y344933D02*
X57443Y344933D01*
X57443Y345232D02*
X54257Y345232D01*
X54257Y345531D02*
X57443Y345531D01*
X57443Y345830D02*
X54257Y345830D01*
X54257Y346129D02*
X57443Y346129D01*
X57443Y346428D02*
X54257Y346428D01*
X54257Y346727D02*
X57443Y346727D01*
X57443Y347026D02*
X54257Y347026D01*
X60093Y342073D02*
X60093Y338587D01*
X56907Y338587D01*
X56907Y342073D01*
X60093Y342073D01*
X60093Y338886D02*
X56907Y338886D01*
X56907Y339185D02*
X60093Y339185D01*
X60093Y339484D02*
X56907Y339484D01*
X56907Y339783D02*
X60093Y339783D01*
X60093Y340082D02*
X56907Y340082D01*
X56907Y340381D02*
X60093Y340381D01*
X60093Y340680D02*
X56907Y340680D01*
X56907Y340979D02*
X60093Y340979D01*
X60093Y341278D02*
X56907Y341278D01*
X56907Y341577D02*
X60093Y341577D01*
X60093Y341876D02*
X56907Y341876D01*
X65093Y342073D02*
X65093Y338587D01*
X61907Y338587D01*
X61907Y342073D01*
X65093Y342073D01*
X65093Y338886D02*
X61907Y338886D01*
X61907Y339185D02*
X65093Y339185D01*
X65093Y339484D02*
X61907Y339484D01*
X61907Y339783D02*
X65093Y339783D01*
X65093Y340082D02*
X61907Y340082D01*
X61907Y340381D02*
X65093Y340381D01*
X65093Y340680D02*
X61907Y340680D01*
X61907Y340979D02*
X65093Y340979D01*
X65093Y341278D02*
X61907Y341278D01*
X61907Y341577D02*
X65093Y341577D01*
X65093Y341876D02*
X61907Y341876D01*
X70093Y342073D02*
X70093Y338587D01*
X66907Y338587D01*
X66907Y342073D01*
X70093Y342073D01*
X70093Y338886D02*
X66907Y338886D01*
X66907Y339185D02*
X70093Y339185D01*
X70093Y339484D02*
X66907Y339484D01*
X66907Y339783D02*
X70093Y339783D01*
X70093Y340082D02*
X66907Y340082D01*
X66907Y340381D02*
X70093Y340381D01*
X70093Y340680D02*
X66907Y340680D01*
X66907Y340979D02*
X70093Y340979D01*
X70093Y341278D02*
X66907Y341278D01*
X66907Y341577D02*
X70093Y341577D01*
X70093Y341876D02*
X66907Y341876D01*
X72743Y343737D02*
X72743Y347223D01*
X72743Y343737D02*
X69557Y343737D01*
X69557Y347223D01*
X72743Y347223D01*
X72743Y344036D02*
X69557Y344036D01*
X69557Y344335D02*
X72743Y344335D01*
X72743Y344634D02*
X69557Y344634D01*
X69557Y344933D02*
X72743Y344933D01*
X72743Y345232D02*
X69557Y345232D01*
X69557Y345531D02*
X72743Y345531D01*
X72743Y345830D02*
X69557Y345830D01*
X69557Y346129D02*
X72743Y346129D01*
X72743Y346428D02*
X69557Y346428D01*
X69557Y346727D02*
X72743Y346727D01*
X72743Y347026D02*
X69557Y347026D01*
X72743Y348737D02*
X72743Y352223D01*
X72743Y348737D02*
X69557Y348737D01*
X69557Y352223D01*
X72743Y352223D01*
X72743Y349036D02*
X69557Y349036D01*
X69557Y349335D02*
X72743Y349335D01*
X72743Y349634D02*
X69557Y349634D01*
X69557Y349933D02*
X72743Y349933D01*
X72743Y350232D02*
X69557Y350232D01*
X69557Y350531D02*
X72743Y350531D01*
X72743Y350830D02*
X69557Y350830D01*
X69557Y351129D02*
X72743Y351129D01*
X72743Y351428D02*
X69557Y351428D01*
X69557Y351727D02*
X72743Y351727D01*
X72743Y352026D02*
X69557Y352026D01*
X70093Y353887D02*
X70093Y357373D01*
X70093Y353887D02*
X66907Y353887D01*
X66907Y357373D01*
X70093Y357373D01*
X70093Y354186D02*
X66907Y354186D01*
X66907Y354485D02*
X70093Y354485D01*
X70093Y354784D02*
X66907Y354784D01*
X66907Y355083D02*
X70093Y355083D01*
X70093Y355382D02*
X66907Y355382D01*
X66907Y355681D02*
X70093Y355681D01*
X70093Y355980D02*
X66907Y355980D01*
X66907Y356279D02*
X70093Y356279D01*
X70093Y356578D02*
X66907Y356578D01*
X66907Y356877D02*
X70093Y356877D01*
X70093Y357176D02*
X66907Y357176D01*
X65093Y357373D02*
X65093Y353887D01*
X61907Y353887D01*
X61907Y357373D01*
X65093Y357373D01*
X65093Y354186D02*
X61907Y354186D01*
X61907Y354485D02*
X65093Y354485D01*
X65093Y354784D02*
X61907Y354784D01*
X61907Y355083D02*
X65093Y355083D01*
X65093Y355382D02*
X61907Y355382D01*
X61907Y355681D02*
X65093Y355681D01*
X65093Y355980D02*
X61907Y355980D01*
X61907Y356279D02*
X65093Y356279D01*
X65093Y356578D02*
X61907Y356578D01*
X61907Y356877D02*
X65093Y356877D01*
X65093Y357176D02*
X61907Y357176D01*
X60093Y357373D02*
X60093Y353887D01*
X56907Y353887D01*
X56907Y357373D01*
X60093Y357373D01*
X60093Y354186D02*
X56907Y354186D01*
X56907Y354485D02*
X60093Y354485D01*
X60093Y354784D02*
X56907Y354784D01*
X56907Y355083D02*
X60093Y355083D01*
X60093Y355382D02*
X56907Y355382D01*
X56907Y355681D02*
X60093Y355681D01*
X60093Y355980D02*
X56907Y355980D01*
X56907Y356279D02*
X60093Y356279D01*
X60093Y356578D02*
X56907Y356578D01*
X56907Y356877D02*
X60093Y356877D01*
X60093Y357176D02*
X56907Y357176D01*
D17*
X331400Y179260D03*
X331400Y164260D03*
X331400Y149260D03*
X331400Y134260D03*
X331400Y119260D03*
X331400Y104260D03*
X331400Y89260D03*
X331400Y74260D03*
X331400Y59260D03*
X331400Y44260D03*
X481400Y44260D03*
X481400Y59260D03*
X481400Y74260D03*
X481400Y89260D03*
X481400Y104260D03*
X481400Y119260D03*
X481400Y134260D03*
X481400Y149260D03*
X481400Y164260D03*
X481400Y179260D03*
D18*
X521970Y30700D03*
X521970Y58200D03*
D19*
X506720Y44450D03*
D20*
X62080Y38300D03*
D21*
X82080Y37300D03*
X102080Y37300D03*
X122080Y37300D03*
X142080Y37300D03*
X162080Y37300D03*
X182080Y37300D03*
X202080Y37300D03*
X202080Y191300D03*
X182080Y191300D03*
X162080Y191300D03*
X142080Y191300D03*
X122080Y191300D03*
X102080Y191300D03*
X82080Y191300D03*
X62080Y191300D03*
D22*
X209550Y452882D03*
X196850Y452882D03*
X184150Y452882D03*
X171450Y452882D03*
X158750Y452882D03*
X146050Y452882D03*
X133350Y452882D03*
X120650Y452882D03*
X120650Y405638D03*
X133350Y405638D03*
X146050Y405638D03*
X158750Y405638D03*
X171450Y405638D03*
X184150Y405638D03*
X196850Y405638D03*
X209550Y405638D03*
D11*
X406400Y358290D03*
X406400Y345290D03*
D10*
X482450Y434340D03*
X495450Y434340D03*
D23*
X325746Y426212D03*
X308746Y426212D03*
D24*
G36*
X494267Y512307D02*
X502045Y504529D01*
X488611Y491095D01*
X480833Y498873D01*
X494267Y512307D01*
G37*
G36*
X476589Y529985D02*
X484367Y522207D01*
X470933Y508773D01*
X463155Y516551D01*
X476589Y529985D01*
G37*
D25*
G36*
X487327Y535521D02*
X489095Y537289D01*
X491569Y534815D01*
X489801Y533047D01*
X487327Y535521D01*
G37*
G36*
X483791Y531985D02*
X485559Y533753D01*
X488033Y531279D01*
X486265Y529511D01*
X483791Y531985D01*
G37*
G36*
X505107Y517741D02*
X506875Y519509D01*
X509349Y517035D01*
X507581Y515267D01*
X505107Y517741D01*
G37*
G36*
X501571Y514205D02*
X503339Y515973D01*
X505813Y513499D01*
X504045Y511731D01*
X501571Y514205D01*
G37*
D26*
X414020Y330120D03*
X414020Y320120D03*
D13*
X551100Y215900D03*
X541100Y215900D03*
X551100Y256540D03*
X541100Y256540D03*
D27*
X582040Y215900D03*
X566040Y215900D03*
X582040Y256540D03*
X566040Y256540D03*
X582040Y134620D03*
X566040Y134620D03*
D28*
X350266Y474340D03*
X350266Y466340D03*
X350266Y458340D03*
X350266Y450340D03*
X350266Y442340D03*
X350266Y434340D03*
X350266Y426340D03*
X350266Y418340D03*
X350266Y410340D03*
X350266Y402340D03*
X350266Y394340D03*
D29*
X366400Y378206D03*
X374400Y378206D03*
X382400Y378206D03*
X390400Y378206D03*
X398400Y378206D03*
X406400Y378206D03*
X414400Y378206D03*
X422400Y378206D03*
X430400Y378206D03*
X438400Y378206D03*
X446400Y378206D03*
D28*
X462534Y394340D03*
X462534Y402340D03*
X462534Y410340D03*
X462534Y418340D03*
X462534Y426340D03*
X462534Y434340D03*
X462534Y442340D03*
X462534Y450340D03*
X462534Y458340D03*
X462534Y466340D03*
X462534Y474340D03*
D29*
X446400Y490474D03*
X438400Y490474D03*
X430400Y490474D03*
X422400Y490474D03*
X414400Y490474D03*
X406400Y490474D03*
X398400Y490474D03*
X390400Y490474D03*
X382400Y490474D03*
X374400Y490474D03*
X366400Y490474D03*
D11*
X398272Y509628D03*
X398272Y522628D03*
D13*
X454740Y254000D03*
X464740Y254000D03*
D30*
X33274Y506984D03*
X56134Y506984D03*
X78994Y506984D03*
D31*
X55880Y569976D03*
D32*
X78740Y452780D03*
X78740Y471780D03*
X55880Y452780D03*
X55880Y471780D03*
D27*
X582040Y175260D03*
X566040Y175260D03*
D13*
X551100Y175260D03*
X541100Y175260D03*
D33*
X208455Y298735D02*
X202605Y298735D01*
X202605Y300385D01*
X208455Y300385D01*
X208455Y298735D01*
X208455Y299257D02*
X202605Y299257D01*
X202605Y299779D02*
X208455Y299779D01*
X208455Y300301D02*
X202605Y300301D01*
X202605Y294735D02*
X208455Y294735D01*
X202605Y294735D02*
X202605Y296385D01*
X208455Y296385D01*
X208455Y294735D01*
X208455Y295257D02*
X202605Y295257D01*
X202605Y295779D02*
X208455Y295779D01*
X208455Y296301D02*
X202605Y296301D01*
X202605Y290735D02*
X208455Y290735D01*
X202605Y290735D02*
X202605Y292385D01*
X208455Y292385D01*
X208455Y290735D01*
X208455Y291257D02*
X202605Y291257D01*
X202605Y291779D02*
X208455Y291779D01*
X208455Y292301D02*
X202605Y292301D01*
X202605Y286735D02*
X208455Y286735D01*
X202605Y286735D02*
X202605Y288385D01*
X208455Y288385D01*
X208455Y286735D01*
X208455Y287257D02*
X202605Y287257D01*
X202605Y287779D02*
X208455Y287779D01*
X208455Y288301D02*
X202605Y288301D01*
X202605Y282735D02*
X208455Y282735D01*
X202605Y282735D02*
X202605Y284385D01*
X208455Y284385D01*
X208455Y282735D01*
X208455Y283257D02*
X202605Y283257D01*
X202605Y283779D02*
X208455Y283779D01*
X208455Y284301D02*
X202605Y284301D01*
X202605Y278735D02*
X208455Y278735D01*
X202605Y278735D02*
X202605Y280385D01*
X208455Y280385D01*
X208455Y278735D01*
X208455Y279257D02*
X202605Y279257D01*
X202605Y279779D02*
X208455Y279779D01*
X208455Y280301D02*
X202605Y280301D01*
X211805Y277035D02*
X211805Y271185D01*
X210155Y271185D01*
X210155Y277035D01*
X211805Y277035D01*
X211805Y271707D02*
X210155Y271707D01*
X210155Y272229D02*
X211805Y272229D01*
X211805Y272751D02*
X210155Y272751D01*
X210155Y273273D02*
X211805Y273273D01*
X211805Y273795D02*
X210155Y273795D01*
X210155Y274317D02*
X211805Y274317D01*
X211805Y274839D02*
X210155Y274839D01*
X210155Y275361D02*
X211805Y275361D01*
X211805Y275883D02*
X210155Y275883D01*
X210155Y276405D02*
X211805Y276405D01*
X211805Y276927D02*
X210155Y276927D01*
X215805Y277035D02*
X215805Y271185D01*
X214155Y271185D01*
X214155Y277035D01*
X215805Y277035D01*
X215805Y271707D02*
X214155Y271707D01*
X214155Y272229D02*
X215805Y272229D01*
X215805Y272751D02*
X214155Y272751D01*
X214155Y273273D02*
X215805Y273273D01*
X215805Y273795D02*
X214155Y273795D01*
X214155Y274317D02*
X215805Y274317D01*
X215805Y274839D02*
X214155Y274839D01*
X214155Y275361D02*
X215805Y275361D01*
X215805Y275883D02*
X214155Y275883D01*
X214155Y276405D02*
X215805Y276405D01*
X215805Y276927D02*
X214155Y276927D01*
X219805Y277035D02*
X219805Y271185D01*
X218155Y271185D01*
X218155Y277035D01*
X219805Y277035D01*
X219805Y271707D02*
X218155Y271707D01*
X218155Y272229D02*
X219805Y272229D01*
X219805Y272751D02*
X218155Y272751D01*
X218155Y273273D02*
X219805Y273273D01*
X219805Y273795D02*
X218155Y273795D01*
X218155Y274317D02*
X219805Y274317D01*
X219805Y274839D02*
X218155Y274839D01*
X218155Y275361D02*
X219805Y275361D01*
X219805Y275883D02*
X218155Y275883D01*
X218155Y276405D02*
X219805Y276405D01*
X219805Y276927D02*
X218155Y276927D01*
X223805Y277035D02*
X223805Y271185D01*
X222155Y271185D01*
X222155Y277035D01*
X223805Y277035D01*
X223805Y271707D02*
X222155Y271707D01*
X222155Y272229D02*
X223805Y272229D01*
X223805Y272751D02*
X222155Y272751D01*
X222155Y273273D02*
X223805Y273273D01*
X223805Y273795D02*
X222155Y273795D01*
X222155Y274317D02*
X223805Y274317D01*
X223805Y274839D02*
X222155Y274839D01*
X222155Y275361D02*
X223805Y275361D01*
X223805Y275883D02*
X222155Y275883D01*
X222155Y276405D02*
X223805Y276405D01*
X223805Y276927D02*
X222155Y276927D01*
X227805Y277035D02*
X227805Y271185D01*
X226155Y271185D01*
X226155Y277035D01*
X227805Y277035D01*
X227805Y271707D02*
X226155Y271707D01*
X226155Y272229D02*
X227805Y272229D01*
X227805Y272751D02*
X226155Y272751D01*
X226155Y273273D02*
X227805Y273273D01*
X227805Y273795D02*
X226155Y273795D01*
X226155Y274317D02*
X227805Y274317D01*
X227805Y274839D02*
X226155Y274839D01*
X226155Y275361D02*
X227805Y275361D01*
X227805Y275883D02*
X226155Y275883D01*
X226155Y276405D02*
X227805Y276405D01*
X227805Y276927D02*
X226155Y276927D01*
X231805Y277035D02*
X231805Y271185D01*
X230155Y271185D01*
X230155Y277035D01*
X231805Y277035D01*
X231805Y271707D02*
X230155Y271707D01*
X230155Y272229D02*
X231805Y272229D01*
X231805Y272751D02*
X230155Y272751D01*
X230155Y273273D02*
X231805Y273273D01*
X231805Y273795D02*
X230155Y273795D01*
X230155Y274317D02*
X231805Y274317D01*
X231805Y274839D02*
X230155Y274839D01*
X230155Y275361D02*
X231805Y275361D01*
X231805Y275883D02*
X230155Y275883D01*
X230155Y276405D02*
X231805Y276405D01*
X231805Y276927D02*
X230155Y276927D01*
X233505Y280385D02*
X239355Y280385D01*
X239355Y278735D01*
X233505Y278735D01*
X233505Y280385D01*
X233505Y279257D02*
X239355Y279257D01*
X239355Y279779D02*
X233505Y279779D01*
X233505Y280301D02*
X239355Y280301D01*
X239355Y284385D02*
X233505Y284385D01*
X239355Y284385D02*
X239355Y282735D01*
X233505Y282735D01*
X233505Y284385D01*
X233505Y283257D02*
X239355Y283257D01*
X239355Y283779D02*
X233505Y283779D01*
X233505Y284301D02*
X239355Y284301D01*
X239355Y288385D02*
X233505Y288385D01*
X239355Y288385D02*
X239355Y286735D01*
X233505Y286735D01*
X233505Y288385D01*
X233505Y287257D02*
X239355Y287257D01*
X239355Y287779D02*
X233505Y287779D01*
X233505Y288301D02*
X239355Y288301D01*
X239355Y292385D02*
X233505Y292385D01*
X239355Y292385D02*
X239355Y290735D01*
X233505Y290735D01*
X233505Y292385D01*
X233505Y291257D02*
X239355Y291257D01*
X239355Y291779D02*
X233505Y291779D01*
X233505Y292301D02*
X239355Y292301D01*
X239355Y296385D02*
X233505Y296385D01*
X239355Y296385D02*
X239355Y294735D01*
X233505Y294735D01*
X233505Y296385D01*
X233505Y295257D02*
X239355Y295257D01*
X239355Y295779D02*
X233505Y295779D01*
X233505Y296301D02*
X239355Y296301D01*
X239355Y300385D02*
X233505Y300385D01*
X239355Y300385D02*
X239355Y298735D01*
X233505Y298735D01*
X233505Y300385D01*
X233505Y299257D02*
X239355Y299257D01*
X239355Y299779D02*
X233505Y299779D01*
X233505Y300301D02*
X239355Y300301D01*
X230155Y302085D02*
X230155Y307935D01*
X231805Y307935D01*
X231805Y302085D01*
X230155Y302085D01*
X230155Y302607D02*
X231805Y302607D01*
X231805Y303129D02*
X230155Y303129D01*
X230155Y303651D02*
X231805Y303651D01*
X231805Y304173D02*
X230155Y304173D01*
X230155Y304695D02*
X231805Y304695D01*
X231805Y305217D02*
X230155Y305217D01*
X230155Y305739D02*
X231805Y305739D01*
X231805Y306261D02*
X230155Y306261D01*
X230155Y306783D02*
X231805Y306783D01*
X231805Y307305D02*
X230155Y307305D01*
X230155Y307827D02*
X231805Y307827D01*
X226155Y307935D02*
X226155Y302085D01*
X226155Y307935D02*
X227805Y307935D01*
X227805Y302085D01*
X226155Y302085D01*
X226155Y302607D02*
X227805Y302607D01*
X227805Y303129D02*
X226155Y303129D01*
X226155Y303651D02*
X227805Y303651D01*
X227805Y304173D02*
X226155Y304173D01*
X226155Y304695D02*
X227805Y304695D01*
X227805Y305217D02*
X226155Y305217D01*
X226155Y305739D02*
X227805Y305739D01*
X227805Y306261D02*
X226155Y306261D01*
X226155Y306783D02*
X227805Y306783D01*
X227805Y307305D02*
X226155Y307305D01*
X226155Y307827D02*
X227805Y307827D01*
X222155Y307935D02*
X222155Y302085D01*
X222155Y307935D02*
X223805Y307935D01*
X223805Y302085D01*
X222155Y302085D01*
X222155Y302607D02*
X223805Y302607D01*
X223805Y303129D02*
X222155Y303129D01*
X222155Y303651D02*
X223805Y303651D01*
X223805Y304173D02*
X222155Y304173D01*
X222155Y304695D02*
X223805Y304695D01*
X223805Y305217D02*
X222155Y305217D01*
X222155Y305739D02*
X223805Y305739D01*
X223805Y306261D02*
X222155Y306261D01*
X222155Y306783D02*
X223805Y306783D01*
X223805Y307305D02*
X222155Y307305D01*
X222155Y307827D02*
X223805Y307827D01*
X218155Y307935D02*
X218155Y302085D01*
X218155Y307935D02*
X219805Y307935D01*
X219805Y302085D01*
X218155Y302085D01*
X218155Y302607D02*
X219805Y302607D01*
X219805Y303129D02*
X218155Y303129D01*
X218155Y303651D02*
X219805Y303651D01*
X219805Y304173D02*
X218155Y304173D01*
X218155Y304695D02*
X219805Y304695D01*
X219805Y305217D02*
X218155Y305217D01*
X218155Y305739D02*
X219805Y305739D01*
X219805Y306261D02*
X218155Y306261D01*
X218155Y306783D02*
X219805Y306783D01*
X219805Y307305D02*
X218155Y307305D01*
X218155Y307827D02*
X219805Y307827D01*
X214155Y307935D02*
X214155Y302085D01*
X214155Y307935D02*
X215805Y307935D01*
X215805Y302085D01*
X214155Y302085D01*
X214155Y302607D02*
X215805Y302607D01*
X215805Y303129D02*
X214155Y303129D01*
X214155Y303651D02*
X215805Y303651D01*
X215805Y304173D02*
X214155Y304173D01*
X214155Y304695D02*
X215805Y304695D01*
X215805Y305217D02*
X214155Y305217D01*
X214155Y305739D02*
X215805Y305739D01*
X215805Y306261D02*
X214155Y306261D01*
X214155Y306783D02*
X215805Y306783D01*
X215805Y307305D02*
X214155Y307305D01*
X214155Y307827D02*
X215805Y307827D01*
X210155Y307935D02*
X210155Y302085D01*
X210155Y307935D02*
X211805Y307935D01*
X211805Y302085D01*
X210155Y302085D01*
X210155Y302607D02*
X211805Y302607D01*
X211805Y303129D02*
X210155Y303129D01*
X210155Y303651D02*
X211805Y303651D01*
X211805Y304173D02*
X210155Y304173D01*
X210155Y304695D02*
X211805Y304695D01*
X211805Y305217D02*
X210155Y305217D01*
X210155Y305739D02*
X211805Y305739D01*
X211805Y306261D02*
X210155Y306261D01*
X210155Y306783D02*
X211805Y306783D01*
X211805Y307305D02*
X210155Y307305D01*
X210155Y307827D02*
X211805Y307827D01*
M02*
