G04 EAGLE Gerber RS-274X export*
G75*
%MOIN*%
%FSLAX24Y24*%
%LPD*%
%INTop Layer*%
%IPPOS*%
%AMOC8*
5,1,8,0,0,1.08239X$1,22.5*%
G01*
%ADD10P,0.071438X8X22.500000*%
%ADD11P,0.075767X8X292.500000*%
%ADD12C,0.052000*%
%ADD13C,0.060000*%
%ADD14P,0.071438X8X292.500000*%
%ADD15P,0.056284X8X22.500000*%
%ADD16C,0.040000*%
%ADD17C,0.051496*%


D10*
X21000Y20000D03*
X20000Y1000D03*
X22000Y20000D03*
X23000Y20000D03*
X24000Y20000D03*
X25000Y20000D03*
X20000Y20000D03*
X19000Y20000D03*
X18000Y20000D03*
X16400Y20000D03*
X15400Y20000D03*
X14400Y20000D03*
X13400Y20000D03*
X12400Y20000D03*
X11400Y20000D03*
X10400Y20000D03*
X9400Y20000D03*
X21000Y1000D03*
X22000Y1000D03*
X23000Y1000D03*
X24000Y1000D03*
X25000Y1000D03*
X18000Y1000D03*
X17000Y1000D03*
X16000Y1000D03*
X15000Y1000D03*
X14000Y1000D03*
X13000Y1000D03*
D11*
X24400Y15500D03*
X23400Y15500D03*
X22400Y15500D03*
X21400Y15500D03*
X20400Y15500D03*
X19400Y15500D03*
X18400Y15500D03*
X17400Y15500D03*
X17400Y5500D03*
X18400Y5500D03*
X19400Y5500D03*
X20400Y5500D03*
X21400Y5500D03*
X22400Y5500D03*
X23400Y5500D03*
X24400Y5500D03*
D12*
X5960Y15700D02*
X5440Y15700D01*
X5440Y14700D02*
X5960Y14700D01*
X5960Y16700D02*
X5440Y16700D01*
X5440Y17700D02*
X5960Y17700D01*
D13*
X2000Y8300D02*
X1400Y8300D01*
X1400Y7300D02*
X2000Y7300D01*
X2000Y9300D02*
X1400Y9300D01*
X1400Y10300D02*
X2000Y10300D01*
D14*
X8500Y3300D03*
X8500Y2300D03*
D15*
X13400Y3300D03*
X17400Y3300D03*
D16*
X17000Y1000D02*
X16000Y1000D01*
X16000Y2300D01*
D17*
X16000Y2300D03*
D16*
X10400Y18300D02*
X10400Y20000D01*
D17*
X10400Y18300D03*
D16*
X14000Y2300D02*
X14000Y1000D01*
D17*
X14000Y2300D03*
D16*
X15000Y1000D02*
X15000Y8600D01*
X13300Y10300D01*
X8300Y16600D02*
X7200Y17700D01*
X8300Y10900D02*
X7700Y10300D01*
X8300Y10900D02*
X8900Y10300D01*
X13300Y10300D01*
X8300Y10900D02*
X8300Y16600D01*
D17*
X3400Y10300D03*
D16*
X7700Y10300D01*
D17*
X7200Y17700D03*
D16*
X21000Y2400D02*
X21000Y1000D01*
X21000Y2400D02*
X20100Y3300D01*
X17400Y3300D01*
D17*
X15400Y18300D03*
D16*
X15400Y20000D01*
D17*
X14400Y18300D03*
D16*
X14400Y20000D01*
D17*
X13400Y18300D03*
D16*
X13400Y20000D01*
D17*
X12400Y18300D03*
D16*
X12400Y20000D01*
D17*
X11400Y18300D03*
D16*
X11400Y20000D01*
X22600Y17900D02*
X23000Y18300D01*
X22600Y17900D02*
X20900Y17900D01*
X23000Y18300D02*
X23000Y20000D01*
D17*
X20400Y16800D03*
D16*
X20400Y17400D01*
X20900Y17900D01*
X20000Y1900D02*
X20000Y1000D01*
X20000Y1900D02*
X19500Y2400D01*
X17000Y2400D01*
X16000Y3400D01*
X16000Y5100D01*
D17*
X16000Y5100D03*
D16*
X21000Y19000D02*
X21000Y20000D01*
X19900Y17900D02*
X17300Y17900D01*
X19900Y17900D02*
X21000Y19000D01*
D17*
X9800Y16700D03*
D16*
X16100Y16700D01*
X17300Y17900D01*
M02*
