G04 EAGLE Gerber RS-274X export*
G75*
%MOIN*%
%FSLAX24Y24*%
%LPD*%
%INCuting*%
%IPPOS*%
%AMOC8*
5,1,8,0,0,1.08239X$1,22.5*%
G01*
%ADD10C,0.000000*%
%ADD11C,0.010000*%


D10*
X0Y0D02*
X26000Y0D01*
X26000Y1000D01*
X27000Y2000D01*
X27000Y14900D01*
X26000Y15900D01*
X26000Y20400D01*
X25400Y21000D01*
X0Y21000D01*
X0Y0D01*
X5370Y20000D02*
X5372Y20050D01*
X5378Y20100D01*
X5388Y20149D01*
X5402Y20197D01*
X5419Y20244D01*
X5440Y20289D01*
X5465Y20333D01*
X5493Y20374D01*
X5525Y20413D01*
X5559Y20450D01*
X5596Y20484D01*
X5636Y20514D01*
X5678Y20541D01*
X5722Y20565D01*
X5768Y20586D01*
X5815Y20602D01*
X5863Y20615D01*
X5913Y20624D01*
X5962Y20629D01*
X6013Y20630D01*
X6063Y20627D01*
X6112Y20620D01*
X6161Y20609D01*
X6209Y20594D01*
X6255Y20576D01*
X6300Y20554D01*
X6343Y20528D01*
X6384Y20499D01*
X6423Y20467D01*
X6459Y20432D01*
X6491Y20394D01*
X6521Y20354D01*
X6548Y20311D01*
X6571Y20267D01*
X6590Y20221D01*
X6606Y20173D01*
X6618Y20124D01*
X6626Y20075D01*
X6630Y20025D01*
X6630Y19975D01*
X6626Y19925D01*
X6618Y19876D01*
X6606Y19827D01*
X6590Y19779D01*
X6571Y19733D01*
X6548Y19689D01*
X6521Y19646D01*
X6491Y19606D01*
X6459Y19568D01*
X6423Y19533D01*
X6384Y19501D01*
X6343Y19472D01*
X6300Y19446D01*
X6255Y19424D01*
X6209Y19406D01*
X6161Y19391D01*
X6112Y19380D01*
X6063Y19373D01*
X6013Y19370D01*
X5962Y19371D01*
X5913Y19376D01*
X5863Y19385D01*
X5815Y19398D01*
X5768Y19414D01*
X5722Y19435D01*
X5678Y19459D01*
X5636Y19486D01*
X5596Y19516D01*
X5559Y19550D01*
X5525Y19587D01*
X5493Y19626D01*
X5465Y19667D01*
X5440Y19711D01*
X5419Y19756D01*
X5402Y19803D01*
X5388Y19851D01*
X5378Y19900D01*
X5372Y19950D01*
X5370Y20000D01*
X25370Y14000D02*
X25372Y14050D01*
X25378Y14100D01*
X25388Y14149D01*
X25402Y14197D01*
X25419Y14244D01*
X25440Y14289D01*
X25465Y14333D01*
X25493Y14374D01*
X25525Y14413D01*
X25559Y14450D01*
X25596Y14484D01*
X25636Y14514D01*
X25678Y14541D01*
X25722Y14565D01*
X25768Y14586D01*
X25815Y14602D01*
X25863Y14615D01*
X25913Y14624D01*
X25962Y14629D01*
X26013Y14630D01*
X26063Y14627D01*
X26112Y14620D01*
X26161Y14609D01*
X26209Y14594D01*
X26255Y14576D01*
X26300Y14554D01*
X26343Y14528D01*
X26384Y14499D01*
X26423Y14467D01*
X26459Y14432D01*
X26491Y14394D01*
X26521Y14354D01*
X26548Y14311D01*
X26571Y14267D01*
X26590Y14221D01*
X26606Y14173D01*
X26618Y14124D01*
X26626Y14075D01*
X26630Y14025D01*
X26630Y13975D01*
X26626Y13925D01*
X26618Y13876D01*
X26606Y13827D01*
X26590Y13779D01*
X26571Y13733D01*
X26548Y13689D01*
X26521Y13646D01*
X26491Y13606D01*
X26459Y13568D01*
X26423Y13533D01*
X26384Y13501D01*
X26343Y13472D01*
X26300Y13446D01*
X26255Y13424D01*
X26209Y13406D01*
X26161Y13391D01*
X26112Y13380D01*
X26063Y13373D01*
X26013Y13370D01*
X25962Y13371D01*
X25913Y13376D01*
X25863Y13385D01*
X25815Y13398D01*
X25768Y13414D01*
X25722Y13435D01*
X25678Y13459D01*
X25636Y13486D01*
X25596Y13516D01*
X25559Y13550D01*
X25525Y13587D01*
X25493Y13626D01*
X25465Y13667D01*
X25440Y13711D01*
X25419Y13756D01*
X25402Y13803D01*
X25388Y13851D01*
X25378Y13900D01*
X25372Y13950D01*
X25370Y14000D01*
X4870Y1000D02*
X4872Y1050D01*
X4878Y1100D01*
X4888Y1149D01*
X4902Y1197D01*
X4919Y1244D01*
X4940Y1289D01*
X4965Y1333D01*
X4993Y1374D01*
X5025Y1413D01*
X5059Y1450D01*
X5096Y1484D01*
X5136Y1514D01*
X5178Y1541D01*
X5222Y1565D01*
X5268Y1586D01*
X5315Y1602D01*
X5363Y1615D01*
X5413Y1624D01*
X5462Y1629D01*
X5513Y1630D01*
X5563Y1627D01*
X5612Y1620D01*
X5661Y1609D01*
X5709Y1594D01*
X5755Y1576D01*
X5800Y1554D01*
X5843Y1528D01*
X5884Y1499D01*
X5923Y1467D01*
X5959Y1432D01*
X5991Y1394D01*
X6021Y1354D01*
X6048Y1311D01*
X6071Y1267D01*
X6090Y1221D01*
X6106Y1173D01*
X6118Y1124D01*
X6126Y1075D01*
X6130Y1025D01*
X6130Y975D01*
X6126Y925D01*
X6118Y876D01*
X6106Y827D01*
X6090Y779D01*
X6071Y733D01*
X6048Y689D01*
X6021Y646D01*
X5991Y606D01*
X5959Y568D01*
X5923Y533D01*
X5884Y501D01*
X5843Y472D01*
X5800Y446D01*
X5755Y424D01*
X5709Y406D01*
X5661Y391D01*
X5612Y380D01*
X5563Y373D01*
X5513Y370D01*
X5462Y371D01*
X5413Y376D01*
X5363Y385D01*
X5315Y398D01*
X5268Y414D01*
X5222Y435D01*
X5178Y459D01*
X5136Y486D01*
X5096Y516D01*
X5059Y550D01*
X5025Y587D01*
X4993Y626D01*
X4965Y667D01*
X4940Y711D01*
X4919Y756D01*
X4902Y803D01*
X4888Y851D01*
X4878Y900D01*
X4872Y950D01*
X4870Y1000D01*
D11*
X0Y0D02*
X26000Y0D01*
X26000Y1000D01*
X27000Y2000D01*
X27000Y14900D01*
X26000Y15900D01*
X26000Y20400D01*
X25400Y21000D01*
X0Y21000D01*
X0Y0D01*
X6630Y19979D02*
X6627Y19938D01*
X6622Y19897D01*
X6614Y19857D01*
X6603Y19817D01*
X6590Y19778D01*
X6574Y19740D01*
X6556Y19703D01*
X6535Y19667D01*
X6512Y19633D01*
X6487Y19600D01*
X6460Y19569D01*
X6431Y19540D01*
X6400Y19513D01*
X6367Y19488D01*
X6333Y19465D01*
X6297Y19444D01*
X6260Y19426D01*
X6222Y19410D01*
X6183Y19397D01*
X6143Y19386D01*
X6103Y19378D01*
X6062Y19373D01*
X6021Y19370D01*
X5979Y19370D01*
X5938Y19373D01*
X5897Y19378D01*
X5857Y19386D01*
X5817Y19397D01*
X5778Y19410D01*
X5740Y19426D01*
X5703Y19444D01*
X5667Y19465D01*
X5633Y19488D01*
X5600Y19513D01*
X5569Y19540D01*
X5540Y19569D01*
X5513Y19600D01*
X5488Y19633D01*
X5465Y19667D01*
X5444Y19703D01*
X5426Y19740D01*
X5410Y19778D01*
X5397Y19817D01*
X5386Y19857D01*
X5378Y19897D01*
X5373Y19938D01*
X5370Y19979D01*
X5370Y20021D01*
X5373Y20062D01*
X5378Y20103D01*
X5386Y20143D01*
X5397Y20183D01*
X5410Y20222D01*
X5426Y20260D01*
X5444Y20297D01*
X5465Y20333D01*
X5488Y20367D01*
X5513Y20400D01*
X5540Y20431D01*
X5569Y20460D01*
X5600Y20487D01*
X5633Y20512D01*
X5667Y20535D01*
X5703Y20556D01*
X5740Y20574D01*
X5778Y20590D01*
X5817Y20603D01*
X5857Y20614D01*
X5897Y20622D01*
X5938Y20627D01*
X5979Y20630D01*
X6021Y20630D01*
X6062Y20627D01*
X6103Y20622D01*
X6143Y20614D01*
X6183Y20603D01*
X6222Y20590D01*
X6260Y20574D01*
X6297Y20556D01*
X6333Y20535D01*
X6367Y20512D01*
X6400Y20487D01*
X6431Y20460D01*
X6460Y20431D01*
X6487Y20400D01*
X6512Y20367D01*
X6535Y20333D01*
X6556Y20297D01*
X6574Y20260D01*
X6590Y20222D01*
X6603Y20183D01*
X6614Y20143D01*
X6622Y20103D01*
X6627Y20062D01*
X6630Y20021D01*
X6630Y19979D01*
X26630Y13979D02*
X26627Y13938D01*
X26622Y13897D01*
X26614Y13857D01*
X26603Y13817D01*
X26590Y13778D01*
X26574Y13740D01*
X26556Y13703D01*
X26535Y13667D01*
X26512Y13633D01*
X26487Y13600D01*
X26460Y13569D01*
X26431Y13540D01*
X26400Y13513D01*
X26367Y13488D01*
X26333Y13465D01*
X26297Y13444D01*
X26260Y13426D01*
X26222Y13410D01*
X26183Y13397D01*
X26143Y13386D01*
X26103Y13378D01*
X26062Y13373D01*
X26021Y13370D01*
X25979Y13370D01*
X25938Y13373D01*
X25897Y13378D01*
X25857Y13386D01*
X25817Y13397D01*
X25778Y13410D01*
X25740Y13426D01*
X25703Y13444D01*
X25667Y13465D01*
X25633Y13488D01*
X25600Y13513D01*
X25569Y13540D01*
X25540Y13569D01*
X25513Y13600D01*
X25488Y13633D01*
X25465Y13667D01*
X25444Y13703D01*
X25426Y13740D01*
X25410Y13778D01*
X25397Y13817D01*
X25386Y13857D01*
X25378Y13897D01*
X25373Y13938D01*
X25370Y13979D01*
X25370Y14021D01*
X25373Y14062D01*
X25378Y14103D01*
X25386Y14143D01*
X25397Y14183D01*
X25410Y14222D01*
X25426Y14260D01*
X25444Y14297D01*
X25465Y14333D01*
X25488Y14367D01*
X25513Y14400D01*
X25540Y14431D01*
X25569Y14460D01*
X25600Y14487D01*
X25633Y14512D01*
X25667Y14535D01*
X25703Y14556D01*
X25740Y14574D01*
X25778Y14590D01*
X25817Y14603D01*
X25857Y14614D01*
X25897Y14622D01*
X25938Y14627D01*
X25979Y14630D01*
X26021Y14630D01*
X26062Y14627D01*
X26103Y14622D01*
X26143Y14614D01*
X26183Y14603D01*
X26222Y14590D01*
X26260Y14574D01*
X26297Y14556D01*
X26333Y14535D01*
X26367Y14512D01*
X26400Y14487D01*
X26431Y14460D01*
X26460Y14431D01*
X26487Y14400D01*
X26512Y14367D01*
X26535Y14333D01*
X26556Y14297D01*
X26574Y14260D01*
X26590Y14222D01*
X26603Y14183D01*
X26614Y14143D01*
X26622Y14103D01*
X26627Y14062D01*
X26630Y14021D01*
X26630Y13979D01*
X6130Y979D02*
X6127Y938D01*
X6122Y897D01*
X6114Y857D01*
X6103Y817D01*
X6090Y778D01*
X6074Y740D01*
X6056Y703D01*
X6035Y667D01*
X6012Y633D01*
X5987Y600D01*
X5960Y569D01*
X5931Y540D01*
X5900Y513D01*
X5867Y488D01*
X5833Y465D01*
X5797Y444D01*
X5760Y426D01*
X5722Y410D01*
X5683Y397D01*
X5643Y386D01*
X5603Y378D01*
X5562Y373D01*
X5521Y370D01*
X5479Y370D01*
X5438Y373D01*
X5397Y378D01*
X5357Y386D01*
X5317Y397D01*
X5278Y410D01*
X5240Y426D01*
X5203Y444D01*
X5167Y465D01*
X5133Y488D01*
X5100Y513D01*
X5069Y540D01*
X5040Y569D01*
X5013Y600D01*
X4988Y633D01*
X4965Y667D01*
X4944Y703D01*
X4926Y740D01*
X4910Y778D01*
X4897Y817D01*
X4886Y857D01*
X4878Y897D01*
X4873Y938D01*
X4870Y979D01*
X4870Y1021D01*
X4873Y1062D01*
X4878Y1103D01*
X4886Y1143D01*
X4897Y1183D01*
X4910Y1222D01*
X4926Y1260D01*
X4944Y1297D01*
X4965Y1333D01*
X4988Y1367D01*
X5013Y1400D01*
X5040Y1431D01*
X5069Y1460D01*
X5100Y1487D01*
X5133Y1512D01*
X5167Y1535D01*
X5203Y1556D01*
X5240Y1574D01*
X5278Y1590D01*
X5317Y1603D01*
X5357Y1614D01*
X5397Y1622D01*
X5438Y1627D01*
X5479Y1630D01*
X5521Y1630D01*
X5562Y1627D01*
X5603Y1622D01*
X5643Y1614D01*
X5683Y1603D01*
X5722Y1590D01*
X5760Y1574D01*
X5797Y1556D01*
X5833Y1535D01*
X5867Y1512D01*
X5900Y1487D01*
X5931Y1460D01*
X5960Y1431D01*
X5987Y1400D01*
X6012Y1367D01*
X6035Y1333D01*
X6056Y1297D01*
X6074Y1260D01*
X6090Y1222D01*
X6103Y1183D01*
X6114Y1143D01*
X6122Y1103D01*
X6127Y1062D01*
X6130Y1021D01*
X6130Y979D01*
M02*
