G04 EAGLE Gerber RS-274X export*
G75*
%MOMM*%
%FSLAX34Y34*%
%LPD*%
%INTop Copper*%
%IPPOS*%
%AMOC8*
5,1,8,0,0,1.08239X$1,22.5*%
G01*
%ADD10P,1.814519X8X22.500000*%
%ADD11P,1.924489X8X292.500000*%
%ADD12C,1.320800*%
%ADD13C,1.524000*%
%ADD14P,1.814519X8X292.500000*%
%ADD15P,1.429621X8X22.500000*%
%ADD16C,1.016000*%
%ADD17C,1.308000*%


D10*
X533400Y508000D03*
X508000Y25400D03*
X558800Y508000D03*
X584200Y508000D03*
X609600Y508000D03*
X635000Y508000D03*
X508000Y508000D03*
X482600Y508000D03*
X457200Y508000D03*
X416560Y508000D03*
X391160Y508000D03*
X365760Y508000D03*
X340360Y508000D03*
X314960Y508000D03*
X289560Y508000D03*
X264160Y508000D03*
X238760Y508000D03*
X533400Y25400D03*
X558800Y25400D03*
X584200Y25400D03*
X609600Y25400D03*
X635000Y25400D03*
X457200Y25400D03*
X431800Y25400D03*
X406400Y25400D03*
X381000Y25400D03*
X355600Y25400D03*
X330200Y25400D03*
D11*
X619760Y393700D03*
X594360Y393700D03*
X568960Y393700D03*
X543560Y393700D03*
X518160Y393700D03*
X492760Y393700D03*
X467360Y393700D03*
X441960Y393700D03*
X441960Y139700D03*
X467360Y139700D03*
X492760Y139700D03*
X518160Y139700D03*
X543560Y139700D03*
X568960Y139700D03*
X594360Y139700D03*
X619760Y139700D03*
D12*
X151384Y398780D02*
X138176Y398780D01*
X138176Y373380D02*
X151384Y373380D01*
X151384Y424180D02*
X138176Y424180D01*
X138176Y449580D02*
X151384Y449580D01*
D13*
X50800Y210820D02*
X35560Y210820D01*
X35560Y185420D02*
X50800Y185420D01*
X50800Y236220D02*
X35560Y236220D01*
X35560Y261620D02*
X50800Y261620D01*
D14*
X215900Y83820D03*
X215900Y58420D03*
D15*
X340360Y83820D03*
X441960Y83820D03*
D16*
X431800Y25400D02*
X406400Y25400D01*
X406400Y58420D01*
D17*
X406400Y58420D03*
D16*
X264160Y464820D02*
X264160Y508000D01*
D17*
X264160Y464820D03*
D16*
X355600Y58420D02*
X355600Y25400D01*
D17*
X355600Y58420D03*
D16*
X381000Y25400D02*
X381000Y218440D01*
X337820Y261620D01*
X210820Y421640D02*
X182880Y449580D01*
X210820Y276860D02*
X195580Y261620D01*
X210820Y276860D02*
X226060Y261620D01*
X337820Y261620D01*
X210820Y276860D02*
X210820Y421640D01*
D17*
X86360Y261620D03*
D16*
X195580Y261620D01*
D17*
X182880Y449580D03*
D16*
X533400Y60960D02*
X533400Y25400D01*
X533400Y60960D02*
X510540Y83820D01*
X441960Y83820D01*
D17*
X391160Y464820D03*
D16*
X391160Y508000D01*
D17*
X365760Y464820D03*
D16*
X365760Y508000D01*
D17*
X340360Y464820D03*
D16*
X340360Y508000D01*
D17*
X314960Y464820D03*
D16*
X314960Y508000D01*
D17*
X289560Y464820D03*
D16*
X289560Y508000D01*
X574040Y454660D02*
X584200Y464820D01*
X574040Y454660D02*
X530860Y454660D01*
X584200Y464820D02*
X584200Y508000D01*
D17*
X518160Y426720D03*
D16*
X518160Y441960D01*
X530860Y454660D01*
X508000Y48260D02*
X508000Y25400D01*
X508000Y48260D02*
X495300Y60960D01*
X431800Y60960D01*
X406400Y86360D01*
X406400Y129540D01*
D17*
X406400Y129540D03*
D16*
X533400Y482600D02*
X533400Y508000D01*
X505460Y454660D02*
X439420Y454660D01*
X505460Y454660D02*
X533400Y482600D01*
D17*
X248920Y424180D03*
D16*
X408940Y424180D01*
X439420Y454660D01*
M02*
