G04 EAGLE Gerber RS-274X export*
G75*
%MOMM*%
%FSLAX34Y34*%
%LPD*%
%INSilkscreen Top*%
%IPPOS*%
%AMOC8*
5,1,8,0,0,1.08239X$1,22.5*%
G01*
%ADD10C,0.076200*%
%ADD11C,0.127000*%
%ADD12C,0.254000*%
%ADD13C,0.177800*%
%ADD14C,0.203200*%
%ADD15C,0.025400*%
%ADD16C,0.152400*%
%ADD17R,0.863600X0.609600*%


D10*
X312700Y38481D02*
X312700Y47879D01*
X315311Y47879D01*
X315412Y47877D01*
X315513Y47871D01*
X315614Y47861D01*
X315714Y47848D01*
X315814Y47830D01*
X315913Y47809D01*
X316011Y47783D01*
X316108Y47754D01*
X316204Y47722D01*
X316298Y47685D01*
X316391Y47645D01*
X316483Y47601D01*
X316572Y47554D01*
X316660Y47503D01*
X316746Y47449D01*
X316829Y47392D01*
X316911Y47332D01*
X316989Y47268D01*
X317066Y47202D01*
X317139Y47132D01*
X317210Y47060D01*
X317278Y46985D01*
X317343Y46907D01*
X317405Y46827D01*
X317464Y46745D01*
X317520Y46660D01*
X317572Y46573D01*
X317621Y46485D01*
X317667Y46394D01*
X317708Y46302D01*
X317747Y46208D01*
X317781Y46113D01*
X317812Y46017D01*
X317839Y45919D01*
X317863Y45821D01*
X317882Y45721D01*
X317898Y45621D01*
X317910Y45521D01*
X317918Y45420D01*
X317922Y45319D01*
X317922Y45217D01*
X317918Y45116D01*
X317910Y45015D01*
X317898Y44915D01*
X317882Y44815D01*
X317863Y44715D01*
X317839Y44617D01*
X317812Y44519D01*
X317781Y44423D01*
X317747Y44328D01*
X317708Y44234D01*
X317667Y44142D01*
X317621Y44051D01*
X317572Y43962D01*
X317520Y43876D01*
X317464Y43791D01*
X317405Y43709D01*
X317343Y43629D01*
X317278Y43551D01*
X317210Y43476D01*
X317139Y43404D01*
X317066Y43334D01*
X316989Y43268D01*
X316911Y43204D01*
X316829Y43144D01*
X316746Y43087D01*
X316660Y43033D01*
X316572Y42982D01*
X316483Y42935D01*
X316391Y42891D01*
X316298Y42851D01*
X316204Y42814D01*
X316108Y42782D01*
X316011Y42753D01*
X315913Y42727D01*
X315814Y42706D01*
X315714Y42688D01*
X315614Y42675D01*
X315513Y42665D01*
X315412Y42659D01*
X315311Y42657D01*
X315311Y42658D02*
X312700Y42658D01*
X315833Y42658D02*
X317921Y38481D01*
X324615Y38481D02*
X324704Y38483D01*
X324792Y38489D01*
X324880Y38498D01*
X324968Y38511D01*
X325055Y38528D01*
X325141Y38548D01*
X325226Y38573D01*
X325311Y38600D01*
X325394Y38632D01*
X325475Y38666D01*
X325555Y38705D01*
X325633Y38746D01*
X325710Y38791D01*
X325784Y38839D01*
X325857Y38890D01*
X325927Y38944D01*
X325994Y39002D01*
X326060Y39062D01*
X326122Y39124D01*
X326182Y39190D01*
X326240Y39257D01*
X326294Y39327D01*
X326345Y39400D01*
X326393Y39474D01*
X326438Y39551D01*
X326479Y39629D01*
X326518Y39709D01*
X326552Y39790D01*
X326584Y39873D01*
X326611Y39958D01*
X326636Y40043D01*
X326656Y40129D01*
X326673Y40216D01*
X326686Y40304D01*
X326695Y40392D01*
X326701Y40480D01*
X326703Y40569D01*
X324615Y38481D02*
X324486Y38483D01*
X324357Y38489D01*
X324228Y38498D01*
X324100Y38511D01*
X323972Y38528D01*
X323845Y38549D01*
X323718Y38573D01*
X323592Y38601D01*
X323467Y38633D01*
X323343Y38668D01*
X323220Y38707D01*
X323098Y38750D01*
X322978Y38796D01*
X322859Y38846D01*
X322741Y38899D01*
X322625Y38955D01*
X322511Y39015D01*
X322398Y39078D01*
X322288Y39145D01*
X322179Y39214D01*
X322073Y39287D01*
X321968Y39363D01*
X321866Y39442D01*
X321767Y39524D01*
X321669Y39608D01*
X321574Y39696D01*
X321482Y39786D01*
X321744Y45791D02*
X321746Y45880D01*
X321752Y45968D01*
X321761Y46056D01*
X321774Y46144D01*
X321791Y46231D01*
X321811Y46317D01*
X321836Y46402D01*
X321863Y46487D01*
X321895Y46570D01*
X321929Y46651D01*
X321968Y46731D01*
X322009Y46809D01*
X322054Y46886D01*
X322102Y46960D01*
X322153Y47033D01*
X322207Y47103D01*
X322265Y47170D01*
X322325Y47236D01*
X322387Y47298D01*
X322453Y47358D01*
X322520Y47416D01*
X322590Y47470D01*
X322663Y47521D01*
X322737Y47569D01*
X322814Y47614D01*
X322892Y47655D01*
X322972Y47694D01*
X323053Y47728D01*
X323136Y47760D01*
X323221Y47787D01*
X323306Y47812D01*
X323392Y47832D01*
X323479Y47849D01*
X323567Y47862D01*
X323655Y47871D01*
X323743Y47877D01*
X323832Y47879D01*
X323952Y47877D01*
X324072Y47872D01*
X324192Y47862D01*
X324311Y47850D01*
X324430Y47833D01*
X324548Y47813D01*
X324666Y47789D01*
X324782Y47762D01*
X324898Y47731D01*
X325013Y47697D01*
X325127Y47659D01*
X325240Y47617D01*
X325351Y47572D01*
X325461Y47524D01*
X325569Y47473D01*
X325676Y47418D01*
X325781Y47360D01*
X325884Y47298D01*
X325985Y47234D01*
X326085Y47166D01*
X326182Y47096D01*
X322787Y43964D02*
X322709Y44012D01*
X322633Y44064D01*
X322560Y44118D01*
X322489Y44176D01*
X322420Y44237D01*
X322354Y44301D01*
X322291Y44368D01*
X322231Y44437D01*
X322174Y44509D01*
X322120Y44583D01*
X322070Y44660D01*
X322022Y44739D01*
X321979Y44819D01*
X321938Y44902D01*
X321902Y44986D01*
X321869Y45071D01*
X321840Y45158D01*
X321814Y45247D01*
X321792Y45336D01*
X321775Y45426D01*
X321761Y45516D01*
X321751Y45608D01*
X321745Y45699D01*
X321743Y45791D01*
X325659Y42396D02*
X325737Y42348D01*
X325813Y42296D01*
X325886Y42242D01*
X325957Y42184D01*
X326026Y42123D01*
X326092Y42059D01*
X326155Y41992D01*
X326215Y41923D01*
X326272Y41851D01*
X326326Y41777D01*
X326376Y41700D01*
X326424Y41621D01*
X326467Y41541D01*
X326508Y41458D01*
X326544Y41374D01*
X326577Y41289D01*
X326606Y41202D01*
X326632Y41113D01*
X326654Y41024D01*
X326671Y40934D01*
X326685Y40844D01*
X326695Y40752D01*
X326701Y40661D01*
X326703Y40569D01*
X325659Y42397D02*
X322787Y43963D01*
X332322Y47879D02*
X332322Y38481D01*
X329712Y47879D02*
X334933Y47879D01*
X347904Y38481D02*
X350515Y38481D01*
X350616Y38483D01*
X350717Y38489D01*
X350818Y38499D01*
X350918Y38512D01*
X351018Y38530D01*
X351117Y38551D01*
X351215Y38577D01*
X351312Y38606D01*
X351408Y38638D01*
X351502Y38675D01*
X351595Y38715D01*
X351687Y38759D01*
X351776Y38806D01*
X351864Y38857D01*
X351950Y38911D01*
X352033Y38968D01*
X352115Y39028D01*
X352193Y39092D01*
X352270Y39158D01*
X352343Y39228D01*
X352414Y39300D01*
X352482Y39375D01*
X352547Y39453D01*
X352609Y39533D01*
X352668Y39615D01*
X352724Y39700D01*
X352776Y39786D01*
X352825Y39875D01*
X352871Y39966D01*
X352912Y40058D01*
X352951Y40152D01*
X352985Y40247D01*
X353016Y40343D01*
X353043Y40441D01*
X353067Y40539D01*
X353086Y40639D01*
X353102Y40739D01*
X353114Y40839D01*
X353122Y40940D01*
X353126Y41041D01*
X353126Y41143D01*
X353122Y41244D01*
X353114Y41345D01*
X353102Y41445D01*
X353086Y41545D01*
X353067Y41645D01*
X353043Y41743D01*
X353016Y41841D01*
X352985Y41937D01*
X352951Y42032D01*
X352912Y42126D01*
X352871Y42218D01*
X352825Y42309D01*
X352776Y42397D01*
X352724Y42484D01*
X352668Y42569D01*
X352609Y42651D01*
X352547Y42731D01*
X352482Y42809D01*
X352414Y42884D01*
X352343Y42956D01*
X352270Y43026D01*
X352193Y43092D01*
X352115Y43156D01*
X352033Y43216D01*
X351950Y43273D01*
X351864Y43327D01*
X351776Y43378D01*
X351687Y43425D01*
X351595Y43469D01*
X351502Y43509D01*
X351408Y43546D01*
X351312Y43578D01*
X351215Y43607D01*
X351117Y43633D01*
X351018Y43654D01*
X350918Y43672D01*
X350818Y43685D01*
X350717Y43695D01*
X350616Y43701D01*
X350515Y43703D01*
X351037Y47879D02*
X347904Y47879D01*
X351037Y47879D02*
X351127Y47877D01*
X351216Y47871D01*
X351306Y47862D01*
X351395Y47848D01*
X351483Y47831D01*
X351570Y47810D01*
X351657Y47785D01*
X351742Y47756D01*
X351826Y47724D01*
X351908Y47689D01*
X351989Y47649D01*
X352068Y47607D01*
X352145Y47561D01*
X352220Y47511D01*
X352293Y47459D01*
X352364Y47403D01*
X352432Y47345D01*
X352497Y47283D01*
X352560Y47219D01*
X352620Y47152D01*
X352677Y47083D01*
X352731Y47011D01*
X352782Y46937D01*
X352830Y46861D01*
X352874Y46783D01*
X352915Y46703D01*
X352953Y46621D01*
X352987Y46538D01*
X353017Y46453D01*
X353044Y46367D01*
X353067Y46281D01*
X353086Y46193D01*
X353101Y46104D01*
X353113Y46015D01*
X353121Y45926D01*
X353125Y45836D01*
X353125Y45746D01*
X353121Y45656D01*
X353113Y45567D01*
X353101Y45478D01*
X353086Y45389D01*
X353067Y45301D01*
X353044Y45215D01*
X353017Y45129D01*
X352987Y45044D01*
X352953Y44961D01*
X352915Y44879D01*
X352874Y44799D01*
X352830Y44721D01*
X352782Y44645D01*
X352731Y44571D01*
X352677Y44499D01*
X352620Y44430D01*
X352560Y44363D01*
X352497Y44299D01*
X352432Y44237D01*
X352364Y44179D01*
X352293Y44123D01*
X352220Y44071D01*
X352145Y44021D01*
X352068Y43975D01*
X351989Y43933D01*
X351908Y43893D01*
X351826Y43858D01*
X351742Y43826D01*
X351657Y43797D01*
X351570Y43772D01*
X351483Y43751D01*
X351395Y43734D01*
X351306Y43720D01*
X351216Y43711D01*
X351127Y43705D01*
X351037Y43703D01*
X351037Y43702D02*
X348948Y43702D01*
X356656Y44746D02*
X358744Y38481D01*
X360833Y44746D01*
X375844Y38481D02*
X378977Y38481D01*
X379066Y38483D01*
X379154Y38489D01*
X379242Y38498D01*
X379330Y38511D01*
X379417Y38528D01*
X379503Y38548D01*
X379588Y38573D01*
X379673Y38600D01*
X379756Y38632D01*
X379837Y38666D01*
X379917Y38705D01*
X379995Y38746D01*
X380072Y38791D01*
X380146Y38839D01*
X380219Y38890D01*
X380289Y38944D01*
X380356Y39002D01*
X380422Y39062D01*
X380484Y39124D01*
X380544Y39190D01*
X380602Y39257D01*
X380656Y39327D01*
X380707Y39400D01*
X380755Y39474D01*
X380800Y39551D01*
X380841Y39629D01*
X380880Y39709D01*
X380914Y39790D01*
X380946Y39873D01*
X380973Y39958D01*
X380998Y40043D01*
X381018Y40129D01*
X381035Y40216D01*
X381048Y40304D01*
X381057Y40392D01*
X381063Y40480D01*
X381065Y40569D01*
X381065Y41614D01*
X381063Y41703D01*
X381057Y41791D01*
X381048Y41879D01*
X381035Y41967D01*
X381018Y42054D01*
X380998Y42140D01*
X380973Y42225D01*
X380946Y42310D01*
X380914Y42393D01*
X380880Y42474D01*
X380841Y42554D01*
X380800Y42632D01*
X380755Y42709D01*
X380707Y42783D01*
X380656Y42856D01*
X380602Y42926D01*
X380544Y42993D01*
X380484Y43059D01*
X380422Y43121D01*
X380356Y43181D01*
X380289Y43239D01*
X380219Y43293D01*
X380146Y43344D01*
X380072Y43392D01*
X379995Y43437D01*
X379917Y43478D01*
X379837Y43517D01*
X379756Y43551D01*
X379673Y43583D01*
X379588Y43610D01*
X379503Y43635D01*
X379417Y43655D01*
X379330Y43672D01*
X379242Y43685D01*
X379154Y43694D01*
X379066Y43700D01*
X378977Y43702D01*
X375844Y43702D01*
X375844Y47879D01*
X381065Y47879D01*
X384596Y44746D02*
X386684Y38481D01*
X388773Y44746D01*
X411807Y43702D02*
X413373Y43702D01*
X413373Y38481D01*
X410240Y38481D01*
X410151Y38483D01*
X410063Y38489D01*
X409975Y38498D01*
X409887Y38511D01*
X409800Y38528D01*
X409714Y38548D01*
X409629Y38573D01*
X409544Y38600D01*
X409461Y38632D01*
X409380Y38666D01*
X409300Y38705D01*
X409222Y38746D01*
X409145Y38791D01*
X409071Y38839D01*
X408998Y38890D01*
X408928Y38944D01*
X408861Y39002D01*
X408795Y39062D01*
X408733Y39124D01*
X408673Y39190D01*
X408615Y39257D01*
X408561Y39327D01*
X408510Y39400D01*
X408462Y39474D01*
X408417Y39551D01*
X408376Y39629D01*
X408337Y39709D01*
X408303Y39790D01*
X408271Y39873D01*
X408244Y39958D01*
X408219Y40043D01*
X408199Y40129D01*
X408182Y40216D01*
X408169Y40304D01*
X408160Y40392D01*
X408154Y40480D01*
X408152Y40569D01*
X408152Y45791D01*
X408154Y45882D01*
X408160Y45973D01*
X408170Y46064D01*
X408184Y46154D01*
X408201Y46243D01*
X408223Y46331D01*
X408249Y46419D01*
X408278Y46505D01*
X408311Y46590D01*
X408348Y46673D01*
X408388Y46755D01*
X408432Y46835D01*
X408479Y46913D01*
X408530Y46989D01*
X408583Y47062D01*
X408640Y47133D01*
X408701Y47202D01*
X408764Y47267D01*
X408829Y47330D01*
X408898Y47390D01*
X408969Y47448D01*
X409042Y47501D01*
X409118Y47552D01*
X409196Y47599D01*
X409276Y47643D01*
X409358Y47683D01*
X409441Y47720D01*
X409526Y47753D01*
X409612Y47782D01*
X409700Y47808D01*
X409788Y47830D01*
X409877Y47847D01*
X409967Y47861D01*
X410058Y47871D01*
X410149Y47877D01*
X410240Y47879D01*
X413373Y47879D01*
X417818Y44746D02*
X417818Y38481D01*
X417818Y44746D02*
X420429Y44746D01*
X420506Y44744D01*
X420582Y44738D01*
X420659Y44729D01*
X420735Y44716D01*
X420810Y44699D01*
X420884Y44679D01*
X420957Y44654D01*
X421028Y44627D01*
X421099Y44596D01*
X421167Y44561D01*
X421234Y44523D01*
X421299Y44482D01*
X421362Y44438D01*
X421422Y44391D01*
X421481Y44340D01*
X421536Y44287D01*
X421589Y44232D01*
X421640Y44173D01*
X421687Y44113D01*
X421731Y44050D01*
X421772Y43985D01*
X421810Y43918D01*
X421845Y43850D01*
X421876Y43779D01*
X421903Y43708D01*
X421928Y43635D01*
X421948Y43561D01*
X421965Y43486D01*
X421978Y43410D01*
X421987Y43334D01*
X421993Y43257D01*
X421995Y43180D01*
X421995Y38481D01*
X430179Y38481D02*
X430179Y47879D01*
X430179Y38481D02*
X427568Y38481D01*
X427491Y38483D01*
X427415Y38489D01*
X427338Y38498D01*
X427262Y38511D01*
X427187Y38528D01*
X427113Y38548D01*
X427040Y38573D01*
X426969Y38600D01*
X426898Y38631D01*
X426830Y38666D01*
X426763Y38704D01*
X426698Y38745D01*
X426635Y38789D01*
X426575Y38836D01*
X426516Y38887D01*
X426461Y38940D01*
X426408Y38995D01*
X426357Y39054D01*
X426310Y39114D01*
X426266Y39177D01*
X426225Y39242D01*
X426187Y39309D01*
X426152Y39377D01*
X426121Y39448D01*
X426094Y39519D01*
X426069Y39592D01*
X426049Y39666D01*
X426032Y39741D01*
X426019Y39817D01*
X426010Y39894D01*
X426004Y39970D01*
X426002Y40047D01*
X426002Y43180D01*
X426004Y43257D01*
X426010Y43333D01*
X426019Y43410D01*
X426032Y43486D01*
X426049Y43561D01*
X426069Y43635D01*
X426094Y43708D01*
X426121Y43779D01*
X426152Y43850D01*
X426187Y43918D01*
X426225Y43985D01*
X426266Y44050D01*
X426310Y44113D01*
X426357Y44173D01*
X426408Y44232D01*
X426461Y44287D01*
X426516Y44340D01*
X426575Y44391D01*
X426635Y44438D01*
X426698Y44482D01*
X426763Y44523D01*
X426830Y44561D01*
X426898Y44596D01*
X426969Y44627D01*
X427040Y44654D01*
X427113Y44679D01*
X427187Y44699D01*
X427262Y44716D01*
X427338Y44729D01*
X427415Y44738D01*
X427491Y44744D01*
X427568Y44746D01*
X430179Y44746D01*
X448234Y47879D02*
X451367Y38481D01*
X454499Y47879D01*
X457767Y44746D02*
X457767Y38481D01*
X457506Y47357D02*
X457506Y47879D01*
X458028Y47879D01*
X458028Y47357D01*
X457506Y47357D01*
X461775Y44746D02*
X461775Y38481D01*
X461775Y44746D02*
X464386Y44746D01*
X464463Y44744D01*
X464539Y44738D01*
X464616Y44729D01*
X464692Y44716D01*
X464767Y44699D01*
X464841Y44679D01*
X464914Y44654D01*
X464985Y44627D01*
X465056Y44596D01*
X465124Y44561D01*
X465191Y44523D01*
X465256Y44482D01*
X465319Y44438D01*
X465379Y44391D01*
X465438Y44340D01*
X465493Y44287D01*
X465546Y44232D01*
X465597Y44173D01*
X465644Y44113D01*
X465688Y44050D01*
X465729Y43985D01*
X465767Y43918D01*
X465802Y43850D01*
X465833Y43779D01*
X465860Y43708D01*
X465885Y43635D01*
X465905Y43561D01*
X465922Y43486D01*
X465935Y43410D01*
X465944Y43334D01*
X465950Y43257D01*
X465952Y43180D01*
X465952Y38481D01*
X544635Y14402D02*
X541502Y5004D01*
X547767Y5004D02*
X544635Y14402D01*
X546984Y7354D02*
X542285Y7354D01*
X551385Y5004D02*
X551385Y11269D01*
X553996Y11269D01*
X554073Y11267D01*
X554149Y11261D01*
X554226Y11252D01*
X554302Y11239D01*
X554377Y11222D01*
X554451Y11202D01*
X554524Y11177D01*
X554595Y11150D01*
X554666Y11119D01*
X554734Y11084D01*
X554801Y11046D01*
X554866Y11005D01*
X554929Y10961D01*
X554989Y10914D01*
X555048Y10863D01*
X555103Y10810D01*
X555156Y10755D01*
X555207Y10696D01*
X555254Y10636D01*
X555298Y10573D01*
X555339Y10508D01*
X555377Y10441D01*
X555412Y10373D01*
X555443Y10302D01*
X555470Y10231D01*
X555495Y10158D01*
X555515Y10084D01*
X555532Y10009D01*
X555545Y9933D01*
X555554Y9857D01*
X555560Y9780D01*
X555562Y9703D01*
X555562Y5004D01*
X561397Y8659D02*
X563746Y8659D01*
X561397Y8658D02*
X561313Y8656D01*
X561228Y8650D01*
X561145Y8640D01*
X561061Y8627D01*
X560979Y8609D01*
X560897Y8588D01*
X560816Y8563D01*
X560737Y8535D01*
X560659Y8502D01*
X560583Y8466D01*
X560508Y8427D01*
X560435Y8384D01*
X560364Y8338D01*
X560296Y8289D01*
X560230Y8237D01*
X560166Y8181D01*
X560105Y8123D01*
X560047Y8062D01*
X559991Y7998D01*
X559939Y7932D01*
X559890Y7864D01*
X559844Y7793D01*
X559801Y7720D01*
X559762Y7645D01*
X559726Y7569D01*
X559693Y7491D01*
X559665Y7412D01*
X559640Y7331D01*
X559619Y7249D01*
X559601Y7167D01*
X559588Y7083D01*
X559578Y7000D01*
X559572Y6915D01*
X559570Y6831D01*
X559572Y6747D01*
X559578Y6662D01*
X559588Y6579D01*
X559601Y6495D01*
X559619Y6413D01*
X559640Y6331D01*
X559665Y6250D01*
X559693Y6171D01*
X559726Y6093D01*
X559762Y6017D01*
X559801Y5942D01*
X559844Y5869D01*
X559890Y5798D01*
X559939Y5730D01*
X559991Y5664D01*
X560047Y5600D01*
X560105Y5539D01*
X560166Y5481D01*
X560230Y5425D01*
X560296Y5373D01*
X560364Y5324D01*
X560435Y5278D01*
X560508Y5235D01*
X560583Y5196D01*
X560659Y5160D01*
X560737Y5127D01*
X560816Y5099D01*
X560897Y5074D01*
X560979Y5053D01*
X561061Y5035D01*
X561145Y5022D01*
X561228Y5012D01*
X561313Y5006D01*
X561397Y5004D01*
X563746Y5004D01*
X563746Y9703D01*
X563744Y9780D01*
X563738Y9856D01*
X563729Y9933D01*
X563716Y10009D01*
X563699Y10084D01*
X563679Y10158D01*
X563654Y10231D01*
X563627Y10302D01*
X563596Y10373D01*
X563561Y10441D01*
X563523Y10508D01*
X563482Y10573D01*
X563438Y10636D01*
X563391Y10696D01*
X563340Y10755D01*
X563287Y10810D01*
X563232Y10863D01*
X563173Y10914D01*
X563113Y10961D01*
X563050Y11005D01*
X562985Y11046D01*
X562918Y11084D01*
X562850Y11119D01*
X562779Y11150D01*
X562708Y11177D01*
X562635Y11202D01*
X562561Y11222D01*
X562486Y11239D01*
X562410Y11252D01*
X562333Y11261D01*
X562257Y11267D01*
X562180Y11269D01*
X560091Y11269D01*
X567970Y14402D02*
X567970Y6570D01*
X567972Y6493D01*
X567978Y6417D01*
X567987Y6340D01*
X568000Y6264D01*
X568017Y6189D01*
X568037Y6115D01*
X568062Y6042D01*
X568089Y5971D01*
X568120Y5900D01*
X568155Y5832D01*
X568193Y5765D01*
X568234Y5700D01*
X568278Y5637D01*
X568325Y5577D01*
X568376Y5518D01*
X568429Y5463D01*
X568484Y5410D01*
X568543Y5359D01*
X568603Y5312D01*
X568666Y5268D01*
X568731Y5227D01*
X568798Y5189D01*
X568866Y5154D01*
X568937Y5123D01*
X569008Y5096D01*
X569081Y5071D01*
X569155Y5051D01*
X569230Y5034D01*
X569306Y5021D01*
X569383Y5012D01*
X569459Y5006D01*
X569536Y5004D01*
X572721Y7092D02*
X572721Y9181D01*
X572722Y9181D02*
X572724Y9271D01*
X572730Y9360D01*
X572739Y9450D01*
X572753Y9539D01*
X572770Y9627D01*
X572791Y9714D01*
X572816Y9801D01*
X572845Y9886D01*
X572877Y9970D01*
X572912Y10052D01*
X572952Y10133D01*
X572994Y10212D01*
X573040Y10289D01*
X573090Y10364D01*
X573142Y10437D01*
X573198Y10508D01*
X573256Y10576D01*
X573318Y10641D01*
X573382Y10704D01*
X573449Y10764D01*
X573518Y10821D01*
X573590Y10875D01*
X573664Y10926D01*
X573740Y10974D01*
X573818Y11018D01*
X573898Y11059D01*
X573980Y11097D01*
X574063Y11131D01*
X574148Y11161D01*
X574234Y11188D01*
X574320Y11211D01*
X574408Y11230D01*
X574497Y11245D01*
X574586Y11257D01*
X574675Y11265D01*
X574765Y11269D01*
X574855Y11269D01*
X574945Y11265D01*
X575034Y11257D01*
X575123Y11245D01*
X575212Y11230D01*
X575300Y11211D01*
X575386Y11188D01*
X575472Y11161D01*
X575557Y11131D01*
X575640Y11097D01*
X575722Y11059D01*
X575802Y11018D01*
X575880Y10974D01*
X575956Y10926D01*
X576030Y10875D01*
X576102Y10821D01*
X576171Y10764D01*
X576238Y10704D01*
X576302Y10641D01*
X576364Y10576D01*
X576422Y10508D01*
X576478Y10437D01*
X576530Y10364D01*
X576580Y10289D01*
X576626Y10212D01*
X576668Y10133D01*
X576708Y10052D01*
X576743Y9970D01*
X576775Y9886D01*
X576804Y9801D01*
X576829Y9714D01*
X576850Y9627D01*
X576867Y9539D01*
X576881Y9450D01*
X576890Y9360D01*
X576896Y9271D01*
X576898Y9181D01*
X576898Y7092D01*
X576896Y7002D01*
X576890Y6913D01*
X576881Y6823D01*
X576867Y6734D01*
X576850Y6646D01*
X576829Y6559D01*
X576804Y6472D01*
X576775Y6387D01*
X576743Y6303D01*
X576708Y6221D01*
X576668Y6140D01*
X576626Y6061D01*
X576580Y5984D01*
X576530Y5909D01*
X576478Y5836D01*
X576422Y5765D01*
X576364Y5697D01*
X576302Y5632D01*
X576238Y5569D01*
X576171Y5509D01*
X576102Y5452D01*
X576030Y5398D01*
X575956Y5347D01*
X575880Y5299D01*
X575802Y5255D01*
X575722Y5214D01*
X575640Y5176D01*
X575557Y5142D01*
X575472Y5112D01*
X575386Y5085D01*
X575300Y5062D01*
X575212Y5043D01*
X575123Y5028D01*
X575034Y5016D01*
X574945Y5008D01*
X574855Y5004D01*
X574765Y5004D01*
X574675Y5008D01*
X574586Y5016D01*
X574497Y5028D01*
X574408Y5043D01*
X574320Y5062D01*
X574234Y5085D01*
X574148Y5112D01*
X574063Y5142D01*
X573980Y5176D01*
X573898Y5214D01*
X573818Y5255D01*
X573740Y5299D01*
X573664Y5347D01*
X573590Y5398D01*
X573518Y5452D01*
X573449Y5509D01*
X573382Y5569D01*
X573318Y5632D01*
X573256Y5697D01*
X573198Y5765D01*
X573142Y5836D01*
X573090Y5909D01*
X573040Y5984D01*
X572994Y6061D01*
X572952Y6140D01*
X572912Y6221D01*
X572877Y6303D01*
X572845Y6387D01*
X572816Y6472D01*
X572791Y6559D01*
X572770Y6646D01*
X572753Y6734D01*
X572739Y6823D01*
X572730Y6913D01*
X572724Y7002D01*
X572722Y7092D01*
X582167Y5004D02*
X584777Y5004D01*
X582167Y5004D02*
X582090Y5006D01*
X582014Y5012D01*
X581937Y5021D01*
X581861Y5034D01*
X581786Y5051D01*
X581712Y5071D01*
X581639Y5096D01*
X581568Y5123D01*
X581497Y5154D01*
X581429Y5189D01*
X581362Y5227D01*
X581297Y5268D01*
X581234Y5312D01*
X581174Y5359D01*
X581115Y5410D01*
X581060Y5463D01*
X581007Y5518D01*
X580956Y5577D01*
X580909Y5637D01*
X580865Y5700D01*
X580824Y5765D01*
X580786Y5832D01*
X580751Y5900D01*
X580720Y5971D01*
X580693Y6042D01*
X580668Y6115D01*
X580648Y6189D01*
X580631Y6264D01*
X580618Y6340D01*
X580609Y6417D01*
X580603Y6493D01*
X580601Y6570D01*
X580600Y6570D02*
X580600Y9703D01*
X580601Y9703D02*
X580603Y9780D01*
X580609Y9856D01*
X580618Y9933D01*
X580631Y10009D01*
X580648Y10084D01*
X580668Y10158D01*
X580693Y10231D01*
X580720Y10302D01*
X580751Y10373D01*
X580786Y10441D01*
X580824Y10508D01*
X580865Y10573D01*
X580909Y10636D01*
X580956Y10696D01*
X581007Y10755D01*
X581060Y10810D01*
X581115Y10863D01*
X581174Y10914D01*
X581234Y10961D01*
X581297Y11005D01*
X581362Y11046D01*
X581429Y11084D01*
X581497Y11119D01*
X581568Y11150D01*
X581639Y11177D01*
X581712Y11202D01*
X581786Y11222D01*
X581861Y11239D01*
X581937Y11252D01*
X582014Y11261D01*
X582090Y11267D01*
X582167Y11269D01*
X584777Y11269D01*
X584777Y3438D01*
X584775Y3361D01*
X584769Y3285D01*
X584760Y3208D01*
X584747Y3132D01*
X584730Y3057D01*
X584710Y2983D01*
X584685Y2910D01*
X584658Y2839D01*
X584627Y2768D01*
X584592Y2700D01*
X584554Y2633D01*
X584513Y2568D01*
X584469Y2505D01*
X584422Y2445D01*
X584371Y2386D01*
X584318Y2331D01*
X584263Y2278D01*
X584204Y2227D01*
X584144Y2180D01*
X584081Y2136D01*
X584016Y2095D01*
X583949Y2057D01*
X583881Y2022D01*
X583810Y1991D01*
X583739Y1964D01*
X583666Y1939D01*
X583592Y1919D01*
X583517Y1902D01*
X583441Y1889D01*
X583365Y1880D01*
X583288Y1874D01*
X583211Y1872D01*
X583211Y1871D02*
X581122Y1871D01*
X594622Y5004D02*
X594622Y14402D01*
X593577Y5004D02*
X595666Y5004D01*
X595666Y14402D02*
X593577Y14402D01*
X599543Y11269D02*
X599543Y5004D01*
X599543Y11269D02*
X602154Y11269D01*
X602231Y11267D01*
X602307Y11261D01*
X602384Y11252D01*
X602460Y11239D01*
X602535Y11222D01*
X602609Y11202D01*
X602682Y11177D01*
X602753Y11150D01*
X602824Y11119D01*
X602892Y11084D01*
X602959Y11046D01*
X603024Y11005D01*
X603087Y10961D01*
X603147Y10914D01*
X603206Y10863D01*
X603261Y10810D01*
X603314Y10755D01*
X603365Y10696D01*
X603412Y10636D01*
X603456Y10573D01*
X603497Y10508D01*
X603535Y10441D01*
X603570Y10373D01*
X603601Y10302D01*
X603628Y10231D01*
X603653Y10158D01*
X603673Y10084D01*
X603690Y10009D01*
X603703Y9933D01*
X603712Y9857D01*
X603718Y9780D01*
X603720Y9703D01*
X603720Y5004D01*
X504571Y43180D02*
X504573Y43365D01*
X504580Y43550D01*
X504591Y43734D01*
X504606Y43918D01*
X504626Y44102D01*
X504650Y44286D01*
X504679Y44468D01*
X504712Y44650D01*
X504749Y44831D01*
X504791Y45011D01*
X504837Y45191D01*
X504887Y45369D01*
X504941Y45545D01*
X505000Y45721D01*
X505062Y45895D01*
X505129Y46067D01*
X505200Y46238D01*
X505275Y46407D01*
X505354Y46574D01*
X505384Y46654D01*
X505417Y46733D01*
X505454Y46810D01*
X505494Y46886D01*
X505537Y46960D01*
X505583Y47032D01*
X505633Y47101D01*
X505685Y47169D01*
X505741Y47234D01*
X505799Y47297D01*
X505861Y47356D01*
X505924Y47414D01*
X505991Y47468D01*
X506059Y47519D01*
X506130Y47567D01*
X506203Y47612D01*
X506277Y47654D01*
X506354Y47692D01*
X506432Y47727D01*
X506511Y47759D01*
X506592Y47787D01*
X506674Y47811D01*
X506758Y47832D01*
X506841Y47849D01*
X506926Y47862D01*
X507011Y47871D01*
X507096Y47877D01*
X507182Y47879D01*
X507268Y47877D01*
X507353Y47871D01*
X507438Y47862D01*
X507523Y47849D01*
X507606Y47832D01*
X507690Y47811D01*
X507772Y47787D01*
X507853Y47759D01*
X507932Y47727D01*
X508010Y47692D01*
X508087Y47654D01*
X508161Y47612D01*
X508234Y47567D01*
X508305Y47519D01*
X508373Y47468D01*
X508440Y47414D01*
X508503Y47356D01*
X508565Y47297D01*
X508623Y47234D01*
X508679Y47169D01*
X508731Y47101D01*
X508781Y47032D01*
X508827Y46960D01*
X508870Y46886D01*
X508910Y46810D01*
X508947Y46733D01*
X508980Y46654D01*
X509010Y46574D01*
X509009Y46574D02*
X509088Y46407D01*
X509163Y46238D01*
X509234Y46067D01*
X509301Y45895D01*
X509363Y45721D01*
X509422Y45545D01*
X509476Y45369D01*
X509526Y45191D01*
X509572Y45011D01*
X509614Y44831D01*
X509651Y44650D01*
X509684Y44468D01*
X509713Y44286D01*
X509737Y44102D01*
X509757Y43918D01*
X509772Y43734D01*
X509783Y43550D01*
X509790Y43365D01*
X509792Y43180D01*
X504571Y43180D02*
X504573Y42995D01*
X504580Y42810D01*
X504591Y42626D01*
X504606Y42442D01*
X504626Y42258D01*
X504650Y42074D01*
X504679Y41892D01*
X504712Y41710D01*
X504749Y41529D01*
X504791Y41349D01*
X504837Y41169D01*
X504887Y40991D01*
X504941Y40815D01*
X505000Y40639D01*
X505062Y40465D01*
X505129Y40293D01*
X505200Y40122D01*
X505275Y39953D01*
X505354Y39786D01*
X505384Y39706D01*
X505417Y39627D01*
X505454Y39550D01*
X505494Y39474D01*
X505537Y39400D01*
X505583Y39328D01*
X505633Y39259D01*
X505686Y39191D01*
X505741Y39126D01*
X505800Y39063D01*
X505861Y39004D01*
X505924Y38946D01*
X505991Y38892D01*
X506059Y38841D01*
X506130Y38793D01*
X506203Y38748D01*
X506277Y38706D01*
X506354Y38668D01*
X506432Y38633D01*
X506511Y38601D01*
X506592Y38573D01*
X506674Y38549D01*
X506758Y38528D01*
X506841Y38511D01*
X506926Y38498D01*
X507011Y38489D01*
X507096Y38483D01*
X507182Y38481D01*
X509009Y39786D02*
X509088Y39953D01*
X509163Y40122D01*
X509234Y40293D01*
X509301Y40465D01*
X509363Y40639D01*
X509422Y40815D01*
X509476Y40991D01*
X509526Y41169D01*
X509572Y41349D01*
X509614Y41529D01*
X509651Y41710D01*
X509684Y41892D01*
X509713Y42074D01*
X509737Y42258D01*
X509757Y42442D01*
X509772Y42626D01*
X509783Y42810D01*
X509790Y42995D01*
X509792Y43180D01*
X509010Y39786D02*
X508980Y39706D01*
X508947Y39627D01*
X508910Y39550D01*
X508870Y39474D01*
X508827Y39400D01*
X508781Y39328D01*
X508731Y39259D01*
X508679Y39191D01*
X508623Y39126D01*
X508565Y39063D01*
X508503Y39004D01*
X508440Y38946D01*
X508373Y38892D01*
X508305Y38841D01*
X508234Y38793D01*
X508161Y38748D01*
X508087Y38706D01*
X508010Y38668D01*
X507932Y38633D01*
X507853Y38601D01*
X507772Y38573D01*
X507690Y38549D01*
X507606Y38528D01*
X507523Y38511D01*
X507438Y38498D01*
X507353Y38489D01*
X507268Y38483D01*
X507182Y38481D01*
X505093Y40569D02*
X509270Y45791D01*
X529971Y45791D02*
X532582Y47879D01*
X532582Y38481D01*
X535192Y38481D02*
X529971Y38481D01*
X558243Y47880D02*
X558338Y47878D01*
X558432Y47872D01*
X558526Y47863D01*
X558620Y47850D01*
X558713Y47833D01*
X558805Y47812D01*
X558897Y47787D01*
X558987Y47759D01*
X559076Y47727D01*
X559164Y47692D01*
X559250Y47653D01*
X559335Y47611D01*
X559418Y47565D01*
X559499Y47516D01*
X559578Y47464D01*
X559655Y47409D01*
X559729Y47350D01*
X559801Y47289D01*
X559871Y47225D01*
X559938Y47158D01*
X560002Y47088D01*
X560063Y47016D01*
X560122Y46942D01*
X560177Y46865D01*
X560229Y46786D01*
X560278Y46705D01*
X560324Y46622D01*
X560366Y46537D01*
X560405Y46451D01*
X560440Y46363D01*
X560472Y46274D01*
X560500Y46184D01*
X560525Y46092D01*
X560546Y46000D01*
X560563Y45907D01*
X560576Y45813D01*
X560585Y45719D01*
X560591Y45625D01*
X560593Y45530D01*
X558243Y47879D02*
X558135Y47877D01*
X558026Y47871D01*
X557918Y47861D01*
X557811Y47848D01*
X557704Y47830D01*
X557597Y47809D01*
X557492Y47784D01*
X557387Y47755D01*
X557284Y47723D01*
X557182Y47686D01*
X557081Y47646D01*
X556982Y47603D01*
X556884Y47556D01*
X556788Y47505D01*
X556694Y47451D01*
X556602Y47394D01*
X556512Y47333D01*
X556424Y47269D01*
X556339Y47203D01*
X556256Y47133D01*
X556176Y47060D01*
X556098Y46984D01*
X556023Y46906D01*
X555951Y46825D01*
X555882Y46741D01*
X555816Y46655D01*
X555753Y46567D01*
X555694Y46476D01*
X555637Y46384D01*
X555584Y46289D01*
X555535Y46193D01*
X555489Y46094D01*
X555446Y45995D01*
X555407Y45893D01*
X555372Y45791D01*
X559809Y43702D02*
X559878Y43771D01*
X559944Y43842D01*
X560008Y43915D01*
X560069Y43991D01*
X560127Y44070D01*
X560181Y44150D01*
X560233Y44233D01*
X560281Y44317D01*
X560327Y44403D01*
X560368Y44491D01*
X560407Y44581D01*
X560442Y44672D01*
X560473Y44764D01*
X560501Y44857D01*
X560525Y44951D01*
X560545Y45046D01*
X560562Y45142D01*
X560575Y45239D01*
X560584Y45336D01*
X560590Y45433D01*
X560592Y45530D01*
X559809Y43702D02*
X555371Y38481D01*
X560592Y38481D01*
X580771Y38481D02*
X583382Y38481D01*
X583483Y38483D01*
X583584Y38489D01*
X583685Y38499D01*
X583785Y38512D01*
X583885Y38530D01*
X583984Y38551D01*
X584082Y38577D01*
X584179Y38606D01*
X584275Y38638D01*
X584369Y38675D01*
X584462Y38715D01*
X584554Y38759D01*
X584643Y38806D01*
X584731Y38857D01*
X584817Y38911D01*
X584900Y38968D01*
X584982Y39028D01*
X585060Y39092D01*
X585137Y39158D01*
X585210Y39228D01*
X585281Y39300D01*
X585349Y39375D01*
X585414Y39453D01*
X585476Y39533D01*
X585535Y39615D01*
X585591Y39700D01*
X585643Y39786D01*
X585692Y39875D01*
X585738Y39966D01*
X585779Y40058D01*
X585818Y40152D01*
X585852Y40247D01*
X585883Y40343D01*
X585910Y40441D01*
X585934Y40539D01*
X585953Y40639D01*
X585969Y40739D01*
X585981Y40839D01*
X585989Y40940D01*
X585993Y41041D01*
X585993Y41143D01*
X585989Y41244D01*
X585981Y41345D01*
X585969Y41445D01*
X585953Y41545D01*
X585934Y41645D01*
X585910Y41743D01*
X585883Y41841D01*
X585852Y41937D01*
X585818Y42032D01*
X585779Y42126D01*
X585738Y42218D01*
X585692Y42309D01*
X585643Y42397D01*
X585591Y42484D01*
X585535Y42569D01*
X585476Y42651D01*
X585414Y42731D01*
X585349Y42809D01*
X585281Y42884D01*
X585210Y42956D01*
X585137Y43026D01*
X585060Y43092D01*
X584982Y43156D01*
X584900Y43216D01*
X584817Y43273D01*
X584731Y43327D01*
X584643Y43378D01*
X584554Y43425D01*
X584462Y43469D01*
X584369Y43509D01*
X584275Y43546D01*
X584179Y43578D01*
X584082Y43607D01*
X583984Y43633D01*
X583885Y43654D01*
X583785Y43672D01*
X583685Y43685D01*
X583584Y43695D01*
X583483Y43701D01*
X583382Y43703D01*
X583904Y47879D02*
X580771Y47879D01*
X583904Y47879D02*
X583994Y47877D01*
X584083Y47871D01*
X584173Y47862D01*
X584262Y47848D01*
X584350Y47831D01*
X584437Y47810D01*
X584524Y47785D01*
X584609Y47756D01*
X584693Y47724D01*
X584775Y47689D01*
X584856Y47649D01*
X584935Y47607D01*
X585012Y47561D01*
X585087Y47511D01*
X585160Y47459D01*
X585231Y47403D01*
X585299Y47345D01*
X585364Y47283D01*
X585427Y47219D01*
X585487Y47152D01*
X585544Y47083D01*
X585598Y47011D01*
X585649Y46937D01*
X585697Y46861D01*
X585741Y46783D01*
X585782Y46703D01*
X585820Y46621D01*
X585854Y46538D01*
X585884Y46453D01*
X585911Y46367D01*
X585934Y46281D01*
X585953Y46193D01*
X585968Y46104D01*
X585980Y46015D01*
X585988Y45926D01*
X585992Y45836D01*
X585992Y45746D01*
X585988Y45656D01*
X585980Y45567D01*
X585968Y45478D01*
X585953Y45389D01*
X585934Y45301D01*
X585911Y45215D01*
X585884Y45129D01*
X585854Y45044D01*
X585820Y44961D01*
X585782Y44879D01*
X585741Y44799D01*
X585697Y44721D01*
X585649Y44645D01*
X585598Y44571D01*
X585544Y44499D01*
X585487Y44430D01*
X585427Y44363D01*
X585364Y44299D01*
X585299Y44237D01*
X585231Y44179D01*
X585160Y44123D01*
X585087Y44071D01*
X585012Y44021D01*
X584935Y43975D01*
X584856Y43933D01*
X584775Y43893D01*
X584693Y43858D01*
X584609Y43826D01*
X584524Y43797D01*
X584437Y43772D01*
X584350Y43751D01*
X584262Y43734D01*
X584173Y43720D01*
X584083Y43711D01*
X583994Y43705D01*
X583904Y43703D01*
X583904Y43702D02*
X581815Y43702D01*
X606171Y40569D02*
X608259Y47879D01*
X606171Y40569D02*
X611392Y40569D01*
X609826Y42658D02*
X609826Y38481D01*
X631571Y38481D02*
X634704Y38481D01*
X634793Y38483D01*
X634881Y38489D01*
X634969Y38498D01*
X635057Y38511D01*
X635144Y38528D01*
X635230Y38548D01*
X635315Y38573D01*
X635400Y38600D01*
X635483Y38632D01*
X635564Y38666D01*
X635644Y38705D01*
X635722Y38746D01*
X635799Y38791D01*
X635873Y38839D01*
X635946Y38890D01*
X636016Y38944D01*
X636083Y39002D01*
X636149Y39062D01*
X636211Y39124D01*
X636271Y39190D01*
X636329Y39257D01*
X636383Y39327D01*
X636434Y39400D01*
X636482Y39474D01*
X636527Y39551D01*
X636568Y39629D01*
X636607Y39709D01*
X636641Y39790D01*
X636673Y39873D01*
X636700Y39958D01*
X636725Y40043D01*
X636745Y40129D01*
X636762Y40216D01*
X636775Y40304D01*
X636784Y40392D01*
X636790Y40480D01*
X636792Y40569D01*
X636792Y41614D01*
X636790Y41703D01*
X636784Y41791D01*
X636775Y41879D01*
X636762Y41967D01*
X636745Y42054D01*
X636725Y42140D01*
X636700Y42225D01*
X636673Y42310D01*
X636641Y42393D01*
X636607Y42474D01*
X636568Y42554D01*
X636527Y42632D01*
X636482Y42709D01*
X636434Y42783D01*
X636383Y42856D01*
X636329Y42926D01*
X636271Y42993D01*
X636211Y43059D01*
X636149Y43121D01*
X636083Y43181D01*
X636016Y43239D01*
X635946Y43293D01*
X635873Y43344D01*
X635799Y43392D01*
X635722Y43437D01*
X635644Y43478D01*
X635564Y43517D01*
X635483Y43551D01*
X635400Y43583D01*
X635315Y43610D01*
X635230Y43635D01*
X635144Y43655D01*
X635057Y43672D01*
X634969Y43685D01*
X634881Y43694D01*
X634793Y43700D01*
X634704Y43702D01*
X631571Y43702D01*
X631571Y47879D01*
X636792Y47879D01*
X217724Y485521D02*
X220857Y494919D01*
X223989Y485521D01*
X223206Y487871D02*
X218507Y487871D01*
X227752Y485521D02*
X227752Y494919D01*
X230362Y494919D01*
X230463Y494917D01*
X230564Y494911D01*
X230665Y494901D01*
X230765Y494888D01*
X230865Y494870D01*
X230964Y494849D01*
X231062Y494823D01*
X231159Y494794D01*
X231255Y494762D01*
X231349Y494725D01*
X231442Y494685D01*
X231534Y494641D01*
X231623Y494594D01*
X231711Y494543D01*
X231797Y494489D01*
X231880Y494432D01*
X231962Y494372D01*
X232040Y494308D01*
X232117Y494242D01*
X232190Y494172D01*
X232261Y494100D01*
X232329Y494025D01*
X232394Y493947D01*
X232456Y493867D01*
X232515Y493785D01*
X232571Y493700D01*
X232623Y493613D01*
X232672Y493525D01*
X232718Y493434D01*
X232759Y493342D01*
X232798Y493248D01*
X232832Y493153D01*
X232863Y493057D01*
X232890Y492959D01*
X232914Y492861D01*
X232933Y492761D01*
X232949Y492661D01*
X232961Y492561D01*
X232969Y492460D01*
X232973Y492359D01*
X232973Y492257D01*
X232969Y492156D01*
X232961Y492055D01*
X232949Y491955D01*
X232933Y491855D01*
X232914Y491755D01*
X232890Y491657D01*
X232863Y491559D01*
X232832Y491463D01*
X232798Y491368D01*
X232759Y491274D01*
X232718Y491182D01*
X232672Y491091D01*
X232623Y491003D01*
X232571Y490916D01*
X232515Y490831D01*
X232456Y490749D01*
X232394Y490669D01*
X232329Y490591D01*
X232261Y490516D01*
X232190Y490444D01*
X232117Y490374D01*
X232040Y490308D01*
X231962Y490244D01*
X231880Y490184D01*
X231797Y490127D01*
X231711Y490073D01*
X231623Y490022D01*
X231534Y489975D01*
X231442Y489931D01*
X231349Y489891D01*
X231255Y489854D01*
X231159Y489822D01*
X231062Y489793D01*
X230964Y489767D01*
X230865Y489746D01*
X230765Y489728D01*
X230665Y489715D01*
X230564Y489705D01*
X230463Y489699D01*
X230362Y489697D01*
X230362Y489698D02*
X227752Y489698D01*
X230884Y489698D02*
X232973Y485521D01*
X238318Y485521D02*
X240928Y485521D01*
X238318Y485521D02*
X238241Y485523D01*
X238165Y485529D01*
X238088Y485538D01*
X238012Y485551D01*
X237937Y485568D01*
X237863Y485588D01*
X237790Y485613D01*
X237719Y485640D01*
X237648Y485671D01*
X237580Y485706D01*
X237513Y485744D01*
X237448Y485785D01*
X237385Y485829D01*
X237325Y485876D01*
X237266Y485927D01*
X237211Y485980D01*
X237158Y486035D01*
X237107Y486094D01*
X237060Y486154D01*
X237016Y486217D01*
X236975Y486282D01*
X236937Y486349D01*
X236902Y486417D01*
X236871Y486488D01*
X236844Y486559D01*
X236819Y486632D01*
X236799Y486706D01*
X236782Y486781D01*
X236769Y486857D01*
X236760Y486934D01*
X236754Y487010D01*
X236752Y487087D01*
X236751Y487087D02*
X236751Y489698D01*
X236752Y489698D02*
X236754Y489788D01*
X236760Y489877D01*
X236769Y489967D01*
X236783Y490056D01*
X236800Y490144D01*
X236821Y490231D01*
X236846Y490318D01*
X236875Y490403D01*
X236907Y490487D01*
X236942Y490569D01*
X236982Y490650D01*
X237024Y490729D01*
X237070Y490806D01*
X237120Y490881D01*
X237172Y490954D01*
X237228Y491025D01*
X237286Y491093D01*
X237348Y491158D01*
X237412Y491221D01*
X237479Y491281D01*
X237548Y491338D01*
X237620Y491392D01*
X237694Y491443D01*
X237770Y491491D01*
X237848Y491535D01*
X237928Y491576D01*
X238010Y491614D01*
X238093Y491648D01*
X238178Y491678D01*
X238264Y491705D01*
X238350Y491728D01*
X238438Y491747D01*
X238527Y491762D01*
X238616Y491774D01*
X238705Y491782D01*
X238795Y491786D01*
X238885Y491786D01*
X238975Y491782D01*
X239064Y491774D01*
X239153Y491762D01*
X239242Y491747D01*
X239330Y491728D01*
X239416Y491705D01*
X239502Y491678D01*
X239587Y491648D01*
X239670Y491614D01*
X239752Y491576D01*
X239832Y491535D01*
X239910Y491491D01*
X239986Y491443D01*
X240060Y491392D01*
X240132Y491338D01*
X240201Y491281D01*
X240268Y491221D01*
X240332Y491158D01*
X240394Y491093D01*
X240452Y491025D01*
X240508Y490954D01*
X240560Y490881D01*
X240610Y490806D01*
X240656Y490729D01*
X240698Y490650D01*
X240738Y490569D01*
X240773Y490487D01*
X240805Y490403D01*
X240834Y490318D01*
X240859Y490231D01*
X240880Y490144D01*
X240897Y490056D01*
X240911Y489967D01*
X240920Y489877D01*
X240926Y489788D01*
X240928Y489698D01*
X240928Y488654D01*
X236751Y488654D01*
X245181Y485521D02*
X245181Y493353D01*
X245183Y493430D01*
X245189Y493506D01*
X245198Y493583D01*
X245211Y493659D01*
X245228Y493734D01*
X245248Y493808D01*
X245273Y493881D01*
X245300Y493952D01*
X245331Y494023D01*
X245366Y494091D01*
X245404Y494158D01*
X245445Y494223D01*
X245489Y494286D01*
X245536Y494346D01*
X245587Y494405D01*
X245640Y494460D01*
X245695Y494513D01*
X245754Y494564D01*
X245814Y494611D01*
X245877Y494655D01*
X245942Y494696D01*
X246009Y494734D01*
X246077Y494769D01*
X246148Y494800D01*
X246219Y494827D01*
X246292Y494852D01*
X246366Y494872D01*
X246441Y494889D01*
X246517Y494902D01*
X246593Y494911D01*
X246670Y494917D01*
X246747Y494919D01*
X247269Y494919D01*
X247269Y491786D02*
X244136Y491786D01*
X259645Y485521D02*
X262255Y485521D01*
X259645Y485521D02*
X259568Y485523D01*
X259492Y485529D01*
X259415Y485538D01*
X259339Y485551D01*
X259264Y485568D01*
X259190Y485588D01*
X259117Y485613D01*
X259046Y485640D01*
X258975Y485671D01*
X258907Y485706D01*
X258840Y485744D01*
X258775Y485785D01*
X258712Y485829D01*
X258652Y485876D01*
X258593Y485927D01*
X258538Y485980D01*
X258485Y486035D01*
X258434Y486094D01*
X258387Y486154D01*
X258343Y486217D01*
X258302Y486282D01*
X258264Y486349D01*
X258229Y486417D01*
X258198Y486488D01*
X258171Y486559D01*
X258146Y486632D01*
X258126Y486706D01*
X258109Y486781D01*
X258096Y486857D01*
X258087Y486934D01*
X258081Y487010D01*
X258079Y487087D01*
X258078Y487087D02*
X258078Y490220D01*
X258079Y490220D02*
X258081Y490297D01*
X258087Y490373D01*
X258096Y490450D01*
X258109Y490526D01*
X258126Y490601D01*
X258146Y490675D01*
X258171Y490748D01*
X258198Y490819D01*
X258229Y490890D01*
X258264Y490958D01*
X258302Y491025D01*
X258343Y491090D01*
X258387Y491153D01*
X258434Y491213D01*
X258485Y491272D01*
X258538Y491327D01*
X258593Y491380D01*
X258652Y491431D01*
X258712Y491478D01*
X258775Y491522D01*
X258840Y491563D01*
X258907Y491601D01*
X258975Y491636D01*
X259046Y491667D01*
X259117Y491694D01*
X259190Y491719D01*
X259264Y491739D01*
X259339Y491756D01*
X259415Y491769D01*
X259492Y491778D01*
X259568Y491784D01*
X259645Y491786D01*
X262255Y491786D01*
X262255Y483955D01*
X262253Y483878D01*
X262247Y483802D01*
X262238Y483725D01*
X262225Y483649D01*
X262208Y483574D01*
X262188Y483500D01*
X262163Y483427D01*
X262136Y483356D01*
X262105Y483285D01*
X262070Y483217D01*
X262032Y483150D01*
X261991Y483085D01*
X261947Y483022D01*
X261900Y482962D01*
X261849Y482903D01*
X261796Y482848D01*
X261741Y482795D01*
X261682Y482744D01*
X261622Y482697D01*
X261559Y482653D01*
X261494Y482612D01*
X261427Y482574D01*
X261359Y482539D01*
X261288Y482508D01*
X261217Y482481D01*
X261144Y482456D01*
X261070Y482436D01*
X260995Y482419D01*
X260919Y482406D01*
X260843Y482397D01*
X260766Y482391D01*
X260689Y482389D01*
X260689Y482388D02*
X258600Y482388D01*
X266658Y485521D02*
X266658Y491786D01*
X269269Y491786D01*
X269346Y491784D01*
X269422Y491778D01*
X269499Y491769D01*
X269575Y491756D01*
X269650Y491739D01*
X269724Y491719D01*
X269797Y491694D01*
X269868Y491667D01*
X269939Y491636D01*
X270007Y491601D01*
X270074Y491563D01*
X270139Y491522D01*
X270202Y491478D01*
X270262Y491431D01*
X270321Y491380D01*
X270376Y491327D01*
X270429Y491272D01*
X270480Y491213D01*
X270527Y491153D01*
X270571Y491090D01*
X270612Y491025D01*
X270650Y490958D01*
X270685Y490890D01*
X270716Y490819D01*
X270743Y490748D01*
X270768Y490675D01*
X270788Y490601D01*
X270805Y490526D01*
X270818Y490450D01*
X270827Y490374D01*
X270833Y490297D01*
X270835Y490220D01*
X270835Y485521D01*
X279019Y485521D02*
X279019Y494919D01*
X279019Y485521D02*
X276408Y485521D01*
X276331Y485523D01*
X276255Y485529D01*
X276178Y485538D01*
X276102Y485551D01*
X276027Y485568D01*
X275953Y485588D01*
X275880Y485613D01*
X275809Y485640D01*
X275738Y485671D01*
X275670Y485706D01*
X275603Y485744D01*
X275538Y485785D01*
X275475Y485829D01*
X275415Y485876D01*
X275356Y485927D01*
X275301Y485980D01*
X275248Y486035D01*
X275197Y486094D01*
X275150Y486154D01*
X275106Y486217D01*
X275065Y486282D01*
X275027Y486349D01*
X274992Y486417D01*
X274961Y486488D01*
X274934Y486559D01*
X274909Y486632D01*
X274889Y486706D01*
X274872Y486781D01*
X274859Y486857D01*
X274850Y486934D01*
X274844Y487010D01*
X274842Y487087D01*
X274842Y490220D01*
X274844Y490297D01*
X274850Y490373D01*
X274859Y490450D01*
X274872Y490526D01*
X274889Y490601D01*
X274909Y490675D01*
X274934Y490748D01*
X274961Y490819D01*
X274992Y490890D01*
X275027Y490958D01*
X275065Y491025D01*
X275106Y491090D01*
X275150Y491153D01*
X275197Y491213D01*
X275248Y491272D01*
X275301Y491327D01*
X275356Y491380D01*
X275415Y491431D01*
X275475Y491478D01*
X275538Y491522D01*
X275603Y491563D01*
X275670Y491601D01*
X275738Y491636D01*
X275809Y491667D01*
X275880Y491694D01*
X275953Y491719D01*
X276027Y491739D01*
X276102Y491756D01*
X276178Y491769D01*
X276255Y491778D01*
X276331Y491784D01*
X276408Y491786D01*
X279019Y491786D01*
X286244Y492831D02*
X288854Y494919D01*
X288854Y485521D01*
X286244Y485521D02*
X291465Y485521D01*
X295388Y485521D02*
X297998Y485521D01*
X298099Y485523D01*
X298200Y485529D01*
X298301Y485539D01*
X298401Y485552D01*
X298501Y485570D01*
X298600Y485591D01*
X298698Y485617D01*
X298795Y485646D01*
X298891Y485678D01*
X298985Y485715D01*
X299078Y485755D01*
X299170Y485799D01*
X299259Y485846D01*
X299347Y485897D01*
X299433Y485951D01*
X299516Y486008D01*
X299598Y486068D01*
X299676Y486132D01*
X299753Y486198D01*
X299826Y486268D01*
X299897Y486340D01*
X299965Y486415D01*
X300030Y486493D01*
X300092Y486573D01*
X300151Y486655D01*
X300207Y486740D01*
X300259Y486827D01*
X300308Y486915D01*
X300354Y487006D01*
X300395Y487098D01*
X300434Y487192D01*
X300468Y487287D01*
X300499Y487383D01*
X300526Y487481D01*
X300550Y487579D01*
X300569Y487679D01*
X300585Y487779D01*
X300597Y487879D01*
X300605Y487980D01*
X300609Y488081D01*
X300609Y488183D01*
X300605Y488284D01*
X300597Y488385D01*
X300585Y488485D01*
X300569Y488585D01*
X300550Y488685D01*
X300526Y488783D01*
X300499Y488881D01*
X300468Y488977D01*
X300434Y489072D01*
X300395Y489166D01*
X300354Y489258D01*
X300308Y489349D01*
X300259Y489437D01*
X300207Y489524D01*
X300151Y489609D01*
X300092Y489691D01*
X300030Y489771D01*
X299965Y489849D01*
X299897Y489924D01*
X299826Y489996D01*
X299753Y490066D01*
X299676Y490132D01*
X299598Y490196D01*
X299516Y490256D01*
X299433Y490313D01*
X299347Y490367D01*
X299259Y490418D01*
X299170Y490465D01*
X299078Y490509D01*
X298985Y490549D01*
X298891Y490586D01*
X298795Y490618D01*
X298698Y490647D01*
X298600Y490673D01*
X298501Y490694D01*
X298401Y490712D01*
X298301Y490725D01*
X298200Y490735D01*
X298099Y490741D01*
X297998Y490743D01*
X298521Y494919D02*
X295388Y494919D01*
X298521Y494919D02*
X298611Y494917D01*
X298700Y494911D01*
X298790Y494902D01*
X298879Y494888D01*
X298967Y494871D01*
X299054Y494850D01*
X299141Y494825D01*
X299226Y494796D01*
X299310Y494764D01*
X299392Y494729D01*
X299473Y494689D01*
X299552Y494647D01*
X299629Y494601D01*
X299704Y494551D01*
X299777Y494499D01*
X299848Y494443D01*
X299916Y494385D01*
X299981Y494323D01*
X300044Y494259D01*
X300104Y494192D01*
X300161Y494123D01*
X300215Y494051D01*
X300266Y493977D01*
X300314Y493901D01*
X300358Y493823D01*
X300399Y493743D01*
X300437Y493661D01*
X300471Y493578D01*
X300501Y493493D01*
X300528Y493407D01*
X300551Y493321D01*
X300570Y493233D01*
X300585Y493144D01*
X300597Y493055D01*
X300605Y492966D01*
X300609Y492876D01*
X300609Y492786D01*
X300605Y492696D01*
X300597Y492607D01*
X300585Y492518D01*
X300570Y492429D01*
X300551Y492341D01*
X300528Y492255D01*
X300501Y492169D01*
X300471Y492084D01*
X300437Y492001D01*
X300399Y491919D01*
X300358Y491839D01*
X300314Y491761D01*
X300266Y491685D01*
X300215Y491611D01*
X300161Y491539D01*
X300104Y491470D01*
X300044Y491403D01*
X299981Y491339D01*
X299916Y491277D01*
X299848Y491219D01*
X299777Y491163D01*
X299704Y491111D01*
X299629Y491061D01*
X299552Y491015D01*
X299473Y490973D01*
X299392Y490933D01*
X299310Y490898D01*
X299226Y490866D01*
X299141Y490837D01*
X299054Y490812D01*
X298967Y490791D01*
X298879Y490774D01*
X298790Y490760D01*
X298700Y490751D01*
X298611Y490745D01*
X298521Y490743D01*
X298521Y490742D02*
X296432Y490742D01*
X311644Y492831D02*
X314254Y494919D01*
X314254Y485521D01*
X311644Y485521D02*
X316865Y485521D01*
X326010Y492570D02*
X326008Y492665D01*
X326002Y492759D01*
X325993Y492853D01*
X325980Y492947D01*
X325963Y493040D01*
X325942Y493132D01*
X325917Y493224D01*
X325889Y493314D01*
X325857Y493403D01*
X325822Y493491D01*
X325783Y493577D01*
X325741Y493662D01*
X325695Y493745D01*
X325646Y493826D01*
X325594Y493905D01*
X325539Y493982D01*
X325480Y494056D01*
X325419Y494128D01*
X325355Y494198D01*
X325288Y494265D01*
X325218Y494329D01*
X325146Y494390D01*
X325072Y494449D01*
X324995Y494504D01*
X324916Y494556D01*
X324835Y494605D01*
X324752Y494651D01*
X324667Y494693D01*
X324581Y494732D01*
X324493Y494767D01*
X324404Y494799D01*
X324314Y494827D01*
X324222Y494852D01*
X324130Y494873D01*
X324037Y494890D01*
X323943Y494903D01*
X323849Y494912D01*
X323755Y494918D01*
X323660Y494920D01*
X323660Y494919D02*
X323552Y494917D01*
X323443Y494911D01*
X323335Y494901D01*
X323228Y494888D01*
X323121Y494870D01*
X323014Y494849D01*
X322909Y494824D01*
X322804Y494795D01*
X322701Y494763D01*
X322599Y494726D01*
X322498Y494686D01*
X322399Y494643D01*
X322301Y494596D01*
X322205Y494545D01*
X322111Y494491D01*
X322019Y494434D01*
X321929Y494373D01*
X321841Y494309D01*
X321756Y494243D01*
X321673Y494173D01*
X321593Y494100D01*
X321515Y494024D01*
X321440Y493946D01*
X321368Y493865D01*
X321299Y493781D01*
X321233Y493695D01*
X321170Y493607D01*
X321111Y493516D01*
X321054Y493424D01*
X321001Y493329D01*
X320952Y493233D01*
X320906Y493134D01*
X320863Y493035D01*
X320824Y492933D01*
X320789Y492831D01*
X325226Y490742D02*
X325295Y490811D01*
X325361Y490882D01*
X325425Y490955D01*
X325486Y491031D01*
X325544Y491110D01*
X325598Y491190D01*
X325650Y491273D01*
X325698Y491357D01*
X325744Y491443D01*
X325785Y491531D01*
X325824Y491621D01*
X325859Y491712D01*
X325890Y491804D01*
X325918Y491897D01*
X325942Y491991D01*
X325962Y492086D01*
X325979Y492182D01*
X325992Y492279D01*
X326001Y492376D01*
X326007Y492473D01*
X326009Y492570D01*
X325226Y490742D02*
X320788Y485521D01*
X326009Y485521D01*
X337044Y492831D02*
X339654Y494919D01*
X339654Y485521D01*
X337044Y485521D02*
X342265Y485521D01*
X346188Y492831D02*
X348798Y494919D01*
X348798Y485521D01*
X346188Y485521D02*
X351409Y485521D01*
X362444Y492831D02*
X365054Y494919D01*
X365054Y485521D01*
X362444Y485521D02*
X367665Y485521D01*
X371588Y490220D02*
X371590Y490405D01*
X371597Y490590D01*
X371608Y490774D01*
X371623Y490958D01*
X371643Y491142D01*
X371667Y491326D01*
X371696Y491508D01*
X371729Y491690D01*
X371766Y491871D01*
X371808Y492051D01*
X371854Y492231D01*
X371904Y492409D01*
X371958Y492585D01*
X372017Y492761D01*
X372079Y492935D01*
X372146Y493107D01*
X372217Y493278D01*
X372292Y493447D01*
X372371Y493614D01*
X372370Y493614D02*
X372400Y493694D01*
X372433Y493773D01*
X372470Y493850D01*
X372510Y493926D01*
X372553Y494000D01*
X372599Y494072D01*
X372649Y494141D01*
X372701Y494209D01*
X372757Y494274D01*
X372815Y494337D01*
X372877Y494396D01*
X372940Y494454D01*
X373007Y494508D01*
X373075Y494559D01*
X373146Y494607D01*
X373219Y494652D01*
X373293Y494694D01*
X373370Y494732D01*
X373448Y494767D01*
X373527Y494799D01*
X373608Y494827D01*
X373690Y494851D01*
X373774Y494872D01*
X373857Y494889D01*
X373942Y494902D01*
X374027Y494911D01*
X374112Y494917D01*
X374198Y494919D01*
X374284Y494917D01*
X374369Y494911D01*
X374454Y494902D01*
X374539Y494889D01*
X374622Y494872D01*
X374706Y494851D01*
X374788Y494827D01*
X374869Y494799D01*
X374948Y494767D01*
X375026Y494732D01*
X375103Y494694D01*
X375177Y494652D01*
X375250Y494607D01*
X375321Y494559D01*
X375389Y494508D01*
X375456Y494454D01*
X375519Y494396D01*
X375581Y494337D01*
X375639Y494274D01*
X375695Y494209D01*
X375747Y494141D01*
X375797Y494072D01*
X375843Y494000D01*
X375886Y493926D01*
X375926Y493850D01*
X375963Y493773D01*
X375996Y493694D01*
X376026Y493614D01*
X376105Y493447D01*
X376180Y493278D01*
X376251Y493107D01*
X376318Y492935D01*
X376380Y492761D01*
X376439Y492585D01*
X376493Y492409D01*
X376543Y492231D01*
X376589Y492051D01*
X376631Y491871D01*
X376668Y491690D01*
X376701Y491508D01*
X376730Y491326D01*
X376754Y491142D01*
X376774Y490958D01*
X376789Y490774D01*
X376800Y490590D01*
X376807Y490405D01*
X376809Y490220D01*
X371588Y490220D02*
X371590Y490035D01*
X371597Y489850D01*
X371608Y489666D01*
X371623Y489482D01*
X371643Y489298D01*
X371667Y489114D01*
X371696Y488932D01*
X371729Y488750D01*
X371766Y488569D01*
X371808Y488389D01*
X371854Y488209D01*
X371904Y488031D01*
X371958Y487855D01*
X372017Y487679D01*
X372079Y487505D01*
X372146Y487333D01*
X372217Y487162D01*
X372292Y486993D01*
X372371Y486826D01*
X372370Y486826D02*
X372400Y486746D01*
X372433Y486667D01*
X372470Y486590D01*
X372510Y486514D01*
X372553Y486440D01*
X372599Y486368D01*
X372649Y486299D01*
X372702Y486231D01*
X372757Y486166D01*
X372816Y486103D01*
X372877Y486044D01*
X372940Y485986D01*
X373007Y485932D01*
X373075Y485881D01*
X373146Y485833D01*
X373219Y485788D01*
X373293Y485746D01*
X373370Y485708D01*
X373448Y485673D01*
X373527Y485641D01*
X373608Y485613D01*
X373690Y485589D01*
X373774Y485568D01*
X373857Y485551D01*
X373942Y485538D01*
X374027Y485529D01*
X374112Y485523D01*
X374198Y485521D01*
X376026Y486826D02*
X376105Y486993D01*
X376180Y487162D01*
X376251Y487333D01*
X376318Y487505D01*
X376380Y487679D01*
X376439Y487855D01*
X376493Y488031D01*
X376543Y488209D01*
X376589Y488389D01*
X376631Y488569D01*
X376668Y488750D01*
X376701Y488932D01*
X376730Y489114D01*
X376754Y489298D01*
X376774Y489482D01*
X376789Y489666D01*
X376800Y489850D01*
X376807Y490035D01*
X376809Y490220D01*
X376026Y486826D02*
X375996Y486746D01*
X375963Y486667D01*
X375926Y486590D01*
X375886Y486514D01*
X375843Y486440D01*
X375797Y486368D01*
X375747Y486299D01*
X375695Y486231D01*
X375639Y486166D01*
X375581Y486103D01*
X375519Y486044D01*
X375456Y485986D01*
X375389Y485932D01*
X375321Y485881D01*
X375250Y485833D01*
X375177Y485788D01*
X375103Y485746D01*
X375026Y485708D01*
X374948Y485673D01*
X374869Y485641D01*
X374788Y485613D01*
X374706Y485589D01*
X374622Y485568D01*
X374539Y485551D01*
X374454Y485538D01*
X374369Y485529D01*
X374284Y485523D01*
X374198Y485521D01*
X372110Y487609D02*
X376287Y492831D01*
X393996Y489698D02*
X397129Y489698D01*
X393996Y489698D02*
X393907Y489700D01*
X393819Y489706D01*
X393731Y489715D01*
X393643Y489728D01*
X393556Y489745D01*
X393470Y489765D01*
X393385Y489790D01*
X393300Y489817D01*
X393217Y489849D01*
X393136Y489883D01*
X393056Y489922D01*
X392978Y489963D01*
X392901Y490008D01*
X392827Y490056D01*
X392754Y490107D01*
X392684Y490161D01*
X392617Y490219D01*
X392551Y490279D01*
X392489Y490341D01*
X392429Y490407D01*
X392371Y490474D01*
X392317Y490544D01*
X392266Y490617D01*
X392218Y490691D01*
X392173Y490768D01*
X392132Y490846D01*
X392093Y490926D01*
X392059Y491007D01*
X392027Y491090D01*
X392000Y491175D01*
X391975Y491260D01*
X391955Y491346D01*
X391938Y491433D01*
X391925Y491521D01*
X391916Y491609D01*
X391910Y491697D01*
X391908Y491786D01*
X391908Y492308D01*
X391907Y492308D02*
X391909Y492409D01*
X391915Y492510D01*
X391925Y492611D01*
X391938Y492711D01*
X391956Y492811D01*
X391977Y492910D01*
X392003Y493008D01*
X392032Y493105D01*
X392064Y493201D01*
X392101Y493295D01*
X392141Y493388D01*
X392185Y493480D01*
X392232Y493569D01*
X392283Y493657D01*
X392337Y493743D01*
X392394Y493826D01*
X392454Y493908D01*
X392518Y493986D01*
X392584Y494063D01*
X392654Y494136D01*
X392726Y494207D01*
X392801Y494275D01*
X392879Y494340D01*
X392959Y494402D01*
X393041Y494461D01*
X393126Y494517D01*
X393213Y494569D01*
X393301Y494618D01*
X393392Y494664D01*
X393484Y494705D01*
X393578Y494744D01*
X393673Y494778D01*
X393769Y494809D01*
X393867Y494836D01*
X393965Y494860D01*
X394065Y494879D01*
X394165Y494895D01*
X394265Y494907D01*
X394366Y494915D01*
X394467Y494919D01*
X394569Y494919D01*
X394670Y494915D01*
X394771Y494907D01*
X394871Y494895D01*
X394971Y494879D01*
X395071Y494860D01*
X395169Y494836D01*
X395267Y494809D01*
X395363Y494778D01*
X395458Y494744D01*
X395552Y494705D01*
X395644Y494664D01*
X395735Y494618D01*
X395824Y494569D01*
X395910Y494517D01*
X395995Y494461D01*
X396077Y494402D01*
X396157Y494340D01*
X396235Y494275D01*
X396310Y494207D01*
X396382Y494136D01*
X396452Y494063D01*
X396518Y493986D01*
X396582Y493908D01*
X396642Y493826D01*
X396699Y493743D01*
X396753Y493657D01*
X396804Y493569D01*
X396851Y493480D01*
X396895Y493388D01*
X396935Y493295D01*
X396972Y493201D01*
X397004Y493105D01*
X397033Y493008D01*
X397059Y492910D01*
X397080Y492811D01*
X397098Y492711D01*
X397111Y492611D01*
X397121Y492510D01*
X397127Y492409D01*
X397129Y492308D01*
X397129Y489698D01*
X397127Y489572D01*
X397121Y489446D01*
X397112Y489320D01*
X397099Y489195D01*
X397081Y489070D01*
X397061Y488945D01*
X397036Y488821D01*
X397008Y488698D01*
X396976Y488576D01*
X396940Y488455D01*
X396901Y488335D01*
X396858Y488217D01*
X396811Y488100D01*
X396761Y487984D01*
X396707Y487869D01*
X396651Y487757D01*
X396590Y487646D01*
X396527Y487537D01*
X396460Y487430D01*
X396390Y487325D01*
X396316Y487222D01*
X396240Y487122D01*
X396161Y487024D01*
X396079Y486928D01*
X395993Y486835D01*
X395906Y486744D01*
X395815Y486657D01*
X395722Y486571D01*
X395626Y486489D01*
X395528Y486410D01*
X395428Y486334D01*
X395325Y486260D01*
X395220Y486190D01*
X395113Y486123D01*
X395004Y486060D01*
X394893Y485999D01*
X394781Y485943D01*
X394666Y485889D01*
X394550Y485839D01*
X394433Y485792D01*
X394315Y485749D01*
X394195Y485710D01*
X394074Y485674D01*
X393952Y485642D01*
X393829Y485614D01*
X393705Y485589D01*
X393580Y485569D01*
X393455Y485551D01*
X393330Y485538D01*
X393204Y485529D01*
X393078Y485523D01*
X392952Y485521D01*
X417307Y488132D02*
X417309Y488233D01*
X417315Y488334D01*
X417325Y488435D01*
X417338Y488535D01*
X417356Y488635D01*
X417377Y488734D01*
X417403Y488832D01*
X417432Y488929D01*
X417464Y489025D01*
X417501Y489119D01*
X417541Y489212D01*
X417585Y489304D01*
X417632Y489393D01*
X417683Y489481D01*
X417737Y489567D01*
X417794Y489650D01*
X417854Y489732D01*
X417918Y489810D01*
X417984Y489887D01*
X418054Y489960D01*
X418126Y490031D01*
X418201Y490099D01*
X418279Y490164D01*
X418359Y490226D01*
X418441Y490285D01*
X418526Y490341D01*
X418613Y490393D01*
X418701Y490442D01*
X418792Y490488D01*
X418884Y490529D01*
X418978Y490568D01*
X419073Y490602D01*
X419169Y490633D01*
X419267Y490660D01*
X419365Y490684D01*
X419465Y490703D01*
X419565Y490719D01*
X419665Y490731D01*
X419766Y490739D01*
X419867Y490743D01*
X419969Y490743D01*
X420070Y490739D01*
X420171Y490731D01*
X420271Y490719D01*
X420371Y490703D01*
X420471Y490684D01*
X420569Y490660D01*
X420667Y490633D01*
X420763Y490602D01*
X420858Y490568D01*
X420952Y490529D01*
X421044Y490488D01*
X421135Y490442D01*
X421224Y490393D01*
X421310Y490341D01*
X421395Y490285D01*
X421477Y490226D01*
X421557Y490164D01*
X421635Y490099D01*
X421710Y490031D01*
X421782Y489960D01*
X421852Y489887D01*
X421918Y489810D01*
X421982Y489732D01*
X422042Y489650D01*
X422099Y489567D01*
X422153Y489481D01*
X422204Y489393D01*
X422251Y489304D01*
X422295Y489212D01*
X422335Y489119D01*
X422372Y489025D01*
X422404Y488929D01*
X422433Y488832D01*
X422459Y488734D01*
X422480Y488635D01*
X422498Y488535D01*
X422511Y488435D01*
X422521Y488334D01*
X422527Y488233D01*
X422529Y488132D01*
X422527Y488031D01*
X422521Y487930D01*
X422511Y487829D01*
X422498Y487729D01*
X422480Y487629D01*
X422459Y487530D01*
X422433Y487432D01*
X422404Y487335D01*
X422372Y487239D01*
X422335Y487145D01*
X422295Y487052D01*
X422251Y486960D01*
X422204Y486871D01*
X422153Y486783D01*
X422099Y486697D01*
X422042Y486614D01*
X421982Y486532D01*
X421918Y486454D01*
X421852Y486377D01*
X421782Y486304D01*
X421710Y486233D01*
X421635Y486165D01*
X421557Y486100D01*
X421477Y486038D01*
X421395Y485979D01*
X421310Y485923D01*
X421223Y485871D01*
X421135Y485822D01*
X421044Y485776D01*
X420952Y485735D01*
X420858Y485696D01*
X420763Y485662D01*
X420667Y485631D01*
X420569Y485604D01*
X420471Y485580D01*
X420371Y485561D01*
X420271Y485545D01*
X420171Y485533D01*
X420070Y485525D01*
X419969Y485521D01*
X419867Y485521D01*
X419766Y485525D01*
X419665Y485533D01*
X419565Y485545D01*
X419465Y485561D01*
X419365Y485580D01*
X419267Y485604D01*
X419169Y485631D01*
X419073Y485662D01*
X418978Y485696D01*
X418884Y485735D01*
X418792Y485776D01*
X418701Y485822D01*
X418613Y485871D01*
X418526Y485923D01*
X418441Y485979D01*
X418359Y486038D01*
X418279Y486100D01*
X418201Y486165D01*
X418126Y486233D01*
X418054Y486304D01*
X417984Y486377D01*
X417918Y486454D01*
X417854Y486532D01*
X417794Y486614D01*
X417737Y486697D01*
X417683Y486783D01*
X417632Y486871D01*
X417585Y486960D01*
X417541Y487052D01*
X417501Y487145D01*
X417464Y487239D01*
X417432Y487335D01*
X417403Y487432D01*
X417377Y487530D01*
X417356Y487629D01*
X417338Y487729D01*
X417325Y487829D01*
X417315Y487930D01*
X417309Y488031D01*
X417307Y488132D01*
X417830Y492831D02*
X417832Y492921D01*
X417838Y493010D01*
X417847Y493100D01*
X417861Y493189D01*
X417878Y493277D01*
X417899Y493364D01*
X417924Y493451D01*
X417953Y493536D01*
X417985Y493620D01*
X418020Y493702D01*
X418060Y493783D01*
X418102Y493862D01*
X418148Y493939D01*
X418198Y494014D01*
X418250Y494087D01*
X418306Y494158D01*
X418364Y494226D01*
X418426Y494291D01*
X418490Y494354D01*
X418557Y494414D01*
X418626Y494471D01*
X418698Y494525D01*
X418772Y494576D01*
X418848Y494624D01*
X418926Y494668D01*
X419006Y494709D01*
X419088Y494747D01*
X419171Y494781D01*
X419256Y494811D01*
X419342Y494838D01*
X419428Y494861D01*
X419516Y494880D01*
X419605Y494895D01*
X419694Y494907D01*
X419783Y494915D01*
X419873Y494919D01*
X419963Y494919D01*
X420053Y494915D01*
X420142Y494907D01*
X420231Y494895D01*
X420320Y494880D01*
X420408Y494861D01*
X420494Y494838D01*
X420580Y494811D01*
X420665Y494781D01*
X420748Y494747D01*
X420830Y494709D01*
X420910Y494668D01*
X420988Y494624D01*
X421064Y494576D01*
X421138Y494525D01*
X421210Y494471D01*
X421279Y494414D01*
X421346Y494354D01*
X421410Y494291D01*
X421472Y494226D01*
X421530Y494158D01*
X421586Y494087D01*
X421638Y494014D01*
X421688Y493939D01*
X421734Y493862D01*
X421776Y493783D01*
X421816Y493702D01*
X421851Y493620D01*
X421883Y493536D01*
X421912Y493451D01*
X421937Y493364D01*
X421958Y493277D01*
X421975Y493189D01*
X421989Y493100D01*
X421998Y493010D01*
X422004Y492921D01*
X422006Y492831D01*
X422004Y492741D01*
X421998Y492652D01*
X421989Y492562D01*
X421975Y492473D01*
X421958Y492385D01*
X421937Y492298D01*
X421912Y492211D01*
X421883Y492126D01*
X421851Y492042D01*
X421816Y491960D01*
X421776Y491879D01*
X421734Y491800D01*
X421688Y491723D01*
X421638Y491648D01*
X421586Y491575D01*
X421530Y491504D01*
X421472Y491436D01*
X421410Y491371D01*
X421346Y491308D01*
X421279Y491248D01*
X421210Y491191D01*
X421138Y491137D01*
X421064Y491086D01*
X420988Y491038D01*
X420910Y490994D01*
X420830Y490953D01*
X420748Y490915D01*
X420665Y490881D01*
X420580Y490851D01*
X420494Y490824D01*
X420408Y490801D01*
X420320Y490782D01*
X420231Y490767D01*
X420142Y490755D01*
X420053Y490747D01*
X419963Y490743D01*
X419873Y490743D01*
X419783Y490747D01*
X419694Y490755D01*
X419605Y490767D01*
X419516Y490782D01*
X419428Y490801D01*
X419342Y490824D01*
X419256Y490851D01*
X419171Y490881D01*
X419088Y490915D01*
X419006Y490953D01*
X418926Y490994D01*
X418848Y491038D01*
X418772Y491086D01*
X418698Y491137D01*
X418626Y491191D01*
X418557Y491248D01*
X418490Y491308D01*
X418426Y491371D01*
X418364Y491436D01*
X418306Y491504D01*
X418250Y491575D01*
X418198Y491648D01*
X418148Y491723D01*
X418102Y491800D01*
X418060Y491879D01*
X418020Y491960D01*
X417985Y492042D01*
X417953Y492126D01*
X417924Y492211D01*
X417899Y492298D01*
X417878Y492385D01*
X417861Y492473D01*
X417847Y492562D01*
X417838Y492652D01*
X417832Y492741D01*
X417830Y492831D01*
X457948Y493875D02*
X457948Y494919D01*
X463169Y494919D01*
X460558Y485521D01*
X483348Y490742D02*
X486481Y490742D01*
X486570Y490740D01*
X486658Y490734D01*
X486746Y490725D01*
X486834Y490712D01*
X486921Y490695D01*
X487007Y490675D01*
X487092Y490650D01*
X487177Y490623D01*
X487260Y490591D01*
X487341Y490557D01*
X487421Y490518D01*
X487499Y490477D01*
X487576Y490432D01*
X487650Y490384D01*
X487723Y490333D01*
X487793Y490279D01*
X487860Y490221D01*
X487926Y490161D01*
X487988Y490099D01*
X488048Y490033D01*
X488106Y489966D01*
X488160Y489896D01*
X488211Y489823D01*
X488259Y489749D01*
X488304Y489672D01*
X488345Y489594D01*
X488384Y489514D01*
X488418Y489433D01*
X488450Y489350D01*
X488477Y489265D01*
X488502Y489180D01*
X488522Y489094D01*
X488539Y489007D01*
X488552Y488919D01*
X488561Y488831D01*
X488567Y488743D01*
X488569Y488654D01*
X488569Y488132D01*
X488567Y488031D01*
X488561Y487930D01*
X488551Y487829D01*
X488538Y487729D01*
X488520Y487629D01*
X488499Y487530D01*
X488473Y487432D01*
X488444Y487335D01*
X488412Y487239D01*
X488375Y487145D01*
X488335Y487052D01*
X488291Y486960D01*
X488244Y486871D01*
X488193Y486783D01*
X488139Y486697D01*
X488082Y486614D01*
X488022Y486532D01*
X487958Y486454D01*
X487892Y486377D01*
X487822Y486304D01*
X487750Y486233D01*
X487675Y486165D01*
X487597Y486100D01*
X487517Y486038D01*
X487435Y485979D01*
X487350Y485923D01*
X487263Y485871D01*
X487175Y485822D01*
X487084Y485776D01*
X486992Y485735D01*
X486898Y485696D01*
X486803Y485662D01*
X486707Y485631D01*
X486609Y485604D01*
X486511Y485580D01*
X486411Y485561D01*
X486311Y485545D01*
X486211Y485533D01*
X486110Y485525D01*
X486009Y485521D01*
X485907Y485521D01*
X485806Y485525D01*
X485705Y485533D01*
X485605Y485545D01*
X485505Y485561D01*
X485405Y485580D01*
X485307Y485604D01*
X485209Y485631D01*
X485113Y485662D01*
X485018Y485696D01*
X484924Y485735D01*
X484832Y485776D01*
X484741Y485822D01*
X484653Y485871D01*
X484566Y485923D01*
X484481Y485979D01*
X484399Y486038D01*
X484319Y486100D01*
X484241Y486165D01*
X484166Y486233D01*
X484094Y486304D01*
X484024Y486377D01*
X483958Y486454D01*
X483894Y486532D01*
X483834Y486614D01*
X483777Y486697D01*
X483723Y486783D01*
X483672Y486871D01*
X483625Y486960D01*
X483581Y487052D01*
X483541Y487145D01*
X483504Y487239D01*
X483472Y487335D01*
X483443Y487432D01*
X483417Y487530D01*
X483396Y487629D01*
X483378Y487729D01*
X483365Y487829D01*
X483355Y487930D01*
X483349Y488031D01*
X483347Y488132D01*
X483348Y488132D02*
X483348Y490742D01*
X483350Y490871D01*
X483356Y490999D01*
X483366Y491127D01*
X483380Y491255D01*
X483397Y491383D01*
X483419Y491510D01*
X483445Y491636D01*
X483474Y491761D01*
X483507Y491885D01*
X483545Y492008D01*
X483585Y492130D01*
X483630Y492251D01*
X483678Y492370D01*
X483730Y492488D01*
X483786Y492604D01*
X483845Y492718D01*
X483908Y492830D01*
X483974Y492941D01*
X484043Y493049D01*
X484116Y493155D01*
X484192Y493259D01*
X484271Y493361D01*
X484353Y493460D01*
X484438Y493556D01*
X484526Y493650D01*
X484617Y493741D01*
X484711Y493829D01*
X484807Y493914D01*
X484906Y493996D01*
X485008Y494075D01*
X485112Y494151D01*
X485218Y494224D01*
X485326Y494293D01*
X485436Y494359D01*
X485549Y494422D01*
X485663Y494481D01*
X485779Y494537D01*
X485897Y494589D01*
X486016Y494637D01*
X486137Y494682D01*
X486259Y494722D01*
X486382Y494760D01*
X486506Y494793D01*
X486631Y494822D01*
X486757Y494848D01*
X486884Y494870D01*
X487012Y494887D01*
X487140Y494901D01*
X487268Y494911D01*
X487396Y494917D01*
X487525Y494919D01*
X508748Y485521D02*
X511881Y485521D01*
X511970Y485523D01*
X512058Y485529D01*
X512146Y485538D01*
X512234Y485551D01*
X512321Y485568D01*
X512407Y485588D01*
X512492Y485613D01*
X512577Y485640D01*
X512660Y485672D01*
X512741Y485706D01*
X512821Y485745D01*
X512899Y485786D01*
X512976Y485831D01*
X513050Y485879D01*
X513123Y485930D01*
X513193Y485984D01*
X513260Y486042D01*
X513326Y486102D01*
X513388Y486164D01*
X513448Y486230D01*
X513506Y486297D01*
X513560Y486367D01*
X513611Y486440D01*
X513659Y486514D01*
X513704Y486591D01*
X513745Y486669D01*
X513784Y486749D01*
X513818Y486830D01*
X513850Y486913D01*
X513877Y486998D01*
X513902Y487083D01*
X513922Y487169D01*
X513939Y487256D01*
X513952Y487344D01*
X513961Y487432D01*
X513967Y487520D01*
X513969Y487609D01*
X513969Y488654D01*
X513967Y488743D01*
X513961Y488831D01*
X513952Y488919D01*
X513939Y489007D01*
X513922Y489094D01*
X513902Y489180D01*
X513877Y489265D01*
X513850Y489350D01*
X513818Y489433D01*
X513784Y489514D01*
X513745Y489594D01*
X513704Y489672D01*
X513659Y489749D01*
X513611Y489823D01*
X513560Y489896D01*
X513506Y489966D01*
X513448Y490033D01*
X513388Y490099D01*
X513326Y490161D01*
X513260Y490221D01*
X513193Y490279D01*
X513123Y490333D01*
X513050Y490384D01*
X512976Y490432D01*
X512899Y490477D01*
X512821Y490518D01*
X512741Y490557D01*
X512660Y490591D01*
X512577Y490623D01*
X512492Y490650D01*
X512407Y490675D01*
X512321Y490695D01*
X512234Y490712D01*
X512146Y490725D01*
X512058Y490734D01*
X511970Y490740D01*
X511881Y490742D01*
X508748Y490742D01*
X508748Y494919D01*
X513969Y494919D01*
X534148Y487609D02*
X536236Y494919D01*
X534148Y487609D02*
X539369Y487609D01*
X537803Y489698D02*
X537803Y485521D01*
X559548Y485521D02*
X562158Y485521D01*
X562259Y485523D01*
X562360Y485529D01*
X562461Y485539D01*
X562561Y485552D01*
X562661Y485570D01*
X562760Y485591D01*
X562858Y485617D01*
X562955Y485646D01*
X563051Y485678D01*
X563145Y485715D01*
X563238Y485755D01*
X563330Y485799D01*
X563419Y485846D01*
X563507Y485897D01*
X563593Y485951D01*
X563676Y486008D01*
X563758Y486068D01*
X563836Y486132D01*
X563913Y486198D01*
X563986Y486268D01*
X564057Y486340D01*
X564125Y486415D01*
X564190Y486493D01*
X564252Y486573D01*
X564311Y486655D01*
X564367Y486740D01*
X564419Y486827D01*
X564468Y486915D01*
X564514Y487006D01*
X564555Y487098D01*
X564594Y487192D01*
X564628Y487287D01*
X564659Y487383D01*
X564686Y487481D01*
X564710Y487579D01*
X564729Y487679D01*
X564745Y487779D01*
X564757Y487879D01*
X564765Y487980D01*
X564769Y488081D01*
X564769Y488183D01*
X564765Y488284D01*
X564757Y488385D01*
X564745Y488485D01*
X564729Y488585D01*
X564710Y488685D01*
X564686Y488783D01*
X564659Y488881D01*
X564628Y488977D01*
X564594Y489072D01*
X564555Y489166D01*
X564514Y489258D01*
X564468Y489349D01*
X564419Y489437D01*
X564367Y489524D01*
X564311Y489609D01*
X564252Y489691D01*
X564190Y489771D01*
X564125Y489849D01*
X564057Y489924D01*
X563986Y489996D01*
X563913Y490066D01*
X563836Y490132D01*
X563758Y490196D01*
X563676Y490256D01*
X563593Y490313D01*
X563507Y490367D01*
X563419Y490418D01*
X563330Y490465D01*
X563238Y490509D01*
X563145Y490549D01*
X563051Y490586D01*
X562955Y490618D01*
X562858Y490647D01*
X562760Y490673D01*
X562661Y490694D01*
X562561Y490712D01*
X562461Y490725D01*
X562360Y490735D01*
X562259Y490741D01*
X562158Y490743D01*
X562681Y494919D02*
X559548Y494919D01*
X562681Y494919D02*
X562771Y494917D01*
X562860Y494911D01*
X562950Y494902D01*
X563039Y494888D01*
X563127Y494871D01*
X563214Y494850D01*
X563301Y494825D01*
X563386Y494796D01*
X563470Y494764D01*
X563552Y494729D01*
X563633Y494689D01*
X563712Y494647D01*
X563789Y494601D01*
X563864Y494551D01*
X563937Y494499D01*
X564008Y494443D01*
X564076Y494385D01*
X564141Y494323D01*
X564204Y494259D01*
X564264Y494192D01*
X564321Y494123D01*
X564375Y494051D01*
X564426Y493977D01*
X564474Y493901D01*
X564518Y493823D01*
X564559Y493743D01*
X564597Y493661D01*
X564631Y493578D01*
X564661Y493493D01*
X564688Y493407D01*
X564711Y493321D01*
X564730Y493233D01*
X564745Y493144D01*
X564757Y493055D01*
X564765Y492966D01*
X564769Y492876D01*
X564769Y492786D01*
X564765Y492696D01*
X564757Y492607D01*
X564745Y492518D01*
X564730Y492429D01*
X564711Y492341D01*
X564688Y492255D01*
X564661Y492169D01*
X564631Y492084D01*
X564597Y492001D01*
X564559Y491919D01*
X564518Y491839D01*
X564474Y491761D01*
X564426Y491685D01*
X564375Y491611D01*
X564321Y491539D01*
X564264Y491470D01*
X564204Y491403D01*
X564141Y491339D01*
X564076Y491277D01*
X564008Y491219D01*
X563937Y491163D01*
X563864Y491111D01*
X563789Y491061D01*
X563712Y491015D01*
X563633Y490973D01*
X563552Y490933D01*
X563470Y490898D01*
X563386Y490866D01*
X563301Y490837D01*
X563214Y490812D01*
X563127Y490791D01*
X563039Y490774D01*
X562950Y490760D01*
X562860Y490751D01*
X562771Y490745D01*
X562681Y490743D01*
X562681Y490742D02*
X560592Y490742D01*
X587820Y494920D02*
X587915Y494918D01*
X588009Y494912D01*
X588103Y494903D01*
X588197Y494890D01*
X588290Y494873D01*
X588382Y494852D01*
X588474Y494827D01*
X588564Y494799D01*
X588653Y494767D01*
X588741Y494732D01*
X588827Y494693D01*
X588912Y494651D01*
X588995Y494605D01*
X589076Y494556D01*
X589155Y494504D01*
X589232Y494449D01*
X589306Y494390D01*
X589378Y494329D01*
X589448Y494265D01*
X589515Y494198D01*
X589579Y494128D01*
X589640Y494056D01*
X589699Y493982D01*
X589754Y493905D01*
X589806Y493826D01*
X589855Y493745D01*
X589901Y493662D01*
X589943Y493577D01*
X589982Y493491D01*
X590017Y493403D01*
X590049Y493314D01*
X590077Y493224D01*
X590102Y493132D01*
X590123Y493040D01*
X590140Y492947D01*
X590153Y492853D01*
X590162Y492759D01*
X590168Y492665D01*
X590170Y492570D01*
X587820Y494919D02*
X587712Y494917D01*
X587603Y494911D01*
X587495Y494901D01*
X587388Y494888D01*
X587281Y494870D01*
X587174Y494849D01*
X587069Y494824D01*
X586964Y494795D01*
X586861Y494763D01*
X586759Y494726D01*
X586658Y494686D01*
X586559Y494643D01*
X586461Y494596D01*
X586365Y494545D01*
X586271Y494491D01*
X586179Y494434D01*
X586089Y494373D01*
X586001Y494309D01*
X585916Y494243D01*
X585833Y494173D01*
X585753Y494100D01*
X585675Y494024D01*
X585600Y493946D01*
X585528Y493865D01*
X585459Y493781D01*
X585393Y493695D01*
X585330Y493607D01*
X585271Y493516D01*
X585214Y493424D01*
X585161Y493329D01*
X585112Y493233D01*
X585066Y493134D01*
X585023Y493035D01*
X584984Y492933D01*
X584949Y492831D01*
X589386Y490742D02*
X589455Y490811D01*
X589521Y490882D01*
X589585Y490955D01*
X589646Y491031D01*
X589704Y491110D01*
X589758Y491190D01*
X589810Y491273D01*
X589858Y491357D01*
X589904Y491443D01*
X589945Y491531D01*
X589984Y491621D01*
X590019Y491712D01*
X590050Y491804D01*
X590078Y491897D01*
X590102Y491991D01*
X590122Y492086D01*
X590139Y492182D01*
X590152Y492279D01*
X590161Y492376D01*
X590167Y492473D01*
X590169Y492570D01*
X589386Y490742D02*
X584948Y485521D01*
X590169Y485521D01*
X610348Y492831D02*
X612958Y494919D01*
X612958Y485521D01*
X610348Y485521D02*
X615569Y485521D01*
X635748Y490220D02*
X635750Y490405D01*
X635757Y490590D01*
X635768Y490774D01*
X635783Y490958D01*
X635803Y491142D01*
X635827Y491326D01*
X635856Y491508D01*
X635889Y491690D01*
X635926Y491871D01*
X635968Y492051D01*
X636014Y492231D01*
X636064Y492409D01*
X636118Y492585D01*
X636177Y492761D01*
X636239Y492935D01*
X636306Y493107D01*
X636377Y493278D01*
X636452Y493447D01*
X636531Y493614D01*
X636530Y493614D02*
X636560Y493694D01*
X636593Y493773D01*
X636630Y493850D01*
X636670Y493926D01*
X636713Y494000D01*
X636759Y494072D01*
X636809Y494141D01*
X636861Y494209D01*
X636917Y494274D01*
X636975Y494337D01*
X637037Y494396D01*
X637100Y494454D01*
X637167Y494508D01*
X637235Y494559D01*
X637306Y494607D01*
X637379Y494652D01*
X637453Y494694D01*
X637530Y494732D01*
X637608Y494767D01*
X637687Y494799D01*
X637768Y494827D01*
X637850Y494851D01*
X637934Y494872D01*
X638017Y494889D01*
X638102Y494902D01*
X638187Y494911D01*
X638272Y494917D01*
X638358Y494919D01*
X638444Y494917D01*
X638529Y494911D01*
X638614Y494902D01*
X638699Y494889D01*
X638782Y494872D01*
X638866Y494851D01*
X638948Y494827D01*
X639029Y494799D01*
X639108Y494767D01*
X639186Y494732D01*
X639263Y494694D01*
X639337Y494652D01*
X639410Y494607D01*
X639481Y494559D01*
X639549Y494508D01*
X639616Y494454D01*
X639679Y494396D01*
X639741Y494337D01*
X639799Y494274D01*
X639855Y494209D01*
X639907Y494141D01*
X639957Y494072D01*
X640003Y494000D01*
X640046Y493926D01*
X640086Y493850D01*
X640123Y493773D01*
X640156Y493694D01*
X640186Y493614D01*
X640265Y493447D01*
X640340Y493278D01*
X640411Y493107D01*
X640478Y492935D01*
X640540Y492761D01*
X640599Y492585D01*
X640653Y492409D01*
X640703Y492231D01*
X640749Y492051D01*
X640791Y491871D01*
X640828Y491690D01*
X640861Y491508D01*
X640890Y491326D01*
X640914Y491142D01*
X640934Y490958D01*
X640949Y490774D01*
X640960Y490590D01*
X640967Y490405D01*
X640969Y490220D01*
X635748Y490220D02*
X635750Y490035D01*
X635757Y489850D01*
X635768Y489666D01*
X635783Y489482D01*
X635803Y489298D01*
X635827Y489114D01*
X635856Y488932D01*
X635889Y488750D01*
X635926Y488569D01*
X635968Y488389D01*
X636014Y488209D01*
X636064Y488031D01*
X636118Y487855D01*
X636177Y487679D01*
X636239Y487505D01*
X636306Y487333D01*
X636377Y487162D01*
X636452Y486993D01*
X636531Y486826D01*
X636530Y486826D02*
X636560Y486746D01*
X636593Y486667D01*
X636630Y486590D01*
X636670Y486514D01*
X636713Y486440D01*
X636759Y486368D01*
X636809Y486299D01*
X636862Y486231D01*
X636917Y486166D01*
X636976Y486103D01*
X637037Y486044D01*
X637100Y485986D01*
X637167Y485932D01*
X637235Y485881D01*
X637306Y485833D01*
X637379Y485788D01*
X637453Y485746D01*
X637530Y485708D01*
X637608Y485673D01*
X637687Y485641D01*
X637768Y485613D01*
X637850Y485589D01*
X637934Y485568D01*
X638017Y485551D01*
X638102Y485538D01*
X638187Y485529D01*
X638272Y485523D01*
X638358Y485521D01*
X640186Y486826D02*
X640265Y486993D01*
X640340Y487162D01*
X640411Y487333D01*
X640478Y487505D01*
X640540Y487679D01*
X640599Y487855D01*
X640653Y488031D01*
X640703Y488209D01*
X640749Y488389D01*
X640791Y488569D01*
X640828Y488750D01*
X640861Y488932D01*
X640890Y489114D01*
X640914Y489298D01*
X640934Y489482D01*
X640949Y489666D01*
X640960Y489850D01*
X640967Y490035D01*
X640969Y490220D01*
X640186Y486826D02*
X640156Y486746D01*
X640123Y486667D01*
X640086Y486590D01*
X640046Y486514D01*
X640003Y486440D01*
X639957Y486368D01*
X639907Y486299D01*
X639855Y486231D01*
X639799Y486166D01*
X639741Y486103D01*
X639679Y486044D01*
X639616Y485986D01*
X639549Y485932D01*
X639481Y485881D01*
X639410Y485833D01*
X639337Y485788D01*
X639263Y485746D01*
X639186Y485708D01*
X639108Y485673D01*
X639029Y485641D01*
X638948Y485613D01*
X638866Y485589D01*
X638782Y485568D01*
X638699Y485551D01*
X638614Y485538D01*
X638529Y485529D01*
X638444Y485523D01*
X638358Y485521D01*
X636270Y487609D02*
X640447Y492831D01*
X316611Y521081D02*
X316611Y530479D01*
X319222Y530479D01*
X319322Y530477D01*
X319422Y530471D01*
X319521Y530462D01*
X319621Y530448D01*
X319719Y530431D01*
X319817Y530410D01*
X319914Y530386D01*
X320010Y530357D01*
X320105Y530325D01*
X320198Y530290D01*
X320290Y530251D01*
X320381Y530208D01*
X320469Y530162D01*
X320556Y530112D01*
X320641Y530060D01*
X320724Y530004D01*
X320805Y529945D01*
X320883Y529882D01*
X320959Y529817D01*
X321033Y529749D01*
X321103Y529679D01*
X321171Y529605D01*
X321236Y529529D01*
X321299Y529451D01*
X321358Y529370D01*
X321414Y529287D01*
X321466Y529202D01*
X321516Y529115D01*
X321562Y529027D01*
X321605Y528936D01*
X321644Y528844D01*
X321679Y528751D01*
X321711Y528656D01*
X321740Y528560D01*
X321764Y528463D01*
X321785Y528365D01*
X321802Y528267D01*
X321816Y528167D01*
X321825Y528068D01*
X321831Y527968D01*
X321833Y527868D01*
X321832Y527868D02*
X321832Y523692D01*
X321833Y523692D02*
X321831Y523592D01*
X321825Y523492D01*
X321816Y523393D01*
X321802Y523293D01*
X321785Y523195D01*
X321764Y523097D01*
X321740Y523000D01*
X321711Y522904D01*
X321679Y522809D01*
X321644Y522716D01*
X321605Y522624D01*
X321562Y522533D01*
X321516Y522445D01*
X321466Y522358D01*
X321414Y522273D01*
X321358Y522190D01*
X321299Y522109D01*
X321236Y522031D01*
X321171Y521955D01*
X321103Y521881D01*
X321033Y521811D01*
X320959Y521743D01*
X320883Y521678D01*
X320805Y521615D01*
X320724Y521556D01*
X320641Y521500D01*
X320556Y521448D01*
X320469Y521398D01*
X320381Y521352D01*
X320290Y521309D01*
X320198Y521270D01*
X320105Y521235D01*
X320010Y521203D01*
X319914Y521174D01*
X319817Y521150D01*
X319719Y521129D01*
X319621Y521112D01*
X319521Y521098D01*
X319422Y521089D01*
X319322Y521083D01*
X319222Y521081D01*
X316611Y521081D01*
X325927Y521081D02*
X325927Y527346D01*
X325666Y529957D02*
X325666Y530479D01*
X326188Y530479D01*
X326188Y529957D01*
X325666Y529957D01*
X331151Y521081D02*
X333761Y521081D01*
X331151Y521081D02*
X331074Y521083D01*
X330998Y521089D01*
X330921Y521098D01*
X330845Y521111D01*
X330770Y521128D01*
X330696Y521148D01*
X330623Y521173D01*
X330552Y521200D01*
X330481Y521231D01*
X330413Y521266D01*
X330346Y521304D01*
X330281Y521345D01*
X330218Y521389D01*
X330158Y521436D01*
X330099Y521487D01*
X330044Y521540D01*
X329991Y521595D01*
X329940Y521654D01*
X329893Y521714D01*
X329849Y521777D01*
X329808Y521842D01*
X329770Y521909D01*
X329735Y521977D01*
X329704Y522048D01*
X329677Y522119D01*
X329652Y522192D01*
X329632Y522266D01*
X329615Y522341D01*
X329602Y522417D01*
X329593Y522494D01*
X329587Y522570D01*
X329585Y522647D01*
X329584Y522647D02*
X329584Y525780D01*
X329585Y525780D02*
X329587Y525857D01*
X329593Y525933D01*
X329602Y526010D01*
X329615Y526086D01*
X329632Y526161D01*
X329652Y526235D01*
X329677Y526308D01*
X329704Y526379D01*
X329735Y526450D01*
X329770Y526518D01*
X329808Y526585D01*
X329849Y526650D01*
X329893Y526713D01*
X329940Y526773D01*
X329991Y526832D01*
X330044Y526887D01*
X330099Y526940D01*
X330158Y526991D01*
X330218Y527038D01*
X330281Y527082D01*
X330346Y527123D01*
X330413Y527161D01*
X330481Y527196D01*
X330552Y527227D01*
X330623Y527254D01*
X330696Y527279D01*
X330770Y527299D01*
X330845Y527316D01*
X330921Y527329D01*
X330998Y527338D01*
X331074Y527344D01*
X331151Y527346D01*
X333761Y527346D01*
X333761Y519515D01*
X333759Y519438D01*
X333753Y519362D01*
X333744Y519285D01*
X333731Y519209D01*
X333714Y519134D01*
X333694Y519060D01*
X333669Y518987D01*
X333642Y518916D01*
X333611Y518845D01*
X333576Y518777D01*
X333538Y518710D01*
X333497Y518645D01*
X333453Y518582D01*
X333406Y518522D01*
X333355Y518463D01*
X333302Y518408D01*
X333247Y518355D01*
X333188Y518304D01*
X333128Y518257D01*
X333065Y518213D01*
X333000Y518172D01*
X332933Y518134D01*
X332865Y518099D01*
X332794Y518068D01*
X332723Y518041D01*
X332650Y518016D01*
X332576Y517996D01*
X332501Y517979D01*
X332425Y517966D01*
X332349Y517957D01*
X332272Y517951D01*
X332195Y517949D01*
X332195Y517948D02*
X330106Y517948D01*
X337814Y521081D02*
X337814Y527346D01*
X337553Y529957D02*
X337553Y530479D01*
X338075Y530479D01*
X338075Y529957D01*
X337553Y529957D01*
X340748Y527346D02*
X343881Y527346D01*
X341793Y530479D02*
X341793Y522647D01*
X341795Y522570D01*
X341801Y522494D01*
X341810Y522417D01*
X341823Y522341D01*
X341840Y522266D01*
X341860Y522192D01*
X341885Y522119D01*
X341912Y522048D01*
X341943Y521977D01*
X341978Y521909D01*
X342016Y521842D01*
X342057Y521777D01*
X342101Y521714D01*
X342148Y521654D01*
X342199Y521595D01*
X342252Y521540D01*
X342307Y521487D01*
X342366Y521436D01*
X342426Y521389D01*
X342489Y521345D01*
X342554Y521304D01*
X342621Y521266D01*
X342689Y521231D01*
X342760Y521200D01*
X342831Y521173D01*
X342904Y521148D01*
X342978Y521128D01*
X343053Y521111D01*
X343129Y521098D01*
X343206Y521089D01*
X343282Y521083D01*
X343359Y521081D01*
X343881Y521081D01*
X349090Y524736D02*
X351439Y524736D01*
X349090Y524735D02*
X349006Y524733D01*
X348921Y524727D01*
X348838Y524717D01*
X348754Y524704D01*
X348672Y524686D01*
X348590Y524665D01*
X348509Y524640D01*
X348430Y524612D01*
X348352Y524579D01*
X348276Y524543D01*
X348201Y524504D01*
X348128Y524461D01*
X348057Y524415D01*
X347989Y524366D01*
X347923Y524314D01*
X347859Y524258D01*
X347798Y524200D01*
X347740Y524139D01*
X347684Y524075D01*
X347632Y524009D01*
X347583Y523941D01*
X347537Y523870D01*
X347494Y523797D01*
X347455Y523722D01*
X347419Y523646D01*
X347386Y523568D01*
X347358Y523489D01*
X347333Y523408D01*
X347312Y523326D01*
X347294Y523244D01*
X347281Y523160D01*
X347271Y523077D01*
X347265Y522992D01*
X347263Y522908D01*
X347265Y522824D01*
X347271Y522739D01*
X347281Y522656D01*
X347294Y522572D01*
X347312Y522490D01*
X347333Y522408D01*
X347358Y522327D01*
X347386Y522248D01*
X347419Y522170D01*
X347455Y522094D01*
X347494Y522019D01*
X347537Y521946D01*
X347583Y521875D01*
X347632Y521807D01*
X347684Y521741D01*
X347740Y521677D01*
X347798Y521616D01*
X347859Y521558D01*
X347923Y521502D01*
X347989Y521450D01*
X348057Y521401D01*
X348128Y521355D01*
X348201Y521312D01*
X348276Y521273D01*
X348352Y521237D01*
X348430Y521204D01*
X348509Y521176D01*
X348590Y521151D01*
X348672Y521130D01*
X348754Y521112D01*
X348838Y521099D01*
X348921Y521089D01*
X349006Y521083D01*
X349090Y521081D01*
X351439Y521081D01*
X351439Y525780D01*
X351437Y525857D01*
X351431Y525933D01*
X351422Y526010D01*
X351409Y526086D01*
X351392Y526161D01*
X351372Y526235D01*
X351347Y526308D01*
X351320Y526379D01*
X351289Y526450D01*
X351254Y526518D01*
X351216Y526585D01*
X351175Y526650D01*
X351131Y526713D01*
X351084Y526773D01*
X351033Y526832D01*
X350980Y526887D01*
X350925Y526940D01*
X350866Y526991D01*
X350806Y527038D01*
X350743Y527082D01*
X350678Y527123D01*
X350611Y527161D01*
X350543Y527196D01*
X350472Y527227D01*
X350401Y527254D01*
X350328Y527279D01*
X350254Y527299D01*
X350179Y527316D01*
X350103Y527329D01*
X350026Y527338D01*
X349950Y527344D01*
X349873Y527346D01*
X347785Y527346D01*
X355663Y530479D02*
X355663Y522647D01*
X355665Y522570D01*
X355671Y522494D01*
X355680Y522417D01*
X355693Y522341D01*
X355710Y522266D01*
X355730Y522192D01*
X355755Y522119D01*
X355782Y522048D01*
X355813Y521977D01*
X355848Y521909D01*
X355886Y521842D01*
X355927Y521777D01*
X355971Y521714D01*
X356018Y521654D01*
X356069Y521595D01*
X356122Y521540D01*
X356177Y521487D01*
X356236Y521436D01*
X356296Y521389D01*
X356359Y521345D01*
X356424Y521304D01*
X356491Y521266D01*
X356559Y521231D01*
X356630Y521200D01*
X356701Y521173D01*
X356774Y521148D01*
X356848Y521128D01*
X356923Y521111D01*
X356999Y521098D01*
X357076Y521089D01*
X357152Y521083D01*
X357229Y521081D01*
X366160Y521081D02*
X366160Y530479D01*
X365116Y521081D02*
X367205Y521081D01*
X367205Y530479D02*
X365116Y530479D01*
X374650Y531523D02*
X370473Y520037D01*
X378180Y523692D02*
X378180Y527868D01*
X378182Y527969D01*
X378188Y528070D01*
X378198Y528171D01*
X378211Y528271D01*
X378229Y528371D01*
X378250Y528470D01*
X378276Y528568D01*
X378305Y528665D01*
X378337Y528761D01*
X378374Y528855D01*
X378414Y528948D01*
X378458Y529040D01*
X378505Y529129D01*
X378556Y529217D01*
X378610Y529303D01*
X378667Y529386D01*
X378727Y529468D01*
X378791Y529546D01*
X378857Y529623D01*
X378927Y529696D01*
X378999Y529767D01*
X379074Y529835D01*
X379152Y529900D01*
X379232Y529962D01*
X379314Y530021D01*
X379399Y530077D01*
X379486Y530129D01*
X379574Y530178D01*
X379665Y530224D01*
X379757Y530265D01*
X379851Y530304D01*
X379946Y530338D01*
X380042Y530369D01*
X380140Y530396D01*
X380238Y530420D01*
X380338Y530439D01*
X380438Y530455D01*
X380538Y530467D01*
X380639Y530475D01*
X380740Y530479D01*
X380842Y530479D01*
X380943Y530475D01*
X381044Y530467D01*
X381144Y530455D01*
X381244Y530439D01*
X381344Y530420D01*
X381442Y530396D01*
X381540Y530369D01*
X381636Y530338D01*
X381731Y530304D01*
X381825Y530265D01*
X381917Y530224D01*
X382008Y530178D01*
X382097Y530129D01*
X382183Y530077D01*
X382268Y530021D01*
X382350Y529962D01*
X382430Y529900D01*
X382508Y529835D01*
X382583Y529767D01*
X382655Y529696D01*
X382725Y529623D01*
X382791Y529546D01*
X382855Y529468D01*
X382915Y529386D01*
X382972Y529303D01*
X383026Y529217D01*
X383077Y529129D01*
X383124Y529040D01*
X383168Y528948D01*
X383208Y528855D01*
X383245Y528761D01*
X383277Y528665D01*
X383306Y528568D01*
X383332Y528470D01*
X383353Y528371D01*
X383371Y528271D01*
X383384Y528171D01*
X383394Y528070D01*
X383400Y527969D01*
X383402Y527868D01*
X383401Y527868D02*
X383401Y523692D01*
X383402Y523692D02*
X383400Y523591D01*
X383394Y523490D01*
X383384Y523389D01*
X383371Y523289D01*
X383353Y523189D01*
X383332Y523090D01*
X383306Y522992D01*
X383277Y522895D01*
X383245Y522799D01*
X383208Y522705D01*
X383168Y522612D01*
X383124Y522520D01*
X383077Y522431D01*
X383026Y522343D01*
X382972Y522257D01*
X382915Y522174D01*
X382855Y522092D01*
X382791Y522014D01*
X382725Y521937D01*
X382655Y521864D01*
X382583Y521793D01*
X382508Y521725D01*
X382430Y521660D01*
X382350Y521598D01*
X382268Y521539D01*
X382183Y521483D01*
X382096Y521431D01*
X382008Y521382D01*
X381917Y521336D01*
X381825Y521295D01*
X381731Y521256D01*
X381636Y521222D01*
X381540Y521191D01*
X381442Y521164D01*
X381344Y521140D01*
X381244Y521121D01*
X381144Y521105D01*
X381044Y521093D01*
X380943Y521085D01*
X380842Y521081D01*
X380740Y521081D01*
X380639Y521085D01*
X380538Y521093D01*
X380438Y521105D01*
X380338Y521121D01*
X380238Y521140D01*
X380140Y521164D01*
X380042Y521191D01*
X379946Y521222D01*
X379851Y521256D01*
X379757Y521295D01*
X379665Y521336D01*
X379574Y521382D01*
X379486Y521431D01*
X379399Y521483D01*
X379314Y521539D01*
X379232Y521598D01*
X379152Y521660D01*
X379074Y521725D01*
X378999Y521793D01*
X378927Y521864D01*
X378857Y521937D01*
X378791Y522014D01*
X378727Y522092D01*
X378667Y522174D01*
X378610Y522257D01*
X378556Y522343D01*
X378505Y522431D01*
X378458Y522520D01*
X378414Y522612D01*
X378374Y522705D01*
X378337Y522799D01*
X378305Y522895D01*
X378276Y522992D01*
X378250Y523090D01*
X378229Y523189D01*
X378211Y523289D01*
X378198Y523389D01*
X378188Y523490D01*
X378182Y523591D01*
X378180Y523692D01*
X509651Y521081D02*
X509651Y530479D01*
X512262Y530479D01*
X512362Y530477D01*
X512462Y530471D01*
X512561Y530462D01*
X512661Y530448D01*
X512759Y530431D01*
X512857Y530410D01*
X512954Y530386D01*
X513050Y530357D01*
X513145Y530325D01*
X513238Y530290D01*
X513330Y530251D01*
X513421Y530208D01*
X513509Y530162D01*
X513596Y530112D01*
X513681Y530060D01*
X513764Y530004D01*
X513845Y529945D01*
X513923Y529882D01*
X513999Y529817D01*
X514073Y529749D01*
X514143Y529679D01*
X514211Y529605D01*
X514276Y529529D01*
X514339Y529451D01*
X514398Y529370D01*
X514454Y529287D01*
X514506Y529202D01*
X514556Y529115D01*
X514602Y529027D01*
X514645Y528936D01*
X514684Y528844D01*
X514719Y528751D01*
X514751Y528656D01*
X514780Y528560D01*
X514804Y528463D01*
X514825Y528365D01*
X514842Y528267D01*
X514856Y528167D01*
X514865Y528068D01*
X514871Y527968D01*
X514873Y527868D01*
X514872Y527868D02*
X514872Y523692D01*
X514873Y523692D02*
X514871Y523592D01*
X514865Y523492D01*
X514856Y523393D01*
X514842Y523293D01*
X514825Y523195D01*
X514804Y523097D01*
X514780Y523000D01*
X514751Y522904D01*
X514719Y522809D01*
X514684Y522716D01*
X514645Y522624D01*
X514602Y522533D01*
X514556Y522445D01*
X514506Y522358D01*
X514454Y522273D01*
X514398Y522190D01*
X514339Y522109D01*
X514276Y522031D01*
X514211Y521955D01*
X514143Y521881D01*
X514073Y521811D01*
X513999Y521743D01*
X513923Y521678D01*
X513845Y521615D01*
X513764Y521556D01*
X513681Y521500D01*
X513596Y521448D01*
X513509Y521398D01*
X513421Y521352D01*
X513330Y521309D01*
X513238Y521270D01*
X513145Y521235D01*
X513050Y521203D01*
X512954Y521174D01*
X512857Y521150D01*
X512759Y521129D01*
X512661Y521112D01*
X512561Y521098D01*
X512462Y521089D01*
X512362Y521083D01*
X512262Y521081D01*
X509651Y521081D01*
X518967Y521081D02*
X518967Y527346D01*
X518706Y529957D02*
X518706Y530479D01*
X519228Y530479D01*
X519228Y529957D01*
X518706Y529957D01*
X524191Y521081D02*
X526801Y521081D01*
X524191Y521081D02*
X524114Y521083D01*
X524038Y521089D01*
X523961Y521098D01*
X523885Y521111D01*
X523810Y521128D01*
X523736Y521148D01*
X523663Y521173D01*
X523592Y521200D01*
X523521Y521231D01*
X523453Y521266D01*
X523386Y521304D01*
X523321Y521345D01*
X523258Y521389D01*
X523198Y521436D01*
X523139Y521487D01*
X523084Y521540D01*
X523031Y521595D01*
X522980Y521654D01*
X522933Y521714D01*
X522889Y521777D01*
X522848Y521842D01*
X522810Y521909D01*
X522775Y521977D01*
X522744Y522048D01*
X522717Y522119D01*
X522692Y522192D01*
X522672Y522266D01*
X522655Y522341D01*
X522642Y522417D01*
X522633Y522494D01*
X522627Y522570D01*
X522625Y522647D01*
X522624Y522647D02*
X522624Y525780D01*
X522625Y525780D02*
X522627Y525857D01*
X522633Y525933D01*
X522642Y526010D01*
X522655Y526086D01*
X522672Y526161D01*
X522692Y526235D01*
X522717Y526308D01*
X522744Y526379D01*
X522775Y526450D01*
X522810Y526518D01*
X522848Y526585D01*
X522889Y526650D01*
X522933Y526713D01*
X522980Y526773D01*
X523031Y526832D01*
X523084Y526887D01*
X523139Y526940D01*
X523198Y526991D01*
X523258Y527038D01*
X523321Y527082D01*
X523386Y527123D01*
X523453Y527161D01*
X523521Y527196D01*
X523592Y527227D01*
X523663Y527254D01*
X523736Y527279D01*
X523810Y527299D01*
X523885Y527316D01*
X523961Y527329D01*
X524038Y527338D01*
X524114Y527344D01*
X524191Y527346D01*
X526801Y527346D01*
X526801Y519515D01*
X526799Y519438D01*
X526793Y519362D01*
X526784Y519285D01*
X526771Y519209D01*
X526754Y519134D01*
X526734Y519060D01*
X526709Y518987D01*
X526682Y518916D01*
X526651Y518845D01*
X526616Y518777D01*
X526578Y518710D01*
X526537Y518645D01*
X526493Y518582D01*
X526446Y518522D01*
X526395Y518463D01*
X526342Y518408D01*
X526287Y518355D01*
X526228Y518304D01*
X526168Y518257D01*
X526105Y518213D01*
X526040Y518172D01*
X525973Y518134D01*
X525905Y518099D01*
X525834Y518068D01*
X525763Y518041D01*
X525690Y518016D01*
X525616Y517996D01*
X525541Y517979D01*
X525465Y517966D01*
X525389Y517957D01*
X525312Y517951D01*
X525235Y517949D01*
X525235Y517948D02*
X523146Y517948D01*
X530854Y521081D02*
X530854Y527346D01*
X530593Y529957D02*
X530593Y530479D01*
X531115Y530479D01*
X531115Y529957D01*
X530593Y529957D01*
X533788Y527346D02*
X536921Y527346D01*
X534833Y530479D02*
X534833Y522647D01*
X534835Y522570D01*
X534841Y522494D01*
X534850Y522417D01*
X534863Y522341D01*
X534880Y522266D01*
X534900Y522192D01*
X534925Y522119D01*
X534952Y522048D01*
X534983Y521977D01*
X535018Y521909D01*
X535056Y521842D01*
X535097Y521777D01*
X535141Y521714D01*
X535188Y521654D01*
X535239Y521595D01*
X535292Y521540D01*
X535347Y521487D01*
X535406Y521436D01*
X535466Y521389D01*
X535529Y521345D01*
X535594Y521304D01*
X535661Y521266D01*
X535729Y521231D01*
X535800Y521200D01*
X535871Y521173D01*
X535944Y521148D01*
X536018Y521128D01*
X536093Y521111D01*
X536169Y521098D01*
X536246Y521089D01*
X536322Y521083D01*
X536399Y521081D01*
X536921Y521081D01*
X542130Y524736D02*
X544479Y524736D01*
X542130Y524735D02*
X542046Y524733D01*
X541961Y524727D01*
X541878Y524717D01*
X541794Y524704D01*
X541712Y524686D01*
X541630Y524665D01*
X541549Y524640D01*
X541470Y524612D01*
X541392Y524579D01*
X541316Y524543D01*
X541241Y524504D01*
X541168Y524461D01*
X541097Y524415D01*
X541029Y524366D01*
X540963Y524314D01*
X540899Y524258D01*
X540838Y524200D01*
X540780Y524139D01*
X540724Y524075D01*
X540672Y524009D01*
X540623Y523941D01*
X540577Y523870D01*
X540534Y523797D01*
X540495Y523722D01*
X540459Y523646D01*
X540426Y523568D01*
X540398Y523489D01*
X540373Y523408D01*
X540352Y523326D01*
X540334Y523244D01*
X540321Y523160D01*
X540311Y523077D01*
X540305Y522992D01*
X540303Y522908D01*
X540305Y522824D01*
X540311Y522739D01*
X540321Y522656D01*
X540334Y522572D01*
X540352Y522490D01*
X540373Y522408D01*
X540398Y522327D01*
X540426Y522248D01*
X540459Y522170D01*
X540495Y522094D01*
X540534Y522019D01*
X540577Y521946D01*
X540623Y521875D01*
X540672Y521807D01*
X540724Y521741D01*
X540780Y521677D01*
X540838Y521616D01*
X540899Y521558D01*
X540963Y521502D01*
X541029Y521450D01*
X541097Y521401D01*
X541168Y521355D01*
X541241Y521312D01*
X541316Y521273D01*
X541392Y521237D01*
X541470Y521204D01*
X541549Y521176D01*
X541630Y521151D01*
X541712Y521130D01*
X541794Y521112D01*
X541878Y521099D01*
X541961Y521089D01*
X542046Y521083D01*
X542130Y521081D01*
X544479Y521081D01*
X544479Y525780D01*
X544477Y525857D01*
X544471Y525933D01*
X544462Y526010D01*
X544449Y526086D01*
X544432Y526161D01*
X544412Y526235D01*
X544387Y526308D01*
X544360Y526379D01*
X544329Y526450D01*
X544294Y526518D01*
X544256Y526585D01*
X544215Y526650D01*
X544171Y526713D01*
X544124Y526773D01*
X544073Y526832D01*
X544020Y526887D01*
X543965Y526940D01*
X543906Y526991D01*
X543846Y527038D01*
X543783Y527082D01*
X543718Y527123D01*
X543651Y527161D01*
X543583Y527196D01*
X543512Y527227D01*
X543441Y527254D01*
X543368Y527279D01*
X543294Y527299D01*
X543219Y527316D01*
X543143Y527329D01*
X543066Y527338D01*
X542990Y527344D01*
X542913Y527346D01*
X540825Y527346D01*
X548703Y530479D02*
X548703Y522647D01*
X548705Y522570D01*
X548711Y522494D01*
X548720Y522417D01*
X548733Y522341D01*
X548750Y522266D01*
X548770Y522192D01*
X548795Y522119D01*
X548822Y522048D01*
X548853Y521977D01*
X548888Y521909D01*
X548926Y521842D01*
X548967Y521777D01*
X549011Y521714D01*
X549058Y521654D01*
X549109Y521595D01*
X549162Y521540D01*
X549217Y521487D01*
X549276Y521436D01*
X549336Y521389D01*
X549399Y521345D01*
X549464Y521304D01*
X549531Y521266D01*
X549599Y521231D01*
X549670Y521200D01*
X549741Y521173D01*
X549814Y521148D01*
X549888Y521128D01*
X549963Y521111D01*
X550039Y521098D01*
X550116Y521089D01*
X550192Y521083D01*
X550269Y521081D01*
X559200Y521081D02*
X559200Y530479D01*
X558156Y521081D02*
X560245Y521081D01*
X560245Y530479D02*
X558156Y530479D01*
X567690Y531523D02*
X563513Y520037D01*
X571220Y523692D02*
X571220Y527868D01*
X571222Y527969D01*
X571228Y528070D01*
X571238Y528171D01*
X571251Y528271D01*
X571269Y528371D01*
X571290Y528470D01*
X571316Y528568D01*
X571345Y528665D01*
X571377Y528761D01*
X571414Y528855D01*
X571454Y528948D01*
X571498Y529040D01*
X571545Y529129D01*
X571596Y529217D01*
X571650Y529303D01*
X571707Y529386D01*
X571767Y529468D01*
X571831Y529546D01*
X571897Y529623D01*
X571967Y529696D01*
X572039Y529767D01*
X572114Y529835D01*
X572192Y529900D01*
X572272Y529962D01*
X572354Y530021D01*
X572439Y530077D01*
X572526Y530129D01*
X572614Y530178D01*
X572705Y530224D01*
X572797Y530265D01*
X572891Y530304D01*
X572986Y530338D01*
X573082Y530369D01*
X573180Y530396D01*
X573278Y530420D01*
X573378Y530439D01*
X573478Y530455D01*
X573578Y530467D01*
X573679Y530475D01*
X573780Y530479D01*
X573882Y530479D01*
X573983Y530475D01*
X574084Y530467D01*
X574184Y530455D01*
X574284Y530439D01*
X574384Y530420D01*
X574482Y530396D01*
X574580Y530369D01*
X574676Y530338D01*
X574771Y530304D01*
X574865Y530265D01*
X574957Y530224D01*
X575048Y530178D01*
X575137Y530129D01*
X575223Y530077D01*
X575308Y530021D01*
X575390Y529962D01*
X575470Y529900D01*
X575548Y529835D01*
X575623Y529767D01*
X575695Y529696D01*
X575765Y529623D01*
X575831Y529546D01*
X575895Y529468D01*
X575955Y529386D01*
X576012Y529303D01*
X576066Y529217D01*
X576117Y529129D01*
X576164Y529040D01*
X576208Y528948D01*
X576248Y528855D01*
X576285Y528761D01*
X576317Y528665D01*
X576346Y528568D01*
X576372Y528470D01*
X576393Y528371D01*
X576411Y528271D01*
X576424Y528171D01*
X576434Y528070D01*
X576440Y527969D01*
X576442Y527868D01*
X576441Y527868D02*
X576441Y523692D01*
X576442Y523692D02*
X576440Y523591D01*
X576434Y523490D01*
X576424Y523389D01*
X576411Y523289D01*
X576393Y523189D01*
X576372Y523090D01*
X576346Y522992D01*
X576317Y522895D01*
X576285Y522799D01*
X576248Y522705D01*
X576208Y522612D01*
X576164Y522520D01*
X576117Y522431D01*
X576066Y522343D01*
X576012Y522257D01*
X575955Y522174D01*
X575895Y522092D01*
X575831Y522014D01*
X575765Y521937D01*
X575695Y521864D01*
X575623Y521793D01*
X575548Y521725D01*
X575470Y521660D01*
X575390Y521598D01*
X575308Y521539D01*
X575223Y521483D01*
X575137Y521431D01*
X575048Y521382D01*
X574957Y521336D01*
X574865Y521295D01*
X574771Y521256D01*
X574676Y521222D01*
X574580Y521191D01*
X574482Y521164D01*
X574384Y521140D01*
X574284Y521121D01*
X574184Y521105D01*
X574084Y521093D01*
X573983Y521085D01*
X573882Y521081D01*
X573780Y521081D01*
X573679Y521085D01*
X573578Y521093D01*
X573478Y521105D01*
X573378Y521121D01*
X573278Y521140D01*
X573180Y521164D01*
X573082Y521191D01*
X572986Y521222D01*
X572891Y521256D01*
X572797Y521295D01*
X572705Y521336D01*
X572614Y521382D01*
X572526Y521431D01*
X572439Y521483D01*
X572354Y521539D01*
X572272Y521598D01*
X572192Y521660D01*
X572114Y521725D01*
X572039Y521793D01*
X571967Y521864D01*
X571897Y521937D01*
X571831Y522014D01*
X571767Y522092D01*
X571707Y522174D01*
X571650Y522257D01*
X571596Y522343D01*
X571545Y522431D01*
X571498Y522520D01*
X571454Y522612D01*
X571414Y522705D01*
X571377Y522799D01*
X571345Y522895D01*
X571316Y522992D01*
X571290Y523090D01*
X571269Y523189D01*
X571251Y523289D01*
X571238Y523389D01*
X571228Y523490D01*
X571222Y523591D01*
X571220Y523692D01*
D11*
X632460Y406400D02*
X429260Y406400D01*
X632460Y406400D02*
X632460Y127000D01*
X429260Y127000D01*
X429260Y406400D01*
D12*
X163830Y462280D02*
X125730Y462280D01*
X125730Y386080D01*
X125730Y360680D01*
X163830Y360680D01*
X163830Y386080D01*
X163830Y462280D01*
X163830Y386080D02*
X125730Y386080D01*
D13*
X147202Y353441D02*
X147202Y346922D01*
X147200Y346838D01*
X147194Y346755D01*
X147185Y346672D01*
X147172Y346589D01*
X147155Y346507D01*
X147135Y346426D01*
X147111Y346346D01*
X147083Y346267D01*
X147052Y346190D01*
X147018Y346114D01*
X146980Y346039D01*
X146938Y345966D01*
X146894Y345896D01*
X146846Y345827D01*
X146796Y345760D01*
X146742Y345696D01*
X146686Y345635D01*
X146626Y345575D01*
X146565Y345519D01*
X146501Y345465D01*
X146434Y345415D01*
X146365Y345367D01*
X146295Y345323D01*
X146222Y345281D01*
X146147Y345243D01*
X146071Y345209D01*
X145994Y345178D01*
X145915Y345150D01*
X145835Y345126D01*
X145754Y345106D01*
X145672Y345089D01*
X145589Y345076D01*
X145506Y345066D01*
X145423Y345061D01*
X145339Y345059D01*
X144408Y345059D01*
X151934Y351578D02*
X154263Y353441D01*
X154263Y345059D01*
X156591Y345059D02*
X151934Y345059D01*
D12*
X62230Y274320D02*
X24130Y274320D01*
X24130Y198120D01*
X24130Y172720D01*
X62230Y172720D01*
X62230Y198120D01*
X62230Y274320D01*
X62230Y198120D02*
X24130Y198120D01*
D13*
X48777Y165481D02*
X48777Y158962D01*
X48775Y158878D01*
X48769Y158795D01*
X48760Y158712D01*
X48747Y158629D01*
X48730Y158547D01*
X48710Y158466D01*
X48686Y158386D01*
X48658Y158307D01*
X48627Y158230D01*
X48593Y158154D01*
X48555Y158079D01*
X48513Y158006D01*
X48469Y157936D01*
X48421Y157867D01*
X48371Y157800D01*
X48317Y157736D01*
X48261Y157675D01*
X48201Y157615D01*
X48140Y157559D01*
X48076Y157505D01*
X48009Y157455D01*
X47940Y157407D01*
X47870Y157363D01*
X47797Y157321D01*
X47722Y157283D01*
X47646Y157249D01*
X47569Y157218D01*
X47490Y157190D01*
X47410Y157166D01*
X47329Y157146D01*
X47247Y157129D01*
X47164Y157116D01*
X47081Y157106D01*
X46998Y157101D01*
X46914Y157099D01*
X45983Y157099D01*
X56071Y165482D02*
X56160Y165480D01*
X56249Y165474D01*
X56337Y165465D01*
X56425Y165452D01*
X56513Y165435D01*
X56599Y165414D01*
X56685Y165390D01*
X56769Y165362D01*
X56853Y165331D01*
X56934Y165296D01*
X57015Y165258D01*
X57093Y165216D01*
X57170Y165171D01*
X57245Y165123D01*
X57317Y165071D01*
X57388Y165017D01*
X57456Y164959D01*
X57521Y164899D01*
X57584Y164836D01*
X57644Y164771D01*
X57702Y164703D01*
X57756Y164632D01*
X57808Y164560D01*
X57856Y164485D01*
X57901Y164408D01*
X57943Y164330D01*
X57981Y164249D01*
X58016Y164168D01*
X58047Y164084D01*
X58075Y164000D01*
X58099Y163914D01*
X58120Y163828D01*
X58137Y163740D01*
X58150Y163652D01*
X58159Y163564D01*
X58165Y163475D01*
X58167Y163386D01*
X56071Y165481D02*
X55968Y165479D01*
X55866Y165473D01*
X55764Y165463D01*
X55662Y165450D01*
X55561Y165432D01*
X55461Y165411D01*
X55361Y165386D01*
X55263Y165357D01*
X55166Y165324D01*
X55070Y165288D01*
X54975Y165248D01*
X54882Y165204D01*
X54791Y165157D01*
X54702Y165107D01*
X54615Y165053D01*
X54529Y164996D01*
X54446Y164936D01*
X54366Y164872D01*
X54288Y164806D01*
X54212Y164736D01*
X54139Y164664D01*
X54069Y164589D01*
X54002Y164511D01*
X53938Y164431D01*
X53877Y164349D01*
X53819Y164264D01*
X53765Y164177D01*
X53713Y164088D01*
X53666Y163998D01*
X53621Y163905D01*
X53581Y163811D01*
X53543Y163715D01*
X53510Y163618D01*
X57467Y161756D02*
X57532Y161820D01*
X57594Y161887D01*
X57654Y161956D01*
X57710Y162028D01*
X57763Y162101D01*
X57814Y162177D01*
X57861Y162255D01*
X57905Y162335D01*
X57946Y162416D01*
X57984Y162499D01*
X58018Y162584D01*
X58049Y162670D01*
X58076Y162757D01*
X58100Y162845D01*
X58120Y162933D01*
X58137Y163023D01*
X58149Y163113D01*
X58159Y163204D01*
X58164Y163295D01*
X58166Y163386D01*
X57468Y161756D02*
X53509Y157099D01*
X58166Y157099D01*
D14*
X196850Y45720D02*
X234950Y45720D01*
D15*
X235737Y44882D02*
X234365Y46711D01*
X234366Y46711D02*
X234957Y47170D01*
X235537Y47643D01*
X236105Y48130D01*
X236661Y48631D01*
X237204Y49145D01*
X237735Y49672D01*
X238253Y50212D01*
X238758Y50765D01*
X239248Y51330D01*
X239725Y51907D01*
X240188Y52495D01*
X240636Y53094D01*
X241069Y53705D01*
X241488Y54325D01*
X241890Y54956D01*
X242278Y55596D01*
X242650Y56245D01*
X243005Y56904D01*
X243345Y57571D01*
X243668Y58246D01*
X243974Y58929D01*
X244264Y59619D01*
X244537Y60315D01*
X244792Y61019D01*
X245030Y61728D01*
X245251Y62443D01*
X245455Y63163D01*
X245640Y63888D01*
X245808Y64617D01*
X245958Y65351D01*
X246090Y66087D01*
X246204Y66827D01*
X246300Y67569D01*
X246378Y68313D01*
X246438Y69059D01*
X246479Y69806D01*
X246502Y70554D01*
X246506Y71303D01*
X246493Y72051D01*
X246461Y72799D01*
X246411Y73545D01*
X246342Y74290D01*
X246256Y75034D01*
X246151Y75775D01*
X246028Y76513D01*
X245887Y77248D01*
X245729Y77979D01*
X245552Y78706D01*
X245358Y79429D01*
X245146Y80147D01*
X244916Y80859D01*
X244669Y81565D01*
X244405Y82266D01*
X244124Y82959D01*
X243827Y83646D01*
X243512Y84325D01*
X243181Y84996D01*
X242834Y85659D01*
X242470Y86313D01*
X242091Y86958D01*
X241696Y87593D01*
X241285Y88219D01*
X240860Y88835D01*
X240419Y89440D01*
X239964Y90034D01*
X239494Y90616D01*
X239010Y91187D01*
X238513Y91746D01*
X238002Y92293D01*
X237478Y92827D01*
X236941Y93348D01*
X236391Y93856D01*
X235829Y94350D01*
X235255Y94830D01*
X234670Y95296D01*
X234073Y95748D01*
X233465Y96185D01*
X232847Y96607D01*
X232219Y97014D01*
X231581Y97405D01*
X230934Y97780D01*
X230278Y98140D01*
X229613Y98483D01*
X228940Y98810D01*
X228259Y99121D01*
X227571Y99415D01*
X226875Y99691D01*
X226174Y99951D01*
X225466Y100194D01*
X224752Y100419D01*
X224033Y100627D01*
X223309Y100817D01*
X222581Y100989D01*
X221849Y101143D01*
X221113Y101280D01*
X220374Y101398D01*
X219632Y101499D01*
X218889Y101581D01*
X218143Y101645D01*
X217396Y101690D01*
X216648Y101718D01*
X215900Y101727D01*
X215152Y101718D01*
X214404Y101690D01*
X213657Y101645D01*
X212911Y101581D01*
X212168Y101499D01*
X211426Y101398D01*
X210687Y101280D01*
X209951Y101143D01*
X209219Y100989D01*
X208491Y100817D01*
X207767Y100627D01*
X207048Y100419D01*
X206334Y100194D01*
X205626Y99951D01*
X204925Y99691D01*
X204229Y99415D01*
X203541Y99121D01*
X202860Y98810D01*
X202187Y98483D01*
X201522Y98140D01*
X200866Y97780D01*
X200219Y97405D01*
X199581Y97014D01*
X198953Y96607D01*
X198335Y96185D01*
X197727Y95748D01*
X197130Y95296D01*
X196545Y94830D01*
X195971Y94350D01*
X195409Y93856D01*
X194859Y93348D01*
X194322Y92827D01*
X193798Y92293D01*
X193287Y91746D01*
X192790Y91187D01*
X192306Y90616D01*
X191836Y90034D01*
X191381Y89440D01*
X190940Y88835D01*
X190515Y88219D01*
X190104Y87593D01*
X189709Y86958D01*
X189330Y86313D01*
X188966Y85659D01*
X188619Y84996D01*
X188288Y84325D01*
X187973Y83646D01*
X187676Y82959D01*
X187395Y82266D01*
X187131Y81565D01*
X186884Y80859D01*
X186654Y80147D01*
X186442Y79429D01*
X186248Y78706D01*
X186071Y77979D01*
X185913Y77248D01*
X185772Y76513D01*
X185649Y75775D01*
X185544Y75034D01*
X185458Y74290D01*
X185389Y73545D01*
X185339Y72799D01*
X185307Y72051D01*
X185294Y71303D01*
X185298Y70554D01*
X185321Y69806D01*
X185362Y69059D01*
X185422Y68313D01*
X185500Y67569D01*
X185596Y66827D01*
X185710Y66087D01*
X185842Y65351D01*
X185992Y64617D01*
X186160Y63888D01*
X186345Y63163D01*
X186549Y62443D01*
X186770Y61728D01*
X187008Y61019D01*
X187263Y60315D01*
X187536Y59619D01*
X187826Y58929D01*
X188132Y58246D01*
X188455Y57571D01*
X188795Y56904D01*
X189150Y56245D01*
X189522Y55596D01*
X189910Y54956D01*
X190312Y54325D01*
X190731Y53705D01*
X191164Y53094D01*
X191612Y52495D01*
X192075Y51907D01*
X192552Y51330D01*
X193042Y50765D01*
X193547Y50212D01*
X194065Y49672D01*
X194596Y49145D01*
X195139Y48631D01*
X195695Y48130D01*
X196263Y47643D01*
X196843Y47170D01*
X197434Y46711D01*
X196063Y44882D01*
X195427Y45375D01*
X194804Y45883D01*
X194193Y46407D01*
X193595Y46945D01*
X193011Y47497D01*
X192440Y48064D01*
X191883Y48644D01*
X191341Y49238D01*
X190813Y49845D01*
X190301Y50465D01*
X189803Y51097D01*
X189321Y51741D01*
X188856Y52397D01*
X188406Y53064D01*
X187973Y53742D01*
X187556Y54430D01*
X187156Y55128D01*
X186774Y55835D01*
X186409Y56552D01*
X186062Y57277D01*
X185732Y58011D01*
X185421Y58753D01*
X185127Y59502D01*
X184852Y60257D01*
X184596Y61020D01*
X184358Y61788D01*
X184140Y62562D01*
X183940Y63341D01*
X183759Y64125D01*
X183598Y64913D01*
X183456Y65705D01*
X183333Y66500D01*
X183230Y67297D01*
X183146Y68097D01*
X183082Y68899D01*
X183038Y69702D01*
X183013Y70506D01*
X183008Y71310D01*
X183022Y72115D01*
X183056Y72918D01*
X183110Y73721D01*
X183183Y74522D01*
X183276Y75321D01*
X183389Y76117D01*
X183521Y76910D01*
X183672Y77700D01*
X183842Y78486D01*
X184032Y79268D01*
X184241Y80045D01*
X184469Y80816D01*
X184715Y81582D01*
X184980Y82341D01*
X185264Y83094D01*
X185566Y83839D01*
X185886Y84577D01*
X186224Y85307D01*
X186580Y86029D01*
X186953Y86741D01*
X187344Y87444D01*
X187751Y88137D01*
X188176Y88821D01*
X188617Y89493D01*
X189074Y90155D01*
X189548Y90805D01*
X190037Y91443D01*
X190541Y92070D01*
X191061Y92684D01*
X191596Y93284D01*
X192145Y93872D01*
X192709Y94446D01*
X193286Y95006D01*
X193877Y95552D01*
X194481Y96083D01*
X195097Y96599D01*
X195727Y97100D01*
X196368Y97586D01*
X197021Y98056D01*
X197685Y98509D01*
X198360Y98946D01*
X199046Y99367D01*
X199741Y99771D01*
X200447Y100157D01*
X201161Y100526D01*
X201885Y100878D01*
X202617Y101212D01*
X203356Y101527D01*
X204104Y101825D01*
X204858Y102104D01*
X205619Y102365D01*
X206386Y102607D01*
X207159Y102830D01*
X207937Y103034D01*
X208719Y103220D01*
X209506Y103386D01*
X210297Y103532D01*
X211091Y103660D01*
X211888Y103767D01*
X212688Y103856D01*
X213489Y103925D01*
X214292Y103974D01*
X215096Y104003D01*
X215900Y104013D01*
X216704Y104003D01*
X217508Y103974D01*
X218311Y103925D01*
X219112Y103856D01*
X219912Y103767D01*
X220709Y103660D01*
X221503Y103532D01*
X222294Y103386D01*
X223081Y103220D01*
X223863Y103034D01*
X224641Y102830D01*
X225414Y102607D01*
X226181Y102365D01*
X226942Y102104D01*
X227696Y101825D01*
X228444Y101527D01*
X229183Y101212D01*
X229915Y100878D01*
X230639Y100526D01*
X231353Y100157D01*
X232059Y99771D01*
X232754Y99367D01*
X233440Y98946D01*
X234115Y98509D01*
X234779Y98056D01*
X235432Y97586D01*
X236073Y97100D01*
X236703Y96599D01*
X237319Y96083D01*
X237923Y95552D01*
X238514Y95006D01*
X239091Y94446D01*
X239655Y93872D01*
X240204Y93284D01*
X240739Y92684D01*
X241259Y92070D01*
X241763Y91443D01*
X242252Y90805D01*
X242726Y90155D01*
X243183Y89493D01*
X243624Y88821D01*
X244049Y88137D01*
X244456Y87444D01*
X244847Y86741D01*
X245220Y86029D01*
X245576Y85307D01*
X245914Y84577D01*
X246234Y83839D01*
X246536Y83094D01*
X246820Y82341D01*
X247085Y81582D01*
X247331Y80816D01*
X247559Y80045D01*
X247768Y79268D01*
X247958Y78486D01*
X248128Y77700D01*
X248279Y76910D01*
X248411Y76117D01*
X248524Y75321D01*
X248617Y74522D01*
X248690Y73721D01*
X248744Y72918D01*
X248778Y72115D01*
X248792Y71310D01*
X248787Y70506D01*
X248762Y69702D01*
X248718Y68899D01*
X248654Y68097D01*
X248570Y67297D01*
X248467Y66500D01*
X248344Y65705D01*
X248202Y64913D01*
X248041Y64125D01*
X247860Y63341D01*
X247660Y62562D01*
X247442Y61788D01*
X247204Y61020D01*
X246948Y60257D01*
X246673Y59502D01*
X246379Y58753D01*
X246068Y58011D01*
X245738Y57277D01*
X245391Y56552D01*
X245026Y55835D01*
X244644Y55128D01*
X244244Y54430D01*
X243827Y53742D01*
X243394Y53064D01*
X242944Y52397D01*
X242479Y51741D01*
X241997Y51097D01*
X241499Y50465D01*
X240987Y49845D01*
X240459Y49238D01*
X239917Y48644D01*
X239360Y48064D01*
X238789Y47497D01*
X238205Y46945D01*
X237607Y46407D01*
X236996Y45883D01*
X236373Y45375D01*
X235737Y44882D01*
X235593Y45074D01*
X236224Y45563D01*
X236843Y46068D01*
X237449Y46587D01*
X238043Y47122D01*
X238623Y47670D01*
X239189Y48233D01*
X239742Y48809D01*
X240280Y49399D01*
X240804Y50001D01*
X241313Y50617D01*
X241807Y51244D01*
X242285Y51883D01*
X242748Y52534D01*
X243194Y53196D01*
X243624Y53869D01*
X244038Y54552D01*
X244434Y55245D01*
X244814Y55947D01*
X245176Y56659D01*
X245521Y57379D01*
X245848Y58107D01*
X246157Y58844D01*
X246448Y59587D01*
X246721Y60337D01*
X246976Y61094D01*
X247212Y61857D01*
X247429Y62625D01*
X247627Y63399D01*
X247806Y64177D01*
X247967Y64959D01*
X248108Y65745D01*
X248229Y66534D01*
X248332Y67326D01*
X248415Y68120D01*
X248479Y68916D01*
X248523Y69713D01*
X248547Y70511D01*
X248552Y71310D01*
X248538Y72108D01*
X248504Y72906D01*
X248451Y73702D01*
X248378Y74497D01*
X248286Y75290D01*
X248174Y76081D01*
X248043Y76869D01*
X247893Y77653D01*
X247724Y78433D01*
X247535Y79209D01*
X247328Y79980D01*
X247102Y80746D01*
X246857Y81506D01*
X246594Y82260D01*
X246312Y83007D01*
X246013Y83747D01*
X245695Y84480D01*
X245359Y85204D01*
X245006Y85920D01*
X244636Y86627D01*
X244248Y87325D01*
X243843Y88014D01*
X243422Y88692D01*
X242984Y89359D01*
X242530Y90016D01*
X242060Y90662D01*
X241574Y91295D01*
X241073Y91917D01*
X240557Y92526D01*
X240027Y93123D01*
X239481Y93706D01*
X238922Y94276D01*
X238349Y94832D01*
X237762Y95374D01*
X237163Y95901D01*
X236551Y96414D01*
X235926Y96911D01*
X235289Y97393D01*
X234641Y97859D01*
X233982Y98309D01*
X233312Y98743D01*
X232631Y99161D01*
X231940Y99562D01*
X231240Y99945D01*
X230531Y100312D01*
X229813Y100661D01*
X229086Y100992D01*
X228352Y101306D01*
X227610Y101601D01*
X226861Y101878D01*
X226106Y102137D01*
X225345Y102377D01*
X224578Y102599D01*
X223805Y102802D01*
X223028Y102985D01*
X222247Y103150D01*
X221462Y103296D01*
X220674Y103422D01*
X219882Y103529D01*
X219089Y103617D01*
X218293Y103685D01*
X217496Y103734D01*
X216698Y103763D01*
X215900Y103773D01*
X215102Y103763D01*
X214304Y103734D01*
X213507Y103685D01*
X212711Y103617D01*
X211918Y103529D01*
X211126Y103422D01*
X210338Y103296D01*
X209553Y103150D01*
X208772Y102985D01*
X207995Y102802D01*
X207222Y102599D01*
X206455Y102377D01*
X205694Y102137D01*
X204939Y101878D01*
X204190Y101601D01*
X203448Y101306D01*
X202714Y100992D01*
X201987Y100661D01*
X201269Y100312D01*
X200560Y99945D01*
X199860Y99562D01*
X199169Y99161D01*
X198488Y98743D01*
X197818Y98309D01*
X197159Y97859D01*
X196511Y97393D01*
X195874Y96911D01*
X195249Y96414D01*
X194637Y95901D01*
X194038Y95374D01*
X193451Y94832D01*
X192878Y94276D01*
X192319Y93706D01*
X191773Y93123D01*
X191243Y92526D01*
X190727Y91917D01*
X190226Y91295D01*
X189740Y90662D01*
X189270Y90016D01*
X188816Y89359D01*
X188378Y88692D01*
X187957Y88014D01*
X187552Y87325D01*
X187164Y86627D01*
X186794Y85920D01*
X186441Y85204D01*
X186105Y84480D01*
X185787Y83747D01*
X185488Y83007D01*
X185206Y82260D01*
X184943Y81506D01*
X184698Y80746D01*
X184472Y79980D01*
X184265Y79209D01*
X184076Y78433D01*
X183907Y77653D01*
X183757Y76869D01*
X183626Y76081D01*
X183514Y75290D01*
X183422Y74497D01*
X183349Y73702D01*
X183296Y72906D01*
X183262Y72108D01*
X183248Y71310D01*
X183253Y70511D01*
X183277Y69713D01*
X183321Y68916D01*
X183385Y68120D01*
X183468Y67326D01*
X183571Y66534D01*
X183692Y65745D01*
X183833Y64959D01*
X183994Y64177D01*
X184173Y63399D01*
X184371Y62625D01*
X184588Y61857D01*
X184824Y61094D01*
X185079Y60337D01*
X185352Y59587D01*
X185643Y58844D01*
X185952Y58107D01*
X186279Y57379D01*
X186624Y56659D01*
X186986Y55947D01*
X187366Y55245D01*
X187762Y54552D01*
X188176Y53869D01*
X188606Y53196D01*
X189052Y52534D01*
X189515Y51883D01*
X189993Y51244D01*
X190487Y50617D01*
X190996Y50001D01*
X191520Y49399D01*
X192058Y48809D01*
X192611Y48233D01*
X193177Y47670D01*
X193757Y47122D01*
X194351Y46587D01*
X194957Y46068D01*
X195576Y45563D01*
X196207Y45074D01*
X196351Y45266D01*
X195724Y45752D01*
X195110Y46253D01*
X194508Y46768D01*
X193919Y47299D01*
X193344Y47843D01*
X192781Y48402D01*
X192233Y48974D01*
X191698Y49559D01*
X191178Y50157D01*
X190673Y50768D01*
X190183Y51391D01*
X189708Y52025D01*
X189249Y52672D01*
X188806Y53329D01*
X188379Y53996D01*
X187969Y54675D01*
X187575Y55362D01*
X187198Y56060D01*
X186839Y56766D01*
X186496Y57481D01*
X186172Y58204D01*
X185865Y58934D01*
X185576Y59672D01*
X185305Y60417D01*
X185052Y61169D01*
X184818Y61926D01*
X184603Y62688D01*
X184406Y63456D01*
X184228Y64229D01*
X184069Y65005D01*
X183929Y65785D01*
X183808Y66568D01*
X183706Y67354D01*
X183624Y68143D01*
X183561Y68933D01*
X183517Y69724D01*
X183493Y70516D01*
X183488Y71309D01*
X183502Y72101D01*
X183536Y72893D01*
X183589Y73684D01*
X183661Y74473D01*
X183753Y75260D01*
X183863Y76045D01*
X183993Y76827D01*
X184142Y77605D01*
X184311Y78380D01*
X184497Y79150D01*
X184703Y79916D01*
X184928Y80676D01*
X185170Y81430D01*
X185432Y82178D01*
X185711Y82920D01*
X186009Y83655D01*
X186324Y84382D01*
X186657Y85101D01*
X187008Y85812D01*
X187376Y86514D01*
X187761Y87207D01*
X188162Y87890D01*
X188581Y88563D01*
X189015Y89226D01*
X189466Y89878D01*
X189933Y90518D01*
X190415Y91147D01*
X190912Y91765D01*
X191424Y92369D01*
X191951Y92961D01*
X192492Y93540D01*
X193047Y94106D01*
X193616Y94658D01*
X194198Y95196D01*
X194794Y95719D01*
X195401Y96228D01*
X196021Y96722D01*
X196653Y97200D01*
X197297Y97663D01*
X197951Y98110D01*
X198616Y98540D01*
X199292Y98955D01*
X199978Y99353D01*
X200673Y99733D01*
X201377Y100097D01*
X202090Y100444D01*
X202811Y100773D01*
X203540Y101084D01*
X204276Y101377D01*
X205019Y101652D01*
X205769Y101909D01*
X206525Y102148D01*
X207286Y102368D01*
X208053Y102569D01*
X208824Y102751D01*
X209600Y102915D01*
X210379Y103059D01*
X211162Y103185D01*
X211947Y103291D01*
X212735Y103378D01*
X213524Y103446D01*
X214315Y103494D01*
X215107Y103523D01*
X215900Y103533D01*
X216693Y103523D01*
X217485Y103494D01*
X218276Y103446D01*
X219065Y103378D01*
X219853Y103291D01*
X220638Y103185D01*
X221421Y103059D01*
X222200Y102915D01*
X222976Y102751D01*
X223747Y102569D01*
X224514Y102368D01*
X225275Y102148D01*
X226031Y101909D01*
X226781Y101652D01*
X227524Y101377D01*
X228260Y101084D01*
X228989Y100773D01*
X229710Y100444D01*
X230423Y100097D01*
X231127Y99733D01*
X231822Y99353D01*
X232508Y98955D01*
X233184Y98540D01*
X233849Y98110D01*
X234503Y97663D01*
X235147Y97200D01*
X235779Y96722D01*
X236399Y96228D01*
X237006Y95719D01*
X237602Y95196D01*
X238184Y94658D01*
X238753Y94106D01*
X239308Y93540D01*
X239849Y92961D01*
X240376Y92369D01*
X240888Y91765D01*
X241385Y91147D01*
X241867Y90518D01*
X242334Y89878D01*
X242785Y89226D01*
X243219Y88563D01*
X243638Y87890D01*
X244039Y87207D01*
X244424Y86514D01*
X244792Y85812D01*
X245143Y85101D01*
X245476Y84382D01*
X245791Y83655D01*
X246089Y82920D01*
X246368Y82178D01*
X246630Y81430D01*
X246872Y80676D01*
X247097Y79916D01*
X247303Y79150D01*
X247489Y78380D01*
X247658Y77605D01*
X247807Y76827D01*
X247937Y76045D01*
X248047Y75260D01*
X248139Y74473D01*
X248211Y73684D01*
X248264Y72893D01*
X248298Y72101D01*
X248312Y71309D01*
X248307Y70516D01*
X248283Y69724D01*
X248239Y68933D01*
X248176Y68143D01*
X248094Y67354D01*
X247992Y66568D01*
X247871Y65785D01*
X247731Y65005D01*
X247572Y64229D01*
X247394Y63456D01*
X247197Y62688D01*
X246982Y61926D01*
X246748Y61169D01*
X246495Y60417D01*
X246224Y59672D01*
X245935Y58934D01*
X245628Y58204D01*
X245304Y57481D01*
X244961Y56766D01*
X244602Y56060D01*
X244225Y55362D01*
X243831Y54675D01*
X243421Y53996D01*
X242994Y53329D01*
X242551Y52672D01*
X242092Y52025D01*
X241617Y51391D01*
X241127Y50768D01*
X240622Y50157D01*
X240102Y49559D01*
X239567Y48974D01*
X239019Y48402D01*
X238456Y47843D01*
X237881Y47299D01*
X237292Y46768D01*
X236690Y46253D01*
X236076Y45752D01*
X235449Y45266D01*
X235305Y45458D01*
X235927Y45940D01*
X236537Y46437D01*
X237134Y46949D01*
X237718Y47476D01*
X238290Y48016D01*
X238848Y48571D01*
X239393Y49138D01*
X239923Y49719D01*
X240439Y50313D01*
X240941Y50919D01*
X241427Y51538D01*
X241898Y52168D01*
X242354Y52809D01*
X242794Y53461D01*
X243217Y54124D01*
X243625Y54797D01*
X244016Y55480D01*
X244390Y56172D01*
X244746Y56873D01*
X245086Y57582D01*
X245408Y58300D01*
X245713Y59025D01*
X246000Y59758D01*
X246269Y60497D01*
X246519Y61243D01*
X246752Y61995D01*
X246966Y62752D01*
X247161Y63514D01*
X247338Y64280D01*
X247495Y65051D01*
X247634Y65825D01*
X247754Y66603D01*
X247855Y67383D01*
X247937Y68165D01*
X248000Y68950D01*
X248043Y69735D01*
X248067Y70521D01*
X248072Y71308D01*
X248058Y72095D01*
X248025Y72881D01*
X247972Y73665D01*
X247900Y74449D01*
X247809Y75230D01*
X247699Y76009D01*
X247570Y76785D01*
X247422Y77558D01*
X247255Y78327D01*
X247070Y79091D01*
X246866Y79851D01*
X246643Y80605D01*
X246402Y81354D01*
X246143Y82097D01*
X245865Y82833D01*
X245570Y83562D01*
X245257Y84284D01*
X244926Y84998D01*
X244578Y85703D01*
X244213Y86400D01*
X243831Y87088D01*
X243432Y87766D01*
X243017Y88434D01*
X242585Y89092D01*
X242138Y89739D01*
X241675Y90375D01*
X241196Y90999D01*
X240703Y91612D01*
X240194Y92212D01*
X239671Y92800D01*
X239134Y93375D01*
X238583Y93936D01*
X238019Y94484D01*
X237441Y95018D01*
X236850Y95537D01*
X236247Y96042D01*
X235631Y96532D01*
X235004Y97007D01*
X234365Y97466D01*
X233716Y97910D01*
X233055Y98338D01*
X232385Y98749D01*
X231704Y99144D01*
X231014Y99522D01*
X230315Y99883D01*
X229608Y100227D01*
X228892Y100553D01*
X228169Y100862D01*
X227438Y101153D01*
X226700Y101426D01*
X225956Y101681D01*
X225206Y101918D01*
X224450Y102136D01*
X223689Y102336D01*
X222923Y102517D01*
X222154Y102679D01*
X221380Y102823D01*
X220603Y102947D01*
X219824Y103053D01*
X219042Y103139D01*
X218258Y103206D01*
X217473Y103255D01*
X216687Y103283D01*
X215900Y103293D01*
X215113Y103283D01*
X214327Y103255D01*
X213542Y103206D01*
X212758Y103139D01*
X211976Y103053D01*
X211197Y102947D01*
X210420Y102823D01*
X209646Y102679D01*
X208877Y102517D01*
X208111Y102336D01*
X207350Y102136D01*
X206594Y101918D01*
X205844Y101681D01*
X205100Y101426D01*
X204362Y101153D01*
X203631Y100862D01*
X202908Y100553D01*
X202192Y100227D01*
X201485Y99883D01*
X200786Y99522D01*
X200096Y99144D01*
X199415Y98749D01*
X198745Y98338D01*
X198084Y97910D01*
X197435Y97466D01*
X196796Y97007D01*
X196169Y96532D01*
X195553Y96042D01*
X194950Y95537D01*
X194359Y95018D01*
X193781Y94484D01*
X193217Y93936D01*
X192666Y93375D01*
X192129Y92800D01*
X191606Y92212D01*
X191097Y91612D01*
X190604Y90999D01*
X190125Y90375D01*
X189662Y89739D01*
X189215Y89092D01*
X188783Y88434D01*
X188368Y87766D01*
X187969Y87088D01*
X187587Y86400D01*
X187222Y85703D01*
X186874Y84998D01*
X186543Y84284D01*
X186230Y83562D01*
X185935Y82833D01*
X185657Y82097D01*
X185398Y81354D01*
X185157Y80605D01*
X184934Y79851D01*
X184730Y79091D01*
X184545Y78327D01*
X184378Y77558D01*
X184230Y76785D01*
X184101Y76009D01*
X183991Y75230D01*
X183900Y74449D01*
X183828Y73665D01*
X183775Y72881D01*
X183742Y72095D01*
X183728Y71308D01*
X183733Y70521D01*
X183757Y69735D01*
X183800Y68950D01*
X183863Y68165D01*
X183945Y67383D01*
X184046Y66603D01*
X184166Y65825D01*
X184305Y65051D01*
X184462Y64280D01*
X184639Y63514D01*
X184834Y62752D01*
X185048Y61995D01*
X185281Y61243D01*
X185531Y60497D01*
X185800Y59758D01*
X186087Y59025D01*
X186392Y58300D01*
X186714Y57582D01*
X187054Y56873D01*
X187410Y56172D01*
X187784Y55480D01*
X188175Y54797D01*
X188583Y54124D01*
X189006Y53461D01*
X189446Y52809D01*
X189902Y52168D01*
X190373Y51538D01*
X190859Y50919D01*
X191361Y50313D01*
X191877Y49719D01*
X192407Y49138D01*
X192952Y48571D01*
X193510Y48016D01*
X194082Y47476D01*
X194666Y46949D01*
X195263Y46437D01*
X195873Y45940D01*
X196495Y45458D01*
X196639Y45650D01*
X196022Y46129D01*
X195417Y46622D01*
X194824Y47130D01*
X194244Y47653D01*
X193676Y48189D01*
X193122Y48739D01*
X192582Y49303D01*
X192055Y49880D01*
X191543Y50469D01*
X191046Y51071D01*
X190563Y51684D01*
X190095Y52310D01*
X189643Y52946D01*
X189207Y53594D01*
X188786Y54251D01*
X188382Y54919D01*
X187994Y55597D01*
X187623Y56284D01*
X187268Y56980D01*
X186931Y57684D01*
X186611Y58396D01*
X186309Y59116D01*
X186024Y59843D01*
X185758Y60577D01*
X185509Y61317D01*
X185278Y62063D01*
X185066Y62815D01*
X184872Y63571D01*
X184697Y64332D01*
X184540Y65097D01*
X184402Y65865D01*
X184283Y66637D01*
X184183Y67411D01*
X184102Y68188D01*
X184040Y68966D01*
X183997Y69746D01*
X183973Y70526D01*
X183968Y71307D01*
X183982Y72088D01*
X184015Y72868D01*
X184067Y73647D01*
X184138Y74425D01*
X184229Y75200D01*
X184338Y75973D01*
X184466Y76744D01*
X184613Y77510D01*
X184779Y78273D01*
X184963Y79032D01*
X185165Y79786D01*
X185387Y80535D01*
X185626Y81278D01*
X185883Y82015D01*
X186159Y82746D01*
X186452Y83470D01*
X186763Y84186D01*
X187091Y84895D01*
X187436Y85595D01*
X187799Y86286D01*
X188178Y86969D01*
X188574Y87642D01*
X188986Y88305D01*
X189414Y88958D01*
X189858Y89600D01*
X190318Y90232D01*
X190792Y90851D01*
X191282Y91459D01*
X191787Y92055D01*
X192306Y92638D01*
X192839Y93209D01*
X193386Y93766D01*
X193947Y94310D01*
X194520Y94840D01*
X195107Y95355D01*
X195705Y95856D01*
X196316Y96343D01*
X196939Y96814D01*
X197573Y97270D01*
X198217Y97710D01*
X198873Y98135D01*
X199538Y98543D01*
X200214Y98935D01*
X200899Y99310D01*
X201592Y99668D01*
X202294Y100010D01*
X203005Y100334D01*
X203723Y100640D01*
X204448Y100929D01*
X205181Y101200D01*
X205919Y101453D01*
X206664Y101688D01*
X207414Y101905D01*
X208169Y102103D01*
X208929Y102283D01*
X209693Y102444D01*
X210461Y102586D01*
X211232Y102710D01*
X212006Y102815D01*
X212782Y102900D01*
X213560Y102967D01*
X214339Y103015D01*
X215119Y103043D01*
X215900Y103053D01*
X216681Y103043D01*
X217461Y103015D01*
X218240Y102967D01*
X219018Y102900D01*
X219794Y102815D01*
X220568Y102710D01*
X221339Y102586D01*
X222107Y102444D01*
X222871Y102283D01*
X223631Y102103D01*
X224386Y101905D01*
X225136Y101688D01*
X225881Y101453D01*
X226619Y101200D01*
X227352Y100929D01*
X228077Y100640D01*
X228795Y100334D01*
X229506Y100010D01*
X230208Y99668D01*
X230901Y99310D01*
X231586Y98935D01*
X232262Y98543D01*
X232927Y98135D01*
X233583Y97710D01*
X234227Y97270D01*
X234861Y96814D01*
X235484Y96343D01*
X236095Y95856D01*
X236693Y95355D01*
X237280Y94840D01*
X237853Y94310D01*
X238414Y93766D01*
X238961Y93209D01*
X239494Y92638D01*
X240013Y92055D01*
X240518Y91459D01*
X241008Y90851D01*
X241482Y90232D01*
X241942Y89600D01*
X242386Y88958D01*
X242814Y88305D01*
X243226Y87642D01*
X243622Y86969D01*
X244001Y86286D01*
X244364Y85595D01*
X244709Y84895D01*
X245037Y84186D01*
X245348Y83470D01*
X245641Y82746D01*
X245917Y82015D01*
X246174Y81278D01*
X246413Y80535D01*
X246635Y79786D01*
X246837Y79032D01*
X247021Y78273D01*
X247187Y77510D01*
X247334Y76744D01*
X247462Y75973D01*
X247571Y75200D01*
X247662Y74425D01*
X247733Y73647D01*
X247785Y72868D01*
X247818Y72088D01*
X247832Y71307D01*
X247827Y70526D01*
X247803Y69746D01*
X247760Y68966D01*
X247698Y68188D01*
X247617Y67411D01*
X247517Y66637D01*
X247398Y65865D01*
X247260Y65097D01*
X247103Y64332D01*
X246928Y63571D01*
X246734Y62815D01*
X246522Y62063D01*
X246291Y61317D01*
X246042Y60577D01*
X245776Y59843D01*
X245491Y59116D01*
X245189Y58396D01*
X244869Y57684D01*
X244532Y56980D01*
X244177Y56284D01*
X243806Y55597D01*
X243418Y54919D01*
X243014Y54251D01*
X242593Y53594D01*
X242157Y52946D01*
X241705Y52310D01*
X241237Y51684D01*
X240754Y51071D01*
X240257Y50469D01*
X239745Y49880D01*
X239218Y49303D01*
X238678Y48739D01*
X238124Y48189D01*
X237556Y47653D01*
X236976Y47130D01*
X236383Y46622D01*
X235778Y46129D01*
X235161Y45650D01*
X235017Y45842D01*
X235630Y46317D01*
X236230Y46807D01*
X236818Y47311D01*
X237394Y47830D01*
X237957Y48362D01*
X238507Y48908D01*
X239043Y49468D01*
X239566Y50040D01*
X240074Y50625D01*
X240568Y51222D01*
X241047Y51831D01*
X241511Y52452D01*
X241960Y53083D01*
X242393Y53726D01*
X242811Y54379D01*
X243212Y55042D01*
X243597Y55714D01*
X243965Y56396D01*
X244317Y57087D01*
X244651Y57786D01*
X244969Y58493D01*
X245269Y59207D01*
X245551Y59929D01*
X245816Y60657D01*
X246063Y61392D01*
X246292Y62132D01*
X246502Y62878D01*
X246695Y63628D01*
X246869Y64384D01*
X247024Y65143D01*
X247161Y65906D01*
X247279Y66671D01*
X247379Y67440D01*
X247459Y68211D01*
X247521Y68983D01*
X247564Y69757D01*
X247588Y70531D01*
X247592Y71306D01*
X247578Y72081D01*
X247545Y72855D01*
X247494Y73629D01*
X247423Y74400D01*
X247333Y75170D01*
X247225Y75937D01*
X247098Y76702D01*
X246952Y77463D01*
X246787Y78220D01*
X246605Y78973D01*
X246403Y79722D01*
X246184Y80465D01*
X245946Y81202D01*
X245691Y81934D01*
X245418Y82659D01*
X245127Y83377D01*
X244818Y84088D01*
X244493Y84791D01*
X244150Y85486D01*
X243790Y86173D01*
X243414Y86850D01*
X243021Y87518D01*
X242612Y88176D01*
X242187Y88824D01*
X241746Y89462D01*
X241290Y90088D01*
X240819Y90703D01*
X240332Y91307D01*
X239832Y91898D01*
X239316Y92477D01*
X238787Y93043D01*
X238244Y93596D01*
X237688Y94136D01*
X237119Y94662D01*
X236537Y95173D01*
X235943Y95671D01*
X235336Y96153D01*
X234719Y96621D01*
X234090Y97074D01*
X233450Y97511D01*
X232799Y97932D01*
X232138Y98337D01*
X231468Y98726D01*
X230789Y99098D01*
X230100Y99454D01*
X229403Y99793D01*
X228698Y100114D01*
X227985Y100418D01*
X227265Y100705D01*
X226539Y100974D01*
X225806Y101225D01*
X225067Y101458D01*
X224322Y101673D01*
X223573Y101870D01*
X222818Y102049D01*
X222060Y102209D01*
X221298Y102350D01*
X220533Y102473D01*
X219765Y102576D01*
X218995Y102662D01*
X218223Y102728D01*
X217449Y102775D01*
X216675Y102804D01*
X215900Y102813D01*
X215125Y102804D01*
X214351Y102775D01*
X213577Y102728D01*
X212805Y102662D01*
X212035Y102576D01*
X211267Y102473D01*
X210502Y102350D01*
X209740Y102209D01*
X208982Y102049D01*
X208227Y101870D01*
X207478Y101673D01*
X206733Y101458D01*
X205994Y101225D01*
X205261Y100974D01*
X204535Y100705D01*
X203815Y100418D01*
X203102Y100114D01*
X202397Y99793D01*
X201700Y99454D01*
X201011Y99098D01*
X200332Y98726D01*
X199662Y98337D01*
X199001Y97932D01*
X198350Y97511D01*
X197710Y97074D01*
X197081Y96621D01*
X196464Y96153D01*
X195857Y95671D01*
X195263Y95173D01*
X194681Y94662D01*
X194112Y94136D01*
X193556Y93596D01*
X193013Y93043D01*
X192484Y92477D01*
X191968Y91898D01*
X191468Y91307D01*
X190981Y90703D01*
X190510Y90088D01*
X190054Y89462D01*
X189613Y88824D01*
X189188Y88176D01*
X188779Y87518D01*
X188386Y86850D01*
X188010Y86173D01*
X187650Y85486D01*
X187307Y84791D01*
X186982Y84088D01*
X186673Y83377D01*
X186382Y82659D01*
X186109Y81934D01*
X185854Y81202D01*
X185616Y80465D01*
X185397Y79722D01*
X185195Y78973D01*
X185013Y78220D01*
X184848Y77463D01*
X184702Y76702D01*
X184575Y75937D01*
X184467Y75170D01*
X184377Y74400D01*
X184306Y73629D01*
X184255Y72855D01*
X184222Y72081D01*
X184208Y71306D01*
X184212Y70531D01*
X184236Y69757D01*
X184279Y68983D01*
X184341Y68211D01*
X184421Y67440D01*
X184521Y66671D01*
X184639Y65906D01*
X184776Y65143D01*
X184931Y64384D01*
X185105Y63628D01*
X185298Y62878D01*
X185508Y62132D01*
X185737Y61392D01*
X185984Y60657D01*
X186249Y59929D01*
X186531Y59207D01*
X186831Y58493D01*
X187149Y57786D01*
X187483Y57087D01*
X187835Y56396D01*
X188203Y55714D01*
X188588Y55042D01*
X188989Y54379D01*
X189407Y53726D01*
X189840Y53083D01*
X190289Y52452D01*
X190753Y51831D01*
X191232Y51222D01*
X191726Y50625D01*
X192234Y50040D01*
X192757Y49468D01*
X193293Y48908D01*
X193843Y48362D01*
X194406Y47830D01*
X194982Y47311D01*
X195570Y46807D01*
X196170Y46317D01*
X196783Y45842D01*
X196927Y46034D01*
X196319Y46505D01*
X195723Y46991D01*
X195139Y47492D01*
X194568Y48007D01*
X194009Y48535D01*
X193463Y49077D01*
X192931Y49632D01*
X192413Y50200D01*
X191908Y50781D01*
X191418Y51373D01*
X190943Y51978D01*
X190482Y52594D01*
X190037Y53221D01*
X189607Y53858D01*
X189193Y54506D01*
X188795Y55164D01*
X188413Y55832D01*
X188047Y56508D01*
X187698Y57194D01*
X187366Y57887D01*
X187051Y58589D01*
X186753Y59298D01*
X186473Y60014D01*
X186210Y60737D01*
X185965Y61466D01*
X185738Y62201D01*
X185529Y62941D01*
X185338Y63686D01*
X185166Y64435D01*
X185011Y65189D01*
X184876Y65946D01*
X184758Y66706D01*
X184660Y67468D01*
X184580Y68233D01*
X184519Y69000D01*
X184476Y69768D01*
X184452Y70537D01*
X184448Y71306D01*
X184461Y72074D01*
X184494Y72843D01*
X184546Y73610D01*
X184616Y74376D01*
X184705Y75140D01*
X184813Y75901D01*
X184939Y76660D01*
X185083Y77415D01*
X185247Y78167D01*
X185428Y78914D01*
X185628Y79657D01*
X185845Y80394D01*
X186081Y81127D01*
X186335Y81853D01*
X186606Y82572D01*
X186895Y83285D01*
X187201Y83991D01*
X187524Y84688D01*
X187864Y85378D01*
X188221Y86059D01*
X188595Y86731D01*
X188985Y87394D01*
X189391Y88048D01*
X189812Y88691D01*
X190250Y89323D01*
X190703Y89945D01*
X191170Y90555D01*
X191653Y91154D01*
X192150Y91741D01*
X192661Y92315D01*
X193186Y92877D01*
X193725Y93426D01*
X194277Y93962D01*
X194842Y94483D01*
X195419Y94991D01*
X196009Y95485D01*
X196611Y95964D01*
X197224Y96428D01*
X197848Y96877D01*
X198484Y97311D01*
X199129Y97729D01*
X199785Y98131D01*
X200450Y98517D01*
X201124Y98886D01*
X201808Y99239D01*
X202499Y99575D01*
X203199Y99895D01*
X203906Y100197D01*
X204621Y100481D01*
X205342Y100748D01*
X206070Y100997D01*
X206803Y101229D01*
X207542Y101442D01*
X208286Y101637D01*
X209034Y101814D01*
X209787Y101973D01*
X210543Y102113D01*
X211302Y102235D01*
X212064Y102338D01*
X212829Y102423D01*
X213595Y102488D01*
X214362Y102535D01*
X215131Y102564D01*
X215900Y102573D01*
X216669Y102564D01*
X217438Y102535D01*
X218205Y102488D01*
X218971Y102423D01*
X219736Y102338D01*
X220498Y102235D01*
X221257Y102113D01*
X222013Y101973D01*
X222766Y101814D01*
X223514Y101637D01*
X224258Y101442D01*
X224997Y101229D01*
X225730Y100997D01*
X226458Y100748D01*
X227179Y100481D01*
X227894Y100197D01*
X228601Y99895D01*
X229301Y99575D01*
X229992Y99239D01*
X230676Y98886D01*
X231350Y98517D01*
X232015Y98131D01*
X232671Y97729D01*
X233316Y97311D01*
X233952Y96877D01*
X234576Y96428D01*
X235189Y95964D01*
X235791Y95485D01*
X236381Y94991D01*
X236958Y94483D01*
X237523Y93962D01*
X238075Y93426D01*
X238614Y92877D01*
X239139Y92315D01*
X239650Y91741D01*
X240147Y91154D01*
X240630Y90555D01*
X241097Y89945D01*
X241550Y89323D01*
X241988Y88691D01*
X242409Y88048D01*
X242815Y87394D01*
X243205Y86731D01*
X243579Y86059D01*
X243936Y85378D01*
X244276Y84688D01*
X244599Y83991D01*
X244905Y83285D01*
X245194Y82572D01*
X245465Y81853D01*
X245719Y81127D01*
X245955Y80394D01*
X246172Y79657D01*
X246372Y78914D01*
X246553Y78167D01*
X246717Y77415D01*
X246861Y76660D01*
X246987Y75901D01*
X247095Y75140D01*
X247184Y74376D01*
X247254Y73610D01*
X247306Y72843D01*
X247339Y72074D01*
X247352Y71306D01*
X247348Y70537D01*
X247324Y69768D01*
X247281Y69000D01*
X247220Y68233D01*
X247140Y67468D01*
X247042Y66706D01*
X246924Y65946D01*
X246789Y65189D01*
X246634Y64435D01*
X246462Y63686D01*
X246271Y62941D01*
X246062Y62201D01*
X245835Y61466D01*
X245590Y60737D01*
X245327Y60014D01*
X245047Y59298D01*
X244749Y58589D01*
X244434Y57887D01*
X244102Y57194D01*
X243753Y56508D01*
X243387Y55832D01*
X243005Y55164D01*
X242607Y54506D01*
X242193Y53858D01*
X241763Y53221D01*
X241318Y52594D01*
X240857Y51978D01*
X240382Y51373D01*
X239892Y50781D01*
X239387Y50200D01*
X238869Y49632D01*
X238337Y49077D01*
X237791Y48535D01*
X237232Y48007D01*
X236661Y47492D01*
X236077Y46991D01*
X235481Y46505D01*
X234873Y46034D01*
X234729Y46226D01*
X235332Y46694D01*
X235924Y47176D01*
X236503Y47673D01*
X237070Y48184D01*
X237625Y48708D01*
X238166Y49246D01*
X238694Y49797D01*
X239209Y50360D01*
X239709Y50937D01*
X240196Y51525D01*
X240667Y52125D01*
X241124Y52736D01*
X241566Y53358D01*
X241993Y53991D01*
X242404Y54634D01*
X242799Y55287D01*
X243178Y55949D01*
X243541Y56621D01*
X243887Y57301D01*
X244217Y57989D01*
X244529Y58685D01*
X244825Y59389D01*
X245103Y60100D01*
X245364Y60817D01*
X245607Y61540D01*
X245832Y62270D01*
X246039Y63004D01*
X246229Y63743D01*
X246400Y64487D01*
X246553Y65235D01*
X246688Y65986D01*
X246804Y66740D01*
X246902Y67497D01*
X246981Y68256D01*
X247042Y69017D01*
X247084Y69779D01*
X247108Y70542D01*
X247112Y71305D01*
X247099Y72068D01*
X247066Y72830D01*
X247015Y73592D01*
X246945Y74352D01*
X246857Y75110D01*
X246750Y75865D01*
X246625Y76618D01*
X246481Y77368D01*
X246319Y78114D01*
X246139Y78855D01*
X245941Y79592D01*
X245725Y80324D01*
X245491Y81051D01*
X245239Y81771D01*
X244970Y82485D01*
X244684Y83193D01*
X244380Y83893D01*
X244059Y84585D01*
X243722Y85270D01*
X243367Y85946D01*
X242997Y86613D01*
X242610Y87271D01*
X242207Y87919D01*
X241788Y88557D01*
X241354Y89185D01*
X240905Y89802D01*
X240441Y90407D01*
X239962Y91002D01*
X239469Y91584D01*
X238961Y92154D01*
X238440Y92712D01*
X237906Y93256D01*
X237358Y93788D01*
X236797Y94305D01*
X236224Y94809D01*
X235639Y95299D01*
X235042Y95775D01*
X234433Y96235D01*
X233814Y96681D01*
X233183Y97111D01*
X232543Y97526D01*
X231892Y97925D01*
X231232Y98308D01*
X230563Y98675D01*
X229885Y99025D01*
X229198Y99358D01*
X228504Y99675D01*
X227802Y99975D01*
X227093Y100257D01*
X226377Y100522D01*
X225655Y100769D01*
X224927Y100999D01*
X224194Y101211D01*
X223456Y101405D01*
X222713Y101580D01*
X221967Y101738D01*
X221216Y101877D01*
X220463Y101998D01*
X219706Y102100D01*
X218948Y102184D01*
X218188Y102249D01*
X217426Y102296D01*
X216663Y102324D01*
X215900Y102333D01*
X215137Y102324D01*
X214374Y102296D01*
X213612Y102249D01*
X212852Y102184D01*
X212094Y102100D01*
X211337Y101998D01*
X210584Y101877D01*
X209833Y101738D01*
X209087Y101580D01*
X208344Y101405D01*
X207606Y101211D01*
X206873Y100999D01*
X206145Y100769D01*
X205423Y100522D01*
X204707Y100257D01*
X203998Y99975D01*
X203296Y99675D01*
X202602Y99358D01*
X201915Y99025D01*
X201237Y98675D01*
X200568Y98308D01*
X199908Y97925D01*
X199257Y97526D01*
X198617Y97111D01*
X197986Y96681D01*
X197367Y96235D01*
X196758Y95775D01*
X196161Y95299D01*
X195576Y94809D01*
X195003Y94305D01*
X194442Y93788D01*
X193894Y93256D01*
X193360Y92712D01*
X192839Y92154D01*
X192331Y91584D01*
X191838Y91002D01*
X191359Y90407D01*
X190895Y89802D01*
X190446Y89185D01*
X190012Y88557D01*
X189593Y87919D01*
X189190Y87271D01*
X188803Y86613D01*
X188433Y85946D01*
X188078Y85270D01*
X187741Y84585D01*
X187420Y83893D01*
X187116Y83193D01*
X186830Y82485D01*
X186561Y81771D01*
X186309Y81051D01*
X186075Y80324D01*
X185859Y79592D01*
X185661Y78855D01*
X185481Y78114D01*
X185319Y77368D01*
X185175Y76618D01*
X185050Y75865D01*
X184943Y75110D01*
X184855Y74352D01*
X184785Y73592D01*
X184734Y72830D01*
X184701Y72068D01*
X184688Y71305D01*
X184692Y70542D01*
X184716Y69779D01*
X184758Y69017D01*
X184819Y68256D01*
X184898Y67497D01*
X184996Y66740D01*
X185112Y65986D01*
X185247Y65235D01*
X185400Y64487D01*
X185571Y63743D01*
X185761Y63004D01*
X185968Y62270D01*
X186193Y61540D01*
X186436Y60817D01*
X186697Y60100D01*
X186975Y59389D01*
X187271Y58685D01*
X187583Y57989D01*
X187913Y57301D01*
X188259Y56621D01*
X188622Y55949D01*
X189001Y55287D01*
X189396Y54634D01*
X189807Y53991D01*
X190234Y53358D01*
X190676Y52736D01*
X191133Y52125D01*
X191604Y51525D01*
X192091Y50937D01*
X192591Y50360D01*
X193106Y49797D01*
X193634Y49246D01*
X194175Y48708D01*
X194730Y48184D01*
X195297Y47673D01*
X195876Y47176D01*
X196468Y46694D01*
X197071Y46226D01*
X197215Y46418D01*
X196616Y46882D01*
X196030Y47361D01*
X195455Y47854D01*
X194892Y48361D01*
X194342Y48881D01*
X193805Y49415D01*
X193280Y49961D01*
X192770Y50521D01*
X192273Y51092D01*
X191791Y51676D01*
X191323Y52271D01*
X190869Y52878D01*
X190431Y53495D01*
X190007Y54123D01*
X189599Y54761D01*
X189207Y55409D01*
X188831Y56067D01*
X188471Y56733D01*
X188128Y57408D01*
X187801Y58091D01*
X187491Y58782D01*
X187197Y59480D01*
X186921Y60185D01*
X186663Y60897D01*
X186422Y61615D01*
X186198Y62338D01*
X185992Y63067D01*
X185804Y63801D01*
X185634Y64539D01*
X185482Y65281D01*
X185349Y66026D01*
X185233Y66774D01*
X185136Y67525D01*
X185058Y68279D01*
X184997Y69034D01*
X184956Y69790D01*
X184932Y70547D01*
X184928Y71304D01*
X184941Y72061D01*
X184974Y72818D01*
X185024Y73573D01*
X185094Y74327D01*
X185181Y75080D01*
X185287Y75830D01*
X185411Y76577D01*
X185554Y77320D01*
X185715Y78060D01*
X185893Y78796D01*
X186090Y79528D01*
X186304Y80254D01*
X186537Y80975D01*
X186786Y81690D01*
X187053Y82398D01*
X187338Y83100D01*
X187639Y83795D01*
X187958Y84482D01*
X188293Y85161D01*
X188644Y85832D01*
X189012Y86494D01*
X189396Y87147D01*
X189796Y87790D01*
X190211Y88423D01*
X190642Y89046D01*
X191087Y89658D01*
X191548Y90259D01*
X192023Y90849D01*
X192513Y91427D01*
X193016Y91993D01*
X193533Y92546D01*
X194064Y93086D01*
X194607Y93613D01*
X195164Y94127D01*
X195732Y94627D01*
X196313Y95113D01*
X196906Y95585D01*
X197509Y96042D01*
X198124Y96484D01*
X198750Y96911D01*
X199385Y97323D01*
X200031Y97719D01*
X200686Y98099D01*
X201350Y98463D01*
X202023Y98810D01*
X202704Y99141D01*
X203393Y99456D01*
X204090Y99753D01*
X204793Y100033D01*
X205503Y100296D01*
X206220Y100541D01*
X206942Y100769D01*
X207670Y100979D01*
X208402Y101172D01*
X209139Y101346D01*
X209880Y101502D01*
X210625Y101640D01*
X211372Y101760D01*
X212123Y101862D01*
X212876Y101945D01*
X213630Y102010D01*
X214386Y102056D01*
X215143Y102084D01*
X215900Y102093D01*
X216657Y102084D01*
X217414Y102056D01*
X218170Y102010D01*
X218924Y101945D01*
X219677Y101862D01*
X220428Y101760D01*
X221175Y101640D01*
X221920Y101502D01*
X222661Y101346D01*
X223398Y101172D01*
X224130Y100979D01*
X224858Y100769D01*
X225580Y100541D01*
X226297Y100296D01*
X227007Y100033D01*
X227710Y99753D01*
X228407Y99456D01*
X229096Y99141D01*
X229777Y98810D01*
X230450Y98463D01*
X231114Y98099D01*
X231769Y97719D01*
X232415Y97323D01*
X233050Y96911D01*
X233676Y96484D01*
X234291Y96042D01*
X234894Y95585D01*
X235487Y95113D01*
X236068Y94627D01*
X236636Y94127D01*
X237193Y93613D01*
X237736Y93086D01*
X238267Y92546D01*
X238784Y91993D01*
X239287Y91427D01*
X239777Y90849D01*
X240252Y90259D01*
X240713Y89658D01*
X241158Y89046D01*
X241589Y88423D01*
X242004Y87790D01*
X242404Y87147D01*
X242788Y86494D01*
X243156Y85832D01*
X243507Y85161D01*
X243842Y84482D01*
X244161Y83795D01*
X244462Y83100D01*
X244747Y82398D01*
X245014Y81690D01*
X245263Y80975D01*
X245496Y80254D01*
X245710Y79528D01*
X245907Y78796D01*
X246085Y78060D01*
X246246Y77320D01*
X246389Y76577D01*
X246513Y75830D01*
X246619Y75080D01*
X246706Y74327D01*
X246776Y73573D01*
X246826Y72818D01*
X246859Y72061D01*
X246872Y71304D01*
X246868Y70547D01*
X246844Y69790D01*
X246803Y69034D01*
X246742Y68279D01*
X246664Y67525D01*
X246567Y66774D01*
X246451Y66026D01*
X246318Y65281D01*
X246166Y64539D01*
X245996Y63801D01*
X245808Y63067D01*
X245602Y62338D01*
X245378Y61615D01*
X245137Y60897D01*
X244879Y60185D01*
X244603Y59480D01*
X244309Y58782D01*
X243999Y58091D01*
X243672Y57408D01*
X243329Y56733D01*
X242969Y56067D01*
X242593Y55409D01*
X242201Y54761D01*
X241793Y54123D01*
X241369Y53495D01*
X240931Y52878D01*
X240477Y52271D01*
X240009Y51676D01*
X239527Y51092D01*
X239030Y50521D01*
X238520Y49961D01*
X237995Y49415D01*
X237458Y48881D01*
X236908Y48361D01*
X236345Y47854D01*
X235770Y47361D01*
X235184Y46882D01*
X234585Y46418D01*
X234441Y46610D01*
X235035Y47071D01*
X235617Y47546D01*
X236188Y48035D01*
X236746Y48538D01*
X237292Y49054D01*
X237825Y49584D01*
X238345Y50126D01*
X238851Y50681D01*
X239344Y51248D01*
X239823Y51827D01*
X240288Y52418D01*
X240738Y53020D01*
X241173Y53633D01*
X241593Y54256D01*
X241997Y54889D01*
X242386Y55532D01*
X242759Y56184D01*
X243117Y56845D01*
X243457Y57515D01*
X243782Y58192D01*
X244090Y58878D01*
X244380Y59571D01*
X244654Y60271D01*
X244911Y60977D01*
X245150Y61689D01*
X245372Y62407D01*
X245576Y63130D01*
X245763Y63858D01*
X245931Y64590D01*
X246082Y65327D01*
X246215Y66066D01*
X246329Y66809D01*
X246425Y67554D01*
X246503Y68301D01*
X246563Y69050D01*
X246605Y69801D01*
X246628Y70552D01*
X246632Y71303D01*
X246619Y72054D01*
X246587Y72805D01*
X246536Y73555D01*
X246468Y74303D01*
X246381Y75050D01*
X246276Y75794D01*
X246152Y76535D01*
X246011Y77273D01*
X245851Y78007D01*
X245674Y78737D01*
X245479Y79463D01*
X245266Y80184D01*
X245036Y80899D01*
X244788Y81608D01*
X244523Y82311D01*
X244241Y83008D01*
X243942Y83697D01*
X243626Y84379D01*
X243293Y85053D01*
X242945Y85718D01*
X242580Y86375D01*
X242199Y87023D01*
X241802Y87661D01*
X241390Y88289D01*
X240962Y88907D01*
X240520Y89515D01*
X240063Y90111D01*
X239591Y90696D01*
X239106Y91270D01*
X238606Y91831D01*
X238093Y92380D01*
X237567Y92916D01*
X237027Y93439D01*
X236475Y93949D01*
X235911Y94445D01*
X235335Y94928D01*
X234747Y95396D01*
X234148Y95849D01*
X233538Y96288D01*
X232917Y96712D01*
X232286Y97120D01*
X231646Y97513D01*
X230996Y97890D01*
X230337Y98251D01*
X229669Y98596D01*
X228993Y98924D01*
X228310Y99236D01*
X227619Y99531D01*
X226921Y99809D01*
X226216Y100070D01*
X225505Y100313D01*
X224788Y100540D01*
X224067Y100748D01*
X223340Y100939D01*
X222609Y101112D01*
X221873Y101267D01*
X221134Y101404D01*
X220392Y101523D01*
X219648Y101624D01*
X218901Y101706D01*
X218152Y101770D01*
X217402Y101816D01*
X216651Y101844D01*
X215900Y101853D01*
X215149Y101844D01*
X214398Y101816D01*
X213648Y101770D01*
X212899Y101706D01*
X212152Y101624D01*
X211408Y101523D01*
X210666Y101404D01*
X209927Y101267D01*
X209191Y101112D01*
X208460Y100939D01*
X207733Y100748D01*
X207012Y100540D01*
X206295Y100313D01*
X205584Y100070D01*
X204879Y99809D01*
X204181Y99531D01*
X203490Y99236D01*
X202807Y98924D01*
X202131Y98596D01*
X201463Y98251D01*
X200804Y97890D01*
X200154Y97513D01*
X199514Y97120D01*
X198883Y96712D01*
X198262Y96288D01*
X197652Y95849D01*
X197053Y95396D01*
X196465Y94928D01*
X195889Y94445D01*
X195325Y93949D01*
X194773Y93439D01*
X194233Y92916D01*
X193707Y92380D01*
X193194Y91831D01*
X192694Y91270D01*
X192209Y90696D01*
X191737Y90111D01*
X191280Y89515D01*
X190838Y88907D01*
X190410Y88289D01*
X189998Y87661D01*
X189601Y87023D01*
X189220Y86375D01*
X188855Y85718D01*
X188507Y85053D01*
X188174Y84379D01*
X187858Y83697D01*
X187559Y83008D01*
X187277Y82311D01*
X187012Y81608D01*
X186764Y80899D01*
X186534Y80184D01*
X186321Y79463D01*
X186126Y78737D01*
X185949Y78007D01*
X185789Y77273D01*
X185648Y76535D01*
X185524Y75794D01*
X185419Y75050D01*
X185332Y74303D01*
X185264Y73555D01*
X185213Y72805D01*
X185181Y72054D01*
X185168Y71303D01*
X185172Y70552D01*
X185195Y69801D01*
X185237Y69050D01*
X185297Y68301D01*
X185375Y67554D01*
X185471Y66809D01*
X185585Y66066D01*
X185718Y65327D01*
X185869Y64590D01*
X186037Y63858D01*
X186224Y63130D01*
X186428Y62407D01*
X186650Y61689D01*
X186889Y60977D01*
X187146Y60271D01*
X187420Y59571D01*
X187710Y58878D01*
X188018Y58192D01*
X188343Y57515D01*
X188683Y56845D01*
X189041Y56184D01*
X189414Y55532D01*
X189803Y54889D01*
X190207Y54256D01*
X190627Y53633D01*
X191062Y53020D01*
X191512Y52418D01*
X191977Y51827D01*
X192456Y51248D01*
X192949Y50681D01*
X193455Y50126D01*
X193975Y49584D01*
X194508Y49054D01*
X195054Y48538D01*
X195612Y48035D01*
X196183Y47546D01*
X196765Y47071D01*
X197359Y46610D01*
D16*
X190500Y71120D02*
X190508Y71743D01*
X190531Y72366D01*
X190569Y72989D01*
X190622Y73610D01*
X190691Y74229D01*
X190775Y74847D01*
X190874Y75462D01*
X190988Y76075D01*
X191117Y76685D01*
X191261Y77292D01*
X191420Y77895D01*
X191594Y78493D01*
X191782Y79088D01*
X191985Y79677D01*
X192202Y80261D01*
X192433Y80840D01*
X192679Y81413D01*
X192939Y81980D01*
X193212Y82540D01*
X193499Y83093D01*
X193800Y83640D01*
X194114Y84178D01*
X194441Y84709D01*
X194781Y85231D01*
X195133Y85746D01*
X195499Y86251D01*
X195876Y86747D01*
X196266Y87234D01*
X196667Y87711D01*
X197080Y88178D01*
X197504Y88634D01*
X197939Y89081D01*
X198386Y89516D01*
X198842Y89940D01*
X199309Y90353D01*
X199786Y90754D01*
X200273Y91144D01*
X200769Y91521D01*
X201274Y91887D01*
X201789Y92239D01*
X202311Y92579D01*
X202842Y92906D01*
X203380Y93220D01*
X203927Y93521D01*
X204480Y93808D01*
X205040Y94081D01*
X205607Y94341D01*
X206180Y94587D01*
X206759Y94818D01*
X207343Y95035D01*
X207932Y95238D01*
X208527Y95426D01*
X209125Y95600D01*
X209728Y95759D01*
X210335Y95903D01*
X210945Y96032D01*
X211558Y96146D01*
X212173Y96245D01*
X212791Y96329D01*
X213410Y96398D01*
X214031Y96451D01*
X214654Y96489D01*
X215277Y96512D01*
X215900Y96520D01*
X216523Y96512D01*
X217146Y96489D01*
X217769Y96451D01*
X218390Y96398D01*
X219009Y96329D01*
X219627Y96245D01*
X220242Y96146D01*
X220855Y96032D01*
X221465Y95903D01*
X222072Y95759D01*
X222675Y95600D01*
X223273Y95426D01*
X223868Y95238D01*
X224457Y95035D01*
X225041Y94818D01*
X225620Y94587D01*
X226193Y94341D01*
X226760Y94081D01*
X227320Y93808D01*
X227873Y93521D01*
X228420Y93220D01*
X228958Y92906D01*
X229489Y92579D01*
X230011Y92239D01*
X230526Y91887D01*
X231031Y91521D01*
X231527Y91144D01*
X232014Y90754D01*
X232491Y90353D01*
X232958Y89940D01*
X233414Y89516D01*
X233861Y89081D01*
X234296Y88634D01*
X234720Y88178D01*
X235133Y87711D01*
X235534Y87234D01*
X235924Y86747D01*
X236301Y86251D01*
X236667Y85746D01*
X237019Y85231D01*
X237359Y84709D01*
X237686Y84178D01*
X238000Y83640D01*
X238301Y83093D01*
X238588Y82540D01*
X238861Y81980D01*
X239121Y81413D01*
X239367Y80840D01*
X239598Y80261D01*
X239815Y79677D01*
X240018Y79088D01*
X240206Y78493D01*
X240380Y77895D01*
X240539Y77292D01*
X240683Y76685D01*
X240812Y76075D01*
X240926Y75462D01*
X241025Y74847D01*
X241109Y74229D01*
X241178Y73610D01*
X241231Y72989D01*
X241269Y72366D01*
X241292Y71743D01*
X241300Y71120D01*
X241292Y70497D01*
X241269Y69874D01*
X241231Y69251D01*
X241178Y68630D01*
X241109Y68011D01*
X241025Y67393D01*
X240926Y66778D01*
X240812Y66165D01*
X240683Y65555D01*
X240539Y64948D01*
X240380Y64345D01*
X240206Y63747D01*
X240018Y63152D01*
X239815Y62563D01*
X239598Y61979D01*
X239367Y61400D01*
X239121Y60827D01*
X238861Y60260D01*
X238588Y59700D01*
X238301Y59147D01*
X238000Y58600D01*
X237686Y58062D01*
X237359Y57531D01*
X237019Y57009D01*
X236667Y56494D01*
X236301Y55989D01*
X235924Y55493D01*
X235534Y55006D01*
X235133Y54529D01*
X234720Y54062D01*
X234296Y53606D01*
X233861Y53159D01*
X233414Y52724D01*
X232958Y52300D01*
X232491Y51887D01*
X232014Y51486D01*
X231527Y51096D01*
X231031Y50719D01*
X230526Y50353D01*
X230011Y50001D01*
X229489Y49661D01*
X228958Y49334D01*
X228420Y49020D01*
X227873Y48719D01*
X227320Y48432D01*
X226760Y48159D01*
X226193Y47899D01*
X225620Y47653D01*
X225041Y47422D01*
X224457Y47205D01*
X223868Y47002D01*
X223273Y46814D01*
X222675Y46640D01*
X222072Y46481D01*
X221465Y46337D01*
X220855Y46208D01*
X220242Y46094D01*
X219627Y45995D01*
X219009Y45911D01*
X218390Y45842D01*
X217769Y45789D01*
X217146Y45751D01*
X216523Y45728D01*
X215900Y45720D01*
X215277Y45728D01*
X214654Y45751D01*
X214031Y45789D01*
X213410Y45842D01*
X212791Y45911D01*
X212173Y45995D01*
X211558Y46094D01*
X210945Y46208D01*
X210335Y46337D01*
X209728Y46481D01*
X209125Y46640D01*
X208527Y46814D01*
X207932Y47002D01*
X207343Y47205D01*
X206759Y47422D01*
X206180Y47653D01*
X205607Y47899D01*
X205040Y48159D01*
X204480Y48432D01*
X203927Y48719D01*
X203380Y49020D01*
X202842Y49334D01*
X202311Y49661D01*
X201789Y50001D01*
X201274Y50353D01*
X200769Y50719D01*
X200273Y51096D01*
X199786Y51486D01*
X199309Y51887D01*
X198842Y52300D01*
X198386Y52724D01*
X197939Y53159D01*
X197504Y53606D01*
X197080Y54062D01*
X196667Y54529D01*
X196266Y55006D01*
X195876Y55493D01*
X195499Y55989D01*
X195133Y56494D01*
X194781Y57009D01*
X194441Y57531D01*
X194114Y58062D01*
X193800Y58600D01*
X193499Y59147D01*
X193212Y59700D01*
X192939Y60260D01*
X192679Y60827D01*
X192433Y61400D01*
X192202Y61979D01*
X191985Y62563D01*
X191782Y63152D01*
X191594Y63747D01*
X191420Y64345D01*
X191261Y64948D01*
X191117Y65555D01*
X190988Y66165D01*
X190874Y66778D01*
X190775Y67393D01*
X190691Y68011D01*
X190622Y68630D01*
X190569Y69251D01*
X190531Y69874D01*
X190508Y70497D01*
X190500Y71120D01*
D11*
X221869Y787D02*
X233299Y787D01*
X233299Y5867D01*
X233299Y10693D02*
X233299Y15773D01*
X233299Y10693D02*
X221869Y10693D01*
X221869Y15773D01*
X226949Y14503D02*
X226949Y10693D01*
X221869Y20574D02*
X233299Y20574D01*
X221869Y20574D02*
X221869Y23749D01*
X221871Y23860D01*
X221877Y23970D01*
X221886Y24081D01*
X221900Y24191D01*
X221917Y24300D01*
X221938Y24409D01*
X221963Y24517D01*
X221992Y24624D01*
X222024Y24730D01*
X222060Y24835D01*
X222100Y24938D01*
X222143Y25040D01*
X222190Y25141D01*
X222241Y25240D01*
X222294Y25336D01*
X222351Y25431D01*
X222412Y25524D01*
X222475Y25615D01*
X222542Y25704D01*
X222612Y25790D01*
X222685Y25873D01*
X222760Y25955D01*
X222838Y26033D01*
X222920Y26108D01*
X223003Y26181D01*
X223089Y26251D01*
X223178Y26318D01*
X223269Y26381D01*
X223362Y26442D01*
X223457Y26499D01*
X223553Y26552D01*
X223652Y26603D01*
X223753Y26650D01*
X223855Y26693D01*
X223958Y26733D01*
X224063Y26769D01*
X224169Y26801D01*
X224276Y26830D01*
X224384Y26855D01*
X224493Y26876D01*
X224602Y26893D01*
X224712Y26907D01*
X224823Y26916D01*
X224933Y26922D01*
X225044Y26924D01*
X230124Y26924D01*
X230235Y26922D01*
X230345Y26916D01*
X230456Y26907D01*
X230566Y26893D01*
X230675Y26876D01*
X230784Y26855D01*
X230892Y26830D01*
X230999Y26801D01*
X231105Y26769D01*
X231210Y26733D01*
X231313Y26693D01*
X231415Y26650D01*
X231516Y26603D01*
X231615Y26552D01*
X231712Y26499D01*
X231806Y26442D01*
X231899Y26381D01*
X231990Y26318D01*
X232079Y26251D01*
X232165Y26181D01*
X232248Y26108D01*
X232330Y26033D01*
X232408Y25955D01*
X232483Y25873D01*
X232556Y25790D01*
X232626Y25704D01*
X232693Y25615D01*
X232756Y25524D01*
X232817Y25431D01*
X232874Y25337D01*
X232927Y25240D01*
X232978Y25141D01*
X233025Y25040D01*
X233068Y24938D01*
X233108Y24835D01*
X233144Y24730D01*
X233176Y24624D01*
X233205Y24517D01*
X233230Y24409D01*
X233251Y24300D01*
X233268Y24191D01*
X233282Y24081D01*
X233291Y23970D01*
X233297Y23860D01*
X233299Y23749D01*
X233299Y20574D01*
X224409Y32385D02*
X221869Y35560D01*
X233299Y35560D01*
X233299Y32385D02*
X233299Y38735D01*
D16*
X359410Y92710D02*
X359412Y92810D01*
X359418Y92909D01*
X359428Y93009D01*
X359441Y93107D01*
X359459Y93206D01*
X359480Y93303D01*
X359505Y93399D01*
X359534Y93495D01*
X359567Y93589D01*
X359603Y93682D01*
X359643Y93773D01*
X359687Y93863D01*
X359734Y93951D01*
X359784Y94037D01*
X359838Y94121D01*
X359895Y94203D01*
X359955Y94282D01*
X360019Y94360D01*
X360085Y94434D01*
X360154Y94506D01*
X360226Y94575D01*
X360300Y94641D01*
X360378Y94705D01*
X360457Y94765D01*
X360539Y94822D01*
X360623Y94876D01*
X360709Y94926D01*
X360797Y94973D01*
X360887Y95017D01*
X360978Y95057D01*
X361071Y95093D01*
X361165Y95126D01*
X361261Y95155D01*
X361357Y95180D01*
X361454Y95201D01*
X361553Y95219D01*
X361651Y95232D01*
X361751Y95242D01*
X361850Y95248D01*
X361950Y95250D01*
X359410Y74930D02*
X359412Y74830D01*
X359418Y74731D01*
X359428Y74631D01*
X359441Y74533D01*
X359459Y74434D01*
X359480Y74337D01*
X359505Y74241D01*
X359534Y74145D01*
X359567Y74051D01*
X359603Y73958D01*
X359643Y73867D01*
X359687Y73777D01*
X359734Y73689D01*
X359784Y73603D01*
X359838Y73519D01*
X359895Y73437D01*
X359955Y73358D01*
X360019Y73280D01*
X360085Y73206D01*
X360154Y73134D01*
X360226Y73065D01*
X360300Y72999D01*
X360378Y72935D01*
X360457Y72875D01*
X360539Y72818D01*
X360623Y72764D01*
X360709Y72714D01*
X360797Y72667D01*
X360887Y72623D01*
X360978Y72583D01*
X361071Y72547D01*
X361165Y72514D01*
X361261Y72485D01*
X361357Y72460D01*
X361454Y72439D01*
X361553Y72421D01*
X361651Y72408D01*
X361751Y72398D01*
X361850Y72392D01*
X361950Y72390D01*
X420370Y72390D02*
X420470Y72392D01*
X420569Y72398D01*
X420669Y72408D01*
X420767Y72421D01*
X420866Y72439D01*
X420963Y72460D01*
X421059Y72485D01*
X421155Y72514D01*
X421249Y72547D01*
X421342Y72583D01*
X421433Y72623D01*
X421523Y72667D01*
X421611Y72714D01*
X421697Y72764D01*
X421781Y72818D01*
X421863Y72875D01*
X421942Y72935D01*
X422020Y72999D01*
X422094Y73065D01*
X422166Y73134D01*
X422235Y73206D01*
X422301Y73280D01*
X422365Y73358D01*
X422425Y73437D01*
X422482Y73519D01*
X422536Y73603D01*
X422586Y73689D01*
X422633Y73777D01*
X422677Y73867D01*
X422717Y73958D01*
X422753Y74051D01*
X422786Y74145D01*
X422815Y74241D01*
X422840Y74337D01*
X422861Y74434D01*
X422879Y74533D01*
X422892Y74631D01*
X422902Y74731D01*
X422908Y74830D01*
X422910Y74930D01*
X422910Y92710D02*
X422908Y92810D01*
X422902Y92909D01*
X422892Y93009D01*
X422879Y93107D01*
X422861Y93206D01*
X422840Y93303D01*
X422815Y93399D01*
X422786Y93495D01*
X422753Y93589D01*
X422717Y93682D01*
X422677Y93773D01*
X422633Y93863D01*
X422586Y93951D01*
X422536Y94037D01*
X422482Y94121D01*
X422425Y94203D01*
X422365Y94282D01*
X422301Y94360D01*
X422235Y94434D01*
X422166Y94506D01*
X422094Y94575D01*
X422020Y94641D01*
X421942Y94705D01*
X421863Y94765D01*
X421781Y94822D01*
X421697Y94876D01*
X421611Y94926D01*
X421523Y94973D01*
X421433Y95017D01*
X421342Y95057D01*
X421249Y95093D01*
X421155Y95126D01*
X421059Y95155D01*
X420963Y95180D01*
X420866Y95201D01*
X420767Y95219D01*
X420669Y95232D01*
X420569Y95242D01*
X420470Y95248D01*
X420370Y95250D01*
X359410Y92710D02*
X359410Y74930D01*
X361950Y95250D02*
X365760Y95250D01*
X367030Y93980D01*
X365760Y72390D02*
X361950Y72390D01*
X365760Y72390D02*
X367030Y73660D01*
X415290Y93980D02*
X416560Y95250D01*
X415290Y93980D02*
X367030Y93980D01*
X415290Y73660D02*
X416560Y72390D01*
X415290Y73660D02*
X367030Y73660D01*
X416560Y95250D02*
X420370Y95250D01*
X420370Y72390D02*
X416560Y72390D01*
X422910Y74930D02*
X422910Y92710D01*
D17*
X427228Y83820D03*
X355092Y83820D03*
D11*
X361315Y99695D02*
X361315Y111125D01*
X364490Y111125D01*
X364601Y111123D01*
X364711Y111117D01*
X364822Y111108D01*
X364932Y111094D01*
X365041Y111077D01*
X365150Y111056D01*
X365258Y111031D01*
X365365Y111002D01*
X365471Y110970D01*
X365576Y110934D01*
X365679Y110894D01*
X365781Y110851D01*
X365882Y110804D01*
X365981Y110753D01*
X366078Y110700D01*
X366172Y110643D01*
X366265Y110582D01*
X366356Y110519D01*
X366445Y110452D01*
X366531Y110382D01*
X366614Y110309D01*
X366696Y110234D01*
X366774Y110156D01*
X366849Y110074D01*
X366922Y109991D01*
X366992Y109905D01*
X367059Y109816D01*
X367122Y109725D01*
X367183Y109632D01*
X367240Y109537D01*
X367293Y109441D01*
X367344Y109342D01*
X367391Y109241D01*
X367434Y109139D01*
X367474Y109036D01*
X367510Y108931D01*
X367542Y108825D01*
X367571Y108718D01*
X367596Y108610D01*
X367617Y108501D01*
X367634Y108392D01*
X367648Y108282D01*
X367657Y108171D01*
X367663Y108061D01*
X367665Y107950D01*
X367663Y107839D01*
X367657Y107729D01*
X367648Y107618D01*
X367634Y107508D01*
X367617Y107399D01*
X367596Y107290D01*
X367571Y107182D01*
X367542Y107075D01*
X367510Y106969D01*
X367474Y106864D01*
X367434Y106761D01*
X367391Y106659D01*
X367344Y106558D01*
X367293Y106459D01*
X367240Y106362D01*
X367183Y106268D01*
X367122Y106175D01*
X367059Y106084D01*
X366992Y105995D01*
X366922Y105909D01*
X366849Y105826D01*
X366774Y105744D01*
X366696Y105666D01*
X366614Y105591D01*
X366531Y105518D01*
X366445Y105448D01*
X366356Y105381D01*
X366265Y105318D01*
X366172Y105257D01*
X366078Y105200D01*
X365981Y105147D01*
X365882Y105096D01*
X365781Y105049D01*
X365679Y105006D01*
X365576Y104966D01*
X365471Y104930D01*
X365365Y104898D01*
X365258Y104869D01*
X365150Y104844D01*
X365041Y104823D01*
X364932Y104806D01*
X364822Y104792D01*
X364711Y104783D01*
X364601Y104777D01*
X364490Y104775D01*
X361315Y104775D01*
X365125Y104775D02*
X367665Y99695D01*
X372662Y108585D02*
X375837Y111125D01*
X375837Y99695D01*
X372662Y99695D02*
X379012Y99695D01*
M02*
