G04 EAGLE Gerber RS-274X export*
G75*
%MOIN*%
%FSLAX24Y24*%
%LPD*%
%INCuting*%
%IPPOS*%
%AMOC8*
5,1,8,0,0,1.08239X$1,22.5*%
G01*
%ADD10C,0.000000*%
%ADD11C,0.010000*%


D10*
X24500Y19500D02*
X24440Y19498D01*
X24379Y19493D01*
X24320Y19484D01*
X24261Y19471D01*
X24202Y19455D01*
X24145Y19435D01*
X24090Y19412D01*
X24035Y19385D01*
X23983Y19356D01*
X23932Y19323D01*
X23883Y19287D01*
X23837Y19249D01*
X23793Y19207D01*
X23751Y19163D01*
X23713Y19117D01*
X23677Y19068D01*
X23644Y19017D01*
X23615Y18965D01*
X23588Y18910D01*
X23565Y18855D01*
X23545Y18798D01*
X23529Y18739D01*
X23516Y18680D01*
X23507Y18621D01*
X23502Y18560D01*
X23500Y18500D01*
X23500Y17000D02*
X23502Y16940D01*
X23507Y16879D01*
X23516Y16820D01*
X23529Y16761D01*
X23545Y16702D01*
X23565Y16645D01*
X23588Y16590D01*
X23615Y16535D01*
X23644Y16483D01*
X23677Y16432D01*
X23713Y16383D01*
X23751Y16337D01*
X23793Y16293D01*
X23837Y16251D01*
X23883Y16213D01*
X23932Y16177D01*
X23983Y16144D01*
X24035Y16115D01*
X24090Y16088D01*
X24145Y16065D01*
X24202Y16045D01*
X24261Y16029D01*
X24320Y16016D01*
X24379Y16007D01*
X24440Y16002D01*
X24500Y16000D01*
X23500Y17000D02*
X23500Y18500D01*
X24500Y19500D02*
X30000Y19500D01*
X30044Y19502D01*
X30087Y19508D01*
X30129Y19517D01*
X30171Y19530D01*
X30211Y19547D01*
X30250Y19567D01*
X30287Y19590D01*
X30321Y19617D01*
X30354Y19646D01*
X30383Y19679D01*
X30410Y19713D01*
X30433Y19750D01*
X30453Y19789D01*
X30470Y19829D01*
X30483Y19871D01*
X30492Y19913D01*
X30498Y19956D01*
X30500Y20000D01*
X30500Y24000D01*
X30000Y24500D02*
X500Y24500D01*
X0Y24000D02*
X0Y500D01*
X500Y0D02*
X30000Y0D01*
X30000Y16000D02*
X24500Y16000D01*
X30500Y15500D02*
X30500Y500D01*
X30500Y15500D02*
X30498Y15544D01*
X30492Y15587D01*
X30483Y15629D01*
X30470Y15671D01*
X30453Y15711D01*
X30433Y15750D01*
X30410Y15787D01*
X30383Y15821D01*
X30354Y15854D01*
X30321Y15883D01*
X30287Y15910D01*
X30250Y15933D01*
X30211Y15953D01*
X30171Y15970D01*
X30129Y15983D01*
X30087Y15992D01*
X30044Y15998D01*
X30000Y16000D01*
X30500Y24000D02*
X30498Y24044D01*
X30492Y24087D01*
X30483Y24129D01*
X30470Y24171D01*
X30453Y24211D01*
X30433Y24250D01*
X30410Y24287D01*
X30383Y24321D01*
X30354Y24354D01*
X30321Y24383D01*
X30287Y24410D01*
X30250Y24433D01*
X30211Y24453D01*
X30171Y24470D01*
X30129Y24483D01*
X30087Y24492D01*
X30044Y24498D01*
X30000Y24500D01*
X500Y24500D02*
X456Y24498D01*
X413Y24492D01*
X371Y24483D01*
X329Y24470D01*
X289Y24453D01*
X250Y24433D01*
X213Y24410D01*
X179Y24383D01*
X146Y24354D01*
X117Y24321D01*
X90Y24287D01*
X67Y24250D01*
X47Y24211D01*
X30Y24171D01*
X17Y24129D01*
X8Y24087D01*
X2Y24044D01*
X0Y24000D01*
X0Y500D02*
X2Y456D01*
X8Y413D01*
X17Y371D01*
X30Y329D01*
X47Y289D01*
X67Y250D01*
X90Y213D01*
X117Y179D01*
X146Y146D01*
X179Y117D01*
X213Y90D01*
X250Y67D01*
X289Y47D01*
X329Y30D01*
X371Y17D01*
X413Y8D01*
X456Y2D01*
X500Y0D01*
X30000Y0D02*
X30044Y2D01*
X30087Y8D01*
X30129Y17D01*
X30171Y30D01*
X30211Y47D01*
X30250Y67D01*
X30287Y90D01*
X30321Y117D01*
X30354Y146D01*
X30383Y179D01*
X30410Y213D01*
X30433Y250D01*
X30453Y289D01*
X30470Y329D01*
X30483Y371D01*
X30492Y413D01*
X30498Y456D01*
X30500Y500D01*
X9500Y1500D02*
X9500Y2500D01*
X10000Y2500D02*
X10000Y1500D01*
X10000Y2500D02*
X9998Y2530D01*
X9993Y2560D01*
X9984Y2589D01*
X9971Y2616D01*
X9956Y2642D01*
X9937Y2666D01*
X9916Y2687D01*
X9892Y2706D01*
X9866Y2721D01*
X9839Y2734D01*
X9810Y2743D01*
X9780Y2748D01*
X9750Y2750D01*
X9720Y2748D01*
X9690Y2743D01*
X9661Y2734D01*
X9634Y2721D01*
X9608Y2706D01*
X9584Y2687D01*
X9563Y2666D01*
X9544Y2642D01*
X9529Y2616D01*
X9516Y2589D01*
X9507Y2560D01*
X9502Y2530D01*
X9500Y2500D01*
X9000Y2000D02*
X9500Y1500D01*
X9000Y1500D02*
X9000Y2000D01*
X10000Y1500D02*
X10500Y2000D01*
X10500Y1500D01*
X10000Y1000D01*
X9500Y1000D02*
X9000Y1500D01*
X9500Y1000D02*
X9750Y750D01*
X10000Y1000D01*
X22500Y7500D02*
X22500Y8500D01*
X23000Y8500D02*
X23000Y7500D01*
X23000Y8500D02*
X22998Y8530D01*
X22993Y8560D01*
X22984Y8589D01*
X22971Y8616D01*
X22956Y8642D01*
X22937Y8666D01*
X22916Y8687D01*
X22892Y8706D01*
X22866Y8721D01*
X22839Y8734D01*
X22810Y8743D01*
X22780Y8748D01*
X22750Y8750D01*
X22720Y8748D01*
X22690Y8743D01*
X22661Y8734D01*
X22634Y8721D01*
X22608Y8706D01*
X22584Y8687D01*
X22563Y8666D01*
X22544Y8642D01*
X22529Y8616D01*
X22516Y8589D01*
X22507Y8560D01*
X22502Y8530D01*
X22500Y8500D01*
X22000Y8000D02*
X22500Y7500D01*
X22000Y7500D02*
X22000Y8000D01*
X23000Y7500D02*
X23500Y8000D01*
X23500Y7500D01*
X23000Y7000D01*
X22500Y7000D02*
X22000Y7500D01*
X22500Y7000D02*
X22750Y6750D01*
X23000Y7000D01*
X1409Y2000D02*
X1411Y2048D01*
X1417Y2096D01*
X1427Y2143D01*
X1440Y2189D01*
X1458Y2234D01*
X1478Y2278D01*
X1503Y2320D01*
X1531Y2359D01*
X1561Y2396D01*
X1595Y2430D01*
X1632Y2462D01*
X1670Y2491D01*
X1711Y2516D01*
X1754Y2538D01*
X1799Y2556D01*
X1845Y2570D01*
X1892Y2581D01*
X1940Y2588D01*
X1988Y2591D01*
X2036Y2590D01*
X2084Y2585D01*
X2132Y2576D01*
X2178Y2564D01*
X2223Y2547D01*
X2267Y2527D01*
X2309Y2504D01*
X2349Y2477D01*
X2387Y2447D01*
X2422Y2414D01*
X2454Y2378D01*
X2484Y2340D01*
X2510Y2299D01*
X2532Y2256D01*
X2552Y2212D01*
X2567Y2167D01*
X2579Y2120D01*
X2587Y2072D01*
X2591Y2024D01*
X2591Y1976D01*
X2587Y1928D01*
X2579Y1880D01*
X2567Y1833D01*
X2552Y1788D01*
X2532Y1744D01*
X2510Y1701D01*
X2484Y1660D01*
X2454Y1622D01*
X2422Y1586D01*
X2387Y1553D01*
X2349Y1523D01*
X2309Y1496D01*
X2267Y1473D01*
X2223Y1453D01*
X2178Y1436D01*
X2132Y1424D01*
X2084Y1415D01*
X2036Y1410D01*
X1988Y1409D01*
X1940Y1412D01*
X1892Y1419D01*
X1845Y1430D01*
X1799Y1444D01*
X1754Y1462D01*
X1711Y1484D01*
X1670Y1509D01*
X1632Y1538D01*
X1595Y1570D01*
X1561Y1604D01*
X1531Y1641D01*
X1503Y1680D01*
X1478Y1722D01*
X1458Y1766D01*
X1440Y1811D01*
X1427Y1857D01*
X1417Y1904D01*
X1411Y1952D01*
X1409Y2000D01*
X1409Y22500D02*
X1411Y22548D01*
X1417Y22596D01*
X1427Y22643D01*
X1440Y22689D01*
X1458Y22734D01*
X1478Y22778D01*
X1503Y22820D01*
X1531Y22859D01*
X1561Y22896D01*
X1595Y22930D01*
X1632Y22962D01*
X1670Y22991D01*
X1711Y23016D01*
X1754Y23038D01*
X1799Y23056D01*
X1845Y23070D01*
X1892Y23081D01*
X1940Y23088D01*
X1988Y23091D01*
X2036Y23090D01*
X2084Y23085D01*
X2132Y23076D01*
X2178Y23064D01*
X2223Y23047D01*
X2267Y23027D01*
X2309Y23004D01*
X2349Y22977D01*
X2387Y22947D01*
X2422Y22914D01*
X2454Y22878D01*
X2484Y22840D01*
X2510Y22799D01*
X2532Y22756D01*
X2552Y22712D01*
X2567Y22667D01*
X2579Y22620D01*
X2587Y22572D01*
X2591Y22524D01*
X2591Y22476D01*
X2587Y22428D01*
X2579Y22380D01*
X2567Y22333D01*
X2552Y22288D01*
X2532Y22244D01*
X2510Y22201D01*
X2484Y22160D01*
X2454Y22122D01*
X2422Y22086D01*
X2387Y22053D01*
X2349Y22023D01*
X2309Y21996D01*
X2267Y21973D01*
X2223Y21953D01*
X2178Y21936D01*
X2132Y21924D01*
X2084Y21915D01*
X2036Y21910D01*
X1988Y21909D01*
X1940Y21912D01*
X1892Y21919D01*
X1845Y21930D01*
X1799Y21944D01*
X1754Y21962D01*
X1711Y21984D01*
X1670Y22009D01*
X1632Y22038D01*
X1595Y22070D01*
X1561Y22104D01*
X1531Y22141D01*
X1503Y22180D01*
X1478Y22222D01*
X1458Y22266D01*
X1440Y22311D01*
X1427Y22357D01*
X1417Y22404D01*
X1411Y22452D01*
X1409Y22500D01*
X27909Y22500D02*
X27911Y22548D01*
X27917Y22596D01*
X27927Y22643D01*
X27940Y22689D01*
X27958Y22734D01*
X27978Y22778D01*
X28003Y22820D01*
X28031Y22859D01*
X28061Y22896D01*
X28095Y22930D01*
X28132Y22962D01*
X28170Y22991D01*
X28211Y23016D01*
X28254Y23038D01*
X28299Y23056D01*
X28345Y23070D01*
X28392Y23081D01*
X28440Y23088D01*
X28488Y23091D01*
X28536Y23090D01*
X28584Y23085D01*
X28632Y23076D01*
X28678Y23064D01*
X28723Y23047D01*
X28767Y23027D01*
X28809Y23004D01*
X28849Y22977D01*
X28887Y22947D01*
X28922Y22914D01*
X28954Y22878D01*
X28984Y22840D01*
X29010Y22799D01*
X29032Y22756D01*
X29052Y22712D01*
X29067Y22667D01*
X29079Y22620D01*
X29087Y22572D01*
X29091Y22524D01*
X29091Y22476D01*
X29087Y22428D01*
X29079Y22380D01*
X29067Y22333D01*
X29052Y22288D01*
X29032Y22244D01*
X29010Y22201D01*
X28984Y22160D01*
X28954Y22122D01*
X28922Y22086D01*
X28887Y22053D01*
X28849Y22023D01*
X28809Y21996D01*
X28767Y21973D01*
X28723Y21953D01*
X28678Y21936D01*
X28632Y21924D01*
X28584Y21915D01*
X28536Y21910D01*
X28488Y21909D01*
X28440Y21912D01*
X28392Y21919D01*
X28345Y21930D01*
X28299Y21944D01*
X28254Y21962D01*
X28211Y21984D01*
X28170Y22009D01*
X28132Y22038D01*
X28095Y22070D01*
X28061Y22104D01*
X28031Y22141D01*
X28003Y22180D01*
X27978Y22222D01*
X27958Y22266D01*
X27940Y22311D01*
X27927Y22357D01*
X27917Y22404D01*
X27911Y22452D01*
X27909Y22500D01*
X27909Y2000D02*
X27911Y2048D01*
X27917Y2096D01*
X27927Y2143D01*
X27940Y2189D01*
X27958Y2234D01*
X27978Y2278D01*
X28003Y2320D01*
X28031Y2359D01*
X28061Y2396D01*
X28095Y2430D01*
X28132Y2462D01*
X28170Y2491D01*
X28211Y2516D01*
X28254Y2538D01*
X28299Y2556D01*
X28345Y2570D01*
X28392Y2581D01*
X28440Y2588D01*
X28488Y2591D01*
X28536Y2590D01*
X28584Y2585D01*
X28632Y2576D01*
X28678Y2564D01*
X28723Y2547D01*
X28767Y2527D01*
X28809Y2504D01*
X28849Y2477D01*
X28887Y2447D01*
X28922Y2414D01*
X28954Y2378D01*
X28984Y2340D01*
X29010Y2299D01*
X29032Y2256D01*
X29052Y2212D01*
X29067Y2167D01*
X29079Y2120D01*
X29087Y2072D01*
X29091Y2024D01*
X29091Y1976D01*
X29087Y1928D01*
X29079Y1880D01*
X29067Y1833D01*
X29052Y1788D01*
X29032Y1744D01*
X29010Y1701D01*
X28984Y1660D01*
X28954Y1622D01*
X28922Y1586D01*
X28887Y1553D01*
X28849Y1523D01*
X28809Y1496D01*
X28767Y1473D01*
X28723Y1453D01*
X28678Y1436D01*
X28632Y1424D01*
X28584Y1415D01*
X28536Y1410D01*
X28488Y1409D01*
X28440Y1412D01*
X28392Y1419D01*
X28345Y1430D01*
X28299Y1444D01*
X28254Y1462D01*
X28211Y1484D01*
X28170Y1509D01*
X28132Y1538D01*
X28095Y1570D01*
X28061Y1604D01*
X28031Y1641D01*
X28003Y1680D01*
X27978Y1722D01*
X27958Y1766D01*
X27940Y1811D01*
X27927Y1857D01*
X27917Y1904D01*
X27911Y1952D01*
X27909Y2000D01*
D11*
X0Y500D02*
X2Y456D01*
X8Y413D01*
X17Y371D01*
X30Y329D01*
X47Y289D01*
X67Y250D01*
X90Y213D01*
X117Y179D01*
X146Y146D01*
X179Y117D01*
X213Y90D01*
X250Y67D01*
X289Y47D01*
X329Y30D01*
X371Y17D01*
X413Y8D01*
X456Y2D01*
X500Y0D01*
X30000Y0D01*
X30044Y2D01*
X30087Y8D01*
X30129Y17D01*
X30171Y30D01*
X30211Y47D01*
X30250Y67D01*
X30287Y90D01*
X30321Y117D01*
X30354Y146D01*
X30383Y179D01*
X30410Y213D01*
X30433Y250D01*
X30453Y289D01*
X30470Y329D01*
X30483Y371D01*
X30492Y413D01*
X30498Y456D01*
X30500Y500D01*
X30500Y15500D01*
X30498Y15544D01*
X30492Y15587D01*
X30483Y15629D01*
X30470Y15671D01*
X30453Y15711D01*
X30433Y15750D01*
X30410Y15787D01*
X30383Y15821D01*
X30354Y15854D01*
X30321Y15883D01*
X30287Y15910D01*
X30250Y15933D01*
X30211Y15953D01*
X30171Y15970D01*
X30129Y15983D01*
X30087Y15992D01*
X30044Y15998D01*
X30000Y16000D01*
X24500Y16000D01*
X24413Y16004D01*
X24326Y16015D01*
X24241Y16034D01*
X24158Y16060D01*
X24077Y16094D01*
X24000Y16134D01*
X23926Y16181D01*
X23857Y16234D01*
X23793Y16293D01*
X23734Y16357D01*
X23681Y16426D01*
X23634Y16500D01*
X23594Y16577D01*
X23560Y16658D01*
X23534Y16741D01*
X23515Y16826D01*
X23504Y16913D01*
X23500Y17000D01*
X23500Y18500D01*
X23504Y18587D01*
X23515Y18674D01*
X23534Y18759D01*
X23560Y18842D01*
X23594Y18923D01*
X23634Y19000D01*
X23681Y19074D01*
X23734Y19143D01*
X23793Y19207D01*
X23857Y19266D01*
X23926Y19319D01*
X24000Y19366D01*
X24077Y19406D01*
X24158Y19440D01*
X24241Y19466D01*
X24326Y19485D01*
X24413Y19496D01*
X24500Y19500D01*
X30000Y19500D01*
X30044Y19502D01*
X30087Y19508D01*
X30129Y19517D01*
X30171Y19530D01*
X30211Y19547D01*
X30250Y19567D01*
X30287Y19590D01*
X30321Y19617D01*
X30354Y19646D01*
X30383Y19679D01*
X30410Y19713D01*
X30433Y19750D01*
X30453Y19789D01*
X30470Y19829D01*
X30483Y19871D01*
X30492Y19913D01*
X30498Y19956D01*
X30500Y20000D01*
X30500Y24000D01*
X30498Y24044D01*
X30492Y24087D01*
X30483Y24129D01*
X30470Y24171D01*
X30453Y24211D01*
X30433Y24250D01*
X30410Y24287D01*
X30383Y24321D01*
X30354Y24354D01*
X30321Y24383D01*
X30287Y24410D01*
X30250Y24433D01*
X30211Y24453D01*
X30171Y24470D01*
X30129Y24483D01*
X30087Y24492D01*
X30044Y24498D01*
X30000Y24500D01*
X500Y24500D01*
X456Y24498D01*
X413Y24492D01*
X371Y24483D01*
X329Y24470D01*
X289Y24453D01*
X250Y24433D01*
X213Y24410D01*
X179Y24383D01*
X146Y24354D01*
X117Y24321D01*
X90Y24287D01*
X67Y24250D01*
X47Y24211D01*
X30Y24171D01*
X17Y24129D01*
X8Y24087D01*
X2Y24044D01*
X0Y24000D01*
X0Y500D01*
X22000Y7500D02*
X22500Y7000D01*
X22750Y6750D01*
X23000Y7000D01*
X23500Y7500D01*
X23500Y8000D01*
X23000Y7500D01*
X23000Y8500D01*
X22999Y8522D01*
X22996Y8543D01*
X22991Y8565D01*
X22985Y8586D01*
X22977Y8606D01*
X22967Y8625D01*
X22955Y8643D01*
X22942Y8661D01*
X22927Y8677D01*
X22911Y8692D01*
X22893Y8705D01*
X22875Y8717D01*
X22856Y8727D01*
X22836Y8735D01*
X22815Y8741D01*
X22793Y8746D01*
X22772Y8749D01*
X22750Y8750D01*
X22728Y8749D01*
X22707Y8746D01*
X22685Y8741D01*
X22664Y8735D01*
X22644Y8727D01*
X22625Y8717D01*
X22607Y8705D01*
X22589Y8692D01*
X22573Y8677D01*
X22558Y8661D01*
X22545Y8643D01*
X22533Y8625D01*
X22523Y8606D01*
X22515Y8586D01*
X22509Y8565D01*
X22504Y8543D01*
X22501Y8522D01*
X22500Y8500D01*
X22500Y7500D01*
X22000Y8000D01*
X22000Y7500D01*
X9000Y1500D02*
X9500Y1000D01*
X9750Y750D01*
X10000Y1000D01*
X10500Y1500D01*
X10500Y2000D01*
X10000Y1500D01*
X10000Y2500D01*
X9999Y2522D01*
X9996Y2543D01*
X9991Y2565D01*
X9985Y2586D01*
X9977Y2606D01*
X9967Y2625D01*
X9955Y2643D01*
X9942Y2661D01*
X9927Y2677D01*
X9911Y2692D01*
X9893Y2705D01*
X9875Y2717D01*
X9856Y2727D01*
X9836Y2735D01*
X9815Y2741D01*
X9793Y2746D01*
X9772Y2749D01*
X9750Y2750D01*
X9728Y2749D01*
X9707Y2746D01*
X9685Y2741D01*
X9664Y2735D01*
X9644Y2727D01*
X9625Y2717D01*
X9607Y2705D01*
X9589Y2692D01*
X9573Y2677D01*
X9558Y2661D01*
X9545Y2643D01*
X9533Y2625D01*
X9523Y2606D01*
X9515Y2586D01*
X9509Y2565D01*
X9504Y2543D01*
X9501Y2522D01*
X9500Y2500D01*
X9500Y1500D01*
X9000Y2000D01*
X9000Y1500D01*
X2591Y1979D02*
X2588Y1937D01*
X2582Y1895D01*
X2573Y1854D01*
X2561Y1813D01*
X2546Y1774D01*
X2528Y1735D01*
X2508Y1698D01*
X2485Y1663D01*
X2460Y1629D01*
X2432Y1597D01*
X2403Y1568D01*
X2371Y1540D01*
X2337Y1515D01*
X2302Y1492D01*
X2265Y1472D01*
X2226Y1454D01*
X2187Y1439D01*
X2146Y1427D01*
X2105Y1418D01*
X2063Y1412D01*
X2021Y1409D01*
X1979Y1409D01*
X1937Y1412D01*
X1895Y1418D01*
X1854Y1427D01*
X1813Y1439D01*
X1774Y1454D01*
X1735Y1472D01*
X1698Y1492D01*
X1663Y1515D01*
X1629Y1540D01*
X1597Y1568D01*
X1568Y1597D01*
X1540Y1629D01*
X1515Y1663D01*
X1492Y1698D01*
X1472Y1735D01*
X1454Y1774D01*
X1439Y1813D01*
X1427Y1854D01*
X1418Y1895D01*
X1412Y1937D01*
X1409Y1979D01*
X1409Y2021D01*
X1412Y2063D01*
X1418Y2105D01*
X1427Y2146D01*
X1439Y2187D01*
X1454Y2226D01*
X1472Y2265D01*
X1492Y2302D01*
X1515Y2337D01*
X1540Y2371D01*
X1568Y2403D01*
X1597Y2432D01*
X1629Y2460D01*
X1663Y2485D01*
X1698Y2508D01*
X1735Y2528D01*
X1774Y2546D01*
X1813Y2561D01*
X1854Y2573D01*
X1895Y2582D01*
X1937Y2588D01*
X1979Y2591D01*
X2021Y2591D01*
X2063Y2588D01*
X2105Y2582D01*
X2146Y2573D01*
X2187Y2561D01*
X2226Y2546D01*
X2265Y2528D01*
X2302Y2508D01*
X2337Y2485D01*
X2371Y2460D01*
X2403Y2432D01*
X2432Y2403D01*
X2460Y2371D01*
X2485Y2337D01*
X2508Y2302D01*
X2528Y2265D01*
X2546Y2226D01*
X2561Y2187D01*
X2573Y2146D01*
X2582Y2105D01*
X2588Y2063D01*
X2591Y2021D01*
X2591Y1979D01*
X2591Y22479D02*
X2588Y22437D01*
X2582Y22395D01*
X2573Y22354D01*
X2561Y22313D01*
X2546Y22274D01*
X2528Y22235D01*
X2508Y22198D01*
X2485Y22163D01*
X2460Y22129D01*
X2432Y22097D01*
X2403Y22068D01*
X2371Y22040D01*
X2337Y22015D01*
X2302Y21992D01*
X2265Y21972D01*
X2226Y21954D01*
X2187Y21939D01*
X2146Y21927D01*
X2105Y21918D01*
X2063Y21912D01*
X2021Y21909D01*
X1979Y21909D01*
X1937Y21912D01*
X1895Y21918D01*
X1854Y21927D01*
X1813Y21939D01*
X1774Y21954D01*
X1735Y21972D01*
X1698Y21992D01*
X1663Y22015D01*
X1629Y22040D01*
X1597Y22068D01*
X1568Y22097D01*
X1540Y22129D01*
X1515Y22163D01*
X1492Y22198D01*
X1472Y22235D01*
X1454Y22274D01*
X1439Y22313D01*
X1427Y22354D01*
X1418Y22395D01*
X1412Y22437D01*
X1409Y22479D01*
X1409Y22521D01*
X1412Y22563D01*
X1418Y22605D01*
X1427Y22646D01*
X1439Y22687D01*
X1454Y22726D01*
X1472Y22765D01*
X1492Y22802D01*
X1515Y22837D01*
X1540Y22871D01*
X1568Y22903D01*
X1597Y22932D01*
X1629Y22960D01*
X1663Y22985D01*
X1698Y23008D01*
X1735Y23028D01*
X1774Y23046D01*
X1813Y23061D01*
X1854Y23073D01*
X1895Y23082D01*
X1937Y23088D01*
X1979Y23091D01*
X2021Y23091D01*
X2063Y23088D01*
X2105Y23082D01*
X2146Y23073D01*
X2187Y23061D01*
X2226Y23046D01*
X2265Y23028D01*
X2302Y23008D01*
X2337Y22985D01*
X2371Y22960D01*
X2403Y22932D01*
X2432Y22903D01*
X2460Y22871D01*
X2485Y22837D01*
X2508Y22802D01*
X2528Y22765D01*
X2546Y22726D01*
X2561Y22687D01*
X2573Y22646D01*
X2582Y22605D01*
X2588Y22563D01*
X2591Y22521D01*
X2591Y22479D01*
X29091Y22479D02*
X29088Y22437D01*
X29082Y22395D01*
X29073Y22354D01*
X29061Y22313D01*
X29046Y22274D01*
X29028Y22235D01*
X29008Y22198D01*
X28985Y22163D01*
X28960Y22129D01*
X28932Y22097D01*
X28903Y22068D01*
X28871Y22040D01*
X28837Y22015D01*
X28802Y21992D01*
X28765Y21972D01*
X28726Y21954D01*
X28687Y21939D01*
X28646Y21927D01*
X28605Y21918D01*
X28563Y21912D01*
X28521Y21909D01*
X28479Y21909D01*
X28437Y21912D01*
X28395Y21918D01*
X28354Y21927D01*
X28313Y21939D01*
X28274Y21954D01*
X28235Y21972D01*
X28198Y21992D01*
X28163Y22015D01*
X28129Y22040D01*
X28097Y22068D01*
X28068Y22097D01*
X28040Y22129D01*
X28015Y22163D01*
X27992Y22198D01*
X27972Y22235D01*
X27954Y22274D01*
X27939Y22313D01*
X27927Y22354D01*
X27918Y22395D01*
X27912Y22437D01*
X27909Y22479D01*
X27909Y22521D01*
X27912Y22563D01*
X27918Y22605D01*
X27927Y22646D01*
X27939Y22687D01*
X27954Y22726D01*
X27972Y22765D01*
X27992Y22802D01*
X28015Y22837D01*
X28040Y22871D01*
X28068Y22903D01*
X28097Y22932D01*
X28129Y22960D01*
X28163Y22985D01*
X28198Y23008D01*
X28235Y23028D01*
X28274Y23046D01*
X28313Y23061D01*
X28354Y23073D01*
X28395Y23082D01*
X28437Y23088D01*
X28479Y23091D01*
X28521Y23091D01*
X28563Y23088D01*
X28605Y23082D01*
X28646Y23073D01*
X28687Y23061D01*
X28726Y23046D01*
X28765Y23028D01*
X28802Y23008D01*
X28837Y22985D01*
X28871Y22960D01*
X28903Y22932D01*
X28932Y22903D01*
X28960Y22871D01*
X28985Y22837D01*
X29008Y22802D01*
X29028Y22765D01*
X29046Y22726D01*
X29061Y22687D01*
X29073Y22646D01*
X29082Y22605D01*
X29088Y22563D01*
X29091Y22521D01*
X29091Y22479D01*
X29091Y1979D02*
X29088Y1937D01*
X29082Y1895D01*
X29073Y1854D01*
X29061Y1813D01*
X29046Y1774D01*
X29028Y1735D01*
X29008Y1698D01*
X28985Y1663D01*
X28960Y1629D01*
X28932Y1597D01*
X28903Y1568D01*
X28871Y1540D01*
X28837Y1515D01*
X28802Y1492D01*
X28765Y1472D01*
X28726Y1454D01*
X28687Y1439D01*
X28646Y1427D01*
X28605Y1418D01*
X28563Y1412D01*
X28521Y1409D01*
X28479Y1409D01*
X28437Y1412D01*
X28395Y1418D01*
X28354Y1427D01*
X28313Y1439D01*
X28274Y1454D01*
X28235Y1472D01*
X28198Y1492D01*
X28163Y1515D01*
X28129Y1540D01*
X28097Y1568D01*
X28068Y1597D01*
X28040Y1629D01*
X28015Y1663D01*
X27992Y1698D01*
X27972Y1735D01*
X27954Y1774D01*
X27939Y1813D01*
X27927Y1854D01*
X27918Y1895D01*
X27912Y1937D01*
X27909Y1979D01*
X27909Y2021D01*
X27912Y2063D01*
X27918Y2105D01*
X27927Y2146D01*
X27939Y2187D01*
X27954Y2226D01*
X27972Y2265D01*
X27992Y2302D01*
X28015Y2337D01*
X28040Y2371D01*
X28068Y2403D01*
X28097Y2432D01*
X28129Y2460D01*
X28163Y2485D01*
X28198Y2508D01*
X28235Y2528D01*
X28274Y2546D01*
X28313Y2561D01*
X28354Y2573D01*
X28395Y2582D01*
X28437Y2588D01*
X28479Y2591D01*
X28521Y2591D01*
X28563Y2588D01*
X28605Y2582D01*
X28646Y2573D01*
X28687Y2561D01*
X28726Y2546D01*
X28765Y2528D01*
X28802Y2508D01*
X28837Y2485D01*
X28871Y2460D01*
X28903Y2432D01*
X28932Y2403D01*
X28960Y2371D01*
X28985Y2337D01*
X29008Y2302D01*
X29028Y2265D01*
X29046Y2226D01*
X29061Y2187D01*
X29073Y2146D01*
X29082Y2105D01*
X29088Y2063D01*
X29091Y2021D01*
X29091Y1979D01*
M02*
