G04 EAGLE Gerber RS-274X export*
G75*
%MOIN*%
%FSLAX24Y24*%
%LPD*%
%INBottom Layer*%
%IPPOS*%
%AMOC8*
5,1,8,0,0,1.08239X$1,22.5*%
G01*
%ADD10P,0.075767X8X22.500000*%
%ADD11P,0.075767X8X202.500000*%
%ADD12C,0.188976*%
%ADD13P,0.071438X8X202.500000*%
%ADD14P,0.056284X8X202.500000*%
%ADD15C,0.050000*%
%ADD16C,0.032000*%

G36*
X30000Y0D02*
X30000Y0D01*
X30087Y7D01*
X30171Y30D01*
X30250Y67D01*
X30322Y117D01*
X30383Y178D01*
X30433Y250D01*
X30470Y329D01*
X30493Y413D01*
X30493Y418D01*
X30493Y420D01*
X30494Y431D01*
X30494Y433D01*
X30495Y446D01*
X30496Y448D01*
X30497Y459D01*
X30497Y461D01*
X30498Y475D01*
X30498Y477D01*
X30499Y490D01*
X30500Y500D01*
X30500Y15500D01*
X30493Y15587D01*
X30470Y15671D01*
X30433Y15750D01*
X30383Y15822D01*
X30322Y15883D01*
X30250Y15933D01*
X30171Y15970D01*
X30087Y15993D01*
X30000Y16000D01*
X24500Y16000D01*
X24498Y16000D01*
X24495Y16001D01*
X24492Y16001D01*
X24490Y16001D01*
X24487Y16001D01*
X24484Y16001D01*
X24481Y16002D01*
X24479Y16002D01*
X24476Y16002D01*
X24473Y16002D01*
X24470Y16002D01*
X24468Y16003D01*
X24465Y16003D01*
X24462Y16003D01*
X24460Y16003D01*
X24457Y16003D01*
X24454Y16003D01*
X24451Y16004D01*
X24449Y16004D01*
X24446Y16004D01*
X24443Y16004D01*
X24440Y16004D01*
X24438Y16005D01*
X24435Y16005D01*
X24432Y16005D01*
X24429Y16005D01*
X24427Y16005D01*
X24424Y16006D01*
X24421Y16006D01*
X24418Y16006D01*
X24416Y16006D01*
X24413Y16006D01*
X24410Y16007D01*
X24408Y16007D01*
X24405Y16007D01*
X24402Y16007D01*
X24399Y16007D01*
X24397Y16008D01*
X24394Y16008D01*
X24391Y16008D01*
X24388Y16008D01*
X24386Y16008D01*
X24383Y16009D01*
X24380Y16009D01*
X24377Y16009D01*
X24375Y16009D01*
X24372Y16009D01*
X24369Y16010D01*
X24367Y16010D01*
X24364Y16010D01*
X24361Y16010D01*
X24358Y16010D01*
X24218Y16041D01*
X24085Y16091D01*
X23959Y16159D01*
X23845Y16244D01*
X23744Y16345D01*
X23659Y16459D01*
X23591Y16585D01*
X23541Y16718D01*
X23510Y16858D01*
X23500Y17000D01*
X23500Y18500D01*
X23500Y18501D01*
X23500Y18503D01*
X23500Y18504D01*
X23501Y18505D01*
X23501Y18506D01*
X23501Y18508D01*
X23501Y18509D01*
X23501Y18511D01*
X23501Y18512D01*
X23501Y18513D01*
X23501Y18515D01*
X23501Y18516D01*
X23501Y18518D01*
X23502Y18519D01*
X23502Y18520D01*
X23502Y18521D01*
X23502Y18523D01*
X23502Y18525D01*
X23502Y18526D01*
X23502Y18527D01*
X23502Y18528D01*
X23502Y18530D01*
X23502Y18531D01*
X23503Y18533D01*
X23503Y18534D01*
X23503Y18535D01*
X23503Y18537D01*
X23503Y18538D01*
X23503Y18540D01*
X23503Y18541D01*
X23503Y18542D01*
X23503Y18544D01*
X23503Y18545D01*
X23504Y18547D01*
X23504Y18548D01*
X23504Y18549D01*
X23504Y18550D01*
X23504Y18552D01*
X23504Y18554D01*
X23504Y18555D01*
X23504Y18556D01*
X23504Y18557D01*
X23504Y18559D01*
X23505Y18560D01*
X23505Y18562D01*
X23505Y18564D01*
X23505Y18566D01*
X23505Y18567D01*
X23505Y18569D01*
X23505Y18570D01*
X23505Y18571D01*
X23505Y18573D01*
X23505Y18574D01*
X23506Y18576D01*
X23506Y18577D01*
X23506Y18578D01*
X23506Y18579D01*
X23506Y18581D01*
X23506Y18583D01*
X23506Y18584D01*
X23506Y18586D01*
X23506Y18588D01*
X23507Y18589D01*
X23507Y18591D01*
X23507Y18592D01*
X23507Y18593D01*
X23507Y18595D01*
X23507Y18596D01*
X23507Y18598D01*
X23507Y18599D01*
X23507Y18600D01*
X23507Y18601D01*
X23508Y18603D01*
X23508Y18605D01*
X23508Y18606D01*
X23508Y18608D01*
X23508Y18610D01*
X23508Y18611D01*
X23508Y18613D01*
X23508Y18615D01*
X23509Y18617D01*
X23509Y18618D01*
X23509Y18620D01*
X23509Y18621D01*
X23509Y18622D01*
X23509Y18624D01*
X23509Y18625D01*
X23509Y18627D01*
X23509Y18628D01*
X23509Y18630D01*
X23510Y18630D01*
X23510Y18632D01*
X23510Y18634D01*
X23510Y18635D01*
X23510Y18637D01*
X23510Y18639D01*
X23510Y18640D01*
X23510Y18642D01*
X23541Y18782D01*
X23591Y18915D01*
X23659Y19041D01*
X23744Y19155D01*
X23845Y19256D01*
X23959Y19341D01*
X24085Y19409D01*
X24218Y19459D01*
X24358Y19490D01*
X24500Y19500D01*
X30000Y19500D01*
X30087Y19507D01*
X30171Y19530D01*
X30250Y19567D01*
X30322Y19617D01*
X30383Y19678D01*
X30433Y19750D01*
X30470Y19829D01*
X30493Y19913D01*
X30493Y19915D01*
X30493Y19917D01*
X30494Y19930D01*
X30494Y19932D01*
X30495Y19943D01*
X30495Y19946D01*
X30497Y19959D01*
X30497Y19961D01*
X30498Y19974D01*
X30499Y19987D01*
X30499Y19989D01*
X30500Y20000D01*
X30500Y24000D01*
X30493Y24087D01*
X30470Y24171D01*
X30433Y24250D01*
X30383Y24322D01*
X30322Y24383D01*
X30250Y24433D01*
X30171Y24470D01*
X30087Y24493D01*
X30000Y24500D01*
X500Y24500D01*
X413Y24493D01*
X329Y24470D01*
X250Y24433D01*
X178Y24383D01*
X117Y24322D01*
X67Y24250D01*
X30Y24171D01*
X7Y24087D01*
X6Y24074D01*
X6Y24072D01*
X5Y24059D01*
X4Y24046D01*
X4Y24043D01*
X2Y24030D01*
X1Y24017D01*
X1Y24015D01*
X0Y24002D01*
X0Y24000D01*
X0Y500D01*
X7Y413D01*
X30Y329D01*
X67Y250D01*
X117Y178D01*
X178Y117D01*
X250Y67D01*
X329Y30D01*
X413Y7D01*
X500Y0D01*
X30000Y0D01*
X30000Y0D01*
G37*
%LPC*%
G36*
X15306Y4032D02*
X15306Y4032D01*
X15116Y4222D01*
X10945Y4222D01*
X10843Y4264D01*
X9764Y5343D01*
X9722Y5445D01*
X9722Y7385D01*
X8885Y8222D01*
X4884Y8222D01*
X4694Y8032D01*
X4306Y8032D01*
X4032Y8306D01*
X4032Y8694D01*
X4306Y8968D01*
X4694Y8968D01*
X4884Y8778D01*
X8885Y8778D01*
X9722Y9615D01*
X9722Y12555D01*
X9764Y12657D01*
X9843Y12736D01*
X10843Y13736D01*
X10945Y13778D01*
X15116Y13778D01*
X15306Y13968D01*
X15694Y13968D01*
X15884Y13778D01*
X16385Y13778D01*
X16722Y14115D01*
X16722Y14555D01*
X16764Y14657D01*
X17343Y15236D01*
X17445Y15278D01*
X19555Y15278D01*
X19657Y15236D01*
X21736Y13157D01*
X21778Y13055D01*
X21778Y11115D01*
X23615Y9278D01*
X27616Y9278D01*
X27806Y9468D01*
X28194Y9468D01*
X28468Y9194D01*
X28468Y8806D01*
X28194Y8532D01*
X27806Y8532D01*
X27616Y8722D01*
X23445Y8722D01*
X23343Y8764D01*
X21264Y10843D01*
X21222Y10945D01*
X21222Y12885D01*
X19385Y14722D01*
X17615Y14722D01*
X17278Y14385D01*
X17278Y13945D01*
X17236Y13843D01*
X16657Y13264D01*
X16555Y13222D01*
X15884Y13222D01*
X15694Y13032D01*
X15306Y13032D01*
X15116Y13222D01*
X11115Y13222D01*
X10278Y12385D01*
X10278Y9445D01*
X10236Y9343D01*
X10157Y9264D01*
X9393Y8500D01*
X10236Y7657D01*
X10278Y7555D01*
X10278Y5615D01*
X11115Y4778D01*
X15116Y4778D01*
X15306Y4968D01*
X15694Y4968D01*
X15968Y4694D01*
X15968Y4306D01*
X15694Y4032D01*
X15306Y4032D01*
G37*
%LPD*%
%LPC*%
G36*
X7427Y3132D02*
X7427Y3132D01*
X7292Y3188D01*
X6348Y4132D01*
X4794Y4132D01*
X4694Y4032D01*
X4306Y4032D01*
X4032Y4306D01*
X4032Y4694D01*
X4306Y4968D01*
X4694Y4968D01*
X4794Y4868D01*
X6573Y4868D01*
X6708Y4812D01*
X7652Y3868D01*
X19151Y3868D01*
X19492Y4209D01*
X19470Y4247D01*
X19398Y4518D01*
X19398Y4797D01*
X19470Y5068D01*
X19610Y5310D01*
X19808Y5508D01*
X20050Y5648D01*
X20321Y5720D01*
X20601Y5720D01*
X20871Y5648D01*
X21113Y5508D01*
X21311Y5310D01*
X21451Y5068D01*
X21523Y4797D01*
X21523Y4518D01*
X21451Y4247D01*
X21311Y4005D01*
X21113Y3807D01*
X20871Y3667D01*
X20601Y3595D01*
X20321Y3595D01*
X20050Y3667D01*
X20013Y3689D01*
X20012Y3689D01*
X19512Y3188D01*
X19376Y3132D01*
X7427Y3132D01*
G37*
%LPD*%
%LPC*%
G36*
X27806Y9532D02*
X27806Y9532D01*
X27532Y9806D01*
X27532Y10194D01*
X27806Y10468D01*
X28194Y10468D01*
X28384Y10278D01*
X28385Y10278D01*
X29222Y11115D01*
X29222Y13885D01*
X28385Y14722D01*
X22445Y14722D01*
X22343Y14764D01*
X18885Y18222D01*
X15884Y18222D01*
X15694Y18032D01*
X15306Y18032D01*
X15032Y18306D01*
X15032Y18694D01*
X15306Y18968D01*
X15694Y18968D01*
X15884Y18778D01*
X19055Y18778D01*
X19157Y18736D01*
X22615Y15278D01*
X28555Y15278D01*
X28657Y15236D01*
X29736Y14157D01*
X29778Y14055D01*
X29778Y10945D01*
X29736Y10843D01*
X29657Y10764D01*
X28657Y9764D01*
X28555Y9722D01*
X28384Y9722D01*
X28194Y9532D01*
X27806Y9532D01*
G37*
%LPD*%
%LPC*%
G36*
X27806Y10532D02*
X27806Y10532D01*
X27616Y10722D01*
X23445Y10722D01*
X23343Y10764D01*
X22264Y11843D01*
X22222Y11945D01*
X22222Y13385D01*
X19385Y16222D01*
X15884Y16222D01*
X15694Y16032D01*
X15306Y16032D01*
X15032Y16306D01*
X15032Y16694D01*
X15306Y16968D01*
X15694Y16968D01*
X15884Y16778D01*
X19555Y16778D01*
X19657Y16736D01*
X22736Y13657D01*
X22778Y13555D01*
X22778Y12115D01*
X23615Y11278D01*
X27616Y11278D01*
X27806Y11468D01*
X28194Y11468D01*
X28468Y11194D01*
X28468Y10806D01*
X28194Y10532D01*
X27806Y10532D01*
G37*
%LPD*%
%LPC*%
G36*
X28616Y20905D02*
X28616Y20905D01*
X28613Y20905D01*
X28608Y20906D01*
X28605Y20906D01*
X28603Y20906D01*
X28600Y20906D01*
X28598Y20906D01*
X28595Y20907D01*
X28592Y20907D01*
X28590Y20907D01*
X28587Y20907D01*
X28585Y20907D01*
X28582Y20907D01*
X28579Y20908D01*
X28577Y20908D01*
X28574Y20908D01*
X28571Y20908D01*
X28569Y20908D01*
X28566Y20909D01*
X28564Y20909D01*
X28561Y20909D01*
X28558Y20909D01*
X28556Y20909D01*
X28553Y20910D01*
X28551Y20910D01*
X28548Y20910D01*
X28545Y20910D01*
X28540Y20911D01*
X28538Y20911D01*
X28532Y20911D01*
X28530Y20911D01*
X28524Y20912D01*
X28522Y20912D01*
X28517Y20912D01*
X28514Y20913D01*
X28509Y20913D01*
X28506Y20913D01*
X28501Y20914D01*
X28498Y20914D01*
X28493Y20914D01*
X28491Y20914D01*
X28488Y20915D01*
X28485Y20915D01*
X28483Y20915D01*
X28480Y20915D01*
X28478Y20915D01*
X28475Y20916D01*
X28472Y20916D01*
X28470Y20916D01*
X28467Y20916D01*
X28464Y20916D01*
X28462Y20916D01*
X28459Y20917D01*
X28457Y20917D01*
X28454Y20917D01*
X28451Y20917D01*
X28449Y20917D01*
X28446Y20918D01*
X28444Y20918D01*
X28441Y20918D01*
X28438Y20918D01*
X28436Y20918D01*
X28433Y20919D01*
X28431Y20919D01*
X28428Y20919D01*
X28425Y20919D01*
X28423Y20919D01*
X28417Y20920D01*
X28415Y20920D01*
X28410Y20920D01*
X28407Y20921D01*
X28402Y20921D01*
X28399Y20921D01*
X28394Y20922D01*
X28391Y20922D01*
X28386Y20922D01*
X28384Y20922D01*
X28378Y20923D01*
X28376Y20923D01*
X28370Y20923D01*
X28368Y20924D01*
X28365Y20924D01*
X28363Y20924D01*
X28360Y20924D01*
X28357Y20924D01*
X28355Y20925D01*
X28352Y20925D01*
X28350Y20925D01*
X28347Y20925D01*
X28344Y20925D01*
X28342Y20925D01*
X28339Y20926D01*
X28337Y20926D01*
X28334Y20926D01*
X28331Y20926D01*
X28329Y20926D01*
X28326Y20927D01*
X28324Y20927D01*
X28321Y20927D01*
X28318Y20927D01*
X28316Y20927D01*
X28313Y20928D01*
X28310Y20928D01*
X28308Y20928D01*
X28303Y20928D01*
X28300Y20929D01*
X28295Y20929D01*
X28292Y20929D01*
X28287Y20930D01*
X28284Y20930D01*
X28279Y20930D01*
X28277Y20930D01*
X28271Y20931D01*
X28269Y20931D01*
X28263Y20931D01*
X28261Y20932D01*
X28256Y20932D01*
X28253Y20932D01*
X28250Y20932D01*
X28248Y20933D01*
X28245Y20933D01*
X28243Y20933D01*
X28240Y20933D01*
X28237Y20933D01*
X28235Y20934D01*
X28232Y20934D01*
X28230Y20934D01*
X28227Y20934D01*
X28224Y20934D01*
X28222Y20934D01*
X28219Y20935D01*
X28216Y20935D01*
X28214Y20935D01*
X28211Y20935D01*
X28209Y20935D01*
X28206Y20936D01*
X28203Y20936D01*
X28201Y20936D01*
X28198Y20936D01*
X28196Y20936D01*
X28193Y20937D01*
X28190Y20937D01*
X28188Y20937D01*
X28185Y20937D01*
X28180Y20938D01*
X28177Y20938D01*
X28172Y20938D01*
X28169Y20938D01*
X28164Y20939D01*
X28162Y20939D01*
X28156Y20939D01*
X28154Y20940D01*
X28149Y20940D01*
X28146Y20940D01*
X28144Y20940D01*
X27700Y21115D01*
X27327Y21412D01*
X27059Y21806D01*
X26918Y22262D01*
X26918Y22738D01*
X27059Y23194D01*
X27327Y23588D01*
X27700Y23885D01*
X28144Y24060D01*
X28620Y24095D01*
X29084Y23989D01*
X29497Y23751D01*
X29822Y23401D01*
X30029Y22972D01*
X30100Y22500D01*
X30029Y22028D01*
X29822Y21599D01*
X29497Y21249D01*
X29084Y21011D01*
X28620Y20905D01*
X28616Y20905D01*
G37*
%LPD*%
%LPC*%
G36*
X2116Y20905D02*
X2116Y20905D01*
X2113Y20905D01*
X2108Y20906D01*
X2105Y20906D01*
X2103Y20906D01*
X2100Y20906D01*
X2098Y20906D01*
X2095Y20907D01*
X2092Y20907D01*
X2090Y20907D01*
X2087Y20907D01*
X2085Y20907D01*
X2082Y20907D01*
X2079Y20908D01*
X2077Y20908D01*
X2074Y20908D01*
X2071Y20908D01*
X2069Y20908D01*
X2066Y20909D01*
X2064Y20909D01*
X2061Y20909D01*
X2058Y20909D01*
X2056Y20909D01*
X2053Y20910D01*
X2051Y20910D01*
X2048Y20910D01*
X2045Y20910D01*
X2040Y20911D01*
X2038Y20911D01*
X2032Y20911D01*
X2030Y20911D01*
X2024Y20912D01*
X2022Y20912D01*
X2017Y20912D01*
X2014Y20913D01*
X2009Y20913D01*
X2006Y20913D01*
X2001Y20914D01*
X1998Y20914D01*
X1993Y20914D01*
X1991Y20914D01*
X1988Y20915D01*
X1985Y20915D01*
X1983Y20915D01*
X1980Y20915D01*
X1978Y20915D01*
X1975Y20916D01*
X1972Y20916D01*
X1970Y20916D01*
X1967Y20916D01*
X1964Y20916D01*
X1962Y20916D01*
X1959Y20917D01*
X1957Y20917D01*
X1954Y20917D01*
X1951Y20917D01*
X1949Y20917D01*
X1946Y20918D01*
X1944Y20918D01*
X1941Y20918D01*
X1938Y20918D01*
X1936Y20918D01*
X1933Y20919D01*
X1931Y20919D01*
X1928Y20919D01*
X1925Y20919D01*
X1923Y20919D01*
X1917Y20920D01*
X1915Y20920D01*
X1910Y20920D01*
X1907Y20921D01*
X1902Y20921D01*
X1899Y20921D01*
X1894Y20922D01*
X1891Y20922D01*
X1886Y20922D01*
X1884Y20922D01*
X1878Y20923D01*
X1876Y20923D01*
X1870Y20923D01*
X1868Y20924D01*
X1865Y20924D01*
X1863Y20924D01*
X1860Y20924D01*
X1857Y20924D01*
X1855Y20925D01*
X1852Y20925D01*
X1850Y20925D01*
X1847Y20925D01*
X1844Y20925D01*
X1842Y20925D01*
X1839Y20926D01*
X1837Y20926D01*
X1834Y20926D01*
X1831Y20926D01*
X1829Y20926D01*
X1826Y20927D01*
X1824Y20927D01*
X1821Y20927D01*
X1818Y20927D01*
X1816Y20927D01*
X1813Y20928D01*
X1810Y20928D01*
X1808Y20928D01*
X1803Y20928D01*
X1800Y20929D01*
X1795Y20929D01*
X1792Y20929D01*
X1787Y20930D01*
X1784Y20930D01*
X1779Y20930D01*
X1777Y20930D01*
X1771Y20931D01*
X1769Y20931D01*
X1763Y20931D01*
X1761Y20932D01*
X1756Y20932D01*
X1753Y20932D01*
X1750Y20932D01*
X1748Y20933D01*
X1745Y20933D01*
X1743Y20933D01*
X1740Y20933D01*
X1737Y20933D01*
X1735Y20934D01*
X1732Y20934D01*
X1730Y20934D01*
X1727Y20934D01*
X1724Y20934D01*
X1722Y20934D01*
X1719Y20935D01*
X1716Y20935D01*
X1714Y20935D01*
X1711Y20935D01*
X1709Y20935D01*
X1706Y20936D01*
X1703Y20936D01*
X1701Y20936D01*
X1698Y20936D01*
X1696Y20936D01*
X1693Y20937D01*
X1690Y20937D01*
X1688Y20937D01*
X1685Y20937D01*
X1680Y20938D01*
X1677Y20938D01*
X1672Y20938D01*
X1669Y20938D01*
X1664Y20939D01*
X1662Y20939D01*
X1656Y20939D01*
X1654Y20940D01*
X1649Y20940D01*
X1646Y20940D01*
X1644Y20940D01*
X1200Y21115D01*
X827Y21412D01*
X559Y21806D01*
X418Y22262D01*
X418Y22738D01*
X559Y23194D01*
X827Y23588D01*
X1200Y23885D01*
X1644Y24060D01*
X2120Y24095D01*
X2584Y23989D01*
X2997Y23751D01*
X3322Y23401D01*
X3529Y22972D01*
X3600Y22500D01*
X3529Y22028D01*
X3322Y21599D01*
X2997Y21249D01*
X2584Y21011D01*
X2120Y20905D01*
X2116Y20905D01*
G37*
%LPD*%
%LPC*%
G36*
X2119Y405D02*
X2119Y405D01*
X2116Y405D01*
X2113Y405D01*
X2111Y405D01*
X2108Y406D01*
X2105Y406D01*
X2103Y406D01*
X2100Y406D01*
X2098Y406D01*
X2095Y406D01*
X2092Y407D01*
X2090Y407D01*
X2087Y407D01*
X2085Y407D01*
X2082Y407D01*
X2079Y408D01*
X2077Y408D01*
X2074Y408D01*
X2072Y408D01*
X2069Y408D01*
X2066Y409D01*
X2064Y409D01*
X2061Y409D01*
X2059Y409D01*
X2053Y410D01*
X2051Y410D01*
X2045Y410D01*
X2043Y410D01*
X2038Y411D01*
X2035Y411D01*
X2030Y411D01*
X2027Y412D01*
X2022Y412D01*
X2019Y412D01*
X2014Y413D01*
X2012Y413D01*
X2006Y413D01*
X2004Y413D01*
X2001Y414D01*
X1998Y414D01*
X1996Y414D01*
X1993Y414D01*
X1991Y414D01*
X1988Y415D01*
X1985Y415D01*
X1983Y415D01*
X1980Y415D01*
X1978Y415D01*
X1975Y415D01*
X1972Y416D01*
X1970Y416D01*
X1967Y416D01*
X1965Y416D01*
X1962Y416D01*
X1959Y417D01*
X1957Y417D01*
X1954Y417D01*
X1951Y417D01*
X1949Y417D01*
X1946Y418D01*
X1944Y418D01*
X1938Y418D01*
X1936Y418D01*
X1931Y419D01*
X1928Y419D01*
X1923Y419D01*
X1920Y420D01*
X1915Y420D01*
X1912Y420D01*
X1907Y421D01*
X1905Y421D01*
X1899Y421D01*
X1897Y421D01*
X1891Y422D01*
X1889Y422D01*
X1886Y422D01*
X1884Y422D01*
X1881Y423D01*
X1878Y423D01*
X1876Y423D01*
X1873Y423D01*
X1871Y423D01*
X1868Y424D01*
X1865Y424D01*
X1863Y424D01*
X1860Y424D01*
X1858Y424D01*
X1855Y424D01*
X1852Y425D01*
X1850Y425D01*
X1847Y425D01*
X1844Y425D01*
X1842Y425D01*
X1839Y426D01*
X1837Y426D01*
X1834Y426D01*
X1831Y426D01*
X1829Y426D01*
X1826Y427D01*
X1824Y427D01*
X1821Y427D01*
X1816Y427D01*
X1813Y428D01*
X1808Y428D01*
X1805Y428D01*
X1800Y429D01*
X1797Y429D01*
X1792Y429D01*
X1790Y429D01*
X1784Y430D01*
X1782Y430D01*
X1777Y430D01*
X1774Y431D01*
X1769Y431D01*
X1766Y431D01*
X1764Y431D01*
X1761Y432D01*
X1758Y432D01*
X1756Y432D01*
X1753Y432D01*
X1750Y432D01*
X1748Y433D01*
X1745Y433D01*
X1743Y433D01*
X1740Y433D01*
X1737Y433D01*
X1735Y433D01*
X1732Y434D01*
X1730Y434D01*
X1727Y434D01*
X1724Y434D01*
X1722Y434D01*
X1719Y435D01*
X1717Y435D01*
X1714Y435D01*
X1711Y435D01*
X1709Y435D01*
X1706Y436D01*
X1701Y436D01*
X1698Y436D01*
X1693Y437D01*
X1690Y437D01*
X1685Y437D01*
X1683Y437D01*
X1677Y438D01*
X1675Y438D01*
X1670Y438D01*
X1667Y439D01*
X1662Y439D01*
X1659Y439D01*
X1654Y440D01*
X1651Y440D01*
X1649Y440D01*
X1646Y440D01*
X1644Y440D01*
X1200Y615D01*
X827Y912D01*
X559Y1306D01*
X418Y1762D01*
X418Y2238D01*
X559Y2694D01*
X827Y3088D01*
X1200Y3385D01*
X1644Y3560D01*
X2120Y3595D01*
X2584Y3489D01*
X2997Y3251D01*
X3322Y2901D01*
X3529Y2472D01*
X3600Y2000D01*
X3529Y1528D01*
X3322Y1099D01*
X2997Y749D01*
X2584Y511D01*
X2120Y405D01*
X2119Y405D01*
G37*
%LPD*%
%LPC*%
G36*
X28619Y405D02*
X28619Y405D01*
X28616Y405D01*
X28613Y405D01*
X28611Y405D01*
X28608Y406D01*
X28606Y406D01*
X28603Y406D01*
X28598Y406D01*
X28595Y406D01*
X28592Y407D01*
X28587Y407D01*
X28585Y407D01*
X28582Y407D01*
X28579Y408D01*
X28577Y408D01*
X28574Y408D01*
X28572Y408D01*
X28569Y408D01*
X28566Y409D01*
X28564Y409D01*
X28559Y409D01*
X28556Y409D01*
X28553Y410D01*
X28548Y410D01*
X28545Y410D01*
X28543Y410D01*
X28540Y411D01*
X28538Y411D01*
X28535Y411D01*
X28532Y411D01*
X28530Y411D01*
X28527Y412D01*
X28525Y412D01*
X28519Y412D01*
X28517Y412D01*
X28514Y413D01*
X28509Y413D01*
X28506Y413D01*
X28504Y413D01*
X28501Y414D01*
X28498Y414D01*
X28496Y414D01*
X28493Y414D01*
X28491Y414D01*
X28488Y415D01*
X28485Y415D01*
X28480Y415D01*
X28478Y415D01*
X28475Y415D01*
X28470Y416D01*
X28467Y416D01*
X28465Y416D01*
X28462Y416D01*
X28459Y417D01*
X28457Y417D01*
X28451Y417D01*
X28449Y417D01*
X28446Y418D01*
X28441Y418D01*
X28438Y418D01*
X28436Y418D01*
X28431Y419D01*
X28428Y419D01*
X28425Y419D01*
X28423Y419D01*
X28420Y420D01*
X28418Y420D01*
X28412Y420D01*
X28410Y420D01*
X28407Y421D01*
X28402Y421D01*
X28399Y421D01*
X28397Y421D01*
X28394Y422D01*
X28391Y422D01*
X28389Y422D01*
X28386Y422D01*
X28384Y422D01*
X28381Y423D01*
X28378Y423D01*
X28373Y423D01*
X28371Y423D01*
X28368Y424D01*
X28363Y424D01*
X28360Y424D01*
X28358Y424D01*
X28355Y424D01*
X28352Y425D01*
X28350Y425D01*
X28347Y425D01*
X28344Y425D01*
X28342Y425D01*
X28339Y426D01*
X28334Y426D01*
X28331Y426D01*
X28329Y426D01*
X28324Y427D01*
X28321Y427D01*
X28318Y427D01*
X28316Y427D01*
X28313Y428D01*
X28311Y428D01*
X28308Y428D01*
X28305Y428D01*
X28303Y428D01*
X28300Y429D01*
X28295Y429D01*
X28292Y429D01*
X28290Y429D01*
X28284Y430D01*
X28282Y430D01*
X28279Y430D01*
X28277Y430D01*
X28274Y431D01*
X28271Y431D01*
X28269Y431D01*
X28266Y431D01*
X28264Y431D01*
X28261Y432D01*
X28256Y432D01*
X28253Y432D01*
X28250Y432D01*
X28245Y433D01*
X28243Y433D01*
X28240Y433D01*
X28237Y433D01*
X28235Y433D01*
X28232Y434D01*
X28227Y434D01*
X28224Y434D01*
X28222Y434D01*
X28217Y435D01*
X28214Y435D01*
X28211Y435D01*
X28206Y436D01*
X28204Y436D01*
X28201Y436D01*
X28198Y436D01*
X28196Y436D01*
X28193Y437D01*
X28188Y437D01*
X28185Y437D01*
X28183Y437D01*
X28177Y438D01*
X28175Y438D01*
X28172Y438D01*
X28167Y439D01*
X28164Y439D01*
X28162Y439D01*
X28159Y439D01*
X28157Y439D01*
X28154Y440D01*
X28149Y440D01*
X28146Y440D01*
X28144Y440D01*
X27700Y615D01*
X27327Y912D01*
X27059Y1306D01*
X26918Y1762D01*
X26918Y2238D01*
X27059Y2694D01*
X27327Y3088D01*
X27700Y3385D01*
X28144Y3560D01*
X28620Y3595D01*
X29084Y3489D01*
X29497Y3251D01*
X29822Y2901D01*
X30029Y2472D01*
X30100Y2000D01*
X30029Y1528D01*
X29822Y1099D01*
X29497Y749D01*
X29084Y511D01*
X28620Y405D01*
X28619Y405D01*
G37*
%LPD*%
%LPC*%
G36*
X15306Y17032D02*
X15306Y17032D01*
X15116Y17222D01*
X14945Y17222D01*
X14843Y17264D01*
X14264Y17843D01*
X14222Y17945D01*
X14222Y21555D01*
X14264Y21657D01*
X14843Y22236D01*
X14945Y22278D01*
X16743Y22278D01*
X16744Y22278D01*
X16843Y22378D01*
X17157Y22378D01*
X17378Y22157D01*
X17378Y21843D01*
X17157Y21622D01*
X16843Y21622D01*
X16744Y21722D01*
X16743Y21722D01*
X15115Y21722D01*
X14778Y21385D01*
X14778Y18115D01*
X15115Y17778D01*
X15116Y17778D01*
X15306Y17968D01*
X15694Y17968D01*
X15968Y17694D01*
X15968Y17306D01*
X15694Y17032D01*
X15306Y17032D01*
G37*
%LPD*%
%LPC*%
G36*
X19314Y19552D02*
X19314Y19552D01*
X19052Y19814D01*
X19052Y20186D01*
X19314Y20448D01*
X19686Y20448D01*
X19855Y20278D01*
X19856Y20278D01*
X20385Y20278D01*
X20722Y20615D01*
X20722Y21743D01*
X20722Y21744D01*
X20622Y21843D01*
X20622Y22157D01*
X20843Y22378D01*
X21157Y22378D01*
X21378Y22157D01*
X21378Y21843D01*
X21278Y21744D01*
X21278Y21743D01*
X21278Y20445D01*
X21236Y20343D01*
X21157Y20264D01*
X20736Y19843D01*
X20657Y19764D01*
X20555Y19722D01*
X19856Y19722D01*
X19855Y19722D01*
X19686Y19552D01*
X19314Y19552D01*
G37*
%LPD*%
%LPC*%
G36*
X17806Y10532D02*
X17806Y10532D01*
X17616Y10722D01*
X16945Y10722D01*
X16843Y10764D01*
X16385Y11222D01*
X15884Y11222D01*
X15694Y11032D01*
X15306Y11032D01*
X15032Y11306D01*
X15032Y11694D01*
X15306Y11968D01*
X15694Y11968D01*
X15884Y11778D01*
X16555Y11778D01*
X16657Y11736D01*
X17115Y11278D01*
X17616Y11278D01*
X17806Y11468D01*
X18194Y11468D01*
X18468Y11194D01*
X18468Y10806D01*
X18194Y10532D01*
X17806Y10532D01*
G37*
%LPD*%
%LPC*%
G36*
X17806Y9532D02*
X17806Y9532D01*
X17616Y9722D01*
X16945Y9722D01*
X16843Y9764D01*
X16385Y10222D01*
X15884Y10222D01*
X15694Y10032D01*
X15306Y10032D01*
X15032Y10306D01*
X15032Y10694D01*
X15306Y10968D01*
X15694Y10968D01*
X15884Y10778D01*
X16555Y10778D01*
X16657Y10736D01*
X17115Y10278D01*
X17616Y10278D01*
X17806Y10468D01*
X18194Y10468D01*
X18468Y10194D01*
X18468Y9806D01*
X18194Y9532D01*
X17806Y9532D01*
G37*
%LPD*%
%LPC*%
G36*
X17806Y7532D02*
X17806Y7532D01*
X17616Y7722D01*
X16945Y7722D01*
X16843Y7764D01*
X16385Y8222D01*
X15884Y8222D01*
X15694Y8032D01*
X15306Y8032D01*
X15032Y8306D01*
X15032Y8694D01*
X15306Y8968D01*
X15694Y8968D01*
X15884Y8778D01*
X16555Y8778D01*
X16657Y8736D01*
X17115Y8278D01*
X17616Y8278D01*
X17806Y8468D01*
X18194Y8468D01*
X18468Y8194D01*
X18468Y7806D01*
X18194Y7532D01*
X17806Y7532D01*
G37*
%LPD*%
%LPC*%
G36*
X17806Y8532D02*
X17806Y8532D01*
X17616Y8722D01*
X16945Y8722D01*
X16843Y8764D01*
X16385Y9222D01*
X15884Y9222D01*
X15694Y9032D01*
X15306Y9032D01*
X15032Y9306D01*
X15032Y9694D01*
X15306Y9968D01*
X15694Y9968D01*
X15884Y9778D01*
X16555Y9778D01*
X16657Y9736D01*
X17115Y9278D01*
X17616Y9278D01*
X17806Y9468D01*
X18194Y9468D01*
X18468Y9194D01*
X18468Y8806D01*
X18194Y8532D01*
X17806Y8532D01*
G37*
%LPD*%
G36*
X2060Y21702D02*
X2060Y21702D01*
X2292Y21755D01*
X2499Y21874D01*
X2661Y22049D01*
X2765Y22264D01*
X2800Y22500D01*
X2765Y22736D01*
X2661Y22951D01*
X2499Y23126D01*
X2292Y23245D01*
X2060Y23298D01*
X2057Y23298D01*
X2055Y23298D01*
X2052Y23297D01*
X2049Y23297D01*
X2047Y23297D01*
X2044Y23297D01*
X2042Y23297D01*
X2039Y23296D01*
X2036Y23296D01*
X2034Y23296D01*
X2031Y23296D01*
X2029Y23296D01*
X2026Y23295D01*
X2023Y23295D01*
X2021Y23295D01*
X2018Y23295D01*
X2016Y23295D01*
X2013Y23294D01*
X2010Y23294D01*
X2008Y23294D01*
X2005Y23294D01*
X2002Y23294D01*
X2000Y23293D01*
X1997Y23293D01*
X1995Y23293D01*
X1992Y23293D01*
X1989Y23293D01*
X1987Y23292D01*
X1984Y23292D01*
X1982Y23292D01*
X1979Y23292D01*
X1976Y23292D01*
X1974Y23292D01*
X1971Y23291D01*
X1969Y23291D01*
X1966Y23291D01*
X1963Y23291D01*
X1961Y23291D01*
X1958Y23290D01*
X1955Y23290D01*
X1953Y23290D01*
X1950Y23290D01*
X1948Y23290D01*
X1945Y23289D01*
X1942Y23289D01*
X1940Y23289D01*
X1937Y23289D01*
X1935Y23289D01*
X1932Y23288D01*
X1929Y23288D01*
X1927Y23288D01*
X1924Y23288D01*
X1922Y23288D01*
X1919Y23287D01*
X1916Y23287D01*
X1914Y23287D01*
X1911Y23287D01*
X1909Y23287D01*
X1906Y23286D01*
X1903Y23286D01*
X1901Y23286D01*
X1898Y23286D01*
X1895Y23286D01*
X1893Y23285D01*
X1890Y23285D01*
X1888Y23285D01*
X1885Y23285D01*
X1882Y23285D01*
X1880Y23284D01*
X1877Y23284D01*
X1875Y23284D01*
X1872Y23284D01*
X1869Y23284D01*
X1867Y23283D01*
X1864Y23283D01*
X1862Y23283D01*
X1859Y23283D01*
X1856Y23283D01*
X1854Y23283D01*
X1851Y23282D01*
X1848Y23282D01*
X1846Y23282D01*
X1843Y23282D01*
X1841Y23282D01*
X1838Y23281D01*
X1835Y23281D01*
X1833Y23281D01*
X1830Y23281D01*
X1828Y23281D01*
X1825Y23280D01*
X1822Y23280D01*
X1600Y23193D01*
X1413Y23044D01*
X1279Y22847D01*
X1209Y22619D01*
X1209Y22381D01*
X1279Y22153D01*
X1413Y21956D01*
X1600Y21807D01*
X1822Y21720D01*
X2060Y21702D01*
X2060Y21702D01*
G37*
G36*
X28560Y1202D02*
X28560Y1202D01*
X28792Y1255D01*
X28999Y1374D01*
X29161Y1549D01*
X29265Y1764D01*
X29300Y2000D01*
X29265Y2236D01*
X29161Y2451D01*
X28999Y2626D01*
X28792Y2745D01*
X28560Y2798D01*
X28557Y2798D01*
X28555Y2798D01*
X28552Y2797D01*
X28549Y2797D01*
X28547Y2797D01*
X28544Y2797D01*
X28542Y2797D01*
X28539Y2796D01*
X28536Y2796D01*
X28534Y2796D01*
X28531Y2796D01*
X28528Y2796D01*
X28526Y2795D01*
X28523Y2795D01*
X28521Y2795D01*
X28518Y2795D01*
X28515Y2795D01*
X28513Y2794D01*
X28510Y2794D01*
X28508Y2794D01*
X28505Y2794D01*
X28502Y2794D01*
X28500Y2793D01*
X28497Y2793D01*
X28495Y2793D01*
X28492Y2793D01*
X28489Y2793D01*
X28487Y2792D01*
X28484Y2792D01*
X28482Y2792D01*
X28479Y2792D01*
X28476Y2792D01*
X28474Y2791D01*
X28471Y2791D01*
X28468Y2791D01*
X28466Y2791D01*
X28463Y2791D01*
X28461Y2791D01*
X28458Y2790D01*
X28455Y2790D01*
X28453Y2790D01*
X28450Y2790D01*
X28448Y2790D01*
X28445Y2789D01*
X28442Y2789D01*
X28440Y2789D01*
X28437Y2789D01*
X28435Y2789D01*
X28432Y2788D01*
X28429Y2788D01*
X28427Y2788D01*
X28424Y2788D01*
X28421Y2788D01*
X28419Y2787D01*
X28416Y2787D01*
X28414Y2787D01*
X28411Y2787D01*
X28408Y2787D01*
X28406Y2786D01*
X28403Y2786D01*
X28401Y2786D01*
X28398Y2786D01*
X28395Y2786D01*
X28393Y2785D01*
X28390Y2785D01*
X28388Y2785D01*
X28385Y2785D01*
X28382Y2785D01*
X28380Y2784D01*
X28377Y2784D01*
X28374Y2784D01*
X28372Y2784D01*
X28369Y2784D01*
X28367Y2783D01*
X28364Y2783D01*
X28361Y2783D01*
X28359Y2783D01*
X28356Y2783D01*
X28354Y2783D01*
X28351Y2782D01*
X28348Y2782D01*
X28346Y2782D01*
X28343Y2782D01*
X28341Y2782D01*
X28338Y2781D01*
X28335Y2781D01*
X28333Y2781D01*
X28330Y2781D01*
X28328Y2781D01*
X28327Y2781D01*
X28325Y2780D01*
X28322Y2780D01*
X28100Y2693D01*
X27913Y2544D01*
X27779Y2347D01*
X27709Y2119D01*
X27709Y1881D01*
X27779Y1653D01*
X27913Y1456D01*
X28100Y1307D01*
X28322Y1220D01*
X28560Y1202D01*
X28560Y1202D01*
G37*
G36*
X2060Y1202D02*
X2060Y1202D01*
X2292Y1255D01*
X2499Y1374D01*
X2661Y1549D01*
X2765Y1764D01*
X2800Y2000D01*
X2765Y2236D01*
X2661Y2451D01*
X2499Y2626D01*
X2292Y2745D01*
X2060Y2798D01*
X2057Y2798D01*
X2055Y2798D01*
X2052Y2797D01*
X2049Y2797D01*
X2047Y2797D01*
X2044Y2797D01*
X2042Y2797D01*
X2039Y2796D01*
X2036Y2796D01*
X2034Y2796D01*
X2031Y2796D01*
X2028Y2796D01*
X2026Y2795D01*
X2023Y2795D01*
X2021Y2795D01*
X2018Y2795D01*
X2015Y2795D01*
X2013Y2794D01*
X2010Y2794D01*
X2008Y2794D01*
X2005Y2794D01*
X2002Y2794D01*
X2000Y2793D01*
X1997Y2793D01*
X1995Y2793D01*
X1992Y2793D01*
X1989Y2793D01*
X1987Y2792D01*
X1984Y2792D01*
X1982Y2792D01*
X1979Y2792D01*
X1976Y2792D01*
X1974Y2791D01*
X1971Y2791D01*
X1968Y2791D01*
X1966Y2791D01*
X1963Y2791D01*
X1961Y2791D01*
X1958Y2790D01*
X1955Y2790D01*
X1953Y2790D01*
X1950Y2790D01*
X1948Y2790D01*
X1945Y2789D01*
X1942Y2789D01*
X1940Y2789D01*
X1937Y2789D01*
X1935Y2789D01*
X1932Y2788D01*
X1929Y2788D01*
X1927Y2788D01*
X1924Y2788D01*
X1921Y2788D01*
X1919Y2787D01*
X1916Y2787D01*
X1914Y2787D01*
X1911Y2787D01*
X1908Y2787D01*
X1906Y2786D01*
X1903Y2786D01*
X1901Y2786D01*
X1898Y2786D01*
X1895Y2786D01*
X1893Y2785D01*
X1890Y2785D01*
X1888Y2785D01*
X1885Y2785D01*
X1882Y2785D01*
X1880Y2784D01*
X1877Y2784D01*
X1874Y2784D01*
X1872Y2784D01*
X1869Y2784D01*
X1867Y2783D01*
X1864Y2783D01*
X1861Y2783D01*
X1859Y2783D01*
X1856Y2783D01*
X1854Y2783D01*
X1851Y2782D01*
X1848Y2782D01*
X1846Y2782D01*
X1843Y2782D01*
X1841Y2782D01*
X1838Y2781D01*
X1835Y2781D01*
X1833Y2781D01*
X1830Y2781D01*
X1828Y2781D01*
X1825Y2780D01*
X1822Y2780D01*
X1600Y2693D01*
X1413Y2544D01*
X1279Y2347D01*
X1209Y2119D01*
X1209Y1881D01*
X1279Y1653D01*
X1413Y1456D01*
X1600Y1307D01*
X1822Y1220D01*
X2060Y1202D01*
X2060Y1202D01*
G37*
G36*
X28560Y21702D02*
X28560Y21702D01*
X28792Y21755D01*
X28999Y21874D01*
X29161Y22049D01*
X29265Y22264D01*
X29300Y22500D01*
X29265Y22736D01*
X29161Y22951D01*
X28999Y23126D01*
X28792Y23245D01*
X28560Y23298D01*
X28557Y23298D01*
X28555Y23298D01*
X28552Y23297D01*
X28549Y23297D01*
X28547Y23297D01*
X28544Y23297D01*
X28542Y23297D01*
X28539Y23296D01*
X28536Y23296D01*
X28534Y23296D01*
X28531Y23296D01*
X28529Y23296D01*
X28526Y23295D01*
X28523Y23295D01*
X28521Y23295D01*
X28518Y23295D01*
X28516Y23295D01*
X28513Y23294D01*
X28510Y23294D01*
X28508Y23294D01*
X28505Y23294D01*
X28502Y23294D01*
X28500Y23293D01*
X28497Y23293D01*
X28495Y23293D01*
X28492Y23293D01*
X28489Y23293D01*
X28487Y23292D01*
X28484Y23292D01*
X28482Y23292D01*
X28479Y23292D01*
X28476Y23292D01*
X28474Y23292D01*
X28471Y23291D01*
X28469Y23291D01*
X28466Y23291D01*
X28463Y23291D01*
X28461Y23291D01*
X28458Y23290D01*
X28455Y23290D01*
X28453Y23290D01*
X28450Y23290D01*
X28448Y23290D01*
X28445Y23289D01*
X28442Y23289D01*
X28440Y23289D01*
X28437Y23289D01*
X28435Y23289D01*
X28432Y23288D01*
X28429Y23288D01*
X28427Y23288D01*
X28424Y23288D01*
X28422Y23288D01*
X28419Y23287D01*
X28416Y23287D01*
X28414Y23287D01*
X28411Y23287D01*
X28409Y23287D01*
X28406Y23286D01*
X28403Y23286D01*
X28401Y23286D01*
X28398Y23286D01*
X28395Y23286D01*
X28393Y23285D01*
X28390Y23285D01*
X28388Y23285D01*
X28385Y23285D01*
X28382Y23285D01*
X28380Y23284D01*
X28377Y23284D01*
X28375Y23284D01*
X28372Y23284D01*
X28369Y23284D01*
X28367Y23283D01*
X28364Y23283D01*
X28362Y23283D01*
X28359Y23283D01*
X28356Y23283D01*
X28354Y23283D01*
X28351Y23282D01*
X28348Y23282D01*
X28346Y23282D01*
X28343Y23282D01*
X28341Y23282D01*
X28338Y23281D01*
X28335Y23281D01*
X28333Y23281D01*
X28330Y23281D01*
X28328Y23281D01*
X28325Y23280D01*
X28322Y23280D01*
X28100Y23193D01*
X27913Y23044D01*
X27779Y22847D01*
X27709Y22619D01*
X27709Y22381D01*
X27779Y22153D01*
X27913Y21956D01*
X28100Y21807D01*
X28322Y21720D01*
X28560Y21702D01*
X28560Y21702D01*
G37*
%LPC*%
G36*
X1883Y21910D02*
X1883Y21910D01*
X1666Y22000D01*
X1500Y22166D01*
X1410Y22383D01*
X1410Y22617D01*
X1500Y22834D01*
X1666Y23000D01*
X1883Y23090D01*
X2117Y23090D01*
X2334Y23000D01*
X2500Y22834D01*
X2590Y22617D01*
X2590Y22383D01*
X2500Y22166D01*
X2334Y22000D01*
X2117Y21910D01*
X1883Y21910D01*
G37*
%LPD*%
%LPC*%
G36*
X28383Y21910D02*
X28383Y21910D01*
X28166Y22000D01*
X28000Y22166D01*
X27910Y22383D01*
X27910Y22617D01*
X28000Y22834D01*
X28166Y23000D01*
X28383Y23090D01*
X28617Y23090D01*
X28834Y23000D01*
X29000Y22834D01*
X29090Y22617D01*
X29090Y22383D01*
X29000Y22166D01*
X28834Y22000D01*
X28617Y21910D01*
X28383Y21910D01*
G37*
%LPD*%
%LPC*%
G36*
X1883Y1410D02*
X1883Y1410D01*
X1666Y1500D01*
X1500Y1666D01*
X1410Y1883D01*
X1410Y2117D01*
X1500Y2334D01*
X1666Y2500D01*
X1883Y2590D01*
X2117Y2590D01*
X2334Y2500D01*
X2500Y2334D01*
X2590Y2117D01*
X2590Y1883D01*
X2500Y1666D01*
X2334Y1500D01*
X2117Y1410D01*
X1883Y1410D01*
G37*
%LPD*%
%LPC*%
G36*
X28383Y1410D02*
X28383Y1410D01*
X28166Y1500D01*
X28000Y1666D01*
X27910Y1883D01*
X27910Y2117D01*
X28000Y2334D01*
X28166Y2500D01*
X28383Y2590D01*
X28617Y2590D01*
X28834Y2500D01*
X29000Y2334D01*
X29090Y2117D01*
X29090Y1883D01*
X29000Y1666D01*
X28834Y1500D01*
X28617Y1410D01*
X28383Y1410D01*
G37*
%LPD*%
%LPC*%
G36*
X27806Y11532D02*
X27806Y11532D01*
X27532Y11806D01*
X27532Y12194D01*
X27806Y12468D01*
X28194Y12468D01*
X28468Y12194D01*
X28468Y11806D01*
X28194Y11532D01*
X27806Y11532D01*
G37*
%LPD*%
%LPC*%
G36*
X17806Y11532D02*
X17806Y11532D01*
X17532Y11806D01*
X17532Y12194D01*
X17806Y12468D01*
X18194Y12468D01*
X18468Y12194D01*
X18468Y11806D01*
X18194Y11532D01*
X17806Y11532D01*
G37*
%LPD*%
%LPC*%
G36*
X27806Y12532D02*
X27806Y12532D01*
X27532Y12806D01*
X27532Y13194D01*
X27806Y13468D01*
X28194Y13468D01*
X28468Y13194D01*
X28468Y12806D01*
X28194Y12532D01*
X27806Y12532D01*
G37*
%LPD*%
%LPC*%
G36*
X4306Y11032D02*
X4306Y11032D01*
X4032Y11306D01*
X4032Y11694D01*
X4306Y11968D01*
X4694Y11968D01*
X4968Y11694D01*
X4968Y11306D01*
X4694Y11032D01*
X4306Y11032D01*
G37*
%LPD*%
%LPC*%
G36*
X4306Y13032D02*
X4306Y13032D01*
X4032Y13306D01*
X4032Y13694D01*
X4306Y13968D01*
X4694Y13968D01*
X4968Y13694D01*
X4968Y13306D01*
X4694Y13032D01*
X4306Y13032D01*
G37*
%LPD*%
%LPC*%
G36*
X4306Y10032D02*
X4306Y10032D01*
X4032Y10306D01*
X4032Y10694D01*
X4306Y10968D01*
X4694Y10968D01*
X4968Y10694D01*
X4968Y10306D01*
X4694Y10032D01*
X4306Y10032D01*
G37*
%LPD*%
%LPC*%
G36*
X27806Y13532D02*
X27806Y13532D01*
X27532Y13806D01*
X27532Y14194D01*
X27806Y14468D01*
X28194Y14468D01*
X28468Y14194D01*
X28468Y13806D01*
X28194Y13532D01*
X27806Y13532D01*
G37*
%LPD*%
%LPC*%
G36*
X4306Y14032D02*
X4306Y14032D01*
X4032Y14306D01*
X4032Y14694D01*
X4306Y14968D01*
X4694Y14968D01*
X4968Y14694D01*
X4968Y14306D01*
X4694Y14032D01*
X4306Y14032D01*
G37*
%LPD*%
%LPC*%
G36*
X15306Y14032D02*
X15306Y14032D01*
X15032Y14306D01*
X15032Y14694D01*
X15306Y14968D01*
X15694Y14968D01*
X15968Y14694D01*
X15968Y14306D01*
X15694Y14032D01*
X15306Y14032D01*
G37*
%LPD*%
%LPC*%
G36*
X4306Y7032D02*
X4306Y7032D01*
X4032Y7306D01*
X4032Y7694D01*
X4306Y7968D01*
X4694Y7968D01*
X4968Y7694D01*
X4968Y7306D01*
X4694Y7032D01*
X4306Y7032D01*
G37*
%LPD*%
%LPC*%
G36*
X15306Y6032D02*
X15306Y6032D01*
X15032Y6306D01*
X15032Y6694D01*
X15306Y6968D01*
X15694Y6968D01*
X15968Y6694D01*
X15968Y6306D01*
X15694Y6032D01*
X15306Y6032D01*
G37*
%LPD*%
%LPC*%
G36*
X4306Y6032D02*
X4306Y6032D01*
X4032Y6306D01*
X4032Y6694D01*
X4306Y6968D01*
X4694Y6968D01*
X4968Y6694D01*
X4968Y6306D01*
X4694Y6032D01*
X4306Y6032D01*
G37*
%LPD*%
%LPC*%
G36*
X4306Y15032D02*
X4306Y15032D01*
X4032Y15306D01*
X4032Y15694D01*
X4306Y15968D01*
X4694Y15968D01*
X4968Y15694D01*
X4968Y15306D01*
X4694Y15032D01*
X4306Y15032D01*
G37*
%LPD*%
%LPC*%
G36*
X17806Y12532D02*
X17806Y12532D01*
X17532Y12806D01*
X17532Y13194D01*
X17806Y13468D01*
X18194Y13468D01*
X18468Y13194D01*
X18468Y12806D01*
X18194Y12532D01*
X17806Y12532D01*
G37*
%LPD*%
%LPC*%
G36*
X15306Y15032D02*
X15306Y15032D01*
X15032Y15306D01*
X15032Y15694D01*
X15306Y15968D01*
X15694Y15968D01*
X15968Y15694D01*
X15968Y15306D01*
X15694Y15032D01*
X15306Y15032D01*
G37*
%LPD*%
%LPC*%
G36*
X4306Y16032D02*
X4306Y16032D01*
X4032Y16306D01*
X4032Y16694D01*
X4306Y16968D01*
X4694Y16968D01*
X4968Y16694D01*
X4968Y16306D01*
X4694Y16032D01*
X4306Y16032D01*
G37*
%LPD*%
%LPC*%
G36*
X4306Y18032D02*
X4306Y18032D01*
X4032Y18306D01*
X4032Y18694D01*
X4306Y18968D01*
X4694Y18968D01*
X4968Y18694D01*
X4968Y18306D01*
X4694Y18032D01*
X4306Y18032D01*
G37*
%LPD*%
%LPC*%
G36*
X4306Y12032D02*
X4306Y12032D01*
X4032Y12306D01*
X4032Y12694D01*
X4306Y12968D01*
X4694Y12968D01*
X4968Y12694D01*
X4968Y12306D01*
X4694Y12032D01*
X4306Y12032D01*
G37*
%LPD*%
%LPC*%
G36*
X15306Y7032D02*
X15306Y7032D01*
X15032Y7306D01*
X15032Y7694D01*
X15306Y7968D01*
X15694Y7968D01*
X15968Y7694D01*
X15968Y7306D01*
X15694Y7032D01*
X15306Y7032D01*
G37*
%LPD*%
D10*
X4500Y18500D03*
X4500Y17500D03*
X4500Y16500D03*
X4500Y15500D03*
X4500Y14500D03*
X4500Y13500D03*
X4500Y12500D03*
X4500Y11500D03*
X4500Y10500D03*
X4500Y9500D03*
X4500Y8500D03*
X4500Y7500D03*
X4500Y6500D03*
X4500Y5500D03*
X4500Y4500D03*
X15500Y4500D03*
X15500Y5500D03*
X15500Y6500D03*
X15500Y7500D03*
X15500Y8500D03*
X15500Y9500D03*
X15500Y10500D03*
X15500Y11500D03*
X15500Y12500D03*
X15500Y13500D03*
X15500Y14500D03*
X15500Y15500D03*
X15500Y16500D03*
X15500Y17500D03*
X15500Y18500D03*
D11*
X28000Y7000D03*
X28000Y8000D03*
X28000Y9000D03*
X28000Y10000D03*
X28000Y11000D03*
X28000Y12000D03*
X28000Y13000D03*
X28000Y14000D03*
X18000Y14000D03*
X18000Y13000D03*
X18000Y12000D03*
X18000Y11000D03*
X18000Y10000D03*
X18000Y9000D03*
X18000Y8000D03*
X18000Y7000D03*
D12*
X22311Y3476D03*
X20461Y4657D03*
X20461Y2335D03*
D13*
X19500Y20000D03*
X18500Y20000D03*
D14*
X21000Y22000D03*
X17000Y22000D03*
D15*
X6500Y4500D02*
X4500Y4500D01*
X6500Y4500D02*
X7500Y3500D01*
X19303Y3500D02*
X20461Y4657D01*
X19303Y3500D02*
X7500Y3500D01*
D16*
X15500Y13500D02*
X16500Y13500D01*
X17000Y14000D01*
X17000Y14500D01*
X17500Y15000D01*
X19500Y15000D01*
X21500Y13000D01*
X23500Y9000D02*
X28000Y9000D01*
X21500Y11000D02*
X21500Y13000D01*
X21500Y11000D02*
X23500Y9000D01*
X9000Y8500D02*
X4500Y8500D01*
X9000Y8500D02*
X10000Y7500D01*
X11500Y13500D02*
X15500Y13500D01*
X11500Y13500D02*
X11000Y13500D01*
X10000Y9500D02*
X9000Y8500D01*
X10000Y12500D02*
X11000Y13500D01*
X10000Y12500D02*
X10000Y9500D01*
X11000Y4500D02*
X15500Y4500D01*
X11000Y4500D02*
X10000Y5500D01*
X10000Y7500D01*
X28000Y10000D02*
X28500Y10000D01*
X29500Y11000D01*
X19000Y18500D02*
X15500Y18500D01*
X19000Y18500D02*
X22500Y15000D01*
X28500Y15000D02*
X29500Y14000D01*
X29500Y11000D01*
X28500Y15000D02*
X22500Y15000D01*
X19500Y16500D02*
X15500Y16500D01*
X22500Y13500D02*
X22500Y12000D01*
X23500Y11000D01*
X28000Y11000D01*
X22500Y13500D02*
X19500Y16500D01*
X18000Y11000D02*
X17000Y11000D01*
X16500Y11500D01*
X15500Y11500D01*
X16500Y10500D02*
X17000Y10000D01*
X16500Y10500D02*
X15500Y10500D01*
X17000Y10000D02*
X18000Y10000D01*
X18000Y9000D02*
X17000Y9000D01*
X16500Y9500D01*
X15500Y9500D01*
X17000Y8000D02*
X18000Y8000D01*
X17000Y8000D02*
X16500Y8500D01*
X15500Y8500D01*
X14500Y21500D02*
X15000Y22000D01*
X14500Y18000D02*
X15000Y17500D01*
X15500Y17500D01*
X15000Y22000D02*
X17000Y22000D01*
X14500Y21500D02*
X14500Y18000D01*
X20500Y20000D02*
X21000Y20500D01*
X20500Y20000D02*
X19500Y20000D01*
X21000Y20500D02*
X21000Y22000D01*
M02*
