G04 EAGLE Gerber RS-274X export*
G75*
%MOMM*%
%FSLAX34Y34*%
%LPD*%
%IN*%
%IPPOS*%
%AMOC8*
5,1,8,0,0,1.08239X$1,22.5*%
G01*
%ADD10C,0.254000*%


D10*
X0Y12700D02*
X48Y11593D01*
X193Y10495D01*
X433Y9413D01*
X766Y8356D01*
X1190Y7333D01*
X1701Y6350D01*
X2297Y5416D01*
X2971Y4537D01*
X3720Y3720D01*
X4537Y2971D01*
X5416Y2297D01*
X6350Y1701D01*
X7333Y1190D01*
X8356Y766D01*
X9413Y433D01*
X10495Y193D01*
X11593Y48D01*
X12700Y0D01*
X762000Y0D01*
X763107Y48D01*
X764205Y193D01*
X765287Y433D01*
X766344Y766D01*
X767367Y1190D01*
X768350Y1701D01*
X769284Y2297D01*
X770163Y2971D01*
X770980Y3720D01*
X771729Y4537D01*
X772403Y5416D01*
X772999Y6350D01*
X773510Y7333D01*
X773934Y8356D01*
X774267Y9413D01*
X774507Y10495D01*
X774652Y11593D01*
X774700Y12700D01*
X774700Y393700D01*
X774652Y394807D01*
X774507Y395905D01*
X774267Y396987D01*
X773934Y398044D01*
X773510Y399067D01*
X772999Y400050D01*
X772403Y400984D01*
X771729Y401863D01*
X770980Y402680D01*
X770163Y403429D01*
X769284Y404103D01*
X768350Y404699D01*
X767367Y405210D01*
X766344Y405634D01*
X765287Y405967D01*
X764205Y406207D01*
X763107Y406352D01*
X762000Y406400D01*
X622300Y406400D01*
X620086Y406497D01*
X617889Y406786D01*
X615726Y407265D01*
X613613Y407932D01*
X611566Y408780D01*
X609600Y409803D01*
X607731Y410994D01*
X605973Y412342D01*
X604340Y413840D01*
X602842Y415473D01*
X601494Y417231D01*
X600303Y419100D01*
X599280Y421066D01*
X598432Y423113D01*
X597765Y425226D01*
X597286Y427389D01*
X596997Y429586D01*
X596900Y431800D01*
X596900Y469900D01*
X596997Y472114D01*
X597286Y474311D01*
X597765Y476474D01*
X598432Y478587D01*
X599280Y480635D01*
X600303Y482600D01*
X601494Y484469D01*
X602842Y486227D01*
X604340Y487861D01*
X605973Y489358D01*
X607731Y490706D01*
X609600Y491897D01*
X611566Y492920D01*
X613613Y493768D01*
X615726Y494435D01*
X617889Y494914D01*
X620086Y495203D01*
X622300Y495300D01*
X762000Y495300D01*
X763107Y495348D01*
X764205Y495493D01*
X765287Y495733D01*
X766344Y496066D01*
X767367Y496490D01*
X768350Y497001D01*
X769284Y497597D01*
X770163Y498271D01*
X770980Y499020D01*
X771729Y499837D01*
X772403Y500716D01*
X772999Y501650D01*
X773510Y502633D01*
X773934Y503656D01*
X774267Y504713D01*
X774507Y505795D01*
X774652Y506893D01*
X774700Y508000D01*
X774700Y609600D01*
X774652Y610707D01*
X774507Y611805D01*
X774267Y612887D01*
X773934Y613944D01*
X773510Y614967D01*
X772999Y615950D01*
X772403Y616884D01*
X771729Y617763D01*
X770980Y618580D01*
X770163Y619329D01*
X769284Y620003D01*
X768350Y620599D01*
X767367Y621110D01*
X766344Y621534D01*
X765287Y621867D01*
X764205Y622107D01*
X763107Y622252D01*
X762000Y622300D01*
X12700Y622300D01*
X11593Y622252D01*
X10495Y622107D01*
X9413Y621867D01*
X8356Y621534D01*
X7333Y621110D01*
X6350Y620599D01*
X5416Y620003D01*
X4537Y619329D01*
X3720Y618580D01*
X2971Y617763D01*
X2297Y616884D01*
X1701Y615950D01*
X1190Y614967D01*
X766Y613944D01*
X433Y612887D01*
X193Y611805D01*
X48Y610707D01*
X0Y609600D01*
X0Y12700D01*
X65800Y50264D02*
X65724Y49196D01*
X65571Y48135D01*
X65343Y47088D01*
X65041Y46060D01*
X64667Y45056D01*
X64222Y44081D01*
X63708Y43141D01*
X63129Y42240D01*
X62487Y41382D01*
X61785Y40572D01*
X61028Y39815D01*
X60218Y39113D01*
X59360Y38471D01*
X58459Y37892D01*
X57519Y37378D01*
X56544Y36933D01*
X55540Y36559D01*
X54512Y36257D01*
X53465Y36029D01*
X52404Y35876D01*
X51336Y35800D01*
X50264Y35800D01*
X49196Y35876D01*
X48135Y36029D01*
X47088Y36257D01*
X46060Y36559D01*
X45056Y36933D01*
X44081Y37378D01*
X43141Y37892D01*
X42240Y38471D01*
X41382Y39113D01*
X40572Y39815D01*
X39815Y40572D01*
X39113Y41382D01*
X38471Y42240D01*
X37892Y43141D01*
X37378Y44081D01*
X36933Y45056D01*
X36559Y46060D01*
X36257Y47088D01*
X36029Y48135D01*
X35876Y49196D01*
X35800Y50264D01*
X35800Y51336D01*
X35876Y52404D01*
X36029Y53465D01*
X36257Y54512D01*
X36559Y55540D01*
X36933Y56544D01*
X37378Y57519D01*
X37892Y58459D01*
X38471Y59360D01*
X39113Y60218D01*
X39815Y61028D01*
X40572Y61785D01*
X41382Y62487D01*
X42240Y63129D01*
X43141Y63708D01*
X44081Y64222D01*
X45056Y64667D01*
X46060Y65041D01*
X47088Y65343D01*
X48135Y65571D01*
X49196Y65724D01*
X50264Y65800D01*
X51336Y65800D01*
X52404Y65724D01*
X53465Y65571D01*
X54512Y65343D01*
X55540Y65041D01*
X56544Y64667D01*
X57519Y64222D01*
X58459Y63708D01*
X59360Y63129D01*
X60218Y62487D01*
X61028Y61785D01*
X61785Y61028D01*
X62487Y60218D01*
X63129Y59360D01*
X63708Y58459D01*
X64222Y57519D01*
X64667Y56544D01*
X65041Y55540D01*
X65343Y54512D01*
X65571Y53465D01*
X65724Y52404D01*
X65800Y51336D01*
X65800Y50264D01*
X65800Y570964D02*
X65724Y569896D01*
X65571Y568835D01*
X65343Y567788D01*
X65041Y566760D01*
X64667Y565756D01*
X64222Y564781D01*
X63708Y563841D01*
X63129Y562940D01*
X62487Y562082D01*
X61785Y561272D01*
X61028Y560515D01*
X60218Y559813D01*
X59360Y559171D01*
X58459Y558592D01*
X57519Y558078D01*
X56544Y557633D01*
X55540Y557259D01*
X54512Y556957D01*
X53465Y556729D01*
X52404Y556576D01*
X51336Y556500D01*
X50264Y556500D01*
X49196Y556576D01*
X48135Y556729D01*
X47088Y556957D01*
X46060Y557259D01*
X45056Y557633D01*
X44081Y558078D01*
X43141Y558592D01*
X42240Y559171D01*
X41382Y559813D01*
X40572Y560515D01*
X39815Y561272D01*
X39113Y562082D01*
X38471Y562940D01*
X37892Y563841D01*
X37378Y564781D01*
X36933Y565756D01*
X36559Y566760D01*
X36257Y567788D01*
X36029Y568835D01*
X35876Y569896D01*
X35800Y570964D01*
X35800Y572036D01*
X35876Y573104D01*
X36029Y574165D01*
X36257Y575212D01*
X36559Y576240D01*
X36933Y577244D01*
X37378Y578219D01*
X37892Y579159D01*
X38471Y580060D01*
X39113Y580918D01*
X39815Y581728D01*
X40572Y582485D01*
X41382Y583187D01*
X42240Y583829D01*
X43141Y584408D01*
X44081Y584922D01*
X45056Y585367D01*
X46060Y585741D01*
X47088Y586043D01*
X48135Y586271D01*
X49196Y586424D01*
X50264Y586500D01*
X51336Y586500D01*
X52404Y586424D01*
X53465Y586271D01*
X54512Y586043D01*
X55540Y585741D01*
X56544Y585367D01*
X57519Y584922D01*
X58459Y584408D01*
X59360Y583829D01*
X60218Y583187D01*
X61028Y582485D01*
X61785Y581728D01*
X62487Y580918D01*
X63129Y580060D01*
X63708Y579159D01*
X64222Y578219D01*
X64667Y577244D01*
X65041Y576240D01*
X65343Y575212D01*
X65571Y574165D01*
X65724Y573104D01*
X65800Y572036D01*
X65800Y570964D01*
X738900Y570964D02*
X738824Y569896D01*
X738671Y568835D01*
X738443Y567788D01*
X738141Y566760D01*
X737767Y565756D01*
X737322Y564781D01*
X736808Y563841D01*
X736229Y562940D01*
X735587Y562082D01*
X734885Y561272D01*
X734128Y560515D01*
X733318Y559813D01*
X732460Y559171D01*
X731559Y558592D01*
X730619Y558078D01*
X729644Y557633D01*
X728640Y557259D01*
X727612Y556957D01*
X726565Y556729D01*
X725504Y556576D01*
X724436Y556500D01*
X723364Y556500D01*
X722296Y556576D01*
X721235Y556729D01*
X720188Y556957D01*
X719160Y557259D01*
X718156Y557633D01*
X717181Y558078D01*
X716241Y558592D01*
X715340Y559171D01*
X714482Y559813D01*
X713672Y560515D01*
X712915Y561272D01*
X712213Y562082D01*
X711571Y562940D01*
X710992Y563841D01*
X710478Y564781D01*
X710033Y565756D01*
X709659Y566760D01*
X709357Y567788D01*
X709129Y568835D01*
X708976Y569896D01*
X708900Y570964D01*
X708900Y572036D01*
X708976Y573104D01*
X709129Y574165D01*
X709357Y575212D01*
X709659Y576240D01*
X710033Y577244D01*
X710478Y578219D01*
X710992Y579159D01*
X711571Y580060D01*
X712213Y580918D01*
X712915Y581728D01*
X713672Y582485D01*
X714482Y583187D01*
X715340Y583829D01*
X716241Y584408D01*
X717181Y584922D01*
X718156Y585367D01*
X719160Y585741D01*
X720188Y586043D01*
X721235Y586271D01*
X722296Y586424D01*
X723364Y586500D01*
X724436Y586500D01*
X725504Y586424D01*
X726565Y586271D01*
X727612Y586043D01*
X728640Y585741D01*
X729644Y585367D01*
X730619Y584922D01*
X731559Y584408D01*
X732460Y583829D01*
X733318Y583187D01*
X734128Y582485D01*
X734885Y581728D01*
X735587Y580918D01*
X736229Y580060D01*
X736808Y579159D01*
X737322Y578219D01*
X737767Y577244D01*
X738141Y576240D01*
X738443Y575212D01*
X738671Y574165D01*
X738824Y573104D01*
X738900Y572036D01*
X738900Y570964D01*
X738900Y50264D02*
X738824Y49196D01*
X738671Y48135D01*
X738443Y47088D01*
X738141Y46060D01*
X737767Y45056D01*
X737322Y44081D01*
X736808Y43141D01*
X736229Y42240D01*
X735587Y41382D01*
X734885Y40572D01*
X734128Y39815D01*
X733318Y39113D01*
X732460Y38471D01*
X731559Y37892D01*
X730619Y37378D01*
X729644Y36933D01*
X728640Y36559D01*
X727612Y36257D01*
X726565Y36029D01*
X725504Y35876D01*
X724436Y35800D01*
X723364Y35800D01*
X722296Y35876D01*
X721235Y36029D01*
X720188Y36257D01*
X719160Y36559D01*
X718156Y36933D01*
X717181Y37378D01*
X716241Y37892D01*
X715340Y38471D01*
X714482Y39113D01*
X713672Y39815D01*
X712915Y40572D01*
X712213Y41382D01*
X711571Y42240D01*
X710992Y43141D01*
X710478Y44081D01*
X710033Y45056D01*
X709659Y46060D01*
X709357Y47088D01*
X709129Y48135D01*
X708976Y49196D01*
X708900Y50264D01*
X708900Y51336D01*
X708976Y52404D01*
X709129Y53465D01*
X709357Y54512D01*
X709659Y55540D01*
X710033Y56544D01*
X710478Y57519D01*
X710992Y58459D01*
X711571Y59360D01*
X712213Y60218D01*
X712915Y61028D01*
X713672Y61785D01*
X714482Y62487D01*
X715340Y63129D01*
X716241Y63708D01*
X717181Y64222D01*
X718156Y64667D01*
X719160Y65041D01*
X720188Y65343D01*
X721235Y65571D01*
X722296Y65724D01*
X723364Y65800D01*
X724436Y65800D01*
X725504Y65724D01*
X726565Y65571D01*
X727612Y65343D01*
X728640Y65041D01*
X729644Y64667D01*
X730619Y64222D01*
X731559Y63708D01*
X732460Y63129D01*
X733318Y62487D01*
X734128Y61785D01*
X734885Y61028D01*
X735587Y60218D01*
X736229Y59360D01*
X736808Y58459D01*
X737322Y57519D01*
X737767Y56544D01*
X738141Y55540D01*
X738443Y54512D01*
X738671Y53465D01*
X738824Y52404D01*
X738900Y51336D01*
X738900Y50264D01*
M02*
