G04 EAGLE Gerber RS-274X export*
G75*
%MOMM*%
%FSLAX34Y34*%
%LPD*%
%INSilkscreen Top*%
%IPPOS*%
%AMOC8*
5,1,8,0,0,1.08239X$1,22.5*%
G01*
%ADD10C,0.152400*%
%ADD11C,0.127000*%
%ADD12C,0.203200*%
%ADD13C,0.025400*%
%ADD14R,0.863600X0.609600*%


D10*
X241300Y88900D02*
X241300Y63500D01*
X254000Y63500D02*
X254000Y88900D01*
X253998Y89058D01*
X253992Y89217D01*
X253982Y89375D01*
X253968Y89532D01*
X253951Y89690D01*
X253929Y89846D01*
X253904Y90003D01*
X253874Y90158D01*
X253841Y90313D01*
X253804Y90467D01*
X253763Y90620D01*
X253718Y90772D01*
X253669Y90922D01*
X253617Y91072D01*
X253561Y91220D01*
X253501Y91367D01*
X253438Y91512D01*
X253371Y91655D01*
X253301Y91797D01*
X253227Y91937D01*
X253149Y92075D01*
X253068Y92211D01*
X252984Y92345D01*
X252897Y92477D01*
X252806Y92607D01*
X252712Y92734D01*
X252615Y92859D01*
X252514Y92982D01*
X252411Y93102D01*
X252305Y93219D01*
X252196Y93334D01*
X252084Y93446D01*
X251969Y93555D01*
X251852Y93661D01*
X251732Y93764D01*
X251609Y93865D01*
X251484Y93962D01*
X251357Y94056D01*
X251227Y94147D01*
X251095Y94234D01*
X250961Y94318D01*
X250825Y94399D01*
X250687Y94477D01*
X250547Y94551D01*
X250405Y94621D01*
X250262Y94688D01*
X250117Y94751D01*
X249970Y94811D01*
X249822Y94867D01*
X249672Y94919D01*
X249522Y94968D01*
X249370Y95013D01*
X249217Y95054D01*
X249063Y95091D01*
X248908Y95124D01*
X248753Y95154D01*
X248596Y95179D01*
X248440Y95201D01*
X248282Y95218D01*
X248125Y95232D01*
X247967Y95242D01*
X247808Y95248D01*
X247650Y95250D01*
X247492Y95248D01*
X247333Y95242D01*
X247175Y95232D01*
X247018Y95218D01*
X246860Y95201D01*
X246704Y95179D01*
X246547Y95154D01*
X246392Y95124D01*
X246237Y95091D01*
X246083Y95054D01*
X245930Y95013D01*
X245778Y94968D01*
X245628Y94919D01*
X245478Y94867D01*
X245330Y94811D01*
X245183Y94751D01*
X245038Y94688D01*
X244895Y94621D01*
X244753Y94551D01*
X244613Y94477D01*
X244475Y94399D01*
X244339Y94318D01*
X244205Y94234D01*
X244073Y94147D01*
X243943Y94056D01*
X243816Y93962D01*
X243691Y93865D01*
X243568Y93764D01*
X243448Y93661D01*
X243331Y93555D01*
X243216Y93446D01*
X243104Y93334D01*
X242995Y93219D01*
X242889Y93102D01*
X242786Y92982D01*
X242685Y92859D01*
X242588Y92734D01*
X242494Y92607D01*
X242403Y92477D01*
X242316Y92345D01*
X242232Y92211D01*
X242151Y92075D01*
X242073Y91937D01*
X241999Y91797D01*
X241929Y91655D01*
X241862Y91512D01*
X241799Y91367D01*
X241739Y91220D01*
X241683Y91072D01*
X241631Y90922D01*
X241582Y90772D01*
X241537Y90620D01*
X241496Y90467D01*
X241459Y90313D01*
X241426Y90158D01*
X241396Y90003D01*
X241371Y89846D01*
X241349Y89690D01*
X241332Y89532D01*
X241318Y89375D01*
X241308Y89217D01*
X241302Y89058D01*
X241300Y88900D01*
X228600Y76200D02*
X241300Y63500D01*
X228600Y63500D02*
X228600Y76200D01*
X254000Y63500D02*
X266700Y76200D01*
X266700Y63500D01*
X254000Y50800D01*
X241300Y50800D02*
X228600Y63500D01*
X241300Y50800D02*
X247650Y44450D01*
X254000Y50800D01*
X571500Y190500D02*
X571500Y215900D01*
X584200Y215900D02*
X584200Y190500D01*
X584200Y215900D02*
X584198Y216058D01*
X584192Y216217D01*
X584182Y216375D01*
X584168Y216532D01*
X584151Y216690D01*
X584129Y216846D01*
X584104Y217003D01*
X584074Y217158D01*
X584041Y217313D01*
X584004Y217467D01*
X583963Y217620D01*
X583918Y217772D01*
X583869Y217922D01*
X583817Y218072D01*
X583761Y218220D01*
X583701Y218367D01*
X583638Y218512D01*
X583571Y218655D01*
X583501Y218797D01*
X583427Y218937D01*
X583349Y219075D01*
X583268Y219211D01*
X583184Y219345D01*
X583097Y219477D01*
X583006Y219607D01*
X582912Y219734D01*
X582815Y219859D01*
X582714Y219982D01*
X582611Y220102D01*
X582505Y220219D01*
X582396Y220334D01*
X582284Y220446D01*
X582169Y220555D01*
X582052Y220661D01*
X581932Y220764D01*
X581809Y220865D01*
X581684Y220962D01*
X581557Y221056D01*
X581427Y221147D01*
X581295Y221234D01*
X581161Y221318D01*
X581025Y221399D01*
X580887Y221477D01*
X580747Y221551D01*
X580605Y221621D01*
X580462Y221688D01*
X580317Y221751D01*
X580170Y221811D01*
X580022Y221867D01*
X579872Y221919D01*
X579722Y221968D01*
X579570Y222013D01*
X579417Y222054D01*
X579263Y222091D01*
X579108Y222124D01*
X578953Y222154D01*
X578796Y222179D01*
X578640Y222201D01*
X578482Y222218D01*
X578325Y222232D01*
X578167Y222242D01*
X578008Y222248D01*
X577850Y222250D01*
X577692Y222248D01*
X577533Y222242D01*
X577375Y222232D01*
X577218Y222218D01*
X577060Y222201D01*
X576904Y222179D01*
X576747Y222154D01*
X576592Y222124D01*
X576437Y222091D01*
X576283Y222054D01*
X576130Y222013D01*
X575978Y221968D01*
X575828Y221919D01*
X575678Y221867D01*
X575530Y221811D01*
X575383Y221751D01*
X575238Y221688D01*
X575095Y221621D01*
X574953Y221551D01*
X574813Y221477D01*
X574675Y221399D01*
X574539Y221318D01*
X574405Y221234D01*
X574273Y221147D01*
X574143Y221056D01*
X574016Y220962D01*
X573891Y220865D01*
X573768Y220764D01*
X573648Y220661D01*
X573531Y220555D01*
X573416Y220446D01*
X573304Y220334D01*
X573195Y220219D01*
X573089Y220102D01*
X572986Y219982D01*
X572885Y219859D01*
X572788Y219734D01*
X572694Y219607D01*
X572603Y219477D01*
X572516Y219345D01*
X572432Y219211D01*
X572351Y219075D01*
X572273Y218937D01*
X572199Y218797D01*
X572129Y218655D01*
X572062Y218512D01*
X571999Y218367D01*
X571939Y218220D01*
X571883Y218072D01*
X571831Y217922D01*
X571782Y217772D01*
X571737Y217620D01*
X571696Y217467D01*
X571659Y217313D01*
X571626Y217158D01*
X571596Y217003D01*
X571571Y216846D01*
X571549Y216690D01*
X571532Y216532D01*
X571518Y216375D01*
X571508Y216217D01*
X571502Y216058D01*
X571500Y215900D01*
X558800Y203200D02*
X571500Y190500D01*
X558800Y190500D02*
X558800Y203200D01*
X584200Y190500D02*
X596900Y203200D01*
X596900Y190500D01*
X584200Y177800D01*
X571500Y177800D02*
X558800Y190500D01*
X571500Y177800D02*
X577850Y171450D01*
X584200Y177800D01*
D11*
X101600Y0D02*
X101600Y578612D01*
X410464Y578612D01*
X410464Y0D01*
X101600Y0D01*
X215900Y-12700D02*
X292100Y-12700D01*
X292100Y38100D01*
X215900Y38100D01*
X215900Y-12700D01*
X165100Y342900D02*
X165100Y584200D01*
X165100Y342900D02*
X342900Y342900D01*
X342900Y584200D01*
X165100Y584200D01*
X723900Y368300D02*
X723900Y165100D01*
X444500Y165100D01*
X444500Y368300D01*
X723900Y368300D01*
X566700Y-18600D02*
X476700Y-18600D01*
X476700Y127400D01*
X566700Y127400D01*
X566700Y-18600D01*
D10*
X16510Y50800D02*
X16520Y51642D01*
X16551Y52483D01*
X16603Y53323D01*
X16675Y54161D01*
X16768Y54997D01*
X16881Y55831D01*
X17015Y56662D01*
X17169Y57490D01*
X17343Y58313D01*
X17538Y59132D01*
X17752Y59946D01*
X17987Y60754D01*
X18241Y61556D01*
X18514Y62352D01*
X18808Y63141D01*
X19120Y63922D01*
X19452Y64696D01*
X19802Y65461D01*
X20171Y66217D01*
X20559Y66964D01*
X20965Y67701D01*
X21388Y68429D01*
X21830Y69145D01*
X22289Y69851D01*
X22765Y70544D01*
X23258Y71227D01*
X23768Y71896D01*
X24293Y72553D01*
X24835Y73197D01*
X25393Y73828D01*
X25966Y74444D01*
X26553Y75047D01*
X27156Y75634D01*
X27772Y76207D01*
X28403Y76765D01*
X29047Y77307D01*
X29704Y77832D01*
X30373Y78342D01*
X31056Y78835D01*
X31749Y79311D01*
X32455Y79770D01*
X33171Y80212D01*
X33899Y80635D01*
X34636Y81041D01*
X35383Y81429D01*
X36139Y81798D01*
X36904Y82148D01*
X37678Y82480D01*
X38459Y82792D01*
X39248Y83086D01*
X40044Y83359D01*
X40846Y83613D01*
X41654Y83848D01*
X42468Y84062D01*
X43287Y84257D01*
X44110Y84431D01*
X44938Y84585D01*
X45769Y84719D01*
X46603Y84832D01*
X47439Y84925D01*
X48277Y84997D01*
X49117Y85049D01*
X49958Y85080D01*
X50800Y85090D01*
X51642Y85080D01*
X52483Y85049D01*
X53323Y84997D01*
X54161Y84925D01*
X54997Y84832D01*
X55831Y84719D01*
X56662Y84585D01*
X57490Y84431D01*
X58313Y84257D01*
X59132Y84062D01*
X59946Y83848D01*
X60754Y83613D01*
X61556Y83359D01*
X62352Y83086D01*
X63141Y82792D01*
X63922Y82480D01*
X64696Y82148D01*
X65461Y81798D01*
X66217Y81429D01*
X66964Y81041D01*
X67701Y80635D01*
X68429Y80212D01*
X69145Y79770D01*
X69851Y79311D01*
X70544Y78835D01*
X71227Y78342D01*
X71896Y77832D01*
X72553Y77307D01*
X73197Y76765D01*
X73828Y76207D01*
X74444Y75634D01*
X75047Y75047D01*
X75634Y74444D01*
X76207Y73828D01*
X76765Y73197D01*
X77307Y72553D01*
X77832Y71896D01*
X78342Y71227D01*
X78835Y70544D01*
X79311Y69851D01*
X79770Y69145D01*
X80212Y68429D01*
X80635Y67701D01*
X81041Y66964D01*
X81429Y66217D01*
X81798Y65461D01*
X82148Y64696D01*
X82480Y63922D01*
X82792Y63141D01*
X83086Y62352D01*
X83359Y61556D01*
X83613Y60754D01*
X83848Y59946D01*
X84062Y59132D01*
X84257Y58313D01*
X84431Y57490D01*
X84585Y56662D01*
X84719Y55831D01*
X84832Y54997D01*
X84925Y54161D01*
X84997Y53323D01*
X85049Y52483D01*
X85080Y51642D01*
X85090Y50800D01*
X85080Y49958D01*
X85049Y49117D01*
X84997Y48277D01*
X84925Y47439D01*
X84832Y46603D01*
X84719Y45769D01*
X84585Y44938D01*
X84431Y44110D01*
X84257Y43287D01*
X84062Y42468D01*
X83848Y41654D01*
X83613Y40846D01*
X83359Y40044D01*
X83086Y39248D01*
X82792Y38459D01*
X82480Y37678D01*
X82148Y36904D01*
X81798Y36139D01*
X81429Y35383D01*
X81041Y34636D01*
X80635Y33899D01*
X80212Y33171D01*
X79770Y32455D01*
X79311Y31749D01*
X78835Y31056D01*
X78342Y30373D01*
X77832Y29704D01*
X77307Y29047D01*
X76765Y28403D01*
X76207Y27772D01*
X75634Y27156D01*
X75047Y26553D01*
X74444Y25966D01*
X73828Y25393D01*
X73197Y24835D01*
X72553Y24293D01*
X71896Y23768D01*
X71227Y23258D01*
X70544Y22765D01*
X69851Y22289D01*
X69145Y21830D01*
X68429Y21388D01*
X67701Y20965D01*
X66964Y20559D01*
X66217Y20171D01*
X65461Y19802D01*
X64696Y19452D01*
X63922Y19120D01*
X63141Y18808D01*
X62352Y18514D01*
X61556Y18241D01*
X60754Y17987D01*
X59946Y17752D01*
X59132Y17538D01*
X58313Y17343D01*
X57490Y17169D01*
X56662Y17015D01*
X55831Y16881D01*
X54997Y16768D01*
X54161Y16675D01*
X53323Y16603D01*
X52483Y16551D01*
X51642Y16520D01*
X50800Y16510D01*
X49958Y16520D01*
X49117Y16551D01*
X48277Y16603D01*
X47439Y16675D01*
X46603Y16768D01*
X45769Y16881D01*
X44938Y17015D01*
X44110Y17169D01*
X43287Y17343D01*
X42468Y17538D01*
X41654Y17752D01*
X40846Y17987D01*
X40044Y18241D01*
X39248Y18514D01*
X38459Y18808D01*
X37678Y19120D01*
X36904Y19452D01*
X36139Y19802D01*
X35383Y20171D01*
X34636Y20559D01*
X33899Y20965D01*
X33171Y21388D01*
X32455Y21830D01*
X31749Y22289D01*
X31056Y22765D01*
X30373Y23258D01*
X29704Y23768D01*
X29047Y24293D01*
X28403Y24835D01*
X27772Y25393D01*
X27156Y25966D01*
X26553Y26553D01*
X25966Y27156D01*
X25393Y27772D01*
X24835Y28403D01*
X24293Y29047D01*
X23768Y29704D01*
X23258Y30373D01*
X22765Y31056D01*
X22289Y31749D01*
X21830Y32455D01*
X21388Y33171D01*
X20965Y33899D01*
X20559Y34636D01*
X20171Y35383D01*
X19802Y36139D01*
X19452Y36904D01*
X19120Y37678D01*
X18808Y38459D01*
X18514Y39248D01*
X18241Y40044D01*
X17987Y40846D01*
X17752Y41654D01*
X17538Y42468D01*
X17343Y43287D01*
X17169Y44110D01*
X17015Y44938D01*
X16881Y45769D01*
X16768Y46603D01*
X16675Y47439D01*
X16603Y48277D01*
X16551Y49117D01*
X16520Y49958D01*
X16510Y50800D01*
D12*
X34800Y50800D02*
X34805Y51193D01*
X34819Y51585D01*
X34843Y51977D01*
X34877Y52368D01*
X34920Y52759D01*
X34973Y53148D01*
X35036Y53535D01*
X35107Y53921D01*
X35189Y54306D01*
X35279Y54688D01*
X35380Y55067D01*
X35489Y55445D01*
X35608Y55819D01*
X35735Y56190D01*
X35872Y56558D01*
X36018Y56923D01*
X36173Y57284D01*
X36336Y57641D01*
X36508Y57994D01*
X36689Y58342D01*
X36879Y58686D01*
X37076Y59026D01*
X37282Y59360D01*
X37496Y59689D01*
X37719Y60013D01*
X37949Y60331D01*
X38186Y60644D01*
X38432Y60950D01*
X38685Y61251D01*
X38945Y61545D01*
X39212Y61833D01*
X39486Y62114D01*
X39767Y62388D01*
X40055Y62655D01*
X40349Y62915D01*
X40650Y63168D01*
X40956Y63414D01*
X41269Y63651D01*
X41587Y63881D01*
X41911Y64104D01*
X42240Y64318D01*
X42574Y64524D01*
X42914Y64721D01*
X43258Y64911D01*
X43606Y65092D01*
X43959Y65264D01*
X44316Y65427D01*
X44677Y65582D01*
X45042Y65728D01*
X45410Y65865D01*
X45781Y65992D01*
X46155Y66111D01*
X46533Y66220D01*
X46912Y66321D01*
X47294Y66411D01*
X47679Y66493D01*
X48065Y66564D01*
X48452Y66627D01*
X48841Y66680D01*
X49232Y66723D01*
X49623Y66757D01*
X50015Y66781D01*
X50407Y66795D01*
X50800Y66800D01*
X51193Y66795D01*
X51585Y66781D01*
X51977Y66757D01*
X52368Y66723D01*
X52759Y66680D01*
X53148Y66627D01*
X53535Y66564D01*
X53921Y66493D01*
X54306Y66411D01*
X54688Y66321D01*
X55067Y66220D01*
X55445Y66111D01*
X55819Y65992D01*
X56190Y65865D01*
X56558Y65728D01*
X56923Y65582D01*
X57284Y65427D01*
X57641Y65264D01*
X57994Y65092D01*
X58342Y64911D01*
X58686Y64721D01*
X59026Y64524D01*
X59360Y64318D01*
X59689Y64104D01*
X60013Y63881D01*
X60331Y63651D01*
X60644Y63414D01*
X60950Y63168D01*
X61251Y62915D01*
X61545Y62655D01*
X61833Y62388D01*
X62114Y62114D01*
X62388Y61833D01*
X62655Y61545D01*
X62915Y61251D01*
X63168Y60950D01*
X63414Y60644D01*
X63651Y60331D01*
X63881Y60013D01*
X64104Y59689D01*
X64318Y59360D01*
X64524Y59026D01*
X64721Y58686D01*
X64911Y58342D01*
X65092Y57994D01*
X65264Y57641D01*
X65427Y57284D01*
X65582Y56923D01*
X65728Y56558D01*
X65865Y56190D01*
X65992Y55819D01*
X66111Y55445D01*
X66220Y55067D01*
X66321Y54688D01*
X66411Y54306D01*
X66493Y53921D01*
X66564Y53535D01*
X66627Y53148D01*
X66680Y52759D01*
X66723Y52368D01*
X66757Y51977D01*
X66781Y51585D01*
X66795Y51193D01*
X66800Y50800D01*
X66795Y50407D01*
X66781Y50015D01*
X66757Y49623D01*
X66723Y49232D01*
X66680Y48841D01*
X66627Y48452D01*
X66564Y48065D01*
X66493Y47679D01*
X66411Y47294D01*
X66321Y46912D01*
X66220Y46533D01*
X66111Y46155D01*
X65992Y45781D01*
X65865Y45410D01*
X65728Y45042D01*
X65582Y44677D01*
X65427Y44316D01*
X65264Y43959D01*
X65092Y43606D01*
X64911Y43258D01*
X64721Y42914D01*
X64524Y42574D01*
X64318Y42240D01*
X64104Y41911D01*
X63881Y41587D01*
X63651Y41269D01*
X63414Y40956D01*
X63168Y40650D01*
X62915Y40349D01*
X62655Y40055D01*
X62388Y39767D01*
X62114Y39486D01*
X61833Y39212D01*
X61545Y38945D01*
X61251Y38685D01*
X60950Y38432D01*
X60644Y38186D01*
X60331Y37949D01*
X60013Y37719D01*
X59689Y37496D01*
X59360Y37282D01*
X59026Y37076D01*
X58686Y36879D01*
X58342Y36689D01*
X57994Y36508D01*
X57641Y36336D01*
X57284Y36173D01*
X56923Y36018D01*
X56558Y35872D01*
X56190Y35735D01*
X55819Y35608D01*
X55445Y35489D01*
X55067Y35380D01*
X54688Y35279D01*
X54306Y35189D01*
X53921Y35107D01*
X53535Y35036D01*
X53148Y34973D01*
X52759Y34920D01*
X52368Y34877D01*
X51977Y34843D01*
X51585Y34819D01*
X51193Y34805D01*
X50800Y34800D01*
X50407Y34805D01*
X50015Y34819D01*
X49623Y34843D01*
X49232Y34877D01*
X48841Y34920D01*
X48452Y34973D01*
X48065Y35036D01*
X47679Y35107D01*
X47294Y35189D01*
X46912Y35279D01*
X46533Y35380D01*
X46155Y35489D01*
X45781Y35608D01*
X45410Y35735D01*
X45042Y35872D01*
X44677Y36018D01*
X44316Y36173D01*
X43959Y36336D01*
X43606Y36508D01*
X43258Y36689D01*
X42914Y36879D01*
X42574Y37076D01*
X42240Y37282D01*
X41911Y37496D01*
X41587Y37719D01*
X41269Y37949D01*
X40956Y38186D01*
X40650Y38432D01*
X40349Y38685D01*
X40055Y38945D01*
X39767Y39212D01*
X39486Y39486D01*
X39212Y39767D01*
X38945Y40055D01*
X38685Y40349D01*
X38432Y40650D01*
X38186Y40956D01*
X37949Y41269D01*
X37719Y41587D01*
X37496Y41911D01*
X37282Y42240D01*
X37076Y42574D01*
X36879Y42914D01*
X36689Y43258D01*
X36508Y43606D01*
X36336Y43959D01*
X36173Y44316D01*
X36018Y44677D01*
X35872Y45042D01*
X35735Y45410D01*
X35608Y45781D01*
X35489Y46155D01*
X35380Y46533D01*
X35279Y46912D01*
X35189Y47294D01*
X35107Y47679D01*
X35036Y48065D01*
X34973Y48452D01*
X34920Y48841D01*
X34877Y49232D01*
X34843Y49623D01*
X34819Y50015D01*
X34805Y50407D01*
X34800Y50800D01*
D10*
X16510Y571500D02*
X16520Y572342D01*
X16551Y573183D01*
X16603Y574023D01*
X16675Y574861D01*
X16768Y575697D01*
X16881Y576531D01*
X17015Y577362D01*
X17169Y578190D01*
X17343Y579013D01*
X17538Y579832D01*
X17752Y580646D01*
X17987Y581454D01*
X18241Y582256D01*
X18514Y583052D01*
X18808Y583841D01*
X19120Y584622D01*
X19452Y585396D01*
X19802Y586161D01*
X20171Y586917D01*
X20559Y587664D01*
X20965Y588401D01*
X21388Y589129D01*
X21830Y589845D01*
X22289Y590551D01*
X22765Y591244D01*
X23258Y591927D01*
X23768Y592596D01*
X24293Y593253D01*
X24835Y593897D01*
X25393Y594528D01*
X25966Y595144D01*
X26553Y595747D01*
X27156Y596334D01*
X27772Y596907D01*
X28403Y597465D01*
X29047Y598007D01*
X29704Y598532D01*
X30373Y599042D01*
X31056Y599535D01*
X31749Y600011D01*
X32455Y600470D01*
X33171Y600912D01*
X33899Y601335D01*
X34636Y601741D01*
X35383Y602129D01*
X36139Y602498D01*
X36904Y602848D01*
X37678Y603180D01*
X38459Y603492D01*
X39248Y603786D01*
X40044Y604059D01*
X40846Y604313D01*
X41654Y604548D01*
X42468Y604762D01*
X43287Y604957D01*
X44110Y605131D01*
X44938Y605285D01*
X45769Y605419D01*
X46603Y605532D01*
X47439Y605625D01*
X48277Y605697D01*
X49117Y605749D01*
X49958Y605780D01*
X50800Y605790D01*
X51642Y605780D01*
X52483Y605749D01*
X53323Y605697D01*
X54161Y605625D01*
X54997Y605532D01*
X55831Y605419D01*
X56662Y605285D01*
X57490Y605131D01*
X58313Y604957D01*
X59132Y604762D01*
X59946Y604548D01*
X60754Y604313D01*
X61556Y604059D01*
X62352Y603786D01*
X63141Y603492D01*
X63922Y603180D01*
X64696Y602848D01*
X65461Y602498D01*
X66217Y602129D01*
X66964Y601741D01*
X67701Y601335D01*
X68429Y600912D01*
X69145Y600470D01*
X69851Y600011D01*
X70544Y599535D01*
X71227Y599042D01*
X71896Y598532D01*
X72553Y598007D01*
X73197Y597465D01*
X73828Y596907D01*
X74444Y596334D01*
X75047Y595747D01*
X75634Y595144D01*
X76207Y594528D01*
X76765Y593897D01*
X77307Y593253D01*
X77832Y592596D01*
X78342Y591927D01*
X78835Y591244D01*
X79311Y590551D01*
X79770Y589845D01*
X80212Y589129D01*
X80635Y588401D01*
X81041Y587664D01*
X81429Y586917D01*
X81798Y586161D01*
X82148Y585396D01*
X82480Y584622D01*
X82792Y583841D01*
X83086Y583052D01*
X83359Y582256D01*
X83613Y581454D01*
X83848Y580646D01*
X84062Y579832D01*
X84257Y579013D01*
X84431Y578190D01*
X84585Y577362D01*
X84719Y576531D01*
X84832Y575697D01*
X84925Y574861D01*
X84997Y574023D01*
X85049Y573183D01*
X85080Y572342D01*
X85090Y571500D01*
X85080Y570658D01*
X85049Y569817D01*
X84997Y568977D01*
X84925Y568139D01*
X84832Y567303D01*
X84719Y566469D01*
X84585Y565638D01*
X84431Y564810D01*
X84257Y563987D01*
X84062Y563168D01*
X83848Y562354D01*
X83613Y561546D01*
X83359Y560744D01*
X83086Y559948D01*
X82792Y559159D01*
X82480Y558378D01*
X82148Y557604D01*
X81798Y556839D01*
X81429Y556083D01*
X81041Y555336D01*
X80635Y554599D01*
X80212Y553871D01*
X79770Y553155D01*
X79311Y552449D01*
X78835Y551756D01*
X78342Y551073D01*
X77832Y550404D01*
X77307Y549747D01*
X76765Y549103D01*
X76207Y548472D01*
X75634Y547856D01*
X75047Y547253D01*
X74444Y546666D01*
X73828Y546093D01*
X73197Y545535D01*
X72553Y544993D01*
X71896Y544468D01*
X71227Y543958D01*
X70544Y543465D01*
X69851Y542989D01*
X69145Y542530D01*
X68429Y542088D01*
X67701Y541665D01*
X66964Y541259D01*
X66217Y540871D01*
X65461Y540502D01*
X64696Y540152D01*
X63922Y539820D01*
X63141Y539508D01*
X62352Y539214D01*
X61556Y538941D01*
X60754Y538687D01*
X59946Y538452D01*
X59132Y538238D01*
X58313Y538043D01*
X57490Y537869D01*
X56662Y537715D01*
X55831Y537581D01*
X54997Y537468D01*
X54161Y537375D01*
X53323Y537303D01*
X52483Y537251D01*
X51642Y537220D01*
X50800Y537210D01*
X49958Y537220D01*
X49117Y537251D01*
X48277Y537303D01*
X47439Y537375D01*
X46603Y537468D01*
X45769Y537581D01*
X44938Y537715D01*
X44110Y537869D01*
X43287Y538043D01*
X42468Y538238D01*
X41654Y538452D01*
X40846Y538687D01*
X40044Y538941D01*
X39248Y539214D01*
X38459Y539508D01*
X37678Y539820D01*
X36904Y540152D01*
X36139Y540502D01*
X35383Y540871D01*
X34636Y541259D01*
X33899Y541665D01*
X33171Y542088D01*
X32455Y542530D01*
X31749Y542989D01*
X31056Y543465D01*
X30373Y543958D01*
X29704Y544468D01*
X29047Y544993D01*
X28403Y545535D01*
X27772Y546093D01*
X27156Y546666D01*
X26553Y547253D01*
X25966Y547856D01*
X25393Y548472D01*
X24835Y549103D01*
X24293Y549747D01*
X23768Y550404D01*
X23258Y551073D01*
X22765Y551756D01*
X22289Y552449D01*
X21830Y553155D01*
X21388Y553871D01*
X20965Y554599D01*
X20559Y555336D01*
X20171Y556083D01*
X19802Y556839D01*
X19452Y557604D01*
X19120Y558378D01*
X18808Y559159D01*
X18514Y559948D01*
X18241Y560744D01*
X17987Y561546D01*
X17752Y562354D01*
X17538Y563168D01*
X17343Y563987D01*
X17169Y564810D01*
X17015Y565638D01*
X16881Y566469D01*
X16768Y567303D01*
X16675Y568139D01*
X16603Y568977D01*
X16551Y569817D01*
X16520Y570658D01*
X16510Y571500D01*
D12*
X34800Y571500D02*
X34805Y571893D01*
X34819Y572285D01*
X34843Y572677D01*
X34877Y573068D01*
X34920Y573459D01*
X34973Y573848D01*
X35036Y574235D01*
X35107Y574621D01*
X35189Y575006D01*
X35279Y575388D01*
X35380Y575767D01*
X35489Y576145D01*
X35608Y576519D01*
X35735Y576890D01*
X35872Y577258D01*
X36018Y577623D01*
X36173Y577984D01*
X36336Y578341D01*
X36508Y578694D01*
X36689Y579042D01*
X36879Y579386D01*
X37076Y579726D01*
X37282Y580060D01*
X37496Y580389D01*
X37719Y580713D01*
X37949Y581031D01*
X38186Y581344D01*
X38432Y581650D01*
X38685Y581951D01*
X38945Y582245D01*
X39212Y582533D01*
X39486Y582814D01*
X39767Y583088D01*
X40055Y583355D01*
X40349Y583615D01*
X40650Y583868D01*
X40956Y584114D01*
X41269Y584351D01*
X41587Y584581D01*
X41911Y584804D01*
X42240Y585018D01*
X42574Y585224D01*
X42914Y585421D01*
X43258Y585611D01*
X43606Y585792D01*
X43959Y585964D01*
X44316Y586127D01*
X44677Y586282D01*
X45042Y586428D01*
X45410Y586565D01*
X45781Y586692D01*
X46155Y586811D01*
X46533Y586920D01*
X46912Y587021D01*
X47294Y587111D01*
X47679Y587193D01*
X48065Y587264D01*
X48452Y587327D01*
X48841Y587380D01*
X49232Y587423D01*
X49623Y587457D01*
X50015Y587481D01*
X50407Y587495D01*
X50800Y587500D01*
X51193Y587495D01*
X51585Y587481D01*
X51977Y587457D01*
X52368Y587423D01*
X52759Y587380D01*
X53148Y587327D01*
X53535Y587264D01*
X53921Y587193D01*
X54306Y587111D01*
X54688Y587021D01*
X55067Y586920D01*
X55445Y586811D01*
X55819Y586692D01*
X56190Y586565D01*
X56558Y586428D01*
X56923Y586282D01*
X57284Y586127D01*
X57641Y585964D01*
X57994Y585792D01*
X58342Y585611D01*
X58686Y585421D01*
X59026Y585224D01*
X59360Y585018D01*
X59689Y584804D01*
X60013Y584581D01*
X60331Y584351D01*
X60644Y584114D01*
X60950Y583868D01*
X61251Y583615D01*
X61545Y583355D01*
X61833Y583088D01*
X62114Y582814D01*
X62388Y582533D01*
X62655Y582245D01*
X62915Y581951D01*
X63168Y581650D01*
X63414Y581344D01*
X63651Y581031D01*
X63881Y580713D01*
X64104Y580389D01*
X64318Y580060D01*
X64524Y579726D01*
X64721Y579386D01*
X64911Y579042D01*
X65092Y578694D01*
X65264Y578341D01*
X65427Y577984D01*
X65582Y577623D01*
X65728Y577258D01*
X65865Y576890D01*
X65992Y576519D01*
X66111Y576145D01*
X66220Y575767D01*
X66321Y575388D01*
X66411Y575006D01*
X66493Y574621D01*
X66564Y574235D01*
X66627Y573848D01*
X66680Y573459D01*
X66723Y573068D01*
X66757Y572677D01*
X66781Y572285D01*
X66795Y571893D01*
X66800Y571500D01*
X66795Y571107D01*
X66781Y570715D01*
X66757Y570323D01*
X66723Y569932D01*
X66680Y569541D01*
X66627Y569152D01*
X66564Y568765D01*
X66493Y568379D01*
X66411Y567994D01*
X66321Y567612D01*
X66220Y567233D01*
X66111Y566855D01*
X65992Y566481D01*
X65865Y566110D01*
X65728Y565742D01*
X65582Y565377D01*
X65427Y565016D01*
X65264Y564659D01*
X65092Y564306D01*
X64911Y563958D01*
X64721Y563614D01*
X64524Y563274D01*
X64318Y562940D01*
X64104Y562611D01*
X63881Y562287D01*
X63651Y561969D01*
X63414Y561656D01*
X63168Y561350D01*
X62915Y561049D01*
X62655Y560755D01*
X62388Y560467D01*
X62114Y560186D01*
X61833Y559912D01*
X61545Y559645D01*
X61251Y559385D01*
X60950Y559132D01*
X60644Y558886D01*
X60331Y558649D01*
X60013Y558419D01*
X59689Y558196D01*
X59360Y557982D01*
X59026Y557776D01*
X58686Y557579D01*
X58342Y557389D01*
X57994Y557208D01*
X57641Y557036D01*
X57284Y556873D01*
X56923Y556718D01*
X56558Y556572D01*
X56190Y556435D01*
X55819Y556308D01*
X55445Y556189D01*
X55067Y556080D01*
X54688Y555979D01*
X54306Y555889D01*
X53921Y555807D01*
X53535Y555736D01*
X53148Y555673D01*
X52759Y555620D01*
X52368Y555577D01*
X51977Y555543D01*
X51585Y555519D01*
X51193Y555505D01*
X50800Y555500D01*
X50407Y555505D01*
X50015Y555519D01*
X49623Y555543D01*
X49232Y555577D01*
X48841Y555620D01*
X48452Y555673D01*
X48065Y555736D01*
X47679Y555807D01*
X47294Y555889D01*
X46912Y555979D01*
X46533Y556080D01*
X46155Y556189D01*
X45781Y556308D01*
X45410Y556435D01*
X45042Y556572D01*
X44677Y556718D01*
X44316Y556873D01*
X43959Y557036D01*
X43606Y557208D01*
X43258Y557389D01*
X42914Y557579D01*
X42574Y557776D01*
X42240Y557982D01*
X41911Y558196D01*
X41587Y558419D01*
X41269Y558649D01*
X40956Y558886D01*
X40650Y559132D01*
X40349Y559385D01*
X40055Y559645D01*
X39767Y559912D01*
X39486Y560186D01*
X39212Y560467D01*
X38945Y560755D01*
X38685Y561049D01*
X38432Y561350D01*
X38186Y561656D01*
X37949Y561969D01*
X37719Y562287D01*
X37496Y562611D01*
X37282Y562940D01*
X37076Y563274D01*
X36879Y563614D01*
X36689Y563958D01*
X36508Y564306D01*
X36336Y564659D01*
X36173Y565016D01*
X36018Y565377D01*
X35872Y565742D01*
X35735Y566110D01*
X35608Y566481D01*
X35489Y566855D01*
X35380Y567233D01*
X35279Y567612D01*
X35189Y567994D01*
X35107Y568379D01*
X35036Y568765D01*
X34973Y569152D01*
X34920Y569541D01*
X34877Y569932D01*
X34843Y570323D01*
X34819Y570715D01*
X34805Y571107D01*
X34800Y571500D01*
D10*
X689610Y571500D02*
X689620Y572342D01*
X689651Y573183D01*
X689703Y574023D01*
X689775Y574861D01*
X689868Y575697D01*
X689981Y576531D01*
X690115Y577362D01*
X690269Y578190D01*
X690443Y579013D01*
X690638Y579832D01*
X690852Y580646D01*
X691087Y581454D01*
X691341Y582256D01*
X691614Y583052D01*
X691908Y583841D01*
X692220Y584622D01*
X692552Y585396D01*
X692902Y586161D01*
X693271Y586917D01*
X693659Y587664D01*
X694065Y588401D01*
X694488Y589129D01*
X694930Y589845D01*
X695389Y590551D01*
X695865Y591244D01*
X696358Y591927D01*
X696868Y592596D01*
X697393Y593253D01*
X697935Y593897D01*
X698493Y594528D01*
X699066Y595144D01*
X699653Y595747D01*
X700256Y596334D01*
X700872Y596907D01*
X701503Y597465D01*
X702147Y598007D01*
X702804Y598532D01*
X703473Y599042D01*
X704156Y599535D01*
X704849Y600011D01*
X705555Y600470D01*
X706271Y600912D01*
X706999Y601335D01*
X707736Y601741D01*
X708483Y602129D01*
X709239Y602498D01*
X710004Y602848D01*
X710778Y603180D01*
X711559Y603492D01*
X712348Y603786D01*
X713144Y604059D01*
X713946Y604313D01*
X714754Y604548D01*
X715568Y604762D01*
X716387Y604957D01*
X717210Y605131D01*
X718038Y605285D01*
X718869Y605419D01*
X719703Y605532D01*
X720539Y605625D01*
X721377Y605697D01*
X722217Y605749D01*
X723058Y605780D01*
X723900Y605790D01*
X724742Y605780D01*
X725583Y605749D01*
X726423Y605697D01*
X727261Y605625D01*
X728097Y605532D01*
X728931Y605419D01*
X729762Y605285D01*
X730590Y605131D01*
X731413Y604957D01*
X732232Y604762D01*
X733046Y604548D01*
X733854Y604313D01*
X734656Y604059D01*
X735452Y603786D01*
X736241Y603492D01*
X737022Y603180D01*
X737796Y602848D01*
X738561Y602498D01*
X739317Y602129D01*
X740064Y601741D01*
X740801Y601335D01*
X741529Y600912D01*
X742245Y600470D01*
X742951Y600011D01*
X743644Y599535D01*
X744327Y599042D01*
X744996Y598532D01*
X745653Y598007D01*
X746297Y597465D01*
X746928Y596907D01*
X747544Y596334D01*
X748147Y595747D01*
X748734Y595144D01*
X749307Y594528D01*
X749865Y593897D01*
X750407Y593253D01*
X750932Y592596D01*
X751442Y591927D01*
X751935Y591244D01*
X752411Y590551D01*
X752870Y589845D01*
X753312Y589129D01*
X753735Y588401D01*
X754141Y587664D01*
X754529Y586917D01*
X754898Y586161D01*
X755248Y585396D01*
X755580Y584622D01*
X755892Y583841D01*
X756186Y583052D01*
X756459Y582256D01*
X756713Y581454D01*
X756948Y580646D01*
X757162Y579832D01*
X757357Y579013D01*
X757531Y578190D01*
X757685Y577362D01*
X757819Y576531D01*
X757932Y575697D01*
X758025Y574861D01*
X758097Y574023D01*
X758149Y573183D01*
X758180Y572342D01*
X758190Y571500D01*
X758180Y570658D01*
X758149Y569817D01*
X758097Y568977D01*
X758025Y568139D01*
X757932Y567303D01*
X757819Y566469D01*
X757685Y565638D01*
X757531Y564810D01*
X757357Y563987D01*
X757162Y563168D01*
X756948Y562354D01*
X756713Y561546D01*
X756459Y560744D01*
X756186Y559948D01*
X755892Y559159D01*
X755580Y558378D01*
X755248Y557604D01*
X754898Y556839D01*
X754529Y556083D01*
X754141Y555336D01*
X753735Y554599D01*
X753312Y553871D01*
X752870Y553155D01*
X752411Y552449D01*
X751935Y551756D01*
X751442Y551073D01*
X750932Y550404D01*
X750407Y549747D01*
X749865Y549103D01*
X749307Y548472D01*
X748734Y547856D01*
X748147Y547253D01*
X747544Y546666D01*
X746928Y546093D01*
X746297Y545535D01*
X745653Y544993D01*
X744996Y544468D01*
X744327Y543958D01*
X743644Y543465D01*
X742951Y542989D01*
X742245Y542530D01*
X741529Y542088D01*
X740801Y541665D01*
X740064Y541259D01*
X739317Y540871D01*
X738561Y540502D01*
X737796Y540152D01*
X737022Y539820D01*
X736241Y539508D01*
X735452Y539214D01*
X734656Y538941D01*
X733854Y538687D01*
X733046Y538452D01*
X732232Y538238D01*
X731413Y538043D01*
X730590Y537869D01*
X729762Y537715D01*
X728931Y537581D01*
X728097Y537468D01*
X727261Y537375D01*
X726423Y537303D01*
X725583Y537251D01*
X724742Y537220D01*
X723900Y537210D01*
X723058Y537220D01*
X722217Y537251D01*
X721377Y537303D01*
X720539Y537375D01*
X719703Y537468D01*
X718869Y537581D01*
X718038Y537715D01*
X717210Y537869D01*
X716387Y538043D01*
X715568Y538238D01*
X714754Y538452D01*
X713946Y538687D01*
X713144Y538941D01*
X712348Y539214D01*
X711559Y539508D01*
X710778Y539820D01*
X710004Y540152D01*
X709239Y540502D01*
X708483Y540871D01*
X707736Y541259D01*
X706999Y541665D01*
X706271Y542088D01*
X705555Y542530D01*
X704849Y542989D01*
X704156Y543465D01*
X703473Y543958D01*
X702804Y544468D01*
X702147Y544993D01*
X701503Y545535D01*
X700872Y546093D01*
X700256Y546666D01*
X699653Y547253D01*
X699066Y547856D01*
X698493Y548472D01*
X697935Y549103D01*
X697393Y549747D01*
X696868Y550404D01*
X696358Y551073D01*
X695865Y551756D01*
X695389Y552449D01*
X694930Y553155D01*
X694488Y553871D01*
X694065Y554599D01*
X693659Y555336D01*
X693271Y556083D01*
X692902Y556839D01*
X692552Y557604D01*
X692220Y558378D01*
X691908Y559159D01*
X691614Y559948D01*
X691341Y560744D01*
X691087Y561546D01*
X690852Y562354D01*
X690638Y563168D01*
X690443Y563987D01*
X690269Y564810D01*
X690115Y565638D01*
X689981Y566469D01*
X689868Y567303D01*
X689775Y568139D01*
X689703Y568977D01*
X689651Y569817D01*
X689620Y570658D01*
X689610Y571500D01*
D12*
X707900Y571500D02*
X707905Y571893D01*
X707919Y572285D01*
X707943Y572677D01*
X707977Y573068D01*
X708020Y573459D01*
X708073Y573848D01*
X708136Y574235D01*
X708207Y574621D01*
X708289Y575006D01*
X708379Y575388D01*
X708480Y575767D01*
X708589Y576145D01*
X708708Y576519D01*
X708835Y576890D01*
X708972Y577258D01*
X709118Y577623D01*
X709273Y577984D01*
X709436Y578341D01*
X709608Y578694D01*
X709789Y579042D01*
X709979Y579386D01*
X710176Y579726D01*
X710382Y580060D01*
X710596Y580389D01*
X710819Y580713D01*
X711049Y581031D01*
X711286Y581344D01*
X711532Y581650D01*
X711785Y581951D01*
X712045Y582245D01*
X712312Y582533D01*
X712586Y582814D01*
X712867Y583088D01*
X713155Y583355D01*
X713449Y583615D01*
X713750Y583868D01*
X714056Y584114D01*
X714369Y584351D01*
X714687Y584581D01*
X715011Y584804D01*
X715340Y585018D01*
X715674Y585224D01*
X716014Y585421D01*
X716358Y585611D01*
X716706Y585792D01*
X717059Y585964D01*
X717416Y586127D01*
X717777Y586282D01*
X718142Y586428D01*
X718510Y586565D01*
X718881Y586692D01*
X719255Y586811D01*
X719633Y586920D01*
X720012Y587021D01*
X720394Y587111D01*
X720779Y587193D01*
X721165Y587264D01*
X721552Y587327D01*
X721941Y587380D01*
X722332Y587423D01*
X722723Y587457D01*
X723115Y587481D01*
X723507Y587495D01*
X723900Y587500D01*
X724293Y587495D01*
X724685Y587481D01*
X725077Y587457D01*
X725468Y587423D01*
X725859Y587380D01*
X726248Y587327D01*
X726635Y587264D01*
X727021Y587193D01*
X727406Y587111D01*
X727788Y587021D01*
X728167Y586920D01*
X728545Y586811D01*
X728919Y586692D01*
X729290Y586565D01*
X729658Y586428D01*
X730023Y586282D01*
X730384Y586127D01*
X730741Y585964D01*
X731094Y585792D01*
X731442Y585611D01*
X731786Y585421D01*
X732126Y585224D01*
X732460Y585018D01*
X732789Y584804D01*
X733113Y584581D01*
X733431Y584351D01*
X733744Y584114D01*
X734050Y583868D01*
X734351Y583615D01*
X734645Y583355D01*
X734933Y583088D01*
X735214Y582814D01*
X735488Y582533D01*
X735755Y582245D01*
X736015Y581951D01*
X736268Y581650D01*
X736514Y581344D01*
X736751Y581031D01*
X736981Y580713D01*
X737204Y580389D01*
X737418Y580060D01*
X737624Y579726D01*
X737821Y579386D01*
X738011Y579042D01*
X738192Y578694D01*
X738364Y578341D01*
X738527Y577984D01*
X738682Y577623D01*
X738828Y577258D01*
X738965Y576890D01*
X739092Y576519D01*
X739211Y576145D01*
X739320Y575767D01*
X739421Y575388D01*
X739511Y575006D01*
X739593Y574621D01*
X739664Y574235D01*
X739727Y573848D01*
X739780Y573459D01*
X739823Y573068D01*
X739857Y572677D01*
X739881Y572285D01*
X739895Y571893D01*
X739900Y571500D01*
X739895Y571107D01*
X739881Y570715D01*
X739857Y570323D01*
X739823Y569932D01*
X739780Y569541D01*
X739727Y569152D01*
X739664Y568765D01*
X739593Y568379D01*
X739511Y567994D01*
X739421Y567612D01*
X739320Y567233D01*
X739211Y566855D01*
X739092Y566481D01*
X738965Y566110D01*
X738828Y565742D01*
X738682Y565377D01*
X738527Y565016D01*
X738364Y564659D01*
X738192Y564306D01*
X738011Y563958D01*
X737821Y563614D01*
X737624Y563274D01*
X737418Y562940D01*
X737204Y562611D01*
X736981Y562287D01*
X736751Y561969D01*
X736514Y561656D01*
X736268Y561350D01*
X736015Y561049D01*
X735755Y560755D01*
X735488Y560467D01*
X735214Y560186D01*
X734933Y559912D01*
X734645Y559645D01*
X734351Y559385D01*
X734050Y559132D01*
X733744Y558886D01*
X733431Y558649D01*
X733113Y558419D01*
X732789Y558196D01*
X732460Y557982D01*
X732126Y557776D01*
X731786Y557579D01*
X731442Y557389D01*
X731094Y557208D01*
X730741Y557036D01*
X730384Y556873D01*
X730023Y556718D01*
X729658Y556572D01*
X729290Y556435D01*
X728919Y556308D01*
X728545Y556189D01*
X728167Y556080D01*
X727788Y555979D01*
X727406Y555889D01*
X727021Y555807D01*
X726635Y555736D01*
X726248Y555673D01*
X725859Y555620D01*
X725468Y555577D01*
X725077Y555543D01*
X724685Y555519D01*
X724293Y555505D01*
X723900Y555500D01*
X723507Y555505D01*
X723115Y555519D01*
X722723Y555543D01*
X722332Y555577D01*
X721941Y555620D01*
X721552Y555673D01*
X721165Y555736D01*
X720779Y555807D01*
X720394Y555889D01*
X720012Y555979D01*
X719633Y556080D01*
X719255Y556189D01*
X718881Y556308D01*
X718510Y556435D01*
X718142Y556572D01*
X717777Y556718D01*
X717416Y556873D01*
X717059Y557036D01*
X716706Y557208D01*
X716358Y557389D01*
X716014Y557579D01*
X715674Y557776D01*
X715340Y557982D01*
X715011Y558196D01*
X714687Y558419D01*
X714369Y558649D01*
X714056Y558886D01*
X713750Y559132D01*
X713449Y559385D01*
X713155Y559645D01*
X712867Y559912D01*
X712586Y560186D01*
X712312Y560467D01*
X712045Y560755D01*
X711785Y561049D01*
X711532Y561350D01*
X711286Y561656D01*
X711049Y561969D01*
X710819Y562287D01*
X710596Y562611D01*
X710382Y562940D01*
X710176Y563274D01*
X709979Y563614D01*
X709789Y563958D01*
X709608Y564306D01*
X709436Y564659D01*
X709273Y565016D01*
X709118Y565377D01*
X708972Y565742D01*
X708835Y566110D01*
X708708Y566481D01*
X708589Y566855D01*
X708480Y567233D01*
X708379Y567612D01*
X708289Y567994D01*
X708207Y568379D01*
X708136Y568765D01*
X708073Y569152D01*
X708020Y569541D01*
X707977Y569932D01*
X707943Y570323D01*
X707919Y570715D01*
X707905Y571107D01*
X707900Y571500D01*
D10*
X689610Y50800D02*
X689620Y51642D01*
X689651Y52483D01*
X689703Y53323D01*
X689775Y54161D01*
X689868Y54997D01*
X689981Y55831D01*
X690115Y56662D01*
X690269Y57490D01*
X690443Y58313D01*
X690638Y59132D01*
X690852Y59946D01*
X691087Y60754D01*
X691341Y61556D01*
X691614Y62352D01*
X691908Y63141D01*
X692220Y63922D01*
X692552Y64696D01*
X692902Y65461D01*
X693271Y66217D01*
X693659Y66964D01*
X694065Y67701D01*
X694488Y68429D01*
X694930Y69145D01*
X695389Y69851D01*
X695865Y70544D01*
X696358Y71227D01*
X696868Y71896D01*
X697393Y72553D01*
X697935Y73197D01*
X698493Y73828D01*
X699066Y74444D01*
X699653Y75047D01*
X700256Y75634D01*
X700872Y76207D01*
X701503Y76765D01*
X702147Y77307D01*
X702804Y77832D01*
X703473Y78342D01*
X704156Y78835D01*
X704849Y79311D01*
X705555Y79770D01*
X706271Y80212D01*
X706999Y80635D01*
X707736Y81041D01*
X708483Y81429D01*
X709239Y81798D01*
X710004Y82148D01*
X710778Y82480D01*
X711559Y82792D01*
X712348Y83086D01*
X713144Y83359D01*
X713946Y83613D01*
X714754Y83848D01*
X715568Y84062D01*
X716387Y84257D01*
X717210Y84431D01*
X718038Y84585D01*
X718869Y84719D01*
X719703Y84832D01*
X720539Y84925D01*
X721377Y84997D01*
X722217Y85049D01*
X723058Y85080D01*
X723900Y85090D01*
X724742Y85080D01*
X725583Y85049D01*
X726423Y84997D01*
X727261Y84925D01*
X728097Y84832D01*
X728931Y84719D01*
X729762Y84585D01*
X730590Y84431D01*
X731413Y84257D01*
X732232Y84062D01*
X733046Y83848D01*
X733854Y83613D01*
X734656Y83359D01*
X735452Y83086D01*
X736241Y82792D01*
X737022Y82480D01*
X737796Y82148D01*
X738561Y81798D01*
X739317Y81429D01*
X740064Y81041D01*
X740801Y80635D01*
X741529Y80212D01*
X742245Y79770D01*
X742951Y79311D01*
X743644Y78835D01*
X744327Y78342D01*
X744996Y77832D01*
X745653Y77307D01*
X746297Y76765D01*
X746928Y76207D01*
X747544Y75634D01*
X748147Y75047D01*
X748734Y74444D01*
X749307Y73828D01*
X749865Y73197D01*
X750407Y72553D01*
X750932Y71896D01*
X751442Y71227D01*
X751935Y70544D01*
X752411Y69851D01*
X752870Y69145D01*
X753312Y68429D01*
X753735Y67701D01*
X754141Y66964D01*
X754529Y66217D01*
X754898Y65461D01*
X755248Y64696D01*
X755580Y63922D01*
X755892Y63141D01*
X756186Y62352D01*
X756459Y61556D01*
X756713Y60754D01*
X756948Y59946D01*
X757162Y59132D01*
X757357Y58313D01*
X757531Y57490D01*
X757685Y56662D01*
X757819Y55831D01*
X757932Y54997D01*
X758025Y54161D01*
X758097Y53323D01*
X758149Y52483D01*
X758180Y51642D01*
X758190Y50800D01*
X758180Y49958D01*
X758149Y49117D01*
X758097Y48277D01*
X758025Y47439D01*
X757932Y46603D01*
X757819Y45769D01*
X757685Y44938D01*
X757531Y44110D01*
X757357Y43287D01*
X757162Y42468D01*
X756948Y41654D01*
X756713Y40846D01*
X756459Y40044D01*
X756186Y39248D01*
X755892Y38459D01*
X755580Y37678D01*
X755248Y36904D01*
X754898Y36139D01*
X754529Y35383D01*
X754141Y34636D01*
X753735Y33899D01*
X753312Y33171D01*
X752870Y32455D01*
X752411Y31749D01*
X751935Y31056D01*
X751442Y30373D01*
X750932Y29704D01*
X750407Y29047D01*
X749865Y28403D01*
X749307Y27772D01*
X748734Y27156D01*
X748147Y26553D01*
X747544Y25966D01*
X746928Y25393D01*
X746297Y24835D01*
X745653Y24293D01*
X744996Y23768D01*
X744327Y23258D01*
X743644Y22765D01*
X742951Y22289D01*
X742245Y21830D01*
X741529Y21388D01*
X740801Y20965D01*
X740064Y20559D01*
X739317Y20171D01*
X738561Y19802D01*
X737796Y19452D01*
X737022Y19120D01*
X736241Y18808D01*
X735452Y18514D01*
X734656Y18241D01*
X733854Y17987D01*
X733046Y17752D01*
X732232Y17538D01*
X731413Y17343D01*
X730590Y17169D01*
X729762Y17015D01*
X728931Y16881D01*
X728097Y16768D01*
X727261Y16675D01*
X726423Y16603D01*
X725583Y16551D01*
X724742Y16520D01*
X723900Y16510D01*
X723058Y16520D01*
X722217Y16551D01*
X721377Y16603D01*
X720539Y16675D01*
X719703Y16768D01*
X718869Y16881D01*
X718038Y17015D01*
X717210Y17169D01*
X716387Y17343D01*
X715568Y17538D01*
X714754Y17752D01*
X713946Y17987D01*
X713144Y18241D01*
X712348Y18514D01*
X711559Y18808D01*
X710778Y19120D01*
X710004Y19452D01*
X709239Y19802D01*
X708483Y20171D01*
X707736Y20559D01*
X706999Y20965D01*
X706271Y21388D01*
X705555Y21830D01*
X704849Y22289D01*
X704156Y22765D01*
X703473Y23258D01*
X702804Y23768D01*
X702147Y24293D01*
X701503Y24835D01*
X700872Y25393D01*
X700256Y25966D01*
X699653Y26553D01*
X699066Y27156D01*
X698493Y27772D01*
X697935Y28403D01*
X697393Y29047D01*
X696868Y29704D01*
X696358Y30373D01*
X695865Y31056D01*
X695389Y31749D01*
X694930Y32455D01*
X694488Y33171D01*
X694065Y33899D01*
X693659Y34636D01*
X693271Y35383D01*
X692902Y36139D01*
X692552Y36904D01*
X692220Y37678D01*
X691908Y38459D01*
X691614Y39248D01*
X691341Y40044D01*
X691087Y40846D01*
X690852Y41654D01*
X690638Y42468D01*
X690443Y43287D01*
X690269Y44110D01*
X690115Y44938D01*
X689981Y45769D01*
X689868Y46603D01*
X689775Y47439D01*
X689703Y48277D01*
X689651Y49117D01*
X689620Y49958D01*
X689610Y50800D01*
D12*
X707900Y50800D02*
X707905Y51193D01*
X707919Y51585D01*
X707943Y51977D01*
X707977Y52368D01*
X708020Y52759D01*
X708073Y53148D01*
X708136Y53535D01*
X708207Y53921D01*
X708289Y54306D01*
X708379Y54688D01*
X708480Y55067D01*
X708589Y55445D01*
X708708Y55819D01*
X708835Y56190D01*
X708972Y56558D01*
X709118Y56923D01*
X709273Y57284D01*
X709436Y57641D01*
X709608Y57994D01*
X709789Y58342D01*
X709979Y58686D01*
X710176Y59026D01*
X710382Y59360D01*
X710596Y59689D01*
X710819Y60013D01*
X711049Y60331D01*
X711286Y60644D01*
X711532Y60950D01*
X711785Y61251D01*
X712045Y61545D01*
X712312Y61833D01*
X712586Y62114D01*
X712867Y62388D01*
X713155Y62655D01*
X713449Y62915D01*
X713750Y63168D01*
X714056Y63414D01*
X714369Y63651D01*
X714687Y63881D01*
X715011Y64104D01*
X715340Y64318D01*
X715674Y64524D01*
X716014Y64721D01*
X716358Y64911D01*
X716706Y65092D01*
X717059Y65264D01*
X717416Y65427D01*
X717777Y65582D01*
X718142Y65728D01*
X718510Y65865D01*
X718881Y65992D01*
X719255Y66111D01*
X719633Y66220D01*
X720012Y66321D01*
X720394Y66411D01*
X720779Y66493D01*
X721165Y66564D01*
X721552Y66627D01*
X721941Y66680D01*
X722332Y66723D01*
X722723Y66757D01*
X723115Y66781D01*
X723507Y66795D01*
X723900Y66800D01*
X724293Y66795D01*
X724685Y66781D01*
X725077Y66757D01*
X725468Y66723D01*
X725859Y66680D01*
X726248Y66627D01*
X726635Y66564D01*
X727021Y66493D01*
X727406Y66411D01*
X727788Y66321D01*
X728167Y66220D01*
X728545Y66111D01*
X728919Y65992D01*
X729290Y65865D01*
X729658Y65728D01*
X730023Y65582D01*
X730384Y65427D01*
X730741Y65264D01*
X731094Y65092D01*
X731442Y64911D01*
X731786Y64721D01*
X732126Y64524D01*
X732460Y64318D01*
X732789Y64104D01*
X733113Y63881D01*
X733431Y63651D01*
X733744Y63414D01*
X734050Y63168D01*
X734351Y62915D01*
X734645Y62655D01*
X734933Y62388D01*
X735214Y62114D01*
X735488Y61833D01*
X735755Y61545D01*
X736015Y61251D01*
X736268Y60950D01*
X736514Y60644D01*
X736751Y60331D01*
X736981Y60013D01*
X737204Y59689D01*
X737418Y59360D01*
X737624Y59026D01*
X737821Y58686D01*
X738011Y58342D01*
X738192Y57994D01*
X738364Y57641D01*
X738527Y57284D01*
X738682Y56923D01*
X738828Y56558D01*
X738965Y56190D01*
X739092Y55819D01*
X739211Y55445D01*
X739320Y55067D01*
X739421Y54688D01*
X739511Y54306D01*
X739593Y53921D01*
X739664Y53535D01*
X739727Y53148D01*
X739780Y52759D01*
X739823Y52368D01*
X739857Y51977D01*
X739881Y51585D01*
X739895Y51193D01*
X739900Y50800D01*
X739895Y50407D01*
X739881Y50015D01*
X739857Y49623D01*
X739823Y49232D01*
X739780Y48841D01*
X739727Y48452D01*
X739664Y48065D01*
X739593Y47679D01*
X739511Y47294D01*
X739421Y46912D01*
X739320Y46533D01*
X739211Y46155D01*
X739092Y45781D01*
X738965Y45410D01*
X738828Y45042D01*
X738682Y44677D01*
X738527Y44316D01*
X738364Y43959D01*
X738192Y43606D01*
X738011Y43258D01*
X737821Y42914D01*
X737624Y42574D01*
X737418Y42240D01*
X737204Y41911D01*
X736981Y41587D01*
X736751Y41269D01*
X736514Y40956D01*
X736268Y40650D01*
X736015Y40349D01*
X735755Y40055D01*
X735488Y39767D01*
X735214Y39486D01*
X734933Y39212D01*
X734645Y38945D01*
X734351Y38685D01*
X734050Y38432D01*
X733744Y38186D01*
X733431Y37949D01*
X733113Y37719D01*
X732789Y37496D01*
X732460Y37282D01*
X732126Y37076D01*
X731786Y36879D01*
X731442Y36689D01*
X731094Y36508D01*
X730741Y36336D01*
X730384Y36173D01*
X730023Y36018D01*
X729658Y35872D01*
X729290Y35735D01*
X728919Y35608D01*
X728545Y35489D01*
X728167Y35380D01*
X727788Y35279D01*
X727406Y35189D01*
X727021Y35107D01*
X726635Y35036D01*
X726248Y34973D01*
X725859Y34920D01*
X725468Y34877D01*
X725077Y34843D01*
X724685Y34819D01*
X724293Y34805D01*
X723900Y34800D01*
X723507Y34805D01*
X723115Y34819D01*
X722723Y34843D01*
X722332Y34877D01*
X721941Y34920D01*
X721552Y34973D01*
X721165Y35036D01*
X720779Y35107D01*
X720394Y35189D01*
X720012Y35279D01*
X719633Y35380D01*
X719255Y35489D01*
X718881Y35608D01*
X718510Y35735D01*
X718142Y35872D01*
X717777Y36018D01*
X717416Y36173D01*
X717059Y36336D01*
X716706Y36508D01*
X716358Y36689D01*
X716014Y36879D01*
X715674Y37076D01*
X715340Y37282D01*
X715011Y37496D01*
X714687Y37719D01*
X714369Y37949D01*
X714056Y38186D01*
X713750Y38432D01*
X713449Y38685D01*
X713155Y38945D01*
X712867Y39212D01*
X712586Y39486D01*
X712312Y39767D01*
X712045Y40055D01*
X711785Y40349D01*
X711532Y40650D01*
X711286Y40956D01*
X711049Y41269D01*
X710819Y41587D01*
X710596Y41911D01*
X710382Y42240D01*
X710176Y42574D01*
X709979Y42914D01*
X709789Y43258D01*
X709608Y43606D01*
X709436Y43959D01*
X709273Y44316D01*
X709118Y44677D01*
X708972Y45042D01*
X708835Y45410D01*
X708708Y45781D01*
X708589Y46155D01*
X708480Y46533D01*
X708379Y46912D01*
X708289Y47294D01*
X708207Y47679D01*
X708136Y48065D01*
X708073Y48452D01*
X708020Y48841D01*
X707977Y49232D01*
X707943Y49623D01*
X707919Y50015D01*
X707905Y50407D01*
X707900Y50800D01*
X457200Y488950D02*
X457200Y527050D01*
D13*
X456362Y488163D02*
X458191Y489535D01*
X458191Y489534D02*
X458650Y488943D01*
X459123Y488363D01*
X459610Y487795D01*
X460111Y487239D01*
X460625Y486696D01*
X461152Y486165D01*
X461692Y485647D01*
X462245Y485142D01*
X462810Y484652D01*
X463387Y484175D01*
X463975Y483712D01*
X464574Y483264D01*
X465185Y482831D01*
X465805Y482412D01*
X466436Y482010D01*
X467076Y481622D01*
X467725Y481250D01*
X468384Y480895D01*
X469051Y480555D01*
X469726Y480232D01*
X470409Y479926D01*
X471099Y479636D01*
X471795Y479363D01*
X472499Y479108D01*
X473208Y478870D01*
X473923Y478649D01*
X474643Y478445D01*
X475368Y478260D01*
X476097Y478092D01*
X476831Y477942D01*
X477567Y477810D01*
X478307Y477696D01*
X479049Y477600D01*
X479793Y477522D01*
X480539Y477462D01*
X481286Y477421D01*
X482034Y477398D01*
X482783Y477394D01*
X483531Y477407D01*
X484279Y477439D01*
X485025Y477489D01*
X485770Y477558D01*
X486514Y477644D01*
X487255Y477749D01*
X487993Y477872D01*
X488728Y478013D01*
X489459Y478171D01*
X490186Y478348D01*
X490909Y478542D01*
X491627Y478754D01*
X492339Y478984D01*
X493045Y479231D01*
X493746Y479495D01*
X494439Y479776D01*
X495126Y480073D01*
X495805Y480388D01*
X496476Y480719D01*
X497139Y481066D01*
X497793Y481430D01*
X498438Y481809D01*
X499073Y482204D01*
X499699Y482615D01*
X500315Y483040D01*
X500920Y483481D01*
X501514Y483936D01*
X502096Y484406D01*
X502667Y484890D01*
X503226Y485387D01*
X503773Y485898D01*
X504307Y486422D01*
X504828Y486959D01*
X505336Y487509D01*
X505830Y488071D01*
X506310Y488645D01*
X506776Y489230D01*
X507228Y489827D01*
X507665Y490435D01*
X508087Y491053D01*
X508494Y491681D01*
X508885Y492319D01*
X509260Y492966D01*
X509620Y493622D01*
X509963Y494287D01*
X510290Y494960D01*
X510601Y495641D01*
X510895Y496329D01*
X511171Y497025D01*
X511431Y497726D01*
X511674Y498434D01*
X511899Y499148D01*
X512107Y499867D01*
X512297Y500591D01*
X512469Y501319D01*
X512623Y502051D01*
X512760Y502787D01*
X512878Y503526D01*
X512979Y504268D01*
X513061Y505011D01*
X513125Y505757D01*
X513170Y506504D01*
X513198Y507252D01*
X513207Y508000D01*
X513198Y508748D01*
X513170Y509496D01*
X513125Y510243D01*
X513061Y510989D01*
X512979Y511732D01*
X512878Y512474D01*
X512760Y513213D01*
X512623Y513949D01*
X512469Y514681D01*
X512297Y515409D01*
X512107Y516133D01*
X511899Y516852D01*
X511674Y517566D01*
X511431Y518274D01*
X511171Y518975D01*
X510895Y519671D01*
X510601Y520359D01*
X510290Y521040D01*
X509963Y521713D01*
X509620Y522378D01*
X509260Y523034D01*
X508885Y523681D01*
X508494Y524319D01*
X508087Y524947D01*
X507665Y525565D01*
X507228Y526173D01*
X506776Y526770D01*
X506310Y527355D01*
X505830Y527929D01*
X505336Y528491D01*
X504828Y529041D01*
X504307Y529578D01*
X503773Y530102D01*
X503226Y530613D01*
X502667Y531110D01*
X502096Y531594D01*
X501514Y532064D01*
X500920Y532519D01*
X500315Y532960D01*
X499699Y533385D01*
X499073Y533796D01*
X498438Y534191D01*
X497793Y534570D01*
X497139Y534934D01*
X496476Y535281D01*
X495805Y535612D01*
X495126Y535927D01*
X494439Y536224D01*
X493746Y536505D01*
X493045Y536769D01*
X492339Y537016D01*
X491627Y537246D01*
X490909Y537458D01*
X490186Y537652D01*
X489459Y537829D01*
X488728Y537987D01*
X487993Y538128D01*
X487255Y538251D01*
X486514Y538356D01*
X485770Y538442D01*
X485025Y538511D01*
X484279Y538561D01*
X483531Y538593D01*
X482783Y538606D01*
X482034Y538602D01*
X481286Y538579D01*
X480539Y538538D01*
X479793Y538478D01*
X479049Y538400D01*
X478307Y538304D01*
X477567Y538190D01*
X476831Y538058D01*
X476097Y537908D01*
X475368Y537740D01*
X474643Y537555D01*
X473923Y537351D01*
X473208Y537130D01*
X472499Y536892D01*
X471795Y536637D01*
X471099Y536364D01*
X470409Y536074D01*
X469726Y535768D01*
X469051Y535445D01*
X468384Y535105D01*
X467725Y534750D01*
X467076Y534378D01*
X466436Y533990D01*
X465805Y533588D01*
X465185Y533169D01*
X464574Y532736D01*
X463975Y532288D01*
X463387Y531825D01*
X462810Y531348D01*
X462245Y530858D01*
X461692Y530353D01*
X461152Y529835D01*
X460625Y529304D01*
X460111Y528761D01*
X459610Y528205D01*
X459123Y527637D01*
X458650Y527057D01*
X458191Y526466D01*
X456362Y527837D01*
X456855Y528473D01*
X457363Y529096D01*
X457887Y529707D01*
X458425Y530305D01*
X458977Y530889D01*
X459544Y531460D01*
X460124Y532017D01*
X460718Y532559D01*
X461325Y533087D01*
X461945Y533599D01*
X462577Y534097D01*
X463221Y534579D01*
X463877Y535044D01*
X464544Y535494D01*
X465222Y535927D01*
X465910Y536344D01*
X466608Y536744D01*
X467315Y537126D01*
X468032Y537491D01*
X468757Y537838D01*
X469491Y538168D01*
X470233Y538479D01*
X470982Y538773D01*
X471737Y539048D01*
X472500Y539304D01*
X473268Y539542D01*
X474042Y539760D01*
X474821Y539960D01*
X475605Y540141D01*
X476393Y540302D01*
X477185Y540444D01*
X477980Y540567D01*
X478777Y540670D01*
X479577Y540754D01*
X480379Y540818D01*
X481182Y540862D01*
X481986Y540887D01*
X482790Y540892D01*
X483595Y540878D01*
X484398Y540844D01*
X485201Y540790D01*
X486002Y540717D01*
X486801Y540624D01*
X487597Y540511D01*
X488390Y540379D01*
X489180Y540228D01*
X489966Y540058D01*
X490748Y539868D01*
X491525Y539659D01*
X492296Y539431D01*
X493062Y539185D01*
X493821Y538920D01*
X494574Y538636D01*
X495319Y538334D01*
X496057Y538014D01*
X496787Y537676D01*
X497509Y537320D01*
X498221Y536947D01*
X498924Y536556D01*
X499617Y536149D01*
X500301Y535724D01*
X500973Y535283D01*
X501635Y534826D01*
X502285Y534352D01*
X502923Y533863D01*
X503550Y533359D01*
X504164Y532839D01*
X504764Y532304D01*
X505352Y531755D01*
X505926Y531191D01*
X506486Y530614D01*
X507032Y530023D01*
X507563Y529419D01*
X508079Y528803D01*
X508580Y528173D01*
X509066Y527532D01*
X509536Y526879D01*
X509989Y526215D01*
X510426Y525540D01*
X510847Y524854D01*
X511251Y524159D01*
X511637Y523453D01*
X512006Y522739D01*
X512358Y522015D01*
X512692Y521283D01*
X513007Y520544D01*
X513305Y519796D01*
X513584Y519042D01*
X513845Y518281D01*
X514087Y517514D01*
X514310Y516741D01*
X514514Y515963D01*
X514700Y515181D01*
X514866Y514394D01*
X515012Y513603D01*
X515140Y512809D01*
X515247Y512012D01*
X515336Y511212D01*
X515405Y510411D01*
X515454Y509608D01*
X515483Y508804D01*
X515493Y508000D01*
X515483Y507196D01*
X515454Y506392D01*
X515405Y505589D01*
X515336Y504788D01*
X515247Y503988D01*
X515140Y503191D01*
X515012Y502397D01*
X514866Y501606D01*
X514700Y500819D01*
X514514Y500037D01*
X514310Y499259D01*
X514087Y498486D01*
X513845Y497719D01*
X513584Y496958D01*
X513305Y496204D01*
X513007Y495456D01*
X512692Y494717D01*
X512358Y493985D01*
X512006Y493261D01*
X511637Y492547D01*
X511251Y491841D01*
X510847Y491146D01*
X510426Y490460D01*
X509989Y489785D01*
X509536Y489121D01*
X509066Y488468D01*
X508580Y487827D01*
X508079Y487197D01*
X507563Y486581D01*
X507032Y485977D01*
X506486Y485386D01*
X505926Y484809D01*
X505352Y484245D01*
X504764Y483696D01*
X504164Y483161D01*
X503550Y482641D01*
X502923Y482137D01*
X502285Y481648D01*
X501635Y481174D01*
X500973Y480717D01*
X500301Y480276D01*
X499617Y479851D01*
X498924Y479444D01*
X498221Y479053D01*
X497509Y478680D01*
X496787Y478324D01*
X496057Y477986D01*
X495319Y477666D01*
X494574Y477364D01*
X493821Y477080D01*
X493062Y476815D01*
X492296Y476569D01*
X491525Y476341D01*
X490748Y476132D01*
X489966Y475942D01*
X489180Y475772D01*
X488390Y475621D01*
X487597Y475489D01*
X486801Y475376D01*
X486002Y475283D01*
X485201Y475210D01*
X484398Y475156D01*
X483595Y475122D01*
X482790Y475108D01*
X481986Y475113D01*
X481182Y475138D01*
X480379Y475182D01*
X479577Y475246D01*
X478777Y475330D01*
X477980Y475433D01*
X477185Y475556D01*
X476393Y475698D01*
X475605Y475859D01*
X474821Y476040D01*
X474042Y476240D01*
X473268Y476458D01*
X472500Y476696D01*
X471737Y476952D01*
X470982Y477227D01*
X470233Y477521D01*
X469491Y477832D01*
X468757Y478162D01*
X468032Y478509D01*
X467315Y478874D01*
X466608Y479256D01*
X465910Y479656D01*
X465222Y480073D01*
X464544Y480506D01*
X463877Y480956D01*
X463221Y481421D01*
X462577Y481903D01*
X461945Y482401D01*
X461325Y482913D01*
X460718Y483441D01*
X460124Y483983D01*
X459544Y484540D01*
X458977Y485111D01*
X458425Y485695D01*
X457887Y486293D01*
X457363Y486904D01*
X456855Y487527D01*
X456362Y488163D01*
X456554Y488307D01*
X457043Y487676D01*
X457548Y487057D01*
X458067Y486451D01*
X458602Y485857D01*
X459150Y485277D01*
X459713Y484711D01*
X460289Y484158D01*
X460879Y483620D01*
X461481Y483096D01*
X462097Y482587D01*
X462724Y482093D01*
X463363Y481615D01*
X464014Y481152D01*
X464676Y480706D01*
X465349Y480276D01*
X466032Y479862D01*
X466725Y479466D01*
X467427Y479086D01*
X468139Y478724D01*
X468859Y478379D01*
X469587Y478052D01*
X470324Y477743D01*
X471067Y477452D01*
X471817Y477179D01*
X472574Y476924D01*
X473337Y476688D01*
X474105Y476471D01*
X474879Y476273D01*
X475657Y476094D01*
X476439Y475933D01*
X477225Y475792D01*
X478014Y475671D01*
X478806Y475568D01*
X479600Y475485D01*
X480396Y475421D01*
X481193Y475377D01*
X481991Y475353D01*
X482790Y475348D01*
X483588Y475362D01*
X484386Y475396D01*
X485182Y475449D01*
X485977Y475522D01*
X486770Y475614D01*
X487561Y475726D01*
X488349Y475857D01*
X489133Y476007D01*
X489913Y476176D01*
X490689Y476365D01*
X491460Y476572D01*
X492226Y476798D01*
X492986Y477043D01*
X493740Y477306D01*
X494487Y477588D01*
X495227Y477887D01*
X495960Y478205D01*
X496684Y478541D01*
X497400Y478894D01*
X498107Y479264D01*
X498805Y479652D01*
X499494Y480057D01*
X500172Y480478D01*
X500839Y480916D01*
X501496Y481370D01*
X502142Y481840D01*
X502775Y482326D01*
X503397Y482827D01*
X504006Y483343D01*
X504603Y483873D01*
X505186Y484419D01*
X505756Y484978D01*
X506312Y485551D01*
X506854Y486138D01*
X507381Y486737D01*
X507894Y487349D01*
X508391Y487974D01*
X508873Y488611D01*
X509339Y489259D01*
X509789Y489918D01*
X510223Y490588D01*
X510641Y491269D01*
X511042Y491960D01*
X511425Y492660D01*
X511792Y493369D01*
X512141Y494087D01*
X512472Y494814D01*
X512786Y495548D01*
X513081Y496290D01*
X513358Y497039D01*
X513617Y497794D01*
X513857Y498555D01*
X514079Y499322D01*
X514282Y500095D01*
X514465Y500872D01*
X514630Y501653D01*
X514776Y502438D01*
X514902Y503226D01*
X515009Y504018D01*
X515097Y504811D01*
X515165Y505607D01*
X515214Y506404D01*
X515243Y507202D01*
X515253Y508000D01*
X515243Y508798D01*
X515214Y509596D01*
X515165Y510393D01*
X515097Y511189D01*
X515009Y511982D01*
X514902Y512774D01*
X514776Y513562D01*
X514630Y514347D01*
X514465Y515128D01*
X514282Y515905D01*
X514079Y516678D01*
X513857Y517445D01*
X513617Y518206D01*
X513358Y518961D01*
X513081Y519710D01*
X512786Y520452D01*
X512472Y521186D01*
X512141Y521913D01*
X511792Y522631D01*
X511425Y523340D01*
X511042Y524040D01*
X510641Y524731D01*
X510223Y525412D01*
X509789Y526082D01*
X509339Y526741D01*
X508873Y527389D01*
X508391Y528026D01*
X507894Y528651D01*
X507381Y529263D01*
X506854Y529862D01*
X506312Y530449D01*
X505756Y531022D01*
X505186Y531581D01*
X504603Y532127D01*
X504006Y532657D01*
X503397Y533173D01*
X502775Y533674D01*
X502142Y534160D01*
X501496Y534630D01*
X500839Y535084D01*
X500172Y535522D01*
X499494Y535943D01*
X498805Y536348D01*
X498107Y536736D01*
X497400Y537106D01*
X496684Y537459D01*
X495960Y537795D01*
X495227Y538113D01*
X494487Y538412D01*
X493740Y538694D01*
X492986Y538957D01*
X492226Y539202D01*
X491460Y539428D01*
X490689Y539635D01*
X489913Y539824D01*
X489133Y539993D01*
X488349Y540143D01*
X487561Y540274D01*
X486770Y540386D01*
X485977Y540478D01*
X485182Y540551D01*
X484386Y540604D01*
X483588Y540638D01*
X482790Y540652D01*
X481991Y540647D01*
X481193Y540623D01*
X480396Y540579D01*
X479600Y540515D01*
X478806Y540432D01*
X478014Y540329D01*
X477225Y540208D01*
X476439Y540067D01*
X475657Y539906D01*
X474879Y539727D01*
X474105Y539529D01*
X473337Y539312D01*
X472574Y539076D01*
X471817Y538821D01*
X471067Y538548D01*
X470324Y538257D01*
X469587Y537948D01*
X468859Y537621D01*
X468139Y537276D01*
X467427Y536914D01*
X466725Y536534D01*
X466032Y536138D01*
X465349Y535724D01*
X464676Y535294D01*
X464014Y534848D01*
X463363Y534385D01*
X462724Y533907D01*
X462097Y533413D01*
X461481Y532904D01*
X460879Y532380D01*
X460289Y531842D01*
X459713Y531289D01*
X459150Y530723D01*
X458602Y530143D01*
X458067Y529549D01*
X457548Y528943D01*
X457043Y528324D01*
X456554Y527693D01*
X456746Y527549D01*
X457232Y528176D01*
X457733Y528790D01*
X458248Y529392D01*
X458779Y529981D01*
X459323Y530556D01*
X459882Y531119D01*
X460454Y531667D01*
X461039Y532202D01*
X461637Y532722D01*
X462248Y533227D01*
X462871Y533717D01*
X463505Y534192D01*
X464152Y534651D01*
X464809Y535094D01*
X465476Y535521D01*
X466155Y535931D01*
X466842Y536325D01*
X467540Y536702D01*
X468246Y537061D01*
X468961Y537404D01*
X469684Y537728D01*
X470414Y538035D01*
X471152Y538324D01*
X471897Y538595D01*
X472649Y538848D01*
X473406Y539082D01*
X474168Y539297D01*
X474936Y539494D01*
X475709Y539672D01*
X476485Y539831D01*
X477265Y539971D01*
X478048Y540092D01*
X478834Y540194D01*
X479623Y540276D01*
X480413Y540339D01*
X481204Y540383D01*
X481996Y540407D01*
X482789Y540412D01*
X483581Y540398D01*
X484373Y540364D01*
X485164Y540311D01*
X485953Y540239D01*
X486740Y540147D01*
X487525Y540037D01*
X488307Y539907D01*
X489085Y539758D01*
X489860Y539589D01*
X490630Y539403D01*
X491396Y539197D01*
X492156Y538972D01*
X492910Y538730D01*
X493658Y538468D01*
X494400Y538189D01*
X495135Y537891D01*
X495862Y537576D01*
X496581Y537243D01*
X497292Y536892D01*
X497994Y536524D01*
X498687Y536139D01*
X499370Y535738D01*
X500043Y535319D01*
X500706Y534885D01*
X501358Y534434D01*
X501998Y533967D01*
X502627Y533485D01*
X503245Y532988D01*
X503849Y532476D01*
X504441Y531949D01*
X505020Y531408D01*
X505586Y530853D01*
X506138Y530284D01*
X506676Y529702D01*
X507199Y529106D01*
X507708Y528499D01*
X508202Y527879D01*
X508680Y527247D01*
X509143Y526603D01*
X509590Y525949D01*
X510020Y525284D01*
X510435Y524608D01*
X510833Y523922D01*
X511213Y523227D01*
X511577Y522523D01*
X511924Y521810D01*
X512253Y521089D01*
X512564Y520360D01*
X512857Y519624D01*
X513132Y518881D01*
X513389Y518131D01*
X513628Y517375D01*
X513848Y516614D01*
X514049Y515847D01*
X514231Y515076D01*
X514395Y514300D01*
X514539Y513521D01*
X514665Y512738D01*
X514771Y511953D01*
X514858Y511165D01*
X514926Y510376D01*
X514974Y509585D01*
X515003Y508793D01*
X515013Y508000D01*
X515003Y507207D01*
X514974Y506415D01*
X514926Y505624D01*
X514858Y504835D01*
X514771Y504047D01*
X514665Y503262D01*
X514539Y502479D01*
X514395Y501700D01*
X514231Y500924D01*
X514049Y500153D01*
X513848Y499386D01*
X513628Y498625D01*
X513389Y497869D01*
X513132Y497119D01*
X512857Y496376D01*
X512564Y495640D01*
X512253Y494911D01*
X511924Y494190D01*
X511577Y493477D01*
X511213Y492773D01*
X510833Y492078D01*
X510435Y491392D01*
X510020Y490716D01*
X509590Y490051D01*
X509143Y489397D01*
X508680Y488753D01*
X508202Y488121D01*
X507708Y487501D01*
X507199Y486894D01*
X506676Y486298D01*
X506138Y485716D01*
X505586Y485147D01*
X505020Y484592D01*
X504441Y484051D01*
X503849Y483524D01*
X503245Y483012D01*
X502627Y482515D01*
X501998Y482033D01*
X501358Y481566D01*
X500706Y481115D01*
X500043Y480681D01*
X499370Y480262D01*
X498687Y479861D01*
X497994Y479476D01*
X497292Y479108D01*
X496581Y478757D01*
X495862Y478424D01*
X495135Y478109D01*
X494400Y477811D01*
X493658Y477532D01*
X492910Y477270D01*
X492156Y477028D01*
X491396Y476803D01*
X490630Y476597D01*
X489860Y476411D01*
X489085Y476242D01*
X488307Y476093D01*
X487525Y475963D01*
X486740Y475853D01*
X485953Y475761D01*
X485164Y475689D01*
X484373Y475636D01*
X483581Y475602D01*
X482789Y475588D01*
X481996Y475593D01*
X481204Y475617D01*
X480413Y475661D01*
X479623Y475724D01*
X478834Y475806D01*
X478048Y475908D01*
X477265Y476029D01*
X476485Y476169D01*
X475709Y476328D01*
X474936Y476506D01*
X474168Y476703D01*
X473406Y476918D01*
X472649Y477152D01*
X471897Y477405D01*
X471152Y477676D01*
X470414Y477965D01*
X469684Y478272D01*
X468961Y478596D01*
X468246Y478939D01*
X467540Y479298D01*
X466842Y479675D01*
X466155Y480069D01*
X465476Y480479D01*
X464809Y480906D01*
X464152Y481349D01*
X463505Y481808D01*
X462871Y482283D01*
X462248Y482773D01*
X461637Y483278D01*
X461039Y483798D01*
X460454Y484333D01*
X459882Y484881D01*
X459323Y485444D01*
X458779Y486019D01*
X458248Y486608D01*
X457733Y487210D01*
X457232Y487824D01*
X456746Y488451D01*
X456938Y488595D01*
X457420Y487973D01*
X457917Y487363D01*
X458429Y486766D01*
X458956Y486182D01*
X459496Y485610D01*
X460051Y485052D01*
X460618Y484507D01*
X461199Y483977D01*
X461793Y483461D01*
X462399Y482959D01*
X463018Y482473D01*
X463648Y482002D01*
X464289Y481546D01*
X464941Y481106D01*
X465604Y480683D01*
X466277Y480275D01*
X466960Y479884D01*
X467652Y479510D01*
X468353Y479154D01*
X469062Y478814D01*
X469780Y478492D01*
X470505Y478187D01*
X471238Y477900D01*
X471977Y477631D01*
X472723Y477381D01*
X473475Y477148D01*
X474232Y476934D01*
X474994Y476739D01*
X475760Y476562D01*
X476531Y476405D01*
X477305Y476266D01*
X478083Y476146D01*
X478863Y476045D01*
X479645Y475963D01*
X480430Y475900D01*
X481215Y475857D01*
X482001Y475833D01*
X482788Y475828D01*
X483575Y475842D01*
X484361Y475875D01*
X485145Y475928D01*
X485929Y476000D01*
X486710Y476091D01*
X487489Y476201D01*
X488265Y476330D01*
X489038Y476478D01*
X489807Y476645D01*
X490571Y476830D01*
X491331Y477034D01*
X492085Y477257D01*
X492834Y477498D01*
X493577Y477757D01*
X494313Y478035D01*
X495042Y478330D01*
X495764Y478643D01*
X496478Y478974D01*
X497183Y479322D01*
X497880Y479687D01*
X498568Y480069D01*
X499246Y480468D01*
X499914Y480883D01*
X500572Y481315D01*
X501219Y481762D01*
X501855Y482225D01*
X502479Y482704D01*
X503092Y483197D01*
X503692Y483706D01*
X504280Y484229D01*
X504855Y484766D01*
X505416Y485317D01*
X505964Y485881D01*
X506498Y486459D01*
X507017Y487050D01*
X507522Y487653D01*
X508012Y488269D01*
X508487Y488896D01*
X508946Y489535D01*
X509390Y490184D01*
X509818Y490845D01*
X510229Y491515D01*
X510624Y492196D01*
X511002Y492886D01*
X511363Y493585D01*
X511707Y494292D01*
X512033Y495008D01*
X512342Y495731D01*
X512633Y496462D01*
X512906Y497200D01*
X513161Y497944D01*
X513398Y498694D01*
X513616Y499450D01*
X513816Y500211D01*
X513997Y500977D01*
X514159Y501746D01*
X514303Y502520D01*
X514427Y503297D01*
X514533Y504076D01*
X514619Y504858D01*
X514686Y505642D01*
X514735Y506427D01*
X514763Y507213D01*
X514773Y508000D01*
X514763Y508787D01*
X514735Y509573D01*
X514686Y510358D01*
X514619Y511142D01*
X514533Y511924D01*
X514427Y512703D01*
X514303Y513480D01*
X514159Y514254D01*
X513997Y515023D01*
X513816Y515789D01*
X513616Y516550D01*
X513398Y517306D01*
X513161Y518056D01*
X512906Y518800D01*
X512633Y519538D01*
X512342Y520269D01*
X512033Y520992D01*
X511707Y521708D01*
X511363Y522415D01*
X511002Y523114D01*
X510624Y523804D01*
X510229Y524485D01*
X509818Y525155D01*
X509390Y525816D01*
X508946Y526465D01*
X508487Y527104D01*
X508012Y527731D01*
X507522Y528347D01*
X507017Y528950D01*
X506498Y529541D01*
X505964Y530119D01*
X505416Y530683D01*
X504855Y531234D01*
X504280Y531771D01*
X503692Y532294D01*
X503092Y532803D01*
X502479Y533296D01*
X501855Y533775D01*
X501219Y534238D01*
X500572Y534685D01*
X499914Y535117D01*
X499246Y535532D01*
X498568Y535931D01*
X497880Y536313D01*
X497183Y536678D01*
X496478Y537026D01*
X495764Y537357D01*
X495042Y537670D01*
X494313Y537965D01*
X493577Y538243D01*
X492834Y538502D01*
X492085Y538743D01*
X491331Y538966D01*
X490571Y539170D01*
X489807Y539355D01*
X489038Y539522D01*
X488265Y539670D01*
X487489Y539799D01*
X486710Y539909D01*
X485929Y540000D01*
X485145Y540072D01*
X484361Y540125D01*
X483575Y540158D01*
X482788Y540172D01*
X482001Y540167D01*
X481215Y540143D01*
X480430Y540100D01*
X479645Y540037D01*
X478863Y539955D01*
X478083Y539854D01*
X477305Y539734D01*
X476531Y539595D01*
X475760Y539438D01*
X474994Y539261D01*
X474232Y539066D01*
X473475Y538852D01*
X472723Y538619D01*
X471977Y538369D01*
X471238Y538100D01*
X470505Y537813D01*
X469780Y537508D01*
X469062Y537186D01*
X468353Y536846D01*
X467652Y536490D01*
X466960Y536116D01*
X466277Y535725D01*
X465604Y535317D01*
X464941Y534894D01*
X464289Y534454D01*
X463648Y533998D01*
X463018Y533527D01*
X462399Y533041D01*
X461793Y532539D01*
X461199Y532023D01*
X460618Y531493D01*
X460051Y530948D01*
X459496Y530390D01*
X458956Y529818D01*
X458429Y529234D01*
X457917Y528637D01*
X457420Y528027D01*
X456938Y527405D01*
X457130Y527261D01*
X457609Y527878D01*
X458102Y528483D01*
X458610Y529076D01*
X459133Y529656D01*
X459669Y530224D01*
X460219Y530778D01*
X460783Y531318D01*
X461360Y531845D01*
X461949Y532357D01*
X462551Y532854D01*
X463164Y533337D01*
X463790Y533805D01*
X464426Y534257D01*
X465074Y534693D01*
X465731Y535114D01*
X466399Y535518D01*
X467077Y535906D01*
X467764Y536277D01*
X468460Y536632D01*
X469164Y536969D01*
X469876Y537289D01*
X470596Y537591D01*
X471323Y537876D01*
X472057Y538142D01*
X472797Y538391D01*
X473543Y538622D01*
X474295Y538834D01*
X475051Y539028D01*
X475812Y539203D01*
X476577Y539360D01*
X477345Y539498D01*
X478117Y539617D01*
X478891Y539717D01*
X479668Y539798D01*
X480446Y539860D01*
X481226Y539903D01*
X482006Y539927D01*
X482787Y539932D01*
X483568Y539918D01*
X484348Y539885D01*
X485127Y539833D01*
X485905Y539762D01*
X486680Y539671D01*
X487453Y539562D01*
X488224Y539434D01*
X488990Y539287D01*
X489753Y539121D01*
X490512Y538937D01*
X491266Y538735D01*
X492015Y538513D01*
X492758Y538274D01*
X493495Y538017D01*
X494226Y537741D01*
X494950Y537448D01*
X495666Y537137D01*
X496375Y536809D01*
X497075Y536464D01*
X497766Y536101D01*
X498449Y535722D01*
X499122Y535326D01*
X499785Y534914D01*
X500438Y534486D01*
X501080Y534042D01*
X501712Y533582D01*
X502331Y533108D01*
X502939Y532618D01*
X503535Y532113D01*
X504118Y531594D01*
X504689Y531061D01*
X505246Y530514D01*
X505790Y529953D01*
X506320Y529380D01*
X506835Y528793D01*
X507336Y528195D01*
X507823Y527584D01*
X508294Y526961D01*
X508750Y526327D01*
X509190Y525683D01*
X509615Y525027D01*
X510023Y524362D01*
X510415Y523686D01*
X510790Y523001D01*
X511148Y522308D01*
X511490Y521606D01*
X511814Y520895D01*
X512120Y520177D01*
X512409Y519452D01*
X512680Y518719D01*
X512933Y517981D01*
X513168Y517236D01*
X513385Y516486D01*
X513583Y515731D01*
X513763Y514971D01*
X513924Y514207D01*
X514066Y513439D01*
X514190Y512668D01*
X514295Y511894D01*
X514380Y511118D01*
X514447Y510340D01*
X514495Y509561D01*
X514523Y508781D01*
X514533Y508000D01*
X514523Y507219D01*
X514495Y506439D01*
X514447Y505660D01*
X514380Y504882D01*
X514295Y504106D01*
X514190Y503332D01*
X514066Y502561D01*
X513924Y501793D01*
X513763Y501029D01*
X513583Y500269D01*
X513385Y499514D01*
X513168Y498764D01*
X512933Y498019D01*
X512680Y497281D01*
X512409Y496548D01*
X512120Y495823D01*
X511814Y495105D01*
X511490Y494394D01*
X511148Y493692D01*
X510790Y492999D01*
X510415Y492314D01*
X510023Y491638D01*
X509615Y490973D01*
X509190Y490317D01*
X508750Y489673D01*
X508294Y489039D01*
X507823Y488416D01*
X507336Y487805D01*
X506835Y487207D01*
X506320Y486620D01*
X505790Y486047D01*
X505246Y485486D01*
X504689Y484939D01*
X504118Y484406D01*
X503535Y483887D01*
X502939Y483382D01*
X502331Y482892D01*
X501712Y482418D01*
X501080Y481958D01*
X500438Y481514D01*
X499785Y481086D01*
X499122Y480674D01*
X498449Y480278D01*
X497766Y479899D01*
X497075Y479536D01*
X496375Y479191D01*
X495666Y478863D01*
X494950Y478552D01*
X494226Y478259D01*
X493495Y477983D01*
X492758Y477726D01*
X492015Y477487D01*
X491266Y477265D01*
X490512Y477063D01*
X489753Y476879D01*
X488990Y476713D01*
X488224Y476566D01*
X487453Y476438D01*
X486680Y476329D01*
X485905Y476238D01*
X485127Y476167D01*
X484348Y476115D01*
X483568Y476082D01*
X482787Y476068D01*
X482006Y476073D01*
X481226Y476097D01*
X480446Y476140D01*
X479668Y476202D01*
X478891Y476283D01*
X478117Y476383D01*
X477345Y476502D01*
X476577Y476640D01*
X475812Y476797D01*
X475051Y476972D01*
X474295Y477166D01*
X473543Y477378D01*
X472797Y477609D01*
X472057Y477858D01*
X471323Y478124D01*
X470596Y478409D01*
X469876Y478711D01*
X469164Y479031D01*
X468460Y479368D01*
X467764Y479723D01*
X467077Y480094D01*
X466399Y480482D01*
X465731Y480886D01*
X465074Y481307D01*
X464426Y481743D01*
X463790Y482195D01*
X463164Y482663D01*
X462551Y483146D01*
X461949Y483643D01*
X461360Y484155D01*
X460783Y484682D01*
X460219Y485222D01*
X459669Y485776D01*
X459133Y486344D01*
X458610Y486924D01*
X458102Y487517D01*
X457609Y488122D01*
X457130Y488739D01*
X457322Y488883D01*
X457797Y488270D01*
X458287Y487670D01*
X458791Y487082D01*
X459310Y486506D01*
X459842Y485943D01*
X460388Y485393D01*
X460948Y484857D01*
X461520Y484334D01*
X462105Y483826D01*
X462702Y483332D01*
X463311Y482853D01*
X463932Y482389D01*
X464563Y481940D01*
X465206Y481507D01*
X465859Y481089D01*
X466522Y480688D01*
X467194Y480303D01*
X467876Y479935D01*
X468567Y479583D01*
X469266Y479249D01*
X469973Y478931D01*
X470687Y478631D01*
X471409Y478349D01*
X472137Y478084D01*
X472872Y477837D01*
X473612Y477608D01*
X474358Y477398D01*
X475108Y477205D01*
X475864Y477031D01*
X476623Y476876D01*
X477386Y476739D01*
X478151Y476621D01*
X478920Y476521D01*
X479691Y476441D01*
X480463Y476379D01*
X481237Y476336D01*
X482011Y476312D01*
X482786Y476308D01*
X483561Y476322D01*
X484335Y476355D01*
X485109Y476406D01*
X485880Y476477D01*
X486650Y476567D01*
X487417Y476675D01*
X488182Y476802D01*
X488943Y476948D01*
X489700Y477113D01*
X490453Y477295D01*
X491202Y477497D01*
X491945Y477716D01*
X492682Y477954D01*
X493414Y478209D01*
X494139Y478482D01*
X494857Y478773D01*
X495568Y479082D01*
X496271Y479407D01*
X496966Y479750D01*
X497653Y480110D01*
X498330Y480486D01*
X498998Y480879D01*
X499656Y481288D01*
X500304Y481713D01*
X500942Y482154D01*
X501568Y482610D01*
X502183Y483081D01*
X502787Y483568D01*
X503378Y484068D01*
X503957Y484584D01*
X504523Y485113D01*
X505076Y485656D01*
X505616Y486212D01*
X506142Y486781D01*
X506653Y487363D01*
X507151Y487957D01*
X507633Y488564D01*
X508101Y489181D01*
X508554Y489810D01*
X508991Y490450D01*
X509412Y491101D01*
X509817Y491762D01*
X510206Y492432D01*
X510578Y493111D01*
X510934Y493800D01*
X511273Y494497D01*
X511594Y495202D01*
X511898Y495915D01*
X512185Y496635D01*
X512454Y497361D01*
X512705Y498094D01*
X512938Y498833D01*
X513153Y499578D01*
X513350Y500327D01*
X513529Y501082D01*
X513689Y501840D01*
X513830Y502602D01*
X513953Y503367D01*
X514056Y504135D01*
X514142Y504905D01*
X514208Y505677D01*
X514255Y506451D01*
X514284Y507225D01*
X514293Y508000D01*
X514284Y508775D01*
X514255Y509549D01*
X514208Y510323D01*
X514142Y511095D01*
X514056Y511865D01*
X513953Y512633D01*
X513830Y513398D01*
X513689Y514160D01*
X513529Y514918D01*
X513350Y515673D01*
X513153Y516422D01*
X512938Y517167D01*
X512705Y517906D01*
X512454Y518639D01*
X512185Y519365D01*
X511898Y520085D01*
X511594Y520798D01*
X511273Y521503D01*
X510934Y522200D01*
X510578Y522889D01*
X510206Y523568D01*
X509817Y524238D01*
X509412Y524899D01*
X508991Y525550D01*
X508554Y526190D01*
X508101Y526819D01*
X507633Y527436D01*
X507151Y528043D01*
X506653Y528637D01*
X506142Y529219D01*
X505616Y529788D01*
X505076Y530344D01*
X504523Y530887D01*
X503957Y531416D01*
X503378Y531932D01*
X502787Y532432D01*
X502183Y532919D01*
X501568Y533390D01*
X500942Y533846D01*
X500304Y534287D01*
X499656Y534712D01*
X498998Y535121D01*
X498330Y535514D01*
X497653Y535890D01*
X496966Y536250D01*
X496271Y536593D01*
X495568Y536918D01*
X494857Y537227D01*
X494139Y537518D01*
X493414Y537791D01*
X492682Y538046D01*
X491945Y538284D01*
X491202Y538503D01*
X490453Y538705D01*
X489700Y538887D01*
X488943Y539052D01*
X488182Y539198D01*
X487417Y539325D01*
X486650Y539433D01*
X485880Y539523D01*
X485109Y539594D01*
X484335Y539645D01*
X483561Y539678D01*
X482786Y539692D01*
X482011Y539688D01*
X481237Y539664D01*
X480463Y539621D01*
X479691Y539559D01*
X478920Y539479D01*
X478151Y539379D01*
X477386Y539261D01*
X476623Y539124D01*
X475864Y538969D01*
X475108Y538795D01*
X474358Y538602D01*
X473612Y538392D01*
X472872Y538163D01*
X472137Y537916D01*
X471409Y537651D01*
X470687Y537369D01*
X469973Y537069D01*
X469266Y536751D01*
X468567Y536417D01*
X467876Y536065D01*
X467194Y535697D01*
X466522Y535312D01*
X465859Y534911D01*
X465206Y534493D01*
X464563Y534060D01*
X463932Y533611D01*
X463311Y533147D01*
X462702Y532668D01*
X462105Y532174D01*
X461520Y531666D01*
X460948Y531143D01*
X460388Y530607D01*
X459842Y530057D01*
X459310Y529494D01*
X458791Y528918D01*
X458287Y528330D01*
X457797Y527730D01*
X457322Y527117D01*
X457514Y526973D01*
X457985Y527581D01*
X458471Y528177D01*
X458972Y528761D01*
X459487Y529332D01*
X460015Y529891D01*
X460557Y530437D01*
X461112Y530969D01*
X461680Y531487D01*
X462261Y531992D01*
X462853Y532482D01*
X463458Y532957D01*
X464074Y533418D01*
X464701Y533863D01*
X465338Y534293D01*
X465986Y534707D01*
X466644Y535105D01*
X467312Y535487D01*
X467988Y535853D01*
X468674Y536202D01*
X469367Y536534D01*
X470069Y536849D01*
X470778Y537147D01*
X471494Y537427D01*
X472217Y537690D01*
X472946Y537935D01*
X473681Y538162D01*
X474421Y538371D01*
X475166Y538562D01*
X475915Y538734D01*
X476669Y538889D01*
X477426Y539024D01*
X478186Y539142D01*
X478948Y539240D01*
X479713Y539320D01*
X480480Y539381D01*
X481248Y539424D01*
X482017Y539448D01*
X482786Y539452D01*
X483554Y539439D01*
X484323Y539406D01*
X485090Y539354D01*
X485856Y539284D01*
X486620Y539195D01*
X487381Y539087D01*
X488140Y538961D01*
X488895Y538817D01*
X489647Y538653D01*
X490394Y538472D01*
X491137Y538272D01*
X491874Y538055D01*
X492607Y537819D01*
X493333Y537565D01*
X494052Y537294D01*
X494765Y537005D01*
X495471Y536699D01*
X496168Y536376D01*
X496858Y536036D01*
X497539Y535679D01*
X498211Y535305D01*
X498874Y534915D01*
X499528Y534509D01*
X500171Y534088D01*
X500803Y533650D01*
X501425Y533197D01*
X502035Y532730D01*
X502634Y532247D01*
X503221Y531750D01*
X503795Y531239D01*
X504357Y530714D01*
X504906Y530175D01*
X505442Y529623D01*
X505963Y529058D01*
X506471Y528481D01*
X506965Y527891D01*
X507444Y527289D01*
X507908Y526676D01*
X508357Y526052D01*
X508791Y525416D01*
X509209Y524771D01*
X509611Y524115D01*
X509997Y523450D01*
X510366Y522776D01*
X510719Y522092D01*
X511055Y521401D01*
X511375Y520701D01*
X511677Y519994D01*
X511961Y519279D01*
X512228Y518558D01*
X512477Y517830D01*
X512709Y517097D01*
X512922Y516358D01*
X513117Y515614D01*
X513294Y514866D01*
X513453Y514113D01*
X513593Y513357D01*
X513715Y512598D01*
X513818Y511836D01*
X513903Y511071D01*
X513968Y510305D01*
X514015Y509538D01*
X514044Y508769D01*
X514053Y508000D01*
X514044Y507231D01*
X514015Y506462D01*
X513968Y505695D01*
X513903Y504929D01*
X513818Y504164D01*
X513715Y503402D01*
X513593Y502643D01*
X513453Y501887D01*
X513294Y501134D01*
X513117Y500386D01*
X512922Y499642D01*
X512709Y498903D01*
X512477Y498170D01*
X512228Y497442D01*
X511961Y496721D01*
X511677Y496006D01*
X511375Y495299D01*
X511055Y494599D01*
X510719Y493908D01*
X510366Y493224D01*
X509997Y492550D01*
X509611Y491885D01*
X509209Y491229D01*
X508791Y490584D01*
X508357Y489948D01*
X507908Y489324D01*
X507444Y488711D01*
X506965Y488109D01*
X506471Y487519D01*
X505963Y486942D01*
X505442Y486377D01*
X504906Y485825D01*
X504357Y485286D01*
X503795Y484761D01*
X503221Y484250D01*
X502634Y483753D01*
X502035Y483270D01*
X501425Y482803D01*
X500803Y482350D01*
X500171Y481912D01*
X499528Y481491D01*
X498874Y481085D01*
X498211Y480695D01*
X497539Y480321D01*
X496858Y479964D01*
X496168Y479624D01*
X495471Y479301D01*
X494765Y478995D01*
X494052Y478706D01*
X493333Y478435D01*
X492607Y478181D01*
X491874Y477945D01*
X491137Y477728D01*
X490394Y477528D01*
X489647Y477347D01*
X488895Y477183D01*
X488140Y477039D01*
X487381Y476913D01*
X486620Y476805D01*
X485856Y476716D01*
X485090Y476646D01*
X484323Y476594D01*
X483554Y476561D01*
X482786Y476548D01*
X482017Y476552D01*
X481248Y476576D01*
X480480Y476619D01*
X479713Y476680D01*
X478948Y476760D01*
X478186Y476858D01*
X477426Y476976D01*
X476669Y477111D01*
X475915Y477266D01*
X475166Y477438D01*
X474421Y477629D01*
X473681Y477838D01*
X472946Y478065D01*
X472217Y478310D01*
X471494Y478573D01*
X470778Y478853D01*
X470069Y479151D01*
X469367Y479466D01*
X468674Y479798D01*
X467988Y480147D01*
X467312Y480513D01*
X466644Y480895D01*
X465986Y481293D01*
X465338Y481707D01*
X464701Y482137D01*
X464074Y482582D01*
X463458Y483043D01*
X462853Y483518D01*
X462261Y484008D01*
X461680Y484513D01*
X461112Y485031D01*
X460557Y485563D01*
X460015Y486109D01*
X459487Y486668D01*
X458972Y487239D01*
X458471Y487823D01*
X457985Y488419D01*
X457514Y489027D01*
X457706Y489171D01*
X458174Y488568D01*
X458656Y487976D01*
X459153Y487397D01*
X459664Y486830D01*
X460188Y486275D01*
X460726Y485734D01*
X461277Y485206D01*
X461840Y484691D01*
X462417Y484191D01*
X463005Y483704D01*
X463605Y483233D01*
X464216Y482776D01*
X464838Y482334D01*
X465471Y481907D01*
X466114Y481496D01*
X466767Y481101D01*
X467429Y480722D01*
X468101Y480359D01*
X468781Y480013D01*
X469469Y479683D01*
X470165Y479371D01*
X470869Y479075D01*
X471580Y478797D01*
X472297Y478536D01*
X473020Y478293D01*
X473750Y478068D01*
X474484Y477861D01*
X475223Y477671D01*
X475967Y477500D01*
X476715Y477347D01*
X477466Y477212D01*
X478220Y477096D01*
X478977Y476998D01*
X479736Y476919D01*
X480497Y476858D01*
X481259Y476816D01*
X482022Y476792D01*
X482785Y476788D01*
X483548Y476801D01*
X484310Y476834D01*
X485072Y476885D01*
X485832Y476955D01*
X486590Y477043D01*
X487345Y477150D01*
X488098Y477275D01*
X488848Y477419D01*
X489594Y477581D01*
X490335Y477761D01*
X491072Y477959D01*
X491804Y478175D01*
X492531Y478409D01*
X493251Y478661D01*
X493965Y478930D01*
X494673Y479216D01*
X495373Y479520D01*
X496065Y479841D01*
X496750Y480178D01*
X497426Y480533D01*
X498093Y480903D01*
X498751Y481290D01*
X499399Y481693D01*
X500037Y482112D01*
X500665Y482546D01*
X501282Y482995D01*
X501887Y483459D01*
X502482Y483938D01*
X503064Y484431D01*
X503634Y484939D01*
X504192Y485460D01*
X504736Y485994D01*
X505268Y486542D01*
X505785Y487103D01*
X506289Y487676D01*
X506779Y488261D01*
X507255Y488858D01*
X507715Y489467D01*
X508161Y490086D01*
X508591Y490717D01*
X509006Y491357D01*
X509405Y492008D01*
X509788Y492668D01*
X510155Y493337D01*
X510505Y494015D01*
X510838Y494702D01*
X511155Y495396D01*
X511455Y496098D01*
X511737Y496807D01*
X512002Y497523D01*
X512249Y498245D01*
X512479Y498973D01*
X512691Y499706D01*
X512885Y500444D01*
X513060Y501187D01*
X513218Y501933D01*
X513357Y502684D01*
X513478Y503437D01*
X513580Y504194D01*
X513664Y504952D01*
X513729Y505712D01*
X513776Y506474D01*
X513804Y507237D01*
X513813Y508000D01*
X513804Y508763D01*
X513776Y509526D01*
X513729Y510288D01*
X513664Y511048D01*
X513580Y511806D01*
X513478Y512563D01*
X513357Y513316D01*
X513218Y514067D01*
X513060Y514813D01*
X512885Y515556D01*
X512691Y516294D01*
X512479Y517027D01*
X512249Y517755D01*
X512002Y518477D01*
X511737Y519193D01*
X511455Y519902D01*
X511155Y520604D01*
X510838Y521298D01*
X510505Y521985D01*
X510155Y522663D01*
X509788Y523332D01*
X509405Y523992D01*
X509006Y524643D01*
X508591Y525283D01*
X508161Y525914D01*
X507715Y526533D01*
X507255Y527142D01*
X506779Y527739D01*
X506289Y528324D01*
X505785Y528897D01*
X505268Y529458D01*
X504736Y530006D01*
X504192Y530540D01*
X503634Y531061D01*
X503064Y531569D01*
X502482Y532062D01*
X501887Y532541D01*
X501282Y533005D01*
X500665Y533454D01*
X500037Y533888D01*
X499399Y534307D01*
X498751Y534710D01*
X498093Y535097D01*
X497426Y535467D01*
X496750Y535822D01*
X496065Y536159D01*
X495373Y536480D01*
X494673Y536784D01*
X493965Y537070D01*
X493251Y537339D01*
X492531Y537591D01*
X491804Y537825D01*
X491072Y538041D01*
X490335Y538239D01*
X489594Y538419D01*
X488848Y538581D01*
X488098Y538725D01*
X487345Y538850D01*
X486590Y538957D01*
X485832Y539045D01*
X485072Y539115D01*
X484310Y539166D01*
X483548Y539199D01*
X482785Y539212D01*
X482022Y539208D01*
X481259Y539184D01*
X480497Y539142D01*
X479736Y539081D01*
X478977Y539002D01*
X478220Y538904D01*
X477466Y538788D01*
X476715Y538653D01*
X475967Y538500D01*
X475223Y538329D01*
X474484Y538139D01*
X473750Y537932D01*
X473020Y537707D01*
X472297Y537464D01*
X471580Y537203D01*
X470869Y536925D01*
X470165Y536629D01*
X469469Y536317D01*
X468781Y535987D01*
X468101Y535641D01*
X467429Y535278D01*
X466767Y534899D01*
X466114Y534504D01*
X465471Y534093D01*
X464838Y533666D01*
X464216Y533224D01*
X463605Y532767D01*
X463005Y532296D01*
X462417Y531809D01*
X461840Y531309D01*
X461277Y530794D01*
X460726Y530266D01*
X460188Y529725D01*
X459664Y529170D01*
X459153Y528603D01*
X458656Y528024D01*
X458174Y527432D01*
X457706Y526829D01*
X457898Y526685D01*
X458362Y527284D01*
X458841Y527870D01*
X459334Y528445D01*
X459841Y529008D01*
X460361Y529558D01*
X460895Y530095D01*
X461441Y530620D01*
X462001Y531130D01*
X462572Y531627D01*
X463156Y532109D01*
X463751Y532577D01*
X464358Y533031D01*
X464975Y533469D01*
X465603Y533893D01*
X466241Y534301D01*
X466889Y534693D01*
X467547Y535069D01*
X468213Y535429D01*
X468888Y535772D01*
X469571Y536099D01*
X470262Y536409D01*
X470960Y536703D01*
X471665Y536979D01*
X472377Y537237D01*
X473095Y537478D01*
X473818Y537702D01*
X474547Y537908D01*
X475281Y538096D01*
X476019Y538266D01*
X476761Y538418D01*
X477506Y538551D01*
X478254Y538667D01*
X479005Y538764D01*
X479759Y538842D01*
X480514Y538903D01*
X481270Y538944D01*
X482027Y538968D01*
X482784Y538972D01*
X483541Y538959D01*
X484298Y538926D01*
X485053Y538876D01*
X485807Y538806D01*
X486560Y538719D01*
X487310Y538613D01*
X488057Y538489D01*
X488800Y538346D01*
X489540Y538185D01*
X490276Y538007D01*
X491008Y537810D01*
X491734Y537596D01*
X492455Y537363D01*
X493170Y537114D01*
X493878Y536847D01*
X494580Y536562D01*
X495275Y536261D01*
X495962Y535942D01*
X496641Y535607D01*
X497312Y535256D01*
X497974Y534888D01*
X498627Y534504D01*
X499270Y534104D01*
X499903Y533689D01*
X500526Y533258D01*
X501138Y532813D01*
X501739Y532352D01*
X502329Y531877D01*
X502907Y531387D01*
X503473Y530884D01*
X504026Y530367D01*
X504566Y529836D01*
X505093Y529293D01*
X505607Y528736D01*
X506107Y528168D01*
X506593Y527587D01*
X507065Y526994D01*
X507522Y526391D01*
X507964Y525776D01*
X508391Y525150D01*
X508803Y524515D01*
X509199Y523869D01*
X509579Y523214D01*
X509943Y522550D01*
X510290Y521877D01*
X510621Y521196D01*
X510936Y520507D01*
X511233Y519810D01*
X511513Y519107D01*
X511776Y518397D01*
X512021Y517680D01*
X512249Y516958D01*
X512459Y516230D01*
X512652Y515498D01*
X512826Y514761D01*
X512982Y514020D01*
X513120Y513275D01*
X513240Y512528D01*
X513342Y511777D01*
X513425Y511024D01*
X513490Y510270D01*
X513536Y509514D01*
X513564Y508757D01*
X513573Y508000D01*
X513564Y507243D01*
X513536Y506486D01*
X513490Y505730D01*
X513425Y504976D01*
X513342Y504223D01*
X513240Y503472D01*
X513120Y502725D01*
X512982Y501980D01*
X512826Y501239D01*
X512652Y500502D01*
X512459Y499770D01*
X512249Y499042D01*
X512021Y498320D01*
X511776Y497603D01*
X511513Y496893D01*
X511233Y496190D01*
X510936Y495493D01*
X510621Y494804D01*
X510290Y494123D01*
X509943Y493450D01*
X509579Y492786D01*
X509199Y492131D01*
X508803Y491485D01*
X508391Y490850D01*
X507964Y490224D01*
X507522Y489609D01*
X507065Y489006D01*
X506593Y488413D01*
X506107Y487832D01*
X505607Y487264D01*
X505093Y486707D01*
X504566Y486164D01*
X504026Y485633D01*
X503473Y485116D01*
X502907Y484613D01*
X502329Y484123D01*
X501739Y483648D01*
X501138Y483187D01*
X500526Y482742D01*
X499903Y482311D01*
X499270Y481896D01*
X498627Y481496D01*
X497974Y481112D01*
X497312Y480744D01*
X496641Y480393D01*
X495962Y480058D01*
X495275Y479739D01*
X494580Y479438D01*
X493878Y479153D01*
X493170Y478886D01*
X492455Y478637D01*
X491734Y478404D01*
X491008Y478190D01*
X490276Y477993D01*
X489540Y477815D01*
X488800Y477654D01*
X488057Y477511D01*
X487310Y477387D01*
X486560Y477281D01*
X485807Y477194D01*
X485053Y477124D01*
X484298Y477074D01*
X483541Y477041D01*
X482784Y477028D01*
X482027Y477032D01*
X481270Y477056D01*
X480514Y477097D01*
X479759Y477158D01*
X479005Y477236D01*
X478254Y477333D01*
X477506Y477449D01*
X476761Y477582D01*
X476019Y477734D01*
X475281Y477904D01*
X474547Y478092D01*
X473818Y478298D01*
X473095Y478522D01*
X472377Y478763D01*
X471665Y479021D01*
X470960Y479297D01*
X470262Y479591D01*
X469571Y479901D01*
X468888Y480228D01*
X468213Y480571D01*
X467547Y480931D01*
X466889Y481307D01*
X466241Y481699D01*
X465603Y482107D01*
X464975Y482531D01*
X464358Y482969D01*
X463751Y483423D01*
X463156Y483891D01*
X462572Y484373D01*
X462001Y484870D01*
X461441Y485380D01*
X460895Y485905D01*
X460361Y486442D01*
X459841Y486992D01*
X459334Y487555D01*
X458841Y488130D01*
X458362Y488716D01*
X457898Y489315D01*
X458090Y489459D01*
X458551Y488865D01*
X459026Y488283D01*
X459515Y487712D01*
X460018Y487154D01*
X460534Y486608D01*
X461064Y486075D01*
X461606Y485555D01*
X462161Y485049D01*
X462728Y484556D01*
X463307Y484077D01*
X463898Y483612D01*
X464500Y483162D01*
X465113Y482727D01*
X465736Y482307D01*
X466369Y481903D01*
X467012Y481514D01*
X467664Y481141D01*
X468325Y480783D01*
X468995Y480443D01*
X469672Y480118D01*
X470358Y479810D01*
X471051Y479520D01*
X471751Y479246D01*
X472457Y478989D01*
X473169Y478750D01*
X473887Y478528D01*
X474610Y478324D01*
X475338Y478137D01*
X476070Y477969D01*
X476807Y477818D01*
X477546Y477685D01*
X478289Y477571D01*
X479034Y477475D01*
X479781Y477397D01*
X480530Y477337D01*
X481281Y477295D01*
X482032Y477272D01*
X482783Y477268D01*
X483534Y477281D01*
X484285Y477313D01*
X485035Y477364D01*
X485783Y477432D01*
X486530Y477519D01*
X487274Y477624D01*
X488015Y477748D01*
X488753Y477889D01*
X489487Y478049D01*
X490217Y478226D01*
X490943Y478421D01*
X491664Y478634D01*
X492379Y478864D01*
X493088Y479112D01*
X493791Y479377D01*
X494488Y479659D01*
X495177Y479958D01*
X495859Y480274D01*
X496533Y480607D01*
X497198Y480955D01*
X497855Y481320D01*
X498503Y481701D01*
X499141Y482098D01*
X499769Y482510D01*
X500387Y482938D01*
X500995Y483380D01*
X501591Y483837D01*
X502176Y484309D01*
X502750Y484794D01*
X503311Y485294D01*
X503860Y485807D01*
X504396Y486333D01*
X504919Y486873D01*
X505429Y487425D01*
X505925Y487989D01*
X506408Y488565D01*
X506876Y489153D01*
X507329Y489752D01*
X507768Y490362D01*
X508192Y490983D01*
X508600Y491614D01*
X508993Y492254D01*
X509370Y492904D01*
X509731Y493563D01*
X510076Y494231D01*
X510404Y494907D01*
X510716Y495590D01*
X511011Y496281D01*
X511289Y496979D01*
X511550Y497684D01*
X511793Y498395D01*
X512020Y499112D01*
X512228Y499833D01*
X512419Y500560D01*
X512592Y501291D01*
X512747Y502027D01*
X512884Y502766D01*
X513003Y503508D01*
X513104Y504252D01*
X513186Y504999D01*
X513250Y505748D01*
X513296Y506498D01*
X513324Y507249D01*
X513333Y508000D01*
X513324Y508751D01*
X513296Y509502D01*
X513250Y510252D01*
X513186Y511001D01*
X513104Y511748D01*
X513003Y512492D01*
X512884Y513234D01*
X512747Y513973D01*
X512592Y514709D01*
X512419Y515440D01*
X512228Y516167D01*
X512020Y516888D01*
X511793Y517605D01*
X511550Y518316D01*
X511289Y519021D01*
X511011Y519719D01*
X510716Y520410D01*
X510404Y521093D01*
X510076Y521769D01*
X509731Y522437D01*
X509370Y523096D01*
X508993Y523746D01*
X508600Y524386D01*
X508192Y525017D01*
X507768Y525638D01*
X507329Y526248D01*
X506876Y526847D01*
X506408Y527435D01*
X505925Y528011D01*
X505429Y528575D01*
X504919Y529127D01*
X504396Y529667D01*
X503860Y530193D01*
X503311Y530706D01*
X502750Y531206D01*
X502176Y531691D01*
X501591Y532163D01*
X500995Y532620D01*
X500387Y533062D01*
X499769Y533490D01*
X499141Y533902D01*
X498503Y534299D01*
X497855Y534680D01*
X497198Y535045D01*
X496533Y535393D01*
X495859Y535726D01*
X495177Y536042D01*
X494488Y536341D01*
X493791Y536623D01*
X493088Y536888D01*
X492379Y537136D01*
X491664Y537366D01*
X490943Y537579D01*
X490217Y537774D01*
X489487Y537951D01*
X488753Y538111D01*
X488015Y538252D01*
X487274Y538376D01*
X486530Y538481D01*
X485783Y538568D01*
X485035Y538636D01*
X484285Y538687D01*
X483534Y538719D01*
X482783Y538732D01*
X482032Y538728D01*
X481281Y538705D01*
X480530Y538663D01*
X479781Y538603D01*
X479034Y538525D01*
X478289Y538429D01*
X477546Y538315D01*
X476807Y538182D01*
X476070Y538031D01*
X475338Y537863D01*
X474610Y537676D01*
X473887Y537472D01*
X473169Y537250D01*
X472457Y537011D01*
X471751Y536754D01*
X471051Y536480D01*
X470358Y536190D01*
X469672Y535882D01*
X468995Y535557D01*
X468325Y535217D01*
X467664Y534859D01*
X467012Y534486D01*
X466369Y534097D01*
X465736Y533693D01*
X465113Y533273D01*
X464500Y532838D01*
X463898Y532388D01*
X463307Y531923D01*
X462728Y531444D01*
X462161Y530951D01*
X461606Y530445D01*
X461064Y529925D01*
X460534Y529392D01*
X460018Y528846D01*
X459515Y528288D01*
X459026Y527717D01*
X458551Y527135D01*
X458090Y526541D01*
D10*
X457200Y508000D02*
X457208Y508623D01*
X457231Y509246D01*
X457269Y509869D01*
X457322Y510490D01*
X457391Y511109D01*
X457475Y511727D01*
X457574Y512342D01*
X457688Y512955D01*
X457817Y513565D01*
X457961Y514172D01*
X458120Y514775D01*
X458294Y515373D01*
X458482Y515968D01*
X458685Y516557D01*
X458902Y517141D01*
X459133Y517720D01*
X459379Y518293D01*
X459639Y518860D01*
X459912Y519420D01*
X460199Y519973D01*
X460500Y520520D01*
X460814Y521058D01*
X461141Y521589D01*
X461481Y522111D01*
X461833Y522626D01*
X462199Y523131D01*
X462576Y523627D01*
X462966Y524114D01*
X463367Y524591D01*
X463780Y525058D01*
X464204Y525514D01*
X464639Y525961D01*
X465086Y526396D01*
X465542Y526820D01*
X466009Y527233D01*
X466486Y527634D01*
X466973Y528024D01*
X467469Y528401D01*
X467974Y528767D01*
X468489Y529119D01*
X469011Y529459D01*
X469542Y529786D01*
X470080Y530100D01*
X470627Y530401D01*
X471180Y530688D01*
X471740Y530961D01*
X472307Y531221D01*
X472880Y531467D01*
X473459Y531698D01*
X474043Y531915D01*
X474632Y532118D01*
X475227Y532306D01*
X475825Y532480D01*
X476428Y532639D01*
X477035Y532783D01*
X477645Y532912D01*
X478258Y533026D01*
X478873Y533125D01*
X479491Y533209D01*
X480110Y533278D01*
X480731Y533331D01*
X481354Y533369D01*
X481977Y533392D01*
X482600Y533400D01*
X483223Y533392D01*
X483846Y533369D01*
X484469Y533331D01*
X485090Y533278D01*
X485709Y533209D01*
X486327Y533125D01*
X486942Y533026D01*
X487555Y532912D01*
X488165Y532783D01*
X488772Y532639D01*
X489375Y532480D01*
X489973Y532306D01*
X490568Y532118D01*
X491157Y531915D01*
X491741Y531698D01*
X492320Y531467D01*
X492893Y531221D01*
X493460Y530961D01*
X494020Y530688D01*
X494573Y530401D01*
X495120Y530100D01*
X495658Y529786D01*
X496189Y529459D01*
X496711Y529119D01*
X497226Y528767D01*
X497731Y528401D01*
X498227Y528024D01*
X498714Y527634D01*
X499191Y527233D01*
X499658Y526820D01*
X500114Y526396D01*
X500561Y525961D01*
X500996Y525514D01*
X501420Y525058D01*
X501833Y524591D01*
X502234Y524114D01*
X502624Y523627D01*
X503001Y523131D01*
X503367Y522626D01*
X503719Y522111D01*
X504059Y521589D01*
X504386Y521058D01*
X504700Y520520D01*
X505001Y519973D01*
X505288Y519420D01*
X505561Y518860D01*
X505821Y518293D01*
X506067Y517720D01*
X506298Y517141D01*
X506515Y516557D01*
X506718Y515968D01*
X506906Y515373D01*
X507080Y514775D01*
X507239Y514172D01*
X507383Y513565D01*
X507512Y512955D01*
X507626Y512342D01*
X507725Y511727D01*
X507809Y511109D01*
X507878Y510490D01*
X507931Y509869D01*
X507969Y509246D01*
X507992Y508623D01*
X508000Y508000D01*
X507992Y507377D01*
X507969Y506754D01*
X507931Y506131D01*
X507878Y505510D01*
X507809Y504891D01*
X507725Y504273D01*
X507626Y503658D01*
X507512Y503045D01*
X507383Y502435D01*
X507239Y501828D01*
X507080Y501225D01*
X506906Y500627D01*
X506718Y500032D01*
X506515Y499443D01*
X506298Y498859D01*
X506067Y498280D01*
X505821Y497707D01*
X505561Y497140D01*
X505288Y496580D01*
X505001Y496027D01*
X504700Y495480D01*
X504386Y494942D01*
X504059Y494411D01*
X503719Y493889D01*
X503367Y493374D01*
X503001Y492869D01*
X502624Y492373D01*
X502234Y491886D01*
X501833Y491409D01*
X501420Y490942D01*
X500996Y490486D01*
X500561Y490039D01*
X500114Y489604D01*
X499658Y489180D01*
X499191Y488767D01*
X498714Y488366D01*
X498227Y487976D01*
X497731Y487599D01*
X497226Y487233D01*
X496711Y486881D01*
X496189Y486541D01*
X495658Y486214D01*
X495120Y485900D01*
X494573Y485599D01*
X494020Y485312D01*
X493460Y485039D01*
X492893Y484779D01*
X492320Y484533D01*
X491741Y484302D01*
X491157Y484085D01*
X490568Y483882D01*
X489973Y483694D01*
X489375Y483520D01*
X488772Y483361D01*
X488165Y483217D01*
X487555Y483088D01*
X486942Y482974D01*
X486327Y482875D01*
X485709Y482791D01*
X485090Y482722D01*
X484469Y482669D01*
X483846Y482631D01*
X483223Y482608D01*
X482600Y482600D01*
X481977Y482608D01*
X481354Y482631D01*
X480731Y482669D01*
X480110Y482722D01*
X479491Y482791D01*
X478873Y482875D01*
X478258Y482974D01*
X477645Y483088D01*
X477035Y483217D01*
X476428Y483361D01*
X475825Y483520D01*
X475227Y483694D01*
X474632Y483882D01*
X474043Y484085D01*
X473459Y484302D01*
X472880Y484533D01*
X472307Y484779D01*
X471740Y485039D01*
X471180Y485312D01*
X470627Y485599D01*
X470080Y485900D01*
X469542Y486214D01*
X469011Y486541D01*
X468489Y486881D01*
X467974Y487233D01*
X467469Y487599D01*
X466973Y487976D01*
X466486Y488366D01*
X466009Y488767D01*
X465542Y489180D01*
X465086Y489604D01*
X464639Y490039D01*
X464204Y490486D01*
X463780Y490942D01*
X463367Y491409D01*
X462966Y491886D01*
X462576Y492373D01*
X462199Y492869D01*
X461833Y493374D01*
X461481Y493889D01*
X461141Y494411D01*
X460814Y494942D01*
X460500Y495480D01*
X460199Y496027D01*
X459912Y496580D01*
X459639Y497140D01*
X459379Y497707D01*
X459133Y498280D01*
X458902Y498859D01*
X458685Y499443D01*
X458482Y500032D01*
X458294Y500627D01*
X458120Y501225D01*
X457961Y501828D01*
X457817Y502435D01*
X457688Y503045D01*
X457574Y503658D01*
X457475Y504273D01*
X457391Y504891D01*
X457322Y505510D01*
X457269Y506131D01*
X457231Y506754D01*
X457208Y507377D01*
X457200Y508000D01*
D11*
X412267Y502031D02*
X412267Y490601D01*
X417347Y490601D01*
X422173Y490601D02*
X427253Y490601D01*
X422173Y490601D02*
X422173Y502031D01*
X427253Y502031D01*
X425983Y496951D02*
X422173Y496951D01*
X432054Y502031D02*
X432054Y490601D01*
X432054Y502031D02*
X435229Y502031D01*
X435340Y502029D01*
X435450Y502023D01*
X435561Y502014D01*
X435671Y502000D01*
X435780Y501983D01*
X435889Y501962D01*
X435997Y501937D01*
X436104Y501908D01*
X436210Y501876D01*
X436315Y501840D01*
X436418Y501800D01*
X436520Y501757D01*
X436621Y501710D01*
X436720Y501659D01*
X436817Y501606D01*
X436911Y501549D01*
X437004Y501488D01*
X437095Y501425D01*
X437184Y501358D01*
X437270Y501288D01*
X437353Y501215D01*
X437435Y501140D01*
X437513Y501062D01*
X437588Y500980D01*
X437661Y500897D01*
X437731Y500811D01*
X437798Y500722D01*
X437861Y500631D01*
X437922Y500538D01*
X437979Y500444D01*
X438032Y500347D01*
X438083Y500248D01*
X438130Y500147D01*
X438173Y500045D01*
X438213Y499942D01*
X438249Y499837D01*
X438281Y499731D01*
X438310Y499624D01*
X438335Y499516D01*
X438356Y499407D01*
X438373Y499298D01*
X438387Y499188D01*
X438396Y499077D01*
X438402Y498967D01*
X438404Y498856D01*
X438404Y493776D01*
X438402Y493665D01*
X438396Y493555D01*
X438387Y493444D01*
X438373Y493334D01*
X438356Y493225D01*
X438335Y493116D01*
X438310Y493008D01*
X438281Y492901D01*
X438249Y492795D01*
X438213Y492690D01*
X438173Y492587D01*
X438130Y492485D01*
X438083Y492384D01*
X438032Y492285D01*
X437979Y492188D01*
X437922Y492094D01*
X437861Y492001D01*
X437798Y491910D01*
X437731Y491821D01*
X437661Y491735D01*
X437588Y491652D01*
X437513Y491570D01*
X437435Y491492D01*
X437353Y491417D01*
X437270Y491344D01*
X437184Y491274D01*
X437095Y491207D01*
X437004Y491144D01*
X436911Y491083D01*
X436817Y491026D01*
X436720Y490973D01*
X436621Y490922D01*
X436520Y490875D01*
X436418Y490832D01*
X436315Y490792D01*
X436210Y490756D01*
X436104Y490724D01*
X435997Y490695D01*
X435889Y490670D01*
X435780Y490649D01*
X435671Y490632D01*
X435561Y490618D01*
X435450Y490609D01*
X435340Y490603D01*
X435229Y490601D01*
X432054Y490601D01*
X443865Y499491D02*
X447040Y502031D01*
X447040Y490601D01*
X443865Y490601D02*
X450215Y490601D01*
D10*
X511810Y547370D02*
X511910Y547372D01*
X512009Y547378D01*
X512109Y547388D01*
X512207Y547401D01*
X512306Y547419D01*
X512403Y547440D01*
X512499Y547465D01*
X512595Y547494D01*
X512689Y547527D01*
X512782Y547563D01*
X512873Y547603D01*
X512963Y547647D01*
X513051Y547694D01*
X513137Y547744D01*
X513221Y547798D01*
X513303Y547855D01*
X513382Y547915D01*
X513460Y547979D01*
X513534Y548045D01*
X513606Y548114D01*
X513675Y548186D01*
X513741Y548260D01*
X513805Y548338D01*
X513865Y548417D01*
X513922Y548499D01*
X513976Y548583D01*
X514026Y548669D01*
X514073Y548757D01*
X514117Y548847D01*
X514157Y548938D01*
X514193Y549031D01*
X514226Y549125D01*
X514255Y549221D01*
X514280Y549317D01*
X514301Y549414D01*
X514319Y549513D01*
X514332Y549611D01*
X514342Y549711D01*
X514348Y549810D01*
X514350Y549910D01*
X514350Y567690D02*
X514348Y567790D01*
X514342Y567889D01*
X514332Y567989D01*
X514319Y568087D01*
X514301Y568186D01*
X514280Y568283D01*
X514255Y568379D01*
X514226Y568475D01*
X514193Y568569D01*
X514157Y568662D01*
X514117Y568753D01*
X514073Y568843D01*
X514026Y568931D01*
X513976Y569017D01*
X513922Y569101D01*
X513865Y569183D01*
X513805Y569262D01*
X513741Y569340D01*
X513675Y569414D01*
X513606Y569486D01*
X513534Y569555D01*
X513460Y569621D01*
X513382Y569685D01*
X513303Y569745D01*
X513221Y569802D01*
X513137Y569856D01*
X513051Y569906D01*
X512963Y569953D01*
X512873Y569997D01*
X512782Y570037D01*
X512689Y570073D01*
X512595Y570106D01*
X512499Y570135D01*
X512403Y570160D01*
X512306Y570181D01*
X512207Y570199D01*
X512109Y570212D01*
X512009Y570222D01*
X511910Y570228D01*
X511810Y570230D01*
X453390Y570230D02*
X453290Y570228D01*
X453191Y570222D01*
X453091Y570212D01*
X452993Y570199D01*
X452894Y570181D01*
X452797Y570160D01*
X452701Y570135D01*
X452605Y570106D01*
X452511Y570073D01*
X452418Y570037D01*
X452327Y569997D01*
X452237Y569953D01*
X452149Y569906D01*
X452063Y569856D01*
X451979Y569802D01*
X451897Y569745D01*
X451818Y569685D01*
X451740Y569621D01*
X451666Y569555D01*
X451594Y569486D01*
X451525Y569414D01*
X451459Y569340D01*
X451395Y569262D01*
X451335Y569183D01*
X451278Y569101D01*
X451224Y569017D01*
X451174Y568931D01*
X451127Y568843D01*
X451083Y568753D01*
X451043Y568662D01*
X451007Y568569D01*
X450974Y568475D01*
X450945Y568379D01*
X450920Y568283D01*
X450899Y568186D01*
X450881Y568087D01*
X450868Y567989D01*
X450858Y567889D01*
X450852Y567790D01*
X450850Y567690D01*
X450850Y549910D02*
X450852Y549810D01*
X450858Y549711D01*
X450868Y549611D01*
X450881Y549513D01*
X450899Y549414D01*
X450920Y549317D01*
X450945Y549221D01*
X450974Y549125D01*
X451007Y549031D01*
X451043Y548938D01*
X451083Y548847D01*
X451127Y548757D01*
X451174Y548669D01*
X451224Y548583D01*
X451278Y548499D01*
X451335Y548417D01*
X451395Y548338D01*
X451459Y548260D01*
X451525Y548186D01*
X451594Y548114D01*
X451666Y548045D01*
X451740Y547979D01*
X451818Y547915D01*
X451897Y547855D01*
X451979Y547798D01*
X452063Y547744D01*
X452149Y547694D01*
X452237Y547647D01*
X452327Y547603D01*
X452418Y547563D01*
X452511Y547527D01*
X452605Y547494D01*
X452701Y547465D01*
X452797Y547440D01*
X452894Y547419D01*
X452993Y547401D01*
X453091Y547388D01*
X453191Y547378D01*
X453290Y547372D01*
X453390Y547370D01*
X514350Y549910D02*
X514350Y567690D01*
X511810Y547370D02*
X508000Y547370D01*
X506730Y548640D01*
X508000Y570230D02*
X511810Y570230D01*
X508000Y570230D02*
X506730Y568960D01*
X458470Y548640D02*
X457200Y547370D01*
X458470Y548640D02*
X506730Y548640D01*
X458470Y568960D02*
X457200Y570230D01*
X458470Y568960D02*
X506730Y568960D01*
X457200Y547370D02*
X453390Y547370D01*
X453390Y570230D02*
X457200Y570230D01*
X450850Y567690D02*
X450850Y549910D01*
D14*
X446532Y558800D03*
X518668Y558800D03*
D11*
X494748Y542925D02*
X494748Y531495D01*
X494748Y542925D02*
X497923Y542925D01*
X498034Y542923D01*
X498144Y542917D01*
X498255Y542908D01*
X498365Y542894D01*
X498474Y542877D01*
X498583Y542856D01*
X498691Y542831D01*
X498798Y542802D01*
X498904Y542770D01*
X499009Y542734D01*
X499112Y542694D01*
X499214Y542651D01*
X499315Y542604D01*
X499414Y542553D01*
X499511Y542500D01*
X499605Y542443D01*
X499698Y542382D01*
X499789Y542319D01*
X499878Y542252D01*
X499964Y542182D01*
X500047Y542109D01*
X500129Y542034D01*
X500207Y541956D01*
X500282Y541874D01*
X500355Y541791D01*
X500425Y541705D01*
X500492Y541616D01*
X500555Y541525D01*
X500616Y541432D01*
X500673Y541337D01*
X500726Y541241D01*
X500777Y541142D01*
X500824Y541041D01*
X500867Y540939D01*
X500907Y540836D01*
X500943Y540731D01*
X500975Y540625D01*
X501004Y540518D01*
X501029Y540410D01*
X501050Y540301D01*
X501067Y540192D01*
X501081Y540082D01*
X501090Y539971D01*
X501096Y539861D01*
X501098Y539750D01*
X501096Y539639D01*
X501090Y539529D01*
X501081Y539418D01*
X501067Y539308D01*
X501050Y539199D01*
X501029Y539090D01*
X501004Y538982D01*
X500975Y538875D01*
X500943Y538769D01*
X500907Y538664D01*
X500867Y538561D01*
X500824Y538459D01*
X500777Y538358D01*
X500726Y538259D01*
X500673Y538163D01*
X500616Y538068D01*
X500555Y537975D01*
X500492Y537884D01*
X500425Y537795D01*
X500355Y537709D01*
X500282Y537626D01*
X500207Y537544D01*
X500129Y537466D01*
X500047Y537391D01*
X499964Y537318D01*
X499878Y537248D01*
X499789Y537181D01*
X499698Y537118D01*
X499605Y537057D01*
X499511Y537000D01*
X499414Y536947D01*
X499315Y536896D01*
X499214Y536849D01*
X499112Y536806D01*
X499009Y536766D01*
X498904Y536730D01*
X498798Y536698D01*
X498691Y536669D01*
X498583Y536644D01*
X498474Y536623D01*
X498365Y536606D01*
X498255Y536592D01*
X498144Y536583D01*
X498034Y536577D01*
X497923Y536575D01*
X494748Y536575D01*
X498558Y536575D02*
X501098Y531495D01*
X506095Y540385D02*
X509270Y542925D01*
X509270Y531495D01*
X506095Y531495D02*
X512445Y531495D01*
M02*
