G04 EAGLE Gerber RS-274X export*
G75*
%MOMM*%
%FSLAX34Y34*%
%LPD*%
%INSoldermask Top*%
%IPPOS*%
%AMOC8*
5,1,8,0,0,1.08239X$1,22.5*%
G01*
%ADD10P,2.144431X8X22.500000*%
%ADD11P,2.144431X8X202.500000*%
%ADD12C,5.003200*%
%ADD13C,3.203200*%
%ADD14P,2.034460X8X202.500000*%
%ADD15P,1.649562X8X202.500000*%


D10*
X114300Y469900D03*
X114300Y444500D03*
X114300Y419100D03*
X114300Y393700D03*
X114300Y368300D03*
X114300Y342900D03*
X114300Y317500D03*
X114300Y292100D03*
X114300Y266700D03*
X114300Y241300D03*
X114300Y215900D03*
X114300Y190500D03*
X114300Y165100D03*
X114300Y139700D03*
X114300Y114300D03*
X393700Y114300D03*
X393700Y139700D03*
X393700Y165100D03*
X393700Y190500D03*
X393700Y215900D03*
X393700Y241300D03*
X393700Y266700D03*
X393700Y292100D03*
X393700Y317500D03*
X393700Y342900D03*
X393700Y368300D03*
X393700Y393700D03*
X393700Y419100D03*
X393700Y444500D03*
X393700Y469900D03*
D11*
X711200Y177800D03*
X711200Y203200D03*
X711200Y228600D03*
X711200Y254000D03*
X711200Y279400D03*
X711200Y304800D03*
X711200Y330200D03*
X711200Y355600D03*
X457200Y355600D03*
X457200Y330200D03*
X457200Y304800D03*
X457200Y279400D03*
X457200Y254000D03*
X457200Y228600D03*
X457200Y203200D03*
X457200Y177800D03*
D12*
X566700Y88300D03*
X519700Y118300D03*
X519700Y59300D03*
D13*
X50800Y50800D03*
X50800Y571500D03*
X723900Y571500D03*
X723900Y50800D03*
D14*
X495300Y508000D03*
X469900Y508000D03*
D15*
X533400Y558800D03*
X431800Y558800D03*
M02*
